<?xml version="1.0" encoding="utf-8" standalone="no"?>
<!DOCTYPE svg PUBLIC "-//W3C//DTD SVG 1.1//EN"
  "http://www.w3.org/Graphics/SVG/1.1/DTD/svg11.dtd">
<svg xmlns:xlink="http://www.w3.org/1999/xlink" width="504pt" height="504pt" viewBox="0 0 504 504" xmlns="http://www.w3.org/2000/svg" version="1.1">
 <metadata>
  <rdf:RDF xmlns:dc="http://purl.org/dc/elements/1.1/" xmlns:cc="http://creativecommons.org/ns#" xmlns:rdf="http://www.w3.org/1999/02/22-rdf-syntax-ns#">
   <cc:Work>
    <dc:type rdf:resource="http://purl.org/dc/dcmitype/StillImage"/>
    <dc:date>2024-10-29T14:59:35.713029</dc:date>
    <dc:format>image/svg+xml</dc:format>
    <dc:creator>
     <cc:Agent>
      <dc:title>Matplotlib v3.9.2, https://matplotlib.org/</dc:title>
     </cc:Agent>
    </dc:creator>
   </cc:Work>
  </rdf:RDF>
 </metadata>
 <defs>
  <style type="text/css">*{stroke-linejoin: round; stroke-linecap: butt}</style>
 </defs>
 <g id="figure_1">
  <g id="patch_1">
   <path d="M 0 504 
L 504 504 
L 504 0 
L 0 0 
L 0 504 
z
" style="fill: none; opacity: 0"/>
  </g>
  <g id="axes_1">
   <g id="patch_2">
    <path d="M 10.8 493.2 
L 493.2 493.2 
L 493.2 10.8 
L 10.8 10.8 
L 10.8 493.2 
z
" style="fill: none; opacity: 0"/>
   </g>
   <g id="LineCollection_1">
    <path d="M 361.5048 230.292 
L 437.2416 382.248 
" clip-path="url(#pa5ab99e9c6)" style="fill: none; stroke: #000000"/>
    <path d="M 361.5048 230.292 
L 315.6768 71.1 
" clip-path="url(#pa5ab99e9c6)" style="fill: none; stroke: #000000"/>
    <path d="M 315.6768 71.1 
L 404.9208 256.824 
" clip-path="url(#pa5ab99e9c6)" style="fill: none; stroke: #000000"/>
   </g>
   <g id="text_1">
    <g id="patch_3">
     <path d="M 389.519497 304.073182 
L 395.195824 315.46199 
Q 396.534054 318.146974 399.219038 316.808744 
L 407.880909 312.491557 
Q 410.565893 311.153327 409.227663 308.468343 
L 403.551336 297.079535 
Q 402.213106 294.394551 399.528122 295.732781 
L 390.866251 300.049968 
Q 388.181267 301.388198 389.519497 304.073182 
z
" clip-path="url(#pa5ab99e9c6)" style="fill: #ffffff; stroke: #ffffff; stroke-linejoin: miter"/>
    </g>
    <g clip-path="url(#pa5ab99e9c6)">
     <!-- 10 -->
     <g transform="translate(394.065791 301.807252) rotate(-296.492248) scale(0.1 -0.1)">
      <defs>
       <path id="DejaVuSans-31" d="M 794 531 
L 1825 531 
L 1825 4091 
L 703 3866 
L 703 4441 
L 1819 4666 
L 2450 4666 
L 2450 531 
L 3481 531 
L 3481 0 
L 794 0 
L 794 531 
z
" transform="scale(0.015625)"/>
       <path id="DejaVuSans-30" d="M 2034 4250 
Q 1547 4250 1301 3770 
Q 1056 3291 1056 2328 
Q 1056 1369 1301 889 
Q 1547 409 2034 409 
Q 2525 409 2770 889 
Q 3016 1369 3016 2328 
Q 3016 3291 2770 3770 
Q 2525 4250 2034 4250 
z
M 2034 4750 
Q 2819 4750 3233 4129 
Q 3647 3509 3647 2328 
Q 3647 1150 3233 529 
Q 2819 -91 2034 -91 
Q 1250 -91 836 529 
Q 422 1150 422 2328 
Q 422 3509 836 4129 
Q 1250 4750 2034 4750 
z
" transform="scale(0.015625)"/>
      </defs>
      <use xlink:href="#DejaVuSans-31"/>
      <use xlink:href="#DejaVuSans-30" x="63.623047"/>
     </g>
    </g>
   </g>
   <g id="text_2">
    <g id="patch_4">
     <path d="M 329.296838 146.74803 
L 332.817128 158.976406 
Q 333.647059 161.859324 336.529976 161.029393 
L 345.830389 158.352002 
Q 348.713307 157.522071 347.883376 154.639153 
L 344.363086 142.410777 
Q 343.533155 139.527859 340.650237 140.35779 
L 331.349824 143.035182 
Q 328.466907 143.865113 329.296838 146.74803 
z
" clip-path="url(#pa5ab99e9c6)" style="fill: #ffffff; stroke: #ffffff; stroke-linejoin: miter"/>
    </g>
    <g clip-path="url(#pa5ab99e9c6)">
     <!-- 12 -->
     <g transform="translate(334.178278 145.342767) rotate(-286.059987) scale(0.1 -0.1)">
      <defs>
       <path id="DejaVuSans-32" d="M 1228 531 
L 3431 531 
L 3431 0 
L 469 0 
L 469 531 
Q 828 903 1448 1529 
Q 2069 2156 2228 2338 
Q 2531 2678 2651 2914 
Q 2772 3150 2772 3378 
Q 2772 3750 2511 3984 
Q 2250 4219 1831 4219 
Q 1534 4219 1204 4116 
Q 875 4013 500 3803 
L 500 4441 
Q 881 4594 1212 4672 
Q 1544 4750 1819 4750 
Q 2544 4750 2975 4387 
Q 3406 4025 3406 3419 
Q 3406 3131 3298 2873 
Q 3191 2616 2906 2266 
Q 2828 2175 2409 1742 
Q 1991 1309 1228 531 
z
" transform="scale(0.015625)"/>
      </defs>
      <use xlink:href="#DejaVuSans-31"/>
      <use xlink:href="#DejaVuSans-32" x="63.623047"/>
     </g>
    </g>
   </g>
   <g id="text_3">
    <g id="patch_5">
     <path d="M 350.47805 161.623628 
L 355.989394 173.093184 
Q 357.288729 175.797205 359.99275 174.49787 
L 368.716034 170.306162 
Q 371.420055 169.006827 370.12072 166.302806 
L 364.609376 154.833251 
Q 363.310041 152.12923 360.60602 153.428565 
L 351.882736 157.620273 
Q 349.178715 158.919607 350.47805 161.623628 
z
" clip-path="url(#pa5ab99e9c6)" style="fill: #ffffff; stroke: #ffffff; stroke-linejoin: miter"/>
    </g>
    <g clip-path="url(#pa5ab99e9c6)">
     <!-- 16 -->
     <g transform="translate(355.056577 159.423557) rotate(-295.665191) scale(0.1 -0.1)">
      <defs>
       <path id="DejaVuSans-36" d="M 2113 2584 
Q 1688 2584 1439 2293 
Q 1191 2003 1191 1497 
Q 1191 994 1439 701 
Q 1688 409 2113 409 
Q 2538 409 2786 701 
Q 3034 994 3034 1497 
Q 3034 2003 2786 2293 
Q 2538 2584 2113 2584 
z
M 3366 4563 
L 3366 3988 
Q 3128 4100 2886 4159 
Q 2644 4219 2406 4219 
Q 1781 4219 1451 3797 
Q 1122 3375 1075 2522 
Q 1259 2794 1537 2939 
Q 1816 3084 2150 3084 
Q 2853 3084 3261 2657 
Q 3669 2231 3669 1497 
Q 3669 778 3244 343 
Q 2819 -91 2113 -91 
Q 1303 -91 875 529 
Q 447 1150 447 2328 
Q 447 3434 972 4092 
Q 1497 4750 2381 4750 
Q 2619 4750 2861 4703 
Q 3103 4656 3366 4563 
z
" transform="scale(0.015625)"/>
      </defs>
      <use xlink:href="#DejaVuSans-31"/>
      <use xlink:href="#DejaVuSans-36" x="63.623047"/>
     </g>
    </g>
   </g>
   <g id="matplotlib.axis_1">
    <g id="xtick_1">
     <g id="line2d_1">
      <path d="M 10.8 493.2 
L 10.8 10.8 
" clip-path="url(#pa5ab99e9c6)" style="fill: none; stroke: #b0b0b0; stroke-opacity: 0.3; stroke-width: 0.8; stroke-linecap: square"/>
     </g>
    </g>
    <g id="xtick_2">
     <g id="line2d_2">
      <path d="M 59.04 493.2 
L 59.04 10.8 
" clip-path="url(#pa5ab99e9c6)" style="fill: none; stroke: #b0b0b0; stroke-opacity: 0.3; stroke-width: 0.8; stroke-linecap: square"/>
     </g>
    </g>
    <g id="xtick_3">
     <g id="line2d_3">
      <path d="M 107.28 493.2 
L 107.28 10.8 
" clip-path="url(#pa5ab99e9c6)" style="fill: none; stroke: #b0b0b0; stroke-opacity: 0.3; stroke-width: 0.8; stroke-linecap: square"/>
     </g>
    </g>
    <g id="xtick_4">
     <g id="line2d_4">
      <path d="M 155.52 493.2 
L 155.52 10.8 
" clip-path="url(#pa5ab99e9c6)" style="fill: none; stroke: #b0b0b0; stroke-opacity: 0.3; stroke-width: 0.8; stroke-linecap: square"/>
     </g>
    </g>
    <g id="xtick_5">
     <g id="line2d_5">
      <path d="M 203.76 493.2 
L 203.76 10.8 
" clip-path="url(#pa5ab99e9c6)" style="fill: none; stroke: #b0b0b0; stroke-opacity: 0.3; stroke-width: 0.8; stroke-linecap: square"/>
     </g>
    </g>
    <g id="xtick_6">
     <g id="line2d_6">
      <path d="M 252 493.2 
L 252 10.8 
" clip-path="url(#pa5ab99e9c6)" style="fill: none; stroke: #b0b0b0; stroke-opacity: 0.3; stroke-width: 0.8; stroke-linecap: square"/>
     </g>
    </g>
    <g id="xtick_7">
     <g id="line2d_7">
      <path d="M 300.24 493.2 
L 300.24 10.8 
" clip-path="url(#pa5ab99e9c6)" style="fill: none; stroke: #b0b0b0; stroke-opacity: 0.3; stroke-width: 0.8; stroke-linecap: square"/>
     </g>
    </g>
    <g id="xtick_8">
     <g id="line2d_8">
      <path d="M 348.48 493.2 
L 348.48 10.8 
" clip-path="url(#pa5ab99e9c6)" style="fill: none; stroke: #b0b0b0; stroke-opacity: 0.3; stroke-width: 0.8; stroke-linecap: square"/>
     </g>
    </g>
    <g id="xtick_9">
     <g id="line2d_9">
      <path d="M 396.72 493.2 
L 396.72 10.8 
" clip-path="url(#pa5ab99e9c6)" style="fill: none; stroke: #b0b0b0; stroke-opacity: 0.3; stroke-width: 0.8; stroke-linecap: square"/>
     </g>
    </g>
    <g id="xtick_10">
     <g id="line2d_10">
      <path d="M 444.96 493.2 
L 444.96 10.8 
" clip-path="url(#pa5ab99e9c6)" style="fill: none; stroke: #b0b0b0; stroke-opacity: 0.3; stroke-width: 0.8; stroke-linecap: square"/>
     </g>
    </g>
    <g id="xtick_11">
     <g id="line2d_11">
      <path d="M 493.2 493.2 
L 493.2 10.8 
" clip-path="url(#pa5ab99e9c6)" style="fill: none; stroke: #b0b0b0; stroke-opacity: 0.3; stroke-width: 0.8; stroke-linecap: square"/>
     </g>
    </g>
   </g>
   <g id="matplotlib.axis_2">
    <g id="ytick_1">
     <g id="line2d_12">
      <path d="M 10.8 493.2 
L 493.2 493.2 
" clip-path="url(#pa5ab99e9c6)" style="fill: none; stroke: #b0b0b0; stroke-opacity: 0.3; stroke-width: 0.8; stroke-linecap: square"/>
     </g>
    </g>
    <g id="ytick_2">
     <g id="line2d_13">
      <path d="M 10.8 444.96 
L 493.2 444.96 
" clip-path="url(#pa5ab99e9c6)" style="fill: none; stroke: #b0b0b0; stroke-opacity: 0.3; stroke-width: 0.8; stroke-linecap: square"/>
     </g>
    </g>
    <g id="ytick_3">
     <g id="line2d_14">
      <path d="M 10.8 396.72 
L 493.2 396.72 
" clip-path="url(#pa5ab99e9c6)" style="fill: none; stroke: #b0b0b0; stroke-opacity: 0.3; stroke-width: 0.8; stroke-linecap: square"/>
     </g>
    </g>
    <g id="ytick_4">
     <g id="line2d_15">
      <path d="M 10.8 348.48 
L 493.2 348.48 
" clip-path="url(#pa5ab99e9c6)" style="fill: none; stroke: #b0b0b0; stroke-opacity: 0.3; stroke-width: 0.8; stroke-linecap: square"/>
     </g>
    </g>
    <g id="ytick_5">
     <g id="line2d_16">
      <path d="M 10.8 300.24 
L 493.2 300.24 
" clip-path="url(#pa5ab99e9c6)" style="fill: none; stroke: #b0b0b0; stroke-opacity: 0.3; stroke-width: 0.8; stroke-linecap: square"/>
     </g>
    </g>
    <g id="ytick_6">
     <g id="line2d_17">
      <path d="M 10.8 252 
L 493.2 252 
" clip-path="url(#pa5ab99e9c6)" style="fill: none; stroke: #b0b0b0; stroke-opacity: 0.3; stroke-width: 0.8; stroke-linecap: square"/>
     </g>
    </g>
    <g id="ytick_7">
     <g id="line2d_18">
      <path d="M 10.8 203.76 
L 493.2 203.76 
" clip-path="url(#pa5ab99e9c6)" style="fill: none; stroke: #b0b0b0; stroke-opacity: 0.3; stroke-width: 0.8; stroke-linecap: square"/>
     </g>
    </g>
    <g id="ytick_8">
     <g id="line2d_19">
      <path d="M 10.8 155.52 
L 493.2 155.52 
" clip-path="url(#pa5ab99e9c6)" style="fill: none; stroke: #b0b0b0; stroke-opacity: 0.3; stroke-width: 0.8; stroke-linecap: square"/>
     </g>
    </g>
    <g id="ytick_9">
     <g id="line2d_20">
      <path d="M 10.8 107.28 
L 493.2 107.28 
" clip-path="url(#pa5ab99e9c6)" style="fill: none; stroke: #b0b0b0; stroke-opacity: 0.3; stroke-width: 0.8; stroke-linecap: square"/>
     </g>
    </g>
    <g id="ytick_10">
     <g id="line2d_21">
      <path d="M 10.8 59.04 
L 493.2 59.04 
" clip-path="url(#pa5ab99e9c6)" style="fill: none; stroke: #b0b0b0; stroke-opacity: 0.3; stroke-width: 0.8; stroke-linecap: square"/>
     </g>
    </g>
    <g id="ytick_11">
     <g id="line2d_22">
      <path d="M 10.8 10.8 
L 493.2 10.8 
" clip-path="url(#pa5ab99e9c6)" style="fill: none; stroke: #b0b0b0; stroke-opacity: 0.3; stroke-width: 0.8; stroke-linecap: square"/>
     </g>
    </g>
   </g>
   <g id="PathCollection_1">
    <defs>
     <path id="m6bf307bc98" d="M 0 8.660254 
C 2.296726 8.660254 4.499694 7.747755 6.123724 6.123724 
C 7.747755 4.499694 8.660254 2.296726 8.660254 0 
C 8.660254 -2.296726 7.747755 -4.499694 6.123724 -6.123724 
C 4.499694 -7.747755 2.296726 -8.660254 0 -8.660254 
C -2.296726 -8.660254 -4.499694 -7.747755 -6.123724 -6.123724 
C -7.747755 -4.499694 -8.660254 -2.296726 -8.660254 0 
C -8.660254 2.296726 -7.747755 4.499694 -6.123724 6.123724 
C -4.499694 7.747755 -2.296726 8.660254 0 8.660254 
z
" style="stroke: #1f78b4"/>
    </defs>
    <g clip-path="url(#pa5ab99e9c6)">
     <use xlink:href="#m6bf307bc98" x="361.5048" y="230.292" style="fill: #1f78b4; stroke: #1f78b4"/>
     <use xlink:href="#m6bf307bc98" x="315.6768" y="71.1" style="fill: #1f78b4; stroke: #1f78b4"/>
     <use xlink:href="#m6bf307bc98" x="437.2416" y="382.248" style="fill: #1f78b4; stroke: #1f78b4"/>
     <use xlink:href="#m6bf307bc98" x="404.9208" y="256.824" style="fill: #1f78b4; stroke: #1f78b4"/>
    </g>
   </g>
   <g id="patch_6">
    <path d="M 10.8 493.2 
L 10.8 10.8 
" style="fill: none; stroke: #000000; stroke-width: 0.8; stroke-linejoin: miter; stroke-linecap: square"/>
   </g>
   <g id="patch_7">
    <path d="M 493.2 493.2 
L 493.2 10.8 
" style="fill: none; stroke: #000000; stroke-width: 0.8; stroke-linejoin: miter; stroke-linecap: square"/>
   </g>
   <g id="patch_8">
    <path d="M 10.8 493.2 
L 493.2 493.2 
" style="fill: none; stroke: #000000; stroke-width: 0.8; stroke-linejoin: miter; stroke-linecap: square"/>
   </g>
   <g id="patch_9">
    <path d="M 10.8 10.8 
L 493.2 10.8 
" style="fill: none; stroke: #000000; stroke-width: 0.8; stroke-linejoin: miter; stroke-linecap: square"/>
   </g>
   <g id="text_4">
    <g clip-path="url(#pa5ab99e9c6)">
     <!-- 0 -->
     <g transform="translate(357.6873 233.60325) scale(0.12 -0.12)">
      <use xlink:href="#DejaVuSans-30"/>
     </g>
    </g>
   </g>
   <g id="text_5">
    <g clip-path="url(#pa5ab99e9c6)">
     <!-- 1 -->
     <g transform="translate(311.8593 74.41125) scale(0.12 -0.12)">
      <use xlink:href="#DejaVuSans-31"/>
     </g>
    </g>
   </g>
   <g id="text_6">
    <g clip-path="url(#pa5ab99e9c6)">
     <!-- 2 -->
     <g transform="translate(433.4241 385.55925) scale(0.12 -0.12)">
      <use xlink:href="#DejaVuSans-32"/>
     </g>
    </g>
   </g>
   <g id="text_7">
    <g clip-path="url(#pa5ab99e9c6)">
     <!-- 3 -->
     <g transform="translate(401.1033 260.13525) scale(0.12 -0.12)">
      <defs>
       <path id="DejaVuSans-33" d="M 2597 2516 
Q 3050 2419 3304 2112 
Q 3559 1806 3559 1356 
Q 3559 666 3084 287 
Q 2609 -91 1734 -91 
Q 1441 -91 1130 -33 
Q 819 25 488 141 
L 488 750 
Q 750 597 1062 519 
Q 1375 441 1716 441 
Q 2309 441 2620 675 
Q 2931 909 2931 1356 
Q 2931 1769 2642 2001 
Q 2353 2234 1838 2234 
L 1294 2234 
L 1294 2753 
L 1863 2753 
Q 2328 2753 2575 2939 
Q 2822 3125 2822 3475 
Q 2822 3834 2567 4026 
Q 2313 4219 1838 4219 
Q 1578 4219 1281 4162 
Q 984 4106 628 3988 
L 628 4550 
Q 988 4650 1302 4700 
Q 1616 4750 1894 4750 
Q 2613 4750 3031 4423 
Q 3450 4097 3450 3541 
Q 3450 3153 3228 2886 
Q 3006 2619 2597 2516 
z
" transform="scale(0.015625)"/>
      </defs>
      <use xlink:href="#DejaVuSans-33"/>
     </g>
    </g>
   </g>
  </g>
 </g>
 <defs>
  <clipPath id="pa5ab99e9c6">
   <rect x="10.8" y="10.8" width="482.4" height="482.4"/>
  </clipPath>
 </defs>
</svg>
