<?xml version="1.0" encoding="utf-8" standalone="no"?>
<!DOCTYPE svg PUBLIC "-//W3C//DTD SVG 1.1//EN"
  "http://www.w3.org/Graphics/SVG/1.1/DTD/svg11.dtd">
<svg xmlns:xlink="http://www.w3.org/1999/xlink" width="504pt" height="504pt" viewBox="0 0 504 504" xmlns="http://www.w3.org/2000/svg" version="1.1">
 <metadata>
  <rdf:RDF xmlns:dc="http://purl.org/dc/elements/1.1/" xmlns:cc="http://creativecommons.org/ns#" xmlns:rdf="http://www.w3.org/1999/02/22-rdf-syntax-ns#">
   <cc:Work>
    <dc:type rdf:resource="http://purl.org/dc/dcmitype/StillImage"/>
    <dc:date>2024-10-29T14:59:36.186835</dc:date>
    <dc:format>image/svg+xml</dc:format>
    <dc:creator>
     <cc:Agent>
      <dc:title>Matplotlib v3.9.2, https://matplotlib.org/</dc:title>
     </cc:Agent>
    </dc:creator>
   </cc:Work>
  </rdf:RDF>
 </metadata>
 <defs>
  <style type="text/css">*{stroke-linejoin: round; stroke-linecap: butt}</style>
 </defs>
 <g id="figure_1">
  <g id="patch_1">
   <path d="M 0 504 
L 504 504 
L 504 0 
L 0 0 
L 0 504 
z
" style="fill: none; opacity: 0"/>
  </g>
  <g id="axes_1">
   <g id="patch_2">
    <path d="M 10.8 493.2 
L 493.2 493.2 
L 493.2 10.8 
L 10.8 10.8 
L 10.8 493.2 
z
" style="fill: none; opacity: 0"/>
   </g>
   <g id="LineCollection_1">
    <path d="M 474.3864 320.0184 
L 45.5328 345.1032 
" clip-path="url(#pc2e8a5e766)" style="fill: none; stroke: #000000"/>
    <path d="M 474.3864 320.0184 
L 361.0224 50.3568 
" clip-path="url(#pc2e8a5e766)" style="fill: none; stroke: #000000"/>
    <path d="M 474.3864 320.0184 
L 112.104 170.4744 
" clip-path="url(#pc2e8a5e766)" style="fill: none; stroke: #000000"/>
    <path d="M 474.3864 320.0184 
L 117.4104 101.0088 
" clip-path="url(#pc2e8a5e766)" style="fill: none; stroke: #000000"/>
    <path d="M 474.3864 320.0184 
L 296.3808 169.0272 
" clip-path="url(#pc2e8a5e766)" style="fill: none; stroke: #000000"/>
    <path d="M 361.0224 50.3568 
L 296.3808 169.0272 
" clip-path="url(#pc2e8a5e766)" style="fill: none; stroke: #000000"/>
    <path d="M 361.0224 50.3568 
L 112.104 170.4744 
" clip-path="url(#pc2e8a5e766)" style="fill: none; stroke: #000000"/>
    <path d="M 361.0224 50.3568 
L 117.4104 101.0088 
" clip-path="url(#pc2e8a5e766)" style="fill: none; stroke: #000000"/>
    <path d="M 117.4104 101.0088 
L 45.5328 345.1032 
" clip-path="url(#pc2e8a5e766)" style="fill: none; stroke: #000000"/>
    <path d="M 117.4104 101.0088 
L 112.104 170.4744 
" clip-path="url(#pc2e8a5e766)" style="fill: none; stroke: #000000"/>
    <path d="M 112.104 170.4744 
L 296.3808 169.0272 
" clip-path="url(#pc2e8a5e766)" style="fill: none; stroke: #000000"/>
   </g>
   <g id="text_1">
    <g id="patch_3">
     <path d="M 254.065074 340.758048 
L 266.768361 340.014999 
Q 269.763242 339.83982 269.588064 336.844939 
L 269.02293 327.183328 
Q 268.847752 324.188447 265.85287 324.363625 
L 253.149583 325.106675 
Q 250.154702 325.281854 250.329881 328.276735 
L 250.895015 337.938346 
Q 251.070193 340.933227 254.065074 340.758048 
z
" clip-path="url(#pc2e8a5e766)" style="fill: #ffffff; stroke: #ffffff; stroke-linejoin: miter"/>
    </g>
    <g clip-path="url(#pc2e8a5e766)">
     <!-- 15 -->
     <g transform="translate(253.768457 335.687028) rotate(-3.34757) scale(0.1 -0.1)">
      <defs>
       <path id="DejaVuSans-31" d="M 794 531 
L 1825 531 
L 1825 4091 
L 703 3866 
L 703 4441 
L 1819 4666 
L 2450 4666 
L 2450 531 
L 3481 531 
L 3481 0 
L 794 0 
L 794 531 
z
" transform="scale(0.015625)"/>
       <path id="DejaVuSans-35" d="M 691 4666 
L 3169 4666 
L 3169 4134 
L 1269 4134 
L 1269 2991 
Q 1406 3038 1543 3061 
Q 1681 3084 1819 3084 
Q 2600 3084 3056 2656 
Q 3513 2228 3513 1497 
Q 3513 744 3044 326 
Q 2575 -91 1722 -91 
Q 1428 -91 1123 -41 
Q 819 9 494 109 
L 494 744 
Q 775 591 1075 516 
Q 1375 441 1709 441 
Q 2250 441 2565 725 
Q 2881 1009 2881 1497 
Q 2881 1984 2565 2268 
Q 2250 2553 1709 2553 
Q 1456 2553 1204 2497 
Q 953 2441 691 2322 
L 691 4666 
z
" transform="scale(0.015625)"/>
      </defs>
      <use xlink:href="#DejaVuSans-31"/>
      <use xlink:href="#DejaVuSans-35" x="63.623047"/>
     </g>
    </g>
   </g>
   <g id="text_2">
    <g id="patch_4">
     <path d="M 408.011169 182.357791 
L 412.942627 194.088365 
Q 414.10525 196.853922 416.870807 195.6913 
L 425.792611 191.940631 
Q 428.558169 190.778008 427.395546 188.012451 
L 422.464089 176.281877 
Q 421.301466 173.51632 418.535908 174.678942 
L 409.614104 178.429611 
Q 406.848547 179.592234 408.011169 182.357791 
z
" clip-path="url(#pc2e8a5e766)" style="fill: #ffffff; stroke: #ffffff; stroke-linejoin: miter"/>
    </g>
    <g clip-path="url(#pc2e8a5e766)">
     <!-- 18 -->
     <g transform="translate(412.693892 180.389205) rotate(-292.801571) scale(0.1 -0.1)">
      <defs>
       <path id="DejaVuSans-38" d="M 2034 2216 
Q 1584 2216 1326 1975 
Q 1069 1734 1069 1313 
Q 1069 891 1326 650 
Q 1584 409 2034 409 
Q 2484 409 2743 651 
Q 3003 894 3003 1313 
Q 3003 1734 2745 1975 
Q 2488 2216 2034 2216 
z
M 1403 2484 
Q 997 2584 770 2862 
Q 544 3141 544 3541 
Q 544 4100 942 4425 
Q 1341 4750 2034 4750 
Q 2731 4750 3128 4425 
Q 3525 4100 3525 3541 
Q 3525 3141 3298 2862 
Q 3072 2584 2669 2484 
Q 3125 2378 3379 2068 
Q 3634 1759 3634 1313 
Q 3634 634 3220 271 
Q 2806 -91 2034 -91 
Q 1263 -91 848 271 
Q 434 634 434 1313 
Q 434 1759 690 2068 
Q 947 2378 1403 2484 
z
M 1172 3481 
Q 1172 3119 1398 2916 
Q 1625 2713 2034 2713 
Q 2441 2713 2670 2916 
Q 2900 3119 2900 3481 
Q 2900 3844 2670 4047 
Q 2441 4250 2034 4250 
Q 1625 4250 1398 4047 
Q 1172 3844 1172 3481 
z
" transform="scale(0.015625)"/>
      </defs>
      <use xlink:href="#DejaVuSans-31"/>
      <use xlink:href="#DejaVuSans-38" x="63.623047"/>
     </g>
    </g>
   </g>
   <g id="text_3">
    <g id="patch_5">
     <path d="M 287.311597 251.277765 
L 293.192751 253.705405 
Q 295.96579 254.850068 297.110453 252.077029 
L 300.803185 243.131089 
Q 301.947848 240.35805 299.174809 239.213387 
L 293.293655 236.785747 
Q 290.520616 235.641083 289.375953 238.414122 
L 285.683221 247.360062 
Q 284.538558 250.133101 287.311597 251.277765 
z
" clip-path="url(#pc2e8a5e766)" style="fill: #ffffff; stroke: #ffffff; stroke-linejoin: miter"/>
    </g>
    <g clip-path="url(#pc2e8a5e766)">
     <!-- 7 -->
     <g transform="translate(289.249774 246.582374) rotate(-337.569999) scale(0.1 -0.1)">
      <defs>
       <path id="DejaVuSans-37" d="M 525 4666 
L 3525 4666 
L 3525 4397 
L 1831 0 
L 1172 0 
L 2766 4134 
L 525 4134 
L 525 4666 
z
" transform="scale(0.015625)"/>
      </defs>
      <use xlink:href="#DejaVuSans-37"/>
     </g>
    </g>
   </g>
   <g id="text_4">
    <g id="patch_6">
     <path d="M 289.085763 215.530746 
L 294.508964 218.857952 
Q 297.066072 220.426773 298.634892 217.869664 
L 303.695973 209.620327 
Q 305.264793 207.063219 302.707685 205.494398 
L 297.284484 202.167191 
Q 294.727376 200.598371 293.158556 203.155479 
L 288.097476 211.404817 
Q 286.528655 213.961925 289.085763 215.530746 
z
" clip-path="url(#pc2e8a5e766)" style="fill: #ffffff; stroke: #ffffff; stroke-linejoin: miter"/>
    </g>
    <g clip-path="url(#pc2e8a5e766)">
     <!-- 5 -->
     <g transform="translate(291.742136 211.200975) rotate(-328.470322) scale(0.1 -0.1)">
      <use xlink:href="#DejaVuSans-35"/>
     </g>
    </g>
   </g>
   <g id="text_5">
    <g id="patch_7">
     <path d="M 377.887191 248.443422 
L 382.739245 252.559121 
Q 385.02705 254.499726 386.967655 252.211921 
L 393.228126 244.831365 
Q 395.168731 242.543559 392.880925 240.602955 
L 388.028871 236.487256 
Q 385.741066 234.546651 383.800461 236.834457 
L 377.53999 244.215012 
Q 375.599385 246.502818 377.887191 248.443422 
z
" clip-path="url(#pc2e8a5e766)" style="fill: #ffffff; stroke: #ffffff; stroke-linejoin: miter"/>
    </g>
    <g clip-path="url(#pc2e8a5e766)">
     <!-- 7 -->
     <g transform="translate(381.173079 244.569644) rotate(-319.694108) scale(0.1 -0.1)">
      <use xlink:href="#DejaVuSans-37"/>
     </g>
    </g>
   </g>
   <g id="text_6">
    <g id="patch_8">
     <path d="M 332.54242 119.028593 
L 338.629447 107.853902 
Q 340.064502 105.219397 337.429997 103.784342 
L 328.930975 99.154793 
Q 326.29647 97.719737 324.861415 100.354242 
L 318.774388 111.528934 
Q 317.339332 114.163438 319.973837 115.598494 
L 328.472859 120.228043 
Q 331.107364 121.663098 332.54242 119.028593 
z
" clip-path="url(#pc2e8a5e766)" style="fill: #ffffff; stroke: #ffffff; stroke-linejoin: miter"/>
    </g>
    <g clip-path="url(#pc2e8a5e766)">
     <!-- 14 -->
     <g transform="translate(328.081599 116.598716) rotate(-61.422187) scale(0.1 -0.1)">
      <defs>
       <path id="DejaVuSans-34" d="M 2419 4116 
L 825 1625 
L 2419 1625 
L 2419 4116 
z
M 2253 4666 
L 3047 4666 
L 3047 1625 
L 3713 1625 
L 3713 1100 
L 3047 1100 
L 3047 0 
L 2419 0 
L 2419 1100 
L 313 1100 
L 313 1709 
L 2253 4666 
z
" transform="scale(0.015625)"/>
      </defs>
      <use xlink:href="#DejaVuSans-31"/>
      <use xlink:href="#DejaVuSans-34" x="63.623047"/>
     </g>
    </g>
   </g>
   <g id="text_7">
    <g id="patch_9">
     <path d="M 234.239145 120.241142 
L 245.699564 114.710824 
Q 248.401431 113.407016 247.097623 110.705149 
L 242.891485 101.988814 
Q 241.587677 99.286947 238.88581 100.590755 
L 227.425391 106.121073 
Q 224.723524 107.424881 226.027332 110.126748 
L 230.23347 118.843083 
Q 231.537278 121.54495 234.239145 120.241142 
z
" clip-path="url(#pc2e8a5e766)" style="fill: #ffffff; stroke: #ffffff; stroke-linejoin: miter"/>
    </g>
    <g clip-path="url(#pc2e8a5e766)">
     <!-- 18 -->
     <g transform="translate(232.0315 115.666263) rotate(-25.760011) scale(0.1 -0.1)">
      <use xlink:href="#DejaVuSans-31"/>
      <use xlink:href="#DejaVuSans-38" x="63.623047"/>
     </g>
    </g>
   </g>
   <g id="text_8">
    <g id="patch_10">
     <path d="M 237.697083 84.005413 
L 243.926358 82.710217 
Q 246.863541 82.099516 246.25284 79.162333 
L 244.282691 69.686858 
Q 243.67199 66.749675 240.734807 67.360376 
L 234.505532 68.655572 
Q 231.568349 69.266274 232.17905 72.203457 
L 234.149198 81.678931 
Q 234.7599 84.616114 237.697083 84.005413 
z
" clip-path="url(#pc2e8a5e766)" style="fill: #ffffff; stroke: #ffffff; stroke-linejoin: miter"/>
    </g>
    <g clip-path="url(#pc2e8a5e766)">
     <!-- 6 -->
     <g transform="translate(236.663025 79.032089) rotate(-11.745633) scale(0.1 -0.1)">
      <defs>
       <path id="DejaVuSans-36" d="M 2113 2584 
Q 1688 2584 1439 2293 
Q 1191 2003 1191 1497 
Q 1191 994 1439 701 
Q 1688 409 2113 409 
Q 2538 409 2786 701 
Q 3034 994 3034 1497 
Q 3034 2003 2786 2293 
Q 2538 2584 2113 2584 
z
M 3366 4563 
L 3366 3988 
Q 3128 4100 2886 4159 
Q 2644 4219 2406 4219 
Q 1781 4219 1451 3797 
Q 1122 3375 1075 2522 
Q 1259 2794 1537 2939 
Q 1816 3084 2150 3084 
Q 2853 3084 3261 2657 
Q 3669 2231 3669 1497 
Q 3669 778 3244 343 
Q 2819 -91 2113 -91 
Q 1303 -91 875 529 
Q 447 1150 447 2328 
Q 447 3434 972 4092 
Q 1497 4750 2381 4750 
Q 2619 4750 2861 4703 
Q 3103 4656 3366 4563 
z
" transform="scale(0.015625)"/>
      </defs>
      <use xlink:href="#DejaVuSans-36"/>
     </g>
    </g>
   </g>
   <g id="text_9">
    <g id="patch_11">
     <path d="M 87.193842 231.374844 
L 90.788327 219.168071 
Q 91.63575 216.290246 88.757925 215.442824 
L 79.473943 212.709003 
Q 76.596118 211.86158 75.748695 214.739405 
L 72.154211 226.946178 
Q 71.306788 229.824002 74.184613 230.671425 
L 83.468595 233.405246 
Q 86.34642 234.252669 87.193842 231.374844 
z
" clip-path="url(#pc2e8a5e766)" style="fill: #ffffff; stroke: #ffffff; stroke-linejoin: miter"/>
    </g>
    <g clip-path="url(#pc2e8a5e766)">
     <!-- 10 -->
     <g transform="translate(82.321026 229.939963) rotate(-73.59207) scale(0.1 -0.1)">
      <defs>
       <path id="DejaVuSans-30" d="M 2034 4250 
Q 1547 4250 1301 3770 
Q 1056 3291 1056 2328 
Q 1056 1369 1301 889 
Q 1547 409 2034 409 
Q 2525 409 2770 889 
Q 3016 1369 3016 2328 
Q 3016 3291 2770 3770 
Q 2525 4250 2034 4250 
z
M 2034 4750 
Q 2819 4750 3233 4129 
Q 3647 3509 3647 2328 
Q 3647 1150 3233 529 
Q 2819 -91 2034 -91 
Q 1250 -91 836 529 
Q 422 1150 422 2328 
Q 422 3509 836 4129 
Q 1250 4750 2034 4750 
z
" transform="scale(0.015625)"/>
      </defs>
      <use xlink:href="#DejaVuSans-31"/>
      <use xlink:href="#DejaVuSans-30" x="63.623047"/>
     </g>
    </g>
   </g>
   <g id="text_10">
    <g id="patch_12">
     <path d="M 122.088706 142.684951 
L 123.057931 129.996916 
Q 123.286432 127.005631 120.295146 126.77713 
L 110.645136 126.039976 
Q 107.65385 125.811475 107.42535 128.80276 
L 106.456125 141.490795 
Q 106.227624 144.482081 109.218909 144.710581 
L 118.86892 145.447735 
Q 121.860205 145.676236 122.088706 142.684951 
z
" clip-path="url(#pc2e8a5e766)" style="fill: #ffffff; stroke: #ffffff; stroke-linejoin: miter"/>
    </g>
    <g clip-path="url(#pc2e8a5e766)">
     <!-- 16 -->
     <g transform="translate(117.023774 142.298046) rotate(-85.631723) scale(0.1 -0.1)">
      <use xlink:href="#DejaVuSans-31"/>
      <use xlink:href="#DejaVuSans-36" x="63.623047"/>
     </g>
    </g>
   </g>
   <g id="text_11">
    <g id="patch_13">
     <path d="M 201.122526 177.614606 
L 207.48483 177.56464 
Q 210.484737 177.541081 210.461178 174.541173 
L 210.385174 164.863347 
Q 210.361614 161.863439 207.361707 161.886999 
L 200.999403 161.936964 
Q 197.999496 161.960524 198.023055 164.960431 
L 198.099059 174.638258 
Q 198.122618 177.638165 201.122526 177.614606 
z
" clip-path="url(#pc2e8a5e766)" style="fill: #ffffff; stroke: #ffffff; stroke-linejoin: miter"/>
    </g>
    <g clip-path="url(#pc2e8a5e766)">
     <!-- 1 -->
     <g transform="translate(201.082634 172.535075) rotate(-0.449958) scale(0.1 -0.1)">
      <use xlink:href="#DejaVuSans-31"/>
     </g>
    </g>
   </g>
   <g id="matplotlib.axis_1">
    <g id="xtick_1">
     <g id="line2d_1">
      <path d="M 10.8 493.2 
L 10.8 10.8 
" clip-path="url(#pc2e8a5e766)" style="fill: none; stroke: #b0b0b0; stroke-opacity: 0.3; stroke-width: 0.8; stroke-linecap: square"/>
     </g>
    </g>
    <g id="xtick_2">
     <g id="line2d_2">
      <path d="M 59.04 493.2 
L 59.04 10.8 
" clip-path="url(#pc2e8a5e766)" style="fill: none; stroke: #b0b0b0; stroke-opacity: 0.3; stroke-width: 0.8; stroke-linecap: square"/>
     </g>
    </g>
    <g id="xtick_3">
     <g id="line2d_3">
      <path d="M 107.28 493.2 
L 107.28 10.8 
" clip-path="url(#pc2e8a5e766)" style="fill: none; stroke: #b0b0b0; stroke-opacity: 0.3; stroke-width: 0.8; stroke-linecap: square"/>
     </g>
    </g>
    <g id="xtick_4">
     <g id="line2d_4">
      <path d="M 155.52 493.2 
L 155.52 10.8 
" clip-path="url(#pc2e8a5e766)" style="fill: none; stroke: #b0b0b0; stroke-opacity: 0.3; stroke-width: 0.8; stroke-linecap: square"/>
     </g>
    </g>
    <g id="xtick_5">
     <g id="line2d_5">
      <path d="M 203.76 493.2 
L 203.76 10.8 
" clip-path="url(#pc2e8a5e766)" style="fill: none; stroke: #b0b0b0; stroke-opacity: 0.3; stroke-width: 0.8; stroke-linecap: square"/>
     </g>
    </g>
    <g id="xtick_6">
     <g id="line2d_6">
      <path d="M 252 493.2 
L 252 10.8 
" clip-path="url(#pc2e8a5e766)" style="fill: none; stroke: #b0b0b0; stroke-opacity: 0.3; stroke-width: 0.8; stroke-linecap: square"/>
     </g>
    </g>
    <g id="xtick_7">
     <g id="line2d_7">
      <path d="M 300.24 493.2 
L 300.24 10.8 
" clip-path="url(#pc2e8a5e766)" style="fill: none; stroke: #b0b0b0; stroke-opacity: 0.3; stroke-width: 0.8; stroke-linecap: square"/>
     </g>
    </g>
    <g id="xtick_8">
     <g id="line2d_8">
      <path d="M 348.48 493.2 
L 348.48 10.8 
" clip-path="url(#pc2e8a5e766)" style="fill: none; stroke: #b0b0b0; stroke-opacity: 0.3; stroke-width: 0.8; stroke-linecap: square"/>
     </g>
    </g>
    <g id="xtick_9">
     <g id="line2d_9">
      <path d="M 396.72 493.2 
L 396.72 10.8 
" clip-path="url(#pc2e8a5e766)" style="fill: none; stroke: #b0b0b0; stroke-opacity: 0.3; stroke-width: 0.8; stroke-linecap: square"/>
     </g>
    </g>
    <g id="xtick_10">
     <g id="line2d_10">
      <path d="M 444.96 493.2 
L 444.96 10.8 
" clip-path="url(#pc2e8a5e766)" style="fill: none; stroke: #b0b0b0; stroke-opacity: 0.3; stroke-width: 0.8; stroke-linecap: square"/>
     </g>
    </g>
    <g id="xtick_11">
     <g id="line2d_11">
      <path d="M 493.2 493.2 
L 493.2 10.8 
" clip-path="url(#pc2e8a5e766)" style="fill: none; stroke: #b0b0b0; stroke-opacity: 0.3; stroke-width: 0.8; stroke-linecap: square"/>
     </g>
    </g>
   </g>
   <g id="matplotlib.axis_2">
    <g id="ytick_1">
     <g id="line2d_12">
      <path d="M 10.8 493.2 
L 493.2 493.2 
" clip-path="url(#pc2e8a5e766)" style="fill: none; stroke: #b0b0b0; stroke-opacity: 0.3; stroke-width: 0.8; stroke-linecap: square"/>
     </g>
    </g>
    <g id="ytick_2">
     <g id="line2d_13">
      <path d="M 10.8 444.96 
L 493.2 444.96 
" clip-path="url(#pc2e8a5e766)" style="fill: none; stroke: #b0b0b0; stroke-opacity: 0.3; stroke-width: 0.8; stroke-linecap: square"/>
     </g>
    </g>
    <g id="ytick_3">
     <g id="line2d_14">
      <path d="M 10.8 396.72 
L 493.2 396.72 
" clip-path="url(#pc2e8a5e766)" style="fill: none; stroke: #b0b0b0; stroke-opacity: 0.3; stroke-width: 0.8; stroke-linecap: square"/>
     </g>
    </g>
    <g id="ytick_4">
     <g id="line2d_15">
      <path d="M 10.8 348.48 
L 493.2 348.48 
" clip-path="url(#pc2e8a5e766)" style="fill: none; stroke: #b0b0b0; stroke-opacity: 0.3; stroke-width: 0.8; stroke-linecap: square"/>
     </g>
    </g>
    <g id="ytick_5">
     <g id="line2d_16">
      <path d="M 10.8 300.24 
L 493.2 300.24 
" clip-path="url(#pc2e8a5e766)" style="fill: none; stroke: #b0b0b0; stroke-opacity: 0.3; stroke-width: 0.8; stroke-linecap: square"/>
     </g>
    </g>
    <g id="ytick_6">
     <g id="line2d_17">
      <path d="M 10.8 252 
L 493.2 252 
" clip-path="url(#pc2e8a5e766)" style="fill: none; stroke: #b0b0b0; stroke-opacity: 0.3; stroke-width: 0.8; stroke-linecap: square"/>
     </g>
    </g>
    <g id="ytick_7">
     <g id="line2d_18">
      <path d="M 10.8 203.76 
L 493.2 203.76 
" clip-path="url(#pc2e8a5e766)" style="fill: none; stroke: #b0b0b0; stroke-opacity: 0.3; stroke-width: 0.8; stroke-linecap: square"/>
     </g>
    </g>
    <g id="ytick_8">
     <g id="line2d_19">
      <path d="M 10.8 155.52 
L 493.2 155.52 
" clip-path="url(#pc2e8a5e766)" style="fill: none; stroke: #b0b0b0; stroke-opacity: 0.3; stroke-width: 0.8; stroke-linecap: square"/>
     </g>
    </g>
    <g id="ytick_9">
     <g id="line2d_20">
      <path d="M 10.8 107.28 
L 493.2 107.28 
" clip-path="url(#pc2e8a5e766)" style="fill: none; stroke: #b0b0b0; stroke-opacity: 0.3; stroke-width: 0.8; stroke-linecap: square"/>
     </g>
    </g>
    <g id="ytick_10">
     <g id="line2d_21">
      <path d="M 10.8 59.04 
L 493.2 59.04 
" clip-path="url(#pc2e8a5e766)" style="fill: none; stroke: #b0b0b0; stroke-opacity: 0.3; stroke-width: 0.8; stroke-linecap: square"/>
     </g>
    </g>
    <g id="ytick_11">
     <g id="line2d_22">
      <path d="M 10.8 10.8 
L 493.2 10.8 
" clip-path="url(#pc2e8a5e766)" style="fill: none; stroke: #b0b0b0; stroke-opacity: 0.3; stroke-width: 0.8; stroke-linecap: square"/>
     </g>
    </g>
   </g>
   <g id="PathCollection_1">
    <defs>
     <path id="m4389674921" d="M 0 8.660254 
C 2.296726 8.660254 4.499694 7.747755 6.123724 6.123724 
C 7.747755 4.499694 8.660254 2.296726 8.660254 0 
C 8.660254 -2.296726 7.747755 -4.499694 6.123724 -6.123724 
C 4.499694 -7.747755 2.296726 -8.660254 0 -8.660254 
C -2.296726 -8.660254 -4.499694 -7.747755 -6.123724 -6.123724 
C -7.747755 -4.499694 -8.660254 -2.296726 -8.660254 0 
C -8.660254 2.296726 -7.747755 4.499694 -6.123724 6.123724 
C -4.499694 7.747755 -2.296726 8.660254 0 8.660254 
z
" style="stroke: #1f78b4"/>
    </defs>
    <g clip-path="url(#pc2e8a5e766)">
     <use xlink:href="#m4389674921" x="474.3864" y="320.0184" style="fill: #1f78b4; stroke: #1f78b4"/>
     <use xlink:href="#m4389674921" x="361.0224" y="50.3568" style="fill: #1f78b4; stroke: #1f78b4"/>
     <use xlink:href="#m4389674921" x="117.4104" y="101.0088" style="fill: #1f78b4; stroke: #1f78b4"/>
     <use xlink:href="#m4389674921" x="112.104" y="170.4744" style="fill: #1f78b4; stroke: #1f78b4"/>
     <use xlink:href="#m4389674921" x="45.5328" y="345.1032" style="fill: #1f78b4; stroke: #1f78b4"/>
     <use xlink:href="#m4389674921" x="296.3808" y="169.0272" style="fill: #1f78b4; stroke: #1f78b4"/>
    </g>
   </g>
   <g id="patch_14">
    <path d="M 10.8 493.2 
L 10.8 10.8 
" style="fill: none; stroke: #000000; stroke-width: 0.8; stroke-linejoin: miter; stroke-linecap: square"/>
   </g>
   <g id="patch_15">
    <path d="M 493.2 493.2 
L 493.2 10.8 
" style="fill: none; stroke: #000000; stroke-width: 0.8; stroke-linejoin: miter; stroke-linecap: square"/>
   </g>
   <g id="patch_16">
    <path d="M 10.8 493.2 
L 493.2 493.2 
" style="fill: none; stroke: #000000; stroke-width: 0.8; stroke-linejoin: miter; stroke-linecap: square"/>
   </g>
   <g id="patch_17">
    <path d="M 10.8 10.8 
L 493.2 10.8 
" style="fill: none; stroke: #000000; stroke-width: 0.8; stroke-linejoin: miter; stroke-linecap: square"/>
   </g>
   <g id="text_12">
    <g clip-path="url(#pc2e8a5e766)">
     <!-- 0 -->
     <g transform="translate(470.5689 323.32965) scale(0.12 -0.12)">
      <use xlink:href="#DejaVuSans-30"/>
     </g>
    </g>
   </g>
   <g id="text_13">
    <g clip-path="url(#pc2e8a5e766)">
     <!-- 1 -->
     <g transform="translate(357.2049 53.66805) scale(0.12 -0.12)">
      <use xlink:href="#DejaVuSans-31"/>
     </g>
    </g>
   </g>
   <g id="text_14">
    <g clip-path="url(#pc2e8a5e766)">
     <!-- 2 -->
     <g transform="translate(113.5929 104.32005) scale(0.12 -0.12)">
      <defs>
       <path id="DejaVuSans-32" d="M 1228 531 
L 3431 531 
L 3431 0 
L 469 0 
L 469 531 
Q 828 903 1448 1529 
Q 2069 2156 2228 2338 
Q 2531 2678 2651 2914 
Q 2772 3150 2772 3378 
Q 2772 3750 2511 3984 
Q 2250 4219 1831 4219 
Q 1534 4219 1204 4116 
Q 875 4013 500 3803 
L 500 4441 
Q 881 4594 1212 4672 
Q 1544 4750 1819 4750 
Q 2544 4750 2975 4387 
Q 3406 4025 3406 3419 
Q 3406 3131 3298 2873 
Q 3191 2616 2906 2266 
Q 2828 2175 2409 1742 
Q 1991 1309 1228 531 
z
" transform="scale(0.015625)"/>
      </defs>
      <use xlink:href="#DejaVuSans-32"/>
     </g>
    </g>
   </g>
   <g id="text_15">
    <g clip-path="url(#pc2e8a5e766)">
     <!-- 3 -->
     <g transform="translate(108.2865 173.78565) scale(0.12 -0.12)">
      <defs>
       <path id="DejaVuSans-33" d="M 2597 2516 
Q 3050 2419 3304 2112 
Q 3559 1806 3559 1356 
Q 3559 666 3084 287 
Q 2609 -91 1734 -91 
Q 1441 -91 1130 -33 
Q 819 25 488 141 
L 488 750 
Q 750 597 1062 519 
Q 1375 441 1716 441 
Q 2309 441 2620 675 
Q 2931 909 2931 1356 
Q 2931 1769 2642 2001 
Q 2353 2234 1838 2234 
L 1294 2234 
L 1294 2753 
L 1863 2753 
Q 2328 2753 2575 2939 
Q 2822 3125 2822 3475 
Q 2822 3834 2567 4026 
Q 2313 4219 1838 4219 
Q 1578 4219 1281 4162 
Q 984 4106 628 3988 
L 628 4550 
Q 988 4650 1302 4700 
Q 1616 4750 1894 4750 
Q 2613 4750 3031 4423 
Q 3450 4097 3450 3541 
Q 3450 3153 3228 2886 
Q 3006 2619 2597 2516 
z
" transform="scale(0.015625)"/>
      </defs>
      <use xlink:href="#DejaVuSans-33"/>
     </g>
    </g>
   </g>
   <g id="text_16">
    <g clip-path="url(#pc2e8a5e766)">
     <!-- 4 -->
     <g transform="translate(41.7153 348.41445) scale(0.12 -0.12)">
      <use xlink:href="#DejaVuSans-34"/>
     </g>
    </g>
   </g>
   <g id="text_17">
    <g clip-path="url(#pc2e8a5e766)">
     <!-- 5 -->
     <g transform="translate(292.5633 172.33845) scale(0.12 -0.12)">
      <use xlink:href="#DejaVuSans-35"/>
     </g>
    </g>
   </g>
  </g>
 </g>
 <defs>
  <clipPath id="pc2e8a5e766">
   <rect x="10.8" y="10.8" width="482.4" height="482.4"/>
  </clipPath>
 </defs>
</svg>
