<?xml version="1.0" encoding="utf-8" standalone="no"?>
<!DOCTYPE svg PUBLIC "-//W3C//DTD SVG 1.1//EN"
  "http://www.w3.org/Graphics/SVG/1.1/DTD/svg11.dtd">
<svg xmlns:xlink="http://www.w3.org/1999/xlink" width="504pt" height="504pt" viewBox="0 0 504 504" xmlns="http://www.w3.org/2000/svg" version="1.1">
 <metadata>
  <rdf:RDF xmlns:dc="http://purl.org/dc/elements/1.1/" xmlns:cc="http://creativecommons.org/ns#" xmlns:rdf="http://www.w3.org/1999/02/22-rdf-syntax-ns#">
   <cc:Work>
    <dc:type rdf:resource="http://purl.org/dc/dcmitype/StillImage"/>
    <dc:date>2024-10-29T14:59:36.581322</dc:date>
    <dc:format>image/svg+xml</dc:format>
    <dc:creator>
     <cc:Agent>
      <dc:title>Matplotlib v3.9.2, https://matplotlib.org/</dc:title>
     </cc:Agent>
    </dc:creator>
   </cc:Work>
  </rdf:RDF>
 </metadata>
 <defs>
  <style type="text/css">*{stroke-linejoin: round; stroke-linecap: butt}</style>
 </defs>
 <g id="figure_1">
  <g id="patch_1">
   <path d="M 0 504 
L 504 504 
L 504 0 
L 0 0 
L 0 504 
z
" style="fill: none; opacity: 0"/>
  </g>
  <g id="axes_1">
   <g id="patch_2">
    <path d="M 10.8 493.2 
L 493.2 493.2 
L 493.2 10.8 
L 10.8 10.8 
L 10.8 493.2 
z
" style="fill: none; opacity: 0"/>
   </g>
   <g id="LineCollection_1">
    <path d="M 344.6208 239.94 
L 363.4344 186.876 
" clip-path="url(#pce8d70780f)" style="fill: none; stroke: #000000"/>
    <path d="M 344.6208 239.94 
L 135.7416 210.0312 
" clip-path="url(#pce8d70780f)" style="fill: none; stroke: #000000"/>
    <path d="M 344.6208 239.94 
L 434.8296 488.8584 
" clip-path="url(#pce8d70780f)" style="fill: none; stroke: #000000"/>
    <path d="M 344.6208 239.94 
L 466.668 291.5568 
" clip-path="url(#pce8d70780f)" style="fill: none; stroke: #000000"/>
    <path d="M 366.3288 316.6416 
L 197.9712 349.9272 
" clip-path="url(#pce8d70780f)" style="fill: none; stroke: #000000"/>
    <path d="M 366.3288 316.6416 
L 466.668 291.5568 
" clip-path="url(#pce8d70780f)" style="fill: none; stroke: #000000"/>
    <path d="M 366.3288 316.6416 
L 135.7416 210.0312 
" clip-path="url(#pce8d70780f)" style="fill: none; stroke: #000000"/>
    <path d="M 197.9712 349.9272 
L 471.0096 233.1864 
" clip-path="url(#pce8d70780f)" style="fill: none; stroke: #000000"/>
    <path d="M 197.9712 349.9272 
L 363.4344 186.876 
" clip-path="url(#pce8d70780f)" style="fill: none; stroke: #000000"/>
    <path d="M 471.0096 233.1864 
L 135.7416 210.0312 
" clip-path="url(#pce8d70780f)" style="fill: none; stroke: #000000"/>
    <path d="M 471.0096 233.1864 
L 466.668 291.5568 
" clip-path="url(#pce8d70780f)" style="fill: none; stroke: #000000"/>
    <path d="M 471.0096 233.1864 
L 363.4344 186.876 
" clip-path="url(#pce8d70780f)" style="fill: none; stroke: #000000"/>
    <path d="M 363.4344 186.876 
L 434.8296 488.8584 
" clip-path="url(#pce8d70780f)" style="fill: none; stroke: #000000"/>
    <path d="M 434.8296 488.8584 
L 135.7416 210.0312 
" clip-path="url(#pce8d70780f)" style="fill: none; stroke: #000000"/>
   </g>
   <g id="text_1">
    <g id="patch_3">
     <path d="M 359.290129 222.023674 
L 363.54237 210.030173 
Q 364.544863 207.202629 361.717319 206.200136 
L 352.595542 202.966051 
Q 349.767998 201.963558 348.765505 204.791103 
L 344.513264 216.784604 
Q 343.510771 219.612148 346.338315 220.614641 
L 355.460091 223.848726 
Q 358.287636 224.851219 359.290129 222.023674 
z
" clip-path="url(#pce8d70780f)" style="fill: #ffffff; stroke: #ffffff; stroke-linejoin: miter"/>
    </g>
    <g clip-path="url(#pce8d70780f)">
     <!-- 16 -->
     <g transform="translate(354.502448 220.326224) rotate(-70.47827) scale(0.1 -0.1)">
      <defs>
       <path id="DejaVuSans-31" d="M 794 531 
L 1825 531 
L 1825 4091 
L 703 3866 
L 703 4441 
L 1819 4666 
L 2450 4666 
L 2450 531 
L 3481 531 
L 3481 0 
L 794 0 
L 794 531 
z
" transform="scale(0.015625)"/>
       <path id="DejaVuSans-36" d="M 2113 2584 
Q 1688 2584 1439 2293 
Q 1191 2003 1191 1497 
Q 1191 994 1439 701 
Q 1688 409 2113 409 
Q 2538 409 2786 701 
Q 3034 994 3034 1497 
Q 3034 2003 2786 2293 
Q 2538 2584 2113 2584 
z
M 3366 4563 
L 3366 3988 
Q 3128 4100 2886 4159 
Q 2644 4219 2406 4219 
Q 1781 4219 1451 3797 
Q 1122 3375 1075 2522 
Q 1259 2794 1537 2939 
Q 1816 3084 2150 3084 
Q 2853 3084 3261 2657 
Q 3669 2231 3669 1497 
Q 3669 778 3244 343 
Q 2819 -91 2113 -91 
Q 1303 -91 875 529 
Q 447 1150 447 2328 
Q 447 3434 972 4092 
Q 1497 4750 2381 4750 
Q 2619 4750 2861 4703 
Q 3103 4656 3366 4563 
z
" transform="scale(0.015625)"/>
      </defs>
      <use xlink:href="#DejaVuSans-31"/>
      <use xlink:href="#DejaVuSans-36" x="63.623047"/>
     </g>
    </g>
   </g>
   <g id="text_2">
    <g id="patch_4">
     <path d="M 235.922397 232.29481 
L 242.220659 233.196639 
Q 245.19037 233.621863 245.615594 230.652152 
L 246.987386 221.07174 
Q 247.41261 218.102029 244.442899 217.676805 
L 238.144636 216.774975 
Q 235.174925 216.349751 234.749701 219.319462 
L 233.37791 228.899874 
Q 232.952685 231.869585 235.922397 232.29481 
z
" clip-path="url(#pce8d70780f)" style="fill: #ffffff; stroke: #ffffff; stroke-linejoin: miter"/>
    </g>
    <g clip-path="url(#pce8d70780f)">
     <!-- 1 -->
     <g transform="translate(236.642399 227.266408) rotate(-351.851373) scale(0.1 -0.1)">
      <use xlink:href="#DejaVuSans-31"/>
     </g>
    </g>
   </g>
   <g id="text_3">
    <g id="patch_5">
     <path d="M 380.186327 361.085456 
L 384.521973 373.049059 
Q 385.54413 375.869555 388.364626 374.847399 
L 397.463662 371.549879 
Q 400.284158 370.527723 399.262002 367.707227 
L 394.926355 355.743624 
Q 393.904199 352.923129 391.083703 353.945285 
L 381.984666 357.242804 
Q 379.16417 358.264961 380.186327 361.085456 
z
" clip-path="url(#pce8d70780f)" style="fill: #ffffff; stroke: #ffffff; stroke-linejoin: miter"/>
    </g>
    <g clip-path="url(#pce8d70780f)">
     <!-- 12 -->
     <g transform="translate(384.962072 359.354711) rotate(-289.920673) scale(0.1 -0.1)">
      <defs>
       <path id="DejaVuSans-32" d="M 1228 531 
L 3431 531 
L 3431 0 
L 469 0 
L 469 531 
Q 828 903 1448 1529 
Q 2069 2156 2228 2338 
Q 2531 2678 2651 2914 
Q 2772 3150 2772 3378 
Q 2772 3750 2511 3984 
Q 2250 4219 1831 4219 
Q 1534 4219 1204 4116 
Q 875 4013 500 3803 
L 500 4441 
Q 881 4594 1212 4672 
Q 1544 4750 1819 4750 
Q 2544 4750 2975 4387 
Q 3406 4025 3406 3419 
Q 3406 3131 3298 2873 
Q 3191 2616 2906 2266 
Q 2828 2175 2409 1742 
Q 1991 1309 1228 531 
z
" transform="scale(0.015625)"/>
      </defs>
      <use xlink:href="#DejaVuSans-31"/>
      <use xlink:href="#DejaVuSans-32" x="63.623047"/>
     </g>
    </g>
   </g>
   <g id="text_4">
    <g id="patch_6">
     <path d="M 399.660354 271.728905 
L 405.520328 274.207234 
Q 408.28338 275.375797 409.451944 272.612745 
L 413.221779 263.699022 
Q 414.390343 260.93597 411.62729 259.767406 
L 405.767316 257.289078 
Q 403.004264 256.120514 401.8357 258.883566 
L 398.065865 267.797289 
Q 396.897301 270.560341 399.660354 271.728905 
z
" clip-path="url(#pce8d70780f)" style="fill: #ffffff; stroke: #ffffff; stroke-linejoin: miter"/>
    </g>
    <g clip-path="url(#pce8d70780f)">
     <!-- 7 -->
     <g transform="translate(401.639 267.050424) rotate(-337.075288) scale(0.1 -0.1)">
      <defs>
       <path id="DejaVuSans-37" d="M 525 4666 
L 3525 4666 
L 3525 4397 
L 1831 0 
L 1172 0 
L 2766 4134 
L 525 4134 
L 525 4666 
z
" transform="scale(0.015625)"/>
      </defs>
      <use xlink:href="#DejaVuSans-37"/>
     </g>
    </g>
   </g>
   <g id="text_5">
    <g id="patch_7">
     <path d="M 280.548668 341.591798 
L 286.790348 340.357769 
Q 289.733381 339.775909 289.15152 336.832877 
L 287.274415 327.338532 
Q 286.692555 324.3955 283.749523 324.97736 
L 277.507842 326.211389 
Q 274.564809 326.793249 275.14667 329.736281 
L 277.023775 339.230626 
Q 277.605635 342.173658 280.548668 341.591798 
z
" clip-path="url(#pce8d70780f)" style="fill: #ffffff; stroke: #ffffff; stroke-linejoin: miter"/>
    </g>
    <g clip-path="url(#pce8d70780f)">
     <!-- 7 -->
     <g transform="translate(279.563445 336.60857) rotate(-11.183591) scale(0.1 -0.1)">
      <use xlink:href="#DejaVuSans-37"/>
     </g>
    </g>
   </g>
   <g id="text_6">
    <g id="patch_8">
     <path d="M 415.311412 312.476268 
L 421.483944 310.933135 
Q 424.394371 310.205528 423.666764 307.2951 
L 421.319474 297.90594 
Q 420.591867 294.995513 417.68144 295.723119 
L 411.508908 297.266252 
Q 408.598481 297.993859 409.326087 300.904287 
L 411.673378 310.293447 
Q 412.400984 313.203875 415.311412 312.476268 
z
" clip-path="url(#pce8d70780f)" style="fill: #ffffff; stroke: #ffffff; stroke-linejoin: miter"/>
    </g>
    <g clip-path="url(#pce8d70780f)">
     <!-- 3 -->
     <g transform="translate(414.079407 307.548247) rotate(-14.036243) scale(0.1 -0.1)">
      <defs>
       <path id="DejaVuSans-33" d="M 2597 2516 
Q 3050 2419 3304 2112 
Q 3559 1806 3559 1356 
Q 3559 666 3084 287 
Q 2609 -91 1734 -91 
Q 1441 -91 1130 -33 
Q 819 25 488 141 
L 488 750 
Q 750 597 1062 519 
Q 1375 441 1716 441 
Q 2309 441 2620 675 
Q 2931 909 2931 1356 
Q 2931 1769 2642 2001 
Q 2353 2234 1838 2234 
L 1294 2234 
L 1294 2753 
L 1863 2753 
Q 2328 2753 2575 2939 
Q 2822 3125 2822 3475 
Q 2822 3834 2567 4026 
Q 2313 4219 1838 4219 
Q 1578 4219 1281 4162 
Q 984 4106 628 3988 
L 628 4550 
Q 988 4650 1302 4700 
Q 1616 4750 1894 4750 
Q 2613 4750 3031 4423 
Q 3450 4097 3450 3541 
Q 3450 3153 3228 2886 
Q 3006 2619 2597 2516 
z
" transform="scale(0.015625)"/>
      </defs>
      <use xlink:href="#DejaVuSans-33"/>
     </g>
    </g>
   </g>
   <g id="text_7">
    <g id="patch_9">
     <path d="M 241.968785 267.780966 
L 253.51903 273.121142 
Q 256.242074 274.380122 257.501054 271.657078 
L 261.562578 262.872425 
Q 262.821558 260.149381 260.098514 258.890401 
L 248.54827 253.550225 
Q 245.825226 252.291244 244.566246 255.014288 
L 240.504722 263.798941 
Q 239.245741 266.521985 241.968785 267.780966 
z
" clip-path="url(#pce8d70780f)" style="fill: #ffffff; stroke: #ffffff; stroke-linejoin: miter"/>
    </g>
    <g clip-path="url(#pce8d70780f)">
     <!-- 10 -->
     <g transform="translate(244.100528 263.170228) rotate(-335.186865) scale(0.1 -0.1)">
      <defs>
       <path id="DejaVuSans-30" d="M 2034 4250 
Q 1547 4250 1301 3770 
Q 1056 3291 1056 2328 
Q 1056 1369 1301 889 
Q 1547 409 2034 409 
Q 2525 409 2770 889 
Q 3016 1369 3016 2328 
Q 3016 3291 2770 3770 
Q 2525 4250 2034 4250 
z
M 2034 4750 
Q 2819 4750 3233 4129 
Q 3647 3509 3647 2328 
Q 3647 1150 3233 529 
Q 2819 -91 2034 -91 
Q 1250 -91 836 529 
Q 422 1150 422 2328 
Q 422 3509 836 4129 
Q 1250 4750 2034 4750 
z
" transform="scale(0.015625)"/>
      </defs>
      <use xlink:href="#DejaVuSans-31"/>
      <use xlink:href="#DejaVuSans-30" x="63.623047"/>
     </g>
    </g>
   </g>
   <g id="text_8">
    <g id="patch_10">
     <path d="M 331.720794 301.266509 
L 343.421187 296.263868 
Q 346.17963 295.084463 345.000225 292.32602 
L 341.195416 283.42717 
Q 340.016012 280.668728 337.257569 281.848133 
L 325.557176 286.850774 
Q 322.798734 288.030179 323.978138 290.788621 
L 327.782947 299.687472 
Q 328.962352 302.445914 331.720794 301.266509 
z
" clip-path="url(#pce8d70780f)" style="fill: #ffffff; stroke: #ffffff; stroke-linejoin: miter"/>
    </g>
    <g clip-path="url(#pce8d70780f)">
     <!-- 19 -->
     <g transform="translate(329.723792 296.595834) rotate(-23.149703) scale(0.1 -0.1)">
      <defs>
       <path id="DejaVuSans-39" d="M 703 97 
L 703 672 
Q 941 559 1184 500 
Q 1428 441 1663 441 
Q 2288 441 2617 861 
Q 2947 1281 2994 2138 
Q 2813 1869 2534 1725 
Q 2256 1581 1919 1581 
Q 1219 1581 811 2004 
Q 403 2428 403 3163 
Q 403 3881 828 4315 
Q 1253 4750 1959 4750 
Q 2769 4750 3195 4129 
Q 3622 3509 3622 2328 
Q 3622 1225 3098 567 
Q 2575 -91 1691 -91 
Q 1453 -91 1209 -44 
Q 966 3 703 97 
z
M 1959 2075 
Q 2384 2075 2632 2365 
Q 2881 2656 2881 3163 
Q 2881 3666 2632 3958 
Q 2384 4250 1959 4250 
Q 1534 4250 1286 3958 
Q 1038 3666 1038 3163 
Q 1038 2656 1286 2365 
Q 1534 2075 1959 2075 
z
" transform="scale(0.015625)"/>
      </defs>
      <use xlink:href="#DejaVuSans-31"/>
      <use xlink:href="#DejaVuSans-39" x="63.623047"/>
     </g>
    </g>
   </g>
   <g id="text_9">
    <g id="patch_11">
     <path d="M 281.673854 278.450304 
L 290.737607 269.518675 
Q 292.874445 267.412987 290.768757 265.276149 
L 283.975718 258.382621 
Q 281.870029 256.245783 279.733191 258.351472 
L 270.669438 267.283101 
Q 268.5326 269.388789 270.638288 271.525627 
L 277.431327 278.419155 
Q 279.537016 280.555993 281.673854 278.450304 
z
" clip-path="url(#pce8d70780f)" style="fill: #ffffff; stroke: #ffffff; stroke-linejoin: miter"/>
    </g>
    <g clip-path="url(#pce8d70780f)">
     <!-- 19 -->
     <g transform="translate(278.10844 274.832148) rotate(-44.579334) scale(0.1 -0.1)">
      <use xlink:href="#DejaVuSans-31"/>
      <use xlink:href="#DejaVuSans-39" x="63.623047"/>
     </g>
    </g>
   </g>
   <g id="text_10">
    <g id="patch_12">
     <path d="M 296.487721 228.990827 
L 309.18248 229.867587 
Q 312.175351 230.074289 312.382053 227.081418 
L 313.048881 217.426293 
Q 313.255583 214.433422 310.262713 214.226721 
L 297.567953 213.34996 
Q 294.575083 213.143258 294.368381 216.136129 
L 293.701552 225.791254 
Q 293.49485 228.784125 296.487721 228.990827 
z
" clip-path="url(#pce8d70780f)" style="fill: #ffffff; stroke: #ffffff; stroke-linejoin: miter"/>
    </g>
    <g clip-path="url(#pce8d70780f)">
     <!-- 13 -->
     <g transform="translate(296.837714 223.923211) rotate(-356.049155) scale(0.1 -0.1)">
      <use xlink:href="#DejaVuSans-31"/>
      <use xlink:href="#DejaVuSans-33" x="63.623047"/>
     </g>
    </g>
   </g>
   <g id="text_11">
    <g id="patch_13">
     <path d="M 476.184183 269.299977 
L 477.128063 256.610032 
Q 477.350589 253.618296 474.358854 253.395771 
L 464.70739 252.677893 
Q 461.715654 252.455367 461.493128 255.447103 
L 460.549248 268.137048 
Q 460.326722 271.128784 463.318458 271.35131 
L 472.969922 272.069187 
Q 475.961657 272.291713 476.184183 269.299977 
z
" clip-path="url(#pce8d70780f)" style="fill: #ffffff; stroke: #ffffff; stroke-linejoin: miter"/>
    </g>
    <g clip-path="url(#pce8d70780f)">
     <!-- 20 -->
     <g transform="translate(471.118489 268.92319) rotate(-85.746164) scale(0.1 -0.1)">
      <use xlink:href="#DejaVuSans-32"/>
      <use xlink:href="#DejaVuSans-30" x="63.623047"/>
     </g>
    </g>
   </g>
   <g id="text_12">
    <g id="patch_14">
     <path d="M 408.279171 214.715964 
L 419.967143 219.747557 
Q 422.722657 220.933788 423.908888 218.178274 
L 427.735716 209.28887 
Q 428.921946 206.533356 426.166432 205.347126 
L 414.47846 200.315533 
Q 411.722946 199.129302 410.536716 201.884817 
L 406.709887 210.77422 
Q 405.523657 213.529734 408.279171 214.715964 
z
" clip-path="url(#pce8d70780f)" style="fill: #ffffff; stroke: #ffffff; stroke-linejoin: miter"/>
    </g>
    <g clip-path="url(#pce8d70780f)">
     <!-- 20 -->
     <g transform="translate(410.287731 210.050247) rotate(-336.708447) scale(0.1 -0.1)">
      <use xlink:href="#DejaVuSans-32"/>
      <use xlink:href="#DejaVuSans-30" x="63.623047"/>
     </g>
    </g>
   </g>
   <g id="text_13">
    <g id="patch_15">
     <path d="M 390.771575 336.576042 
L 392.235453 342.767849 
Q 392.92569 345.687365 395.845206 344.997128 
L 405.263686 342.770394 
Q 408.183201 342.080157 407.492965 339.160641 
L 406.029087 332.968835 
Q 405.33885 330.049319 402.419334 330.739556 
L 393.000854 332.966289 
Q 390.081338 333.656526 390.771575 336.576042 
z
" clip-path="url(#pce8d70780f)" style="fill: #ffffff; stroke: #ffffff; stroke-linejoin: miter"/>
    </g>
    <g clip-path="url(#pce8d70780f)">
     <!-- 6 -->
     <g transform="translate(395.714985 335.407313) rotate(-283.301722) scale(0.1 -0.1)">
      <use xlink:href="#DejaVuSans-36"/>
     </g>
    </g>
   </g>
   <g id="text_14">
    <g id="patch_16">
     <path d="M 275.286204 350.839974 
L 284.593873 359.517123 
Q 286.788215 361.562817 288.833909 359.368474 
L 295.433401 352.289434 
Q 297.479094 350.095092 295.284752 348.049399 
L 285.977083 339.372249 
Q 283.78274 337.326556 281.737047 339.520898 
L 275.137555 346.599938 
Q 273.091862 348.79428 275.286204 350.839974 
z
" clip-path="url(#pce8d70780f)" style="fill: #ffffff; stroke: #ffffff; stroke-linejoin: miter"/>
    </g>
    <g clip-path="url(#pce8d70780f)">
     <!-- 19 -->
     <g transform="translate(278.750032 347.124449) rotate(-317.007878) scale(0.1 -0.1)">
      <use xlink:href="#DejaVuSans-31"/>
      <use xlink:href="#DejaVuSans-39" x="63.623047"/>
     </g>
    </g>
   </g>
   <g id="matplotlib.axis_1">
    <g id="xtick_1">
     <g id="line2d_1">
      <path d="M 10.8 493.2 
L 10.8 10.8 
" clip-path="url(#pce8d70780f)" style="fill: none; stroke: #b0b0b0; stroke-opacity: 0.3; stroke-width: 0.8; stroke-linecap: square"/>
     </g>
    </g>
    <g id="xtick_2">
     <g id="line2d_2">
      <path d="M 59.04 493.2 
L 59.04 10.8 
" clip-path="url(#pce8d70780f)" style="fill: none; stroke: #b0b0b0; stroke-opacity: 0.3; stroke-width: 0.8; stroke-linecap: square"/>
     </g>
    </g>
    <g id="xtick_3">
     <g id="line2d_3">
      <path d="M 107.28 493.2 
L 107.28 10.8 
" clip-path="url(#pce8d70780f)" style="fill: none; stroke: #b0b0b0; stroke-opacity: 0.3; stroke-width: 0.8; stroke-linecap: square"/>
     </g>
    </g>
    <g id="xtick_4">
     <g id="line2d_4">
      <path d="M 155.52 493.2 
L 155.52 10.8 
" clip-path="url(#pce8d70780f)" style="fill: none; stroke: #b0b0b0; stroke-opacity: 0.3; stroke-width: 0.8; stroke-linecap: square"/>
     </g>
    </g>
    <g id="xtick_5">
     <g id="line2d_5">
      <path d="M 203.76 493.2 
L 203.76 10.8 
" clip-path="url(#pce8d70780f)" style="fill: none; stroke: #b0b0b0; stroke-opacity: 0.3; stroke-width: 0.8; stroke-linecap: square"/>
     </g>
    </g>
    <g id="xtick_6">
     <g id="line2d_6">
      <path d="M 252 493.2 
L 252 10.8 
" clip-path="url(#pce8d70780f)" style="fill: none; stroke: #b0b0b0; stroke-opacity: 0.3; stroke-width: 0.8; stroke-linecap: square"/>
     </g>
    </g>
    <g id="xtick_7">
     <g id="line2d_7">
      <path d="M 300.24 493.2 
L 300.24 10.8 
" clip-path="url(#pce8d70780f)" style="fill: none; stroke: #b0b0b0; stroke-opacity: 0.3; stroke-width: 0.8; stroke-linecap: square"/>
     </g>
    </g>
    <g id="xtick_8">
     <g id="line2d_8">
      <path d="M 348.48 493.2 
L 348.48 10.8 
" clip-path="url(#pce8d70780f)" style="fill: none; stroke: #b0b0b0; stroke-opacity: 0.3; stroke-width: 0.8; stroke-linecap: square"/>
     </g>
    </g>
    <g id="xtick_9">
     <g id="line2d_9">
      <path d="M 396.72 493.2 
L 396.72 10.8 
" clip-path="url(#pce8d70780f)" style="fill: none; stroke: #b0b0b0; stroke-opacity: 0.3; stroke-width: 0.8; stroke-linecap: square"/>
     </g>
    </g>
    <g id="xtick_10">
     <g id="line2d_10">
      <path d="M 444.96 493.2 
L 444.96 10.8 
" clip-path="url(#pce8d70780f)" style="fill: none; stroke: #b0b0b0; stroke-opacity: 0.3; stroke-width: 0.8; stroke-linecap: square"/>
     </g>
    </g>
    <g id="xtick_11">
     <g id="line2d_11">
      <path d="M 493.2 493.2 
L 493.2 10.8 
" clip-path="url(#pce8d70780f)" style="fill: none; stroke: #b0b0b0; stroke-opacity: 0.3; stroke-width: 0.8; stroke-linecap: square"/>
     </g>
    </g>
   </g>
   <g id="matplotlib.axis_2">
    <g id="ytick_1">
     <g id="line2d_12">
      <path d="M 10.8 493.2 
L 493.2 493.2 
" clip-path="url(#pce8d70780f)" style="fill: none; stroke: #b0b0b0; stroke-opacity: 0.3; stroke-width: 0.8; stroke-linecap: square"/>
     </g>
    </g>
    <g id="ytick_2">
     <g id="line2d_13">
      <path d="M 10.8 444.96 
L 493.2 444.96 
" clip-path="url(#pce8d70780f)" style="fill: none; stroke: #b0b0b0; stroke-opacity: 0.3; stroke-width: 0.8; stroke-linecap: square"/>
     </g>
    </g>
    <g id="ytick_3">
     <g id="line2d_14">
      <path d="M 10.8 396.72 
L 493.2 396.72 
" clip-path="url(#pce8d70780f)" style="fill: none; stroke: #b0b0b0; stroke-opacity: 0.3; stroke-width: 0.8; stroke-linecap: square"/>
     </g>
    </g>
    <g id="ytick_4">
     <g id="line2d_15">
      <path d="M 10.8 348.48 
L 493.2 348.48 
" clip-path="url(#pce8d70780f)" style="fill: none; stroke: #b0b0b0; stroke-opacity: 0.3; stroke-width: 0.8; stroke-linecap: square"/>
     </g>
    </g>
    <g id="ytick_5">
     <g id="line2d_16">
      <path d="M 10.8 300.24 
L 493.2 300.24 
" clip-path="url(#pce8d70780f)" style="fill: none; stroke: #b0b0b0; stroke-opacity: 0.3; stroke-width: 0.8; stroke-linecap: square"/>
     </g>
    </g>
    <g id="ytick_6">
     <g id="line2d_17">
      <path d="M 10.8 252 
L 493.2 252 
" clip-path="url(#pce8d70780f)" style="fill: none; stroke: #b0b0b0; stroke-opacity: 0.3; stroke-width: 0.8; stroke-linecap: square"/>
     </g>
    </g>
    <g id="ytick_7">
     <g id="line2d_18">
      <path d="M 10.8 203.76 
L 493.2 203.76 
" clip-path="url(#pce8d70780f)" style="fill: none; stroke: #b0b0b0; stroke-opacity: 0.3; stroke-width: 0.8; stroke-linecap: square"/>
     </g>
    </g>
    <g id="ytick_8">
     <g id="line2d_19">
      <path d="M 10.8 155.52 
L 493.2 155.52 
" clip-path="url(#pce8d70780f)" style="fill: none; stroke: #b0b0b0; stroke-opacity: 0.3; stroke-width: 0.8; stroke-linecap: square"/>
     </g>
    </g>
    <g id="ytick_9">
     <g id="line2d_20">
      <path d="M 10.8 107.28 
L 493.2 107.28 
" clip-path="url(#pce8d70780f)" style="fill: none; stroke: #b0b0b0; stroke-opacity: 0.3; stroke-width: 0.8; stroke-linecap: square"/>
     </g>
    </g>
    <g id="ytick_10">
     <g id="line2d_21">
      <path d="M 10.8 59.04 
L 493.2 59.04 
" clip-path="url(#pce8d70780f)" style="fill: none; stroke: #b0b0b0; stroke-opacity: 0.3; stroke-width: 0.8; stroke-linecap: square"/>
     </g>
    </g>
    <g id="ytick_11">
     <g id="line2d_22">
      <path d="M 10.8 10.8 
L 493.2 10.8 
" clip-path="url(#pce8d70780f)" style="fill: none; stroke: #b0b0b0; stroke-opacity: 0.3; stroke-width: 0.8; stroke-linecap: square"/>
     </g>
    </g>
   </g>
   <g id="PathCollection_1">
    <defs>
     <path id="m51f736871d" d="M 0 8.660254 
C 2.296726 8.660254 4.499694 7.747755 6.123724 6.123724 
C 7.747755 4.499694 8.660254 2.296726 8.660254 0 
C 8.660254 -2.296726 7.747755 -4.499694 6.123724 -6.123724 
C 4.499694 -7.747755 2.296726 -8.660254 0 -8.660254 
C -2.296726 -8.660254 -4.499694 -7.747755 -6.123724 -6.123724 
C -7.747755 -4.499694 -8.660254 -2.296726 -8.660254 0 
C -8.660254 2.296726 -7.747755 4.499694 -6.123724 6.123724 
C -4.499694 7.747755 -2.296726 8.660254 0 8.660254 
z
" style="stroke: #1f78b4"/>
    </defs>
    <g clip-path="url(#pce8d70780f)">
     <use xlink:href="#m51f736871d" x="344.6208" y="239.94" style="fill: #1f78b4; stroke: #1f78b4"/>
     <use xlink:href="#m51f736871d" x="366.3288" y="316.6416" style="fill: #1f78b4; stroke: #1f78b4"/>
     <use xlink:href="#m51f736871d" x="197.9712" y="349.9272" style="fill: #1f78b4; stroke: #1f78b4"/>
     <use xlink:href="#m51f736871d" x="471.0096" y="233.1864" style="fill: #1f78b4; stroke: #1f78b4"/>
     <use xlink:href="#m51f736871d" x="363.4344" y="186.876" style="fill: #1f78b4; stroke: #1f78b4"/>
     <use xlink:href="#m51f736871d" x="434.8296" y="488.8584" style="fill: #1f78b4; stroke: #1f78b4"/>
     <use xlink:href="#m51f736871d" x="135.7416" y="210.0312" style="fill: #1f78b4; stroke: #1f78b4"/>
     <use xlink:href="#m51f736871d" x="466.668" y="291.5568" style="fill: #1f78b4; stroke: #1f78b4"/>
    </g>
   </g>
   <g id="patch_17">
    <path d="M 10.8 493.2 
L 10.8 10.8 
" style="fill: none; stroke: #000000; stroke-width: 0.8; stroke-linejoin: miter; stroke-linecap: square"/>
   </g>
   <g id="patch_18">
    <path d="M 493.2 493.2 
L 493.2 10.8 
" style="fill: none; stroke: #000000; stroke-width: 0.8; stroke-linejoin: miter; stroke-linecap: square"/>
   </g>
   <g id="patch_19">
    <path d="M 10.8 493.2 
L 493.2 493.2 
" style="fill: none; stroke: #000000; stroke-width: 0.8; stroke-linejoin: miter; stroke-linecap: square"/>
   </g>
   <g id="patch_20">
    <path d="M 10.8 10.8 
L 493.2 10.8 
" style="fill: none; stroke: #000000; stroke-width: 0.8; stroke-linejoin: miter; stroke-linecap: square"/>
   </g>
   <g id="text_15">
    <g clip-path="url(#pce8d70780f)">
     <!-- 0 -->
     <g transform="translate(340.8033 243.25125) scale(0.12 -0.12)">
      <use xlink:href="#DejaVuSans-30"/>
     </g>
    </g>
   </g>
   <g id="text_16">
    <g clip-path="url(#pce8d70780f)">
     <!-- 1 -->
     <g transform="translate(362.5113 319.95285) scale(0.12 -0.12)">
      <use xlink:href="#DejaVuSans-31"/>
     </g>
    </g>
   </g>
   <g id="text_17">
    <g clip-path="url(#pce8d70780f)">
     <!-- 2 -->
     <g transform="translate(194.1537 353.23845) scale(0.12 -0.12)">
      <use xlink:href="#DejaVuSans-32"/>
     </g>
    </g>
   </g>
   <g id="text_18">
    <g clip-path="url(#pce8d70780f)">
     <!-- 3 -->
     <g transform="translate(467.1921 236.49765) scale(0.12 -0.12)">
      <use xlink:href="#DejaVuSans-33"/>
     </g>
    </g>
   </g>
   <g id="text_19">
    <g clip-path="url(#pce8d70780f)">
     <!-- 4 -->
     <g transform="translate(359.6169 190.18725) scale(0.12 -0.12)">
      <defs>
       <path id="DejaVuSans-34" d="M 2419 4116 
L 825 1625 
L 2419 1625 
L 2419 4116 
z
M 2253 4666 
L 3047 4666 
L 3047 1625 
L 3713 1625 
L 3713 1100 
L 3047 1100 
L 3047 0 
L 2419 0 
L 2419 1100 
L 313 1100 
L 313 1709 
L 2253 4666 
z
" transform="scale(0.015625)"/>
      </defs>
      <use xlink:href="#DejaVuSans-34"/>
     </g>
    </g>
   </g>
   <g id="text_20">
    <g clip-path="url(#pce8d70780f)">
     <!-- 5 -->
     <g transform="translate(431.0121 492.16965) scale(0.12 -0.12)">
      <defs>
       <path id="DejaVuSans-35" d="M 691 4666 
L 3169 4666 
L 3169 4134 
L 1269 4134 
L 1269 2991 
Q 1406 3038 1543 3061 
Q 1681 3084 1819 3084 
Q 2600 3084 3056 2656 
Q 3513 2228 3513 1497 
Q 3513 744 3044 326 
Q 2575 -91 1722 -91 
Q 1428 -91 1123 -41 
Q 819 9 494 109 
L 494 744 
Q 775 591 1075 516 
Q 1375 441 1709 441 
Q 2250 441 2565 725 
Q 2881 1009 2881 1497 
Q 2881 1984 2565 2268 
Q 2250 2553 1709 2553 
Q 1456 2553 1204 2497 
Q 953 2441 691 2322 
L 691 4666 
z
" transform="scale(0.015625)"/>
      </defs>
      <use xlink:href="#DejaVuSans-35"/>
     </g>
    </g>
   </g>
   <g id="text_21">
    <g clip-path="url(#pce8d70780f)">
     <!-- 6 -->
     <g transform="translate(131.9241 213.34245) scale(0.12 -0.12)">
      <use xlink:href="#DejaVuSans-36"/>
     </g>
    </g>
   </g>
   <g id="text_22">
    <g clip-path="url(#pce8d70780f)">
     <!-- 7 -->
     <g transform="translate(462.8505 294.86805) scale(0.12 -0.12)">
      <use xlink:href="#DejaVuSans-37"/>
     </g>
    </g>
   </g>
  </g>
 </g>
 <defs>
  <clipPath id="pce8d70780f">
   <rect x="10.8" y="10.8" width="482.4" height="482.4"/>
  </clipPath>
 </defs>
</svg>
