<?xml version="1.0" encoding="utf-8" standalone="no"?>
<!DOCTYPE svg PUBLIC "-//W3C//DTD SVG 1.1//EN"
  "http://www.w3.org/Graphics/SVG/1.1/DTD/svg11.dtd">
<svg xmlns:xlink="http://www.w3.org/1999/xlink" width="504pt" height="504pt" viewBox="0 0 504 504" xmlns="http://www.w3.org/2000/svg" version="1.1">
 <metadata>
  <rdf:RDF xmlns:dc="http://purl.org/dc/elements/1.1/" xmlns:cc="http://creativecommons.org/ns#" xmlns:rdf="http://www.w3.org/1999/02/22-rdf-syntax-ns#">
   <cc:Work>
    <dc:type rdf:resource="http://purl.org/dc/dcmitype/StillImage"/>
    <dc:date>2024-10-29T14:59:36.863102</dc:date>
    <dc:format>image/svg+xml</dc:format>
    <dc:creator>
     <cc:Agent>
      <dc:title>Matplotlib v3.9.2, https://matplotlib.org/</dc:title>
     </cc:Agent>
    </dc:creator>
   </cc:Work>
  </rdf:RDF>
 </metadata>
 <defs>
  <style type="text/css">*{stroke-linejoin: round; stroke-linecap: butt}</style>
 </defs>
 <g id="figure_1">
  <g id="patch_1">
   <path d="M 0 504 
L 504 504 
L 504 0 
L 0 0 
L 0 504 
z
" style="fill: none; opacity: 0"/>
  </g>
  <g id="axes_1">
   <g id="patch_2">
    <path d="M 10.8 493.2 
L 493.2 493.2 
L 493.2 10.8 
L 10.8 10.8 
L 10.8 493.2 
z
" style="fill: none; opacity: 0"/>
   </g>
   <g id="LineCollection_1">
    <path d="M 339.3144 14.1768 
L 20.448 275.1552 
" clip-path="url(#pfd35012079)" style="fill: none; stroke: #000000"/>
    <path d="M 339.3144 14.1768 
L 287.2152 375.9768 
" clip-path="url(#pfd35012079)" style="fill: none; stroke: #000000"/>
    <path d="M 339.3144 14.1768 
L 388.5192 432.4176 
" clip-path="url(#pfd35012079)" style="fill: none; stroke: #000000"/>
    <path d="M 339.3144 14.1768 
L 151.1784 440.6184 
" clip-path="url(#pfd35012079)" style="fill: none; stroke: #000000"/>
    <path d="M 170.4744 152.6256 
L 147.3192 462.3264 
" clip-path="url(#pfd35012079)" style="fill: none; stroke: #000000"/>
    <path d="M 170.4744 152.6256 
L 151.1784 440.6184 
" clip-path="url(#pfd35012079)" style="fill: none; stroke: #000000"/>
    <path d="M 170.4744 152.6256 
L 287.2152 375.9768 
" clip-path="url(#pfd35012079)" style="fill: none; stroke: #000000"/>
    <path d="M 170.4744 152.6256 
L 264.5424 17.0712 
" clip-path="url(#pfd35012079)" style="fill: none; stroke: #000000"/>
    <path d="M 190.2528 203.76 
L 264.5424 17.0712 
" clip-path="url(#pfd35012079)" style="fill: none; stroke: #000000"/>
    <path d="M 190.2528 203.76 
L 147.3192 462.3264 
" clip-path="url(#pfd35012079)" style="fill: none; stroke: #000000"/>
    <path d="M 264.5424 17.0712 
L 20.448 275.1552 
" clip-path="url(#pfd35012079)" style="fill: none; stroke: #000000"/>
    <path d="M 264.5424 17.0712 
L 147.3192 462.3264 
" clip-path="url(#pfd35012079)" style="fill: none; stroke: #000000"/>
    <path d="M 264.5424 17.0712 
L 151.1784 440.6184 
" clip-path="url(#pfd35012079)" style="fill: none; stroke: #000000"/>
    <path d="M 264.5424 17.0712 
L 388.5192 432.4176 
" clip-path="url(#pfd35012079)" style="fill: none; stroke: #000000"/>
    <path d="M 147.3192 462.3264 
L 287.2152 375.9768 
" clip-path="url(#pfd35012079)" style="fill: none; stroke: #000000"/>
    <path d="M 388.5192 432.4176 
L 151.1784 440.6184 
" clip-path="url(#pfd35012079)" style="fill: none; stroke: #000000"/>
    <path d="M 388.5192 432.4176 
L 287.2152 375.9768 
" clip-path="url(#pfd35012079)" style="fill: none; stroke: #000000"/>
    <path d="M 287.2152 375.9768 
L 20.448 275.1552 
" clip-path="url(#pfd35012079)" style="fill: none; stroke: #000000"/>
   </g>
   <g id="text_1">
    <g id="patch_3">
     <path d="M 179.92118 154.76319 
L 189.768459 146.703617 
Q 192.090018 144.803521 190.189922 142.481962 
L 184.060134 134.992516 
Q 182.160038 132.670957 179.838479 134.571053 
L 169.9912 142.630626 
Q 167.669641 144.530722 169.569737 146.852281 
L 175.699526 154.341727 
Q 177.599622 156.663286 179.92118 154.76319 
z
" clip-path="url(#pfd35012079)" style="fill: #ffffff; stroke: #ffffff; stroke-linejoin: miter"/>
    </g>
    <g clip-path="url(#pfd35012079)">
     <!-- 10 -->
     <g transform="translate(176.703883 150.832259) rotate(-39.298846) scale(0.1 -0.1)">
      <defs>
       <path id="DejaVuSans-31" d="M 794 531 
L 1825 531 
L 1825 4091 
L 703 3866 
L 703 4441 
L 1819 4666 
L 2450 4666 
L 2450 531 
L 3481 531 
L 3481 0 
L 794 0 
L 794 531 
z
" transform="scale(0.015625)"/>
       <path id="DejaVuSans-30" d="M 2034 4250 
Q 1547 4250 1301 3770 
Q 1056 3291 1056 2328 
Q 1056 1369 1301 889 
Q 1547 409 2034 409 
Q 2525 409 2770 889 
Q 3016 1369 3016 2328 
Q 3016 3291 2770 3770 
Q 2525 4250 2034 4250 
z
M 2034 4750 
Q 2819 4750 3233 4129 
Q 3647 3509 3647 2328 
Q 3647 1150 3233 529 
Q 2819 -91 2034 -91 
Q 1250 -91 836 529 
Q 422 1150 422 2328 
Q 422 3509 836 4129 
Q 1250 4750 2034 4750 
z
" transform="scale(0.015625)"/>
      </defs>
      <use xlink:href="#DejaVuSans-31"/>
      <use xlink:href="#DejaVuSans-30" x="63.623047"/>
     </g>
    </g>
   </g>
   <g id="text_2">
    <g id="patch_4">
     <path d="M 320.117112 202.490753 
L 321.930804 189.895669 
Q 322.358393 186.926297 319.389022 186.498708 
L 309.809706 185.119286 
Q 306.840334 184.691697 306.412744 187.661068 
L 304.599052 200.256152 
Q 304.171463 203.225524 307.140834 203.653113 
L 316.720151 205.032535 
Q 319.689522 205.460124 320.117112 202.490753 
z
" clip-path="url(#pfd35012079)" style="fill: #ffffff; stroke: #ffffff; stroke-linejoin: miter"/>
    </g>
    <g clip-path="url(#pfd35012079)">
     <!-- 19 -->
     <g transform="translate(315.089285 201.766746) rotate(-81.805737) scale(0.1 -0.1)">
      <defs>
       <path id="DejaVuSans-39" d="M 703 97 
L 703 672 
Q 941 559 1184 500 
Q 1428 441 1663 441 
Q 2288 441 2617 861 
Q 2947 1281 2994 2138 
Q 2813 1869 2534 1725 
Q 2256 1581 1919 1581 
Q 1219 1581 811 2004 
Q 403 2428 403 3163 
Q 403 3881 828 4315 
Q 1253 4750 1959 4750 
Q 2769 4750 3195 4129 
Q 3622 3509 3622 2328 
Q 3622 1225 3098 567 
Q 2575 -91 1691 -91 
Q 1453 -91 1209 -44 
Q 966 3 703 97 
z
M 1959 2075 
Q 2384 2075 2632 2365 
Q 2881 2656 2881 3163 
Q 2881 3666 2632 3958 
Q 2384 4250 1959 4250 
Q 1534 4250 1286 3958 
Q 1038 3666 1038 3163 
Q 1038 2656 1286 2365 
Q 1534 2075 1959 2075 
z
" transform="scale(0.015625)"/>
      </defs>
      <use xlink:href="#DejaVuSans-31"/>
      <use xlink:href="#DejaVuSans-39" x="63.623047"/>
     </g>
    </g>
   </g>
   <g id="text_3">
    <g id="patch_5">
     <path d="M 355.387766 217.89198 
L 356.874571 230.529821 
Q 357.225095 233.509273 360.204546 233.158749 
L 369.816382 232.027945 
Q 372.795834 231.677421 372.44531 228.697969 
L 370.958505 216.060128 
Q 370.607982 213.080676 367.62853 213.4312 
L 358.016694 214.562004 
Q 355.037242 214.912528 355.387766 217.89198 
z
" clip-path="url(#pfd35012079)" style="fill: #ffffff; stroke: #ffffff; stroke-linejoin: miter"/>
    </g>
    <g clip-path="url(#pfd35012079)">
     <!-- 19 -->
     <g transform="translate(360.432661 217.298462) rotate(-276.709837) scale(0.1 -0.1)">
      <use xlink:href="#DejaVuSans-31"/>
      <use xlink:href="#DejaVuSans-39" x="63.623047"/>
     </g>
    </g>
   </g>
   <g id="text_4">
    <g id="patch_6">
     <path d="M 249.850272 236.383073 
L 254.986593 224.740744 
Q 256.197514 221.995991 253.452761 220.78507 
L 244.598072 216.87859 
Q 241.853318 215.667669 240.642398 218.412423 
L 235.506076 230.054752 
Q 234.295155 232.799505 237.039909 234.010426 
L 245.894598 237.916906 
Q 248.639351 239.127827 249.850272 236.383073 
z
" clip-path="url(#pfd35012079)" style="fill: #ffffff; stroke: #ffffff; stroke-linejoin: miter"/>
    </g>
    <g clip-path="url(#pfd35012079)">
     <!-- 13 -->
     <g transform="translate(245.202775 234.332707) rotate(-66.194056) scale(0.1 -0.1)">
      <defs>
       <path id="DejaVuSans-33" d="M 2597 2516 
Q 3050 2419 3304 2112 
Q 3559 1806 3559 1356 
Q 3559 666 3084 287 
Q 2609 -91 1734 -91 
Q 1441 -91 1130 -33 
Q 819 25 488 141 
L 488 750 
Q 750 597 1062 519 
Q 1375 441 1716 441 
Q 2309 441 2620 675 
Q 2931 909 2931 1356 
Q 2931 1769 2642 2001 
Q 2353 2234 1838 2234 
L 1294 2234 
L 1294 2753 
L 1863 2753 
Q 2328 2753 2575 2939 
Q 2822 3125 2822 3475 
Q 2822 3834 2567 4026 
Q 2313 4219 1838 4219 
Q 1578 4219 1281 4162 
Q 984 4106 628 3988 
L 628 4550 
Q 988 4650 1302 4700 
Q 1616 4750 1894 4750 
Q 2613 4750 3031 4423 
Q 3450 4097 3450 3541 
Q 3450 3153 3228 2886 
Q 3006 2619 2597 2516 
z
" transform="scale(0.015625)"/>
      </defs>
      <use xlink:href="#DejaVuSans-31"/>
      <use xlink:href="#DejaVuSans-33" x="63.623047"/>
     </g>
    </g>
   </g>
   <g id="text_5">
    <g id="patch_7">
     <path d="M 166.239599 314.406161 
L 167.188353 301.716579 
Q 167.412028 298.724929 164.420378 298.501255 
L 154.76919 297.779671 
Q 151.77754 297.555996 151.553866 300.547646 
L 150.605112 313.237228 
Q 150.381437 316.228878 153.373087 316.452552 
L 163.024275 317.174137 
Q 166.015925 317.397811 166.239599 314.406161 
z
" clip-path="url(#pfd35012079)" style="fill: #ffffff; stroke: #ffffff; stroke-linejoin: miter"/>
    </g>
    <g clip-path="url(#pfd35012079)">
     <!-- 20 -->
     <g transform="translate(161.17405 314.027429) rotate(-85.724159) scale(0.1 -0.1)">
      <defs>
       <path id="DejaVuSans-32" d="M 1228 531 
L 3431 531 
L 3431 0 
L 469 0 
L 469 531 
Q 828 903 1448 1529 
Q 2069 2156 2228 2338 
Q 2531 2678 2651 2914 
Q 2772 3150 2772 3378 
Q 2772 3750 2511 3984 
Q 2250 4219 1831 4219 
Q 1534 4219 1204 4116 
Q 875 4013 500 3803 
L 500 4441 
Q 881 4594 1212 4672 
Q 1544 4750 1819 4750 
Q 2544 4750 2975 4387 
Q 3406 4025 3406 3419 
Q 3406 3131 3298 2873 
Q 3191 2616 2906 2266 
Q 2828 2175 2409 1742 
Q 1991 1309 1228 531 
z
" transform="scale(0.015625)"/>
      </defs>
      <use xlink:href="#DejaVuSans-32"/>
      <use xlink:href="#DejaVuSans-30" x="63.623047"/>
     </g>
    </g>
   </g>
   <g id="text_6">
    <g id="patch_8">
     <path d="M 168.222458 303.496164 
L 169.073147 290.799631 
Q 169.273702 287.806342 166.280414 287.605787 
L 156.623939 286.958787 
Q 153.630651 286.758232 153.430095 289.75152 
L 152.579406 302.448053 
Q 152.378851 305.441342 155.37214 305.641898 
L 165.028614 306.288898 
Q 168.021903 306.489453 168.222458 303.496164 
z
" clip-path="url(#pfd35012079)" style="fill: #ffffff; stroke: #ffffff; stroke-linejoin: miter"/>
    </g>
    <g clip-path="url(#pfd35012079)">
     <!-- 20 -->
     <g transform="translate(163.154134 303.156578) rotate(-86.166816) scale(0.1 -0.1)">
      <use xlink:href="#DejaVuSans-32"/>
      <use xlink:href="#DejaVuSans-30" x="63.623047"/>
     </g>
    </g>
   </g>
   <g id="text_7">
    <g id="patch_9">
     <path d="M 220.424046 265.113397 
L 223.371284 270.75212 
Q 224.760944 273.41085 227.419674 272.02119 
L 235.996847 267.538088 
Q 238.655577 266.148428 237.265917 263.489698 
L 234.31868 257.850975 
Q 232.929019 255.192245 230.27029 256.581905 
L 221.693116 261.065007 
Q 219.034386 262.454667 220.424046 265.113397 
z
" clip-path="url(#pfd35012079)" style="fill: #ffffff; stroke: #ffffff; stroke-linejoin: miter"/>
    </g>
    <g clip-path="url(#pfd35012079)">
     <!-- 6 -->
     <g transform="translate(224.925885 262.760384) rotate(-297.595087) scale(0.1 -0.1)">
      <defs>
       <path id="DejaVuSans-36" d="M 2113 2584 
Q 1688 2584 1439 2293 
Q 1191 2003 1191 1497 
Q 1191 994 1439 701 
Q 1688 409 2113 409 
Q 2538 409 2786 701 
Q 3034 994 3034 1497 
Q 3034 2003 2786 2293 
Q 2538 2584 2113 2584 
z
M 3366 4563 
L 3366 3988 
Q 3128 4100 2886 4159 
Q 2644 4219 2406 4219 
Q 1781 4219 1451 3797 
Q 1122 3375 1075 2522 
Q 1259 2794 1537 2939 
Q 1816 3084 2150 3084 
Q 2853 3084 3261 2657 
Q 3669 2231 3669 1497 
Q 3669 778 3244 343 
Q 2819 -91 2113 -91 
Q 1303 -91 875 529 
Q 447 1150 447 2328 
Q 447 3434 972 4092 
Q 1497 4750 2381 4750 
Q 2619 4750 2861 4703 
Q 3103 4656 3366 4563 
z
" transform="scale(0.015625)"/>
      </defs>
      <use xlink:href="#DejaVuSans-36"/>
     </g>
    </g>
   </g>
   <g id="text_8">
    <g id="patch_10">
     <path d="M 220.320891 94.545331 
L 227.575691 84.090978 
Q 229.286057 81.626297 226.821376 79.915932 
L 218.870214 74.398221 
Q 216.405534 72.687856 214.695168 75.152536 
L 207.440368 85.606889 
Q 205.730003 88.07157 208.194683 89.781935 
L 216.145845 95.299646 
Q 218.610526 97.010011 220.320891 94.545331 
z
" clip-path="url(#pfd35012079)" style="fill: #ffffff; stroke: #ffffff; stroke-linejoin: miter"/>
    </g>
    <g clip-path="url(#pfd35012079)">
     <!-- 19 -->
     <g transform="translate(216.147622 91.64929) rotate(-55.241279) scale(0.1 -0.1)">
      <use xlink:href="#DejaVuSans-31"/>
      <use xlink:href="#DejaVuSans-39" x="63.623047"/>
     </g>
    </g>
   </g>
   <g id="text_9">
    <g id="patch_11">
     <path d="M 232.329416 119.22389 
L 237.034285 107.400615 
Q 238.143488 104.613203 235.356076 103.504 
L 226.363767 99.925665 
Q 223.576354 98.816462 222.467151 101.603874 
L 217.762282 113.427149 
Q 216.653079 116.214562 219.440492 117.323765 
L 228.432801 120.9021 
Q 231.220213 122.011303 232.329416 119.22389 
z
" clip-path="url(#pfd35012079)" style="fill: #ffffff; stroke: #ffffff; stroke-linejoin: miter"/>
    </g>
    <g clip-path="url(#pfd35012079)">
     <!-- 17 -->
     <g transform="translate(227.609688 117.345755) rotate(-68.300767) scale(0.1 -0.1)">
      <defs>
       <path id="DejaVuSans-37" d="M 525 4666 
L 3525 4666 
L 3525 4397 
L 1831 0 
L 1172 0 
L 2766 4134 
L 525 4134 
L 525 4666 
z
" transform="scale(0.015625)"/>
      </defs>
      <use xlink:href="#DejaVuSans-31"/>
      <use xlink:href="#DejaVuSans-37" x="63.623047"/>
     </g>
    </g>
   </g>
   <g id="text_10">
    <g id="patch_12">
     <path d="M 175.477003 340.603751 
L 177.561384 328.050624 
Q 178.05279 325.091145 175.09331 324.599738 
L 165.545905 323.014442 
Q 162.586426 322.523036 162.09502 325.482515 
L 160.010639 338.035642 
Q 159.519232 340.995121 162.478712 341.486527 
L 172.026117 343.071824 
Q 174.985597 343.56323 175.477003 340.603751 
z
" clip-path="url(#pfd35012079)" style="fill: #ffffff; stroke: #ffffff; stroke-linejoin: miter"/>
    </g>
    <g clip-path="url(#pfd35012079)">
     <!-- 12 -->
     <g transform="translate(170.465925 339.771687) rotate(-80.57235) scale(0.1 -0.1)">
      <use xlink:href="#DejaVuSans-31"/>
      <use xlink:href="#DejaVuSans-32" x="63.623047"/>
     </g>
    </g>
   </g>
   <g id="text_11">
    <g id="patch_13">
     <path d="M 143.81868 156.122086 
L 152.562559 146.877076 
Q 154.623984 144.697506 152.444414 142.63608 
L 145.41303 135.985837 
Q 143.23346 133.924412 141.172034 136.103982 
L 132.428156 145.348992 
Q 130.36673 147.528562 132.546301 149.589987 
L 139.577685 156.240231 
Q 141.757255 158.301656 143.81868 156.122086 
z
" clip-path="url(#pfd35012079)" style="fill: #ffffff; stroke: #ffffff; stroke-linejoin: miter"/>
    </g>
    <g clip-path="url(#pfd35012079)">
     <!-- 13 -->
     <g transform="translate(140.128168 152.631621) rotate(-46.595723) scale(0.1 -0.1)">
      <use xlink:href="#DejaVuSans-31"/>
      <use xlink:href="#DejaVuSans-33" x="63.623047"/>
     </g>
    </g>
   </g>
   <g id="text_12">
    <g id="patch_14">
     <path d="M 211.892006 247.846181 
L 215.131745 235.540503 
Q 215.895535 232.63936 212.994393 231.875571 
L 203.635187 229.411555 
Q 200.734045 228.647766 199.970256 231.548908 
L 196.730516 243.854586 
Q 195.966727 246.755728 198.867869 247.519517 
L 208.227074 249.983533 
Q 211.128216 250.747323 211.892006 247.846181 
z
" clip-path="url(#pfd35012079)" style="fill: #ffffff; stroke: #ffffff; stroke-linejoin: miter"/>
    </g>
    <g clip-path="url(#pfd35012079)">
     <!-- 10 -->
     <g transform="translate(206.979707 246.55291) rotate(-75.250326) scale(0.1 -0.1)">
      <use xlink:href="#DejaVuSans-31"/>
      <use xlink:href="#DejaVuSans-30" x="63.623047"/>
     </g>
    </g>
   </g>
   <g id="text_13">
    <g id="patch_15">
     <path d="M 213.787798 237.018037 
L 217.077882 224.725723 
Q 217.85354 221.827732 214.955549 221.052074 
L 205.606508 218.549768 
Q 202.708516 217.774109 201.932858 220.672101 
L 198.642774 232.964414 
Q 197.867116 235.862406 200.765107 236.638064 
L 210.114148 239.14037 
Q 213.01214 239.916028 213.787798 237.018037 
z
" clip-path="url(#pfd35012079)" style="fill: #ffffff; stroke: #ffffff; stroke-linejoin: miter"/>
    </g>
    <g clip-path="url(#pfd35012079)">
     <!-- 17 -->
     <g transform="translate(208.880834 235.70467) rotate(-75.015794) scale(0.1 -0.1)">
      <use xlink:href="#DejaVuSans-31"/>
      <use xlink:href="#DejaVuSans-37" x="63.623047"/>
     </g>
    </g>
   </g>
   <g id="text_14">
    <g id="patch_16">
     <path d="M 317.199143 220.888899 
L 320.838751 233.082294 
Q 321.696811 235.956965 324.571482 235.098904 
L 333.84529 232.330764 
Q 336.71996 231.472703 335.8619 228.598032 
L 332.222292 216.404637 
Q 331.364231 213.529967 328.48956 214.388027 
L 319.215753 217.156167 
Q 316.341082 218.014228 317.199143 220.888899 
z
" clip-path="url(#pfd35012079)" style="fill: #ffffff; stroke: #ffffff; stroke-linejoin: miter"/>
    </g>
    <g clip-path="url(#pfd35012079)">
     <!-- 20 -->
     <g transform="translate(322.066619 219.436005) rotate(-286.619845) scale(0.1 -0.1)">
      <use xlink:href="#DejaVuSans-32"/>
      <use xlink:href="#DejaVuSans-30" x="63.623047"/>
     </g>
    </g>
   </g>
   <g id="text_15">
    <g id="patch_17">
     <path d="M 218.676563 427.493789 
L 224.090747 424.15193 
Q 226.643604 422.576201 225.067875 420.023344 
L 219.984508 411.787722 
Q 218.408779 409.234865 215.855922 410.810594 
L 210.441738 414.152452 
Q 207.888881 415.728181 209.46461 418.281038 
L 214.547977 426.516661 
Q 216.123706 429.069518 218.676563 427.493789 
z
" clip-path="url(#pfd35012079)" style="fill: #ffffff; stroke: #ffffff; stroke-linejoin: miter"/>
    </g>
    <g clip-path="url(#pfd35012079)">
     <!-- 1 -->
     <g transform="translate(216.008493 423.171217) rotate(-31.684601) scale(0.1 -0.1)">
      <use xlink:href="#DejaVuSans-31"/>
     </g>
    </g>
   </g>
   <g id="text_16">
    <g id="patch_18">
     <path d="M 266.942972 444.462145 
L 273.301677 444.242434 
Q 276.299888 444.138837 276.196291 441.140626 
L 275.862084 431.468274 
Q 275.758487 428.470063 272.760276 428.57366 
L 266.401571 428.793371 
Q 263.40336 428.896968 263.506957 431.895178 
L 263.841164 441.567531 
Q 263.944761 444.565742 266.942972 444.462145 
z
" clip-path="url(#pfd35012079)" style="fill: #ffffff; stroke: #ffffff; stroke-linejoin: miter"/>
    </g>
    <g clip-path="url(#pfd35012079)">
     <!-- 9 -->
     <g transform="translate(266.767559 439.385487) rotate(-1.978945) scale(0.1 -0.1)">
      <use xlink:href="#DejaVuSans-39"/>
     </g>
    </g>
   </g>
   <g id="text_17">
    <g id="patch_19">
     <path d="M 328.494578 407.948925 
L 339.610731 414.14221 
Q 342.231434 415.602317 343.691541 412.981613 
L 348.401905 404.527113 
Q 349.862012 401.906409 347.241308 400.446302 
L 336.125155 394.253017 
Q 333.504451 392.792911 332.044345 395.413615 
L 327.333981 403.868115 
Q 325.873874 406.488819 328.494578 407.948925 
z
" clip-path="url(#pfd35012079)" style="fill: #ffffff; stroke: #ffffff; stroke-linejoin: miter"/>
    </g>
    <g clip-path="url(#pfd35012079)">
     <!-- 19 -->
     <g transform="translate(330.966873 403.511473) rotate(-330.875947) scale(0.1 -0.1)">
      <use xlink:href="#DejaVuSans-31"/>
      <use xlink:href="#DejaVuSans-39" x="63.623047"/>
     </g>
    </g>
   </g>
   <g id="text_18">
    <g id="patch_20">
     <path d="M 145.10786 330.649201 
L 157.01111 335.147898 
Q 159.817377 336.208494 160.877973 333.402227 
L 164.299502 324.349092 
Q 165.360098 321.542825 162.553831 320.482229 
L 150.650581 315.983532 
Q 147.844314 314.922936 146.783718 317.729203 
L 143.362189 326.782338 
Q 142.301593 329.588605 145.10786 330.649201 
z
" clip-path="url(#pfd35012079)" style="fill: #ffffff; stroke: #ffffff; stroke-linejoin: miter"/>
    </g>
    <g clip-path="url(#pfd35012079)">
     <!-- 14 -->
     <g transform="translate(146.903693 325.897548) rotate(-339.29649) scale(0.1 -0.1)">
      <defs>
       <path id="DejaVuSans-34" d="M 2419 4116 
L 825 1625 
L 2419 1625 
L 2419 4116 
z
M 2253 4666 
L 3047 4666 
L 3047 1625 
L 3713 1625 
L 3713 1100 
L 3047 1100 
L 3047 0 
L 2419 0 
L 2419 1100 
L 313 1100 
L 313 1709 
L 2253 4666 
z
" transform="scale(0.015625)"/>
      </defs>
      <use xlink:href="#DejaVuSans-31"/>
      <use xlink:href="#DejaVuSans-34" x="63.623047"/>
     </g>
    </g>
   </g>
   <g id="matplotlib.axis_1">
    <g id="xtick_1">
     <g id="line2d_1">
      <path d="M 10.8 493.2 
L 10.8 10.8 
" clip-path="url(#pfd35012079)" style="fill: none; stroke: #b0b0b0; stroke-opacity: 0.3; stroke-width: 0.8; stroke-linecap: square"/>
     </g>
    </g>
    <g id="xtick_2">
     <g id="line2d_2">
      <path d="M 59.04 493.2 
L 59.04 10.8 
" clip-path="url(#pfd35012079)" style="fill: none; stroke: #b0b0b0; stroke-opacity: 0.3; stroke-width: 0.8; stroke-linecap: square"/>
     </g>
    </g>
    <g id="xtick_3">
     <g id="line2d_3">
      <path d="M 107.28 493.2 
L 107.28 10.8 
" clip-path="url(#pfd35012079)" style="fill: none; stroke: #b0b0b0; stroke-opacity: 0.3; stroke-width: 0.8; stroke-linecap: square"/>
     </g>
    </g>
    <g id="xtick_4">
     <g id="line2d_4">
      <path d="M 155.52 493.2 
L 155.52 10.8 
" clip-path="url(#pfd35012079)" style="fill: none; stroke: #b0b0b0; stroke-opacity: 0.3; stroke-width: 0.8; stroke-linecap: square"/>
     </g>
    </g>
    <g id="xtick_5">
     <g id="line2d_5">
      <path d="M 203.76 493.2 
L 203.76 10.8 
" clip-path="url(#pfd35012079)" style="fill: none; stroke: #b0b0b0; stroke-opacity: 0.3; stroke-width: 0.8; stroke-linecap: square"/>
     </g>
    </g>
    <g id="xtick_6">
     <g id="line2d_6">
      <path d="M 252 493.2 
L 252 10.8 
" clip-path="url(#pfd35012079)" style="fill: none; stroke: #b0b0b0; stroke-opacity: 0.3; stroke-width: 0.8; stroke-linecap: square"/>
     </g>
    </g>
    <g id="xtick_7">
     <g id="line2d_7">
      <path d="M 300.24 493.2 
L 300.24 10.8 
" clip-path="url(#pfd35012079)" style="fill: none; stroke: #b0b0b0; stroke-opacity: 0.3; stroke-width: 0.8; stroke-linecap: square"/>
     </g>
    </g>
    <g id="xtick_8">
     <g id="line2d_8">
      <path d="M 348.48 493.2 
L 348.48 10.8 
" clip-path="url(#pfd35012079)" style="fill: none; stroke: #b0b0b0; stroke-opacity: 0.3; stroke-width: 0.8; stroke-linecap: square"/>
     </g>
    </g>
    <g id="xtick_9">
     <g id="line2d_9">
      <path d="M 396.72 493.2 
L 396.72 10.8 
" clip-path="url(#pfd35012079)" style="fill: none; stroke: #b0b0b0; stroke-opacity: 0.3; stroke-width: 0.8; stroke-linecap: square"/>
     </g>
    </g>
    <g id="xtick_10">
     <g id="line2d_10">
      <path d="M 444.96 493.2 
L 444.96 10.8 
" clip-path="url(#pfd35012079)" style="fill: none; stroke: #b0b0b0; stroke-opacity: 0.3; stroke-width: 0.8; stroke-linecap: square"/>
     </g>
    </g>
    <g id="xtick_11">
     <g id="line2d_11">
      <path d="M 493.2 493.2 
L 493.2 10.8 
" clip-path="url(#pfd35012079)" style="fill: none; stroke: #b0b0b0; stroke-opacity: 0.3; stroke-width: 0.8; stroke-linecap: square"/>
     </g>
    </g>
   </g>
   <g id="matplotlib.axis_2">
    <g id="ytick_1">
     <g id="line2d_12">
      <path d="M 10.8 493.2 
L 493.2 493.2 
" clip-path="url(#pfd35012079)" style="fill: none; stroke: #b0b0b0; stroke-opacity: 0.3; stroke-width: 0.8; stroke-linecap: square"/>
     </g>
    </g>
    <g id="ytick_2">
     <g id="line2d_13">
      <path d="M 10.8 444.96 
L 493.2 444.96 
" clip-path="url(#pfd35012079)" style="fill: none; stroke: #b0b0b0; stroke-opacity: 0.3; stroke-width: 0.8; stroke-linecap: square"/>
     </g>
    </g>
    <g id="ytick_3">
     <g id="line2d_14">
      <path d="M 10.8 396.72 
L 493.2 396.72 
" clip-path="url(#pfd35012079)" style="fill: none; stroke: #b0b0b0; stroke-opacity: 0.3; stroke-width: 0.8; stroke-linecap: square"/>
     </g>
    </g>
    <g id="ytick_4">
     <g id="line2d_15">
      <path d="M 10.8 348.48 
L 493.2 348.48 
" clip-path="url(#pfd35012079)" style="fill: none; stroke: #b0b0b0; stroke-opacity: 0.3; stroke-width: 0.8; stroke-linecap: square"/>
     </g>
    </g>
    <g id="ytick_5">
     <g id="line2d_16">
      <path d="M 10.8 300.24 
L 493.2 300.24 
" clip-path="url(#pfd35012079)" style="fill: none; stroke: #b0b0b0; stroke-opacity: 0.3; stroke-width: 0.8; stroke-linecap: square"/>
     </g>
    </g>
    <g id="ytick_6">
     <g id="line2d_17">
      <path d="M 10.8 252 
L 493.2 252 
" clip-path="url(#pfd35012079)" style="fill: none; stroke: #b0b0b0; stroke-opacity: 0.3; stroke-width: 0.8; stroke-linecap: square"/>
     </g>
    </g>
    <g id="ytick_7">
     <g id="line2d_18">
      <path d="M 10.8 203.76 
L 493.2 203.76 
" clip-path="url(#pfd35012079)" style="fill: none; stroke: #b0b0b0; stroke-opacity: 0.3; stroke-width: 0.8; stroke-linecap: square"/>
     </g>
    </g>
    <g id="ytick_8">
     <g id="line2d_19">
      <path d="M 10.8 155.52 
L 493.2 155.52 
" clip-path="url(#pfd35012079)" style="fill: none; stroke: #b0b0b0; stroke-opacity: 0.3; stroke-width: 0.8; stroke-linecap: square"/>
     </g>
    </g>
    <g id="ytick_9">
     <g id="line2d_20">
      <path d="M 10.8 107.28 
L 493.2 107.28 
" clip-path="url(#pfd35012079)" style="fill: none; stroke: #b0b0b0; stroke-opacity: 0.3; stroke-width: 0.8; stroke-linecap: square"/>
     </g>
    </g>
    <g id="ytick_10">
     <g id="line2d_21">
      <path d="M 10.8 59.04 
L 493.2 59.04 
" clip-path="url(#pfd35012079)" style="fill: none; stroke: #b0b0b0; stroke-opacity: 0.3; stroke-width: 0.8; stroke-linecap: square"/>
     </g>
    </g>
    <g id="ytick_11">
     <g id="line2d_22">
      <path d="M 10.8 10.8 
L 493.2 10.8 
" clip-path="url(#pfd35012079)" style="fill: none; stroke: #b0b0b0; stroke-opacity: 0.3; stroke-width: 0.8; stroke-linecap: square"/>
     </g>
    </g>
   </g>
   <g id="PathCollection_1">
    <defs>
     <path id="m5d5e78b71b" d="M 0 8.660254 
C 2.296726 8.660254 4.499694 7.747755 6.123724 6.123724 
C 7.747755 4.499694 8.660254 2.296726 8.660254 0 
C 8.660254 -2.296726 7.747755 -4.499694 6.123724 -6.123724 
C 4.499694 -7.747755 2.296726 -8.660254 0 -8.660254 
C -2.296726 -8.660254 -4.499694 -7.747755 -6.123724 -6.123724 
C -7.747755 -4.499694 -8.660254 -2.296726 -8.660254 0 
C -8.660254 2.296726 -7.747755 4.499694 -6.123724 6.123724 
C -4.499694 7.747755 -2.296726 8.660254 0 8.660254 
z
" style="stroke: #1f78b4"/>
    </defs>
    <g clip-path="url(#pfd35012079)">
     <use xlink:href="#m5d5e78b71b" x="339.3144" y="14.1768" style="fill: #1f78b4; stroke: #1f78b4"/>
     <use xlink:href="#m5d5e78b71b" x="170.4744" y="152.6256" style="fill: #1f78b4; stroke: #1f78b4"/>
     <use xlink:href="#m5d5e78b71b" x="190.2528" y="203.76" style="fill: #1f78b4; stroke: #1f78b4"/>
     <use xlink:href="#m5d5e78b71b" x="264.5424" y="17.0712" style="fill: #1f78b4; stroke: #1f78b4"/>
     <use xlink:href="#m5d5e78b71b" x="147.3192" y="462.3264" style="fill: #1f78b4; stroke: #1f78b4"/>
     <use xlink:href="#m5d5e78b71b" x="388.5192" y="432.4176" style="fill: #1f78b4; stroke: #1f78b4"/>
     <use xlink:href="#m5d5e78b71b" x="287.2152" y="375.9768" style="fill: #1f78b4; stroke: #1f78b4"/>
     <use xlink:href="#m5d5e78b71b" x="151.1784" y="440.6184" style="fill: #1f78b4; stroke: #1f78b4"/>
     <use xlink:href="#m5d5e78b71b" x="20.448" y="275.1552" style="fill: #1f78b4; stroke: #1f78b4"/>
    </g>
   </g>
   <g id="patch_21">
    <path d="M 10.8 493.2 
L 10.8 10.8 
" style="fill: none; stroke: #000000; stroke-width: 0.8; stroke-linejoin: miter; stroke-linecap: square"/>
   </g>
   <g id="patch_22">
    <path d="M 493.2 493.2 
L 493.2 10.8 
" style="fill: none; stroke: #000000; stroke-width: 0.8; stroke-linejoin: miter; stroke-linecap: square"/>
   </g>
   <g id="patch_23">
    <path d="M 10.8 493.2 
L 493.2 493.2 
" style="fill: none; stroke: #000000; stroke-width: 0.8; stroke-linejoin: miter; stroke-linecap: square"/>
   </g>
   <g id="patch_24">
    <path d="M 10.8 10.8 
L 493.2 10.8 
" style="fill: none; stroke: #000000; stroke-width: 0.8; stroke-linejoin: miter; stroke-linecap: square"/>
   </g>
   <g id="text_19">
    <g clip-path="url(#pfd35012079)">
     <!-- 0 -->
     <g transform="translate(335.4969 17.48805) scale(0.12 -0.12)">
      <use xlink:href="#DejaVuSans-30"/>
     </g>
    </g>
   </g>
   <g id="text_20">
    <g clip-path="url(#pfd35012079)">
     <!-- 1 -->
     <g transform="translate(166.6569 155.93685) scale(0.12 -0.12)">
      <use xlink:href="#DejaVuSans-31"/>
     </g>
    </g>
   </g>
   <g id="text_21">
    <g clip-path="url(#pfd35012079)">
     <!-- 2 -->
     <g transform="translate(186.4353 207.07125) scale(0.12 -0.12)">
      <use xlink:href="#DejaVuSans-32"/>
     </g>
    </g>
   </g>
   <g id="text_22">
    <g clip-path="url(#pfd35012079)">
     <!-- 3 -->
     <g transform="translate(260.7249 20.38245) scale(0.12 -0.12)">
      <use xlink:href="#DejaVuSans-33"/>
     </g>
    </g>
   </g>
   <g id="text_23">
    <g clip-path="url(#pfd35012079)">
     <!-- 4 -->
     <g transform="translate(143.5017 465.63765) scale(0.12 -0.12)">
      <use xlink:href="#DejaVuSans-34"/>
     </g>
    </g>
   </g>
   <g id="text_24">
    <g clip-path="url(#pfd35012079)">
     <!-- 5 -->
     <g transform="translate(384.7017 435.72885) scale(0.12 -0.12)">
      <defs>
       <path id="DejaVuSans-35" d="M 691 4666 
L 3169 4666 
L 3169 4134 
L 1269 4134 
L 1269 2991 
Q 1406 3038 1543 3061 
Q 1681 3084 1819 3084 
Q 2600 3084 3056 2656 
Q 3513 2228 3513 1497 
Q 3513 744 3044 326 
Q 2575 -91 1722 -91 
Q 1428 -91 1123 -41 
Q 819 9 494 109 
L 494 744 
Q 775 591 1075 516 
Q 1375 441 1709 441 
Q 2250 441 2565 725 
Q 2881 1009 2881 1497 
Q 2881 1984 2565 2268 
Q 2250 2553 1709 2553 
Q 1456 2553 1204 2497 
Q 953 2441 691 2322 
L 691 4666 
z
" transform="scale(0.015625)"/>
      </defs>
      <use xlink:href="#DejaVuSans-35"/>
     </g>
    </g>
   </g>
   <g id="text_25">
    <g clip-path="url(#pfd35012079)">
     <!-- 6 -->
     <g transform="translate(283.3977 379.28805) scale(0.12 -0.12)">
      <use xlink:href="#DejaVuSans-36"/>
     </g>
    </g>
   </g>
   <g id="text_26">
    <g clip-path="url(#pfd35012079)">
     <!-- 7 -->
     <g transform="translate(147.3609 443.92965) scale(0.12 -0.12)">
      <use xlink:href="#DejaVuSans-37"/>
     </g>
    </g>
   </g>
   <g id="text_27">
    <g clip-path="url(#pfd35012079)">
     <!-- 8 -->
     <g transform="translate(16.6305 278.46645) scale(0.12 -0.12)">
      <defs>
       <path id="DejaVuSans-38" d="M 2034 2216 
Q 1584 2216 1326 1975 
Q 1069 1734 1069 1313 
Q 1069 891 1326 650 
Q 1584 409 2034 409 
Q 2484 409 2743 651 
Q 3003 894 3003 1313 
Q 3003 1734 2745 1975 
Q 2488 2216 2034 2216 
z
M 1403 2484 
Q 997 2584 770 2862 
Q 544 3141 544 3541 
Q 544 4100 942 4425 
Q 1341 4750 2034 4750 
Q 2731 4750 3128 4425 
Q 3525 4100 3525 3541 
Q 3525 3141 3298 2862 
Q 3072 2584 2669 2484 
Q 3125 2378 3379 2068 
Q 3634 1759 3634 1313 
Q 3634 634 3220 271 
Q 2806 -91 2034 -91 
Q 1263 -91 848 271 
Q 434 634 434 1313 
Q 434 1759 690 2068 
Q 947 2378 1403 2484 
z
M 1172 3481 
Q 1172 3119 1398 2916 
Q 1625 2713 2034 2713 
Q 2441 2713 2670 2916 
Q 2900 3119 2900 3481 
Q 2900 3844 2670 4047 
Q 2441 4250 2034 4250 
Q 1625 4250 1398 4047 
Q 1172 3844 1172 3481 
z
" transform="scale(0.015625)"/>
      </defs>
      <use xlink:href="#DejaVuSans-38"/>
     </g>
    </g>
   </g>
  </g>
 </g>
 <defs>
  <clipPath id="pfd35012079">
   <rect x="10.8" y="10.8" width="482.4" height="482.4"/>
  </clipPath>
 </defs>
</svg>
