<?xml version="1.0" encoding="utf-8" standalone="no"?>
<!DOCTYPE svg PUBLIC "-//W3C//DTD SVG 1.1//EN"
  "http://www.w3.org/Graphics/SVG/1.1/DTD/svg11.dtd">
<svg xmlns:xlink="http://www.w3.org/1999/xlink" width="504pt" height="504pt" viewBox="0 0 504 504" xmlns="http://www.w3.org/2000/svg" version="1.1">
 <metadata>
  <rdf:RDF xmlns:dc="http://purl.org/dc/elements/1.1/" xmlns:cc="http://creativecommons.org/ns#" xmlns:rdf="http://www.w3.org/1999/02/22-rdf-syntax-ns#">
   <cc:Work>
    <dc:type rdf:resource="http://purl.org/dc/dcmitype/StillImage"/>
    <dc:date>2024-10-29T14:59:37.146229</dc:date>
    <dc:format>image/svg+xml</dc:format>
    <dc:creator>
     <cc:Agent>
      <dc:title>Matplotlib v3.9.2, https://matplotlib.org/</dc:title>
     </cc:Agent>
    </dc:creator>
   </cc:Work>
  </rdf:RDF>
 </metadata>
 <defs>
  <style type="text/css">*{stroke-linejoin: round; stroke-linecap: butt}</style>
 </defs>
 <g id="figure_1">
  <g id="patch_1">
   <path d="M 0 504 
L 504 504 
L 504 0 
L 0 0 
L 0 504 
z
" style="fill: none; opacity: 0"/>
  </g>
  <g id="axes_1">
   <g id="patch_2">
    <path d="M 10.8 493.2 
L 493.2 493.2 
L 493.2 10.8 
L 10.8 10.8 
L 10.8 493.2 
z
" style="fill: none; opacity: 0"/>
   </g>
   <g id="LineCollection_1">
    <path d="M 293.9688 37.332 
L 63.3816 483.552 
" clip-path="url(#pdfb37c0cbb)" style="fill: none; stroke: #000000"/>
    <path d="M 293.9688 37.332 
L 41.6736 115.4808 
" clip-path="url(#pdfb37c0cbb)" style="fill: none; stroke: #000000"/>
    <path d="M 293.9688 37.332 
L 486.9288 356.6808 
" clip-path="url(#pdfb37c0cbb)" style="fill: none; stroke: #000000"/>
    <path d="M 293.9688 37.332 
L 71.5824 216.7848 
" clip-path="url(#pdfb37c0cbb)" style="fill: none; stroke: #000000"/>
    <path d="M 293.9688 37.332 
L 212.4432 164.6856 
" clip-path="url(#pdfb37c0cbb)" style="fill: none; stroke: #000000"/>
    <path d="M 212.4432 164.6856 
L 489.8232 333.5256 
" clip-path="url(#pdfb37c0cbb)" style="fill: none; stroke: #000000"/>
    <path d="M 212.4432 164.6856 
L 71.5824 216.7848 
" clip-path="url(#pdfb37c0cbb)" style="fill: none; stroke: #000000"/>
    <path d="M 212.4432 164.6856 
L 41.6736 115.4808 
" clip-path="url(#pdfb37c0cbb)" style="fill: none; stroke: #000000"/>
    <path d="M 489.8232 333.5256 
L 41.6736 115.4808 
" clip-path="url(#pdfb37c0cbb)" style="fill: none; stroke: #000000"/>
    <path d="M 489.8232 333.5256 
L 71.5824 216.7848 
" clip-path="url(#pdfb37c0cbb)" style="fill: none; stroke: #000000"/>
    <path d="M 489.8232 333.5256 
L 351.3744 313.7472 
" clip-path="url(#pdfb37c0cbb)" style="fill: none; stroke: #000000"/>
    <path d="M 489.8232 333.5256 
L 300.24 239.4576 
" clip-path="url(#pdfb37c0cbb)" style="fill: none; stroke: #000000"/>
    <path d="M 351.3744 313.7472 
L 41.6736 115.4808 
" clip-path="url(#pdfb37c0cbb)" style="fill: none; stroke: #000000"/>
    <path d="M 351.3744 313.7472 
L 63.3816 483.552 
" clip-path="url(#pdfb37c0cbb)" style="fill: none; stroke: #000000"/>
    <path d="M 351.3744 313.7472 
L 300.24 239.4576 
" clip-path="url(#pdfb37c0cbb)" style="fill: none; stroke: #000000"/>
    <path d="M 351.3744 313.7472 
L 71.5824 216.7848 
" clip-path="url(#pdfb37c0cbb)" style="fill: none; stroke: #000000"/>
    <path d="M 351.3744 313.7472 
L 128.0232 352.8216 
" clip-path="url(#pdfb37c0cbb)" style="fill: none; stroke: #000000"/>
    <path d="M 300.24 239.4576 
L 128.0232 352.8216 
" clip-path="url(#pdfb37c0cbb)" style="fill: none; stroke: #000000"/>
    <path d="M 300.24 239.4576 
L 486.9288 356.6808 
" clip-path="url(#pdfb37c0cbb)" style="fill: none; stroke: #000000"/>
    <path d="M 486.9288 356.6808 
L 41.6736 115.4808 
" clip-path="url(#pdfb37c0cbb)" style="fill: none; stroke: #000000"/>
    <path d="M 41.6736 115.4808 
L 128.0232 352.8216 
" clip-path="url(#pdfb37c0cbb)" style="fill: none; stroke: #000000"/>
    <path d="M 71.5824 216.7848 
L 128.0232 352.8216 
" clip-path="url(#pdfb37c0cbb)" style="fill: none; stroke: #000000"/>
   </g>
   <g id="text_1">
    <g id="patch_3">
     <path d="M 182.718785 269.692542 
L 188.560619 258.387738 
Q 189.937869 255.722558 187.272689 254.345308 
L 178.674708 249.902244 
Q 176.009528 248.524994 174.632278 251.190174 
L 168.790444 262.494978 
Q 167.413195 265.160158 170.078375 266.537407 
L 178.676356 270.980472 
Q 181.341535 272.357722 182.718785 269.692542 
z
" clip-path="url(#pdfb37c0cbb)" style="fill: #ffffff; stroke: #ffffff; stroke-linejoin: miter"/>
    </g>
    <g clip-path="url(#pdfb37c0cbb)">
     <!-- 16 -->
     <g transform="translate(178.206025 267.360543) rotate(-62.672035) scale(0.1 -0.1)">
      <defs>
       <path id="DejaVuSans-31" d="M 794 531 
L 1825 531 
L 1825 4091 
L 703 3866 
L 703 4441 
L 1819 4666 
L 2450 4666 
L 2450 531 
L 3481 531 
L 3481 0 
L 794 0 
L 794 531 
z
" transform="scale(0.015625)"/>
       <path id="DejaVuSans-36" d="M 2113 2584 
Q 1688 2584 1439 2293 
Q 1191 2003 1191 1497 
Q 1191 994 1439 701 
Q 1688 409 2113 409 
Q 2538 409 2786 701 
Q 3034 994 3034 1497 
Q 3034 2003 2786 2293 
Q 2538 2584 2113 2584 
z
M 3366 4563 
L 3366 3988 
Q 3128 4100 2886 4159 
Q 2644 4219 2406 4219 
Q 1781 4219 1451 3797 
Q 1122 3375 1075 2522 
Q 1259 2794 1537 2939 
Q 1816 3084 2150 3084 
Q 2853 3084 3261 2657 
Q 3669 2231 3669 1497 
Q 3669 778 3244 343 
Q 2819 -91 2113 -91 
Q 1303 -91 875 529 
Q 447 1150 447 2328 
Q 447 3434 972 4092 
Q 1497 4750 2381 4750 
Q 2619 4750 2861 4703 
Q 3103 4656 3366 4563 
z
" transform="scale(0.015625)"/>
      </defs>
      <use xlink:href="#DejaVuSans-31"/>
      <use xlink:href="#DejaVuSans-36" x="63.623047"/>
     </g>
    </g>
   </g>
   <g id="text_2">
    <g id="patch_4">
     <path d="M 167.100235 84.836234 
L 173.17785 82.953683 
Q 176.043524 82.066037 175.155877 79.200364 
L 172.292293 69.955582 
Q 171.404647 67.089909 168.538973 67.977555 
L 162.461358 69.860105 
Q 159.595684 70.747752 160.483331 73.613425 
L 163.346915 82.858207 
Q 164.234562 85.72388 167.100235 84.836234 
z
" clip-path="url(#pdfb37c0cbb)" style="fill: #ffffff; stroke: #ffffff; stroke-linejoin: miter"/>
    </g>
    <g clip-path="url(#pdfb37c0cbb)">
     <!-- 1 -->
     <g transform="translate(165.597246 79.983992) rotate(-17.210442) scale(0.1 -0.1)">
      <use xlink:href="#DejaVuSans-31"/>
     </g>
    </g>
   </g>
   <g id="text_3">
    <g id="patch_5">
     <path d="M 380.449247 195.615188 
L 387.030045 206.50641 
Q 388.581511 209.074085 391.149186 207.52262 
L 399.432613 202.517528 
Q 402.000288 200.966063 400.448822 198.398388 
L 393.868024 187.507166 
Q 392.316558 184.939491 389.748883 186.490956 
L 381.465456 191.496048 
Q 378.897781 193.047513 380.449247 195.615188 
z
" clip-path="url(#pdfb37c0cbb)" style="fill: #ffffff; stroke: #ffffff; stroke-linejoin: miter"/>
    </g>
    <g clip-path="url(#pdfb37c0cbb)">
     <!-- 12 -->
     <g transform="translate(384.796909 192.988202) rotate(-301.141614) scale(0.1 -0.1)">
      <defs>
       <path id="DejaVuSans-32" d="M 1228 531 
L 3431 531 
L 3431 0 
L 469 0 
L 469 531 
Q 828 903 1448 1529 
Q 2069 2156 2228 2338 
Q 2531 2678 2651 2914 
Q 2772 3150 2772 3378 
Q 2772 3750 2511 3984 
Q 2250 4219 1831 4219 
Q 1534 4219 1204 4116 
Q 875 4013 500 3803 
L 500 4441 
Q 881 4594 1212 4672 
Q 1544 4750 1819 4750 
Q 2544 4750 2975 4387 
Q 3406 4025 3406 3419 
Q 3406 3131 3298 2873 
Q 3191 2616 2906 2266 
Q 2828 2175 2409 1742 
Q 1991 1309 1228 531 
z
" transform="scale(0.015625)"/>
      </defs>
      <use xlink:href="#DejaVuSans-31"/>
      <use xlink:href="#DejaVuSans-32" x="63.623047"/>
     </g>
    </g>
   </g>
   <g id="text_4">
    <g id="patch_6">
     <path d="M 185.222457 135.15691 
L 190.173924 131.161366 
Q 192.508605 129.277416 190.624654 126.942735 
L 184.546953 119.41096 
Q 182.663002 117.076279 180.328322 118.96023 
L 175.376855 122.955774 
Q 173.042174 124.839724 174.926125 127.174404 
L 181.003826 134.70618 
Q 182.887777 137.04086 185.222457 135.15691 
z
" clip-path="url(#pdfb37c0cbb)" style="fill: #ffffff; stroke: #ffffff; stroke-linejoin: miter"/>
    </g>
    <g clip-path="url(#pdfb37c0cbb)">
     <!-- 7 -->
     <g transform="translate(182.032497 131.203761) rotate(-38.901497) scale(0.1 -0.1)">
      <defs>
       <path id="DejaVuSans-37" d="M 525 4666 
L 3525 4666 
L 3525 4397 
L 1831 0 
L 1172 0 
L 2766 4134 
L 525 4134 
L 525 4666 
z
" transform="scale(0.015625)"/>
      </defs>
      <use xlink:href="#DejaVuSans-37"/>
     </g>
    </g>
   </g>
   <g id="text_5">
    <g id="patch_7">
     <path d="M 258.092952 107.914569 
L 261.523257 102.555986 
Q 263.14069 100.029346 260.61405 98.411913 
L 252.463003 93.194008 
Q 249.936362 91.576575 248.31893 94.103215 
L 244.888624 99.461799 
Q 243.271192 101.988439 245.797832 103.605872 
L 253.948879 108.823777 
Q 256.47552 110.441209 258.092952 107.914569 
z
" clip-path="url(#pdfb37c0cbb)" style="fill: #ffffff; stroke: #ffffff; stroke-linejoin: miter"/>
    </g>
    <g clip-path="url(#pdfb37c0cbb)">
     <!-- 7 -->
     <g transform="translate(253.814771 105.175885) rotate(-57.374599) scale(0.1 -0.1)">
      <use xlink:href="#DejaVuSans-37"/>
     </g>
    </g>
   </g>
   <g id="text_6">
    <g id="patch_8">
     <path d="M 344.339566 254.147441 
L 349.774404 257.455603 
Q 352.337 259.015444 353.896841 256.452848 
L 358.928952 248.185808 
Q 360.488793 245.623212 357.926197 244.063371 
L 352.491359 240.755209 
Q 349.928763 239.195368 348.368922 241.757964 
L 343.336811 250.025004 
Q 341.77697 252.5876 344.339566 254.147441 
z
" clip-path="url(#pdfb37c0cbb)" style="fill: #ffffff; stroke: #ffffff; stroke-linejoin: miter"/>
    </g>
    <g clip-path="url(#pdfb37c0cbb)">
     <!-- 3 -->
     <g transform="translate(346.980734 249.808379) rotate(-328.671307) scale(0.1 -0.1)">
      <defs>
       <path id="DejaVuSans-33" d="M 2597 2516 
Q 3050 2419 3304 2112 
Q 3559 1806 3559 1356 
Q 3559 666 3084 287 
Q 2609 -91 1734 -91 
Q 1441 -91 1130 -33 
Q 819 25 488 141 
L 488 750 
Q 750 597 1062 519 
Q 1375 441 1716 441 
Q 2309 441 2620 675 
Q 2931 909 2931 1356 
Q 2931 1769 2642 2001 
Q 2353 2234 1838 2234 
L 1294 2234 
L 1294 2753 
L 1863 2753 
Q 2328 2753 2575 2939 
Q 2822 3125 2822 3475 
Q 2822 3834 2567 4026 
Q 2313 4219 1838 4219 
Q 1578 4219 1281 4162 
Q 984 4106 628 3988 
L 628 4550 
Q 988 4650 1302 4700 
Q 1616 4750 1894 4750 
Q 2613 4750 3031 4423 
Q 3450 4097 3450 3541 
Q 3450 3153 3228 2886 
Q 3006 2619 2597 2516 
z
" transform="scale(0.015625)"/>
      </defs>
      <use xlink:href="#DejaVuSans-33"/>
     </g>
    </g>
   </g>
   <g id="text_7">
    <g id="patch_9">
     <path d="M 138.765621 200.294279 
L 150.700445 195.880029 
Q 153.514156 194.839342 152.473469 192.025631 
L 149.116167 182.948482 
Q 148.075479 180.134771 145.261768 181.175459 
L 133.326945 185.589709 
Q 130.513234 186.630396 131.553921 189.444107 
L 134.911223 198.521256 
Q 135.95191 201.334967 138.765621 200.294279 
z
" clip-path="url(#pdfb37c0cbb)" style="fill: #ffffff; stroke: #ffffff; stroke-linejoin: miter"/>
    </g>
    <g clip-path="url(#pdfb37c0cbb)">
     <!-- 10 -->
     <g transform="translate(137.003499 195.530022) rotate(-20.29757) scale(0.1 -0.1)">
      <defs>
       <path id="DejaVuSans-30" d="M 2034 4250 
Q 1547 4250 1301 3770 
Q 1056 3291 1056 2328 
Q 1056 1369 1301 889 
Q 1547 409 2034 409 
Q 2525 409 2770 889 
Q 3016 1369 3016 2328 
Q 3016 3291 2770 3770 
Q 2525 4250 2034 4250 
z
M 2034 4750 
Q 2819 4750 3233 4129 
Q 3647 3509 3647 2328 
Q 3647 1150 3233 529 
Q 2819 -91 2034 -91 
Q 1250 -91 836 529 
Q 422 1150 422 2328 
Q 422 3509 836 4129 
Q 1250 4750 2034 4750 
z
" transform="scale(0.015625)"/>
      </defs>
      <use xlink:href="#DejaVuSans-31"/>
      <use xlink:href="#DejaVuSans-30" x="63.623047"/>
     </g>
    </g>
   </g>
   <g id="text_8">
    <g id="patch_10">
     <path d="M 118.774793 145.854381 
L 131.002334 149.377571 
Q 133.885055 150.208185 134.715669 147.325464 
L 137.395266 138.025687 
Q 138.225881 135.142966 135.34316 134.312351 
L 123.115619 130.789162 
Q 120.232898 129.958547 119.402284 132.841268 
L 116.722687 142.141046 
Q 115.892072 145.023766 118.774793 145.854381 
z
" clip-path="url(#pdfb37c0cbb)" style="fill: #ffffff; stroke: #ffffff; stroke-linejoin: miter"/>
    </g>
    <g clip-path="url(#pdfb37c0cbb)">
     <!-- 19 -->
     <g transform="translate(120.181214 140.973274) rotate(-343.926426) scale(0.1 -0.1)">
      <defs>
       <path id="DejaVuSans-39" d="M 703 97 
L 703 672 
Q 941 559 1184 500 
Q 1428 441 1663 441 
Q 2288 441 2617 861 
Q 2947 1281 2994 2138 
Q 2813 1869 2534 1725 
Q 2256 1581 1919 1581 
Q 1219 1581 811 2004 
Q 403 2428 403 3163 
Q 403 3881 828 4315 
Q 1253 4750 1959 4750 
Q 2769 4750 3195 4129 
Q 3622 3509 3622 2328 
Q 3622 1225 3098 567 
Q 2575 -91 1691 -91 
Q 1453 -91 1209 -44 
Q 966 3 703 97 
z
M 1959 2075 
Q 2384 2075 2632 2365 
Q 2881 2656 2881 3163 
Q 2881 3666 2632 3958 
Q 2384 4250 1959 4250 
Q 1534 4250 1286 3958 
Q 1038 3666 1038 3163 
Q 1038 2656 1286 2365 
Q 1534 2075 1959 2075 
z
" transform="scale(0.015625)"/>
      </defs>
      <use xlink:href="#DejaVuSans-31"/>
      <use xlink:href="#DejaVuSans-39" x="63.623047"/>
     </g>
    </g>
   </g>
   <g id="text_9">
    <g id="patch_11">
     <path d="M 256.597065 228.768345 
L 268.03957 234.335635 
Q 270.737214 235.648159 272.049738 232.950515 
L 276.283995 224.247805 
Q 277.596519 221.550161 274.898876 220.237637 
L 263.456371 214.670348 
Q 260.758727 213.357823 259.446203 216.055467 
L 255.211946 224.758177 
Q 253.899422 227.455821 256.597065 228.768345 
z
" clip-path="url(#pdfb37c0cbb)" style="fill: #ffffff; stroke: #ffffff; stroke-linejoin: miter"/>
    </g>
    <g clip-path="url(#pdfb37c0cbb)">
     <!-- 19 -->
     <g transform="translate(258.81947 224.200616) rotate(-334.055009) scale(0.1 -0.1)">
      <use xlink:href="#DejaVuSans-31"/>
      <use xlink:href="#DejaVuSans-39" x="63.623047"/>
     </g>
    </g>
   </g>
   <g id="text_10">
    <g id="patch_12">
     <path d="M 272.465112 280.994574 
L 284.721615 284.415651 
Q 287.611164 285.222192 288.417704 282.332643 
L 291.019638 273.010838 
Q 291.826179 270.12129 288.93663 269.314749 
L 276.680128 265.893672 
Q 273.790579 265.087131 272.984038 267.97668 
L 270.382104 277.298485 
Q 269.575563 280.188034 272.465112 280.994574 
z
" clip-path="url(#pdfb37c0cbb)" style="fill: #ffffff; stroke: #ffffff; stroke-linejoin: miter"/>
    </g>
    <g clip-path="url(#pdfb37c0cbb)">
     <!-- 13 -->
     <g transform="translate(273.83077 276.101906) rotate(-344.404337) scale(0.1 -0.1)">
      <use xlink:href="#DejaVuSans-31"/>
      <use xlink:href="#DejaVuSans-33" x="63.623047"/>
     </g>
    </g>
   </g>
   <g id="text_11">
    <g id="patch_13">
     <path d="M 413.191776 330.496903 
L 425.788884 332.296489 
Q 428.758732 332.720754 429.182996 329.750905 
L 430.55169 320.17005 
Q 430.975954 317.200202 428.006105 316.775938 
L 415.408998 314.976351 
Q 412.43915 314.552087 412.014886 317.521935 
L 410.646192 327.10279 
Q 410.221928 330.072639 413.191776 330.496903 
z
" clip-path="url(#pdfb37c0cbb)" style="fill: #ffffff; stroke: #ffffff; stroke-linejoin: miter"/>
    </g>
    <g clip-path="url(#pdfb37c0cbb)">
     <!-- 20 -->
     <g transform="translate(413.910153 325.468269) rotate(-351.869898) scale(0.1 -0.1)">
      <use xlink:href="#DejaVuSans-32"/>
      <use xlink:href="#DejaVuSans-30" x="63.623047"/>
     </g>
    </g>
   </g>
   <g id="text_12">
    <g id="patch_14">
     <path d="M 385.850137 290.686911 
L 397.249073 296.342871 
Q 399.936445 297.6763 401.269874 294.988928 
L 405.571571 286.319355 
Q 406.904999 283.631983 404.217628 282.298554 
L 392.818692 276.642594 
Q 390.13132 275.309165 388.797891 277.996537 
L 384.496194 286.66611 
Q 383.162766 289.353482 385.850137 290.686911 
z
" clip-path="url(#pdfb37c0cbb)" style="fill: #ffffff; stroke: #ffffff; stroke-linejoin: miter"/>
    </g>
    <g clip-path="url(#pdfb37c0cbb)">
     <!-- 20 -->
     <g transform="translate(388.107938 286.136575) rotate(-333.610165) scale(0.1 -0.1)">
      <use xlink:href="#DejaVuSans-32"/>
      <use xlink:href="#DejaVuSans-30" x="63.623047"/>
     </g>
    </g>
   </g>
   <g id="text_13">
    <g id="patch_15">
     <path d="M 189.617672 219.500499 
L 194.976169 222.930939 
Q 197.502768 224.548435 199.120264 222.021835 
L 204.338374 213.870919 
Q 205.95587 211.34432 203.429271 209.726823 
L 198.070774 206.296384 
Q 195.544174 204.678888 193.926678 207.205487 
L 188.708568 215.356404 
Q 187.091072 217.883003 189.617672 219.500499 
z
" clip-path="url(#pdfb37c0cbb)" style="fill: #ffffff; stroke: #ffffff; stroke-linejoin: miter"/>
    </g>
    <g clip-path="url(#pdfb37c0cbb)">
     <!-- 6 -->
     <g transform="translate(192.356463 215.222387) rotate(-327.37316) scale(0.1 -0.1)">
      <use xlink:href="#DejaVuSans-36"/>
     </g>
    </g>
   </g>
   <g id="text_14">
    <g id="patch_16">
     <path d="M 205.879507 408.633355 
L 216.841006 402.170294 
Q 219.42525 400.646586 217.901542 398.062342 
L 212.985996 389.725465 
Q 211.462288 387.141222 208.878045 388.66493 
L 197.916546 395.127991 
Q 195.332302 396.651699 196.85601 399.235943 
L 201.771556 407.57282 
Q 203.295264 410.157063 205.879507 408.633355 
z
" clip-path="url(#pdfb37c0cbb)" style="fill: #ffffff; stroke: #ffffff; stroke-linejoin: miter"/>
    </g>
    <g clip-path="url(#pdfb37c0cbb)">
     <!-- 19 -->
     <g transform="translate(203.29952 404.257639) rotate(-30.524228) scale(0.1 -0.1)">
      <use xlink:href="#DejaVuSans-31"/>
      <use xlink:href="#DejaVuSans-39" x="63.623047"/>
     </g>
    </g>
   </g>
   <g id="text_15">
    <g id="patch_17">
     <path d="M 315.742966 275.806705 
L 322.957822 286.288665 
Q 324.65877 288.759854 327.129959 287.058906 
L 335.102118 281.571576 
Q 337.573307 279.870628 335.872359 277.399439 
L 328.657503 266.917479 
Q 326.956555 264.44629 324.485366 266.147238 
L 316.513207 271.634568 
Q 314.042018 273.335516 315.742966 275.806705 
z
" clip-path="url(#pdfb37c0cbb)" style="fill: #ffffff; stroke: #ffffff; stroke-linejoin: miter"/>
    </g>
    <g clip-path="url(#pdfb37c0cbb)">
     <!-- 17 -->
     <g transform="translate(319.927256 272.92661) rotate(-304.540091) scale(0.1 -0.1)">
      <use xlink:href="#DejaVuSans-31"/>
      <use xlink:href="#DejaVuSans-37" x="63.623047"/>
     </g>
    </g>
   </g>
   <g id="text_16">
    <g id="patch_18">
     <path d="M 202.900283 270.589686 
L 214.923751 274.75644 
Q 217.758361 275.738779 218.7407 272.904169 
L 221.909765 263.759601 
Q 222.892104 260.924992 220.057495 259.942653 
L 208.034027 255.775899 
Q 205.199417 254.79356 204.217078 257.62817 
L 201.048013 266.772738 
Q 200.065674 269.607347 202.900283 270.589686 
z
" clip-path="url(#pdfb37c0cbb)" style="fill: #ffffff; stroke: #ffffff; stroke-linejoin: miter"/>
    </g>
    <g clip-path="url(#pdfb37c0cbb)">
     <!-- 12 -->
     <g transform="translate(204.563608 265.790043) rotate(-340.886153) scale(0.1 -0.1)">
      <use xlink:href="#DejaVuSans-31"/>
      <use xlink:href="#DejaVuSans-32" x="63.623047"/>
     </g>
    </g>
   </g>
   <g id="text_17">
    <g id="patch_19">
     <path d="M 234.783377 342.102454 
L 247.318005 339.90957 
Q 250.273124 339.392584 249.756137 336.437466 
L 248.088318 326.90413 
Q 247.571332 323.949012 244.616214 324.465998 
L 232.081586 326.658881 
Q 229.126468 327.175867 229.643454 330.130986 
L 231.311273 339.664321 
Q 231.828259 342.61944 234.783377 342.102454 
z
" clip-path="url(#pdfb37c0cbb)" style="fill: #ffffff; stroke: #ffffff; stroke-linejoin: miter"/>
    </g>
    <g clip-path="url(#pdfb37c0cbb)">
     <!-- 13 -->
     <g transform="translate(233.908001 337.098761) rotate(-9.923244) scale(0.1 -0.1)">
      <use xlink:href="#DejaVuSans-31"/>
      <use xlink:href="#DejaVuSans-33" x="63.623047"/>
     </g>
    </g>
   </g>
   <g id="text_18">
    <g id="patch_20">
     <path d="M 213.126417 306.186275 
L 223.755301 299.189671 
Q 226.261128 297.540177 224.611634 295.03435 
L 219.290297 286.950447 
Q 217.640803 284.44462 215.134976 286.094114 
L 204.506093 293.090718 
Q 202.000266 294.740212 203.64976 297.246039 
L 208.971096 305.329942 
Q 210.62059 307.835769 213.126417 306.186275 
z
" clip-path="url(#pdfb37c0cbb)" style="fill: #ffffff; stroke: #ffffff; stroke-linejoin: miter"/>
    </g>
    <g clip-path="url(#pdfb37c0cbb)">
     <!-- 10 -->
     <g transform="translate(210.333446 301.943335) rotate(-33.355443) scale(0.1 -0.1)">
      <use xlink:href="#DejaVuSans-31"/>
      <use xlink:href="#DejaVuSans-30" x="63.623047"/>
     </g>
    </g>
   </g>
   <g id="text_19">
    <g id="patch_21">
     <path d="M 384.029296 301.325777 
L 394.805971 308.092527 
Q 397.346641 309.687831 398.941945 307.147161 
L 404.088464 298.950854 
Q 405.683768 296.410184 403.143098 294.81488 
L 392.366423 288.04813 
Q 389.825753 286.452826 388.230449 288.993496 
L 383.08393 297.189803 
Q 381.488626 299.730473 384.029296 301.325777 
z
" clip-path="url(#pdfb37c0cbb)" style="fill: #ffffff; stroke: #ffffff; stroke-linejoin: miter"/>
    </g>
    <g clip-path="url(#pdfb37c0cbb)">
     <!-- 17 -->
     <g transform="translate(386.730512 297.023841) rotate(-327.875002) scale(0.1 -0.1)">
      <use xlink:href="#DejaVuSans-31"/>
      <use xlink:href="#DejaVuSans-37" x="63.623047"/>
     </g>
    </g>
   </g>
   <g id="text_20">
    <g id="patch_22">
     <path d="M 254.974656 239.943868 
L 266.163435 246.004962 
Q 268.801261 247.433903 270.230203 244.796077 
L 274.840027 236.286341 
Q 276.268969 233.648515 273.631143 232.219573 
L 262.442364 226.15848 
Q 259.804538 224.729538 258.375597 227.367364 
L 253.765772 235.877101 
Q 252.33683 238.514927 254.974656 239.943868 
z
" clip-path="url(#pdfb37c0cbb)" style="fill: #ffffff; stroke: #ffffff; stroke-linejoin: miter"/>
    </g>
    <g clip-path="url(#pdfb37c0cbb)">
     <!-- 20 -->
     <g transform="translate(257.394182 235.477424) rotate(-331.555072) scale(0.1 -0.1)">
      <use xlink:href="#DejaVuSans-32"/>
      <use xlink:href="#DejaVuSans-30" x="63.623047"/>
     </g>
    </g>
   </g>
   <g id="text_21">
    <g id="patch_23">
     <path d="M 76.393938 233.841417 
L 78.569254 239.820498 
Q 79.594943 242.639711 82.414156 241.614022 
L 91.509055 238.305105 
Q 94.328268 237.279416 93.302578 234.460203 
L 91.127262 228.481122 
Q 90.101573 225.661909 87.28236 226.687599 
L 78.187462 229.996515 
Q 75.368249 231.022204 76.393938 233.841417 
z
" clip-path="url(#pdfb37c0cbb)" style="fill: #ffffff; stroke: #ffffff; stroke-linejoin: miter"/>
    </g>
    <g clip-path="url(#pdfb37c0cbb)">
     <!-- 1 -->
     <g transform="translate(81.167512 232.10469) rotate(-289.992456) scale(0.1 -0.1)">
      <use xlink:href="#DejaVuSans-31"/>
     </g>
    </g>
   </g>
   <g id="text_22">
    <g id="patch_24">
     <path d="M 91.343402 284.869683 
L 93.781636 290.746453 
Q 94.931294 293.517424 97.702266 292.367766 
L 106.641537 288.65892 
Q 109.412509 287.509261 108.262851 284.738289 
L 105.824616 278.86152 
Q 104.674958 276.090548 101.903986 277.240206 
L 92.964715 280.949053 
Q 90.193743 282.098711 91.343402 284.869683 
z
" clip-path="url(#pdfb37c0cbb)" style="fill: #ffffff; stroke: #ffffff; stroke-linejoin: miter"/>
    </g>
    <g clip-path="url(#pdfb37c0cbb)">
     <!-- 9 -->
     <g transform="translate(96.035292 282.923048) rotate(-292.53325) scale(0.1 -0.1)">
      <use xlink:href="#DejaVuSans-39"/>
     </g>
    </g>
   </g>
   <g id="matplotlib.axis_1">
    <g id="xtick_1">
     <g id="line2d_1">
      <path d="M 10.8 493.2 
L 10.8 10.8 
" clip-path="url(#pdfb37c0cbb)" style="fill: none; stroke: #b0b0b0; stroke-opacity: 0.3; stroke-width: 0.8; stroke-linecap: square"/>
     </g>
    </g>
    <g id="xtick_2">
     <g id="line2d_2">
      <path d="M 59.04 493.2 
L 59.04 10.8 
" clip-path="url(#pdfb37c0cbb)" style="fill: none; stroke: #b0b0b0; stroke-opacity: 0.3; stroke-width: 0.8; stroke-linecap: square"/>
     </g>
    </g>
    <g id="xtick_3">
     <g id="line2d_3">
      <path d="M 107.28 493.2 
L 107.28 10.8 
" clip-path="url(#pdfb37c0cbb)" style="fill: none; stroke: #b0b0b0; stroke-opacity: 0.3; stroke-width: 0.8; stroke-linecap: square"/>
     </g>
    </g>
    <g id="xtick_4">
     <g id="line2d_4">
      <path d="M 155.52 493.2 
L 155.52 10.8 
" clip-path="url(#pdfb37c0cbb)" style="fill: none; stroke: #b0b0b0; stroke-opacity: 0.3; stroke-width: 0.8; stroke-linecap: square"/>
     </g>
    </g>
    <g id="xtick_5">
     <g id="line2d_5">
      <path d="M 203.76 493.2 
L 203.76 10.8 
" clip-path="url(#pdfb37c0cbb)" style="fill: none; stroke: #b0b0b0; stroke-opacity: 0.3; stroke-width: 0.8; stroke-linecap: square"/>
     </g>
    </g>
    <g id="xtick_6">
     <g id="line2d_6">
      <path d="M 252 493.2 
L 252 10.8 
" clip-path="url(#pdfb37c0cbb)" style="fill: none; stroke: #b0b0b0; stroke-opacity: 0.3; stroke-width: 0.8; stroke-linecap: square"/>
     </g>
    </g>
    <g id="xtick_7">
     <g id="line2d_7">
      <path d="M 300.24 493.2 
L 300.24 10.8 
" clip-path="url(#pdfb37c0cbb)" style="fill: none; stroke: #b0b0b0; stroke-opacity: 0.3; stroke-width: 0.8; stroke-linecap: square"/>
     </g>
    </g>
    <g id="xtick_8">
     <g id="line2d_8">
      <path d="M 348.48 493.2 
L 348.48 10.8 
" clip-path="url(#pdfb37c0cbb)" style="fill: none; stroke: #b0b0b0; stroke-opacity: 0.3; stroke-width: 0.8; stroke-linecap: square"/>
     </g>
    </g>
    <g id="xtick_9">
     <g id="line2d_9">
      <path d="M 396.72 493.2 
L 396.72 10.8 
" clip-path="url(#pdfb37c0cbb)" style="fill: none; stroke: #b0b0b0; stroke-opacity: 0.3; stroke-width: 0.8; stroke-linecap: square"/>
     </g>
    </g>
    <g id="xtick_10">
     <g id="line2d_10">
      <path d="M 444.96 493.2 
L 444.96 10.8 
" clip-path="url(#pdfb37c0cbb)" style="fill: none; stroke: #b0b0b0; stroke-opacity: 0.3; stroke-width: 0.8; stroke-linecap: square"/>
     </g>
    </g>
    <g id="xtick_11">
     <g id="line2d_11">
      <path d="M 493.2 493.2 
L 493.2 10.8 
" clip-path="url(#pdfb37c0cbb)" style="fill: none; stroke: #b0b0b0; stroke-opacity: 0.3; stroke-width: 0.8; stroke-linecap: square"/>
     </g>
    </g>
   </g>
   <g id="matplotlib.axis_2">
    <g id="ytick_1">
     <g id="line2d_12">
      <path d="M 10.8 493.2 
L 493.2 493.2 
" clip-path="url(#pdfb37c0cbb)" style="fill: none; stroke: #b0b0b0; stroke-opacity: 0.3; stroke-width: 0.8; stroke-linecap: square"/>
     </g>
    </g>
    <g id="ytick_2">
     <g id="line2d_13">
      <path d="M 10.8 444.96 
L 493.2 444.96 
" clip-path="url(#pdfb37c0cbb)" style="fill: none; stroke: #b0b0b0; stroke-opacity: 0.3; stroke-width: 0.8; stroke-linecap: square"/>
     </g>
    </g>
    <g id="ytick_3">
     <g id="line2d_14">
      <path d="M 10.8 396.72 
L 493.2 396.72 
" clip-path="url(#pdfb37c0cbb)" style="fill: none; stroke: #b0b0b0; stroke-opacity: 0.3; stroke-width: 0.8; stroke-linecap: square"/>
     </g>
    </g>
    <g id="ytick_4">
     <g id="line2d_15">
      <path d="M 10.8 348.48 
L 493.2 348.48 
" clip-path="url(#pdfb37c0cbb)" style="fill: none; stroke: #b0b0b0; stroke-opacity: 0.3; stroke-width: 0.8; stroke-linecap: square"/>
     </g>
    </g>
    <g id="ytick_5">
     <g id="line2d_16">
      <path d="M 10.8 300.24 
L 493.2 300.24 
" clip-path="url(#pdfb37c0cbb)" style="fill: none; stroke: #b0b0b0; stroke-opacity: 0.3; stroke-width: 0.8; stroke-linecap: square"/>
     </g>
    </g>
    <g id="ytick_6">
     <g id="line2d_17">
      <path d="M 10.8 252 
L 493.2 252 
" clip-path="url(#pdfb37c0cbb)" style="fill: none; stroke: #b0b0b0; stroke-opacity: 0.3; stroke-width: 0.8; stroke-linecap: square"/>
     </g>
    </g>
    <g id="ytick_7">
     <g id="line2d_18">
      <path d="M 10.8 203.76 
L 493.2 203.76 
" clip-path="url(#pdfb37c0cbb)" style="fill: none; stroke: #b0b0b0; stroke-opacity: 0.3; stroke-width: 0.8; stroke-linecap: square"/>
     </g>
    </g>
    <g id="ytick_8">
     <g id="line2d_19">
      <path d="M 10.8 155.52 
L 493.2 155.52 
" clip-path="url(#pdfb37c0cbb)" style="fill: none; stroke: #b0b0b0; stroke-opacity: 0.3; stroke-width: 0.8; stroke-linecap: square"/>
     </g>
    </g>
    <g id="ytick_9">
     <g id="line2d_20">
      <path d="M 10.8 107.28 
L 493.2 107.28 
" clip-path="url(#pdfb37c0cbb)" style="fill: none; stroke: #b0b0b0; stroke-opacity: 0.3; stroke-width: 0.8; stroke-linecap: square"/>
     </g>
    </g>
    <g id="ytick_10">
     <g id="line2d_21">
      <path d="M 10.8 59.04 
L 493.2 59.04 
" clip-path="url(#pdfb37c0cbb)" style="fill: none; stroke: #b0b0b0; stroke-opacity: 0.3; stroke-width: 0.8; stroke-linecap: square"/>
     </g>
    </g>
    <g id="ytick_11">
     <g id="line2d_22">
      <path d="M 10.8 10.8 
L 493.2 10.8 
" clip-path="url(#pdfb37c0cbb)" style="fill: none; stroke: #b0b0b0; stroke-opacity: 0.3; stroke-width: 0.8; stroke-linecap: square"/>
     </g>
    </g>
   </g>
   <g id="PathCollection_1">
    <defs>
     <path id="ma8c1317036" d="M 0 8.660254 
C 2.296726 8.660254 4.499694 7.747755 6.123724 6.123724 
C 7.747755 4.499694 8.660254 2.296726 8.660254 0 
C 8.660254 -2.296726 7.747755 -4.499694 6.123724 -6.123724 
C 4.499694 -7.747755 2.296726 -8.660254 0 -8.660254 
C -2.296726 -8.660254 -4.499694 -7.747755 -6.123724 -6.123724 
C -7.747755 -4.499694 -8.660254 -2.296726 -8.660254 0 
C -8.660254 2.296726 -7.747755 4.499694 -6.123724 6.123724 
C -4.499694 7.747755 -2.296726 8.660254 0 8.660254 
z
" style="stroke: #1f78b4"/>
    </defs>
    <g clip-path="url(#pdfb37c0cbb)">
     <use xlink:href="#ma8c1317036" x="293.9688" y="37.332" style="fill: #1f78b4; stroke: #1f78b4"/>
     <use xlink:href="#ma8c1317036" x="212.4432" y="164.6856" style="fill: #1f78b4; stroke: #1f78b4"/>
     <use xlink:href="#ma8c1317036" x="489.8232" y="333.5256" style="fill: #1f78b4; stroke: #1f78b4"/>
     <use xlink:href="#ma8c1317036" x="351.3744" y="313.7472" style="fill: #1f78b4; stroke: #1f78b4"/>
     <use xlink:href="#ma8c1317036" x="300.24" y="239.4576" style="fill: #1f78b4; stroke: #1f78b4"/>
     <use xlink:href="#ma8c1317036" x="486.9288" y="356.6808" style="fill: #1f78b4; stroke: #1f78b4"/>
     <use xlink:href="#ma8c1317036" x="41.6736" y="115.4808" style="fill: #1f78b4; stroke: #1f78b4"/>
     <use xlink:href="#ma8c1317036" x="71.5824" y="216.7848" style="fill: #1f78b4; stroke: #1f78b4"/>
     <use xlink:href="#ma8c1317036" x="128.0232" y="352.8216" style="fill: #1f78b4; stroke: #1f78b4"/>
     <use xlink:href="#ma8c1317036" x="63.3816" y="483.552" style="fill: #1f78b4; stroke: #1f78b4"/>
    </g>
   </g>
   <g id="patch_25">
    <path d="M 10.8 493.2 
L 10.8 10.8 
" style="fill: none; stroke: #000000; stroke-width: 0.8; stroke-linejoin: miter; stroke-linecap: square"/>
   </g>
   <g id="patch_26">
    <path d="M 493.2 493.2 
L 493.2 10.8 
" style="fill: none; stroke: #000000; stroke-width: 0.8; stroke-linejoin: miter; stroke-linecap: square"/>
   </g>
   <g id="patch_27">
    <path d="M 10.8 493.2 
L 493.2 493.2 
" style="fill: none; stroke: #000000; stroke-width: 0.8; stroke-linejoin: miter; stroke-linecap: square"/>
   </g>
   <g id="patch_28">
    <path d="M 10.8 10.8 
L 493.2 10.8 
" style="fill: none; stroke: #000000; stroke-width: 0.8; stroke-linejoin: miter; stroke-linecap: square"/>
   </g>
   <g id="text_23">
    <g clip-path="url(#pdfb37c0cbb)">
     <!-- 0 -->
     <g transform="translate(290.1513 40.64325) scale(0.12 -0.12)">
      <use xlink:href="#DejaVuSans-30"/>
     </g>
    </g>
   </g>
   <g id="text_24">
    <g clip-path="url(#pdfb37c0cbb)">
     <!-- 1 -->
     <g transform="translate(208.6257 167.99685) scale(0.12 -0.12)">
      <use xlink:href="#DejaVuSans-31"/>
     </g>
    </g>
   </g>
   <g id="text_25">
    <g clip-path="url(#pdfb37c0cbb)">
     <!-- 2 -->
     <g transform="translate(486.0057 336.83685) scale(0.12 -0.12)">
      <use xlink:href="#DejaVuSans-32"/>
     </g>
    </g>
   </g>
   <g id="text_26">
    <g clip-path="url(#pdfb37c0cbb)">
     <!-- 3 -->
     <g transform="translate(347.5569 317.05845) scale(0.12 -0.12)">
      <use xlink:href="#DejaVuSans-33"/>
     </g>
    </g>
   </g>
   <g id="text_27">
    <g clip-path="url(#pdfb37c0cbb)">
     <!-- 4 -->
     <g transform="translate(296.4225 242.76885) scale(0.12 -0.12)">
      <defs>
       <path id="DejaVuSans-34" d="M 2419 4116 
L 825 1625 
L 2419 1625 
L 2419 4116 
z
M 2253 4666 
L 3047 4666 
L 3047 1625 
L 3713 1625 
L 3713 1100 
L 3047 1100 
L 3047 0 
L 2419 0 
L 2419 1100 
L 313 1100 
L 313 1709 
L 2253 4666 
z
" transform="scale(0.015625)"/>
      </defs>
      <use xlink:href="#DejaVuSans-34"/>
     </g>
    </g>
   </g>
   <g id="text_28">
    <g clip-path="url(#pdfb37c0cbb)">
     <!-- 5 -->
     <g transform="translate(483.1113 359.99205) scale(0.12 -0.12)">
      <defs>
       <path id="DejaVuSans-35" d="M 691 4666 
L 3169 4666 
L 3169 4134 
L 1269 4134 
L 1269 2991 
Q 1406 3038 1543 3061 
Q 1681 3084 1819 3084 
Q 2600 3084 3056 2656 
Q 3513 2228 3513 1497 
Q 3513 744 3044 326 
Q 2575 -91 1722 -91 
Q 1428 -91 1123 -41 
Q 819 9 494 109 
L 494 744 
Q 775 591 1075 516 
Q 1375 441 1709 441 
Q 2250 441 2565 725 
Q 2881 1009 2881 1497 
Q 2881 1984 2565 2268 
Q 2250 2553 1709 2553 
Q 1456 2553 1204 2497 
Q 953 2441 691 2322 
L 691 4666 
z
" transform="scale(0.015625)"/>
      </defs>
      <use xlink:href="#DejaVuSans-35"/>
     </g>
    </g>
   </g>
   <g id="text_29">
    <g clip-path="url(#pdfb37c0cbb)">
     <!-- 6 -->
     <g transform="translate(37.8561 118.79205) scale(0.12 -0.12)">
      <use xlink:href="#DejaVuSans-36"/>
     </g>
    </g>
   </g>
   <g id="text_30">
    <g clip-path="url(#pdfb37c0cbb)">
     <!-- 7 -->
     <g transform="translate(67.7649 220.09605) scale(0.12 -0.12)">
      <use xlink:href="#DejaVuSans-37"/>
     </g>
    </g>
   </g>
   <g id="text_31">
    <g clip-path="url(#pdfb37c0cbb)">
     <!-- 8 -->
     <g transform="translate(124.2057 356.13285) scale(0.12 -0.12)">
      <defs>
       <path id="DejaVuSans-38" d="M 2034 2216 
Q 1584 2216 1326 1975 
Q 1069 1734 1069 1313 
Q 1069 891 1326 650 
Q 1584 409 2034 409 
Q 2484 409 2743 651 
Q 3003 894 3003 1313 
Q 3003 1734 2745 1975 
Q 2488 2216 2034 2216 
z
M 1403 2484 
Q 997 2584 770 2862 
Q 544 3141 544 3541 
Q 544 4100 942 4425 
Q 1341 4750 2034 4750 
Q 2731 4750 3128 4425 
Q 3525 4100 3525 3541 
Q 3525 3141 3298 2862 
Q 3072 2584 2669 2484 
Q 3125 2378 3379 2068 
Q 3634 1759 3634 1313 
Q 3634 634 3220 271 
Q 2806 -91 2034 -91 
Q 1263 -91 848 271 
Q 434 634 434 1313 
Q 434 1759 690 2068 
Q 947 2378 1403 2484 
z
M 1172 3481 
Q 1172 3119 1398 2916 
Q 1625 2713 2034 2713 
Q 2441 2713 2670 2916 
Q 2900 3119 2900 3481 
Q 2900 3844 2670 4047 
Q 2441 4250 2034 4250 
Q 1625 4250 1398 4047 
Q 1172 3844 1172 3481 
z
" transform="scale(0.015625)"/>
      </defs>
      <use xlink:href="#DejaVuSans-38"/>
     </g>
    </g>
   </g>
   <g id="text_32">
    <g clip-path="url(#pdfb37c0cbb)">
     <!-- 9 -->
     <g transform="translate(59.5641 486.86325) scale(0.12 -0.12)">
      <use xlink:href="#DejaVuSans-39"/>
     </g>
    </g>
   </g>
  </g>
 </g>
 <defs>
  <clipPath id="pdfb37c0cbb">
   <rect x="10.8" y="10.8" width="482.4" height="482.4"/>
  </clipPath>
 </defs>
</svg>
