<?xml version="1.0" encoding="utf-8" standalone="no"?>
<!DOCTYPE svg PUBLIC "-//W3C//DTD SVG 1.1//EN"
  "http://www.w3.org/Graphics/SVG/1.1/DTD/svg11.dtd">
<svg xmlns:xlink="http://www.w3.org/1999/xlink" width="504pt" height="504pt" viewBox="0 0 504 504" xmlns="http://www.w3.org/2000/svg" version="1.1">
 <metadata>
  <rdf:RDF xmlns:dc="http://purl.org/dc/elements/1.1/" xmlns:cc="http://creativecommons.org/ns#" xmlns:rdf="http://www.w3.org/1999/02/22-rdf-syntax-ns#">
   <cc:Work>
    <dc:type rdf:resource="http://purl.org/dc/dcmitype/StillImage"/>
    <dc:date>2024-10-29T14:59:37.587858</dc:date>
    <dc:format>image/svg+xml</dc:format>
    <dc:creator>
     <cc:Agent>
      <dc:title>Matplotlib v3.9.2, https://matplotlib.org/</dc:title>
     </cc:Agent>
    </dc:creator>
   </cc:Work>
  </rdf:RDF>
 </metadata>
 <defs>
  <style type="text/css">*{stroke-linejoin: round; stroke-linecap: butt}</style>
 </defs>
 <g id="figure_1">
  <g id="patch_1">
   <path d="M 0 504 
L 504 504 
L 504 0 
L 0 0 
L 0 504 
z
" style="fill: none; opacity: 0"/>
  </g>
  <g id="axes_1">
   <g id="patch_2">
    <path d="M 10.8 493.2 
L 493.2 493.2 
L 493.2 10.8 
L 10.8 10.8 
L 10.8 493.2 
z
" style="fill: none; opacity: 0"/>
   </g>
   <g id="LineCollection_1">
    <path d="M 348.48 445.9248 
L 109.692 181.5696 
" clip-path="url(#p483d1ea208)" style="fill: none; stroke: #000000"/>
    <path d="M 348.48 445.9248 
L 76.8888 264.5424 
" clip-path="url(#p483d1ea208)" style="fill: none; stroke: #000000"/>
    <path d="M 348.48 445.9248 
L 375.9768 177.228 
" clip-path="url(#p483d1ea208)" style="fill: none; stroke: #000000"/>
    <path d="M 348.48 445.9248 
L 416.4984 324.8424 
" clip-path="url(#p483d1ea208)" style="fill: none; stroke: #000000"/>
    <path d="M 348.48 445.9248 
L 429.0408 143.46 
" clip-path="url(#p483d1ea208)" style="fill: none; stroke: #000000"/>
    <path d="M 348.48 445.9248 
L 480.6576 435.7944 
" clip-path="url(#p483d1ea208)" style="fill: none; stroke: #000000"/>
    <path d="M 348.48 445.9248 
L 361.5048 416.9808 
" clip-path="url(#p483d1ea208)" style="fill: none; stroke: #000000"/>
    <path d="M 348.48 445.9248 
L 36.3672 461.844 
" clip-path="url(#p483d1ea208)" style="fill: none; stroke: #000000"/>
    <path d="M 348.48 445.9248 
L 480.6576 442.0656 
" clip-path="url(#p483d1ea208)" style="fill: none; stroke: #000000"/>
    <path d="M 361.5048 416.9808 
L 480.6576 442.0656 
" clip-path="url(#p483d1ea208)" style="fill: none; stroke: #000000"/>
    <path d="M 361.5048 416.9808 
L 480.6576 435.7944 
" clip-path="url(#p483d1ea208)" style="fill: none; stroke: #000000"/>
    <path d="M 361.5048 416.9808 
L 375.9768 177.228 
" clip-path="url(#p483d1ea208)" style="fill: none; stroke: #000000"/>
    <path d="M 361.5048 416.9808 
L 109.692 282.3912 
" clip-path="url(#p483d1ea208)" style="fill: none; stroke: #000000"/>
    <path d="M 361.5048 416.9808 
L 429.0408 143.46 
" clip-path="url(#p483d1ea208)" style="fill: none; stroke: #000000"/>
    <path d="M 36.3672 461.844 
L 109.692 282.3912 
" clip-path="url(#p483d1ea208)" style="fill: none; stroke: #000000"/>
    <path d="M 36.3672 461.844 
L 480.6576 435.7944 
" clip-path="url(#p483d1ea208)" style="fill: none; stroke: #000000"/>
    <path d="M 36.3672 461.844 
L 416.4984 324.8424 
" clip-path="url(#p483d1ea208)" style="fill: none; stroke: #000000"/>
    <path d="M 36.3672 461.844 
L 429.0408 143.46 
" clip-path="url(#p483d1ea208)" style="fill: none; stroke: #000000"/>
    <path d="M 36.3672 461.844 
L 109.692 181.5696 
" clip-path="url(#p483d1ea208)" style="fill: none; stroke: #000000"/>
    <path d="M 36.3672 461.844 
L 76.8888 264.5424 
" clip-path="url(#p483d1ea208)" style="fill: none; stroke: #000000"/>
    <path d="M 109.692 282.3912 
L 416.4984 324.8424 
" clip-path="url(#p483d1ea208)" style="fill: none; stroke: #000000"/>
    <path d="M 109.692 282.3912 
L 76.8888 264.5424 
" clip-path="url(#p483d1ea208)" style="fill: none; stroke: #000000"/>
    <path d="M 109.692 282.3912 
L 480.6576 435.7944 
" clip-path="url(#p483d1ea208)" style="fill: none; stroke: #000000"/>
    <path d="M 109.692 282.3912 
L 375.9768 177.228 
" clip-path="url(#p483d1ea208)" style="fill: none; stroke: #000000"/>
    <path d="M 109.692 282.3912 
L 480.6576 442.0656 
" clip-path="url(#p483d1ea208)" style="fill: none; stroke: #000000"/>
    <path d="M 480.6576 442.0656 
L 429.0408 143.46 
" clip-path="url(#p483d1ea208)" style="fill: none; stroke: #000000"/>
    <path d="M 480.6576 442.0656 
L 375.9768 177.228 
" clip-path="url(#p483d1ea208)" style="fill: none; stroke: #000000"/>
    <path d="M 480.6576 442.0656 
L 109.692 181.5696 
" clip-path="url(#p483d1ea208)" style="fill: none; stroke: #000000"/>
    <path d="M 480.6576 442.0656 
L 480.6576 435.7944 
" clip-path="url(#p483d1ea208)" style="fill: none; stroke: #000000"/>
    <path d="M 480.6576 442.0656 
L 76.8888 264.5424 
" clip-path="url(#p483d1ea208)" style="fill: none; stroke: #000000"/>
    <path d="M 76.8888 264.5424 
L 416.4984 324.8424 
" clip-path="url(#p483d1ea208)" style="fill: none; stroke: #000000"/>
    <path d="M 76.8888 264.5424 
L 480.6576 435.7944 
" clip-path="url(#p483d1ea208)" style="fill: none; stroke: #000000"/>
    <path d="M 76.8888 264.5424 
L 375.9768 177.228 
" clip-path="url(#p483d1ea208)" style="fill: none; stroke: #000000"/>
    <path d="M 76.8888 264.5424 
L 109.692 181.5696 
" clip-path="url(#p483d1ea208)" style="fill: none; stroke: #000000"/>
    <path d="M 480.6576 435.7944 
L 375.9768 177.228 
" clip-path="url(#p483d1ea208)" style="fill: none; stroke: #000000"/>
    <path d="M 480.6576 435.7944 
L 109.692 181.5696 
" clip-path="url(#p483d1ea208)" style="fill: none; stroke: #000000"/>
    <path d="M 416.4984 324.8424 
L 429.0408 143.46 
" clip-path="url(#p483d1ea208)" style="fill: none; stroke: #000000"/>
    <path d="M 416.4984 324.8424 
L 375.9768 177.228 
" clip-path="url(#p483d1ea208)" style="fill: none; stroke: #000000"/>
    <path d="M 429.0408 143.46 
L 109.692 181.5696 
" clip-path="url(#p483d1ea208)" style="fill: none; stroke: #000000"/>
    <path d="M 429.0408 143.46 
L 375.9768 177.228 
" clip-path="url(#p483d1ea208)" style="fill: none; stroke: #000000"/>
    <path d="M 109.692 181.5696 
L 375.9768 177.228 
" clip-path="url(#p483d1ea208)" style="fill: none; stroke: #000000"/>
   </g>
   <g id="text_1">
    <g id="patch_3">
     <path d="M 219.002668 314.278915 
L 227.532366 323.721894 
Q 229.543297 325.948137 231.76954 323.937206 
L 238.951492 317.449859 
Q 241.177735 315.438928 239.166804 313.212686 
L 230.637105 303.769706 
Q 228.626174 301.543463 226.399931 303.554394 
L 219.217979 310.041741 
Q 216.991737 312.052672 219.002668 314.278915 
z
" clip-path="url(#p483d1ea208)" style="fill: #ffffff; stroke: #ffffff; stroke-linejoin: miter"/>
    </g>
    <g clip-path="url(#p483d1ea208)">
     <!-- 12 -->
     <g transform="translate(222.772207 310.873948) rotate(-312.09102) scale(0.1 -0.1)">
      <defs>
       <path id="DejaVuSans-31" d="M 794 531 
L 1825 531 
L 1825 4091 
L 703 3866 
L 703 4441 
L 1819 4666 
L 2450 4666 
L 2450 531 
L 3481 531 
L 3481 0 
L 794 0 
L 794 531 
z
" transform="scale(0.015625)"/>
       <path id="DejaVuSans-32" d="M 1228 531 
L 3431 531 
L 3431 0 
L 469 0 
L 469 531 
Q 828 903 1448 1529 
Q 2069 2156 2228 2338 
Q 2531 2678 2651 2914 
Q 2772 3150 2772 3378 
Q 2772 3750 2511 3984 
Q 2250 4219 1831 4219 
Q 1534 4219 1204 4116 
Q 875 4013 500 3803 
L 500 4441 
Q 881 4594 1212 4672 
Q 1544 4750 1819 4750 
Q 2544 4750 2975 4387 
Q 3406 4025 3406 3419 
Q 3406 3131 3298 2873 
Q 3191 2616 2906 2266 
Q 2828 2175 2409 1742 
Q 1991 1309 1228 531 
z
" transform="scale(0.015625)"/>
      </defs>
      <use xlink:href="#DejaVuSans-31"/>
      <use xlink:href="#DejaVuSans-32" x="63.623047"/>
     </g>
    </g>
   </g>
   <g id="text_2">
    <g id="patch_4">
     <path d="M 203.04113 358.219867 
L 213.623183 365.2871 
Q 216.11797 366.953245 217.784115 364.458458 
L 223.159169 356.410173 
Q 224.825314 353.915386 222.330527 352.249241 
L 211.748474 345.182008 
Q 209.253688 343.515863 207.587542 346.01065 
L 202.212488 354.058935 
Q 200.546343 356.553722 203.04113 358.219867 
z
" clip-path="url(#p483d1ea208)" style="fill: #ffffff; stroke: #ffffff; stroke-linejoin: miter"/>
    </g>
    <g clip-path="url(#p483d1ea208)">
     <!-- 12 -->
     <g transform="translate(205.862296 353.995622) rotate(-326.262988) scale(0.1 -0.1)">
      <use xlink:href="#DejaVuSans-31"/>
      <use xlink:href="#DejaVuSans-32" x="63.623047"/>
     </g>
    </g>
   </g>
   <g id="text_3">
    <g id="patch_5">
     <path d="M 369.702793 315.539978 
L 370.35051 309.210533 
Q 370.655917 306.226119 367.671503 305.920712 
L 358.043659 304.935457 
Q 355.059245 304.63005 354.753839 307.614464 
L 354.106122 313.943909 
Q 353.800715 316.928323 356.785129 317.23373 
L 366.412973 318.218985 
Q 369.397387 318.524392 369.702793 315.539978 
z
" clip-path="url(#p483d1ea208)" style="fill: #ffffff; stroke: #ffffff; stroke-linejoin: miter"/>
    </g>
    <g clip-path="url(#p483d1ea208)">
     <!-- 1 -->
     <g transform="translate(364.649497 315.022854) rotate(-84.157037) scale(0.1 -0.1)">
      <use xlink:href="#DejaVuSans-31"/>
     </g>
    </g>
   </g>
   <g id="text_4">
    <g id="patch_6">
     <path d="M 387.765496 391.996762 
L 390.881635 386.449593 
Q 392.350934 383.834032 389.735373 382.364733 
L 381.297464 377.624712 
Q 378.681903 376.155413 377.212603 378.770974 
L 374.096465 384.318143 
Q 372.627165 386.933704 375.242726 388.403003 
L 383.680635 393.143024 
Q 386.296196 394.612323 387.765496 391.996762 
z
" clip-path="url(#p483d1ea208)" style="fill: #ffffff; stroke: #ffffff; stroke-linejoin: miter"/>
    </g>
    <g clip-path="url(#p483d1ea208)">
     <!-- 1 -->
     <g transform="translate(383.336751 389.508902) rotate(-60.67477) scale(0.1 -0.1)">
      <use xlink:href="#DejaVuSans-31"/>
     </g>
    </g>
   </g>
   <g id="text_5">
    <g id="patch_7">
     <path d="M 395.516354 299.784994 
L 397.153901 293.636836 
Q 397.926026 290.737901 395.027091 289.965777 
L 385.675006 287.474871 
Q 382.776071 286.702746 382.003947 289.601681 
L 380.366399 295.749839 
Q 379.594275 298.648774 382.493209 299.420898 
L 391.845294 301.911804 
Q 394.744229 302.683929 395.516354 299.784994 
z
" clip-path="url(#p483d1ea208)" style="fill: #ffffff; stroke: #ffffff; stroke-linejoin: miter"/>
    </g>
    <g clip-path="url(#p483d1ea208)">
     <!-- 7 -->
     <g transform="translate(390.607793 298.47761) rotate(-75.085647) scale(0.1 -0.1)">
      <defs>
       <path id="DejaVuSans-37" d="M 525 4666 
L 3525 4666 
L 3525 4397 
L 1831 0 
L 1172 0 
L 2766 4134 
L 525 4134 
L 525 4666 
z
" transform="scale(0.015625)"/>
      </defs>
      <use xlink:href="#DejaVuSans-37"/>
     </g>
    </g>
   </g>
   <g id="text_6">
    <g id="patch_8">
     <path d="M 408.823326 449.161999 
L 421.511116 448.189577 
Q 424.502344 447.960322 424.273089 444.969095 
L 423.533504 435.31927 
Q 423.30425 432.328042 420.313022 432.557297 
L 407.625232 433.529719 
Q 404.634004 433.758974 404.863259 436.750201 
L 405.602844 446.400026 
Q 405.832099 449.391254 408.823326 449.161999 
z
" clip-path="url(#p483d1ea208)" style="fill: #ffffff; stroke: #ffffff; stroke-linejoin: miter"/>
    </g>
    <g clip-path="url(#p483d1ea208)">
     <!-- 18 -->
     <g transform="translate(408.435146 444.097165) rotate(-4.382714) scale(0.1 -0.1)">
      <defs>
       <path id="DejaVuSans-38" d="M 2034 2216 
Q 1584 2216 1326 1975 
Q 1069 1734 1069 1313 
Q 1069 891 1326 650 
Q 1584 409 2034 409 
Q 2484 409 2743 651 
Q 3003 894 3003 1313 
Q 3003 1734 2745 1975 
Q 2488 2216 2034 2216 
z
M 1403 2484 
Q 997 2584 770 2862 
Q 544 3141 544 3541 
Q 544 4100 942 4425 
Q 1341 4750 2034 4750 
Q 2731 4750 3128 4425 
Q 3525 4100 3525 3541 
Q 3525 3141 3298 2862 
Q 3072 2584 2669 2484 
Q 3125 2378 3379 2068 
Q 3634 1759 3634 1313 
Q 3634 634 3220 271 
Q 2806 -91 2034 -91 
Q 1263 -91 848 271 
Q 434 634 434 1313 
Q 434 1759 690 2068 
Q 947 2378 1403 2484 
z
M 1172 3481 
Q 1172 3119 1398 2916 
Q 1625 2713 2034 2713 
Q 2441 2713 2670 2916 
Q 2900 3119 2900 3481 
Q 2900 3844 2670 4047 
Q 2441 4250 2034 4250 
Q 1625 4250 1398 4047 
Q 1172 3844 1172 3481 
z
" transform="scale(0.015625)"/>
      </defs>
      <use xlink:href="#DejaVuSans-31"/>
      <use xlink:href="#DejaVuSans-38" x="63.623047"/>
     </g>
    </g>
   </g>
   <g id="text_7">
    <g id="patch_9">
     <path d="M 360.835853 437.570022 
L 363.446799 431.767921 
Q 364.677893 429.032157 361.942128 427.801063 
L 353.116438 423.829502 
Q 350.380673 422.598408 349.149579 425.334173 
L 346.538634 431.136273 
Q 345.30754 433.872038 348.043304 435.103132 
L 356.868995 439.074692 
Q 359.604759 440.305786 360.835853 437.570022 
z
" clip-path="url(#p483d1ea208)" style="fill: #ffffff; stroke: #ffffff; stroke-linejoin: miter"/>
    </g>
    <g clip-path="url(#p483d1ea208)">
     <!-- 1 -->
     <g transform="translate(356.203577 435.485498) rotate(-65.772255) scale(0.1 -0.1)">
      <use xlink:href="#DejaVuSans-31"/>
     </g>
    </g>
   </g>
   <g id="text_8">
    <g id="patch_10">
     <path d="M 186.464471 462.037596 
L 199.172952 461.389404 
Q 202.169057 461.236589 202.016242 458.240484 
L 201.523253 448.574923 
Q 201.370438 445.578817 198.374333 445.731633 
L 185.665852 446.379824 
Q 182.669747 446.532639 182.822562 449.528745 
L 183.315551 459.194306 
Q 183.468366 462.190411 186.464471 462.037596 
z
" clip-path="url(#p483d1ea208)" style="fill: #ffffff; stroke: #ffffff; stroke-linejoin: miter"/>
    </g>
    <g clip-path="url(#p483d1ea208)">
     <!-- 19 -->
     <g transform="translate(186.20572 456.964503) rotate(-2.91982) scale(0.1 -0.1)">
      <defs>
       <path id="DejaVuSans-39" d="M 703 97 
L 703 672 
Q 941 559 1184 500 
Q 1428 441 1663 441 
Q 2288 441 2617 861 
Q 2947 1281 2994 2138 
Q 2813 1869 2534 1725 
Q 2256 1581 1919 1581 
Q 1219 1581 811 2004 
Q 403 2428 403 3163 
Q 403 3881 828 4315 
Q 1253 4750 1959 4750 
Q 2769 4750 3195 4129 
Q 3622 3509 3622 2328 
Q 3622 1225 3098 567 
Q 2575 -91 1691 -91 
Q 1453 -91 1209 -44 
Q 966 3 703 97 
z
M 1959 2075 
Q 2384 2075 2632 2365 
Q 2881 2656 2881 3163 
Q 2881 3666 2632 3958 
Q 2384 4250 1959 4250 
Q 1534 4250 1286 3958 
Q 1038 3666 1038 3163 
Q 1038 2656 1286 2365 
Q 1534 2075 1959 2075 
z
" transform="scale(0.015625)"/>
      </defs>
      <use xlink:href="#DejaVuSans-31"/>
      <use xlink:href="#DejaVuSans-39" x="63.623047"/>
     </g>
    </g>
   </g>
   <g id="text_9">
    <g id="patch_11">
     <path d="M 408.438803 452.016581 
L 421.158383 451.645206 
Q 424.157105 451.557653 424.069551 448.55893 
L 423.787099 438.884928 
Q 423.699545 435.886206 420.700823 435.97376 
L 407.981243 436.345134 
Q 404.982521 436.432688 405.070075 439.43141 
L 405.352527 449.105413 
Q 405.440081 452.104135 408.438803 452.016581 
z
" clip-path="url(#p483d1ea208)" style="fill: #ffffff; stroke: #ffffff; stroke-linejoin: miter"/>
    </g>
    <g clip-path="url(#p483d1ea208)">
     <!-- 12 -->
     <g transform="translate(408.290555 446.939057) rotate(-1.672394) scale(0.1 -0.1)">
      <use xlink:href="#DejaVuSans-31"/>
      <use xlink:href="#DejaVuSans-32" x="63.623047"/>
     </g>
    </g>
   </g>
   <g id="text_10">
    <g id="patch_12">
     <path d="M 413.241123 435.883556 
L 425.693169 438.505039 
Q 428.628819 439.12307 429.24685 436.187421 
L 431.240645 426.716894 
Q 431.858677 423.781244 428.923027 423.163213 
L 416.470981 420.54173 
Q 413.535332 419.923698 412.917301 422.859348 
L 410.923505 432.329875 
Q 410.305474 435.265524 413.241123 435.883556 
z
" clip-path="url(#p483d1ea208)" style="fill: #ffffff; stroke: #ffffff; stroke-linejoin: miter"/>
    </g>
    <g clip-path="url(#p483d1ea208)">
     <!-- 17 -->
     <g transform="translate(414.287592 430.912828) rotate(-348.111342) scale(0.1 -0.1)">
      <use xlink:href="#DejaVuSans-31"/>
      <use xlink:href="#DejaVuSans-37" x="63.623047"/>
     </g>
    </g>
   </g>
   <g id="text_11">
    <g id="patch_13">
     <path d="M 413.574018 433.138433 
L 426.143301 435.123057 
Q 429.10659 435.590945 429.574478 432.627656 
L 431.083903 423.067962 
Q 431.551791 420.104673 428.588502 419.636786 
L 416.019218 417.652162 
Q 413.055929 417.184274 412.588042 420.147563 
L 411.078616 429.707257 
Q 410.610729 432.670545 413.574018 433.138433 
z
" clip-path="url(#p483d1ea208)" style="fill: #ffffff; stroke: #ffffff; stroke-linejoin: miter"/>
    </g>
    <g clip-path="url(#p483d1ea208)">
     <!-- 14 -->
     <g transform="translate(414.366259 428.120906) rotate(-351.027373) scale(0.1 -0.1)">
      <defs>
       <path id="DejaVuSans-34" d="M 2419 4116 
L 825 1625 
L 2419 1625 
L 2419 4116 
z
M 2253 4666 
L 3047 4666 
L 3047 1625 
L 3713 1625 
L 3713 1100 
L 3047 1100 
L 3047 0 
L 2419 0 
L 2419 1100 
L 313 1100 
L 313 1709 
L 2253 4666 
z
" transform="scale(0.015625)"/>
      </defs>
      <use xlink:href="#DejaVuSans-31"/>
      <use xlink:href="#DejaVuSans-34" x="63.623047"/>
     </g>
    </g>
   </g>
   <g id="text_12">
    <g id="patch_14">
     <path d="M 376.182305 303.926978 
L 376.949018 291.225098 
Q 377.129776 288.230548 374.135226 288.049791 
L 364.474685 287.466659 
Q 361.480135 287.285902 361.299378 290.280451 
L 360.532665 302.982332 
Q 360.351907 305.976882 363.346457 306.157639 
L 373.006998 306.74077 
Q 376.001548 306.921528 376.182305 303.926978 
z
" clip-path="url(#p483d1ea208)" style="fill: #ffffff; stroke: #ffffff; stroke-linejoin: miter"/>
    </g>
    <g clip-path="url(#p483d1ea208)">
     <!-- 10 -->
     <g transform="translate(371.111846 303.620915) rotate(-86.545694) scale(0.1 -0.1)">
      <defs>
       <path id="DejaVuSans-30" d="M 2034 4250 
Q 1547 4250 1301 3770 
Q 1056 3291 1056 2328 
Q 1056 1369 1301 889 
Q 1547 409 2034 409 
Q 2525 409 2770 889 
Q 3016 1369 3016 2328 
Q 3016 3291 2770 3770 
Q 2525 4250 2034 4250 
z
M 2034 4750 
Q 2819 4750 3233 4129 
Q 3647 3509 3647 2328 
Q 3647 1150 3233 529 
Q 2819 -91 2034 -91 
Q 1250 -91 836 529 
Q 422 1150 422 2328 
Q 422 3509 836 4129 
Q 1250 4750 2034 4750 
z
" transform="scale(0.015625)"/>
      </defs>
      <use xlink:href="#DejaVuSans-31"/>
      <use xlink:href="#DejaVuSans-30" x="63.623047"/>
     </g>
    </g>
   </g>
   <g id="text_13">
    <g id="patch_15">
     <path d="M 226.291716 353.600252 
L 237.514296 359.598528 
Q 240.160091 361.01266 241.574223 358.366865 
L 246.136271 349.83142 
Q 247.550403 347.185625 244.904608 345.771493 
L 233.682027 339.773217 
Q 231.036232 338.359085 229.6221 341.00488 
L 225.060052 349.540325 
Q 223.645921 352.18612 226.291716 353.600252 
z
" clip-path="url(#p483d1ea208)" style="fill: #ffffff; stroke: #ffffff; stroke-linejoin: miter"/>
    </g>
    <g clip-path="url(#p483d1ea208)">
     <!-- 13 -->
     <g transform="translate(228.686165 349.120315) rotate(-331.876265) scale(0.1 -0.1)">
      <defs>
       <path id="DejaVuSans-33" d="M 2597 2516 
Q 3050 2419 3304 2112 
Q 3559 1806 3559 1356 
Q 3559 666 3084 287 
Q 2609 -91 1734 -91 
Q 1441 -91 1130 -33 
Q 819 25 488 141 
L 488 750 
Q 750 597 1062 519 
Q 1375 441 1716 441 
Q 2309 441 2620 675 
Q 2931 909 2931 1356 
Q 2931 1769 2642 2001 
Q 2353 2234 1838 2234 
L 1294 2234 
L 1294 2753 
L 1863 2753 
Q 2328 2753 2575 2939 
Q 2822 3125 2822 3475 
Q 2822 3834 2567 4026 
Q 2313 4219 1838 4219 
Q 1578 4219 1281 4162 
Q 984 4106 628 3988 
L 628 4550 
Q 988 4650 1302 4700 
Q 1616 4750 1894 4750 
Q 2613 4750 3031 4423 
Q 3450 4097 3450 3541 
Q 3450 3153 3228 2886 
Q 3006 2619 2597 2516 
z
" transform="scale(0.015625)"/>
      </defs>
      <use xlink:href="#DejaVuSans-31"/>
      <use xlink:href="#DejaVuSans-33" x="63.623047"/>
     </g>
    </g>
   </g>
   <g id="text_14">
    <g id="patch_16">
     <path d="M 401.358079 288.276691 
L 404.408445 275.922708 
Q 405.127589 273.010178 402.215058 272.291034 
L 392.819114 269.971048 
Q 389.906584 269.251905 389.18744 272.164435 
L 386.137074 284.518418 
Q 385.417931 287.430948 388.330461 288.150092 
L 397.726405 290.470078 
Q 400.638936 291.189221 401.358079 288.276691 
z
" clip-path="url(#p483d1ea208)" style="fill: #ffffff; stroke: #ffffff; stroke-linejoin: miter"/>
    </g>
    <g clip-path="url(#p483d1ea208)">
     <!-- 18 -->
     <g transform="translate(396.426498 287.059016) rotate(-76.130314) scale(0.1 -0.1)">
      <use xlink:href="#DejaVuSans-31"/>
      <use xlink:href="#DejaVuSans-38" x="63.623047"/>
     </g>
    </g>
   </g>
   <g id="text_15">
    <g id="patch_17">
     <path d="M 77.879057 380.974008 
L 82.692227 369.194406 
Q 83.826963 366.41729 81.049847 365.282554 
L 72.090754 361.62185 
Q 69.313638 360.487114 68.178902 363.26423 
L 63.365731 375.043832 
Q 62.230996 377.820948 65.008112 378.955684 
L 73.967205 382.616388 
Q 76.744321 383.751124 77.879057 380.974008 
z
" clip-path="url(#p483d1ea208)" style="fill: #ffffff; stroke: #ffffff; stroke-linejoin: miter"/>
    </g>
    <g clip-path="url(#p483d1ea208)">
     <!-- 12 -->
     <g transform="translate(73.176762 379.05264) rotate(-67.77497) scale(0.1 -0.1)">
      <use xlink:href="#DejaVuSans-31"/>
      <use xlink:href="#DejaVuSans-32" x="63.623047"/>
     </g>
    </g>
   </g>
   <g id="text_16">
    <g id="patch_18">
     <path d="M 255.79649 456.830964 
L 262.148082 456.458558 
Q 265.142938 456.282964 264.967344 453.288107 
L 264.40087 443.626575 
Q 264.225276 440.631718 261.230419 440.807312 
L 254.878827 441.179718 
Q 251.883971 441.355312 252.059565 444.350169 
L 252.626039 454.011702 
Q 252.801633 457.006558 255.79649 456.830964 
z
" clip-path="url(#p483d1ea208)" style="fill: #ffffff; stroke: #ffffff; stroke-linejoin: miter"/>
    </g>
    <g clip-path="url(#p483d1ea208)">
     <!-- 9 -->
     <g transform="translate(255.499169 451.759985) rotate(-3.35552) scale(0.1 -0.1)">
      <use xlink:href="#DejaVuSans-39"/>
     </g>
    </g>
   </g>
   <g id="text_17">
    <g id="patch_19">
     <path d="M 226.0972 401.796794 
L 232.082821 399.63954 
Q 234.905117 398.622367 233.887945 395.80007 
L 230.606502 386.695223 
Q 229.589329 383.872926 226.767032 384.890099 
L 220.781411 387.047353 
Q 217.959115 388.064526 218.976287 390.886823 
L 222.25773 399.99167 
Q 223.274903 402.813967 226.0972 401.796794 
z
" clip-path="url(#p483d1ea208)" style="fill: #ffffff; stroke: #ffffff; stroke-linejoin: miter"/>
    </g>
    <g clip-path="url(#p483d1ea208)">
     <!-- 6 -->
     <g transform="translate(224.374893 397.017999) rotate(-19.819472) scale(0.1 -0.1)">
      <defs>
       <path id="DejaVuSans-36" d="M 2113 2584 
Q 1688 2584 1439 2293 
Q 1191 2003 1191 1497 
Q 1191 994 1439 701 
Q 1688 409 2113 409 
Q 2538 409 2786 701 
Q 3034 994 3034 1497 
Q 3034 2003 2786 2293 
Q 2538 2584 2113 2584 
z
M 3366 4563 
L 3366 3988 
Q 3128 4100 2886 4159 
Q 2644 4219 2406 4219 
Q 1781 4219 1451 3797 
Q 1122 3375 1075 2522 
Q 1259 2794 1537 2939 
Q 1816 3084 2150 3084 
Q 2853 3084 3261 2657 
Q 3669 2231 3669 1497 
Q 3669 778 3244 343 
Q 2819 -91 2113 -91 
Q 1303 -91 875 529 
Q 447 1150 447 2328 
Q 447 3434 972 4092 
Q 1497 4750 2381 4750 
Q 2619 4750 2861 4703 
Q 3103 4656 3366 4563 
z
" transform="scale(0.015625)"/>
      </defs>
      <use xlink:href="#DejaVuSans-36"/>
     </g>
    </g>
   </g>
   <g id="text_18">
    <g id="patch_20">
     <path d="M 232.697656 312.749199 
L 242.581873 304.734969 
Q 244.912141 302.845564 243.022735 300.515296 
L 236.927433 292.997757 
Q 235.038027 290.66749 232.70776 292.556896 
L 222.823543 300.571126 
Q 220.493275 302.460532 222.382681 304.790799 
L 228.477983 312.308338 
Q 230.367389 314.638605 232.697656 312.749199 
z
" clip-path="url(#p483d1ea208)" style="fill: #ffffff; stroke: #ffffff; stroke-linejoin: miter"/>
    </g>
    <g clip-path="url(#p483d1ea208)">
     <!-- 15 -->
     <g transform="translate(229.498459 308.803523) rotate(-39.035513) scale(0.1 -0.1)">
      <defs>
       <path id="DejaVuSans-35" d="M 691 4666 
L 3169 4666 
L 3169 4134 
L 1269 4134 
L 1269 2991 
Q 1406 3038 1543 3061 
Q 1681 3084 1819 3084 
Q 2600 3084 3056 2656 
Q 3513 2228 3513 1497 
Q 3513 744 3044 326 
Q 2575 -91 1722 -91 
Q 1428 -91 1123 -41 
Q 819 9 494 109 
L 494 744 
Q 775 591 1075 516 
Q 1375 441 1709 441 
Q 2250 441 2565 725 
Q 2881 1009 2881 1497 
Q 2881 1984 2565 2268 
Q 2250 2553 1709 2553 
Q 1456 2553 1204 2497 
Q 953 2441 691 2322 
L 691 4666 
z
" transform="scale(0.015625)"/>
      </defs>
      <use xlink:href="#DejaVuSans-31"/>
      <use xlink:href="#DejaVuSans-35" x="63.623047"/>
     </g>
    </g>
   </g>
   <g id="text_19">
    <g id="patch_21">
     <path d="M 79.808448 326.767781 
L 81.418794 320.612443 
Q 82.178093 317.710122 79.275773 316.950823 
L 69.912766 314.501293 
Q 67.010445 313.741994 66.251146 316.644314 
L 64.640799 322.799653 
Q 63.8815 325.701973 66.783821 326.461272 
L 76.146828 328.910802 
Q 79.049149 329.670102 79.808448 326.767781 
z
" clip-path="url(#p483d1ea208)" style="fill: #ffffff; stroke: #ffffff; stroke-linejoin: miter"/>
    </g>
    <g clip-path="url(#p483d1ea208)">
     <!-- 2 -->
     <g transform="translate(74.894154 325.482114) rotate(-75.338989) scale(0.1 -0.1)">
      <use xlink:href="#DejaVuSans-32"/>
     </g>
    </g>
   </g>
   <g id="text_20">
    <g id="patch_22">
     <path d="M 63.026344 371.004801 
L 65.586358 358.539973 
Q 66.189897 355.60131 63.251234 354.99777 
L 53.770985 353.050726 
Q 50.832322 352.447187 50.228783 355.38585 
L 47.668769 367.850678 
Q 47.065229 370.789341 50.003892 371.392881 
L 59.484142 373.339925 
Q 62.422805 373.943464 63.026344 371.004801 
z
" clip-path="url(#p483d1ea208)" style="fill: #ffffff; stroke: #ffffff; stroke-linejoin: miter"/>
    </g>
    <g clip-path="url(#p483d1ea208)">
     <!-- 10 -->
     <g transform="translate(58.050514 369.982871) rotate(-78.394037) scale(0.1 -0.1)">
      <use xlink:href="#DejaVuSans-31"/>
      <use xlink:href="#DejaVuSans-30" x="63.623047"/>
     </g>
    </g>
   </g>
   <g id="text_21">
    <g id="patch_23">
     <path d="M 258.871248 310.946099 
L 265.173705 311.818137 
Q 268.145393 312.229314 268.55657 309.257626 
L 269.883045 299.670834 
Q 270.294222 296.699146 267.322533 296.287969 
L 261.020077 295.415931 
Q 258.048388 295.004754 257.637211 297.976442 
L 256.310737 307.563234 
Q 255.89956 310.534922 258.871248 310.946099 
z
" clip-path="url(#p483d1ea208)" style="fill: #ffffff; stroke: #ffffff; stroke-linejoin: miter"/>
    </g>
    <g clip-path="url(#p483d1ea208)">
     <!-- 9 -->
     <g transform="translate(259.567465 305.914349) rotate(-352.1223) scale(0.1 -0.1)">
      <use xlink:href="#DejaVuSans-39"/>
     </g>
    </g>
   </g>
   <g id="text_22">
    <g id="patch_24">
     <path d="M 86.750832 278.832871 
L 92.339581 281.873808 
Q 94.974747 283.307649 96.408588 280.672482 
L 101.034217 272.171326 
Q 102.468057 269.53616 99.832891 268.102319 
L 94.244143 265.061383 
Q 91.608976 263.627542 90.175136 266.262708 
L 85.549507 274.763865 
Q 84.115666 277.399031 86.750832 278.832871 
z
" clip-path="url(#p483d1ea208)" style="fill: #ffffff; stroke: #ffffff; stroke-linejoin: miter"/>
    </g>
    <g clip-path="url(#p483d1ea208)">
     <!-- 6 -->
     <g transform="translate(89.178653 274.370931) rotate(-331.448608) scale(0.1 -0.1)">
      <use xlink:href="#DejaVuSans-36"/>
     </g>
    </g>
   </g>
   <g id="text_23">
    <g id="patch_25">
     <path d="M 289.239816 365.121415 
L 295.119432 367.552777 
Q 297.891746 368.699196 299.038165 365.926882 
L 302.736559 356.983282 
Q 303.882977 354.210968 301.110663 353.064549 
L 295.231047 350.633186 
Q 292.458733 349.486768 291.312315 352.259082 
L 287.613921 361.202682 
Q 286.467503 363.974996 289.239816 365.121415 
z
" clip-path="url(#p483d1ea208)" style="fill: #ffffff; stroke: #ffffff; stroke-linejoin: miter"/>
    </g>
    <g clip-path="url(#p483d1ea208)">
     <!-- 3 -->
     <g transform="translate(291.180966 360.427252) rotate(-337.533728) scale(0.1 -0.1)">
      <use xlink:href="#DejaVuSans-33"/>
     </g>
    </g>
   </g>
   <g id="text_24">
    <g id="patch_26">
     <path d="M 242.754733 238.269305 
L 248.67246 235.932231 
Q 251.462744 234.830271 250.360784 232.039987 
L 246.805815 223.038415 
Q 245.703855 220.248131 242.913571 221.350091 
L 236.995844 223.687165 
Q 234.20556 224.789125 235.30752 227.579408 
L 238.862489 236.580981 
Q 239.964449 239.371265 242.754733 238.269305 
z
" clip-path="url(#p483d1ea208)" style="fill: #ffffff; stroke: #ffffff; stroke-linejoin: miter"/>
    </g>
    <g clip-path="url(#p483d1ea208)">
     <!-- 4 -->
     <g transform="translate(240.888862 233.544714) rotate(-21.550428) scale(0.1 -0.1)">
      <use xlink:href="#DejaVuSans-34"/>
     </g>
    </g>
   </g>
   <g id="text_25">
    <g id="patch_27">
     <path d="M 289.152939 368.170809 
L 294.997062 370.686289 
Q 297.75264 371.87237 298.938721 369.116792 
L 302.765068 360.227182 
Q 303.951149 357.471603 301.195571 356.285522 
L 295.351449 353.770042 
Q 292.595871 352.583961 291.409789 355.339539 
L 287.583442 364.229149 
Q 286.397361 366.984728 289.152939 368.170809 
z
" clip-path="url(#p483d1ea208)" style="fill: #ffffff; stroke: #ffffff; stroke-linejoin: miter"/>
    </g>
    <g clip-path="url(#p483d1ea208)">
     <!-- 9 -->
     <g transform="translate(291.161247 363.504983) rotate(-336.711548) scale(0.1 -0.1)">
      <use xlink:href="#DejaVuSans-39"/>
     </g>
    </g>
   </g>
   <g id="text_26">
    <g id="patch_28">
     <path d="M 446.04129 287.830514 
L 448.208782 300.369557 
Q 448.719782 303.325716 451.675942 302.814716 
L 461.212635 301.166209 
Q 464.168795 300.655209 463.657795 297.699049 
L 461.490303 285.160006 
Q 460.979303 282.203846 458.023143 282.714847 
L 448.48645 284.363354 
Q 445.53029 284.874354 446.04129 287.830514 
z
" clip-path="url(#p483d1ea208)" style="fill: #ffffff; stroke: #ffffff; stroke-linejoin: miter"/>
    </g>
    <g clip-path="url(#p483d1ea208)">
     <!-- 18 -->
     <g transform="translate(451.046746 286.965273) rotate(-279.807202) scale(0.1 -0.1)">
      <use xlink:href="#DejaVuSans-31"/>
      <use xlink:href="#DejaVuSans-38" x="63.623047"/>
     </g>
    </g>
   </g>
   <g id="text_27">
    <g id="patch_29">
     <path d="M 418.687778 306.610322 
L 423.36537 318.444415 
Q 424.468142 321.234378 427.258105 320.131606 
L 436.258642 316.574016 
Q 439.048605 315.471244 437.945833 312.681281 
L 433.268241 300.847188 
Q 432.165468 298.057225 429.375505 299.159998 
L 420.374969 302.717587 
Q 417.585006 303.820359 418.687778 306.610322 
z
" clip-path="url(#p483d1ea208)" style="fill: #ffffff; stroke: #ffffff; stroke-linejoin: miter"/>
    </g>
    <g clip-path="url(#p483d1ea208)">
     <!-- 12 -->
     <g transform="translate(423.411825 304.743076) rotate(-291.567109) scale(0.1 -0.1)">
      <use xlink:href="#DejaVuSans-31"/>
      <use xlink:href="#DejaVuSans-32" x="63.623047"/>
     </g>
    </g>
   </g>
   <g id="text_28">
    <g id="patch_30">
     <path d="M 288.065284 316.403966 
L 293.272234 320.060341 
Q 295.727377 321.784369 297.451405 319.329226 
L 303.01319 311.408831 
Q 304.737218 308.953688 302.282074 307.22966 
L 297.075125 303.573285 
Q 294.619982 301.849257 292.895954 304.3044 
L 287.334168 312.224795 
Q 285.610141 314.679938 288.065284 316.403966 
z
" clip-path="url(#p483d1ea208)" style="fill: #ffffff; stroke: #ffffff; stroke-linejoin: miter"/>
    </g>
    <g clip-path="url(#p483d1ea208)">
     <!-- 5 -->
     <g transform="translate(290.984458 312.246845) rotate(-324.92306) scale(0.1 -0.1)">
      <use xlink:href="#DejaVuSans-35"/>
     </g>
    </g>
   </g>
   <g id="text_29">
    <g id="patch_31">
     <path d="M 488.496663 445.2925 
L 488.496663 432.5675 
Q 488.496663 429.5675 485.496663 429.5675 
L 475.818537 429.5675 
Q 472.818537 429.5675 472.818537 432.5675 
L 472.818537 445.2925 
Q 472.818537 448.2925 475.818537 448.2925 
L 485.496663 448.2925 
Q 488.496663 448.2925 488.496663 445.2925 
z
" clip-path="url(#p483d1ea208)" style="fill: #ffffff; stroke: #ffffff; stroke-linejoin: miter"/>
    </g>
    <g clip-path="url(#p483d1ea208)">
     <!-- 19 -->
     <g transform="translate(483.416975 445.2925) rotate(-90) scale(0.1 -0.1)">
      <use xlink:href="#DejaVuSans-31"/>
      <use xlink:href="#DejaVuSans-39" x="63.623047"/>
     </g>
    </g>
   </g>
   <g id="text_30">
    <g id="patch_32">
     <path d="M 269.794432 357.919623 
L 281.443252 363.041207 
Q 284.189536 364.248653 285.396982 361.502369 
L 289.292253 352.642744 
Q 290.499699 349.89646 287.753416 348.689014 
L 276.104596 343.56743 
Q 273.358312 342.359984 272.150866 345.106268 
L 268.255595 353.965893 
Q 267.048149 356.712177 269.794432 357.919623 
z
" clip-path="url(#p483d1ea208)" style="fill: #ffffff; stroke: #ffffff; stroke-linejoin: miter"/>
    </g>
    <g clip-path="url(#p483d1ea208)">
     <!-- 13 -->
     <g transform="translate(271.838915 353.269535) rotate(-336.266566) scale(0.1 -0.1)">
      <use xlink:href="#DejaVuSans-31"/>
      <use xlink:href="#DejaVuSans-33" x="63.623047"/>
     </g>
    </g>
   </g>
   <g id="text_31">
    <g id="patch_33">
     <path d="M 242.191857 301.854757 
L 248.456374 302.967065 
Q 251.410174 303.491532 251.934641 300.537732 
L 253.626595 291.008651 
Q 254.151062 288.054851 251.197262 287.530383 
L 244.932745 286.418076 
Q 241.978945 285.893608 241.454478 288.847408 
L 239.762524 298.37649 
Q 239.238057 301.33029 242.191857 301.854757 
z
" clip-path="url(#p483d1ea208)" style="fill: #ffffff; stroke: #ffffff; stroke-linejoin: miter"/>
    </g>
    <g clip-path="url(#p483d1ea208)">
     <!-- 6 -->
     <g transform="translate(243.0799 296.853297) rotate(-349.931675) scale(0.1 -0.1)">
      <use xlink:href="#DejaVuSans-36"/>
     </g>
    </g>
   </g>
   <g id="text_32">
    <g id="patch_34">
     <path d="M 272.783861 356.143121 
L 278.641291 358.627456 
Q 281.403144 359.798851 282.57454 357.036998 
L 286.35351 348.127144 
Q 287.524905 345.365291 284.763052 344.193896 
L 278.905621 341.709562 
Q 276.143768 340.538166 274.972373 343.30002 
L 271.193403 352.209873 
Q 270.022008 354.971726 272.783861 356.143121 
z
" clip-path="url(#p483d1ea208)" style="fill: #ffffff; stroke: #ffffff; stroke-linejoin: miter"/>
    </g>
    <g clip-path="url(#p483d1ea208)">
     <!-- 4 -->
     <g transform="translate(274.767301 351.466671) rotate(-337.016557) scale(0.1 -0.1)">
      <use xlink:href="#DejaVuSans-34"/>
     </g>
    </g>
   </g>
   <g id="text_33">
    <g id="patch_35">
     <path d="M 225.575922 229.301633 
L 231.683481 227.51862 
Q 234.563272 226.677907 233.722559 223.798115 
L 231.010382 214.507787 
Q 230.169669 211.627995 227.289877 212.468708 
L 221.182319 214.251721 
Q 218.302527 215.092435 219.14324 217.972227 
L 221.855417 227.262555 
Q 222.69613 230.142347 225.575922 229.301633 
z
" clip-path="url(#p483d1ea208)" style="fill: #ffffff; stroke: #ffffff; stroke-linejoin: miter"/>
    </g>
    <g clip-path="url(#p483d1ea208)">
     <!-- 1 -->
     <g transform="translate(224.152402 224.425486) rotate(-16.274398) scale(0.1 -0.1)">
      <use xlink:href="#DejaVuSans-31"/>
     </g>
    </g>
   </g>
   <g id="text_34">
    <g id="patch_36">
     <path d="M 99.411257 228.895395 
L 101.750487 222.97852 
Q 102.853464 220.188638 100.063582 219.085661 
L 91.063306 215.527413 
Q 88.273423 214.424436 87.170447 217.214318 
L 84.831217 223.131193 
Q 83.72824 225.921075 86.518122 227.024052 
L 95.518399 230.582301 
Q 98.308281 231.685277 99.411257 228.895395 
z
" clip-path="url(#p483d1ea208)" style="fill: #ffffff; stroke: #ffffff; stroke-linejoin: miter"/>
    </g>
    <g clip-path="url(#p483d1ea208)">
     <!-- 6 -->
     <g transform="translate(94.687348 227.027803) rotate(-68.428693) scale(0.1 -0.1)">
      <use xlink:href="#DejaVuSans-36"/>
     </g>
    </g>
   </g>
   <g id="text_35">
    <g id="patch_37">
     <path d="M 418.662476 303.553075 
L 423.437704 315.348108 
Q 424.563495 318.128863 427.344249 317.003072 
L 436.315079 313.371225 
Q 439.095834 312.245435 437.970043 309.46468 
L 433.194815 297.669646 
Q 432.069025 294.888892 429.28827 296.014682 
L 420.31744 299.64653 
Q 417.536686 300.77232 418.662476 303.553075 
z
" clip-path="url(#p483d1ea208)" style="fill: #ffffff; stroke: #ffffff; stroke-linejoin: miter"/>
    </g>
    <g clip-path="url(#p483d1ea208)">
     <!-- 14 -->
     <g transform="translate(423.370931 301.646853) rotate(-292.0406) scale(0.1 -0.1)">
      <use xlink:href="#DejaVuSans-31"/>
      <use xlink:href="#DejaVuSans-34" x="63.623047"/>
     </g>
    </g>
   </g>
   <g id="text_36">
    <g id="patch_38">
     <path d="M 285.492831 311.550099 
L 295.989506 318.743529 
Q 298.464164 320.439426 300.160061 317.964768 
L 305.631096 309.981417 
Q 307.326993 307.506759 304.852335 305.810862 
L 294.35566 298.617432 
Q 291.881001 296.921535 290.185104 299.396193 
L 284.71407 307.379544 
Q 283.018173 309.854202 285.492831 311.550099 
z
" clip-path="url(#p483d1ea208)" style="fill: #ffffff; stroke: #ffffff; stroke-linejoin: miter"/>
    </g>
    <g clip-path="url(#p483d1ea208)">
     <!-- 15 -->
     <g transform="translate(288.364373 307.359935) rotate(-325.576941) scale(0.1 -0.1)">
      <use xlink:href="#DejaVuSans-31"/>
      <use xlink:href="#DejaVuSans-35" x="63.623047"/>
     </g>
    </g>
   </g>
   <g id="text_37">
    <g id="patch_39">
     <path d="M 430.151082 241.039232 
L 431.028906 228.344546 
Q 431.235858 225.351693 428.243005 225.14474 
L 418.587936 224.477103 
Q 415.595082 224.27015 415.38813 227.263003 
L 414.510306 239.957689 
Q 414.303353 242.950542 417.296206 243.157495 
L 426.951276 243.825133 
Q 429.944129 244.032085 430.151082 241.039232 
z
" clip-path="url(#p483d1ea208)" style="fill: #ffffff; stroke: #ffffff; stroke-linejoin: miter"/>
    </g>
    <g clip-path="url(#p483d1ea208)">
     <!-- 13 -->
     <g transform="translate(425.083495 240.688814) rotate(-86.044355) scale(0.1 -0.1)">
      <use xlink:href="#DejaVuSans-31"/>
      <use xlink:href="#DejaVuSans-33" x="63.623047"/>
     </g>
    </g>
   </g>
   <g id="text_38">
    <g id="patch_40">
     <path d="M 386.99447 246.976792 
L 390.362994 259.247843 
Q 391.157145 262.140821 394.050123 261.34667 
L 403.382992 258.784706 
Q 406.27597 257.990555 405.48182 255.097577 
L 402.113296 242.826526 
Q 401.319145 239.933548 398.426167 240.727699 
L 389.093298 243.289663 
Q 386.200319 244.083814 386.99447 246.976792 
z
" clip-path="url(#p483d1ea208)" style="fill: #ffffff; stroke: #ffffff; stroke-linejoin: miter"/>
    </g>
    <g clip-path="url(#p483d1ea208)">
     <!-- 11 -->
     <g transform="translate(391.892946 245.632113) rotate(-285.350136) scale(0.1 -0.1)">
      <use xlink:href="#DejaVuSans-31"/>
      <use xlink:href="#DejaVuSans-31" x="63.623047"/>
     </g>
    </g>
   </g>
   <g id="text_39">
    <g id="patch_41">
     <path d="M 263.975597 171.052796 
L 276.610945 169.544953 
Q 279.589809 169.189469 279.234325 166.210605 
L 278.08752 156.600665 
Q 277.732036 153.621801 274.753172 153.977285 
L 262.117824 155.485128 
Q 259.138959 155.840612 259.494443 158.819476 
L 260.641249 168.429416 
Q 260.996733 171.40828 263.975597 171.052796 
z
" clip-path="url(#p483d1ea208)" style="fill: #ffffff; stroke: #ffffff; stroke-linejoin: miter"/>
    </g>
    <g clip-path="url(#p483d1ea208)">
     <!-- 11 -->
     <g transform="translate(263.373681 166.008897) rotate(-6.805229) scale(0.1 -0.1)">
      <use xlink:href="#DejaVuSans-31"/>
      <use xlink:href="#DejaVuSans-31" x="63.623047"/>
     </g>
    </g>
   </g>
   <g id="text_40">
    <g id="patch_42">
     <path d="M 404.033642 168.665361 
L 409.401439 165.249491 
Q 411.932423 163.638864 410.321796 161.10788 
L 405.125848 152.942819 
Q 403.515222 150.411834 400.984237 152.022461 
L 395.616441 155.438331 
Q 393.085457 157.048958 394.696083 159.579942 
L 399.892031 167.745003 
Q 401.502658 170.275988 404.033642 168.665361 
z
" clip-path="url(#p483d1ea208)" style="fill: #ffffff; stroke: #ffffff; stroke-linejoin: miter"/>
    </g>
    <g clip-path="url(#p483d1ea208)">
     <!-- 6 -->
     <g transform="translate(401.306483 164.379825) rotate(-32.471192) scale(0.1 -0.1)">
      <use xlink:href="#DejaVuSans-36"/>
     </g>
    </g>
   </g>
   <g id="text_41">
    <g id="patch_43">
     <path d="M 236.599795 187.340556 
L 249.323104 187.13311 
Q 252.322706 187.084204 252.273799 184.084602 
L 252.116025 174.407764 
Q 252.067118 171.408162 249.067517 171.457069 
L 236.344208 171.664514 
Q 233.344606 171.713421 233.393513 174.713022 
L 233.551287 184.389861 
Q 233.600194 187.389462 236.599795 187.340556 
z
" clip-path="url(#p483d1ea208)" style="fill: #ffffff; stroke: #ffffff; stroke-linejoin: miter"/>
    </g>
    <g clip-path="url(#p483d1ea208)">
     <!-- 17 -->
     <g transform="translate(236.516985 182.261543) rotate(-0.934088) scale(0.1 -0.1)">
      <use xlink:href="#DejaVuSans-31"/>
      <use xlink:href="#DejaVuSans-37" x="63.623047"/>
     </g>
    </g>
   </g>
   <g id="matplotlib.axis_1">
    <g id="xtick_1">
     <g id="line2d_1">
      <path d="M 10.8 493.2 
L 10.8 10.8 
" clip-path="url(#p483d1ea208)" style="fill: none; stroke: #b0b0b0; stroke-opacity: 0.3; stroke-width: 0.8; stroke-linecap: square"/>
     </g>
    </g>
    <g id="xtick_2">
     <g id="line2d_2">
      <path d="M 59.04 493.2 
L 59.04 10.8 
" clip-path="url(#p483d1ea208)" style="fill: none; stroke: #b0b0b0; stroke-opacity: 0.3; stroke-width: 0.8; stroke-linecap: square"/>
     </g>
    </g>
    <g id="xtick_3">
     <g id="line2d_3">
      <path d="M 107.28 493.2 
L 107.28 10.8 
" clip-path="url(#p483d1ea208)" style="fill: none; stroke: #b0b0b0; stroke-opacity: 0.3; stroke-width: 0.8; stroke-linecap: square"/>
     </g>
    </g>
    <g id="xtick_4">
     <g id="line2d_4">
      <path d="M 155.52 493.2 
L 155.52 10.8 
" clip-path="url(#p483d1ea208)" style="fill: none; stroke: #b0b0b0; stroke-opacity: 0.3; stroke-width: 0.8; stroke-linecap: square"/>
     </g>
    </g>
    <g id="xtick_5">
     <g id="line2d_5">
      <path d="M 203.76 493.2 
L 203.76 10.8 
" clip-path="url(#p483d1ea208)" style="fill: none; stroke: #b0b0b0; stroke-opacity: 0.3; stroke-width: 0.8; stroke-linecap: square"/>
     </g>
    </g>
    <g id="xtick_6">
     <g id="line2d_6">
      <path d="M 252 493.2 
L 252 10.8 
" clip-path="url(#p483d1ea208)" style="fill: none; stroke: #b0b0b0; stroke-opacity: 0.3; stroke-width: 0.8; stroke-linecap: square"/>
     </g>
    </g>
    <g id="xtick_7">
     <g id="line2d_7">
      <path d="M 300.24 493.2 
L 300.24 10.8 
" clip-path="url(#p483d1ea208)" style="fill: none; stroke: #b0b0b0; stroke-opacity: 0.3; stroke-width: 0.8; stroke-linecap: square"/>
     </g>
    </g>
    <g id="xtick_8">
     <g id="line2d_8">
      <path d="M 348.48 493.2 
L 348.48 10.8 
" clip-path="url(#p483d1ea208)" style="fill: none; stroke: #b0b0b0; stroke-opacity: 0.3; stroke-width: 0.8; stroke-linecap: square"/>
     </g>
    </g>
    <g id="xtick_9">
     <g id="line2d_9">
      <path d="M 396.72 493.2 
L 396.72 10.8 
" clip-path="url(#p483d1ea208)" style="fill: none; stroke: #b0b0b0; stroke-opacity: 0.3; stroke-width: 0.8; stroke-linecap: square"/>
     </g>
    </g>
    <g id="xtick_10">
     <g id="line2d_10">
      <path d="M 444.96 493.2 
L 444.96 10.8 
" clip-path="url(#p483d1ea208)" style="fill: none; stroke: #b0b0b0; stroke-opacity: 0.3; stroke-width: 0.8; stroke-linecap: square"/>
     </g>
    </g>
    <g id="xtick_11">
     <g id="line2d_11">
      <path d="M 493.2 493.2 
L 493.2 10.8 
" clip-path="url(#p483d1ea208)" style="fill: none; stroke: #b0b0b0; stroke-opacity: 0.3; stroke-width: 0.8; stroke-linecap: square"/>
     </g>
    </g>
   </g>
   <g id="matplotlib.axis_2">
    <g id="ytick_1">
     <g id="line2d_12">
      <path d="M 10.8 493.2 
L 493.2 493.2 
" clip-path="url(#p483d1ea208)" style="fill: none; stroke: #b0b0b0; stroke-opacity: 0.3; stroke-width: 0.8; stroke-linecap: square"/>
     </g>
    </g>
    <g id="ytick_2">
     <g id="line2d_13">
      <path d="M 10.8 444.96 
L 493.2 444.96 
" clip-path="url(#p483d1ea208)" style="fill: none; stroke: #b0b0b0; stroke-opacity: 0.3; stroke-width: 0.8; stroke-linecap: square"/>
     </g>
    </g>
    <g id="ytick_3">
     <g id="line2d_14">
      <path d="M 10.8 396.72 
L 493.2 396.72 
" clip-path="url(#p483d1ea208)" style="fill: none; stroke: #b0b0b0; stroke-opacity: 0.3; stroke-width: 0.8; stroke-linecap: square"/>
     </g>
    </g>
    <g id="ytick_4">
     <g id="line2d_15">
      <path d="M 10.8 348.48 
L 493.2 348.48 
" clip-path="url(#p483d1ea208)" style="fill: none; stroke: #b0b0b0; stroke-opacity: 0.3; stroke-width: 0.8; stroke-linecap: square"/>
     </g>
    </g>
    <g id="ytick_5">
     <g id="line2d_16">
      <path d="M 10.8 300.24 
L 493.2 300.24 
" clip-path="url(#p483d1ea208)" style="fill: none; stroke: #b0b0b0; stroke-opacity: 0.3; stroke-width: 0.8; stroke-linecap: square"/>
     </g>
    </g>
    <g id="ytick_6">
     <g id="line2d_17">
      <path d="M 10.8 252 
L 493.2 252 
" clip-path="url(#p483d1ea208)" style="fill: none; stroke: #b0b0b0; stroke-opacity: 0.3; stroke-width: 0.8; stroke-linecap: square"/>
     </g>
    </g>
    <g id="ytick_7">
     <g id="line2d_18">
      <path d="M 10.8 203.76 
L 493.2 203.76 
" clip-path="url(#p483d1ea208)" style="fill: none; stroke: #b0b0b0; stroke-opacity: 0.3; stroke-width: 0.8; stroke-linecap: square"/>
     </g>
    </g>
    <g id="ytick_8">
     <g id="line2d_19">
      <path d="M 10.8 155.52 
L 493.2 155.52 
" clip-path="url(#p483d1ea208)" style="fill: none; stroke: #b0b0b0; stroke-opacity: 0.3; stroke-width: 0.8; stroke-linecap: square"/>
     </g>
    </g>
    <g id="ytick_9">
     <g id="line2d_20">
      <path d="M 10.8 107.28 
L 493.2 107.28 
" clip-path="url(#p483d1ea208)" style="fill: none; stroke: #b0b0b0; stroke-opacity: 0.3; stroke-width: 0.8; stroke-linecap: square"/>
     </g>
    </g>
    <g id="ytick_10">
     <g id="line2d_21">
      <path d="M 10.8 59.04 
L 493.2 59.04 
" clip-path="url(#p483d1ea208)" style="fill: none; stroke: #b0b0b0; stroke-opacity: 0.3; stroke-width: 0.8; stroke-linecap: square"/>
     </g>
    </g>
    <g id="ytick_11">
     <g id="line2d_22">
      <path d="M 10.8 10.8 
L 493.2 10.8 
" clip-path="url(#p483d1ea208)" style="fill: none; stroke: #b0b0b0; stroke-opacity: 0.3; stroke-width: 0.8; stroke-linecap: square"/>
     </g>
    </g>
   </g>
   <g id="PathCollection_1">
    <defs>
     <path id="m8e0329c89d" d="M 0 8.660254 
C 2.296726 8.660254 4.499694 7.747755 6.123724 6.123724 
C 7.747755 4.499694 8.660254 2.296726 8.660254 0 
C 8.660254 -2.296726 7.747755 -4.499694 6.123724 -6.123724 
C 4.499694 -7.747755 2.296726 -8.660254 0 -8.660254 
C -2.296726 -8.660254 -4.499694 -7.747755 -6.123724 -6.123724 
C -7.747755 -4.499694 -8.660254 -2.296726 -8.660254 0 
C -8.660254 2.296726 -7.747755 4.499694 -6.123724 6.123724 
C -4.499694 7.747755 -2.296726 8.660254 0 8.660254 
z
" style="stroke: #1f78b4"/>
    </defs>
    <g clip-path="url(#p483d1ea208)">
     <use xlink:href="#m8e0329c89d" x="348.48" y="445.9248" style="fill: #1f78b4; stroke: #1f78b4"/>
     <use xlink:href="#m8e0329c89d" x="361.5048" y="416.9808" style="fill: #1f78b4; stroke: #1f78b4"/>
     <use xlink:href="#m8e0329c89d" x="36.3672" y="461.844" style="fill: #1f78b4; stroke: #1f78b4"/>
     <use xlink:href="#m8e0329c89d" x="109.692" y="282.3912" style="fill: #1f78b4; stroke: #1f78b4"/>
     <use xlink:href="#m8e0329c89d" x="480.6576" y="442.0656" style="fill: #1f78b4; stroke: #1f78b4"/>
     <use xlink:href="#m8e0329c89d" x="76.8888" y="264.5424" style="fill: #1f78b4; stroke: #1f78b4"/>
     <use xlink:href="#m8e0329c89d" x="480.6576" y="435.7944" style="fill: #1f78b4; stroke: #1f78b4"/>
     <use xlink:href="#m8e0329c89d" x="416.4984" y="324.8424" style="fill: #1f78b4; stroke: #1f78b4"/>
     <use xlink:href="#m8e0329c89d" x="429.0408" y="143.46" style="fill: #1f78b4; stroke: #1f78b4"/>
     <use xlink:href="#m8e0329c89d" x="109.692" y="181.5696" style="fill: #1f78b4; stroke: #1f78b4"/>
     <use xlink:href="#m8e0329c89d" x="375.9768" y="177.228" style="fill: #1f78b4; stroke: #1f78b4"/>
    </g>
   </g>
   <g id="patch_44">
    <path d="M 10.8 493.2 
L 10.8 10.8 
" style="fill: none; stroke: #000000; stroke-width: 0.8; stroke-linejoin: miter; stroke-linecap: square"/>
   </g>
   <g id="patch_45">
    <path d="M 493.2 493.2 
L 493.2 10.8 
" style="fill: none; stroke: #000000; stroke-width: 0.8; stroke-linejoin: miter; stroke-linecap: square"/>
   </g>
   <g id="patch_46">
    <path d="M 10.8 493.2 
L 493.2 493.2 
" style="fill: none; stroke: #000000; stroke-width: 0.8; stroke-linejoin: miter; stroke-linecap: square"/>
   </g>
   <g id="patch_47">
    <path d="M 10.8 10.8 
L 493.2 10.8 
" style="fill: none; stroke: #000000; stroke-width: 0.8; stroke-linejoin: miter; stroke-linecap: square"/>
   </g>
   <g id="text_42">
    <g clip-path="url(#p483d1ea208)">
     <!-- 0 -->
     <g transform="translate(344.6625 449.23605) scale(0.12 -0.12)">
      <use xlink:href="#DejaVuSans-30"/>
     </g>
    </g>
   </g>
   <g id="text_43">
    <g clip-path="url(#p483d1ea208)">
     <!-- 1 -->
     <g transform="translate(357.6873 420.29205) scale(0.12 -0.12)">
      <use xlink:href="#DejaVuSans-31"/>
     </g>
    </g>
   </g>
   <g id="text_44">
    <g clip-path="url(#p483d1ea208)">
     <!-- 2 -->
     <g transform="translate(32.5497 465.15525) scale(0.12 -0.12)">
      <use xlink:href="#DejaVuSans-32"/>
     </g>
    </g>
   </g>
   <g id="text_45">
    <g clip-path="url(#p483d1ea208)">
     <!-- 3 -->
     <g transform="translate(105.8745 285.70245) scale(0.12 -0.12)">
      <use xlink:href="#DejaVuSans-33"/>
     </g>
    </g>
   </g>
   <g id="text_46">
    <g clip-path="url(#p483d1ea208)">
     <!-- 4 -->
     <g transform="translate(476.8401 445.37685) scale(0.12 -0.12)">
      <use xlink:href="#DejaVuSans-34"/>
     </g>
    </g>
   </g>
   <g id="text_47">
    <g clip-path="url(#p483d1ea208)">
     <!-- 5 -->
     <g transform="translate(73.0713 267.85365) scale(0.12 -0.12)">
      <use xlink:href="#DejaVuSans-35"/>
     </g>
    </g>
   </g>
   <g id="text_48">
    <g clip-path="url(#p483d1ea208)">
     <!-- 6 -->
     <g transform="translate(476.8401 439.10565) scale(0.12 -0.12)">
      <use xlink:href="#DejaVuSans-36"/>
     </g>
    </g>
   </g>
   <g id="text_49">
    <g clip-path="url(#p483d1ea208)">
     <!-- 7 -->
     <g transform="translate(412.6809 328.15365) scale(0.12 -0.12)">
      <use xlink:href="#DejaVuSans-37"/>
     </g>
    </g>
   </g>
   <g id="text_50">
    <g clip-path="url(#p483d1ea208)">
     <!-- 8 -->
     <g transform="translate(425.2233 146.77125) scale(0.12 -0.12)">
      <use xlink:href="#DejaVuSans-38"/>
     </g>
    </g>
   </g>
   <g id="text_51">
    <g clip-path="url(#p483d1ea208)">
     <!-- 9 -->
     <g transform="translate(105.8745 184.88085) scale(0.12 -0.12)">
      <use xlink:href="#DejaVuSans-39"/>
     </g>
    </g>
   </g>
   <g id="text_52">
    <g clip-path="url(#p483d1ea208)">
     <!-- 10 -->
     <g transform="translate(368.3418 180.53925) scale(0.12 -0.12)">
      <use xlink:href="#DejaVuSans-31"/>
      <use xlink:href="#DejaVuSans-30" x="63.623047"/>
     </g>
    </g>
   </g>
  </g>
 </g>
 <defs>
  <clipPath id="p483d1ea208">
   <rect x="10.8" y="10.8" width="482.4" height="482.4"/>
  </clipPath>
 </defs>
</svg>
