<?xml version="1.0" encoding="utf-8" standalone="no"?>
<!DOCTYPE svg PUBLIC "-//W3C//DTD SVG 1.1//EN"
  "http://www.w3.org/Graphics/SVG/1.1/DTD/svg11.dtd">
<svg xmlns:xlink="http://www.w3.org/1999/xlink" width="504pt" height="504pt" viewBox="0 0 504 504" xmlns="http://www.w3.org/2000/svg" version="1.1">
 <metadata>
  <rdf:RDF xmlns:dc="http://purl.org/dc/elements/1.1/" xmlns:cc="http://creativecommons.org/ns#" xmlns:rdf="http://www.w3.org/1999/02/22-rdf-syntax-ns#">
   <cc:Work>
    <dc:type rdf:resource="http://purl.org/dc/dcmitype/StillImage"/>
    <dc:date>2024-10-29T14:59:37.380011</dc:date>
    <dc:format>image/svg+xml</dc:format>
    <dc:creator>
     <cc:Agent>
      <dc:title>Matplotlib v3.9.2, https://matplotlib.org/</dc:title>
     </cc:Agent>
    </dc:creator>
   </cc:Work>
  </rdf:RDF>
 </metadata>
 <defs>
  <style type="text/css">*{stroke-linejoin: round; stroke-linecap: butt}</style>
 </defs>
 <g id="figure_1">
  <g id="patch_1">
   <path d="M 0 504 
L 504 504 
L 504 0 
L 0 0 
L 0 504 
z
" style="fill: none; opacity: 0"/>
  </g>
  <g id="axes_1">
   <g id="patch_2">
    <path d="M 10.8 493.2 
L 493.2 493.2 
L 493.2 10.8 
L 10.8 10.8 
L 10.8 493.2 
z
" style="fill: none; opacity: 0"/>
   </g>
   <g id="LineCollection_1">
    <path d="M 207.6192 469.08 
L 158.4144 27.2016 
" clip-path="url(#p9049132b80)" style="fill: none; stroke: #000000"/>
    <path d="M 207.6192 469.08 
L 278.0496 395.7552 
" clip-path="url(#p9049132b80)" style="fill: none; stroke: #000000"/>
    <path d="M 207.6192 469.08 
L 493.2 170.4744 
" clip-path="url(#p9049132b80)" style="fill: none; stroke: #000000"/>
    <path d="M 207.6192 469.08 
L 118.3752 291.5568 
" clip-path="url(#p9049132b80)" style="fill: none; stroke: #000000"/>
    <path d="M 194.112 53.7336 
L 403.4736 28.1664 
" clip-path="url(#p9049132b80)" style="fill: none; stroke: #000000"/>
    <path d="M 194.112 53.7336 
L 438.2064 422.7696 
" clip-path="url(#p9049132b80)" style="fill: none; stroke: #000000"/>
    <path d="M 216.7848 332.0784 
L 118.3752 269.8488 
" clip-path="url(#p9049132b80)" style="fill: none; stroke: #000000"/>
    <path d="M 216.7848 332.0784 
L 438.2064 422.7696 
" clip-path="url(#p9049132b80)" style="fill: none; stroke: #000000"/>
    <path d="M 118.3752 269.8488 
L 118.3752 291.5568 
" clip-path="url(#p9049132b80)" style="fill: none; stroke: #000000"/>
    <path d="M 403.4736 28.1664 
L 281.9088 406.368 
" clip-path="url(#p9049132b80)" style="fill: none; stroke: #000000"/>
    <path d="M 278.0496 395.7552 
L 118.3752 291.5568 
" clip-path="url(#p9049132b80)" style="fill: none; stroke: #000000"/>
    <path d="M 438.2064 422.7696 
L 493.2 170.4744 
" clip-path="url(#p9049132b80)" style="fill: none; stroke: #000000"/>
    <path d="M 281.9088 406.368 
L 158.4144 27.2016 
" clip-path="url(#p9049132b80)" style="fill: none; stroke: #000000"/>
   </g>
   <g id="text_1">
    <g id="patch_3">
     <path d="M 174.873691 245.845457 
L 175.577827 252.168874 
Q 175.909836 255.150445 178.891408 254.818436 
L 188.510083 253.747361 
Q 191.491655 253.415352 191.159645 250.43378 
L 190.45551 244.110364 
Q 190.1235 241.128792 187.141929 241.460801 
L 177.523254 242.531876 
Q 174.541682 242.863885 174.873691 245.845457 
z
" clip-path="url(#p9049132b80)" style="fill: #ffffff; stroke: #ffffff; stroke-linejoin: miter"/>
    </g>
    <g clip-path="url(#p9049132b80)">
     <!-- 5 -->
     <g transform="translate(179.922176 245.283289) rotate(-276.353922) scale(0.1 -0.1)">
      <defs>
       <path id="DejaVuSans-35" d="M 691 4666 
L 3169 4666 
L 3169 4134 
L 1269 4134 
L 1269 2991 
Q 1406 3038 1543 3061 
Q 1681 3084 1819 3084 
Q 2600 3084 3056 2656 
Q 3513 2228 3513 1497 
Q 3513 744 3044 326 
Q 2575 -91 1722 -91 
Q 1428 -91 1123 -41 
Q 819 9 494 109 
L 494 744 
Q 775 591 1075 516 
Q 1375 441 1709 441 
Q 2250 441 2565 725 
Q 2881 1009 2881 1497 
Q 2881 1984 2565 2268 
Q 2250 2553 1709 2553 
Q 1456 2553 1204 2497 
Q 953 2441 691 2322 
L 691 4666 
z
" transform="scale(0.015625)"/>
      </defs>
      <use xlink:href="#DejaVuSans-35"/>
     </g>
    </g>
   </g>
   <g id="text_2">
    <g id="patch_4">
     <path d="M 244.080281 442.436717 
L 252.895262 433.259477 
Q 254.97345 431.095884 252.809857 429.017696 
L 245.830016 422.313374 
Q 243.666423 420.235186 241.588235 422.398779 
L 232.773254 431.57602 
Q 230.695066 433.739613 232.858659 435.817801 
L 239.8385 442.522122 
Q 242.002093 444.60031 244.080281 442.436717 
z
" clip-path="url(#p9049132b80)" style="fill: #ffffff; stroke: #ffffff; stroke-linejoin: miter"/>
    </g>
    <g clip-path="url(#p9049132b80)">
     <!-- 15 -->
     <g transform="translate(240.416822 438.917868) rotate(-46.15345) scale(0.1 -0.1)">
      <defs>
       <path id="DejaVuSans-31" d="M 794 531 
L 1825 531 
L 1825 4091 
L 703 3866 
L 703 4441 
L 1819 4666 
L 2450 4666 
L 2450 531 
L 3481 531 
L 3481 0 
L 794 0 
L 794 531 
z
" transform="scale(0.015625)"/>
      </defs>
      <use xlink:href="#DejaVuSans-31"/>
      <use xlink:href="#DejaVuSans-35" x="63.623047"/>
     </g>
    </g>
   </g>
   <g id="text_3">
    <g id="patch_5">
     <path d="M 353.874773 327.495722 
L 358.27234 322.89759 
Q 360.345849 320.729512 358.177771 318.656004 
L 351.183462 311.966777 
Q 349.015384 309.893269 346.941875 312.061346 
L 342.544309 316.659478 
Q 340.4708 318.827555 342.638878 320.901064 
L 349.633186 327.59029 
Q 351.801264 329.663799 353.874773 327.495722 
z
" clip-path="url(#p9049132b80)" style="fill: #ffffff; stroke: #ffffff; stroke-linejoin: miter"/>
    </g>
    <g clip-path="url(#p9049132b80)">
     <!-- 3 -->
     <g transform="translate(350.203721 323.984796) rotate(-46.277234) scale(0.1 -0.1)">
      <defs>
       <path id="DejaVuSans-33" d="M 2597 2516 
Q 3050 2419 3304 2112 
Q 3559 1806 3559 1356 
Q 3559 666 3084 287 
Q 2609 -91 1734 -91 
Q 1441 -91 1130 -33 
Q 819 25 488 141 
L 488 750 
Q 750 597 1062 519 
Q 1375 441 1716 441 
Q 2309 441 2620 675 
Q 2931 909 2931 1356 
Q 2931 1769 2642 2001 
Q 2353 2234 1838 2234 
L 1294 2234 
L 1294 2753 
L 1863 2753 
Q 2328 2753 2575 2939 
Q 2822 3125 2822 3475 
Q 2822 3834 2567 4026 
Q 2313 4219 1838 4219 
Q 1578 4219 1281 4162 
Q 984 4106 628 3988 
L 628 4550 
Q 988 4650 1302 4700 
Q 1616 4750 1894 4750 
Q 2613 4750 3031 4423 
Q 3450 4097 3450 3541 
Q 3450 3153 3228 2886 
Q 3006 2619 2597 2516 
z
" transform="scale(0.015625)"/>
      </defs>
      <use xlink:href="#DejaVuSans-33"/>
     </g>
    </g>
   </g>
   <g id="text_4">
    <g id="patch_6">
     <path d="M 154.564338 380.996759 
L 157.422085 386.68136 
Q 158.76955 389.361722 161.449912 388.014257 
L 170.09687 383.667281 
Q 172.777232 382.319816 171.429768 379.639455 
L 168.57202 373.954854 
Q 167.224556 371.274492 164.544194 372.621957 
L 155.897235 376.968933 
Q 153.216873 378.316398 154.564338 380.996759 
z
" clip-path="url(#p9049132b80)" style="fill: #ffffff; stroke: #ffffff; stroke-linejoin: miter"/>
    </g>
    <g clip-path="url(#p9049132b80)">
     <!-- 2 -->
     <g transform="translate(159.102804 378.715193) rotate(-296.689472) scale(0.1 -0.1)">
      <defs>
       <path id="DejaVuSans-32" d="M 1228 531 
L 3431 531 
L 3431 0 
L 469 0 
L 469 531 
Q 828 903 1448 1529 
Q 2069 2156 2228 2338 
Q 2531 2678 2651 2914 
Q 2772 3150 2772 3378 
Q 2772 3750 2511 3984 
Q 2250 4219 1831 4219 
Q 1534 4219 1204 4116 
Q 875 4013 500 3803 
L 500 4441 
Q 881 4594 1212 4672 
Q 1544 4750 1819 4750 
Q 2544 4750 2975 4387 
Q 3406 4025 3406 3419 
Q 3406 3131 3298 2873 
Q 3191 2616 2906 2266 
Q 2828 2175 2409 1742 
Q 1991 1309 1228 531 
z
" transform="scale(0.015625)"/>
      </defs>
      <use xlink:href="#DejaVuSans-32"/>
     </g>
    </g>
   </g>
   <g id="text_5">
    <g id="patch_7">
     <path d="M 293.426281 49.502657 
L 306.057444 47.960142 
Q 309.035321 47.596484 308.671663 44.618607 
L 307.498488 35.011851 
Q 307.13483 32.033974 304.156953 32.397632 
L 291.52579 33.940147 
Q 288.547913 34.303805 288.911571 37.281682 
L 290.084746 46.888438 
Q 290.448404 49.866315 293.426281 49.502657 
z
" clip-path="url(#p9049132b80)" style="fill: #ffffff; stroke: #ffffff; stroke-linejoin: miter"/>
    </g>
    <g clip-path="url(#p9049132b80)">
     <!-- 17 -->
     <g transform="translate(292.810525 44.460429) rotate(-6.962476) scale(0.1 -0.1)">
      <defs>
       <path id="DejaVuSans-37" d="M 525 4666 
L 3525 4666 
L 3525 4397 
L 1831 0 
L 1172 0 
L 2766 4134 
L 525 4134 
L 525 4666 
z
" transform="scale(0.015625)"/>
      </defs>
      <use xlink:href="#DejaVuSans-31"/>
      <use xlink:href="#DejaVuSans-37" x="63.623047"/>
     </g>
    </g>
   </g>
   <g id="text_6">
    <g id="patch_8">
     <path d="M 306.11019 237.268434 
L 313.130284 247.881817 
Q 314.785316 250.38399 317.287489 248.728958 
L 325.359603 243.389756 
Q 327.861776 241.734724 326.206744 239.232551 
L 319.18665 228.619168 
Q 317.531618 226.116995 315.029445 227.772027 
L 306.957331 233.111229 
Q 304.455158 234.766261 306.11019 237.268434 
z
" clip-path="url(#p9049132b80)" style="fill: #ffffff; stroke: #ffffff; stroke-linejoin: miter"/>
    </g>
    <g clip-path="url(#p9049132b80)">
     <!-- 18 -->
     <g transform="translate(310.346943 234.466085) rotate(-303.482161) scale(0.1 -0.1)">
      <defs>
       <path id="DejaVuSans-38" d="M 2034 2216 
Q 1584 2216 1326 1975 
Q 1069 1734 1069 1313 
Q 1069 891 1326 650 
Q 1584 409 2034 409 
Q 2484 409 2743 651 
Q 3003 894 3003 1313 
Q 3003 1734 2745 1975 
Q 2488 2216 2034 2216 
z
M 1403 2484 
Q 997 2584 770 2862 
Q 544 3141 544 3541 
Q 544 4100 942 4425 
Q 1341 4750 2034 4750 
Q 2731 4750 3128 4425 
Q 3525 4100 3525 3541 
Q 3525 3141 3298 2862 
Q 3072 2584 2669 2484 
Q 3125 2378 3379 2068 
Q 3634 1759 3634 1313 
Q 3634 634 3220 271 
Q 2806 -91 2034 -91 
Q 1263 -91 848 271 
Q 434 634 434 1313 
Q 434 1759 690 2068 
Q 947 2378 1403 2484 
z
M 1172 3481 
Q 1172 3119 1398 2916 
Q 1625 2713 2034 2713 
Q 2441 2713 2670 2916 
Q 2900 3119 2900 3481 
Q 2900 3844 2670 4047 
Q 2441 4250 2034 4250 
Q 1625 4250 1398 4047 
Q 1172 3844 1172 3481 
z
" transform="scale(0.015625)"/>
      </defs>
      <use xlink:href="#DejaVuSans-31"/>
      <use xlink:href="#DejaVuSans-38" x="63.623047"/>
     </g>
    </g>
   </g>
   <g id="text_7">
    <g id="patch_9">
     <path d="M 158.013058 304.18879 
L 168.768144 310.9898 
Q 171.303724 312.593182 172.907106 310.057602 
L 178.079682 301.877714 
Q 179.683064 299.342134 177.147483 297.738752 
L 166.392397 290.937742 
Q 163.856817 289.33436 162.253435 291.86994 
L 157.080859 300.049828 
Q 155.477478 302.585408 158.013058 304.18879 
z
" clip-path="url(#p9049132b80)" style="fill: #ffffff; stroke: #ffffff; stroke-linejoin: miter"/>
    </g>
    <g clip-path="url(#p9049132b80)">
     <!-- 19 -->
     <g transform="translate(160.72795 299.895472) rotate(-327.692666) scale(0.1 -0.1)">
      <defs>
       <path id="DejaVuSans-39" d="M 703 97 
L 703 672 
Q 941 559 1184 500 
Q 1428 441 1663 441 
Q 2288 441 2617 861 
Q 2947 1281 2994 2138 
Q 2813 1869 2534 1725 
Q 2256 1581 1919 1581 
Q 1219 1581 811 2004 
Q 403 2428 403 3163 
Q 403 3881 828 4315 
Q 1253 4750 1959 4750 
Q 2769 4750 3195 4129 
Q 3622 3509 3622 2328 
Q 3622 1225 3098 567 
Q 2575 -91 1691 -91 
Q 1453 -91 1209 -44 
Q 966 3 703 97 
z
M 1959 2075 
Q 2384 2075 2632 2365 
Q 2881 2656 2881 3163 
Q 2881 3666 2632 3958 
Q 2384 4250 1959 4250 
Q 1534 4250 1286 3958 
Q 1038 3666 1038 3163 
Q 1038 2656 1286 2365 
Q 1534 2075 1959 2075 
z
" transform="scale(0.015625)"/>
      </defs>
      <use xlink:href="#DejaVuSans-31"/>
      <use xlink:href="#DejaVuSans-39" x="63.623047"/>
     </g>
    </g>
   </g>
   <g id="text_8">
    <g id="patch_10">
     <path d="M 321.578882 383.471719 
L 327.466653 385.883268 
Q 330.242812 387.020344 331.379887 384.244185 
L 335.048142 375.288181 
Q 336.185218 372.512022 333.409059 371.374946 
L 327.521289 368.963397 
Q 324.74513 367.826321 323.608054 370.60248 
L 319.939799 379.558484 
Q 318.802723 382.334643 321.578882 383.471719 
z
" clip-path="url(#p9049132b80)" style="fill: #ffffff; stroke: #ffffff; stroke-linejoin: miter"/>
    </g>
    <g clip-path="url(#p9049132b80)">
     <!-- 1 -->
     <g transform="translate(323.504212 378.771046) rotate(-337.726678) scale(0.1 -0.1)">
      <use xlink:href="#DejaVuSans-31"/>
     </g>
    </g>
   </g>
   <g id="text_9">
    <g id="patch_11">
     <path d="M 110.536137 274.341654 
L 110.536137 287.066654 
Q 110.536137 290.066654 113.536137 290.066654 
L 123.214262 290.066654 
Q 126.214262 290.066654 126.214262 287.066654 
L 126.214262 274.341654 
Q 126.214262 271.341654 123.214262 271.341654 
L 113.536137 271.341654 
Q 110.536137 271.341654 110.536137 274.341654 
z
" clip-path="url(#p9049132b80)" style="fill: #ffffff; stroke: #ffffff; stroke-linejoin: miter"/>
    </g>
    <g clip-path="url(#p9049132b80)">
     <!-- 15 -->
     <g transform="translate(115.615825 274.341654) rotate(-270) scale(0.1 -0.1)">
      <use xlink:href="#DejaVuSans-31"/>
      <use xlink:href="#DejaVuSans-35" x="63.623047"/>
     </g>
    </g>
   </g>
   <g id="text_10">
    <g id="patch_12">
     <path d="M 349.180873 222.694189 
L 351.127856 216.636908 
Q 352.045884 213.780822 349.189798 212.862794 
L 339.975947 209.901199 
Q 337.119861 208.983172 336.201834 211.839257 
L 334.25485 217.896539 
Q 333.336823 220.752625 336.192908 221.670652 
L 345.40676 224.632247 
Q 348.262845 225.550275 349.180873 222.694189 
z
" clip-path="url(#p9049132b80)" style="fill: #ffffff; stroke: #ffffff; stroke-linejoin: miter"/>
    </g>
    <g clip-path="url(#p9049132b80)">
     <!-- 4 -->
     <g transform="translate(344.344865 221.139758) rotate(-72.181111) scale(0.1 -0.1)">
      <defs>
       <path id="DejaVuSans-34" d="M 2419 4116 
L 825 1625 
L 2419 1625 
L 2419 4116 
z
M 2253 4666 
L 3047 4666 
L 3047 1625 
L 3713 1625 
L 3713 1100 
L 3047 1100 
L 3047 0 
L 2419 0 
L 2419 1100 
L 313 1100 
L 313 1709 
L 2253 4666 
z
" transform="scale(0.015625)"/>
      </defs>
      <use xlink:href="#DejaVuSans-34"/>
     </g>
    </g>
   </g>
   <g id="text_11">
    <g id="patch_13">
     <path d="M 191.264577 348.4826 
L 196.592914 351.959702 
Q 199.105292 353.5992 200.74479 351.086821 
L 206.033879 342.981782 
Q 207.673377 340.469404 205.160998 338.829906 
L 199.832661 335.352804 
Q 197.320283 333.713306 195.680785 336.225685 
L 190.391696 344.330723 
Q 188.752199 346.843102 191.264577 348.4826 
z
" clip-path="url(#p9049132b80)" style="fill: #ffffff; stroke: #ffffff; stroke-linejoin: miter"/>
    </g>
    <g clip-path="url(#p9049132b80)">
     <!-- 7 -->
     <g transform="translate(194.040623 344.228567) rotate(-326.87282) scale(0.1 -0.1)">
      <use xlink:href="#DejaVuSans-37"/>
     </g>
    </g>
   </g>
   <g id="text_12">
    <g id="patch_14">
     <path d="M 472.006655 304.511375 
L 474.71673 292.07831 
Q 475.355648 289.147135 472.424473 288.508218 
L 462.968382 286.447043 
Q 460.037208 285.808125 459.39829 288.7393 
L 456.688215 301.172365 
Q 456.049297 304.10354 458.980472 304.742457 
L 468.436563 306.803632 
Q 471.367737 307.44255 472.006655 304.511375 
z
" clip-path="url(#p9049132b80)" style="fill: #ffffff; stroke: #ffffff; stroke-linejoin: miter"/>
    </g>
    <g clip-path="url(#p9049132b80)">
     <!-- 10 -->
     <g transform="translate(467.043505 303.429541) rotate(-77.703393) scale(0.1 -0.1)">
      <defs>
       <path id="DejaVuSans-30" d="M 2034 4250 
Q 1547 4250 1301 3770 
Q 1056 3291 1056 2328 
Q 1056 1369 1301 889 
Q 1547 409 2034 409 
Q 2525 409 2770 889 
Q 3016 1369 3016 2328 
Q 3016 3291 2770 3770 
Q 2525 4250 2034 4250 
z
M 2034 4750 
Q 2819 4750 3233 4129 
Q 3647 3509 3647 2328 
Q 3647 1150 3233 529 
Q 2819 -91 2034 -91 
Q 1250 -91 836 529 
Q 422 1150 422 2328 
Q 422 3509 836 4129 
Q 1250 4750 2034 4750 
z
" transform="scale(0.015625)"/>
      </defs>
      <use xlink:href="#DejaVuSans-31"/>
      <use xlink:href="#DejaVuSans-30" x="63.623047"/>
     </g>
    </g>
   </g>
   <g id="text_13">
    <g id="patch_15">
     <path d="M 211.722166 216.185892 
L 213.692555 222.235601 
Q 214.621618 225.088116 217.474133 224.159052 
L 226.676465 221.161855 
Q 229.52898 220.232792 228.599916 217.380277 
L 226.629528 211.330568 
Q 225.700464 208.478053 222.84795 209.407117 
L 213.645618 212.404314 
Q 210.793103 213.333377 211.722166 216.185892 
z
" clip-path="url(#p9049132b80)" style="fill: #ffffff; stroke: #ffffff; stroke-linejoin: miter"/>
    </g>
    <g clip-path="url(#p9049132b80)">
     <!-- 3 -->
     <g transform="translate(216.552128 214.612775) rotate(-288.040416) scale(0.1 -0.1)">
      <use xlink:href="#DejaVuSans-33"/>
     </g>
    </g>
   </g>
   <g id="matplotlib.axis_1">
    <g id="xtick_1">
     <g id="line2d_1">
      <path d="M 10.8 493.2 
L 10.8 10.8 
" clip-path="url(#p9049132b80)" style="fill: none; stroke: #b0b0b0; stroke-opacity: 0.3; stroke-width: 0.8; stroke-linecap: square"/>
     </g>
    </g>
    <g id="xtick_2">
     <g id="line2d_2">
      <path d="M 59.04 493.2 
L 59.04 10.8 
" clip-path="url(#p9049132b80)" style="fill: none; stroke: #b0b0b0; stroke-opacity: 0.3; stroke-width: 0.8; stroke-linecap: square"/>
     </g>
    </g>
    <g id="xtick_3">
     <g id="line2d_3">
      <path d="M 107.28 493.2 
L 107.28 10.8 
" clip-path="url(#p9049132b80)" style="fill: none; stroke: #b0b0b0; stroke-opacity: 0.3; stroke-width: 0.8; stroke-linecap: square"/>
     </g>
    </g>
    <g id="xtick_4">
     <g id="line2d_4">
      <path d="M 155.52 493.2 
L 155.52 10.8 
" clip-path="url(#p9049132b80)" style="fill: none; stroke: #b0b0b0; stroke-opacity: 0.3; stroke-width: 0.8; stroke-linecap: square"/>
     </g>
    </g>
    <g id="xtick_5">
     <g id="line2d_5">
      <path d="M 203.76 493.2 
L 203.76 10.8 
" clip-path="url(#p9049132b80)" style="fill: none; stroke: #b0b0b0; stroke-opacity: 0.3; stroke-width: 0.8; stroke-linecap: square"/>
     </g>
    </g>
    <g id="xtick_6">
     <g id="line2d_6">
      <path d="M 252 493.2 
L 252 10.8 
" clip-path="url(#p9049132b80)" style="fill: none; stroke: #b0b0b0; stroke-opacity: 0.3; stroke-width: 0.8; stroke-linecap: square"/>
     </g>
    </g>
    <g id="xtick_7">
     <g id="line2d_7">
      <path d="M 300.24 493.2 
L 300.24 10.8 
" clip-path="url(#p9049132b80)" style="fill: none; stroke: #b0b0b0; stroke-opacity: 0.3; stroke-width: 0.8; stroke-linecap: square"/>
     </g>
    </g>
    <g id="xtick_8">
     <g id="line2d_8">
      <path d="M 348.48 493.2 
L 348.48 10.8 
" clip-path="url(#p9049132b80)" style="fill: none; stroke: #b0b0b0; stroke-opacity: 0.3; stroke-width: 0.8; stroke-linecap: square"/>
     </g>
    </g>
    <g id="xtick_9">
     <g id="line2d_9">
      <path d="M 396.72 493.2 
L 396.72 10.8 
" clip-path="url(#p9049132b80)" style="fill: none; stroke: #b0b0b0; stroke-opacity: 0.3; stroke-width: 0.8; stroke-linecap: square"/>
     </g>
    </g>
    <g id="xtick_10">
     <g id="line2d_10">
      <path d="M 444.96 493.2 
L 444.96 10.8 
" clip-path="url(#p9049132b80)" style="fill: none; stroke: #b0b0b0; stroke-opacity: 0.3; stroke-width: 0.8; stroke-linecap: square"/>
     </g>
    </g>
    <g id="xtick_11">
     <g id="line2d_11">
      <path d="M 493.2 493.2 
L 493.2 10.8 
" clip-path="url(#p9049132b80)" style="fill: none; stroke: #b0b0b0; stroke-opacity: 0.3; stroke-width: 0.8; stroke-linecap: square"/>
     </g>
    </g>
   </g>
   <g id="matplotlib.axis_2">
    <g id="ytick_1">
     <g id="line2d_12">
      <path d="M 10.8 493.2 
L 493.2 493.2 
" clip-path="url(#p9049132b80)" style="fill: none; stroke: #b0b0b0; stroke-opacity: 0.3; stroke-width: 0.8; stroke-linecap: square"/>
     </g>
    </g>
    <g id="ytick_2">
     <g id="line2d_13">
      <path d="M 10.8 444.96 
L 493.2 444.96 
" clip-path="url(#p9049132b80)" style="fill: none; stroke: #b0b0b0; stroke-opacity: 0.3; stroke-width: 0.8; stroke-linecap: square"/>
     </g>
    </g>
    <g id="ytick_3">
     <g id="line2d_14">
      <path d="M 10.8 396.72 
L 493.2 396.72 
" clip-path="url(#p9049132b80)" style="fill: none; stroke: #b0b0b0; stroke-opacity: 0.3; stroke-width: 0.8; stroke-linecap: square"/>
     </g>
    </g>
    <g id="ytick_4">
     <g id="line2d_15">
      <path d="M 10.8 348.48 
L 493.2 348.48 
" clip-path="url(#p9049132b80)" style="fill: none; stroke: #b0b0b0; stroke-opacity: 0.3; stroke-width: 0.8; stroke-linecap: square"/>
     </g>
    </g>
    <g id="ytick_5">
     <g id="line2d_16">
      <path d="M 10.8 300.24 
L 493.2 300.24 
" clip-path="url(#p9049132b80)" style="fill: none; stroke: #b0b0b0; stroke-opacity: 0.3; stroke-width: 0.8; stroke-linecap: square"/>
     </g>
    </g>
    <g id="ytick_6">
     <g id="line2d_17">
      <path d="M 10.8 252 
L 493.2 252 
" clip-path="url(#p9049132b80)" style="fill: none; stroke: #b0b0b0; stroke-opacity: 0.3; stroke-width: 0.8; stroke-linecap: square"/>
     </g>
    </g>
    <g id="ytick_7">
     <g id="line2d_18">
      <path d="M 10.8 203.76 
L 493.2 203.76 
" clip-path="url(#p9049132b80)" style="fill: none; stroke: #b0b0b0; stroke-opacity: 0.3; stroke-width: 0.8; stroke-linecap: square"/>
     </g>
    </g>
    <g id="ytick_8">
     <g id="line2d_19">
      <path d="M 10.8 155.52 
L 493.2 155.52 
" clip-path="url(#p9049132b80)" style="fill: none; stroke: #b0b0b0; stroke-opacity: 0.3; stroke-width: 0.8; stroke-linecap: square"/>
     </g>
    </g>
    <g id="ytick_9">
     <g id="line2d_20">
      <path d="M 10.8 107.28 
L 493.2 107.28 
" clip-path="url(#p9049132b80)" style="fill: none; stroke: #b0b0b0; stroke-opacity: 0.3; stroke-width: 0.8; stroke-linecap: square"/>
     </g>
    </g>
    <g id="ytick_10">
     <g id="line2d_21">
      <path d="M 10.8 59.04 
L 493.2 59.04 
" clip-path="url(#p9049132b80)" style="fill: none; stroke: #b0b0b0; stroke-opacity: 0.3; stroke-width: 0.8; stroke-linecap: square"/>
     </g>
    </g>
    <g id="ytick_11">
     <g id="line2d_22">
      <path d="M 10.8 10.8 
L 493.2 10.8 
" clip-path="url(#p9049132b80)" style="fill: none; stroke: #b0b0b0; stroke-opacity: 0.3; stroke-width: 0.8; stroke-linecap: square"/>
     </g>
    </g>
   </g>
   <g id="PathCollection_1">
    <defs>
     <path id="m09d2a2491a" d="M 0 8.660254 
C 2.296726 8.660254 4.499694 7.747755 6.123724 6.123724 
C 7.747755 4.499694 8.660254 2.296726 8.660254 0 
C 8.660254 -2.296726 7.747755 -4.499694 6.123724 -6.123724 
C 4.499694 -7.747755 2.296726 -8.660254 0 -8.660254 
C -2.296726 -8.660254 -4.499694 -7.747755 -6.123724 -6.123724 
C -7.747755 -4.499694 -8.660254 -2.296726 -8.660254 0 
C -8.660254 2.296726 -7.747755 4.499694 -6.123724 6.123724 
C -4.499694 7.747755 -2.296726 8.660254 0 8.660254 
z
" style="stroke: #1f78b4"/>
    </defs>
    <g clip-path="url(#p9049132b80)">
     <use xlink:href="#m09d2a2491a" x="207.6192" y="469.08" style="fill: #1f78b4; stroke: #1f78b4"/>
     <use xlink:href="#m09d2a2491a" x="194.112" y="53.7336" style="fill: #1f78b4; stroke: #1f78b4"/>
     <use xlink:href="#m09d2a2491a" x="216.7848" y="332.0784" style="fill: #1f78b4; stroke: #1f78b4"/>
     <use xlink:href="#m09d2a2491a" x="118.3752" y="269.8488" style="fill: #1f78b4; stroke: #1f78b4"/>
     <use xlink:href="#m09d2a2491a" x="403.4736" y="28.1664" style="fill: #1f78b4; stroke: #1f78b4"/>
     <use xlink:href="#m09d2a2491a" x="278.0496" y="395.7552" style="fill: #1f78b4; stroke: #1f78b4"/>
     <use xlink:href="#m09d2a2491a" x="438.2064" y="422.7696" style="fill: #1f78b4; stroke: #1f78b4"/>
     <use xlink:href="#m09d2a2491a" x="118.3752" y="291.5568" style="fill: #1f78b4; stroke: #1f78b4"/>
     <use xlink:href="#m09d2a2491a" x="281.9088" y="406.368" style="fill: #1f78b4; stroke: #1f78b4"/>
     <use xlink:href="#m09d2a2491a" x="158.4144" y="27.2016" style="fill: #1f78b4; stroke: #1f78b4"/>
     <use xlink:href="#m09d2a2491a" x="493.2" y="170.4744" style="fill: #1f78b4; stroke: #1f78b4"/>
    </g>
   </g>
   <g id="patch_16">
    <path d="M 10.8 493.2 
L 10.8 10.8 
" style="fill: none; stroke: #000000; stroke-width: 0.8; stroke-linejoin: miter; stroke-linecap: square"/>
   </g>
   <g id="patch_17">
    <path d="M 493.2 493.2 
L 493.2 10.8 
" style="fill: none; stroke: #000000; stroke-width: 0.8; stroke-linejoin: miter; stroke-linecap: square"/>
   </g>
   <g id="patch_18">
    <path d="M 10.8 493.2 
L 493.2 493.2 
" style="fill: none; stroke: #000000; stroke-width: 0.8; stroke-linejoin: miter; stroke-linecap: square"/>
   </g>
   <g id="patch_19">
    <path d="M 10.8 10.8 
L 493.2 10.8 
" style="fill: none; stroke: #000000; stroke-width: 0.8; stroke-linejoin: miter; stroke-linecap: square"/>
   </g>
   <g id="text_14">
    <g clip-path="url(#p9049132b80)">
     <!-- 0 -->
     <g transform="translate(203.8017 472.39125) scale(0.12 -0.12)">
      <use xlink:href="#DejaVuSans-30"/>
     </g>
    </g>
   </g>
   <g id="text_15">
    <g clip-path="url(#p9049132b80)">
     <!-- 1 -->
     <g transform="translate(190.2945 57.04485) scale(0.12 -0.12)">
      <use xlink:href="#DejaVuSans-31"/>
     </g>
    </g>
   </g>
   <g id="text_16">
    <g clip-path="url(#p9049132b80)">
     <!-- 2 -->
     <g transform="translate(212.9673 335.38965) scale(0.12 -0.12)">
      <use xlink:href="#DejaVuSans-32"/>
     </g>
    </g>
   </g>
   <g id="text_17">
    <g clip-path="url(#p9049132b80)">
     <!-- 3 -->
     <g transform="translate(114.5577 273.16005) scale(0.12 -0.12)">
      <use xlink:href="#DejaVuSans-33"/>
     </g>
    </g>
   </g>
   <g id="text_18">
    <g clip-path="url(#p9049132b80)">
     <!-- 4 -->
     <g transform="translate(399.6561 31.47765) scale(0.12 -0.12)">
      <use xlink:href="#DejaVuSans-34"/>
     </g>
    </g>
   </g>
   <g id="text_19">
    <g clip-path="url(#p9049132b80)">
     <!-- 5 -->
     <g transform="translate(274.2321 399.06645) scale(0.12 -0.12)">
      <use xlink:href="#DejaVuSans-35"/>
     </g>
    </g>
   </g>
   <g id="text_20">
    <g clip-path="url(#p9049132b80)">
     <!-- 6 -->
     <g transform="translate(434.3889 426.08085) scale(0.12 -0.12)">
      <defs>
       <path id="DejaVuSans-36" d="M 2113 2584 
Q 1688 2584 1439 2293 
Q 1191 2003 1191 1497 
Q 1191 994 1439 701 
Q 1688 409 2113 409 
Q 2538 409 2786 701 
Q 3034 994 3034 1497 
Q 3034 2003 2786 2293 
Q 2538 2584 2113 2584 
z
M 3366 4563 
L 3366 3988 
Q 3128 4100 2886 4159 
Q 2644 4219 2406 4219 
Q 1781 4219 1451 3797 
Q 1122 3375 1075 2522 
Q 1259 2794 1537 2939 
Q 1816 3084 2150 3084 
Q 2853 3084 3261 2657 
Q 3669 2231 3669 1497 
Q 3669 778 3244 343 
Q 2819 -91 2113 -91 
Q 1303 -91 875 529 
Q 447 1150 447 2328 
Q 447 3434 972 4092 
Q 1497 4750 2381 4750 
Q 2619 4750 2861 4703 
Q 3103 4656 3366 4563 
z
" transform="scale(0.015625)"/>
      </defs>
      <use xlink:href="#DejaVuSans-36"/>
     </g>
    </g>
   </g>
   <g id="text_21">
    <g clip-path="url(#p9049132b80)">
     <!-- 7 -->
     <g transform="translate(114.5577 294.86805) scale(0.12 -0.12)">
      <use xlink:href="#DejaVuSans-37"/>
     </g>
    </g>
   </g>
   <g id="text_22">
    <g clip-path="url(#p9049132b80)">
     <!-- 8 -->
     <g transform="translate(278.0913 409.67925) scale(0.12 -0.12)">
      <use xlink:href="#DejaVuSans-38"/>
     </g>
    </g>
   </g>
   <g id="text_23">
    <g clip-path="url(#p9049132b80)">
     <!-- 9 -->
     <g transform="translate(154.5969 30.51285) scale(0.12 -0.12)">
      <use xlink:href="#DejaVuSans-39"/>
     </g>
    </g>
   </g>
   <g id="text_24">
    <g clip-path="url(#p9049132b80)">
     <!-- 10 -->
     <g transform="translate(485.565 173.78565) scale(0.12 -0.12)">
      <use xlink:href="#DejaVuSans-31"/>
      <use xlink:href="#DejaVuSans-30" x="63.623047"/>
     </g>
    </g>
   </g>
  </g>
 </g>
 <defs>
  <clipPath id="p9049132b80">
   <rect x="10.8" y="10.8" width="482.4" height="482.4"/>
  </clipPath>
 </defs>
</svg>
