<?xml version="1.0" encoding="utf-8" standalone="no"?>
<!DOCTYPE svg PUBLIC "-//W3C//DTD SVG 1.1//EN"
  "http://www.w3.org/Graphics/SVG/1.1/DTD/svg11.dtd">
<svg xmlns:xlink="http://www.w3.org/1999/xlink" width="504pt" height="504pt" viewBox="0 0 504 504" xmlns="http://www.w3.org/2000/svg" version="1.1">
 <metadata>
  <rdf:RDF xmlns:dc="http://purl.org/dc/elements/1.1/" xmlns:cc="http://creativecommons.org/ns#" xmlns:rdf="http://www.w3.org/1999/02/22-rdf-syntax-ns#">
   <cc:Work>
    <dc:type rdf:resource="http://purl.org/dc/dcmitype/StillImage"/>
    <dc:date>2024-10-29T14:59:37.820726</dc:date>
    <dc:format>image/svg+xml</dc:format>
    <dc:creator>
     <cc:Agent>
      <dc:title>Matplotlib v3.9.2, https://matplotlib.org/</dc:title>
     </cc:Agent>
    </dc:creator>
   </cc:Work>
  </rdf:RDF>
 </metadata>
 <defs>
  <style type="text/css">*{stroke-linejoin: round; stroke-linecap: butt}</style>
 </defs>
 <g id="figure_1">
  <g id="patch_1">
   <path d="M 0 504 
L 504 504 
L 504 0 
L 0 0 
L 0 504 
z
" style="fill: none; opacity: 0"/>
  </g>
  <g id="axes_1">
   <g id="patch_2">
    <path d="M 10.8 493.2 
L 493.2 493.2 
L 493.2 10.8 
L 10.8 10.8 
L 10.8 493.2 
z
" style="fill: none; opacity: 0"/>
   </g>
   <g id="LineCollection_1">
    <path d="M 83.16 138.1536 
L 90.396 95.22 
" clip-path="url(#p6c4d8ab94e)" style="fill: none; stroke: #000000"/>
    <path d="M 83.16 138.1536 
L 322.4304 386.5896 
" clip-path="url(#p6c4d8ab94e)" style="fill: none; stroke: #000000"/>
    <path d="M 83.16 138.1536 
L 239.4576 22.86 
" clip-path="url(#p6c4d8ab94e)" style="fill: none; stroke: #000000"/>
    <path d="M 83.16 138.1536 
L 185.9112 98.5968 
" clip-path="url(#p6c4d8ab94e)" style="fill: none; stroke: #000000"/>
    <path d="M 83.16 138.1536 
L 326.2896 299.2752 
" clip-path="url(#p6c4d8ab94e)" style="fill: none; stroke: #000000"/>
    <path d="M 83.16 138.1536 
L 327.2544 189.7704 
" clip-path="url(#p6c4d8ab94e)" style="fill: none; stroke: #000000"/>
    <path d="M 83.16 138.1536 
L 383.2128 284.8032 
" clip-path="url(#p6c4d8ab94e)" style="fill: none; stroke: #000000"/>
    <path d="M 126.0936 10.8 
L 68.2056 487.8936 
" clip-path="url(#p6c4d8ab94e)" style="fill: none; stroke: #000000"/>
    <path d="M 126.0936 10.8 
L 185.9112 98.5968 
" clip-path="url(#p6c4d8ab94e)" style="fill: none; stroke: #000000"/>
    <path d="M 126.0936 10.8 
L 239.4576 22.86 
" clip-path="url(#p6c4d8ab94e)" style="fill: none; stroke: #000000"/>
    <path d="M 126.0936 10.8 
L 461.844 364.3992 
" clip-path="url(#p6c4d8ab94e)" style="fill: none; stroke: #000000"/>
    <path d="M 126.0936 10.8 
L 383.2128 284.8032 
" clip-path="url(#p6c4d8ab94e)" style="fill: none; stroke: #000000"/>
    <path d="M 68.2056 487.8936 
L 461.844 364.3992 
" clip-path="url(#p6c4d8ab94e)" style="fill: none; stroke: #000000"/>
    <path d="M 68.2056 487.8936 
L 326.2896 299.2752 
" clip-path="url(#p6c4d8ab94e)" style="fill: none; stroke: #000000"/>
    <path d="M 68.2056 487.8936 
L 90.396 95.22 
" clip-path="url(#p6c4d8ab94e)" style="fill: none; stroke: #000000"/>
    <path d="M 461.844 364.3992 
L 303.6168 94.7376 
" clip-path="url(#p6c4d8ab94e)" style="fill: none; stroke: #000000"/>
    <path d="M 461.844 364.3992 
L 327.2544 189.7704 
" clip-path="url(#p6c4d8ab94e)" style="fill: none; stroke: #000000"/>
    <path d="M 461.844 364.3992 
L 322.4304 386.5896 
" clip-path="url(#p6c4d8ab94e)" style="fill: none; stroke: #000000"/>
    <path d="M 461.844 364.3992 
L 185.9112 98.5968 
" clip-path="url(#p6c4d8ab94e)" style="fill: none; stroke: #000000"/>
    <path d="M 383.2128 284.8032 
L 326.2896 299.2752 
" clip-path="url(#p6c4d8ab94e)" style="fill: none; stroke: #000000"/>
    <path d="M 383.2128 284.8032 
L 322.4304 386.5896 
" clip-path="url(#p6c4d8ab94e)" style="fill: none; stroke: #000000"/>
    <path d="M 383.2128 284.8032 
L 239.4576 22.86 
" clip-path="url(#p6c4d8ab94e)" style="fill: none; stroke: #000000"/>
    <path d="M 383.2128 284.8032 
L 90.396 95.22 
" clip-path="url(#p6c4d8ab94e)" style="fill: none; stroke: #000000"/>
    <path d="M 322.4304 386.5896 
L 185.9112 98.5968 
" clip-path="url(#p6c4d8ab94e)" style="fill: none; stroke: #000000"/>
    <path d="M 322.4304 386.5896 
L 303.6168 94.7376 
" clip-path="url(#p6c4d8ab94e)" style="fill: none; stroke: #000000"/>
    <path d="M 185.9112 98.5968 
L 239.4576 22.86 
" clip-path="url(#p6c4d8ab94e)" style="fill: none; stroke: #000000"/>
    <path d="M 185.9112 98.5968 
L 90.396 95.22 
" clip-path="url(#p6c4d8ab94e)" style="fill: none; stroke: #000000"/>
    <path d="M 327.2544 189.7704 
L 303.6168 94.7376 
" clip-path="url(#p6c4d8ab94e)" style="fill: none; stroke: #000000"/>
    <path d="M 327.2544 189.7704 
L 326.2896 299.2752 
" clip-path="url(#p6c4d8ab94e)" style="fill: none; stroke: #000000"/>
    <path d="M 326.2896 299.2752 
L 90.396 95.22 
" clip-path="url(#p6c4d8ab94e)" style="fill: none; stroke: #000000"/>
    <path d="M 326.2896 299.2752 
L 303.6168 94.7376 
" clip-path="url(#p6c4d8ab94e)" style="fill: none; stroke: #000000"/>
    <path d="M 90.396 95.22 
L 239.4576 22.86 
" clip-path="url(#p6c4d8ab94e)" style="fill: none; stroke: #000000"/>
    <path d="M 90.396 95.22 
L 303.6168 94.7376 
" clip-path="url(#p6c4d8ab94e)" style="fill: none; stroke: #000000"/>
   </g>
   <g id="text_1">
    <g id="patch_3">
     <path d="M 93.450311 124.265495 
L 95.565148 111.717463 
Q 96.063734 108.759185 93.105456 108.260599 
L 83.561926 106.652139 
Q 80.603647 106.153552 80.105061 109.111831 
L 77.990224 121.659862 
Q 77.491638 124.618141 80.449917 125.116727 
L 89.993446 126.725187 
Q 92.951725 127.223773 93.450311 124.265495 
z
" clip-path="url(#p6c4d8ab94e)" style="fill: #ffffff; stroke: #ffffff; stroke-linejoin: miter"/>
    </g>
    <g clip-path="url(#p6c4d8ab94e)">
     <!-- 19 -->
     <g transform="translate(88.441268 123.421274) rotate(-80.433314) scale(0.1 -0.1)">
      <defs>
       <path id="DejaVuSans-31" d="M 794 531 
L 1825 531 
L 1825 4091 
L 703 3866 
L 703 4441 
L 1819 4666 
L 2450 4666 
L 2450 531 
L 3481 531 
L 3481 0 
L 794 0 
L 794 531 
z
" transform="scale(0.015625)"/>
       <path id="DejaVuSans-39" d="M 703 97 
L 703 672 
Q 941 559 1184 500 
Q 1428 441 1663 441 
Q 2288 441 2617 861 
Q 2947 1281 2994 2138 
Q 2813 1869 2534 1725 
Q 2256 1581 1919 1581 
Q 1219 1581 811 2004 
Q 403 2428 403 3163 
Q 403 3881 828 4315 
Q 1253 4750 1959 4750 
Q 2769 4750 3195 4129 
Q 3622 3509 3622 2328 
Q 3622 1225 3098 567 
Q 2575 -91 1691 -91 
Q 1453 -91 1209 -44 
Q 966 3 703 97 
z
M 1959 2075 
Q 2384 2075 2632 2365 
Q 2881 2656 2881 3163 
Q 2881 3666 2632 3958 
Q 2384 4250 1959 4250 
Q 1534 4250 1286 3958 
Q 1038 3666 1038 3163 
Q 1038 2656 1286 2365 
Q 1534 2075 1959 2075 
z
" transform="scale(0.015625)"/>
      </defs>
      <use xlink:href="#DejaVuSans-31"/>
      <use xlink:href="#DejaVuSans-39" x="63.623047"/>
     </g>
    </g>
   </g>
   <g id="text_2">
    <g id="patch_4">
     <path d="M 192.736009 263.227516 
L 201.563284 272.392932 
Q 203.64437 274.553737 205.805176 272.472651 
L 212.776024 265.75898 
Q 214.936829 263.677893 212.855743 261.517088 
L 204.028468 252.351672 
Q 201.947382 250.190867 199.786577 252.271953 
L 192.815728 258.985624 
Q 190.654923 261.06671 192.736009 263.227516 
z
" clip-path="url(#p6c4d8ab94e)" style="fill: #ffffff; stroke: #ffffff; stroke-linejoin: miter"/>
    </g>
    <g clip-path="url(#p6c4d8ab94e)">
     <!-- 14 -->
     <g transform="translate(196.394748 259.70376) rotate(-313.923351) scale(0.1 -0.1)">
      <defs>
       <path id="DejaVuSans-34" d="M 2419 4116 
L 825 1625 
L 2419 1625 
L 2419 4116 
z
M 2253 4666 
L 3047 4666 
L 3047 1625 
L 3713 1625 
L 3713 1100 
L 3047 1100 
L 3047 0 
L 2419 0 
L 2419 1100 
L 313 1100 
L 313 1709 
L 2253 4666 
z
" transform="scale(0.015625)"/>
      </defs>
      <use xlink:href="#DejaVuSans-31"/>
      <use xlink:href="#DejaVuSans-34" x="63.623047"/>
     </g>
    </g>
   </g>
   <g id="text_3">
    <g id="patch_5">
     <path d="M 160.842583 90.591776 
L 171.082945 83.037928 
Q 173.497176 81.25706 171.716308 78.84283 
L 165.971155 71.054421 
Q 164.190287 68.64019 161.776056 70.421058 
L 151.535694 77.974905 
Q 149.121463 79.755773 150.902331 82.170004 
L 156.647485 89.958413 
Q 158.428352 92.372643 160.842583 90.591776 
z
" clip-path="url(#p6c4d8ab94e)" style="fill: #ffffff; stroke: #ffffff; stroke-linejoin: miter"/>
    </g>
    <g clip-path="url(#p6c4d8ab94e)">
     <!-- 11 -->
     <g transform="translate(157.827166 86.50393) rotate(-36.414501) scale(0.1 -0.1)">
      <use xlink:href="#DejaVuSans-31"/>
      <use xlink:href="#DejaVuSans-31" x="63.623047"/>
     </g>
    </g>
   </g>
   <g id="text_4">
    <g id="patch_6">
     <path d="M 131.414216 127.976761 
L 143.289601 123.405017 
Q 146.089299 122.327199 145.011481 119.527501 
L 141.534396 110.495559 
Q 140.456578 107.695861 137.65688 108.773679 
L 125.781494 113.345423 
Q 122.981796 114.423241 124.059614 117.222939 
L 127.5367 126.254881 
Q 128.614518 129.054579 131.414216 127.976761 
z
" clip-path="url(#p6c4d8ab94e)" style="fill: #ffffff; stroke: #ffffff; stroke-linejoin: miter"/>
    </g>
    <g clip-path="url(#p6c4d8ab94e)">
     <!-- 12 -->
     <g transform="translate(129.589223 123.236231) rotate(-21.055534) scale(0.1 -0.1)">
      <defs>
       <path id="DejaVuSans-32" d="M 1228 531 
L 3431 531 
L 3431 0 
L 469 0 
L 469 531 
Q 828 903 1448 1529 
Q 2069 2156 2228 2338 
Q 2531 2678 2651 2914 
Q 2772 3150 2772 3378 
Q 2772 3750 2511 3984 
Q 2250 4219 1831 4219 
Q 1534 4219 1204 4116 
Q 875 4013 500 3803 
L 500 4441 
Q 881 4594 1212 4672 
Q 1544 4750 1819 4750 
Q 2544 4750 2975 4387 
Q 3406 4025 3406 3419 
Q 3406 3131 3298 2873 
Q 3191 2616 2906 2266 
Q 2828 2175 2409 1742 
Q 1991 1309 1228 531 
z
" transform="scale(0.015625)"/>
      </defs>
      <use xlink:href="#DejaVuSans-31"/>
      <use xlink:href="#DejaVuSans-32" x="63.623047"/>
     </g>
    </g>
   </g>
   <g id="text_5">
    <g id="patch_7">
     <path d="M 195.089907 221.733533 
L 205.697134 228.762925 
Q 208.197856 230.420149 209.85508 227.919428 
L 215.201354 219.851996 
Q 216.858578 217.351275 214.357857 215.69405 
L 203.75063 208.664658 
Q 201.249908 207.007434 199.592684 209.508155 
L 194.24641 217.575587 
Q 192.589186 220.076309 195.089907 221.733533 
z
" clip-path="url(#p6c4d8ab94e)" style="fill: #ffffff; stroke: #ffffff; stroke-linejoin: miter"/>
    </g>
    <g clip-path="url(#p6c4d8ab94e)">
     <!-- 19 -->
     <g transform="translate(197.895967 217.499238) rotate(-326.467627) scale(0.1 -0.1)">
      <use xlink:href="#DejaVuSans-31"/>
      <use xlink:href="#DejaVuSans-39" x="63.623047"/>
     </g>
    </g>
   </g>
   <g id="text_6">
    <g id="patch_8">
     <path d="M 197.360216 170.315071 
L 209.809908 172.947713 
Q 212.745002 173.568375 213.365664 170.633281 
L 215.367946 161.164544 
Q 215.988609 158.22945 213.053514 157.608788 
L 200.603823 154.976146 
Q 197.668729 154.355483 197.048066 157.290578 
L 195.045784 166.759314 
Q 194.425122 169.694408 197.360216 170.315071 
z
" clip-path="url(#p6c4d8ab94e)" style="fill: #ffffff; stroke: #ffffff; stroke-linejoin: miter"/>
    </g>
    <g clip-path="url(#p6c4d8ab94e)">
     <!-- 17 -->
     <g transform="translate(198.41114 165.345283) rotate(-348.059991) scale(0.1 -0.1)">
      <defs>
       <path id="DejaVuSans-37" d="M 525 4666 
L 3525 4666 
L 3525 4397 
L 1831 0 
L 1172 0 
L 2766 4134 
L 525 4134 
L 525 4666 
z
" transform="scale(0.015625)"/>
      </defs>
      <use xlink:href="#DejaVuSans-31"/>
      <use xlink:href="#DejaVuSans-37" x="63.623047"/>
     </g>
    </g>
   </g>
   <g id="text_7">
    <g id="patch_9">
     <path d="M 226.885502 217.124103 
L 232.601795 219.917918 
Q 235.2971 221.235238 236.61442 218.539933 
L 240.864147 209.844766 
Q 242.181467 207.149461 239.486162 205.832142 
L 233.769869 203.038327 
Q 231.074564 201.721007 229.757244 204.416312 
L 225.507517 213.111479 
Q 224.190197 215.806784 226.885502 217.124103 
z
" clip-path="url(#p6c4d8ab94e)" style="fill: #ffffff; stroke: #ffffff; stroke-linejoin: miter"/>
    </g>
    <g clip-path="url(#p6c4d8ab94e)">
     <!-- 9 -->
     <g transform="translate(229.116026 212.560334) rotate(-333.953114) scale(0.1 -0.1)">
      <use xlink:href="#DejaVuSans-39"/>
     </g>
    </g>
   </g>
   <g id="text_8">
    <g id="patch_10">
     <path d="M 104.548552 253.447878 
L 105.314924 247.131702 
Q 105.676277 244.153544 102.69812 243.79219 
L 93.090459 242.626448 
Q 90.112301 242.265094 89.750947 245.243252 
L 88.984576 251.559428 
Q 88.623222 254.537585 91.60138 254.898939 
L 101.209041 256.064682 
Q 104.187199 256.426036 104.548552 253.447878 
z
" clip-path="url(#p6c4d8ab94e)" style="fill: #ffffff; stroke: #ffffff; stroke-linejoin: miter"/>
    </g>
    <g clip-path="url(#p6c4d8ab94e)">
     <!-- 3 -->
     <g transform="translate(99.505849 252.836023) rotate(-83.081852) scale(0.1 -0.1)">
      <defs>
       <path id="DejaVuSans-33" d="M 2597 2516 
Q 3050 2419 3304 2112 
Q 3559 1806 3559 1356 
Q 3559 666 3084 287 
Q 2609 -91 1734 -91 
Q 1441 -91 1130 -33 
Q 819 25 488 141 
L 488 750 
Q 750 597 1062 519 
Q 1375 441 1716 441 
Q 2309 441 2620 675 
Q 2931 909 2931 1356 
Q 2931 1769 2642 2001 
Q 2353 2234 1838 2234 
L 1294 2234 
L 1294 2753 
L 1863 2753 
Q 2328 2753 2575 2939 
Q 2822 3125 2822 3475 
Q 2822 3834 2567 4026 
Q 2313 4219 1838 4219 
Q 1578 4219 1281 4162 
Q 984 4106 628 3988 
L 628 4550 
Q 988 4650 1302 4700 
Q 1616 4750 1894 4750 
Q 2613 4750 3031 4423 
Q 3450 4097 3450 3541 
Q 3450 3153 3228 2886 
Q 3006 2619 2597 2516 
z
" transform="scale(0.015625)"/>
      </defs>
      <use xlink:href="#DejaVuSans-33"/>
     </g>
    </g>
   </g>
   <g id="text_9">
    <g id="patch_11">
     <path d="M 147.732024 56.481997 
L 151.314462 61.740091 
Q 153.003627 64.219349 155.482885 62.530184 
L 163.481075 57.080867 
Q 165.960334 55.391703 164.271169 52.912444 
L 160.688731 47.654351 
Q 158.999566 45.175092 156.520308 46.864257 
L 148.522118 52.313574 
Q 146.042859 54.002739 147.732024 56.481997 
z
" clip-path="url(#p6c4d8ab94e)" style="fill: #ffffff; stroke: #ffffff; stroke-linejoin: miter"/>
    </g>
    <g clip-path="url(#p6c4d8ab94e)">
     <!-- 4 -->
     <g transform="translate(151.929977 53.621854) rotate(-304.267335) scale(0.1 -0.1)">
      <use xlink:href="#DejaVuSans-34"/>
     </g>
    </g>
   </g>
   <g id="text_10">
    <g id="patch_12">
     <path d="M 175.620498 23.952115 
L 188.274097 25.298243 
Q 191.257264 25.615601 191.574622 22.632434 
L 192.598433 13.008614 
Q 192.915791 10.025447 189.932624 9.708089 
L 177.279025 8.361962 
Q 174.295858 8.044603 173.9785 11.02777 
L 172.954689 20.65159 
Q 172.637331 23.634757 175.620498 23.952115 
z
" clip-path="url(#p6c4d8ab94e)" style="fill: #ffffff; stroke: #ffffff; stroke-linejoin: miter"/>
    </g>
    <g clip-path="url(#p6c4d8ab94e)">
     <!-- 18 -->
     <g transform="translate(176.157858 18.90093) rotate(-353.927544) scale(0.1 -0.1)">
      <defs>
       <path id="DejaVuSans-38" d="M 2034 2216 
Q 1584 2216 1326 1975 
Q 1069 1734 1069 1313 
Q 1069 891 1326 650 
Q 1584 409 2034 409 
Q 2484 409 2743 651 
Q 3003 894 3003 1313 
Q 3003 1734 2745 1975 
Q 2488 2216 2034 2216 
z
M 1403 2484 
Q 997 2584 770 2862 
Q 544 3141 544 3541 
Q 544 4100 942 4425 
Q 1341 4750 2034 4750 
Q 2731 4750 3128 4425 
Q 3525 4100 3525 3541 
Q 3525 3141 3298 2862 
Q 3072 2584 2669 2484 
Q 3125 2378 3379 2068 
Q 3634 1759 3634 1313 
Q 3634 634 3220 271 
Q 2806 -91 2034 -91 
Q 1263 -91 848 271 
Q 434 634 434 1313 
Q 434 1759 690 2068 
Q 947 2378 1403 2484 
z
M 1172 3481 
Q 1172 3119 1398 2916 
Q 1625 2713 2034 2713 
Q 2441 2713 2670 2916 
Q 2900 3119 2900 3481 
Q 2900 3844 2670 4047 
Q 2441 4250 2034 4250 
Q 1625 4250 1398 4047 
Q 1172 3844 1172 3481 
z
" transform="scale(0.015625)"/>
      </defs>
      <use xlink:href="#DejaVuSans-31"/>
      <use xlink:href="#DejaVuSans-38" x="63.623047"/>
     </g>
    </g>
   </g>
   <g id="text_11">
    <g id="patch_13">
     <path d="M 286.091182 190.687798 
L 290.472193 195.301706 
Q 292.537895 197.477223 294.713412 195.411521 
L 301.73172 188.747479 
Q 303.907237 186.681777 301.841535 184.50626 
L 297.460524 179.892351 
Q 295.394822 177.716834 293.219305 179.782537 
L 286.200997 186.446578 
Q 284.02548 188.512281 286.091182 190.687798 
z
" clip-path="url(#p6c4d8ab94e)" style="fill: #ffffff; stroke: #ffffff; stroke-linejoin: miter"/>
    </g>
    <g clip-path="url(#p6c4d8ab94e)">
     <!-- 8 -->
     <g transform="translate(289.774831 187.19009) rotate(-313.516816) scale(0.1 -0.1)">
      <use xlink:href="#DejaVuSans-38"/>
     </g>
    </g>
   </g>
   <g id="text_12">
    <g id="patch_14">
     <path d="M 244.582377 148.525349 
L 253.289875 157.804633 
Q 255.342723 159.992284 257.530373 157.939436 
L 264.587825 151.316862 
Q 266.775475 149.264014 264.722627 147.076364 
L 256.01513 137.79708 
Q 253.962282 135.609429 251.774631 137.662277 
L 244.71718 144.284851 
Q 242.529529 146.337699 244.582377 148.525349 
z
" clip-path="url(#p6c4d8ab94e)" style="fill: #ffffff; stroke: #ffffff; stroke-linejoin: miter"/>
    </g>
    <g clip-path="url(#p6c4d8ab94e)">
     <!-- 10 -->
     <g transform="translate(248.286571 145.049407) rotate(-313.179221) scale(0.1 -0.1)">
      <defs>
       <path id="DejaVuSans-30" d="M 2034 4250 
Q 1547 4250 1301 3770 
Q 1056 3291 1056 2328 
Q 1056 1369 1301 889 
Q 1547 409 2034 409 
Q 2525 409 2770 889 
Q 3016 1369 3016 2328 
Q 3016 3291 2770 3770 
Q 2525 4250 2034 4250 
z
M 2034 4750 
Q 2819 4750 3233 4129 
Q 3647 3509 3647 2328 
Q 3647 1150 3233 529 
Q 2819 -91 2034 -91 
Q 1250 -91 836 529 
Q 422 1150 422 2328 
Q 422 3509 836 4129 
Q 1250 4750 2034 4750 
z
" transform="scale(0.015625)"/>
      </defs>
      <use xlink:href="#DejaVuSans-31"/>
      <use xlink:href="#DejaVuSans-30" x="63.623047"/>
     </g>
    </g>
   </g>
   <g id="text_13">
    <g id="patch_15">
     <path d="M 264.334463 434.578761 
L 270.40522 432.67421 
Q 273.26766 431.77619 272.36964 428.91375 
L 269.472589 419.679401 
Q 268.574569 416.816962 265.712129 417.714982 
L 259.641372 419.619533 
Q 256.778933 420.517554 257.676953 423.379993 
L 260.574004 432.614342 
Q 261.472024 435.476782 264.334463 434.578761 
z
" clip-path="url(#p6c4d8ab94e)" style="fill: #ffffff; stroke: #ffffff; stroke-linejoin: miter"/>
    </g>
    <g clip-path="url(#p6c4d8ab94e)">
     <!-- 4 -->
     <g transform="translate(262.813909 429.731995) rotate(-17.417971) scale(0.1 -0.1)">
      <use xlink:href="#DejaVuSans-34"/>
     </g>
    </g>
   </g>
   <g id="text_14">
    <g id="patch_16">
     <path d="M 199.303524 401.791305 
L 204.440374 398.037084 
Q 206.862465 396.266921 205.092301 393.84483 
L 199.381681 386.031066 
Q 197.611518 383.608975 195.189427 385.379138 
L 190.052577 389.13336 
Q 187.630487 390.903523 189.40065 393.325613 
L 195.11127 401.139378 
Q 196.881434 403.561468 199.303524 401.791305 
z
" clip-path="url(#p6c4d8ab94e)" style="fill: #ffffff; stroke: #ffffff; stroke-linejoin: miter"/>
    </g>
    <g clip-path="url(#p6c4d8ab94e)">
     <!-- 1 -->
     <g transform="translate(196.306232 397.690151) rotate(-36.16087) scale(0.1 -0.1)">
      <use xlink:href="#DejaVuSans-31"/>
     </g>
    </g>
   </g>
   <g id="text_15">
    <g id="patch_17">
     <path d="M 86.768481 298.349957 
L 87.486439 285.645227 
Q 87.655702 282.650006 84.660481 282.480742 
L 74.997772 281.934693 
Q 72.002551 281.76543 71.833288 284.760651 
L 71.11533 297.465381 
Q 70.946067 300.460602 73.941288 300.629865 
L 83.603997 301.175915 
Q 86.599218 301.345178 86.768481 298.349957 
z
" clip-path="url(#p6c4d8ab94e)" style="fill: #ffffff; stroke: #ffffff; stroke-linejoin: miter"/>
    </g>
    <g clip-path="url(#p6c4d8ab94e)">
     <!-- 15 -->
     <g transform="translate(81.696885 298.063355) rotate(-86.765595) scale(0.1 -0.1)">
      <defs>
       <path id="DejaVuSans-35" d="M 691 4666 
L 3169 4666 
L 3169 4134 
L 1269 4134 
L 1269 2991 
Q 1406 3038 1543 3061 
Q 1681 3084 1819 3084 
Q 2600 3084 3056 2656 
Q 3513 2228 3513 1497 
Q 3513 744 3044 326 
Q 2575 -91 1722 -91 
Q 1428 -91 1123 -41 
Q 819 9 494 109 
L 494 744 
Q 775 591 1075 516 
Q 1375 441 1709 441 
Q 2250 441 2565 725 
Q 2881 1009 2881 1497 
Q 2881 1984 2565 2268 
Q 2250 2553 1709 2553 
Q 1456 2553 1204 2497 
Q 953 2441 691 2322 
L 691 4666 
z
" transform="scale(0.015625)"/>
      </defs>
      <use xlink:href="#DejaVuSans-31"/>
      <use xlink:href="#DejaVuSans-35" x="63.623047"/>
     </g>
    </g>
   </g>
   <g id="text_16">
    <g id="patch_18">
     <path d="M 372.749742 228.048579 
L 379.189557 239.023751 
Q 380.707785 241.611218 383.295252 240.092991 
L 391.642528 235.195125 
Q 394.229995 233.676898 392.711767 231.089431 
L 386.271953 220.114259 
Q 384.753725 217.526792 382.166258 219.045019 
L 373.818982 223.942884 
Q 371.231515 225.461112 372.749742 228.048579 
z
" clip-path="url(#p6c4d8ab94e)" style="fill: #ffffff; stroke: #ffffff; stroke-linejoin: miter"/>
    </g>
    <g clip-path="url(#p6c4d8ab94e)">
     <!-- 18 -->
     <g transform="translate(377.130917 225.477872) rotate(-300.402794) scale(0.1 -0.1)">
      <use xlink:href="#DejaVuSans-31"/>
      <use xlink:href="#DejaVuSans-38" x="63.623047"/>
     </g>
    </g>
   </g>
   <g id="text_17">
    <g id="patch_19">
     <path d="M 384.454949 276.829035 
L 392.222934 286.907925 
Q 394.054286 289.284088 396.430449 287.452736 
L 404.096049 281.544718 
Q 406.472212 279.713366 404.64086 277.337204 
L 396.872875 267.258313 
Q 395.041523 264.88215 392.66536 266.713502 
L 384.99976 272.62152 
Q 382.623597 274.452872 384.454949 276.829035 
z
" clip-path="url(#p6c4d8ab94e)" style="fill: #ffffff; stroke: #ffffff; stroke-linejoin: miter"/>
    </g>
    <g clip-path="url(#p6c4d8ab94e)">
     <!-- 16 -->
     <g transform="translate(388.478337 273.728136) rotate(-307.622097) scale(0.1 -0.1)">
      <defs>
       <path id="DejaVuSans-36" d="M 2113 2584 
Q 1688 2584 1439 2293 
Q 1191 2003 1191 1497 
Q 1191 994 1439 701 
Q 1688 409 2113 409 
Q 2538 409 2786 701 
Q 3034 994 3034 1497 
Q 3034 2003 2786 2293 
Q 2538 2584 2113 2584 
z
M 3366 4563 
L 3366 3988 
Q 3128 4100 2886 4159 
Q 2644 4219 2406 4219 
Q 1781 4219 1451 3797 
Q 1122 3375 1075 2522 
Q 1259 2794 1537 2939 
Q 1816 3084 2150 3084 
Q 2853 3084 3261 2657 
Q 3669 2231 3669 1497 
Q 3669 778 3244 343 
Q 2819 -91 2113 -91 
Q 1303 -91 875 529 
Q 447 1150 447 2328 
Q 447 3434 972 4092 
Q 1497 4750 2381 4750 
Q 2619 4750 2861 4703 
Q 3103 4656 3366 4563 
z
" transform="scale(0.015625)"/>
      </defs>
      <use xlink:href="#DejaVuSans-31"/>
      <use xlink:href="#DejaVuSans-36" x="63.623047"/>
     </g>
    </g>
   </g>
   <g id="text_18">
    <g id="patch_20">
     <path d="M 387.083058 384.236608 
L 399.649864 382.236355 
Q 402.612569 381.764783 402.140996 378.802078 
L 400.619684 369.244269 
Q 400.148112 366.281564 397.185407 366.753137 
L 384.618601 368.75339 
Q 381.655896 369.224962 382.127469 372.187667 
L 383.648781 381.745476 
Q 384.120353 384.70818 387.083058 384.236608 
z
" clip-path="url(#p6c4d8ab94e)" style="fill: #ffffff; stroke: #ffffff; stroke-linejoin: miter"/>
    </g>
    <g clip-path="url(#p6c4d8ab94e)">
     <!-- 18 -->
     <g transform="translate(386.284578 379.22007) rotate(-9.043877) scale(0.1 -0.1)">
      <use xlink:href="#DejaVuSans-31"/>
      <use xlink:href="#DejaVuSans-38" x="63.623047"/>
     </g>
    </g>
   </g>
   <g id="text_19">
    <g id="patch_21">
     <path d="M 313.856309 232.729131 
L 323.020901 241.557261 
Q 325.181513 243.638549 327.262801 241.477938 
L 333.977122 234.507716 
Q 336.05841 232.347105 333.897799 230.265817 
L 324.733207 221.437688 
Q 322.572596 219.3564 320.491308 221.517011 
L 313.776986 228.487232 
Q 311.695698 230.647843 313.856309 232.729131 
z
" clip-path="url(#p6c4d8ab94e)" style="fill: #ffffff; stroke: #ffffff; stroke-linejoin: miter"/>
    </g>
    <g clip-path="url(#p6c4d8ab94e)">
     <!-- 16 -->
     <g transform="translate(317.380407 229.070721) rotate(-316.071301) scale(0.1 -0.1)">
      <use xlink:href="#DejaVuSans-31"/>
      <use xlink:href="#DejaVuSans-36" x="63.623047"/>
     </g>
    </g>
   </g>
   <g id="text_20">
    <g id="patch_22">
     <path d="M 350.517123 301.204101 
L 362.849793 298.068677 
Q 365.757299 297.32948 365.018102 294.421975 
L 362.633424 285.042241 
Q 361.894228 282.134735 358.986722 282.873931 
L 346.654053 286.009356 
Q 343.746547 286.748552 344.485743 289.656058 
L 346.870422 299.035792 
Q 347.609618 301.943297 350.517123 301.204101 
z
" clip-path="url(#p6c4d8ab94e)" style="fill: #ffffff; stroke: #ffffff; stroke-linejoin: miter"/>
    </g>
    <g clip-path="url(#p6c4d8ab94e)">
     <!-- 10 -->
     <g transform="translate(349.265495 296.281028) rotate(-14.264512) scale(0.1 -0.1)">
      <use xlink:href="#DejaVuSans-31"/>
      <use xlink:href="#DejaVuSans-30" x="63.623047"/>
     </g>
    </g>
   </g>
   <g id="text_21">
    <g id="patch_23">
     <path d="M 356.291187 345.175999 
L 362.815288 334.25072 
Q 364.353386 331.675015 361.777682 330.136917 
L 353.468352 325.174948 
Q 350.892647 323.636849 349.354549 326.212554 
L 342.830448 337.137833 
Q 341.29235 339.713538 343.868054 341.251636 
L 352.177384 346.213606 
Q 354.753089 347.751704 356.291187 345.175999 
z
" clip-path="url(#p6c4d8ab94e)" style="fill: #ffffff; stroke: #ffffff; stroke-linejoin: miter"/>
    </g>
    <g clip-path="url(#p6c4d8ab94e)">
     <!-- 14 -->
     <g transform="translate(351.929929 342.571646) rotate(-59.156193) scale(0.1 -0.1)">
      <use xlink:href="#DejaVuSans-31"/>
      <use xlink:href="#DejaVuSans-34" x="63.623047"/>
     </g>
    </g>
   </g>
   <g id="text_22">
    <g id="patch_24">
     <path d="M 301.403356 152.027917 
L 307.525517 163.183399 
Q 308.968855 165.813375 311.598831 164.370036 
L 320.083243 159.713766 
Q 322.713219 158.270427 321.269881 155.640451 
L 315.14772 144.48497 
Q 313.704381 141.854994 311.074405 143.298332 
L 302.589993 147.954603 
Q 299.960017 149.397941 301.403356 152.027917 
z
" clip-path="url(#p6c4d8ab94e)" style="fill: #ffffff; stroke: #ffffff; stroke-linejoin: miter"/>
    </g>
    <g clip-path="url(#p6c4d8ab94e)">
     <!-- 11 -->
     <g transform="translate(305.856508 149.584014) rotate(-298.75811) scale(0.1 -0.1)">
      <use xlink:href="#DejaVuSans-31"/>
      <use xlink:href="#DejaVuSans-31" x="63.623047"/>
     </g>
    </g>
   </g>
   <g id="text_23">
    <g id="patch_25">
     <path d="M 229.872639 194.862302 
L 235.21346 198.320198 
Q 237.731725 199.95064 239.362167 197.432375 
L 244.62204 189.308346 
Q 246.252482 186.790081 243.734217 185.159639 
L 238.393396 181.701744 
Q 235.875131 180.071302 234.244689 182.589567 
L 228.984816 190.713595 
Q 227.354374 193.231861 229.872639 194.862302 
z
" clip-path="url(#p6c4d8ab94e)" style="fill: #ffffff; stroke: #ffffff; stroke-linejoin: miter"/>
    </g>
    <g clip-path="url(#p6c4d8ab94e)">
     <!-- 9 -->
     <g transform="translate(232.633351 190.598302) rotate(-327.079105) scale(0.1 -0.1)">
      <use xlink:href="#DejaVuSans-39"/>
     </g>
    </g>
   </g>
   <g id="text_24">
    <g id="patch_26">
     <path d="M 244.362205 240.202318 
L 249.812915 251.700812 
Q 251.097955 254.411656 253.808799 253.126616 
L 262.554093 248.981024 
Q 265.264937 247.695985 263.979897 244.985141 
L 258.529187 233.486646 
Q 257.244147 230.775803 254.533303 232.060843 
L 245.788009 236.206434 
Q 243.077165 237.491474 244.362205 240.202318 
z
" clip-path="url(#p6c4d8ab94e)" style="fill: #ffffff; stroke: #ffffff; stroke-linejoin: miter"/>
    </g>
    <g clip-path="url(#p6c4d8ab94e)">
     <!-- 14 -->
     <g transform="translate(248.952284 238.026451) rotate(-295.362676) scale(0.1 -0.1)">
      <use xlink:href="#DejaVuSans-31"/>
      <use xlink:href="#DejaVuSans-34" x="63.623047"/>
     </g>
    </g>
   </g>
   <g id="text_25">
    <g id="patch_27">
     <path d="M 304.995954 237.990537 
L 305.405249 244.339859 
Q 305.598237 247.333645 308.592023 247.140657 
L 318.250102 246.51807 
Q 321.243888 246.325082 321.0509 243.331296 
L 320.641605 236.981975 
Q 320.448617 233.988189 317.454831 234.181176 
L 307.796752 234.803763 
Q 304.802966 234.996751 304.995954 237.990537 
z
" clip-path="url(#p6c4d8ab94e)" style="fill: #ffffff; stroke: #ffffff; stroke-linejoin: miter"/>
    </g>
    <g clip-path="url(#p6c4d8ab94e)">
     <!-- 7 -->
     <g transform="translate(310.06512 237.663765) rotate(-273.688344) scale(0.1 -0.1)">
      <use xlink:href="#DejaVuSans-37"/>
     </g>
    </g>
   </g>
   <g id="text_26">
    <g id="patch_28">
     <path d="M 215.411465 70.45014 
L 222.757552 60.059729 
Q 224.489439 57.610123 222.039833 55.878236 
L 214.137303 50.291097 
Q 211.687697 48.55921 209.955811 51.008816 
L 202.609724 61.399227 
Q 200.877837 63.848833 203.327443 65.580719 
L 211.229973 71.167859 
Q 213.679578 72.899745 215.411465 70.45014 
z
" clip-path="url(#p6c4d8ab94e)" style="fill: #ffffff; stroke: #ffffff; stroke-linejoin: miter"/>
    </g>
    <g clip-path="url(#p6c4d8ab94e)">
     <!-- 17 -->
     <g transform="translate(211.263722 67.517658) rotate(-54.739446) scale(0.1 -0.1)">
      <use xlink:href="#DejaVuSans-31"/>
      <use xlink:href="#DejaVuSans-37" x="63.623047"/>
     </g>
    </g>
   </g>
   <g id="text_27">
    <g id="patch_29">
     <path d="M 131.518353 104.51778 
L 144.235409 104.967373 
Q 147.233536 105.073368 147.33953 102.075241 
L 147.681472 92.403158 
Q 147.787467 89.405031 144.78934 89.299037 
L 132.072285 88.849444 
Q 129.074158 88.74345 128.968163 91.741577 
L 128.626221 101.413659 
Q 128.520226 104.411786 131.518353 104.51778 
z
" clip-path="url(#p6c4d8ab94e)" style="fill: #ffffff; stroke: #ffffff; stroke-linejoin: miter"/>
    </g>
    <g clip-path="url(#p6c4d8ab94e)">
     <!-- 17 -->
     <g transform="translate(131.697826 99.441264) rotate(-357.975235) scale(0.1 -0.1)">
      <use xlink:href="#DejaVuSans-31"/>
      <use xlink:href="#DejaVuSans-37" x="63.623047"/>
     </g>
    </g>
   </g>
   <g id="text_28">
    <g id="patch_30">
     <path d="M 307.060789 141.060352 
L 308.596546 147.234722 
Q 309.320675 150.146017 312.23197 149.421888 
L 321.623928 147.085817 
Q 324.535223 146.361688 323.811094 143.450393 
L 322.275337 137.276022 
Q 321.551207 134.364728 318.639913 135.088857 
L 309.247955 137.424928 
Q 306.33666 138.149057 307.060789 141.060352 
z
" clip-path="url(#p6c4d8ab94e)" style="fill: #ffffff; stroke: #ffffff; stroke-linejoin: miter"/>
    </g>
    <g clip-path="url(#p6c4d8ab94e)">
     <!-- 5 -->
     <g transform="translate(311.990278 139.834235) rotate(-283.96779) scale(0.1 -0.1)">
      <use xlink:href="#DejaVuSans-35"/>
     </g>
    </g>
   </g>
   <g id="text_29">
    <g id="patch_31">
     <path d="M 334.582724 247.773704 
L 334.63878 241.411451 
Q 334.66521 238.411567 331.665327 238.385136 
L 321.987577 238.29987 
Q 318.987694 238.273439 318.961263 241.273323 
L 318.905208 247.635576 
Q 318.878777 250.635459 321.878661 250.66189 
L 331.55641 250.747157 
Q 334.556294 250.773587 334.582724 247.773704 
z
" clip-path="url(#p6c4d8ab94e)" style="fill: #ffffff; stroke: #ffffff; stroke-linejoin: miter"/>
    </g>
    <g clip-path="url(#p6c4d8ab94e)">
     <!-- 2 -->
     <g transform="translate(329.503234 247.72895) rotate(-89.495204) scale(0.1 -0.1)">
      <use xlink:href="#DejaVuSans-32"/>
     </g>
    </g>
   </g>
   <g id="text_30">
    <g id="patch_32">
     <path d="M 200.808441 201.09515 
L 205.620407 205.257648 
Q 207.88931 207.220319 209.851981 204.951416 
L 216.18364 197.631839 
Q 218.146311 195.362936 215.877407 193.400265 
L 211.065442 189.237767 
Q 208.796538 187.275096 206.833867 189.543999 
L 200.502209 196.863576 
Q 198.539538 199.132479 200.808441 201.09515 
z
" clip-path="url(#p6c4d8ab94e)" style="fill: #ffffff; stroke: #ffffff; stroke-linejoin: miter"/>
    </g>
    <g clip-path="url(#p6c4d8ab94e)">
     <!-- 5 -->
     <g transform="translate(204.131693 197.253377) rotate(-319.139189) scale(0.1 -0.1)">
      <use xlink:href="#DejaVuSans-35"/>
     </g>
    </g>
   </g>
   <g id="text_31">
    <g id="patch_33">
     <path d="M 306.461029 191.547677 
L 307.862996 204.19521 
Q 308.193519 207.176947 311.175256 206.846425 
L 320.794463 205.780145 
Q 323.7762 205.449622 323.445677 202.467885 
L 322.04371 189.820351 
Q 321.713187 186.838614 318.73145 187.169137 
L 309.112243 188.235417 
Q 306.130506 188.56594 306.461029 191.547677 
z
" clip-path="url(#p6c4d8ab94e)" style="fill: #ffffff; stroke: #ffffff; stroke-linejoin: miter"/>
    </g>
    <g clip-path="url(#p6c4d8ab94e)">
     <!-- 12 -->
     <g transform="translate(311.509793 190.988026) rotate(-276.32536) scale(0.1 -0.1)">
      <use xlink:href="#DejaVuSans-31"/>
      <use xlink:href="#DejaVuSans-32" x="63.623047"/>
     </g>
    </g>
   </g>
   <g id="text_32">
    <g id="patch_34">
     <path d="M 162.626245 68.870656 
L 174.073734 63.313623 
Q 176.772553 62.003517 175.462447 59.304698 
L 171.23599 50.598197 
Q 169.925884 47.899378 167.227065 49.209484 
L 155.779576 54.766518 
Q 153.080757 56.076624 154.390863 58.775443 
L 158.61732 67.481944 
Q 159.927427 70.180763 162.626245 68.870656 
z
" clip-path="url(#p6c4d8ab94e)" style="fill: #ffffff; stroke: #ffffff; stroke-linejoin: miter"/>
    </g>
    <g clip-path="url(#p6c4d8ab94e)">
     <!-- 12 -->
     <g transform="translate(160.407935 64.300938) rotate(-25.893647) scale(0.1 -0.1)">
      <use xlink:href="#DejaVuSans-31"/>
      <use xlink:href="#DejaVuSans-32" x="63.623047"/>
     </g>
    </g>
   </g>
   <g id="text_33">
    <g id="patch_35">
     <path d="M 190.659496 102.832242 
L 203.384464 102.803453 
Q 206.384456 102.796665 206.377669 99.796673 
L 206.355773 90.118573 
Q 206.348985 87.11858 203.348993 87.125368 
L 190.624026 87.154157 
Q 187.624033 87.160945 187.630821 90.160937 
L 187.652717 99.839037 
Q 187.659504 102.839029 190.659496 102.832242 
z
" clip-path="url(#p6c4d8ab94e)" style="fill: #ffffff; stroke: #ffffff; stroke-linejoin: miter"/>
    </g>
    <g clip-path="url(#p6c4d8ab94e)">
     <!-- 20 -->
     <g transform="translate(190.648004 97.752568) rotate(-0.129628) scale(0.1 -0.1)">
      <use xlink:href="#DejaVuSans-32"/>
      <use xlink:href="#DejaVuSans-30" x="63.623047"/>
     </g>
    </g>
   </g>
   <g id="matplotlib.axis_1">
    <g id="xtick_1">
     <g id="line2d_1">
      <path d="M 10.8 493.2 
L 10.8 10.8 
" clip-path="url(#p6c4d8ab94e)" style="fill: none; stroke: #b0b0b0; stroke-opacity: 0.3; stroke-width: 0.8; stroke-linecap: square"/>
     </g>
    </g>
    <g id="xtick_2">
     <g id="line2d_2">
      <path d="M 59.04 493.2 
L 59.04 10.8 
" clip-path="url(#p6c4d8ab94e)" style="fill: none; stroke: #b0b0b0; stroke-opacity: 0.3; stroke-width: 0.8; stroke-linecap: square"/>
     </g>
    </g>
    <g id="xtick_3">
     <g id="line2d_3">
      <path d="M 107.28 493.2 
L 107.28 10.8 
" clip-path="url(#p6c4d8ab94e)" style="fill: none; stroke: #b0b0b0; stroke-opacity: 0.3; stroke-width: 0.8; stroke-linecap: square"/>
     </g>
    </g>
    <g id="xtick_4">
     <g id="line2d_4">
      <path d="M 155.52 493.2 
L 155.52 10.8 
" clip-path="url(#p6c4d8ab94e)" style="fill: none; stroke: #b0b0b0; stroke-opacity: 0.3; stroke-width: 0.8; stroke-linecap: square"/>
     </g>
    </g>
    <g id="xtick_5">
     <g id="line2d_5">
      <path d="M 203.76 493.2 
L 203.76 10.8 
" clip-path="url(#p6c4d8ab94e)" style="fill: none; stroke: #b0b0b0; stroke-opacity: 0.3; stroke-width: 0.8; stroke-linecap: square"/>
     </g>
    </g>
    <g id="xtick_6">
     <g id="line2d_6">
      <path d="M 252 493.2 
L 252 10.8 
" clip-path="url(#p6c4d8ab94e)" style="fill: none; stroke: #b0b0b0; stroke-opacity: 0.3; stroke-width: 0.8; stroke-linecap: square"/>
     </g>
    </g>
    <g id="xtick_7">
     <g id="line2d_7">
      <path d="M 300.24 493.2 
L 300.24 10.8 
" clip-path="url(#p6c4d8ab94e)" style="fill: none; stroke: #b0b0b0; stroke-opacity: 0.3; stroke-width: 0.8; stroke-linecap: square"/>
     </g>
    </g>
    <g id="xtick_8">
     <g id="line2d_8">
      <path d="M 348.48 493.2 
L 348.48 10.8 
" clip-path="url(#p6c4d8ab94e)" style="fill: none; stroke: #b0b0b0; stroke-opacity: 0.3; stroke-width: 0.8; stroke-linecap: square"/>
     </g>
    </g>
    <g id="xtick_9">
     <g id="line2d_9">
      <path d="M 396.72 493.2 
L 396.72 10.8 
" clip-path="url(#p6c4d8ab94e)" style="fill: none; stroke: #b0b0b0; stroke-opacity: 0.3; stroke-width: 0.8; stroke-linecap: square"/>
     </g>
    </g>
    <g id="xtick_10">
     <g id="line2d_10">
      <path d="M 444.96 493.2 
L 444.96 10.8 
" clip-path="url(#p6c4d8ab94e)" style="fill: none; stroke: #b0b0b0; stroke-opacity: 0.3; stroke-width: 0.8; stroke-linecap: square"/>
     </g>
    </g>
    <g id="xtick_11">
     <g id="line2d_11">
      <path d="M 493.2 493.2 
L 493.2 10.8 
" clip-path="url(#p6c4d8ab94e)" style="fill: none; stroke: #b0b0b0; stroke-opacity: 0.3; stroke-width: 0.8; stroke-linecap: square"/>
     </g>
    </g>
   </g>
   <g id="matplotlib.axis_2">
    <g id="ytick_1">
     <g id="line2d_12">
      <path d="M 10.8 493.2 
L 493.2 493.2 
" clip-path="url(#p6c4d8ab94e)" style="fill: none; stroke: #b0b0b0; stroke-opacity: 0.3; stroke-width: 0.8; stroke-linecap: square"/>
     </g>
    </g>
    <g id="ytick_2">
     <g id="line2d_13">
      <path d="M 10.8 444.96 
L 493.2 444.96 
" clip-path="url(#p6c4d8ab94e)" style="fill: none; stroke: #b0b0b0; stroke-opacity: 0.3; stroke-width: 0.8; stroke-linecap: square"/>
     </g>
    </g>
    <g id="ytick_3">
     <g id="line2d_14">
      <path d="M 10.8 396.72 
L 493.2 396.72 
" clip-path="url(#p6c4d8ab94e)" style="fill: none; stroke: #b0b0b0; stroke-opacity: 0.3; stroke-width: 0.8; stroke-linecap: square"/>
     </g>
    </g>
    <g id="ytick_4">
     <g id="line2d_15">
      <path d="M 10.8 348.48 
L 493.2 348.48 
" clip-path="url(#p6c4d8ab94e)" style="fill: none; stroke: #b0b0b0; stroke-opacity: 0.3; stroke-width: 0.8; stroke-linecap: square"/>
     </g>
    </g>
    <g id="ytick_5">
     <g id="line2d_16">
      <path d="M 10.8 300.24 
L 493.2 300.24 
" clip-path="url(#p6c4d8ab94e)" style="fill: none; stroke: #b0b0b0; stroke-opacity: 0.3; stroke-width: 0.8; stroke-linecap: square"/>
     </g>
    </g>
    <g id="ytick_6">
     <g id="line2d_17">
      <path d="M 10.8 252 
L 493.2 252 
" clip-path="url(#p6c4d8ab94e)" style="fill: none; stroke: #b0b0b0; stroke-opacity: 0.3; stroke-width: 0.8; stroke-linecap: square"/>
     </g>
    </g>
    <g id="ytick_7">
     <g id="line2d_18">
      <path d="M 10.8 203.76 
L 493.2 203.76 
" clip-path="url(#p6c4d8ab94e)" style="fill: none; stroke: #b0b0b0; stroke-opacity: 0.3; stroke-width: 0.8; stroke-linecap: square"/>
     </g>
    </g>
    <g id="ytick_8">
     <g id="line2d_19">
      <path d="M 10.8 155.52 
L 493.2 155.52 
" clip-path="url(#p6c4d8ab94e)" style="fill: none; stroke: #b0b0b0; stroke-opacity: 0.3; stroke-width: 0.8; stroke-linecap: square"/>
     </g>
    </g>
    <g id="ytick_9">
     <g id="line2d_20">
      <path d="M 10.8 107.28 
L 493.2 107.28 
" clip-path="url(#p6c4d8ab94e)" style="fill: none; stroke: #b0b0b0; stroke-opacity: 0.3; stroke-width: 0.8; stroke-linecap: square"/>
     </g>
    </g>
    <g id="ytick_10">
     <g id="line2d_21">
      <path d="M 10.8 59.04 
L 493.2 59.04 
" clip-path="url(#p6c4d8ab94e)" style="fill: none; stroke: #b0b0b0; stroke-opacity: 0.3; stroke-width: 0.8; stroke-linecap: square"/>
     </g>
    </g>
    <g id="ytick_11">
     <g id="line2d_22">
      <path d="M 10.8 10.8 
L 493.2 10.8 
" clip-path="url(#p6c4d8ab94e)" style="fill: none; stroke: #b0b0b0; stroke-opacity: 0.3; stroke-width: 0.8; stroke-linecap: square"/>
     </g>
    </g>
   </g>
   <g id="PathCollection_1">
    <defs>
     <path id="maa34d9bc04" d="M 0 8.660254 
C 2.296726 8.660254 4.499694 7.747755 6.123724 6.123724 
C 7.747755 4.499694 8.660254 2.296726 8.660254 0 
C 8.660254 -2.296726 7.747755 -4.499694 6.123724 -6.123724 
C 4.499694 -7.747755 2.296726 -8.660254 0 -8.660254 
C -2.296726 -8.660254 -4.499694 -7.747755 -6.123724 -6.123724 
C -7.747755 -4.499694 -8.660254 -2.296726 -8.660254 0 
C -8.660254 2.296726 -7.747755 4.499694 -6.123724 6.123724 
C -4.499694 7.747755 -2.296726 8.660254 0 8.660254 
z
" style="stroke: #1f78b4"/>
    </defs>
    <g clip-path="url(#p6c4d8ab94e)">
     <use xlink:href="#maa34d9bc04" x="83.16" y="138.1536" style="fill: #1f78b4; stroke: #1f78b4"/>
     <use xlink:href="#maa34d9bc04" x="126.0936" y="10.8" style="fill: #1f78b4; stroke: #1f78b4"/>
     <use xlink:href="#maa34d9bc04" x="68.2056" y="487.8936" style="fill: #1f78b4; stroke: #1f78b4"/>
     <use xlink:href="#maa34d9bc04" x="461.844" y="364.3992" style="fill: #1f78b4; stroke: #1f78b4"/>
     <use xlink:href="#maa34d9bc04" x="383.2128" y="284.8032" style="fill: #1f78b4; stroke: #1f78b4"/>
     <use xlink:href="#maa34d9bc04" x="322.4304" y="386.5896" style="fill: #1f78b4; stroke: #1f78b4"/>
     <use xlink:href="#maa34d9bc04" x="185.9112" y="98.5968" style="fill: #1f78b4; stroke: #1f78b4"/>
     <use xlink:href="#maa34d9bc04" x="327.2544" y="189.7704" style="fill: #1f78b4; stroke: #1f78b4"/>
     <use xlink:href="#maa34d9bc04" x="326.2896" y="299.2752" style="fill: #1f78b4; stroke: #1f78b4"/>
     <use xlink:href="#maa34d9bc04" x="90.396" y="95.22" style="fill: #1f78b4; stroke: #1f78b4"/>
     <use xlink:href="#maa34d9bc04" x="239.4576" y="22.86" style="fill: #1f78b4; stroke: #1f78b4"/>
     <use xlink:href="#maa34d9bc04" x="303.6168" y="94.7376" style="fill: #1f78b4; stroke: #1f78b4"/>
    </g>
   </g>
   <g id="patch_36">
    <path d="M 10.8 493.2 
L 10.8 10.8 
" style="fill: none; stroke: #000000; stroke-width: 0.8; stroke-linejoin: miter; stroke-linecap: square"/>
   </g>
   <g id="patch_37">
    <path d="M 493.2 493.2 
L 493.2 10.8 
" style="fill: none; stroke: #000000; stroke-width: 0.8; stroke-linejoin: miter; stroke-linecap: square"/>
   </g>
   <g id="patch_38">
    <path d="M 10.8 493.2 
L 493.2 493.2 
" style="fill: none; stroke: #000000; stroke-width: 0.8; stroke-linejoin: miter; stroke-linecap: square"/>
   </g>
   <g id="patch_39">
    <path d="M 10.8 10.8 
L 493.2 10.8 
" style="fill: none; stroke: #000000; stroke-width: 0.8; stroke-linejoin: miter; stroke-linecap: square"/>
   </g>
   <g id="text_34">
    <g clip-path="url(#p6c4d8ab94e)">
     <!-- 0 -->
     <g transform="translate(79.3425 141.46485) scale(0.12 -0.12)">
      <use xlink:href="#DejaVuSans-30"/>
     </g>
    </g>
   </g>
   <g id="text_35">
    <g clip-path="url(#p6c4d8ab94e)">
     <!-- 1 -->
     <g transform="translate(122.2761 14.11125) scale(0.12 -0.12)">
      <use xlink:href="#DejaVuSans-31"/>
     </g>
    </g>
   </g>
   <g id="text_36">
    <g clip-path="url(#p6c4d8ab94e)">
     <!-- 2 -->
     <g transform="translate(64.3881 491.20485) scale(0.12 -0.12)">
      <use xlink:href="#DejaVuSans-32"/>
     </g>
    </g>
   </g>
   <g id="text_37">
    <g clip-path="url(#p6c4d8ab94e)">
     <!-- 3 -->
     <g transform="translate(458.0265 367.71045) scale(0.12 -0.12)">
      <use xlink:href="#DejaVuSans-33"/>
     </g>
    </g>
   </g>
   <g id="text_38">
    <g clip-path="url(#p6c4d8ab94e)">
     <!-- 4 -->
     <g transform="translate(379.3953 288.11445) scale(0.12 -0.12)">
      <use xlink:href="#DejaVuSans-34"/>
     </g>
    </g>
   </g>
   <g id="text_39">
    <g clip-path="url(#p6c4d8ab94e)">
     <!-- 5 -->
     <g transform="translate(318.6129 389.90085) scale(0.12 -0.12)">
      <use xlink:href="#DejaVuSans-35"/>
     </g>
    </g>
   </g>
   <g id="text_40">
    <g clip-path="url(#p6c4d8ab94e)">
     <!-- 6 -->
     <g transform="translate(182.0937 101.90805) scale(0.12 -0.12)">
      <use xlink:href="#DejaVuSans-36"/>
     </g>
    </g>
   </g>
   <g id="text_41">
    <g clip-path="url(#p6c4d8ab94e)">
     <!-- 7 -->
     <g transform="translate(323.4369 193.08165) scale(0.12 -0.12)">
      <use xlink:href="#DejaVuSans-37"/>
     </g>
    </g>
   </g>
   <g id="text_42">
    <g clip-path="url(#p6c4d8ab94e)">
     <!-- 8 -->
     <g transform="translate(322.4721 302.58645) scale(0.12 -0.12)">
      <use xlink:href="#DejaVuSans-38"/>
     </g>
    </g>
   </g>
   <g id="text_43">
    <g clip-path="url(#p6c4d8ab94e)">
     <!-- 9 -->
     <g transform="translate(86.5785 98.53125) scale(0.12 -0.12)">
      <use xlink:href="#DejaVuSans-39"/>
     </g>
    </g>
   </g>
   <g id="text_44">
    <g clip-path="url(#p6c4d8ab94e)">
     <!-- 10 -->
     <g transform="translate(231.8226 26.17125) scale(0.12 -0.12)">
      <use xlink:href="#DejaVuSans-31"/>
      <use xlink:href="#DejaVuSans-30" x="63.623047"/>
     </g>
    </g>
   </g>
   <g id="text_45">
    <g clip-path="url(#p6c4d8ab94e)">
     <!-- 11 -->
     <g transform="translate(295.9818 98.04885) scale(0.12 -0.12)">
      <use xlink:href="#DejaVuSans-31"/>
      <use xlink:href="#DejaVuSans-31" x="63.623047"/>
     </g>
    </g>
   </g>
  </g>
 </g>
 <defs>
  <clipPath id="p6c4d8ab94e">
   <rect x="10.8" y="10.8" width="482.4" height="482.4"/>
  </clipPath>
 </defs>
</svg>
