<?xml version="1.0" encoding="utf-8" standalone="no"?>
<!DOCTYPE svg PUBLIC "-//W3C//DTD SVG 1.1//EN"
  "http://www.w3.org/Graphics/SVG/1.1/DTD/svg11.dtd">
<svg xmlns:xlink="http://www.w3.org/1999/xlink" width="504pt" height="504pt" viewBox="0 0 504 504" xmlns="http://www.w3.org/2000/svg" version="1.1">
 <metadata>
  <rdf:RDF xmlns:dc="http://purl.org/dc/elements/1.1/" xmlns:cc="http://creativecommons.org/ns#" xmlns:rdf="http://www.w3.org/1999/02/22-rdf-syntax-ns#">
   <cc:Work>
    <dc:type rdf:resource="http://purl.org/dc/dcmitype/StillImage"/>
    <dc:date>2024-10-29T14:59:37.935916</dc:date>
    <dc:format>image/svg+xml</dc:format>
    <dc:creator>
     <cc:Agent>
      <dc:title>Matplotlib v3.9.2, https://matplotlib.org/</dc:title>
     </cc:Agent>
    </dc:creator>
   </cc:Work>
  </rdf:RDF>
 </metadata>
 <defs>
  <style type="text/css">*{stroke-linejoin: round; stroke-linecap: butt}</style>
 </defs>
 <g id="figure_1">
  <g id="patch_1">
   <path d="M 0 504 
L 504 504 
L 504 0 
L 0 0 
L 0 504 
z
" style="fill: none; opacity: 0"/>
  </g>
  <g id="axes_1">
   <g id="patch_2">
    <path d="M 10.8 493.2 
L 493.2 493.2 
L 493.2 10.8 
L 10.8 10.8 
L 10.8 493.2 
z
" style="fill: none; opacity: 0"/>
   </g>
   <g id="LineCollection_1">
    <path d="M 150.696 48.4272 
L 190.2528 430.9704 
" clip-path="url(#p445f32efe9)" style="fill: none; stroke: #000000"/>
    <path d="M 150.696 48.4272 
L 79.7832 449.784 
" clip-path="url(#p445f32efe9)" style="fill: none; stroke: #000000"/>
    <path d="M 150.696 48.4272 
L 200.8656 116.4456 
" clip-path="url(#p445f32efe9)" style="fill: none; stroke: #000000"/>
    <path d="M 150.696 48.4272 
L 177.228 449.3016 
" clip-path="url(#p445f32efe9)" style="fill: none; stroke: #000000"/>
    <path d="M 150.696 48.4272 
L 111.1392 190.7352 
" clip-path="url(#p445f32efe9)" style="fill: none; stroke: #000000"/>
    <path d="M 150.696 48.4272 
L 28.6488 439.6536 
" clip-path="url(#p445f32efe9)" style="fill: none; stroke: #000000"/>
    <path d="M 150.696 48.4272 
L 67.2408 146.8368 
" clip-path="url(#p445f32efe9)" style="fill: none; stroke: #000000"/>
    <path d="M 150.696 48.4272 
L 367.2936 127.5408 
" clip-path="url(#p445f32efe9)" style="fill: none; stroke: #000000"/>
    <path d="M 150.696 48.4272 
L 331.596 326.772 
" clip-path="url(#p445f32efe9)" style="fill: none; stroke: #000000"/>
    <path d="M 150.696 48.4272 
L 155.52 386.1072 
" clip-path="url(#p445f32efe9)" style="fill: none; stroke: #000000"/>
    <path d="M 367.2936 127.5408 
L 331.596 326.772 
" clip-path="url(#p445f32efe9)" style="fill: none; stroke: #000000"/>
    <path d="M 367.2936 127.5408 
L 177.228 449.3016 
" clip-path="url(#p445f32efe9)" style="fill: none; stroke: #000000"/>
    <path d="M 367.2936 127.5408 
L 200.8656 116.4456 
" clip-path="url(#p445f32efe9)" style="fill: none; stroke: #000000"/>
    <path d="M 367.2936 127.5408 
L 392.3784 441.5832 
" clip-path="url(#p445f32efe9)" style="fill: none; stroke: #000000"/>
    <path d="M 367.2936 127.5408 
L 67.2408 146.8368 
" clip-path="url(#p445f32efe9)" style="fill: none; stroke: #000000"/>
    <path d="M 367.2936 127.5408 
L 111.1392 190.7352 
" clip-path="url(#p445f32efe9)" style="fill: none; stroke: #000000"/>
    <path d="M 331.596 326.772 
L 392.3784 441.5832 
" clip-path="url(#p445f32efe9)" style="fill: none; stroke: #000000"/>
    <path d="M 331.596 326.772 
L 111.1392 190.7352 
" clip-path="url(#p445f32efe9)" style="fill: none; stroke: #000000"/>
    <path d="M 331.596 326.772 
L 190.2528 430.9704 
" clip-path="url(#p445f32efe9)" style="fill: none; stroke: #000000"/>
    <path d="M 331.596 326.772 
L 79.7832 449.784 
" clip-path="url(#p445f32efe9)" style="fill: none; stroke: #000000"/>
    <path d="M 331.596 326.772 
L 177.228 449.3016 
" clip-path="url(#p445f32efe9)" style="fill: none; stroke: #000000"/>
    <path d="M 331.596 326.772 
L 28.6488 439.6536 
" clip-path="url(#p445f32efe9)" style="fill: none; stroke: #000000"/>
    <path d="M 392.3784 441.5832 
L 155.52 386.1072 
" clip-path="url(#p445f32efe9)" style="fill: none; stroke: #000000"/>
    <path d="M 392.3784 441.5832 
L 28.6488 439.6536 
" clip-path="url(#p445f32efe9)" style="fill: none; stroke: #000000"/>
    <path d="M 392.3784 441.5832 
L 79.7832 449.784 
" clip-path="url(#p445f32efe9)" style="fill: none; stroke: #000000"/>
    <path d="M 392.3784 441.5832 
L 177.228 449.3016 
" clip-path="url(#p445f32efe9)" style="fill: none; stroke: #000000"/>
    <path d="M 392.3784 441.5832 
L 67.2408 146.8368 
" clip-path="url(#p445f32efe9)" style="fill: none; stroke: #000000"/>
    <path d="M 392.3784 441.5832 
L 200.8656 116.4456 
" clip-path="url(#p445f32efe9)" style="fill: none; stroke: #000000"/>
    <path d="M 392.3784 441.5832 
L 111.1392 190.7352 
" clip-path="url(#p445f32efe9)" style="fill: none; stroke: #000000"/>
    <path d="M 67.2408 146.8368 
L 111.1392 190.7352 
" clip-path="url(#p445f32efe9)" style="fill: none; stroke: #000000"/>
    <path d="M 67.2408 146.8368 
L 79.7832 449.784 
" clip-path="url(#p445f32efe9)" style="fill: none; stroke: #000000"/>
    <path d="M 67.2408 146.8368 
L 200.8656 116.4456 
" clip-path="url(#p445f32efe9)" style="fill: none; stroke: #000000"/>
    <path d="M 67.2408 146.8368 
L 190.2528 430.9704 
" clip-path="url(#p445f32efe9)" style="fill: none; stroke: #000000"/>
    <path d="M 67.2408 146.8368 
L 177.228 449.3016 
" clip-path="url(#p445f32efe9)" style="fill: none; stroke: #000000"/>
    <path d="M 79.7832 449.784 
L 177.228 449.3016 
" clip-path="url(#p445f32efe9)" style="fill: none; stroke: #000000"/>
    <path d="M 79.7832 449.784 
L 155.52 386.1072 
" clip-path="url(#p445f32efe9)" style="fill: none; stroke: #000000"/>
    <path d="M 79.7832 449.784 
L 200.8656 116.4456 
" clip-path="url(#p445f32efe9)" style="fill: none; stroke: #000000"/>
    <path d="M 79.7832 449.784 
L 111.1392 190.7352 
" clip-path="url(#p445f32efe9)" style="fill: none; stroke: #000000"/>
    <path d="M 177.228 449.3016 
L 200.8656 116.4456 
" clip-path="url(#p445f32efe9)" style="fill: none; stroke: #000000"/>
    <path d="M 177.228 449.3016 
L 190.2528 430.9704 
" clip-path="url(#p445f32efe9)" style="fill: none; stroke: #000000"/>
    <path d="M 177.228 449.3016 
L 111.1392 190.7352 
" clip-path="url(#p445f32efe9)" style="fill: none; stroke: #000000"/>
    <path d="M 28.6488 439.6536 
L 155.52 386.1072 
" clip-path="url(#p445f32efe9)" style="fill: none; stroke: #000000"/>
    <path d="M 28.6488 439.6536 
L 111.1392 190.7352 
" clip-path="url(#p445f32efe9)" style="fill: none; stroke: #000000"/>
    <path d="M 28.6488 439.6536 
L 200.8656 116.4456 
" clip-path="url(#p445f32efe9)" style="fill: none; stroke: #000000"/>
    <path d="M 28.6488 439.6536 
L 190.2528 430.9704 
" clip-path="url(#p445f32efe9)" style="fill: none; stroke: #000000"/>
    <path d="M 111.1392 190.7352 
L 190.2528 430.9704 
" clip-path="url(#p445f32efe9)" style="fill: none; stroke: #000000"/>
    <path d="M 111.1392 190.7352 
L 155.52 386.1072 
" clip-path="url(#p445f32efe9)" style="fill: none; stroke: #000000"/>
    <path d="M 190.2528 430.9704 
L 200.8656 116.4456 
" clip-path="url(#p445f32efe9)" style="fill: none; stroke: #000000"/>
    <path d="M 190.2528 430.9704 
L 155.52 386.1072 
" clip-path="url(#p445f32efe9)" style="fill: none; stroke: #000000"/>
   </g>
   <g id="text_1">
    <g id="patch_3">
     <path d="M 162.349698 237.340677 
L 163.004122 243.669432 
Q 163.312691 246.653521 166.296779 246.344952 
L 175.923574 245.349495 
Q 178.907662 245.040926 178.599093 242.056837 
L 177.94467 235.728083 
Q 177.636101 232.743994 174.652012 233.052563 
L 165.025218 234.04802 
Q 162.041129 234.356589 162.349698 237.340677 
z
" clip-path="url(#p445f32efe9)" style="fill: #ffffff; stroke: #ffffff; stroke-linejoin: miter"/>
    </g>
    <g clip-path="url(#p445f32efe9)">
     <!-- 2 -->
     <g transform="translate(167.402444 236.818199) rotate(-275.903676) scale(0.1 -0.1)">
      <defs>
       <path id="DejaVuSans-32" d="M 1228 531 
L 3431 531 
L 3431 0 
L 469 0 
L 469 531 
Q 828 903 1448 1529 
Q 2069 2156 2228 2338 
Q 2531 2678 2651 2914 
Q 2772 3150 2772 3378 
Q 2772 3750 2511 3984 
Q 2250 4219 1831 4219 
Q 1534 4219 1204 4116 
Q 875 4013 500 3803 
L 500 4441 
Q 881 4594 1212 4672 
Q 1544 4750 1819 4750 
Q 2544 4750 2975 4387 
Q 3406 4025 3406 3419 
Q 3406 3131 3298 2873 
Q 3191 2616 2906 2266 
Q 2828 2175 2409 1742 
Q 1991 1309 1228 531 
z
" transform="scale(0.015625)"/>
      </defs>
      <use xlink:href="#DejaVuSans-32"/>
     </g>
    </g>
   </g>
   <g id="text_2">
    <g id="patch_4">
     <path d="M 121.85198 256.735649 
L 124.065976 244.204733 
Q 124.587939 241.25049 121.633696 240.728526 
L 112.103184 239.04465 
Q 109.14894 238.522686 108.626977 241.476929 
L 106.412981 254.007845 
Q 105.891017 256.962088 108.84526 257.484052 
L 118.375773 259.167929 
Q 121.330016 259.689892 121.85198 256.735649 
z
" clip-path="url(#p445f32efe9)" style="fill: #ffffff; stroke: #ffffff; stroke-linejoin: miter"/>
    </g>
    <g clip-path="url(#p445f32efe9)">
     <!-- 10 -->
     <g transform="translate(116.849769 255.851845) rotate(-79.980235) scale(0.1 -0.1)">
      <defs>
       <path id="DejaVuSans-31" d="M 794 531 
L 1825 531 
L 1825 4091 
L 703 3866 
L 703 4441 
L 1819 4666 
L 2450 4666 
L 2450 531 
L 3481 531 
L 3481 0 
L 794 0 
L 794 531 
z
" transform="scale(0.015625)"/>
       <path id="DejaVuSans-30" d="M 2034 4250 
Q 1547 4250 1301 3770 
Q 1056 3291 1056 2328 
Q 1056 1369 1301 889 
Q 1547 409 2034 409 
Q 2525 409 2770 889 
Q 3016 1369 3016 2328 
Q 3016 3291 2770 3770 
Q 2525 4250 2034 4250 
z
M 2034 4750 
Q 2819 4750 3233 4129 
Q 3647 3509 3647 2328 
Q 3647 1150 3233 529 
Q 2819 -91 2034 -91 
Q 1250 -91 836 529 
Q 422 1150 422 2328 
Q 422 3509 836 4129 
Q 1250 4750 2034 4750 
z
" transform="scale(0.015625)"/>
      </defs>
      <use xlink:href="#DejaVuSans-31"/>
      <use xlink:href="#DejaVuSans-30" x="63.623047"/>
     </g>
    </g>
   </g>
   <g id="text_3">
    <g id="patch_5">
     <path d="M 167.582557 84.527702 
L 171.359263 89.648043 
Q 173.140028 92.06235 175.554335 90.281585 
L 183.342988 84.536763 
Q 185.757295 82.755998 183.97653 80.341691 
L 180.199824 75.221349 
Q 178.419059 72.807043 176.004752 74.587808 
L 168.216099 80.33263 
Q 165.801792 82.113395 167.582557 84.527702 
z
" clip-path="url(#p445f32efe9)" style="fill: #ffffff; stroke: #ffffff; stroke-linejoin: miter"/>
    </g>
    <g clip-path="url(#p445f32efe9)">
     <!-- 9 -->
     <g transform="translate(171.670532 81.512458) rotate(-306.412064) scale(0.1 -0.1)">
      <defs>
       <path id="DejaVuSans-39" d="M 703 97 
L 703 672 
Q 941 559 1184 500 
Q 1428 441 1663 441 
Q 2288 441 2617 861 
Q 2947 1281 2994 2138 
Q 2813 1869 2534 1725 
Q 2256 1581 1919 1581 
Q 1219 1581 811 2004 
Q 403 2428 403 3163 
Q 403 3881 828 4315 
Q 1253 4750 1959 4750 
Q 2769 4750 3195 4129 
Q 3622 3509 3622 2328 
Q 3622 1225 3098 567 
Q 2575 -91 1691 -91 
Q 1453 -91 1209 -44 
Q 966 3 703 97 
z
M 1959 2075 
Q 2384 2075 2632 2365 
Q 2881 2656 2881 3163 
Q 2881 3666 2632 3958 
Q 2384 4250 1959 4250 
Q 1534 4250 1286 3958 
Q 1038 3666 1038 3163 
Q 1038 2656 1286 2365 
Q 1534 2075 1959 2075 
z
" transform="scale(0.015625)"/>
      </defs>
      <use xlink:href="#DejaVuSans-39"/>
     </g>
    </g>
   </g>
   <g id="text_4">
    <g id="patch_6">
     <path d="M 155.929981 246.208135 
L 156.350166 252.556745 
Q 156.548288 255.550196 159.541739 255.352074 
L 169.198736 254.712922 
Q 172.192187 254.5148 171.994064 251.521349 
L 171.573879 245.172739 
Q 171.375757 242.179288 168.382306 242.37741 
L 158.725309 243.016562 
Q 155.731859 243.214684 155.929981 246.208135 
z
" clip-path="url(#p445f32efe9)" style="fill: #ffffff; stroke: #ffffff; stroke-linejoin: miter"/>
    </g>
    <g clip-path="url(#p445f32efe9)">
     <!-- 6 -->
     <g transform="translate(160.998579 245.872668) rotate(-273.786617) scale(0.1 -0.1)">
      <defs>
       <path id="DejaVuSans-36" d="M 2113 2584 
Q 1688 2584 1439 2293 
Q 1191 2003 1191 1497 
Q 1191 994 1439 701 
Q 1688 409 2113 409 
Q 2538 409 2786 701 
Q 3034 994 3034 1497 
Q 3034 2003 2786 2293 
Q 2538 2584 2113 2584 
z
M 3366 4563 
L 3366 3988 
Q 3128 4100 2886 4159 
Q 2644 4219 2406 4219 
Q 1781 4219 1451 3797 
Q 1122 3375 1075 2522 
Q 1259 2794 1537 2939 
Q 1816 3084 2150 3084 
Q 2853 3084 3261 2657 
Q 3669 2231 3669 1497 
Q 3669 778 3244 343 
Q 2819 -91 2113 -91 
Q 1303 -91 875 529 
Q 447 1150 447 2328 
Q 447 3434 972 4092 
Q 1497 4750 2381 4750 
Q 2619 4750 2861 4703 
Q 3103 4656 3366 4563 
z
" transform="scale(0.015625)"/>
      </defs>
      <use xlink:href="#DejaVuSans-36"/>
     </g>
    </g>
   </g>
   <g id="text_5">
    <g id="patch_7">
     <path d="M 137.618542 124.744884 
L 139.322498 118.6148 
Q 140.125935 115.724386 137.235522 114.920949 
L 127.910928 112.329028 
Q 125.020515 111.525591 124.217078 114.416005 
L 122.513122 120.54609 
Q 121.709685 123.436503 124.600098 124.23994 
L 133.924692 126.831861 
Q 136.815105 127.635298 137.618542 124.744884 
z
" clip-path="url(#p445f32efe9)" style="fill: #ffffff; stroke: #ffffff; stroke-linejoin: miter"/>
    </g>
    <g clip-path="url(#p445f32efe9)">
     <!-- 3 -->
     <g transform="translate(132.72441 123.384482) rotate(-74.465872) scale(0.1 -0.1)">
      <defs>
       <path id="DejaVuSans-33" d="M 2597 2516 
Q 3050 2419 3304 2112 
Q 3559 1806 3559 1356 
Q 3559 666 3084 287 
Q 2609 -91 1734 -91 
Q 1441 -91 1130 -33 
Q 819 25 488 141 
L 488 750 
Q 750 597 1062 519 
Q 1375 441 1716 441 
Q 2309 441 2620 675 
Q 2931 909 2931 1356 
Q 2931 1769 2642 2001 
Q 2353 2234 1838 2234 
L 1294 2234 
L 1294 2753 
L 1863 2753 
Q 2328 2753 2575 2939 
Q 2822 3125 2822 3475 
Q 2822 3834 2567 4026 
Q 2313 4219 1838 4219 
Q 1578 4219 1281 4162 
Q 984 4106 628 3988 
L 628 4550 
Q 988 4650 1302 4700 
Q 1616 4750 1894 4750 
Q 2613 4750 3031 4423 
Q 3450 4097 3450 3541 
Q 3450 3153 3228 2886 
Q 3006 2619 2597 2516 
z
" transform="scale(0.015625)"/>
      </defs>
      <use xlink:href="#DejaVuSans-33"/>
     </g>
    </g>
   </g>
   <g id="text_6">
    <g id="patch_8">
     <path d="M 96.208491 249.411473 
L 98.103281 243.337662 
Q 98.996698 240.473782 96.132819 239.580365 
L 86.893824 236.698163 
Q 84.029945 235.804746 83.136528 238.668625 
L 81.241738 244.742436 
Q 80.348321 247.606316 83.2122 248.499733 
L 92.451195 251.381935 
Q 95.315074 252.275352 96.208491 249.411473 
z
" clip-path="url(#p445f32efe9)" style="fill: #ffffff; stroke: #ffffff; stroke-linejoin: miter"/>
    </g>
    <g clip-path="url(#p445f32efe9)">
     <!-- 4 -->
     <g transform="translate(91.359287 247.898712) rotate(-72.674138) scale(0.1 -0.1)">
      <defs>
       <path id="DejaVuSans-34" d="M 2419 4116 
L 825 1625 
L 2419 1625 
L 2419 4116 
z
M 2253 4666 
L 3047 4666 
L 3047 1625 
L 3713 1625 
L 3713 1100 
L 3047 1100 
L 3047 0 
L 2419 0 
L 2419 1100 
L 313 1100 
L 313 1709 
L 2253 4666 
z
" transform="scale(0.015625)"/>
      </defs>
      <use xlink:href="#DejaVuSans-34"/>
     </g>
    </g>
   </g>
   <g id="text_7">
    <g id="patch_9">
     <path d="M 112.889281 105.128674 
L 117.004418 100.276143 
Q 118.944757 97.988113 116.656727 96.047773 
L 109.275446 89.788157 
Q 106.987415 87.847818 105.047076 90.135848 
L 100.931939 94.988379 
Q 98.9916 97.27641 101.27963 99.216749 
L 108.660911 105.476365 
Q 110.948942 107.416704 112.889281 105.128674 
z
" clip-path="url(#p445f32efe9)" style="fill: #ffffff; stroke: #ffffff; stroke-linejoin: miter"/>
    </g>
    <g clip-path="url(#p445f32efe9)">
     <!-- 9 -->
     <g transform="translate(109.015121 101.843235) rotate(-49.700748) scale(0.1 -0.1)">
      <use xlink:href="#DejaVuSans-39"/>
     </g>
    </g>
   </g>
   <g id="text_8">
    <g id="patch_10">
     <path d="M 250.329036 93.164386 
L 262.281678 97.530161 
Q 265.099589 98.559421 266.128848 95.741509 
L 269.449282 86.650809 
Q 270.478542 83.832898 267.66063 82.803638 
L 255.707989 78.437863 
Q 252.890078 77.408604 251.860818 80.226515 
L 248.540384 89.317215 
Q 247.511125 92.135126 250.329036 93.164386 
z
" clip-path="url(#p445f32efe9)" style="fill: #ffffff; stroke: #ffffff; stroke-linejoin: miter"/>
    </g>
    <g clip-path="url(#p445f32efe9)">
     <!-- 18 -->
     <g transform="translate(252.071808 88.393016) rotate(-339.934969) scale(0.1 -0.1)">
      <defs>
       <path id="DejaVuSans-38" d="M 2034 2216 
Q 1584 2216 1326 1975 
Q 1069 1734 1069 1313 
Q 1069 891 1326 650 
Q 1584 409 2034 409 
Q 2484 409 2743 651 
Q 3003 894 3003 1313 
Q 3003 1734 2745 1975 
Q 2488 2216 2034 2216 
z
M 1403 2484 
Q 997 2584 770 2862 
Q 544 3141 544 3541 
Q 544 4100 942 4425 
Q 1341 4750 2034 4750 
Q 2731 4750 3128 4425 
Q 3525 4100 3525 3541 
Q 3525 3141 3298 2862 
Q 3072 2584 2669 2484 
Q 3125 2378 3379 2068 
Q 3634 1759 3634 1313 
Q 3634 634 3220 271 
Q 2806 -91 2034 -91 
Q 1263 -91 848 271 
Q 434 634 434 1313 
Q 434 1759 690 2068 
Q 947 2378 1403 2484 
z
M 1172 3481 
Q 1172 3119 1398 2916 
Q 1625 2713 2034 2713 
Q 2441 2713 2670 2916 
Q 2900 3119 2900 3481 
Q 2900 3844 2670 4047 
Q 2441 4250 2034 4250 
Q 1625 4250 1398 4047 
Q 1172 3844 1172 3481 
z
" transform="scale(0.015625)"/>
      </defs>
      <use xlink:href="#DejaVuSans-31"/>
      <use xlink:href="#DejaVuSans-38" x="63.623047"/>
     </g>
    </g>
   </g>
   <g id="text_9">
    <g id="patch_11">
     <path d="M 231.10635 186.537181 
L 238.040676 197.206799 
Q 239.675488 199.722229 242.190919 198.087417 
L 250.305802 192.813446 
Q 252.821232 191.178634 251.186421 188.663204 
L 244.252094 177.993586 
Q 242.617282 175.478156 240.101852 177.112968 
L 231.986968 182.386939 
Q 229.471538 184.021751 231.10635 186.537181 
z
" clip-path="url(#p445f32efe9)" style="fill: #ffffff; stroke: #ffffff; stroke-linejoin: miter"/>
    </g>
    <g clip-path="url(#p445f32efe9)">
     <!-- 12 -->
     <g transform="translate(235.36555 183.76907) rotate(-303.020377) scale(0.1 -0.1)">
      <use xlink:href="#DejaVuSans-31"/>
      <use xlink:href="#DejaVuSans-32" x="63.623047"/>
     </g>
    </g>
   </g>
   <g id="text_10">
    <g id="patch_12">
     <path d="M 145.224304 214.198817 
L 145.315187 220.560668 
Q 145.35804 223.560362 148.357734 223.517509 
L 158.034871 223.379265 
Q 161.034565 223.336412 160.991713 220.336718 
L 160.900829 213.974867 
Q 160.857976 210.975173 157.858282 211.018026 
L 148.181145 211.156271 
Q 145.181451 211.199123 145.224304 214.198817 
z
" clip-path="url(#p445f32efe9)" style="fill: #ffffff; stroke: #ffffff; stroke-linejoin: miter"/>
    </g>
    <g clip-path="url(#p445f32efe9)">
     <!-- 5 -->
     <g transform="translate(150.303473 214.126258) rotate(-270.818455) scale(0.1 -0.1)">
      <defs>
       <path id="DejaVuSans-35" d="M 691 4666 
L 3169 4666 
L 3169 4134 
L 1269 4134 
L 1269 2991 
Q 1406 3038 1543 3061 
Q 1681 3084 1819 3084 
Q 2600 3084 3056 2656 
Q 3513 2228 3513 1497 
Q 3513 744 3044 326 
Q 2575 -91 1722 -91 
Q 1428 -91 1123 -41 
Q 819 9 494 109 
L 494 744 
Q 775 591 1075 516 
Q 1375 441 1709 441 
Q 2250 441 2565 725 
Q 2881 1009 2881 1497 
Q 2881 1984 2565 2268 
Q 2250 2553 1709 2553 
Q 1456 2553 1204 2497 
Q 953 2441 691 2322 
L 691 4666 
z
" transform="scale(0.015625)"/>
      </defs>
      <use xlink:href="#DejaVuSans-35"/>
     </g>
    </g>
   </g>
   <g id="text_11">
    <g id="patch_13">
     <path d="M 356.038467 234.803796 
L 358.28275 222.27827 
Q 358.811854 219.325297 355.858881 218.796193 
L 346.332467 217.089281 
Q 343.379495 216.560177 342.850391 219.51315 
L 340.606107 232.038676 
Q 340.077003 234.991649 343.029976 235.520753 
L 352.55639 237.227665 
Q 355.509363 237.756769 356.038467 234.803796 
z
" clip-path="url(#p445f32efe9)" style="fill: #ffffff; stroke: #ffffff; stroke-linejoin: miter"/>
    </g>
    <g clip-path="url(#p445f32efe9)">
     <!-- 19 -->
     <g transform="translate(351.038407 233.907902) rotate(-79.841721) scale(0.1 -0.1)">
      <use xlink:href="#DejaVuSans-31"/>
      <use xlink:href="#DejaVuSans-39" x="63.623047"/>
     </g>
    </g>
   </g>
   <g id="text_12">
    <g id="patch_14">
     <path d="M 275.774274 297.886319 
L 282.246194 286.930048 
Q 283.771991 284.347037 281.18898 282.821241 
L 272.856079 277.898958 
Q 270.273069 276.373161 268.747272 278.956172 
L 262.275352 289.912443 
Q 260.749555 292.495454 263.332566 294.02125 
L 271.665467 298.943533 
Q 274.248478 300.46933 275.774274 297.886319 
z
" clip-path="url(#p445f32efe9)" style="fill: #ffffff; stroke: #ffffff; stroke-linejoin: miter"/>
    </g>
    <g clip-path="url(#p445f32efe9)">
     <!-- 13 -->
     <g transform="translate(271.400645 295.302796) rotate(-59.429456) scale(0.1 -0.1)">
      <use xlink:href="#DejaVuSans-31"/>
      <use xlink:href="#DejaVuSans-33" x="63.623047"/>
     </g>
    </g>
   </g>
   <g id="text_13">
    <g id="patch_15">
     <path d="M 280.384694 129.603336 
L 286.733103 130.026563 
Q 289.726458 130.226121 289.926015 127.232765 
L 290.569794 117.576076 
Q 290.769351 114.58272 287.775996 114.383163 
L 281.427588 113.959936 
Q 278.434232 113.760379 278.234675 116.753734 
L 277.590896 126.410424 
Q 277.391339 129.403779 280.384694 129.603336 
z
" clip-path="url(#p445f32efe9)" style="fill: #ffffff; stroke: #ffffff; stroke-linejoin: miter"/>
    </g>
    <g clip-path="url(#p445f32efe9)">
     <!-- 6 -->
     <g transform="translate(280.72259 124.534899) rotate(-356.185925) scale(0.1 -0.1)">
      <use xlink:href="#DejaVuSans-36"/>
     </g>
    </g>
   </g>
   <g id="text_14">
    <g id="patch_16">
     <path d="M 371.768318 282.012442 
L 372.274922 288.354741 
Q 372.513793 291.345216 375.504268 291.106346 
L 385.151665 290.33574 
Q 388.14214 290.096869 387.90327 287.106394 
L 387.396665 280.764095 
Q 387.157795 277.77362 384.16732 278.012491 
L 374.519922 278.783097 
Q 371.529447 279.021967 371.768318 282.012442 
z
" clip-path="url(#p445f32efe9)" style="fill: #ffffff; stroke: #ffffff; stroke-linejoin: miter"/>
    </g>
    <g clip-path="url(#p445f32efe9)">
     <!-- 4 -->
     <g transform="translate(376.831877 281.60798) rotate(-274.566925) scale(0.1 -0.1)">
      <use xlink:href="#DejaVuSans-34"/>
     </g>
    </g>
   </g>
   <g id="text_15">
    <g id="patch_17">
     <path d="M 214.595713 145.215855 
L 220.945098 144.807535 
Q 223.938913 144.615006 223.746385 141.621191 
L 223.125281 131.963016 
Q 222.932752 128.9692 219.938936 129.161729 
L 213.589552 129.570049 
Q 210.595736 129.762578 210.788265 132.756393 
L 211.409369 142.414568 
Q 211.601898 145.408384 214.595713 145.215855 
z
" clip-path="url(#p445f32efe9)" style="fill: #ffffff; stroke: #ffffff; stroke-linejoin: miter"/>
    </g>
    <g clip-path="url(#p445f32efe9)">
     <!-- 1 -->
     <g transform="translate(214.269719 140.146639) rotate(-3.679549) scale(0.1 -0.1)">
      <use xlink:href="#DejaVuSans-31"/>
     </g>
    </g>
   </g>
   <g id="text_16">
    <g id="patch_18">
     <path d="M 238.007288 167.510387 
L 244.184581 165.986422 
Q 247.097253 165.267853 246.378684 162.355181 
L 244.060551 152.958779 
Q 243.341982 150.046107 240.42931 150.764676 
L 234.252018 152.288641 
Q 231.339346 153.00721 232.057915 155.919882 
L 234.376048 165.316283 
Q 235.094616 168.228956 238.007288 167.510387 
z
" clip-path="url(#p445f32efe9)" style="fill: #ffffff; stroke: #ffffff; stroke-linejoin: miter"/>
    </g>
    <g clip-path="url(#p445f32efe9)">
     <!-- 6 -->
     <g transform="translate(236.790587 162.578565) rotate(-13.858386) scale(0.1 -0.1)">
      <use xlink:href="#DejaVuSans-36"/>
     </g>
    </g>
   </g>
   <g id="text_17">
    <g id="patch_19">
     <path d="M 352.082288 382.222476 
L 358.03616 393.468677 
Q 359.439823 396.120041 362.091187 394.716377 
L 370.644596 390.188102 
Q 373.29596 388.784438 371.892297 386.133075 
L 365.938426 374.886873 
Q 364.534763 372.23551 361.883399 373.639173 
L 353.329989 378.167449 
Q 350.678625 379.571112 352.082288 382.222476 
z
" clip-path="url(#p445f32efe9)" style="fill: #ffffff; stroke: #ffffff; stroke-linejoin: miter"/>
    </g>
    <g clip-path="url(#p445f32efe9)">
     <!-- 14 -->
     <g transform="translate(356.571655 379.845752) rotate(-297.897271) scale(0.1 -0.1)">
      <use xlink:href="#DejaVuSans-31"/>
      <use xlink:href="#DejaVuSans-34" x="63.623047"/>
     </g>
    </g>
   </g>
   <g id="text_18">
    <g id="patch_20">
     <path d="M 211.836775 262.083825 
L 222.665982 268.766181 
Q 225.219037 270.341589 226.794445 267.788534 
L 231.876778 259.552273 
Q 233.452186 256.999218 230.899131 255.42381 
L 220.069923 248.741454 
Q 217.516868 247.166046 215.94146 249.719101 
L 210.859128 257.955362 
Q 209.28372 260.508417 211.836775 262.083825 
z
" clip-path="url(#p445f32efe9)" style="fill: #ffffff; stroke: #ffffff; stroke-linejoin: miter"/>
    </g>
    <g clip-path="url(#p445f32efe9)">
     <!-- 15 -->
     <g transform="translate(214.504301 257.760918) rotate(-328.322599) scale(0.1 -0.1)">
      <use xlink:href="#DejaVuSans-31"/>
      <use xlink:href="#DejaVuSans-35" x="63.623047"/>
     </g>
    </g>
   </g>
   <g id="text_19">
    <g id="patch_21">
     <path d="M 260.452895 388.957756 
L 270.695473 381.406913 
Q 273.110226 379.626754 271.330066 377.212001 
L 265.587198 369.421907 
Q 263.807039 367.007153 261.392286 368.787313 
L 251.149708 376.338155 
Q 248.734955 378.118314 250.515114 380.533068 
L 256.257982 388.323162 
Q 258.038141 390.737915 260.452895 388.957756 
z
" clip-path="url(#p445f32efe9)" style="fill: #ffffff; stroke: #ffffff; stroke-linejoin: miter"/>
    </g>
    <g clip-path="url(#p445f32efe9)">
     <!-- 13 -->
     <g transform="translate(257.438677 384.869025) rotate(-36.39769) scale(0.1 -0.1)">
      <use xlink:href="#DejaVuSans-31"/>
      <use xlink:href="#DejaVuSans-33" x="63.623047"/>
     </g>
    </g>
   </g>
   <g id="text_20">
    <g id="patch_22">
     <path d="M 203.41253 398.114777 
L 214.846199 392.529364 
Q 217.541759 391.212567 216.224963 388.517006 
L 211.976921 379.821016 
Q 210.660125 377.125455 207.964564 378.442252 
L 196.530895 384.027665 
Q 193.835335 385.344462 195.152131 388.040022 
L 199.400173 396.736013 
Q 200.716969 399.431573 203.41253 398.114777 
z
" clip-path="url(#p445f32efe9)" style="fill: #ffffff; stroke: #ffffff; stroke-linejoin: miter"/>
    </g>
    <g clip-path="url(#p445f32efe9)">
     <!-- 11 -->
     <g transform="translate(201.182891 393.550575) rotate(-26.035775) scale(0.1 -0.1)">
      <use xlink:href="#DejaVuSans-31"/>
      <use xlink:href="#DejaVuSans-31" x="63.623047"/>
     </g>
    </g>
   </g>
   <g id="text_21">
    <g id="patch_23">
     <path d="M 254.304084 398.130824 
L 264.270953 390.219621 
Q 266.620707 388.354504 264.75559 386.004751 
L 258.738646 378.424349 
Q 256.87353 376.074596 254.523776 377.939713 
L 244.556907 385.850915 
Q 242.207153 387.716032 244.07227 390.065785 
L 250.089214 397.646187 
Q 251.95433 399.99594 254.304084 398.130824 
z
" clip-path="url(#p445f32efe9)" style="fill: #ffffff; stroke: #ffffff; stroke-linejoin: miter"/>
    </g>
    <g clip-path="url(#p445f32efe9)">
     <!-- 11 -->
     <g transform="translate(251.146014 394.152153) rotate(-38.440789) scale(0.1 -0.1)">
      <use xlink:href="#DejaVuSans-31"/>
      <use xlink:href="#DejaVuSans-31" x="63.623047"/>
     </g>
    </g>
   </g>
   <g id="text_22">
    <g id="patch_24">
     <path d="M 179.877805 391.669505 
L 185.839868 389.447972 
Q 188.651057 388.400491 187.603576 385.589302 
L 184.224358 376.52029 
Q 183.176876 373.709101 180.365688 374.756582 
L 174.403624 376.978115 
Q 171.592436 378.025596 172.639917 380.836785 
L 176.019135 389.905798 
Q 177.066616 392.716987 179.877805 391.669505 
z
" clip-path="url(#p445f32efe9)" style="fill: #ffffff; stroke: #ffffff; stroke-linejoin: miter"/>
    </g>
    <g clip-path="url(#p445f32efe9)">
     <!-- 6 -->
     <g transform="translate(178.104179 386.909518) rotate(-20.43597) scale(0.1 -0.1)">
      <use xlink:href="#DejaVuSans-36"/>
     </g>
    </g>
   </g>
   <g id="text_23">
    <g id="patch_25">
     <path d="M 265.966488 420.026728 
L 278.356193 422.928594 
Q 281.277145 423.612727 281.961279 420.691775 
L 284.168321 411.268662 
Q 284.852455 408.347709 281.931503 407.663576 
L 269.541797 404.76171 
Q 266.620845 404.077577 265.936712 406.998529 
L 263.729669 416.421642 
Q 263.045535 419.342595 265.966488 420.026728 
z
" clip-path="url(#p445f32efe9)" style="fill: #ffffff; stroke: #ffffff; stroke-linejoin: miter"/>
    </g>
    <g clip-path="url(#p445f32efe9)">
     <!-- 17 -->
     <g transform="translate(267.124882 415.080887) rotate(-346.818031) scale(0.1 -0.1)">
      <defs>
       <path id="DejaVuSans-37" d="M 525 4666 
L 3525 4666 
L 3525 4397 
L 1831 0 
L 1172 0 
L 2766 4134 
L 525 4134 
L 525 4666 
z
" transform="scale(0.015625)"/>
      </defs>
      <use xlink:href="#DejaVuSans-31"/>
      <use xlink:href="#DejaVuSans-37" x="63.623047"/>
     </g>
    </g>
   </g>
   <g id="text_24">
    <g id="patch_26">
     <path d="M 207.290636 448.440475 
L 213.653046 448.474228 
Q 216.653004 448.490143 216.668919 445.490185 
L 216.720261 435.812196 
Q 216.736176 432.812238 213.736218 432.796323 
L 207.373807 432.76257 
Q 204.37385 432.746656 204.357935 435.746613 
L 204.306593 445.424602 
Q 204.290678 448.42456 207.290636 448.440475 
z
" clip-path="url(#p445f32efe9)" style="fill: #ffffff; stroke: #ffffff; stroke-linejoin: miter"/>
    </g>
    <g clip-path="url(#p445f32efe9)">
     <!-- 4 -->
     <g transform="translate(207.317583 443.360859) rotate(-359.696046) scale(0.1 -0.1)">
      <use xlink:href="#DejaVuSans-34"/>
     </g>
    </g>
   </g>
   <g id="text_25">
    <g id="patch_27">
     <path d="M 233.106929 453.603378 
L 239.467241 453.436518 
Q 242.466209 453.357841 242.387532 450.358873 
L 242.133718 440.684077 
Q 242.055041 437.685109 239.056073 437.763785 
L 232.695762 437.930645 
Q 229.696793 438.009322 229.77547 441.00829 
L 230.029284 450.683086 
Q 230.107961 453.682055 233.106929 453.603378 
z
" clip-path="url(#p445f32efe9)" style="fill: #ffffff; stroke: #ffffff; stroke-linejoin: miter"/>
    </g>
    <g clip-path="url(#p445f32efe9)">
     <!-- 5 -->
     <g transform="translate(232.973711 448.525438) rotate(-1.502785) scale(0.1 -0.1)">
      <use xlink:href="#DejaVuSans-35"/>
     </g>
    </g>
   </g>
   <g id="text_26">
    <g id="patch_28">
     <path d="M 281.904163 453.390507 
L 288.262572 453.162402 
Q 291.260644 453.054848 291.15309 450.056777 
L 290.806116 440.384873 
Q 290.698561 437.386802 287.70049 437.494356 
L 281.34208 437.722461 
Q 278.344009 437.830015 278.451563 440.828086 
L 278.798537 450.499989 
Q 278.906091 453.498061 281.904163 453.390507 
z
" clip-path="url(#p445f32efe9)" style="fill: #ffffff; stroke: #ffffff; stroke-linejoin: miter"/>
    </g>
    <g clip-path="url(#p445f32efe9)">
     <!-- 2 -->
     <g transform="translate(281.722049 448.314085) rotate(-2.054573) scale(0.1 -0.1)">
      <use xlink:href="#DejaVuSans-32"/>
     </g>
    </g>
   </g>
   <g id="text_27">
    <g id="patch_29">
     <path d="M 222.187584 297.881111 
L 226.901461 302.154373 
Q 229.124114 304.169271 231.139012 301.946617 
L 237.639156 294.776246 
Q 239.654054 292.553593 237.431401 290.538695 
L 232.717524 286.265432 
Q 230.494871 284.250535 228.479973 286.473188 
L 221.979829 293.64356 
Q 219.964931 295.866213 222.187584 297.881111 
z
" clip-path="url(#p445f32efe9)" style="fill: #ffffff; stroke: #ffffff; stroke-linejoin: miter"/>
    </g>
    <g clip-path="url(#p445f32efe9)">
     <!-- 3 -->
     <g transform="translate(225.599268 294.117649) rotate(-317.806806) scale(0.1 -0.1)">
      <use xlink:href="#DejaVuSans-33"/>
     </g>
    </g>
   </g>
   <g id="text_28">
    <g id="patch_30">
     <path d="M 288.252507 280.250968 
L 291.481621 285.733142 
Q 293.004189 288.318057 295.589104 286.795488 
L 303.928147 281.883618 
Q 306.513062 280.36105 304.990494 277.776135 
L 301.76138 272.293961 
Q 300.238811 269.709046 297.653896 271.231615 
L 289.314853 276.143485 
Q 286.729938 277.666053 288.252507 280.250968 
z
" clip-path="url(#p445f32efe9)" style="fill: #ffffff; stroke: #ffffff; stroke-linejoin: miter"/>
    </g>
    <g clip-path="url(#p445f32efe9)">
     <!-- 7 -->
     <g transform="translate(292.62936 277.672911) rotate(-300.498969) scale(0.1 -0.1)">
      <use xlink:href="#DejaVuSans-37"/>
     </g>
    </g>
   </g>
   <g id="text_29">
    <g id="patch_31">
     <path d="M 241.791724 317.773392 
L 251.288114 326.243586 
Q 253.526949 328.240489 255.523852 326.001654 
L 261.965942 318.77908 
Q 263.962844 316.540245 261.724009 314.543343 
L 252.227619 306.073149 
Q 249.988784 304.076246 247.991882 306.315081 
L 241.549791 313.537655 
Q 239.552889 315.77649 241.791724 317.773392 
z
" clip-path="url(#p445f32efe9)" style="fill: #ffffff; stroke: #ffffff; stroke-linejoin: miter"/>
    </g>
    <g clip-path="url(#p445f32efe9)">
     <!-- 14 -->
     <g transform="translate(245.172937 313.982532) rotate(-318.269009) scale(0.1 -0.1)">
      <use xlink:href="#DejaVuSans-31"/>
      <use xlink:href="#DejaVuSans-34" x="63.623047"/>
     </g>
    </g>
   </g>
   <g id="text_30">
    <g id="patch_32">
     <path d="M 81.397838 172.079947 
L 85.896805 176.578913 
Q 88.018125 178.700234 90.139446 176.578913 
L 96.982913 169.735446 
Q 99.104234 167.614125 96.982913 165.492805 
L 92.483947 160.993838 
Q 90.362626 158.872518 88.241306 160.993838 
L 81.397838 167.837306 
Q 79.276518 169.958626 81.397838 172.079947 
z
" clip-path="url(#p445f32efe9)" style="fill: #ffffff; stroke: #ffffff; stroke-linejoin: miter"/>
    </g>
    <g clip-path="url(#p445f32efe9)">
     <!-- 4 -->
     <g transform="translate(84.989719 168.488065) rotate(-315) scale(0.1 -0.1)">
      <use xlink:href="#DejaVuSans-34"/>
     </g>
    </g>
   </g>
   <g id="text_31">
    <g id="patch_33">
     <path d="M 65.547958 295.453864 
L 65.811148 301.810918 
Q 65.935245 304.80835 68.932678 304.684253 
L 78.602519 304.283909 
Q 81.599951 304.159812 81.475854 301.162379 
L 81.212663 294.805325 
Q 81.088566 291.807893 78.091134 291.931991 
L 68.421293 292.332334 
Q 65.42386 292.456432 65.547958 295.453864 
z
" clip-path="url(#p445f32efe9)" style="fill: #ffffff; stroke: #ffffff; stroke-linejoin: miter"/>
    </g>
    <g clip-path="url(#p445f32efe9)">
     <!-- 5 -->
     <g transform="translate(70.623297 295.243739) rotate(-272.370764) scale(0.1 -0.1)">
      <use xlink:href="#DejaVuSans-35"/>
     </g>
    </g>
   </g>
   <g id="text_32">
    <g id="patch_34">
     <path d="M 129.5871 140.696209 
L 141.995226 137.874145 
Q 144.920521 137.208825 144.255201 134.28353 
L 142.108852 124.846407 
Q 141.443532 121.921113 138.518237 122.586432 
L 126.110112 125.408497 
Q 123.184817 126.073817 123.850137 128.999111 
L 125.996486 138.436234 
Q 126.661806 141.361529 129.5871 140.696209 
z
" clip-path="url(#p445f32efe9)" style="fill: #ffffff; stroke: #ffffff; stroke-linejoin: miter"/>
    </g>
    <g clip-path="url(#p445f32efe9)">
     <!-- 15 -->
     <g transform="translate(128.460562 135.743015) rotate(-12.813206) scale(0.1 -0.1)">
      <use xlink:href="#DejaVuSans-31"/>
      <use xlink:href="#DejaVuSans-35" x="63.623047"/>
     </g>
    </g>
   </g>
   <g id="text_33">
    <g id="patch_35">
     <path d="M 120.289748 289.10024 
L 122.817578 294.939031 
Q 124.009482 297.692096 126.762546 296.500192 
L 135.644047 292.65506 
Q 138.397112 291.463156 137.205208 288.710091 
L 134.677378 282.8713 
Q 133.485474 280.118235 130.732409 281.310139 
L 121.850908 285.155271 
Q 119.097844 286.347176 120.289748 289.10024 
z
" clip-path="url(#p445f32efe9)" style="fill: #ffffff; stroke: #ffffff; stroke-linejoin: miter"/>
    </g>
    <g clip-path="url(#p445f32efe9)">
     <!-- 4 -->
     <g transform="translate(124.951317 287.082073) rotate(-293.409581) scale(0.1 -0.1)">
      <use xlink:href="#DejaVuSans-34"/>
     </g>
    </g>
   </g>
   <g id="text_34">
    <g id="patch_36">
     <path d="M 112.69193 294.765876 
L 117.04061 306.724747 
Q 118.06584 309.544127 120.88522 308.518898 
L 129.980658 305.211466 
Q 132.800038 304.186237 131.774809 301.366857 
L 127.426129 289.407985 
Q 126.400899 286.588605 123.581519 287.613834 
L 114.486081 290.921266 
Q 111.666701 291.946495 112.69193 294.765876 
z
" clip-path="url(#p445f32efe9)" style="fill: #ffffff; stroke: #ffffff; stroke-linejoin: miter"/>
    </g>
    <g clip-path="url(#p445f32efe9)">
     <!-- 11 -->
     <g transform="translate(117.465787 293.029928) rotate(-289.983107) scale(0.1 -0.1)">
      <use xlink:href="#DejaVuSans-31"/>
      <use xlink:href="#DejaVuSans-31" x="63.623047"/>
     </g>
    </g>
   </g>
   <g id="text_35">
    <g id="patch_37">
     <path d="M 125.363502 457.397513 
L 131.725924 457.366016 
Q 134.725887 457.351165 134.711036 454.351202 
L 134.663125 444.673195 
Q 134.648274 441.673232 131.64831 441.688083 
L 125.285888 441.719581 
Q 122.285925 441.734432 122.300777 444.734395 
L 122.348687 454.412402 
Q 122.363539 457.412365 125.363502 457.397513 
z
" clip-path="url(#p445f32efe9)" style="fill: #ffffff; stroke: #ffffff; stroke-linejoin: miter"/>
    </g>
    <g clip-path="url(#p445f32efe9)">
     <!-- 7 -->
     <g transform="translate(125.338355 452.317888) rotate(-0.28364) scale(0.1 -0.1)">
      <use xlink:href="#DejaVuSans-37"/>
     </g>
    </g>
   </g>
   <g id="text_36">
    <g id="patch_38">
     <path d="M 117.825184 428.041219 
L 127.565111 419.852236 
Q 129.861361 417.92163 127.930756 415.62538 
L 121.702544 408.217582 
Q 119.771939 405.921332 117.475689 407.851937 
L 107.735762 416.040921 
Q 105.439512 417.971526 107.370117 420.267776 
L 113.598329 427.675574 
Q 115.528934 429.971824 117.825184 428.041219 
z
" clip-path="url(#p445f32efe9)" style="fill: #ffffff; stroke: #ffffff; stroke-linejoin: miter"/>
    </g>
    <g clip-path="url(#p445f32efe9)">
     <!-- 16 -->
     <g transform="translate(114.556228 424.153141) rotate(-40.055926) scale(0.1 -0.1)">
      <use xlink:href="#DejaVuSans-31"/>
      <use xlink:href="#DejaVuSans-36" x="63.623047"/>
     </g>
    </g>
   </g>
   <g id="text_37">
    <g id="patch_39">
     <path d="M 146.606364 288.781111 
L 148.77862 282.800918 
Q 149.802866 279.98118 146.983128 278.956934 
L 137.886537 275.652673 
Q 135.0668 274.628427 134.042554 277.448164 
L 131.870298 283.428358 
Q 130.846052 286.248095 133.66579 287.272342 
L 142.76238 290.576602 
Q 145.582118 291.600849 146.606364 288.781111 
z
" clip-path="url(#p445f32efe9)" style="fill: #ffffff; stroke: #ffffff; stroke-linejoin: miter"/>
    </g>
    <g clip-path="url(#p445f32efe9)">
     <!-- 9 -->
     <g transform="translate(141.831902 287.046828) rotate(-70.036869) scale(0.1 -0.1)">
      <use xlink:href="#DejaVuSans-39"/>
     </g>
    </g>
   </g>
   <g id="text_38">
    <g id="patch_40">
     <path d="M 102.861335 324.358521 
L 103.62589 318.042125 
Q 103.986387 315.063863 101.008125 314.703366 
L 91.40013 313.540387 
Q 88.421868 313.17989 88.061371 316.158151 
L 87.296816 322.474548 
Q 86.936319 325.452809 89.914581 325.813306 
L 99.522576 326.976285 
Q 102.500838 327.336782 102.861335 324.358521 
z
" clip-path="url(#p445f32efe9)" style="fill: #ffffff; stroke: #ffffff; stroke-linejoin: miter"/>
    </g>
    <g clip-path="url(#p445f32efe9)">
     <!-- 9 -->
     <g transform="translate(97.818456 323.748117) rotate(-83.098332) scale(0.1 -0.1)">
      <use xlink:href="#DejaVuSans-39"/>
     </g>
    </g>
   </g>
   <g id="text_39">
    <g id="patch_41">
     <path d="M 196.640612 286.605117 
L 197.091307 280.2586 
Q 197.303815 277.266136 194.311351 277.053628 
L 184.657538 276.368067 
Q 181.665074 276.155559 181.452566 279.148023 
L 181.001871 285.49454 
Q 180.789363 288.487004 183.781827 288.699512 
L 193.43564 289.385073 
Q 196.428104 289.597581 196.640612 286.605117 
z
" clip-path="url(#p445f32efe9)" style="fill: #ffffff; stroke: #ffffff; stroke-linejoin: miter"/>
    </g>
    <g clip-path="url(#p445f32efe9)">
     <!-- 8 -->
     <g transform="translate(191.573685 286.245292) rotate(-85.937988) scale(0.1 -0.1)">
      <use xlink:href="#DejaVuSans-38"/>
     </g>
    </g>
   </g>
   <g id="text_40">
    <g id="patch_42">
     <path d="M 186.446022 449.862214 
L 193.816433 439.489043 
Q 195.554054 437.043502 193.108513 435.30588 
L 185.219095 429.700241 
Q 182.773554 427.96262 181.035933 430.408161 
L 173.665522 440.781332 
Q 171.9279 443.226873 174.373442 444.964494 
L 182.26286 450.570133 
Q 184.708401 452.307755 186.446022 449.862214 
z
" clip-path="url(#p445f32efe9)" style="fill: #ffffff; stroke: #ffffff; stroke-linejoin: miter"/>
    </g>
    <g clip-path="url(#p445f32efe9)">
     <!-- 20 -->
     <g transform="translate(182.30516 446.920022) rotate(-54.605204) scale(0.1 -0.1)">
      <use xlink:href="#DejaVuSans-32"/>
      <use xlink:href="#DejaVuSans-30" x="63.623047"/>
     </g>
    </g>
   </g>
   <g id="text_41">
    <g id="patch_43">
     <path d="M 135.012458 315.792732 
L 138.163626 328.121388 
Q 138.906534 331.027948 141.813093 330.28504 
L 151.189775 327.888388 
Q 154.096334 327.14548 153.353426 324.238921 
L 150.202259 311.910264 
Q 149.459351 309.003705 146.552791 309.746613 
L 137.176109 312.143265 
Q 134.26955 312.886173 135.012458 315.792732 
z
" clip-path="url(#p445f32efe9)" style="fill: #ffffff; stroke: #ffffff; stroke-linejoin: miter"/>
    </g>
    <g clip-path="url(#p445f32efe9)">
     <!-- 16 -->
     <g transform="translate(139.933929 314.534819) rotate(-284.337665) scale(0.1 -0.1)">
      <use xlink:href="#DejaVuSans-31"/>
      <use xlink:href="#DejaVuSans-36" x="63.623047"/>
     </g>
    </g>
   </g>
   <g id="text_42">
    <g id="patch_44">
     <path d="M 92.202238 421.339314 
L 98.064043 418.86532 
Q 100.827959 417.6988 99.661439 414.934884 
L 95.898198 406.018376 
Q 94.731678 403.25446 91.967762 404.42098 
L 86.105957 406.894974 
Q 83.342041 408.061493 84.508561 410.825409 
L 88.271802 419.741918 
Q 89.438322 422.505834 92.202238 421.339314 
z
" clip-path="url(#p445f32efe9)" style="fill: #ffffff; stroke: #ffffff; stroke-linejoin: miter"/>
    </g>
    <g clip-path="url(#p445f32efe9)">
     <!-- 4 -->
     <g transform="translate(90.227052 416.659371) rotate(-22.882334) scale(0.1 -0.1)">
      <use xlink:href="#DejaVuSans-34"/>
     </g>
    </g>
   </g>
   <g id="text_43">
    <g id="patch_45">
     <path d="M 75.333619 323.699911 
L 79.336543 311.620912 
Q 80.280258 308.773211 77.432557 307.829496 
L 68.245754 304.785032 
Q 65.398053 303.841317 64.454338 306.689018 
L 60.451414 318.768017 
Q 59.507699 321.615719 62.3554 322.559434 
L 71.542203 325.603897 
Q 74.389904 326.547612 75.333619 323.699911 
z
" clip-path="url(#p445f32efe9)" style="fill: #ffffff; stroke: #ffffff; stroke-linejoin: miter"/>
    </g>
    <g clip-path="url(#p445f32efe9)">
     <!-- 20 -->
     <g transform="translate(70.511808 322.101985) rotate(-71.665044) scale(0.1 -0.1)">
      <use xlink:href="#DejaVuSans-32"/>
      <use xlink:href="#DejaVuSans-30" x="63.623047"/>
     </g>
    </g>
   </g>
   <g id="text_44">
    <g id="patch_46">
     <path d="M 118.682894 287.35217 
L 124.666779 276.121909 
Q 126.077518 273.474304 123.429912 272.063565 
L 114.888626 267.512462 
Q 112.241021 266.101723 110.830282 268.749328 
L 104.846397 279.979589 
Q 103.435658 282.627194 106.083263 284.037933 
L 114.624549 288.589036 
Q 117.272155 289.999775 118.682894 287.35217 
z
" clip-path="url(#p445f32efe9)" style="fill: #ffffff; stroke: #ffffff; stroke-linejoin: miter"/>
    </g>
    <g clip-path="url(#p445f32efe9)">
     <!-- 18 -->
     <g transform="translate(114.199891 284.963465) rotate(-61.94971) scale(0.1 -0.1)">
      <use xlink:href="#DejaVuSans-31"/>
      <use xlink:href="#DejaVuSans-38" x="63.623047"/>
     </g>
    </g>
   </g>
   <g id="text_45">
    <g id="patch_47">
     <path d="M 106.692585 443.310573 
L 113.04592 442.9692 
Q 116.041599 442.808238 115.880637 439.812559 
L 115.361368 430.148374 
Q 115.200406 427.152696 112.204727 427.313658 
L 105.851392 427.655031 
Q 102.855713 427.815993 103.016675 430.811671 
L 103.535944 440.475856 
Q 103.696906 443.471535 106.692585 443.310573 
z
" clip-path="url(#p445f32efe9)" style="fill: #ffffff; stroke: #ffffff; stroke-linejoin: miter"/>
    </g>
    <g clip-path="url(#p445f32efe9)">
     <!-- 5 -->
     <g transform="translate(106.42004 438.238202) rotate(-3.075622) scale(0.1 -0.1)">
      <use xlink:href="#DejaVuSans-35"/>
     </g>
    </g>
   </g>
   <g id="text_46">
    <g id="patch_48">
     <path d="M 142.25492 310.282275 
L 144.245063 316.325514 
Q 145.183441 319.174979 148.032906 318.236601 
L 157.225396 315.209355 
Q 160.074861 314.270977 159.136483 311.421513 
L 157.14634 305.378274 
Q 156.207962 302.528809 153.358498 303.467187 
L 144.166007 306.494433 
Q 141.316543 307.432811 142.25492 310.282275 
z
" clip-path="url(#p445f32efe9)" style="fill: #ffffff; stroke: #ffffff; stroke-linejoin: miter"/>
    </g>
    <g clip-path="url(#p445f32efe9)">
     <!-- 5 -->
     <g transform="translate(147.079717 308.693387) rotate(-288.227607) scale(0.1 -0.1)">
      <use xlink:href="#DejaVuSans-35"/>
     </g>
    </g>
   </g>
   <g id="text_47">
    <g id="patch_49">
     <path d="M 124.980586 287.055467 
L 126.389988 293.2599 
Q 127.054539 296.18537 129.980008 295.520819 
L 139.417695 293.376949 
Q 142.343164 292.712398 141.678613 289.786929 
L 140.269211 283.582495 
Q 139.60466 280.657026 136.679191 281.321577 
L 127.241504 283.465446 
Q 124.316035 284.129998 124.980586 287.055467 
z
" clip-path="url(#p445f32efe9)" style="fill: #ffffff; stroke: #ffffff; stroke-linejoin: miter"/>
    </g>
    <g clip-path="url(#p445f32efe9)">
     <!-- 5 -->
     <g transform="translate(129.934076 285.93023) rotate(-282.798151) scale(0.1 -0.1)">
      <use xlink:href="#DejaVuSans-35"/>
     </g>
    </g>
   </g>
   <g id="text_48">
    <g id="patch_50">
     <path d="M 203.179162 280.333557 
L 203.608289 267.615795 
Q 203.709458 264.617501 200.711165 264.516332 
L 191.038545 264.189955 
Q 188.040251 264.088785 187.939082 267.087079 
L 187.509955 279.804841 
Q 187.408785 282.803135 190.407079 282.904304 
L 200.079699 283.230681 
Q 203.077993 283.331851 203.179162 280.333557 
z
" clip-path="url(#p445f32efe9)" style="fill: #ffffff; stroke: #ffffff; stroke-linejoin: miter"/>
    </g>
    <g clip-path="url(#p445f32efe9)">
     <!-- 20 -->
     <g transform="translate(198.102364 280.162254) rotate(-88.06744) scale(0.1 -0.1)">
      <use xlink:href="#DejaVuSans-32"/>
      <use xlink:href="#DejaVuSans-30" x="63.623047"/>
     </g>
    </g>
   </g>
   <g id="text_49">
    <g id="patch_51">
     <path d="M 162.792421 408.306045 
L 170.582324 418.368004 
Q 172.418844 420.740175 174.791015 418.903656 
L 182.443738 412.978967 
Q 184.815909 411.142447 182.97939 408.770276 
L 175.189486 398.708317 
Q 173.352966 396.336146 170.980795 398.172666 
L 163.328072 404.097354 
Q 160.955901 405.933874 162.792421 408.306045 
z
" clip-path="url(#p445f32efe9)" style="fill: #ffffff; stroke: #ffffff; stroke-linejoin: miter"/>
    </g>
    <g clip-path="url(#p445f32efe9)">
     <!-- 15 -->
     <g transform="translate(166.80905 405.196396) rotate(-307.746805) scale(0.1 -0.1)">
      <use xlink:href="#DejaVuSans-31"/>
      <use xlink:href="#DejaVuSans-35" x="63.623047"/>
     </g>
    </g>
   </g>
   <g id="matplotlib.axis_1">
    <g id="xtick_1">
     <g id="line2d_1">
      <path d="M 10.8 493.2 
L 10.8 10.8 
" clip-path="url(#p445f32efe9)" style="fill: none; stroke: #b0b0b0; stroke-opacity: 0.3; stroke-width: 0.8; stroke-linecap: square"/>
     </g>
    </g>
    <g id="xtick_2">
     <g id="line2d_2">
      <path d="M 59.04 493.2 
L 59.04 10.8 
" clip-path="url(#p445f32efe9)" style="fill: none; stroke: #b0b0b0; stroke-opacity: 0.3; stroke-width: 0.8; stroke-linecap: square"/>
     </g>
    </g>
    <g id="xtick_3">
     <g id="line2d_3">
      <path d="M 107.28 493.2 
L 107.28 10.8 
" clip-path="url(#p445f32efe9)" style="fill: none; stroke: #b0b0b0; stroke-opacity: 0.3; stroke-width: 0.8; stroke-linecap: square"/>
     </g>
    </g>
    <g id="xtick_4">
     <g id="line2d_4">
      <path d="M 155.52 493.2 
L 155.52 10.8 
" clip-path="url(#p445f32efe9)" style="fill: none; stroke: #b0b0b0; stroke-opacity: 0.3; stroke-width: 0.8; stroke-linecap: square"/>
     </g>
    </g>
    <g id="xtick_5">
     <g id="line2d_5">
      <path d="M 203.76 493.2 
L 203.76 10.8 
" clip-path="url(#p445f32efe9)" style="fill: none; stroke: #b0b0b0; stroke-opacity: 0.3; stroke-width: 0.8; stroke-linecap: square"/>
     </g>
    </g>
    <g id="xtick_6">
     <g id="line2d_6">
      <path d="M 252 493.2 
L 252 10.8 
" clip-path="url(#p445f32efe9)" style="fill: none; stroke: #b0b0b0; stroke-opacity: 0.3; stroke-width: 0.8; stroke-linecap: square"/>
     </g>
    </g>
    <g id="xtick_7">
     <g id="line2d_7">
      <path d="M 300.24 493.2 
L 300.24 10.8 
" clip-path="url(#p445f32efe9)" style="fill: none; stroke: #b0b0b0; stroke-opacity: 0.3; stroke-width: 0.8; stroke-linecap: square"/>
     </g>
    </g>
    <g id="xtick_8">
     <g id="line2d_8">
      <path d="M 348.48 493.2 
L 348.48 10.8 
" clip-path="url(#p445f32efe9)" style="fill: none; stroke: #b0b0b0; stroke-opacity: 0.3; stroke-width: 0.8; stroke-linecap: square"/>
     </g>
    </g>
    <g id="xtick_9">
     <g id="line2d_9">
      <path d="M 396.72 493.2 
L 396.72 10.8 
" clip-path="url(#p445f32efe9)" style="fill: none; stroke: #b0b0b0; stroke-opacity: 0.3; stroke-width: 0.8; stroke-linecap: square"/>
     </g>
    </g>
    <g id="xtick_10">
     <g id="line2d_10">
      <path d="M 444.96 493.2 
L 444.96 10.8 
" clip-path="url(#p445f32efe9)" style="fill: none; stroke: #b0b0b0; stroke-opacity: 0.3; stroke-width: 0.8; stroke-linecap: square"/>
     </g>
    </g>
    <g id="xtick_11">
     <g id="line2d_11">
      <path d="M 493.2 493.2 
L 493.2 10.8 
" clip-path="url(#p445f32efe9)" style="fill: none; stroke: #b0b0b0; stroke-opacity: 0.3; stroke-width: 0.8; stroke-linecap: square"/>
     </g>
    </g>
   </g>
   <g id="matplotlib.axis_2">
    <g id="ytick_1">
     <g id="line2d_12">
      <path d="M 10.8 493.2 
L 493.2 493.2 
" clip-path="url(#p445f32efe9)" style="fill: none; stroke: #b0b0b0; stroke-opacity: 0.3; stroke-width: 0.8; stroke-linecap: square"/>
     </g>
    </g>
    <g id="ytick_2">
     <g id="line2d_13">
      <path d="M 10.8 444.96 
L 493.2 444.96 
" clip-path="url(#p445f32efe9)" style="fill: none; stroke: #b0b0b0; stroke-opacity: 0.3; stroke-width: 0.8; stroke-linecap: square"/>
     </g>
    </g>
    <g id="ytick_3">
     <g id="line2d_14">
      <path d="M 10.8 396.72 
L 493.2 396.72 
" clip-path="url(#p445f32efe9)" style="fill: none; stroke: #b0b0b0; stroke-opacity: 0.3; stroke-width: 0.8; stroke-linecap: square"/>
     </g>
    </g>
    <g id="ytick_4">
     <g id="line2d_15">
      <path d="M 10.8 348.48 
L 493.2 348.48 
" clip-path="url(#p445f32efe9)" style="fill: none; stroke: #b0b0b0; stroke-opacity: 0.3; stroke-width: 0.8; stroke-linecap: square"/>
     </g>
    </g>
    <g id="ytick_5">
     <g id="line2d_16">
      <path d="M 10.8 300.24 
L 493.2 300.24 
" clip-path="url(#p445f32efe9)" style="fill: none; stroke: #b0b0b0; stroke-opacity: 0.3; stroke-width: 0.8; stroke-linecap: square"/>
     </g>
    </g>
    <g id="ytick_6">
     <g id="line2d_17">
      <path d="M 10.8 252 
L 493.2 252 
" clip-path="url(#p445f32efe9)" style="fill: none; stroke: #b0b0b0; stroke-opacity: 0.3; stroke-width: 0.8; stroke-linecap: square"/>
     </g>
    </g>
    <g id="ytick_7">
     <g id="line2d_18">
      <path d="M 10.8 203.76 
L 493.2 203.76 
" clip-path="url(#p445f32efe9)" style="fill: none; stroke: #b0b0b0; stroke-opacity: 0.3; stroke-width: 0.8; stroke-linecap: square"/>
     </g>
    </g>
    <g id="ytick_8">
     <g id="line2d_19">
      <path d="M 10.8 155.52 
L 493.2 155.52 
" clip-path="url(#p445f32efe9)" style="fill: none; stroke: #b0b0b0; stroke-opacity: 0.3; stroke-width: 0.8; stroke-linecap: square"/>
     </g>
    </g>
    <g id="ytick_9">
     <g id="line2d_20">
      <path d="M 10.8 107.28 
L 493.2 107.28 
" clip-path="url(#p445f32efe9)" style="fill: none; stroke: #b0b0b0; stroke-opacity: 0.3; stroke-width: 0.8; stroke-linecap: square"/>
     </g>
    </g>
    <g id="ytick_10">
     <g id="line2d_21">
      <path d="M 10.8 59.04 
L 493.2 59.04 
" clip-path="url(#p445f32efe9)" style="fill: none; stroke: #b0b0b0; stroke-opacity: 0.3; stroke-width: 0.8; stroke-linecap: square"/>
     </g>
    </g>
    <g id="ytick_11">
     <g id="line2d_22">
      <path d="M 10.8 10.8 
L 493.2 10.8 
" clip-path="url(#p445f32efe9)" style="fill: none; stroke: #b0b0b0; stroke-opacity: 0.3; stroke-width: 0.8; stroke-linecap: square"/>
     </g>
    </g>
   </g>
   <g id="PathCollection_1">
    <defs>
     <path id="m81919782fd" d="M 0 8.660254 
C 2.296726 8.660254 4.499694 7.747755 6.123724 6.123724 
C 7.747755 4.499694 8.660254 2.296726 8.660254 0 
C 8.660254 -2.296726 7.747755 -4.499694 6.123724 -6.123724 
C 4.499694 -7.747755 2.296726 -8.660254 0 -8.660254 
C -2.296726 -8.660254 -4.499694 -7.747755 -6.123724 -6.123724 
C -7.747755 -4.499694 -8.660254 -2.296726 -8.660254 0 
C -8.660254 2.296726 -7.747755 4.499694 -6.123724 6.123724 
C -4.499694 7.747755 -2.296726 8.660254 0 8.660254 
z
" style="stroke: #1f78b4"/>
    </defs>
    <g clip-path="url(#p445f32efe9)">
     <use xlink:href="#m81919782fd" x="150.696" y="48.4272" style="fill: #1f78b4; stroke: #1f78b4"/>
     <use xlink:href="#m81919782fd" x="367.2936" y="127.5408" style="fill: #1f78b4; stroke: #1f78b4"/>
     <use xlink:href="#m81919782fd" x="331.596" y="326.772" style="fill: #1f78b4; stroke: #1f78b4"/>
     <use xlink:href="#m81919782fd" x="392.3784" y="441.5832" style="fill: #1f78b4; stroke: #1f78b4"/>
     <use xlink:href="#m81919782fd" x="67.2408" y="146.8368" style="fill: #1f78b4; stroke: #1f78b4"/>
     <use xlink:href="#m81919782fd" x="79.7832" y="449.784" style="fill: #1f78b4; stroke: #1f78b4"/>
     <use xlink:href="#m81919782fd" x="177.228" y="449.3016" style="fill: #1f78b4; stroke: #1f78b4"/>
     <use xlink:href="#m81919782fd" x="28.6488" y="439.6536" style="fill: #1f78b4; stroke: #1f78b4"/>
     <use xlink:href="#m81919782fd" x="111.1392" y="190.7352" style="fill: #1f78b4; stroke: #1f78b4"/>
     <use xlink:href="#m81919782fd" x="190.2528" y="430.9704" style="fill: #1f78b4; stroke: #1f78b4"/>
     <use xlink:href="#m81919782fd" x="200.8656" y="116.4456" style="fill: #1f78b4; stroke: #1f78b4"/>
     <use xlink:href="#m81919782fd" x="155.52" y="386.1072" style="fill: #1f78b4; stroke: #1f78b4"/>
    </g>
   </g>
   <g id="patch_52">
    <path d="M 10.8 493.2 
L 10.8 10.8 
" style="fill: none; stroke: #000000; stroke-width: 0.8; stroke-linejoin: miter; stroke-linecap: square"/>
   </g>
   <g id="patch_53">
    <path d="M 493.2 493.2 
L 493.2 10.8 
" style="fill: none; stroke: #000000; stroke-width: 0.8; stroke-linejoin: miter; stroke-linecap: square"/>
   </g>
   <g id="patch_54">
    <path d="M 10.8 493.2 
L 493.2 493.2 
" style="fill: none; stroke: #000000; stroke-width: 0.8; stroke-linejoin: miter; stroke-linecap: square"/>
   </g>
   <g id="patch_55">
    <path d="M 10.8 10.8 
L 493.2 10.8 
" style="fill: none; stroke: #000000; stroke-width: 0.8; stroke-linejoin: miter; stroke-linecap: square"/>
   </g>
   <g id="text_50">
    <g clip-path="url(#p445f32efe9)">
     <!-- 0 -->
     <g transform="translate(146.8785 51.73845) scale(0.12 -0.12)">
      <use xlink:href="#DejaVuSans-30"/>
     </g>
    </g>
   </g>
   <g id="text_51">
    <g clip-path="url(#p445f32efe9)">
     <!-- 1 -->
     <g transform="translate(363.4761 130.85205) scale(0.12 -0.12)">
      <use xlink:href="#DejaVuSans-31"/>
     </g>
    </g>
   </g>
   <g id="text_52">
    <g clip-path="url(#p445f32efe9)">
     <!-- 2 -->
     <g transform="translate(327.7785 330.08325) scale(0.12 -0.12)">
      <use xlink:href="#DejaVuSans-32"/>
     </g>
    </g>
   </g>
   <g id="text_53">
    <g clip-path="url(#p445f32efe9)">
     <!-- 3 -->
     <g transform="translate(388.5609 444.89445) scale(0.12 -0.12)">
      <use xlink:href="#DejaVuSans-33"/>
     </g>
    </g>
   </g>
   <g id="text_54">
    <g clip-path="url(#p445f32efe9)">
     <!-- 4 -->
     <g transform="translate(63.4233 150.14805) scale(0.12 -0.12)">
      <use xlink:href="#DejaVuSans-34"/>
     </g>
    </g>
   </g>
   <g id="text_55">
    <g clip-path="url(#p445f32efe9)">
     <!-- 5 -->
     <g transform="translate(75.9657 453.09525) scale(0.12 -0.12)">
      <use xlink:href="#DejaVuSans-35"/>
     </g>
    </g>
   </g>
   <g id="text_56">
    <g clip-path="url(#p445f32efe9)">
     <!-- 6 -->
     <g transform="translate(173.4105 452.61285) scale(0.12 -0.12)">
      <use xlink:href="#DejaVuSans-36"/>
     </g>
    </g>
   </g>
   <g id="text_57">
    <g clip-path="url(#p445f32efe9)">
     <!-- 7 -->
     <g transform="translate(24.8313 442.96485) scale(0.12 -0.12)">
      <use xlink:href="#DejaVuSans-37"/>
     </g>
    </g>
   </g>
   <g id="text_58">
    <g clip-path="url(#p445f32efe9)">
     <!-- 8 -->
     <g transform="translate(107.3217 194.04645) scale(0.12 -0.12)">
      <use xlink:href="#DejaVuSans-38"/>
     </g>
    </g>
   </g>
   <g id="text_59">
    <g clip-path="url(#p445f32efe9)">
     <!-- 9 -->
     <g transform="translate(186.4353 434.28165) scale(0.12 -0.12)">
      <use xlink:href="#DejaVuSans-39"/>
     </g>
    </g>
   </g>
   <g id="text_60">
    <g clip-path="url(#p445f32efe9)">
     <!-- 10 -->
     <g transform="translate(193.2306 119.75685) scale(0.12 -0.12)">
      <use xlink:href="#DejaVuSans-31"/>
      <use xlink:href="#DejaVuSans-30" x="63.623047"/>
     </g>
    </g>
   </g>
   <g id="text_61">
    <g clip-path="url(#p445f32efe9)">
     <!-- 11 -->
     <g transform="translate(147.885 389.41845) scale(0.12 -0.12)">
      <use xlink:href="#DejaVuSans-31"/>
      <use xlink:href="#DejaVuSans-31" x="63.623047"/>
     </g>
    </g>
   </g>
  </g>
 </g>
 <defs>
  <clipPath id="p445f32efe9">
   <rect x="10.8" y="10.8" width="482.4" height="482.4"/>
  </clipPath>
 </defs>
</svg>
