<?xml version="1.0" encoding="utf-8" standalone="no"?>
<!DOCTYPE svg PUBLIC "-//W3C//DTD SVG 1.1//EN"
  "http://www.w3.org/Graphics/SVG/1.1/DTD/svg11.dtd">
<svg xmlns:xlink="http://www.w3.org/1999/xlink" width="504pt" height="504pt" viewBox="0 0 504 504" xmlns="http://www.w3.org/2000/svg" version="1.1">
 <metadata>
  <rdf:RDF xmlns:dc="http://purl.org/dc/elements/1.1/" xmlns:cc="http://creativecommons.org/ns#" xmlns:rdf="http://www.w3.org/1999/02/22-rdf-syntax-ns#">
   <cc:Work>
    <dc:type rdf:resource="http://purl.org/dc/dcmitype/StillImage"/>
    <dc:date>2024-10-29T14:59:38.185492</dc:date>
    <dc:format>image/svg+xml</dc:format>
    <dc:creator>
     <cc:Agent>
      <dc:title>Matplotlib v3.9.2, https://matplotlib.org/</dc:title>
     </cc:Agent>
    </dc:creator>
   </cc:Work>
  </rdf:RDF>
 </metadata>
 <defs>
  <style type="text/css">*{stroke-linejoin: round; stroke-linecap: butt}</style>
 </defs>
 <g id="figure_1">
  <g id="patch_1">
   <path d="M 0 504 
L 504 504 
L 504 0 
L 0 0 
L 0 504 
z
" style="fill: none; opacity: 0"/>
  </g>
  <g id="axes_1">
   <g id="patch_2">
    <path d="M 10.8 493.2 
L 493.2 493.2 
L 493.2 10.8 
L 10.8 10.8 
L 10.8 493.2 
z
" style="fill: none; opacity: 0"/>
   </g>
   <g id="LineCollection_1">
    <path d="M 431.4528 277.5672 
L 325.8072 435.312 
" clip-path="url(#pa56e61d4fb)" style="fill: none; stroke: #000000"/>
    <path d="M 431.4528 277.5672 
L 437.2416 275.6376 
" clip-path="url(#pa56e61d4fb)" style="fill: none; stroke: #000000"/>
    <path d="M 431.4528 277.5672 
L 356.1984 355.2336 
" clip-path="url(#pa56e61d4fb)" style="fill: none; stroke: #000000"/>
    <path d="M 431.4528 277.5672 
L 372.1176 467.1504 
" clip-path="url(#pa56e61d4fb)" style="fill: none; stroke: #000000"/>
    <path d="M 431.4528 277.5672 
L 185.9112 11.7648 
" clip-path="url(#pa56e61d4fb)" style="fill: none; stroke: #000000"/>
    <path d="M 431.4528 277.5672 
L 440.6184 114.9984 
" clip-path="url(#pa56e61d4fb)" style="fill: none; stroke: #000000"/>
    <path d="M 431.4528 277.5672 
L 160.8264 358.128 
" clip-path="url(#pa56e61d4fb)" style="fill: none; stroke: #000000"/>
    <path d="M 161.3088 297.3456 
L 440.6184 114.9984 
" clip-path="url(#pa56e61d4fb)" style="fill: none; stroke: #000000"/>
    <path d="M 161.3088 297.3456 
L 372.1176 467.1504 
" clip-path="url(#pa56e61d4fb)" style="fill: none; stroke: #000000"/>
    <path d="M 161.3088 297.3456 
L 160.8264 358.128 
" clip-path="url(#pa56e61d4fb)" style="fill: none; stroke: #000000"/>
    <path d="M 161.3088 297.3456 
L 135.7416 412.1568 
" clip-path="url(#pa56e61d4fb)" style="fill: none; stroke: #000000"/>
    <path d="M 161.3088 297.3456 
L 185.9112 11.7648 
" clip-path="url(#pa56e61d4fb)" style="fill: none; stroke: #000000"/>
    <path d="M 283.8384 309.4056 
L 185.9112 11.7648 
" clip-path="url(#pa56e61d4fb)" style="fill: none; stroke: #000000"/>
    <path d="M 283.8384 309.4056 
L 430.488 221.6088 
" clip-path="url(#pa56e61d4fb)" style="fill: none; stroke: #000000"/>
    <path d="M 283.8384 309.4056 
L 135.7416 412.1568 
" clip-path="url(#pa56e61d4fb)" style="fill: none; stroke: #000000"/>
    <path d="M 283.8384 309.4056 
L 440.6184 114.9984 
" clip-path="url(#pa56e61d4fb)" style="fill: none; stroke: #000000"/>
    <path d="M 135.7416 412.1568 
L 185.9112 11.7648 
" clip-path="url(#pa56e61d4fb)" style="fill: none; stroke: #000000"/>
    <path d="M 135.7416 412.1568 
L 325.8072 435.312 
" clip-path="url(#pa56e61d4fb)" style="fill: none; stroke: #000000"/>
    <path d="M 135.7416 412.1568 
L 437.2416 275.6376 
" clip-path="url(#pa56e61d4fb)" style="fill: none; stroke: #000000"/>
    <path d="M 135.7416 412.1568 
L 93.7728 453.6432 
" clip-path="url(#pa56e61d4fb)" style="fill: none; stroke: #000000"/>
    <path d="M 135.7416 412.1568 
L 356.1984 355.2336 
" clip-path="url(#pa56e61d4fb)" style="fill: none; stroke: #000000"/>
    <path d="M 440.6184 114.9984 
L 93.7728 453.6432 
" clip-path="url(#pa56e61d4fb)" style="fill: none; stroke: #000000"/>
    <path d="M 437.2416 275.6376 
L 160.8264 358.128 
" clip-path="url(#pa56e61d4fb)" style="fill: none; stroke: #000000"/>
    <path d="M 437.2416 275.6376 
L 372.1176 467.1504 
" clip-path="url(#pa56e61d4fb)" style="fill: none; stroke: #000000"/>
    <path d="M 437.2416 275.6376 
L 430.488 221.6088 
" clip-path="url(#pa56e61d4fb)" style="fill: none; stroke: #000000"/>
    <path d="M 437.2416 275.6376 
L 356.1984 355.2336 
" clip-path="url(#pa56e61d4fb)" style="fill: none; stroke: #000000"/>
    <path d="M 372.1176 467.1504 
L 430.488 221.6088 
" clip-path="url(#pa56e61d4fb)" style="fill: none; stroke: #000000"/>
    <path d="M 372.1176 467.1504 
L 93.7728 453.6432 
" clip-path="url(#pa56e61d4fb)" style="fill: none; stroke: #000000"/>
    <path d="M 372.1176 467.1504 
L 325.8072 435.312 
" clip-path="url(#pa56e61d4fb)" style="fill: none; stroke: #000000"/>
    <path d="M 160.8264 358.128 
L 185.9112 11.7648 
" clip-path="url(#pa56e61d4fb)" style="fill: none; stroke: #000000"/>
    <path d="M 160.8264 358.128 
L 430.488 221.6088 
" clip-path="url(#pa56e61d4fb)" style="fill: none; stroke: #000000"/>
    <path d="M 160.8264 358.128 
L 356.1984 355.2336 
" clip-path="url(#pa56e61d4fb)" style="fill: none; stroke: #000000"/>
    <path d="M 160.8264 358.128 
L 93.7728 453.6432 
" clip-path="url(#pa56e61d4fb)" style="fill: none; stroke: #000000"/>
    <path d="M 93.7728 453.6432 
L 430.488 221.6088 
" clip-path="url(#pa56e61d4fb)" style="fill: none; stroke: #000000"/>
    <path d="M 93.7728 453.6432 
L 325.8072 435.312 
" clip-path="url(#pa56e61d4fb)" style="fill: none; stroke: #000000"/>
    <path d="M 93.7728 453.6432 
L 356.1984 355.2336 
" clip-path="url(#pa56e61d4fb)" style="fill: none; stroke: #000000"/>
    <path d="M 325.8072 435.312 
L 356.1984 355.2336 
" clip-path="url(#pa56e61d4fb)" style="fill: none; stroke: #000000"/>
    <path d="M 325.8072 435.312 
L 430.488 221.6088 
" clip-path="url(#pa56e61d4fb)" style="fill: none; stroke: #000000"/>
    <path d="M 356.1984 355.2336 
L 185.9112 11.7648 
" clip-path="url(#pa56e61d4fb)" style="fill: none; stroke: #000000"/>
   </g>
   <g id="text_1">
    <g id="patch_3">
     <path d="M 381.603716 366.086822 
L 388.684644 355.513929 
Q 390.354019 353.021301 387.861391 351.351927 
L 379.820072 345.966457 
Q 377.327445 344.297083 375.658071 346.78971 
L 368.577143 357.362603 
Q 366.907768 359.85523 369.400396 361.524604 
L 377.441715 366.910075 
Q 379.934342 368.579449 381.603716 366.086822 
z
" clip-path="url(#pa56e61d4fb)" style="fill: #ffffff; stroke: #ffffff; stroke-linejoin: miter"/>
    </g>
    <g clip-path="url(#pa56e61d4fb)">
     <!-- 16 -->
     <g transform="translate(377.383127 363.260189) rotate(-56.1888) scale(0.1 -0.1)">
      <defs>
       <path id="DejaVuSans-31" d="M 794 531 
L 1825 531 
L 1825 4091 
L 703 3866 
L 703 4441 
L 1819 4666 
L 2450 4666 
L 2450 531 
L 3481 531 
L 3481 0 
L 794 0 
L 794 531 
z
" transform="scale(0.015625)"/>
       <path id="DejaVuSans-36" d="M 2113 2584 
Q 1688 2584 1439 2293 
Q 1191 2003 1191 1497 
Q 1191 994 1439 701 
Q 1688 409 2113 409 
Q 2538 409 2786 701 
Q 3034 994 3034 1497 
Q 3034 2003 2786 2293 
Q 2538 2584 2113 2584 
z
M 3366 4563 
L 3366 3988 
Q 3128 4100 2886 4159 
Q 2644 4219 2406 4219 
Q 1781 4219 1451 3797 
Q 1122 3375 1075 2522 
Q 1259 2794 1537 2939 
Q 1816 3084 2150 3084 
Q 2853 3084 3261 2657 
Q 3669 2231 3669 1497 
Q 3669 778 3244 343 
Q 2819 -91 2113 -91 
Q 1303 -91 875 529 
Q 447 1150 447 2328 
Q 447 3434 972 4092 
Q 1497 4750 2381 4750 
Q 2619 4750 2861 4703 
Q 3103 4656 3366 4563 
z
" transform="scale(0.015625)"/>
      </defs>
      <use xlink:href="#DejaVuSans-31"/>
      <use xlink:href="#DejaVuSans-36" x="63.623047"/>
     </g>
    </g>
   </g>
   <g id="text_2">
    <g id="patch_4">
     <path d="M 430.790132 286.051187 
L 442.862127 282.027189 
Q 445.708177 281.078505 444.759493 278.232455 
L 441.699001 269.05098 
Q 440.750318 266.20493 437.904268 267.153613 
L 425.832273 271.177611 
Q 422.986223 272.126295 423.934907 274.972345 
L 426.995399 284.15382 
Q 427.944082 286.99987 430.790132 286.051187 
z
" clip-path="url(#pa56e61d4fb)" style="fill: #ffffff; stroke: #ffffff; stroke-linejoin: miter"/>
    </g>
    <g clip-path="url(#pa56e61d4fb)">
     <!-- 10 -->
     <g transform="translate(429.183794 281.232172) rotate(-18.434949) scale(0.1 -0.1)">
      <defs>
       <path id="DejaVuSans-30" d="M 2034 4250 
Q 1547 4250 1301 3770 
Q 1056 3291 1056 2328 
Q 1056 1369 1301 889 
Q 1547 409 2034 409 
Q 2525 409 2770 889 
Q 3016 1369 3016 2328 
Q 3016 3291 2770 3770 
Q 2525 4250 2034 4250 
z
M 2034 4750 
Q 2819 4750 3233 4129 
Q 3647 3509 3647 2328 
Q 3647 1150 3233 529 
Q 2819 -91 2034 -91 
Q 1250 -91 836 529 
Q 422 1150 422 2328 
Q 422 3509 836 4129 
Q 1250 4750 2034 4750 
z
" transform="scale(0.015625)"/>
      </defs>
      <use xlink:href="#DejaVuSans-31"/>
      <use xlink:href="#DejaVuSans-30" x="63.623047"/>
     </g>
    </g>
   </g>
   <g id="text_3">
    <g id="patch_5">
     <path d="M 395.027298 326.425358 
L 403.882207 317.286637 
Q 405.969808 315.132126 403.815297 313.044524 
L 396.864752 306.309835 
Q 394.710241 304.222234 392.622639 306.376746 
L 383.76773 315.515466 
Q 381.680129 317.669978 383.83464 319.757579 
L 390.785185 326.492268 
Q 392.939696 328.579869 395.027298 326.425358 
z
" clip-path="url(#pa56e61d4fb)" style="fill: #ffffff; stroke: #ffffff; stroke-linejoin: miter"/>
    </g>
    <g clip-path="url(#pa56e61d4fb)">
     <!-- 14 -->
     <g transform="translate(391.379216 322.89057) rotate(-45.903644) scale(0.1 -0.1)">
      <defs>
       <path id="DejaVuSans-34" d="M 2419 4116 
L 825 1625 
L 2419 1625 
L 2419 4116 
z
M 2253 4666 
L 3047 4666 
L 3047 1625 
L 3713 1625 
L 3713 1100 
L 3047 1100 
L 3047 0 
L 2419 0 
L 2419 1100 
L 313 1100 
L 313 1709 
L 2253 4666 
z
" transform="scale(0.015625)"/>
      </defs>
      <use xlink:href="#DejaVuSans-31"/>
      <use xlink:href="#DejaVuSans-34" x="63.623047"/>
     </g>
    </g>
   </g>
   <g id="text_4">
    <g id="patch_6">
     <path d="M 407.3659 380.772614 
L 411.166727 368.628507 
Q 412.062796 365.765456 409.199746 364.869387 
L 399.963425 361.97863 
Q 397.100374 361.082561 396.204304 363.945612 
L 392.403477 376.089719 
Q 391.507408 378.952769 394.370458 379.848839 
L 403.60678 382.739596 
Q 406.46983 383.635665 407.3659 380.772614 
z
" clip-path="url(#pa56e61d4fb)" style="fill: #ffffff; stroke: #ffffff; stroke-linejoin: miter"/>
    </g>
    <g clip-path="url(#pa56e61d4fb)">
     <!-- 11 -->
     <g transform="translate(402.518099 379.255364) rotate(-72.621075) scale(0.1 -0.1)">
      <use xlink:href="#DejaVuSans-31"/>
      <use xlink:href="#DejaVuSans-31" x="63.623047"/>
     </g>
    </g>
   </g>
   <g id="text_5">
    <g id="patch_7">
     <path d="M 300.764333 147.647559 
L 305.081652 152.32112 
Q 307.117322 154.524763 309.320966 152.489093 
L 316.430012 145.921934 
Q 318.633655 143.886263 316.597984 141.68262 
L 312.280666 137.009059 
Q 310.244995 134.805416 308.041352 136.841086 
L 300.932306 143.408245 
Q 298.728663 145.443916 300.764333 147.647559 
z
" clip-path="url(#pa56e61d4fb)" style="fill: #ffffff; stroke: #ffffff; stroke-linejoin: miter"/>
    </g>
    <g clip-path="url(#pa56e61d4fb)">
     <!-- 9 -->
     <g transform="translate(304.495607 144.200702) rotate(-312.730977) scale(0.1 -0.1)">
      <defs>
       <path id="DejaVuSans-39" d="M 703 97 
L 703 672 
Q 941 559 1184 500 
Q 1428 441 1663 441 
Q 2288 441 2617 861 
Q 2947 1281 2994 2138 
Q 2813 1869 2534 1725 
Q 2256 1581 1919 1581 
Q 1219 1581 811 2004 
Q 403 2428 403 3163 
Q 403 3881 828 4315 
Q 1253 4750 1959 4750 
Q 2769 4750 3195 4129 
Q 3622 3509 3622 2328 
Q 3622 1225 3098 567 
Q 2575 -91 1691 -91 
Q 1453 -91 1209 -44 
Q 966 3 703 97 
z
M 1959 2075 
Q 2384 2075 2632 2365 
Q 2881 2656 2881 3163 
Q 2881 3666 2632 3958 
Q 2384 4250 1959 4250 
Q 1534 4250 1286 3958 
Q 1038 3666 1038 3163 
Q 1038 2656 1286 2365 
Q 1534 2075 1959 2075 
z
" transform="scale(0.015625)"/>
      </defs>
      <use xlink:href="#DejaVuSans-39"/>
     </g>
    </g>
   </g>
   <g id="text_6">
    <g id="patch_8">
     <path d="M 443.504075 203.076658 
L 444.220371 190.371834 
Q 444.389242 187.376591 441.393999 187.207719 
L 431.731219 186.662934 
Q 428.735976 186.494062 428.567104 189.489306 
L 427.850809 202.194129 
Q 427.681937 205.189373 430.677181 205.358244 
L 440.33996 205.90303 
Q 443.335204 206.071901 443.504075 203.076658 
z
" clip-path="url(#pa56e61d4fb)" style="fill: #ffffff; stroke: #ffffff; stroke-linejoin: miter"/>
    </g>
    <g clip-path="url(#pa56e61d4fb)">
     <!-- 14 -->
     <g transform="translate(438.432442 202.79072) rotate(-86.77309) scale(0.1 -0.1)">
      <use xlink:href="#DejaVuSans-31"/>
      <use xlink:href="#DejaVuSans-34" x="63.623047"/>
     </g>
    </g>
   </g>
   <g id="text_7">
    <g id="patch_9">
     <path d="M 295.323812 326.269466 
L 301.421857 324.454184 
Q 304.297163 323.598255 303.441234 320.722949 
L 300.679972 311.447091 
Q 299.824043 308.571785 296.948736 309.427714 
L 290.850691 311.242996 
Q 287.975385 312.098925 288.831314 314.974232 
L 291.592576 324.250089 
Q 292.448505 327.125395 295.323812 326.269466 
z
" clip-path="url(#pa56e61d4fb)" style="fill: #ffffff; stroke: #ffffff; stroke-linejoin: miter"/>
    </g>
    <g clip-path="url(#pa56e61d4fb)">
     <!-- 7 -->
     <g transform="translate(293.874528 321.400914) rotate(-16.577358) scale(0.1 -0.1)">
      <defs>
       <path id="DejaVuSans-37" d="M 525 4666 
L 3525 4666 
L 3525 4397 
L 1831 0 
L 1172 0 
L 2766 4134 
L 525 4134 
L 525 4666 
z
" transform="scale(0.015625)"/>
      </defs>
      <use xlink:href="#DejaVuSans-37"/>
     </g>
    </g>
   </g>
   <g id="text_8">
    <g id="patch_10">
     <path d="M 299.920985 216.214405 
L 310.576284 209.258096 
Q 313.088339 207.618101 311.448344 205.106047 
L 306.157655 197.002054 
Q 304.51766 194.489999 302.005606 196.129993 
L 291.350307 203.086302 
Q 288.838252 204.726296 290.478246 207.238351 
L 295.768936 215.342344 
Q 297.408931 217.854399 299.920985 216.214405 
z
" clip-path="url(#pa56e61d4fb)" style="fill: #ffffff; stroke: #ffffff; stroke-linejoin: miter"/>
    </g>
    <g clip-path="url(#pa56e61d4fb)">
     <!-- 17 -->
     <g transform="translate(297.144099 211.96092) rotate(-33.138501) scale(0.1 -0.1)">
      <use xlink:href="#DejaVuSans-31"/>
      <use xlink:href="#DejaVuSans-37" x="63.623047"/>
     </g>
    </g>
   </g>
   <g id="text_9">
    <g id="patch_11">
     <path d="M 256.839721 384.360841 
L 266.749672 392.343227 
Q 269.086007 394.225125 270.967905 391.888791 
L 277.038988 384.351679 
Q 278.920887 382.015345 276.584553 380.133447 
L 266.674601 372.15106 
Q 264.338267 370.269162 262.456369 372.605496 
L 256.385285 380.142608 
Q 254.503387 382.478942 256.839721 384.360841 
z
" clip-path="url(#pa56e61d4fb)" style="fill: #ffffff; stroke: #ffffff; stroke-linejoin: miter"/>
    </g>
    <g clip-path="url(#pa56e61d4fb)">
     <!-- 17 -->
     <g transform="translate(260.026207 380.404891) rotate(-321.148834) scale(0.1 -0.1)">
      <use xlink:href="#DejaVuSans-31"/>
      <use xlink:href="#DejaVuSans-37" x="63.623047"/>
     </g>
    </g>
   </g>
   <g id="text_10">
    <g id="patch_12">
     <path d="M 168.881167 330.9803 
L 168.931662 324.618 
Q 168.955471 321.618095 165.955565 321.594286 
L 156.277745 321.517478 
Q 153.277839 321.493669 153.254031 324.493575 
L 153.203536 330.855874 
Q 153.179727 333.85578 156.179633 333.879589 
L 165.857453 333.956397 
Q 168.857359 333.980205 168.881167 330.9803 
z
" clip-path="url(#pa56e61d4fb)" style="fill: #ffffff; stroke: #ffffff; stroke-linejoin: miter"/>
    </g>
    <g clip-path="url(#pa56e61d4fb)">
     <!-- 5 -->
     <g transform="translate(163.80164 330.939986) rotate(-89.545281) scale(0.1 -0.1)">
      <defs>
       <path id="DejaVuSans-35" d="M 691 4666 
L 3169 4666 
L 3169 4134 
L 1269 4134 
L 1269 2991 
Q 1406 3038 1543 3061 
Q 1681 3084 1819 3084 
Q 2600 3084 3056 2656 
Q 3513 2228 3513 1497 
Q 3513 744 3044 326 
Q 2575 -91 1722 -91 
Q 1428 -91 1123 -41 
Q 819 9 494 109 
L 494 744 
Q 775 591 1075 516 
Q 1375 441 1709 441 
Q 2250 441 2565 725 
Q 2881 1009 2881 1497 
Q 2881 1984 2565 2268 
Q 2250 2553 1709 2553 
Q 1456 2553 1204 2497 
Q 953 2441 691 2322 
L 691 4666 
z
" transform="scale(0.015625)"/>
      </defs>
      <use xlink:href="#DejaVuSans-35"/>
     </g>
    </g>
   </g>
   <g id="text_11">
    <g id="patch_13">
     <path d="M 155.485409 359.560024 
L 156.868392 353.349649 
Q 157.520486 350.421377 154.592215 349.769283 
L 145.145489 347.665601 
Q 142.217218 347.013507 141.565124 349.941778 
L 140.182141 356.152154 
Q 139.530047 359.080425 142.458318 359.732519 
L 151.905044 361.836202 
Q 154.833315 362.488296 155.485409 359.560024 
z
" clip-path="url(#pa56e61d4fb)" style="fill: #ffffff; stroke: #ffffff; stroke-linejoin: miter"/>
    </g>
    <g clip-path="url(#pa56e61d4fb)">
     <!-- 2 -->
     <g transform="translate(150.527175 358.45588) rotate(-77.445705) scale(0.1 -0.1)">
      <defs>
       <path id="DejaVuSans-32" d="M 1228 531 
L 3431 531 
L 3431 0 
L 469 0 
L 469 531 
Q 828 903 1448 1529 
Q 2069 2156 2228 2338 
Q 2531 2678 2651 2914 
Q 2772 3150 2772 3378 
Q 2772 3750 2511 3984 
Q 2250 4219 1831 4219 
Q 1534 4219 1204 4116 
Q 875 4013 500 3803 
L 500 4441 
Q 881 4594 1212 4672 
Q 1544 4750 1819 4750 
Q 2544 4750 2975 4387 
Q 3406 4025 3406 3419 
Q 3406 3131 3298 2873 
Q 3191 2616 2906 2266 
Q 2828 2175 2409 1742 
Q 1991 1309 1228 531 
z
" transform="scale(0.015625)"/>
      </defs>
      <use xlink:href="#DejaVuSans-32"/>
     </g>
    </g>
   </g>
   <g id="text_12">
    <g id="patch_14">
     <path d="M 181.147403 158.393851 
L 181.693501 152.05483 
Q 181.950994 149.065901 178.962064 148.808408 
L 169.319654 147.977728 
Q 166.330725 147.720236 166.073233 150.709165 
L 165.527135 157.048185 
Q 165.269643 160.037115 168.258572 160.294607 
L 177.900982 161.125288 
Q 180.889911 161.38278 181.147403 158.393851 
z
" clip-path="url(#pa56e61d4fb)" style="fill: #ffffff; stroke: #ffffff; stroke-linejoin: miter"/>
    </g>
    <g clip-path="url(#pa56e61d4fb)">
     <!-- 5 -->
     <g transform="translate(176.086461 157.957857) rotate(-85.076203) scale(0.1 -0.1)">
      <use xlink:href="#DejaVuSans-35"/>
     </g>
    </g>
   </g>
   <g id="text_13">
    <g id="patch_15">
     <path d="M 225.440326 156.992535 
L 229.417276 169.080111 
Q 230.354867 171.929834 233.204591 170.992243 
L 242.397916 167.967534 
Q 245.24764 167.029943 244.310048 164.18022 
L 240.333099 152.092644 
Q 239.395507 149.242921 236.545784 150.180512 
L 227.352458 153.20522 
Q 224.502735 154.142812 225.440326 156.992535 
z
" clip-path="url(#pa56e61d4fb)" style="fill: #ffffff; stroke: #ffffff; stroke-linejoin: miter"/>
    </g>
    <g clip-path="url(#pa56e61d4fb)">
     <!-- 12 -->
     <g transform="translate(230.265561 155.404978) rotate(-288.211792) scale(0.1 -0.1)">
      <use xlink:href="#DejaVuSans-31"/>
      <use xlink:href="#DejaVuSans-32" x="63.623047"/>
     </g>
    </g>
   </g>
   <g id="text_14">
    <g id="patch_16">
     <path d="M 355.73118 275.501064 
L 366.64911 268.964672 
Q 369.223082 267.423676 367.682086 264.849704 
L 362.710768 256.545964 
Q 361.169772 253.971992 358.5958 255.512988 
L 347.67787 262.049381 
Q 345.103898 263.590377 346.644894 266.164349 
L 351.616212 274.468089 
Q 353.157208 277.042061 355.73118 275.501064 
z
" clip-path="url(#pa56e61d4fb)" style="fill: #ffffff; stroke: #ffffff; stroke-linejoin: miter"/>
    </g>
    <g clip-path="url(#pa56e61d4fb)">
     <!-- 12 -->
     <g transform="translate(353.12192 271.14274) rotate(-30.908291) scale(0.1 -0.1)">
      <use xlink:href="#DejaVuSans-31"/>
      <use xlink:href="#DejaVuSans-32" x="63.623047"/>
     </g>
    </g>
   </g>
   <g id="text_15">
    <g id="patch_17">
     <path d="M 209.030081 370.849497 
L 219.485115 363.595678 
Q 221.949956 361.885544 220.239822 359.420703 
L 214.722858 351.469023 
Q 213.012724 349.004182 210.547883 350.714316 
L 200.092849 357.968135 
Q 197.628008 359.678269 199.338142 362.14311 
L 204.855105 370.09479 
Q 206.56524 372.559631 209.030081 370.849497 
z
" clip-path="url(#pa56e61d4fb)" style="fill: #ffffff; stroke: #ffffff; stroke-linejoin: miter"/>
    </g>
    <g clip-path="url(#pa56e61d4fb)">
     <!-- 20 -->
     <g transform="translate(206.134432 366.675956) rotate(-34.753342) scale(0.1 -0.1)">
      <use xlink:href="#DejaVuSans-32"/>
      <use xlink:href="#DejaVuSans-30" x="63.623047"/>
     </g>
    </g>
   </g>
   <g id="text_16">
    <g id="patch_18">
     <path d="M 366.333007 219.599793 
L 370.327082 214.64714 
Q 372.210339 212.311901 369.8751 210.428644 
L 362.341522 204.353177 
Q 360.006282 202.46992 358.123025 204.805159 
L 354.12895 209.757812 
Q 352.245693 212.093051 354.580932 213.976308 
L 362.114511 220.051775 
Q 364.44975 221.935032 366.333007 219.599793 
z
" clip-path="url(#pa56e61d4fb)" style="fill: #ffffff; stroke: #ffffff; stroke-linejoin: miter"/>
    </g>
    <g clip-path="url(#pa56e61d4fb)">
     <!-- 5 -->
     <g transform="translate(362.378912 216.411007) rotate(-51.115504) scale(0.1 -0.1)">
      <use xlink:href="#DejaVuSans-35"/>
     </g>
    </g>
   </g>
   <g id="text_17">
    <g id="patch_19">
     <path d="M 168.209061 216.092445 
L 169.000104 209.779311 
Q 169.373091 206.802588 166.396368 206.429601 
L 156.793335 205.22633 
Q 153.816612 204.853343 153.443625 207.830066 
L 152.652582 214.1432 
Q 152.279595 217.119923 155.256318 217.49291 
L 164.859351 218.696181 
Q 167.836074 219.069168 168.209061 216.092445 
z
" clip-path="url(#pa56e61d4fb)" style="fill: #ffffff; stroke: #ffffff; stroke-linejoin: miter"/>
    </g>
    <g clip-path="url(#pa56e61d4fb)">
     <!-- 8 -->
     <g transform="translate(163.168786 215.460893) rotate(-82.857992) scale(0.1 -0.1)">
      <defs>
       <path id="DejaVuSans-38" d="M 2034 2216 
Q 1584 2216 1326 1975 
Q 1069 1734 1069 1313 
Q 1069 891 1326 650 
Q 1584 409 2034 409 
Q 2484 409 2743 651 
Q 3003 894 3003 1313 
Q 3003 1734 2745 1975 
Q 2488 2216 2034 2216 
z
M 1403 2484 
Q 997 2584 770 2862 
Q 544 3141 544 3541 
Q 544 4100 942 4425 
Q 1341 4750 2034 4750 
Q 2731 4750 3128 4425 
Q 3525 4100 3525 3541 
Q 3525 3141 3298 2862 
Q 3072 2584 2669 2484 
Q 3125 2378 3379 2068 
Q 3634 1759 3634 1313 
Q 3634 634 3220 271 
Q 2806 -91 2034 -91 
Q 1263 -91 848 271 
Q 434 634 434 1313 
Q 434 1759 690 2068 
Q 947 2378 1403 2484 
z
M 1172 3481 
Q 1172 3119 1398 2916 
Q 1625 2713 2034 2713 
Q 2441 2713 2670 2916 
Q 2900 3119 2900 3481 
Q 2900 3844 2670 4047 
Q 2441 4250 2034 4250 
Q 1625 4250 1398 4047 
Q 1172 3844 1172 3481 
z
" transform="scale(0.015625)"/>
      </defs>
      <use xlink:href="#DejaVuSans-38"/>
     </g>
    </g>
   </g>
   <g id="text_18">
    <g id="patch_20">
     <path d="M 226.669187 431.131294 
L 232.98499 431.900732 
Q 235.962972 432.263532 236.325772 429.28555 
L 237.496179 419.678456 
Q 237.858979 416.700474 234.880997 416.337675 
L 228.565194 415.568237 
Q 225.587212 415.205437 225.224412 418.183419 
L 224.054005 427.790512 
Q 223.691205 430.768494 226.669187 431.131294 
z
" clip-path="url(#pa56e61d4fb)" style="fill: #ffffff; stroke: #ffffff; stroke-linejoin: miter"/>
    </g>
    <g clip-path="url(#pa56e61d4fb)">
     <!-- 4 -->
     <g transform="translate(227.28349 426.088888) rotate(-353.054032) scale(0.1 -0.1)">
      <use xlink:href="#DejaVuSans-34"/>
     </g>
    </g>
   </g>
   <g id="text_19">
    <g id="patch_21">
     <path d="M 286.826098 352.350973 
L 292.62211 349.726539 
Q 295.355004 348.489085 294.117549 345.756191 
L 290.125471 336.939763 
Q 288.888016 334.206869 286.155123 335.444323 
L 280.359111 338.068757 
Q 277.626218 339.306212 278.863672 342.039105 
L 282.855751 350.855533 
Q 284.093205 353.588427 286.826098 352.350973 
z
" clip-path="url(#pa56e61d4fb)" style="fill: #ffffff; stroke: #ffffff; stroke-linejoin: miter"/>
    </g>
    <g clip-path="url(#pa56e61d4fb)">
     <!-- 1 -->
     <g transform="translate(284.730805 347.723558) rotate(-24.361018) scale(0.1 -0.1)">
      <use xlink:href="#DejaVuSans-31"/>
     </g>
    </g>
   </g>
   <g id="text_20">
    <g id="patch_22">
     <path d="M 118.005929 440.711192 
L 122.530826 436.238305 
Q 124.664373 434.129282 122.55535 431.995735 
L 115.751553 425.112825 
Q 113.64253 422.979278 111.508984 425.088301 
L 106.984087 429.561188 
Q 104.85054 431.670211 106.959563 433.803758 
L 113.76336 440.686668 
Q 115.872383 442.820215 118.005929 440.711192 
z
" clip-path="url(#pa56e61d4fb)" style="fill: #ffffff; stroke: #ffffff; stroke-linejoin: miter"/>
    </g>
    <g clip-path="url(#pa56e61d4fb)">
     <!-- 9 -->
     <g transform="translate(114.43487 437.098608) rotate(-44.668814) scale(0.1 -0.1)">
      <use xlink:href="#DejaVuSans-39"/>
     </g>
    </g>
   </g>
   <g id="text_21">
    <g id="patch_23">
     <path d="M 241.770305 392.875747 
L 254.091213 389.694419 
Q 256.995946 388.9444 256.245928 386.039668 
L 253.826337 376.668879 
Q 253.076318 373.764146 250.171585 374.514164 
L 237.850677 377.695493 
Q 234.945945 378.445512 235.695963 381.350244 
L 238.115554 390.721033 
Q 238.865573 393.625766 241.770305 392.875747 
z
" clip-path="url(#pa56e61d4fb)" style="fill: #ffffff; stroke: #ffffff; stroke-linejoin: miter"/>
    </g>
    <g clip-path="url(#pa56e61d4fb)">
     <!-- 14 -->
     <g transform="translate(240.500352 387.957369) rotate(-14.477877) scale(0.1 -0.1)">
      <use xlink:href="#DejaVuSans-31"/>
      <use xlink:href="#DejaVuSans-34" x="63.623047"/>
     </g>
    </g>
   </g>
   <g id="text_22">
    <g id="patch_24">
     <path d="M 270.397573 292.150367 
L 274.950037 287.705541 
Q 277.096582 285.609749 275.00079 283.463204 
L 268.239677 276.538361 
Q 266.143885 274.391816 263.99734 276.487608 
L 259.444876 280.932434 
Q 257.298331 283.028226 259.394123 285.174771 
L 266.155236 292.099614 
Q 268.251028 294.246159 270.397573 292.150367 
z
" clip-path="url(#pa56e61d4fb)" style="fill: #ffffff; stroke: #ffffff; stroke-linejoin: miter"/>
    </g>
    <g clip-path="url(#pa56e61d4fb)">
     <!-- 7 -->
     <g transform="translate(266.848916 288.515775) rotate(-44.31458) scale(0.1 -0.1)">
      <use xlink:href="#DejaVuSans-37"/>
     </g>
    </g>
   </g>
   <g id="text_23">
    <g id="patch_25">
     <path d="M 295.181235 326.21327 
L 307.374833 322.574343 
Q 310.249552 321.716442 309.391652 318.841724 
L 306.62403 309.567762 
Q 305.766129 306.693043 302.891411 307.550944 
L 290.697813 311.189871 
Q 287.823094 312.047771 288.680994 314.92249 
L 291.448616 324.196452 
Q 292.306517 327.07117 295.181235 326.21327 
z
" clip-path="url(#pa56e61d4fb)" style="fill: #ffffff; stroke: #ffffff; stroke-linejoin: miter"/>
    </g>
    <g clip-path="url(#pa56e61d4fb)">
     <!-- 12 -->
     <g transform="translate(293.728613 321.345713) rotate(-16.616646) scale(0.1 -0.1)">
      <use xlink:href="#DejaVuSans-31"/>
      <use xlink:href="#DejaVuSans-32" x="63.623047"/>
     </g>
    </g>
   </g>
   <g id="text_24">
    <g id="patch_26">
     <path d="M 410.053192 379.940695 
L 414.149948 367.893197 
Q 415.115785 365.052923 412.27551 364.087086 
L 403.112666 360.971258 
Q 400.272391 360.005421 399.306555 362.845696 
L 395.209799 374.893194 
Q 394.243962 377.733469 397.084237 378.699305 
L 406.247081 381.815134 
Q 409.087356 382.78097 410.053192 379.940695 
z
" clip-path="url(#pa56e61d4fb)" style="fill: #ffffff; stroke: #ffffff; stroke-linejoin: miter"/>
    </g>
    <g clip-path="url(#pa56e61d4fb)">
     <!-- 20 -->
     <g transform="translate(405.243956 378.305313) rotate(-71.219379) scale(0.1 -0.1)">
      <use xlink:href="#DejaVuSans-32"/>
      <use xlink:href="#DejaVuSans-30" x="63.623047"/>
     </g>
    </g>
   </g>
   <g id="text_25">
    <g id="patch_27">
     <path d="M 425.297362 243.284241 
L 426.875704 255.910977 
Q 427.247809 258.887811 430.224642 258.515707 
L 439.828032 257.315283 
Q 442.804865 256.943179 442.432761 253.966345 
L 440.854419 241.339609 
Q 440.482315 238.362776 437.505481 238.73488 
L 427.902092 239.935304 
Q 424.925258 240.307408 425.297362 243.284241 
z
" clip-path="url(#pa56e61d4fb)" style="fill: #ffffff; stroke: #ffffff; stroke-linejoin: miter"/>
    </g>
    <g clip-path="url(#pa56e61d4fb)">
     <!-- 13 -->
     <g transform="translate(430.337824 242.654184) rotate(-277.125016) scale(0.1 -0.1)">
      <defs>
       <path id="DejaVuSans-33" d="M 2597 2516 
Q 3050 2419 3304 2112 
Q 3559 1806 3559 1356 
Q 3559 666 3084 287 
Q 2609 -91 1734 -91 
Q 1441 -91 1130 -33 
Q 819 25 488 141 
L 488 750 
Q 750 597 1062 519 
Q 1375 441 1716 441 
Q 2309 441 2620 675 
Q 2931 909 2931 1356 
Q 2931 1769 2642 2001 
Q 2353 2234 1838 2234 
L 1294 2234 
L 1294 2753 
L 1863 2753 
Q 2328 2753 2575 2939 
Q 2822 3125 2822 3475 
Q 2822 3834 2567 4026 
Q 2313 4219 1838 4219 
Q 1578 4219 1281 4162 
Q 984 4106 628 3988 
L 628 4550 
Q 988 4650 1302 4700 
Q 1616 4750 1894 4750 
Q 2613 4750 3031 4423 
Q 3450 4097 3450 3541 
Q 3450 3153 3228 2886 
Q 3006 2619 2597 2516 
z
" transform="scale(0.015625)"/>
      </defs>
      <use xlink:href="#DejaVuSans-31"/>
      <use xlink:href="#DejaVuSans-33" x="63.623047"/>
     </g>
    </g>
   </g>
   <g id="text_26">
    <g id="patch_28">
     <path d="M 399.942875 323.257847 
L 404.482189 318.799593 
Q 406.622534 316.697469 404.52041 314.557124 
L 397.73887 307.652284 
Q 395.636746 305.511939 393.496401 307.614063 
L 388.957087 312.072318 
Q 386.816743 314.174442 388.918867 316.314787 
L 395.700407 323.219627 
Q 397.802531 325.359971 399.942875 323.257847 
z
" clip-path="url(#pa56e61d4fb)" style="fill: #ffffff; stroke: #ffffff; stroke-linejoin: miter"/>
    </g>
    <g clip-path="url(#pa56e61d4fb)">
     <!-- 6 -->
     <g transform="translate(396.383497 319.633754) rotate(-44.483836) scale(0.1 -0.1)">
      <use xlink:href="#DejaVuSans-36"/>
     </g>
    </g>
   </g>
   <g id="text_27">
    <g id="patch_29">
     <path d="M 407.457804 352.38273 
L 410.400791 340.002727 
Q 411.094619 337.084063 408.175954 336.390235 
L 398.760221 334.151917 
Q 395.841556 333.458089 395.147728 336.376754 
L 392.204742 348.756756 
Q 391.510914 351.675421 394.429578 352.369249 
L 403.845312 354.607566 
Q 406.763976 355.301394 407.457804 352.38273 
z
" clip-path="url(#pa56e61d4fb)" style="fill: #ffffff; stroke: #ffffff; stroke-linejoin: miter"/>
    </g>
    <g clip-path="url(#pa56e61d4fb)">
     <!-- 15 -->
     <g transform="translate(402.515836 351.20792) rotate(-76.627795) scale(0.1 -0.1)">
      <use xlink:href="#DejaVuSans-31"/>
      <use xlink:href="#DejaVuSans-35" x="63.623047"/>
     </g>
    </g>
   </g>
   <g id="text_28">
    <g id="patch_30">
     <path d="M 226.207452 467.918125 
L 238.917495 468.534904 
Q 241.913969 468.680313 242.059379 465.683839 
L 242.528476 456.01709 
Q 242.673885 453.020616 239.677411 452.875206 
L 226.967368 452.258428 
Q 223.970894 452.113018 223.825484 455.109492 
L 223.356387 464.776242 
Q 223.210978 467.772716 226.207452 467.918125 
z
" clip-path="url(#pa56e61d4fb)" style="fill: #ffffff; stroke: #ffffff; stroke-linejoin: miter"/>
    </g>
    <g clip-path="url(#pa56e61d4fb)">
     <!-- 19 -->
     <g transform="translate(226.453663 462.844408) rotate(-357.221795) scale(0.1 -0.1)">
      <use xlink:href="#DejaVuSans-31"/>
      <use xlink:href="#DejaVuSans-39" x="63.623047"/>
     </g>
    </g>
   </g>
   <g id="text_29">
    <g id="patch_31">
     <path d="M 339.278337 454.086348 
L 349.76427 461.295427 
Q 352.236396 462.995013 353.935982 460.522888 
L 359.418919 452.547707 
Q 361.118506 450.075581 358.64638 448.375995 
L 348.160446 441.166915 
Q 345.68832 439.467329 343.988734 441.939455 
L 338.505797 449.914636 
Q 336.806211 452.386761 339.278337 454.086348 
z
" clip-path="url(#pa56e61d4fb)" style="fill: #ffffff; stroke: #ffffff; stroke-linejoin: miter"/>
    </g>
    <g clip-path="url(#pa56e61d4fb)">
     <!-- 12 -->
     <g transform="translate(342.156126 449.900472) rotate(-325.491477) scale(0.1 -0.1)">
      <use xlink:href="#DejaVuSans-31"/>
      <use xlink:href="#DejaVuSans-32" x="63.623047"/>
     </g>
    </g>
   </g>
   <g id="text_30">
    <g id="patch_32">
     <path d="M 180.727759 191.859023 
L 181.646939 179.167264 
Q 181.863641 176.175101 178.871478 175.958398 
L 169.218636 175.259307 
Q 166.226472 175.042604 166.00977 178.034767 
L 165.09059 190.726526 
Q 164.873887 193.718689 167.86605 193.935391 
L 177.518893 194.634483 
Q 180.511056 194.851186 180.727759 191.859023 
z
" clip-path="url(#pa56e61d4fb)" style="fill: #ffffff; stroke: #ffffff; stroke-linejoin: miter"/>
    </g>
    <g clip-path="url(#pa56e61d4fb)">
     <!-- 12 -->
     <g transform="translate(175.661341 191.492095) rotate(-85.857677) scale(0.1 -0.1)">
      <use xlink:href="#DejaVuSans-31"/>
      <use xlink:href="#DejaVuSans-32" x="63.623047"/>
     </g>
    </g>
   </g>
   <g id="text_31">
    <g id="patch_33">
     <path d="M 293.520107 299.736725 
L 304.873117 293.989137 
Q 307.549662 292.634106 306.194631 289.957561 
L 301.823246 281.322916 
Q 300.468215 278.646372 297.79167 280.001402 
L 286.43866 285.748991 
Q 283.762115 287.104022 285.117146 289.780566 
L 289.488531 298.415211 
Q 290.843562 301.091756 293.520107 299.736725 
z
" clip-path="url(#pa56e61d4fb)" style="fill: #ffffff; stroke: #ffffff; stroke-linejoin: miter"/>
    </g>
    <g clip-path="url(#pa56e61d4fb)">
     <!-- 12 -->
     <g transform="translate(291.225729 295.204722) rotate(-26.851323) scale(0.1 -0.1)">
      <use xlink:href="#DejaVuSans-31"/>
      <use xlink:href="#DejaVuSans-32" x="63.623047"/>
     </g>
    </g>
   </g>
   <g id="text_32">
    <g id="patch_34">
     <path d="M 255.448678 364.566111 
L 261.810479 364.471862 
Q 264.81015 364.427423 264.765711 361.427752 
L 264.622347 351.750689 
Q 264.577907 348.751018 261.578236 348.795457 
L 255.216434 348.889706 
Q 252.216764 348.934146 252.261203 351.933817 
L 252.404567 361.61088 
Q 252.449007 364.610551 255.448678 364.566111 
z
" clip-path="url(#pa56e61d4fb)" style="fill: #ffffff; stroke: #ffffff; stroke-linejoin: miter"/>
    </g>
    <g clip-path="url(#pa56e61d4fb)">
     <!-- 1 -->
     <g transform="translate(255.373431 359.486981) rotate(-0.848764) scale(0.1 -0.1)">
      <use xlink:href="#DejaVuSans-31"/>
     </g>
    </g>
   </g>
   <g id="text_33">
    <g id="patch_35">
     <path d="M 131.888793 412.991796 
L 135.544504 407.78438 
Q 137.268218 405.329017 134.812855 403.605302 
L 126.891751 398.044527 
Q 124.436388 396.320813 122.712674 398.776176 
L 119.056962 403.983592 
Q 117.333248 406.438955 119.788611 408.16267 
L 127.709715 413.723444 
Q 130.165078 415.447159 131.888793 412.991796 
z
" clip-path="url(#pa56e61d4fb)" style="fill: #ffffff; stroke: #ffffff; stroke-linejoin: miter"/>
    </g>
    <g clip-path="url(#pa56e61d4fb)">
     <!-- 1 -->
     <g transform="translate(127.7313 410.073152) rotate(-54.93037) scale(0.1 -0.1)">
      <use xlink:href="#DejaVuSans-31"/>
     </g>
    </g>
   </g>
   <g id="text_34">
    <g id="patch_36">
     <path d="M 263.959033 345.885972 
L 269.198055 342.275701 
Q 271.668321 340.573412 269.966032 338.103146 
L 264.474376 330.133967 
Q 262.772087 327.663701 260.301822 329.36599 
L 255.0628 332.976261 
Q 252.592534 334.67855 254.294823 337.148816 
L 259.786479 345.117996 
Q 261.488768 347.588261 263.959033 345.885972 
z
" clip-path="url(#pa56e61d4fb)" style="fill: #ffffff; stroke: #ffffff; stroke-linejoin: miter"/>
    </g>
    <g clip-path="url(#pa56e61d4fb)">
     <!-- 7 -->
     <g transform="translate(261.076668 341.703246) rotate(-34.571183) scale(0.1 -0.1)">
      <use xlink:href="#DejaVuSans-37"/>
     </g>
    </g>
   </g>
   <g id="text_35">
    <g id="patch_37">
     <path d="M 204.065117 452.793365 
L 216.750591 451.791186 
Q 219.741273 451.554916 219.505003 448.564235 
L 218.742786 438.916171 
Q 218.506516 435.92549 215.515834 436.16176 
L 202.83036 437.163939 
Q 199.839678 437.400209 200.075948 440.39089 
L 200.838165 450.038954 
Q 201.074435 453.029635 204.065117 452.793365 
z
" clip-path="url(#pa56e61d4fb)" style="fill: #ffffff; stroke: #ffffff; stroke-linejoin: miter"/>
    </g>
    <g clip-path="url(#pa56e61d4fb)">
     <!-- 18 -->
     <g transform="translate(203.665057 447.729456) rotate(-4.517104) scale(0.1 -0.1)">
      <use xlink:href="#DejaVuSans-31"/>
      <use xlink:href="#DejaVuSans-38" x="63.623047"/>
     </g>
    </g>
   </g>
   <g id="text_36">
    <g id="patch_38">
     <path d="M 224.760479 412.894943 
L 230.717873 410.66092 
Q 233.526861 409.60755 232.47349 406.798562 
L 229.075274 397.736651 
Q 228.021904 394.927664 225.212916 395.981034 
L 219.255522 398.215057 
Q 216.446534 399.268427 217.499904 402.077415 
L 220.898121 411.139326 
Q 221.951491 413.948313 224.760479 412.894943 
z
" clip-path="url(#pa56e61d4fb)" style="fill: #ffffff; stroke: #ffffff; stroke-linejoin: miter"/>
    </g>
    <g clip-path="url(#pa56e61d4fb)">
     <!-- 1 -->
     <g transform="translate(222.976881 408.138683) rotate(-20.556045) scale(0.1 -0.1)">
      <use xlink:href="#DejaVuSans-31"/>
     </g>
    </g>
   </g>
   <g id="text_37">
    <g id="patch_39">
     <path d="M 346.074079 404.0032 
L 350.589215 392.106176 
Q 351.653687 389.301377 348.848887 388.236905 
L 339.800488 384.802874 
Q 336.995689 383.738402 335.931217 386.543201 
L 331.416081 398.440225 
Q 330.351609 401.245024 333.156408 402.309496 
L 342.204808 405.743528 
Q 345.009607 406.808 346.074079 404.0032 
z
" clip-path="url(#pa56e61d4fb)" style="fill: #ffffff; stroke: #ffffff; stroke-linejoin: miter"/>
    </g>
    <g clip-path="url(#pa56e61d4fb)">
     <!-- 19 -->
     <g transform="translate(341.324911 402.200805) rotate(-69.217341) scale(0.1 -0.1)">
      <use xlink:href="#DejaVuSans-31"/>
      <use xlink:href="#DejaVuSans-39" x="63.623047"/>
     </g>
    </g>
   </g>
   <g id="text_38">
    <g id="patch_40">
     <path d="M 382.388629 337.622515 
L 387.986367 326.194875 
Q 389.306069 323.500736 386.61193 322.181033 
L 377.920525 317.923618 
Q 375.226386 316.603916 373.906684 319.298055 
L 368.308946 330.725695 
Q 366.989244 333.419834 369.683383 334.739536 
L 378.374788 338.996951 
Q 381.068927 340.316654 382.388629 337.622515 
z
" clip-path="url(#pa56e61d4fb)" style="fill: #ffffff; stroke: #ffffff; stroke-linejoin: miter"/>
    </g>
    <g clip-path="url(#pa56e61d4fb)">
     <!-- 12 -->
     <g transform="translate(377.826834 335.387956) rotate(-63.902447) scale(0.1 -0.1)">
      <use xlink:href="#DejaVuSans-31"/>
      <use xlink:href="#DejaVuSans-32" x="63.623047"/>
     </g>
    </g>
   </g>
   <g id="text_39">
    <g id="patch_41">
     <path d="M 261.205089 181.280314 
L 266.857421 192.68105 
Q 268.189994 195.368846 270.87779 194.036273 
L 279.548733 189.737336 
Q 282.236529 188.404763 280.903956 185.716967 
L 275.251625 174.316231 
Q 273.919052 171.628435 271.231255 172.961008 
L 262.560313 177.259945 
Q 259.872516 178.592518 261.205089 181.280314 
z
" clip-path="url(#pa56e61d4fb)" style="fill: #ffffff; stroke: #ffffff; stroke-linejoin: miter"/>
    </g>
    <g clip-path="url(#pa56e61d4fb)">
     <!-- 17 -->
     <g transform="translate(265.756144 179.023962) rotate(-296.371594) scale(0.1 -0.1)">
      <use xlink:href="#DejaVuSans-31"/>
      <use xlink:href="#DejaVuSans-37" x="63.623047"/>
     </g>
    </g>
   </g>
   <g id="matplotlib.axis_1">
    <g id="xtick_1">
     <g id="line2d_1">
      <path d="M 10.8 493.2 
L 10.8 10.8 
" clip-path="url(#pa56e61d4fb)" style="fill: none; stroke: #b0b0b0; stroke-opacity: 0.3; stroke-width: 0.8; stroke-linecap: square"/>
     </g>
    </g>
    <g id="xtick_2">
     <g id="line2d_2">
      <path d="M 59.04 493.2 
L 59.04 10.8 
" clip-path="url(#pa56e61d4fb)" style="fill: none; stroke: #b0b0b0; stroke-opacity: 0.3; stroke-width: 0.8; stroke-linecap: square"/>
     </g>
    </g>
    <g id="xtick_3">
     <g id="line2d_3">
      <path d="M 107.28 493.2 
L 107.28 10.8 
" clip-path="url(#pa56e61d4fb)" style="fill: none; stroke: #b0b0b0; stroke-opacity: 0.3; stroke-width: 0.8; stroke-linecap: square"/>
     </g>
    </g>
    <g id="xtick_4">
     <g id="line2d_4">
      <path d="M 155.52 493.2 
L 155.52 10.8 
" clip-path="url(#pa56e61d4fb)" style="fill: none; stroke: #b0b0b0; stroke-opacity: 0.3; stroke-width: 0.8; stroke-linecap: square"/>
     </g>
    </g>
    <g id="xtick_5">
     <g id="line2d_5">
      <path d="M 203.76 493.2 
L 203.76 10.8 
" clip-path="url(#pa56e61d4fb)" style="fill: none; stroke: #b0b0b0; stroke-opacity: 0.3; stroke-width: 0.8; stroke-linecap: square"/>
     </g>
    </g>
    <g id="xtick_6">
     <g id="line2d_6">
      <path d="M 252 493.2 
L 252 10.8 
" clip-path="url(#pa56e61d4fb)" style="fill: none; stroke: #b0b0b0; stroke-opacity: 0.3; stroke-width: 0.8; stroke-linecap: square"/>
     </g>
    </g>
    <g id="xtick_7">
     <g id="line2d_7">
      <path d="M 300.24 493.2 
L 300.24 10.8 
" clip-path="url(#pa56e61d4fb)" style="fill: none; stroke: #b0b0b0; stroke-opacity: 0.3; stroke-width: 0.8; stroke-linecap: square"/>
     </g>
    </g>
    <g id="xtick_8">
     <g id="line2d_8">
      <path d="M 348.48 493.2 
L 348.48 10.8 
" clip-path="url(#pa56e61d4fb)" style="fill: none; stroke: #b0b0b0; stroke-opacity: 0.3; stroke-width: 0.8; stroke-linecap: square"/>
     </g>
    </g>
    <g id="xtick_9">
     <g id="line2d_9">
      <path d="M 396.72 493.2 
L 396.72 10.8 
" clip-path="url(#pa56e61d4fb)" style="fill: none; stroke: #b0b0b0; stroke-opacity: 0.3; stroke-width: 0.8; stroke-linecap: square"/>
     </g>
    </g>
    <g id="xtick_10">
     <g id="line2d_10">
      <path d="M 444.96 493.2 
L 444.96 10.8 
" clip-path="url(#pa56e61d4fb)" style="fill: none; stroke: #b0b0b0; stroke-opacity: 0.3; stroke-width: 0.8; stroke-linecap: square"/>
     </g>
    </g>
    <g id="xtick_11">
     <g id="line2d_11">
      <path d="M 493.2 493.2 
L 493.2 10.8 
" clip-path="url(#pa56e61d4fb)" style="fill: none; stroke: #b0b0b0; stroke-opacity: 0.3; stroke-width: 0.8; stroke-linecap: square"/>
     </g>
    </g>
   </g>
   <g id="matplotlib.axis_2">
    <g id="ytick_1">
     <g id="line2d_12">
      <path d="M 10.8 493.2 
L 493.2 493.2 
" clip-path="url(#pa56e61d4fb)" style="fill: none; stroke: #b0b0b0; stroke-opacity: 0.3; stroke-width: 0.8; stroke-linecap: square"/>
     </g>
    </g>
    <g id="ytick_2">
     <g id="line2d_13">
      <path d="M 10.8 444.96 
L 493.2 444.96 
" clip-path="url(#pa56e61d4fb)" style="fill: none; stroke: #b0b0b0; stroke-opacity: 0.3; stroke-width: 0.8; stroke-linecap: square"/>
     </g>
    </g>
    <g id="ytick_3">
     <g id="line2d_14">
      <path d="M 10.8 396.72 
L 493.2 396.72 
" clip-path="url(#pa56e61d4fb)" style="fill: none; stroke: #b0b0b0; stroke-opacity: 0.3; stroke-width: 0.8; stroke-linecap: square"/>
     </g>
    </g>
    <g id="ytick_4">
     <g id="line2d_15">
      <path d="M 10.8 348.48 
L 493.2 348.48 
" clip-path="url(#pa56e61d4fb)" style="fill: none; stroke: #b0b0b0; stroke-opacity: 0.3; stroke-width: 0.8; stroke-linecap: square"/>
     </g>
    </g>
    <g id="ytick_5">
     <g id="line2d_16">
      <path d="M 10.8 300.24 
L 493.2 300.24 
" clip-path="url(#pa56e61d4fb)" style="fill: none; stroke: #b0b0b0; stroke-opacity: 0.3; stroke-width: 0.8; stroke-linecap: square"/>
     </g>
    </g>
    <g id="ytick_6">
     <g id="line2d_17">
      <path d="M 10.8 252 
L 493.2 252 
" clip-path="url(#pa56e61d4fb)" style="fill: none; stroke: #b0b0b0; stroke-opacity: 0.3; stroke-width: 0.8; stroke-linecap: square"/>
     </g>
    </g>
    <g id="ytick_7">
     <g id="line2d_18">
      <path d="M 10.8 203.76 
L 493.2 203.76 
" clip-path="url(#pa56e61d4fb)" style="fill: none; stroke: #b0b0b0; stroke-opacity: 0.3; stroke-width: 0.8; stroke-linecap: square"/>
     </g>
    </g>
    <g id="ytick_8">
     <g id="line2d_19">
      <path d="M 10.8 155.52 
L 493.2 155.52 
" clip-path="url(#pa56e61d4fb)" style="fill: none; stroke: #b0b0b0; stroke-opacity: 0.3; stroke-width: 0.8; stroke-linecap: square"/>
     </g>
    </g>
    <g id="ytick_9">
     <g id="line2d_20">
      <path d="M 10.8 107.28 
L 493.2 107.28 
" clip-path="url(#pa56e61d4fb)" style="fill: none; stroke: #b0b0b0; stroke-opacity: 0.3; stroke-width: 0.8; stroke-linecap: square"/>
     </g>
    </g>
    <g id="ytick_10">
     <g id="line2d_21">
      <path d="M 10.8 59.04 
L 493.2 59.04 
" clip-path="url(#pa56e61d4fb)" style="fill: none; stroke: #b0b0b0; stroke-opacity: 0.3; stroke-width: 0.8; stroke-linecap: square"/>
     </g>
    </g>
    <g id="ytick_11">
     <g id="line2d_22">
      <path d="M 10.8 10.8 
L 493.2 10.8 
" clip-path="url(#pa56e61d4fb)" style="fill: none; stroke: #b0b0b0; stroke-opacity: 0.3; stroke-width: 0.8; stroke-linecap: square"/>
     </g>
    </g>
   </g>
   <g id="PathCollection_1">
    <defs>
     <path id="m4f8f3cf4fc" d="M 0 8.660254 
C 2.296726 8.660254 4.499694 7.747755 6.123724 6.123724 
C 7.747755 4.499694 8.660254 2.296726 8.660254 0 
C 8.660254 -2.296726 7.747755 -4.499694 6.123724 -6.123724 
C 4.499694 -7.747755 2.296726 -8.660254 0 -8.660254 
C -2.296726 -8.660254 -4.499694 -7.747755 -6.123724 -6.123724 
C -7.747755 -4.499694 -8.660254 -2.296726 -8.660254 0 
C -8.660254 2.296726 -7.747755 4.499694 -6.123724 6.123724 
C -4.499694 7.747755 -2.296726 8.660254 0 8.660254 
z
" style="stroke: #1f78b4"/>
    </defs>
    <g clip-path="url(#pa56e61d4fb)">
     <use xlink:href="#m4f8f3cf4fc" x="431.4528" y="277.5672" style="fill: #1f78b4; stroke: #1f78b4"/>
     <use xlink:href="#m4f8f3cf4fc" x="161.3088" y="297.3456" style="fill: #1f78b4; stroke: #1f78b4"/>
     <use xlink:href="#m4f8f3cf4fc" x="283.8384" y="309.4056" style="fill: #1f78b4; stroke: #1f78b4"/>
     <use xlink:href="#m4f8f3cf4fc" x="135.7416" y="412.1568" style="fill: #1f78b4; stroke: #1f78b4"/>
     <use xlink:href="#m4f8f3cf4fc" x="440.6184" y="114.9984" style="fill: #1f78b4; stroke: #1f78b4"/>
     <use xlink:href="#m4f8f3cf4fc" x="437.2416" y="275.6376" style="fill: #1f78b4; stroke: #1f78b4"/>
     <use xlink:href="#m4f8f3cf4fc" x="372.1176" y="467.1504" style="fill: #1f78b4; stroke: #1f78b4"/>
     <use xlink:href="#m4f8f3cf4fc" x="160.8264" y="358.128" style="fill: #1f78b4; stroke: #1f78b4"/>
     <use xlink:href="#m4f8f3cf4fc" x="93.7728" y="453.6432" style="fill: #1f78b4; stroke: #1f78b4"/>
     <use xlink:href="#m4f8f3cf4fc" x="325.8072" y="435.312" style="fill: #1f78b4; stroke: #1f78b4"/>
     <use xlink:href="#m4f8f3cf4fc" x="356.1984" y="355.2336" style="fill: #1f78b4; stroke: #1f78b4"/>
     <use xlink:href="#m4f8f3cf4fc" x="430.488" y="221.6088" style="fill: #1f78b4; stroke: #1f78b4"/>
     <use xlink:href="#m4f8f3cf4fc" x="185.9112" y="11.7648" style="fill: #1f78b4; stroke: #1f78b4"/>
    </g>
   </g>
   <g id="patch_42">
    <path d="M 10.8 493.2 
L 10.8 10.8 
" style="fill: none; stroke: #000000; stroke-width: 0.8; stroke-linejoin: miter; stroke-linecap: square"/>
   </g>
   <g id="patch_43">
    <path d="M 493.2 493.2 
L 493.2 10.8 
" style="fill: none; stroke: #000000; stroke-width: 0.8; stroke-linejoin: miter; stroke-linecap: square"/>
   </g>
   <g id="patch_44">
    <path d="M 10.8 493.2 
L 493.2 493.2 
" style="fill: none; stroke: #000000; stroke-width: 0.8; stroke-linejoin: miter; stroke-linecap: square"/>
   </g>
   <g id="patch_45">
    <path d="M 10.8 10.8 
L 493.2 10.8 
" style="fill: none; stroke: #000000; stroke-width: 0.8; stroke-linejoin: miter; stroke-linecap: square"/>
   </g>
   <g id="text_40">
    <g clip-path="url(#pa56e61d4fb)">
     <!-- 0 -->
     <g transform="translate(427.6353 280.87845) scale(0.12 -0.12)">
      <use xlink:href="#DejaVuSans-30"/>
     </g>
    </g>
   </g>
   <g id="text_41">
    <g clip-path="url(#pa56e61d4fb)">
     <!-- 1 -->
     <g transform="translate(157.4913 300.65685) scale(0.12 -0.12)">
      <use xlink:href="#DejaVuSans-31"/>
     </g>
    </g>
   </g>
   <g id="text_42">
    <g clip-path="url(#pa56e61d4fb)">
     <!-- 2 -->
     <g transform="translate(280.0209 312.71685) scale(0.12 -0.12)">
      <use xlink:href="#DejaVuSans-32"/>
     </g>
    </g>
   </g>
   <g id="text_43">
    <g clip-path="url(#pa56e61d4fb)">
     <!-- 3 -->
     <g transform="translate(131.9241 415.46805) scale(0.12 -0.12)">
      <use xlink:href="#DejaVuSans-33"/>
     </g>
    </g>
   </g>
   <g id="text_44">
    <g clip-path="url(#pa56e61d4fb)">
     <!-- 4 -->
     <g transform="translate(436.8009 118.30965) scale(0.12 -0.12)">
      <use xlink:href="#DejaVuSans-34"/>
     </g>
    </g>
   </g>
   <g id="text_45">
    <g clip-path="url(#pa56e61d4fb)">
     <!-- 5 -->
     <g transform="translate(433.4241 278.94885) scale(0.12 -0.12)">
      <use xlink:href="#DejaVuSans-35"/>
     </g>
    </g>
   </g>
   <g id="text_46">
    <g clip-path="url(#pa56e61d4fb)">
     <!-- 6 -->
     <g transform="translate(368.3001 470.46165) scale(0.12 -0.12)">
      <use xlink:href="#DejaVuSans-36"/>
     </g>
    </g>
   </g>
   <g id="text_47">
    <g clip-path="url(#pa56e61d4fb)">
     <!-- 7 -->
     <g transform="translate(157.0089 361.43925) scale(0.12 -0.12)">
      <use xlink:href="#DejaVuSans-37"/>
     </g>
    </g>
   </g>
   <g id="text_48">
    <g clip-path="url(#pa56e61d4fb)">
     <!-- 8 -->
     <g transform="translate(89.9553 456.95445) scale(0.12 -0.12)">
      <use xlink:href="#DejaVuSans-38"/>
     </g>
    </g>
   </g>
   <g id="text_49">
    <g clip-path="url(#pa56e61d4fb)">
     <!-- 9 -->
     <g transform="translate(321.9897 438.62325) scale(0.12 -0.12)">
      <use xlink:href="#DejaVuSans-39"/>
     </g>
    </g>
   </g>
   <g id="text_50">
    <g clip-path="url(#pa56e61d4fb)">
     <!-- 10 -->
     <g transform="translate(348.5634 358.54485) scale(0.12 -0.12)">
      <use xlink:href="#DejaVuSans-31"/>
      <use xlink:href="#DejaVuSans-30" x="63.623047"/>
     </g>
    </g>
   </g>
   <g id="text_51">
    <g clip-path="url(#pa56e61d4fb)">
     <!-- 11 -->
     <g transform="translate(422.853 224.92005) scale(0.12 -0.12)">
      <use xlink:href="#DejaVuSans-31"/>
      <use xlink:href="#DejaVuSans-31" x="63.623047"/>
     </g>
    </g>
   </g>
   <g id="text_52">
    <g clip-path="url(#pa56e61d4fb)">
     <!-- 12 -->
     <g transform="translate(178.2762 15.07605) scale(0.12 -0.12)">
      <use xlink:href="#DejaVuSans-31"/>
      <use xlink:href="#DejaVuSans-32" x="63.623047"/>
     </g>
    </g>
   </g>
  </g>
 </g>
 <defs>
  <clipPath id="pa56e61d4fb">
   <rect x="10.8" y="10.8" width="482.4" height="482.4"/>
  </clipPath>
 </defs>
</svg>
