<?xml version="1.0" encoding="utf-8" standalone="no"?>
<!DOCTYPE svg PUBLIC "-//W3C//DTD SVG 1.1//EN"
  "http://www.w3.org/Graphics/SVG/1.1/DTD/svg11.dtd">
<svg xmlns:xlink="http://www.w3.org/1999/xlink" width="504pt" height="504pt" viewBox="0 0 504 504" xmlns="http://www.w3.org/2000/svg" version="1.1">
 <metadata>
  <rdf:RDF xmlns:dc="http://purl.org/dc/elements/1.1/" xmlns:cc="http://creativecommons.org/ns#" xmlns:rdf="http://www.w3.org/1999/02/22-rdf-syntax-ns#">
   <cc:Work>
    <dc:type rdf:resource="http://purl.org/dc/dcmitype/StillImage"/>
    <dc:date>2024-10-29T14:59:38.090743</dc:date>
    <dc:format>image/svg+xml</dc:format>
    <dc:creator>
     <cc:Agent>
      <dc:title>Matplotlib v3.9.2, https://matplotlib.org/</dc:title>
     </cc:Agent>
    </dc:creator>
   </cc:Work>
  </rdf:RDF>
 </metadata>
 <defs>
  <style type="text/css">*{stroke-linejoin: round; stroke-linecap: butt}</style>
 </defs>
 <g id="figure_1">
  <g id="patch_1">
   <path d="M 0 504 
L 504 504 
L 504 0 
L 0 0 
L 0 504 
z
" style="fill: none; opacity: 0"/>
  </g>
  <g id="axes_1">
   <g id="patch_2">
    <path d="M 10.8 493.2 
L 493.2 493.2 
L 493.2 10.8 
L 10.8 10.8 
L 10.8 493.2 
z
" style="fill: none; opacity: 0"/>
   </g>
   <g id="LineCollection_1">
    <path d="M 474.3864 320.0184 
L 100.044 212.9256 
" clip-path="url(#p66ef611231)" style="fill: none; stroke: #000000"/>
    <path d="M 474.3864 320.0184 
L 296.3808 169.0272 
" clip-path="url(#p66ef611231)" style="fill: none; stroke: #000000"/>
    <path d="M 474.3864 320.0184 
L 344.6208 239.94 
" clip-path="url(#p66ef611231)" style="fill: none; stroke: #000000"/>
    <path d="M 474.3864 320.0184 
L 303.1344 44.568 
" clip-path="url(#p66ef611231)" style="fill: none; stroke: #000000"/>
    <path d="M 361.0224 50.3568 
L 45.5328 345.1032 
" clip-path="url(#p66ef611231)" style="fill: none; stroke: #000000"/>
    <path d="M 361.0224 50.3568 
L 303.1344 44.568 
" clip-path="url(#p66ef611231)" style="fill: none; stroke: #000000"/>
    <path d="M 361.0224 50.3568 
L 196.0416 199.4184 
" clip-path="url(#p66ef611231)" style="fill: none; stroke: #000000"/>
    <path d="M 361.0224 50.3568 
L 112.104 170.4744 
" clip-path="url(#p66ef611231)" style="fill: none; stroke: #000000"/>
    <path d="M 117.4104 101.0088 
L 197.9712 349.9272 
" clip-path="url(#p66ef611231)" style="fill: none; stroke: #000000"/>
    <path d="M 117.4104 101.0088 
L 366.3288 316.6416 
" clip-path="url(#p66ef611231)" style="fill: none; stroke: #000000"/>
    <path d="M 112.104 170.4744 
L 197.9712 349.9272 
" clip-path="url(#p66ef611231)" style="fill: none; stroke: #000000"/>
    <path d="M 112.104 170.4744 
L 100.044 212.9256 
" clip-path="url(#p66ef611231)" style="fill: none; stroke: #000000"/>
    <path d="M 45.5328 345.1032 
L 310.3704 116.4456 
" clip-path="url(#p66ef611231)" style="fill: none; stroke: #000000"/>
    <path d="M 296.3808 169.0272 
L 196.0416 199.4184 
" clip-path="url(#p66ef611231)" style="fill: none; stroke: #000000"/>
    <path d="M 303.1344 44.568 
L 366.3288 316.6416 
" clip-path="url(#p66ef611231)" style="fill: none; stroke: #000000"/>
    <path d="M 196.0416 199.4184 
L 197.9712 349.9272 
" clip-path="url(#p66ef611231)" style="fill: none; stroke: #000000"/>
    <path d="M 196.0416 199.4184 
L 366.3288 316.6416 
" clip-path="url(#p66ef611231)" style="fill: none; stroke: #000000"/>
    <path d="M 310.3704 116.4456 
L 366.3288 316.6416 
" clip-path="url(#p66ef611231)" style="fill: none; stroke: #000000"/>
    <path d="M 344.6208 239.94 
L 197.9712 349.9272 
" clip-path="url(#p66ef611231)" style="fill: none; stroke: #000000"/>
   </g>
   <g id="text_1">
    <g id="patch_3">
     <path d="M 278.941554 272.258596 
L 291.175756 275.758587 
Q 294.060047 276.583732 294.885192 273.699441 
L 297.547145 264.394598 
Q 298.37229 261.510306 295.487999 260.685161 
L 283.253797 257.185171 
Q 280.369506 256.360025 279.544361 259.244317 
L 276.882408 268.54916 
Q 276.057263 271.433451 278.941554 272.258596 
z
" clip-path="url(#p66ef611231)" style="fill: #ffffff; stroke: #ffffff; stroke-linejoin: miter"/>
    </g>
    <g clip-path="url(#p66ef611231)">
     <!-- 10 -->
     <g transform="translate(280.338714 267.374831) rotate(-344.035102) scale(0.1 -0.1)">
      <defs>
       <path id="DejaVuSans-31" d="M 794 531 
L 1825 531 
L 1825 4091 
L 703 3866 
L 703 4441 
L 1819 4666 
L 2450 4666 
L 2450 531 
L 3481 531 
L 3481 0 
L 794 0 
L 794 531 
z
" transform="scale(0.015625)"/>
       <path id="DejaVuSans-30" d="M 2034 4250 
Q 1547 4250 1301 3770 
Q 1056 3291 1056 2328 
Q 1056 1369 1301 889 
Q 1547 409 2034 409 
Q 2525 409 2770 889 
Q 3016 1369 3016 2328 
Q 3016 3291 2770 3770 
Q 2525 4250 2034 4250 
z
M 2034 4750 
Q 2819 4750 3233 4129 
Q 3647 3509 3647 2328 
Q 3647 1150 3233 529 
Q 2819 -91 2034 -91 
Q 1250 -91 836 529 
Q 422 1150 422 2328 
Q 422 3509 836 4129 
Q 1250 4750 2034 4750 
z
" transform="scale(0.015625)"/>
      </defs>
      <use xlink:href="#DejaVuSans-31"/>
      <use xlink:href="#DejaVuSans-30" x="63.623047"/>
     </g>
    </g>
   </g>
   <g id="text_2">
    <g id="patch_4">
     <path d="M 377.887191 248.443422 
L 382.739245 252.559121 
Q 385.02705 254.499726 386.967655 252.211921 
L 393.228126 244.831365 
Q 395.168731 242.543559 392.880925 240.602955 
L 388.028871 236.487256 
Q 385.741066 234.546651 383.800461 236.834457 
L 377.53999 244.215012 
Q 375.599385 246.502818 377.887191 248.443422 
z
" clip-path="url(#p66ef611231)" style="fill: #ffffff; stroke: #ffffff; stroke-linejoin: miter"/>
    </g>
    <g clip-path="url(#p66ef611231)">
     <!-- 3 -->
     <g transform="translate(381.173079 244.569644) rotate(-319.694108) scale(0.1 -0.1)">
      <defs>
       <path id="DejaVuSans-33" d="M 2597 2516 
Q 3050 2419 3304 2112 
Q 3559 1806 3559 1356 
Q 3559 666 3084 287 
Q 2609 -91 1734 -91 
Q 1441 -91 1130 -33 
Q 819 25 488 141 
L 488 750 
Q 750 597 1062 519 
Q 1375 441 1716 441 
Q 2309 441 2620 675 
Q 2931 909 2931 1356 
Q 2931 1769 2642 2001 
Q 2353 2234 1838 2234 
L 1294 2234 
L 1294 2753 
L 1863 2753 
Q 2328 2753 2575 2939 
Q 2822 3125 2822 3475 
Q 2822 3834 2567 4026 
Q 2313 4219 1838 4219 
Q 1578 4219 1281 4162 
Q 984 4106 628 3988 
L 628 4550 
Q 988 4650 1302 4700 
Q 1616 4750 1894 4750 
Q 2613 4750 3031 4423 
Q 3450 4097 3450 3541 
Q 3450 3153 3228 2886 
Q 3006 2619 2597 2516 
z
" transform="scale(0.015625)"/>
      </defs>
      <use xlink:href="#DejaVuSans-33"/>
     </g>
    </g>
   </g>
   <g id="text_3">
    <g id="patch_5">
     <path d="M 399.972238 283.308918 
L 410.801289 289.991529 
Q 413.354307 291.566998 414.929775 289.01398 
L 420.012301 280.777838 
Q 421.587769 278.22482 419.034752 276.649352 
L 408.205701 269.966741 
Q 405.652683 268.391273 404.077215 270.944291 
L 398.994689 279.180432 
Q 397.419221 281.73345 399.972238 283.308918 
z
" clip-path="url(#p66ef611231)" style="fill: #ffffff; stroke: #ffffff; stroke-linejoin: miter"/>
    </g>
    <g clip-path="url(#p66ef611231)">
     <!-- 13 -->
     <g transform="translate(402.639867 278.986074) rotate(-328.321249) scale(0.1 -0.1)">
      <use xlink:href="#DejaVuSans-31"/>
      <use xlink:href="#DejaVuSans-33" x="63.623047"/>
     </g>
    </g>
   </g>
   <g id="text_4">
    <g id="patch_6">
     <path d="M 380.423462 183.730578 
L 383.782812 189.133926 
Q 385.366788 191.681674 387.914536 190.097698 
L 396.133677 184.987724 
Q 398.681425 183.403748 397.097448 180.856 
L 393.738099 175.452652 
Q 392.154122 172.904904 389.606374 174.48888 
L 381.387234 179.598854 
Q 378.839486 181.18283 380.423462 183.730578 
z
" clip-path="url(#p66ef611231)" style="fill: #ffffff; stroke: #ffffff; stroke-linejoin: miter"/>
    </g>
    <g clip-path="url(#p66ef611231)">
     <!-- 2 -->
     <g transform="translate(384.737383 181.048543) rotate(-301.86989) scale(0.1 -0.1)">
      <defs>
       <path id="DejaVuSans-32" d="M 1228 531 
L 3431 531 
L 3431 0 
L 469 0 
L 469 531 
Q 828 903 1448 1529 
Q 2069 2156 2228 2338 
Q 2531 2678 2651 2914 
Q 2772 3150 2772 3378 
Q 2772 3750 2511 3984 
Q 2250 4219 1831 4219 
Q 1534 4219 1204 4116 
Q 875 4013 500 3803 
L 500 4441 
Q 881 4594 1212 4672 
Q 1544 4750 1819 4750 
Q 2544 4750 2975 4387 
Q 3406 4025 3406 3419 
Q 3406 3131 3298 2873 
Q 3191 2616 2906 2266 
Q 2828 2175 2409 1742 
Q 1991 1309 1228 531 
z
" transform="scale(0.015625)"/>
      </defs>
      <use xlink:href="#DejaVuSans-32"/>
     </g>
    </g>
   </g>
   <g id="text_5">
    <g id="patch_7">
     <path d="M 203.980155 207.801487 
L 213.278577 199.114429 
Q 215.47074 197.066399 213.42271 194.874237 
L 206.815682 187.80223 
Q 204.767653 185.610068 202.575491 187.658097 
L 193.277069 196.345155 
Q 191.084906 198.393184 193.132936 200.585346 
L 199.739964 207.657354 
Q 201.787993 209.849516 203.980155 207.801487 
z
" clip-path="url(#p66ef611231)" style="fill: #ffffff; stroke: #ffffff; stroke-linejoin: miter"/>
    </g>
    <g clip-path="url(#p66ef611231)">
     <!-- 12 -->
     <g transform="translate(200.512372 204.089653) rotate(-43.053146) scale(0.1 -0.1)">
      <use xlink:href="#DejaVuSans-31"/>
      <use xlink:href="#DejaVuSans-32" x="63.623047"/>
     </g>
    </g>
   </g>
   <g id="text_6">
    <g id="patch_8">
     <path d="M 324.966581 54.629378 
L 337.628429 55.895563 
Q 340.613541 56.194074 340.912052 53.208963 
L 341.875062 43.578869 
Q 342.173573 40.593757 339.188461 40.295246 
L 326.526613 39.029061 
Q 323.541501 38.73055 323.24299 41.715661 
L 322.279981 51.345756 
Q 321.98147 54.330867 324.966581 54.629378 
z
" clip-path="url(#p66ef611231)" style="fill: #ffffff; stroke: #ffffff; stroke-linejoin: miter"/>
    </g>
    <g clip-path="url(#p66ef611231)">
     <!-- 14 -->
     <g transform="translate(325.472029 49.5749) rotate(-354.289407) scale(0.1 -0.1)">
      <defs>
       <path id="DejaVuSans-34" d="M 2419 4116 
L 825 1625 
L 2419 1625 
L 2419 4116 
z
M 2253 4666 
L 3047 4666 
L 3047 1625 
L 3713 1625 
L 3713 1100 
L 3047 1100 
L 3047 0 
L 2419 0 
L 2419 1100 
L 313 1100 
L 313 1709 
L 2253 4666 
z
" transform="scale(0.015625)"/>
      </defs>
      <use xlink:href="#DejaVuSans-31"/>
      <use xlink:href="#DejaVuSans-34" x="63.623047"/>
     </g>
    </g>
   </g>
   <g id="text_7">
    <g id="patch_9">
     <path d="M 279.066981 134.96904 
L 288.508908 126.438176 
Q 290.734903 124.42697 288.723697 122.200975 
L 282.235464 115.019824 
Q 280.224259 112.79383 277.998264 114.805035 
L 268.556337 123.335899 
Q 266.330342 125.347105 268.341548 127.573099 
L 274.829781 134.754251 
Q 276.840987 136.980245 279.066981 134.96904 
z
" clip-path="url(#p66ef611231)" style="fill: #ffffff; stroke: #ffffff; stroke-linejoin: miter"/>
    </g>
    <g clip-path="url(#p66ef611231)">
     <!-- 11 -->
     <g transform="translate(275.661549 131.199921) rotate(-42.09809) scale(0.1 -0.1)">
      <use xlink:href="#DejaVuSans-31"/>
      <use xlink:href="#DejaVuSans-31" x="63.623047"/>
     </g>
    </g>
   </g>
   <g id="text_8">
    <g id="patch_10">
     <path d="M 237.10425 118.858563 
L 242.834459 116.093404 
Q 245.536326 114.789596 244.232519 112.087729 
L 240.02638 103.371393 
Q 238.722572 100.669527 236.020705 101.973334 
L 230.290496 104.738494 
Q 227.588629 106.042302 228.892437 108.744168 
L 233.098575 117.460504 
Q 234.402383 120.162371 237.10425 118.858563 
z
" clip-path="url(#p66ef611231)" style="fill: #ffffff; stroke: #ffffff; stroke-linejoin: miter"/>
    </g>
    <g clip-path="url(#p66ef611231)">
     <!-- 7 -->
     <g transform="translate(234.896604 114.283683) rotate(-25.760011) scale(0.1 -0.1)">
      <defs>
       <path id="DejaVuSans-37" d="M 525 4666 
L 3525 4666 
L 3525 4397 
L 1831 0 
L 1172 0 
L 2766 4134 
L 525 4134 
L 525 4666 
z
" transform="scale(0.015625)"/>
      </defs>
      <use xlink:href="#DejaVuSans-37"/>
     </g>
    </g>
   </g>
   <g id="text_9">
    <g id="patch_11">
     <path d="M 148.273629 221.828875 
L 152.191892 233.935602 
Q 153.115647 236.78984 155.969885 235.866085 
L 165.177777 232.886011 
Q 168.032015 231.962256 167.10826 229.108018 
L 163.189997 217.001291 
Q 162.266242 214.147052 159.412004 215.070808 
L 150.204112 218.050881 
Q 147.349874 218.974637 148.273629 221.828875 
z
" clip-path="url(#p66ef611231)" style="fill: #ffffff; stroke: #ffffff; stroke-linejoin: miter"/>
    </g>
    <g clip-path="url(#p66ef611231)">
     <!-- 15 -->
     <g transform="translate(153.106509 220.264745) rotate(-287.933832) scale(0.1 -0.1)">
      <defs>
       <path id="DejaVuSans-35" d="M 691 4666 
L 3169 4666 
L 3169 4134 
L 1269 4134 
L 1269 2991 
Q 1406 3038 1543 3061 
Q 1681 3084 1819 3084 
Q 2600 3084 3056 2656 
Q 3513 2228 3513 1497 
Q 3513 744 3044 326 
Q 2575 -91 1722 -91 
Q 1428 -91 1123 -41 
Q 819 9 494 109 
L 494 744 
Q 775 591 1075 516 
Q 1375 441 1709 441 
Q 2250 441 2565 725 
Q 2881 1009 2881 1497 
Q 2881 1984 2565 2268 
Q 2250 2553 1709 2553 
Q 1456 2553 1204 2497 
Q 953 2441 691 2322 
L 691 4666 
z
" transform="scale(0.015625)"/>
      </defs>
      <use xlink:href="#DejaVuSans-31"/>
      <use xlink:href="#DejaVuSans-35" x="63.623047"/>
     </g>
    </g>
   </g>
   <g id="text_10">
    <g id="patch_12">
     <path d="M 231.929817 210.585981 
L 241.547805 218.917843 
Q 243.815308 220.882133 245.779597 218.61463 
L 252.116478 211.299574 
Q 254.080767 209.032072 251.813265 207.067782 
L 242.195277 198.73592 
Q 239.927775 196.77163 237.963485 199.039133 
L 231.626605 206.354189 
Q 229.662315 208.621691 231.929817 210.585981 
z
" clip-path="url(#p66ef611231)" style="fill: #ffffff; stroke: #ffffff; stroke-linejoin: miter"/>
    </g>
    <g clip-path="url(#p66ef611231)">
     <!-- 18 -->
     <g transform="translate(235.25581 206.74658) rotate(-319.098301) scale(0.1 -0.1)">
      <defs>
       <path id="DejaVuSans-38" d="M 2034 2216 
Q 1584 2216 1326 1975 
Q 1069 1734 1069 1313 
Q 1069 891 1326 650 
Q 1584 409 2034 409 
Q 2484 409 2743 651 
Q 3003 894 3003 1313 
Q 3003 1734 2745 1975 
Q 2488 2216 2034 2216 
z
M 1403 2484 
Q 997 2584 770 2862 
Q 544 3141 544 3541 
Q 544 4100 942 4425 
Q 1341 4750 2034 4750 
Q 2731 4750 3128 4425 
Q 3525 4100 3525 3541 
Q 3525 3141 3298 2862 
Q 3072 2584 2669 2484 
Q 3125 2378 3379 2068 
Q 3634 1759 3634 1313 
Q 3634 634 3220 271 
Q 2806 -91 2034 -91 
Q 1263 -91 848 271 
Q 434 634 434 1313 
Q 434 1759 690 2068 
Q 947 2378 1403 2484 
z
M 1172 3481 
Q 1172 3119 1398 2916 
Q 1625 2713 2034 2713 
Q 2441 2713 2670 2916 
Q 2900 3119 2900 3481 
Q 2900 3844 2670 4047 
Q 2441 4250 2034 4250 
Q 1625 4250 1398 4047 
Q 1172 3844 1172 3481 
z
" transform="scale(0.015625)"/>
      </defs>
      <use xlink:href="#DejaVuSans-31"/>
      <use xlink:href="#DejaVuSans-38" x="63.623047"/>
     </g>
    </g>
   </g>
   <g id="text_11">
    <g id="patch_13">
     <path d="M 146.593151 260.714507 
L 149.339379 266.453813 
Q 150.63426 269.15997 153.340417 267.865088 
L 162.07059 263.687747 
Q 164.776746 262.392866 163.481865 259.68671 
L 160.735638 253.947403 
Q 159.440756 251.241247 156.7346 252.536128 
L 148.004427 256.713469 
Q 145.29827 258.00835 146.593151 260.714507 
z
" clip-path="url(#p66ef611231)" style="fill: #ffffff; stroke: #ffffff; stroke-linejoin: miter"/>
    </g>
    <g clip-path="url(#p66ef611231)">
     <!-- 7 -->
     <g transform="translate(151.175294 258.521976) rotate(-295.570864) scale(0.1 -0.1)">
      <use xlink:href="#DejaVuSans-37"/>
     </g>
    </g>
   </g>
   <g id="text_12">
    <g id="patch_14">
     <path d="M 112.745933 196.900197 
L 114.484658 190.779883 
Q 115.304489 187.894077 112.418683 187.074246 
L 103.108953 184.429436 
Q 100.223147 183.609604 99.403315 186.495411 
L 97.66459 192.615724 
Q 96.844759 195.50153 99.730565 196.321362 
L 109.040295 198.966171 
Q 111.926101 199.786003 112.745933 196.900197 
z
" clip-path="url(#p66ef611231)" style="fill: #ffffff; stroke: #ffffff; stroke-linejoin: miter"/>
    </g>
    <g clip-path="url(#p66ef611231)">
     <!-- 5 -->
     <g transform="translate(107.859602 195.512034) rotate(-74.140634) scale(0.1 -0.1)">
      <use xlink:href="#DejaVuSans-35"/>
     </g>
    </g>
   </g>
   <g id="text_13">
    <g id="patch_15">
     <path d="M 180.666955 238.786577 
L 185.482833 234.628605 
Q 187.753581 232.668069 185.793045 230.397321 
L 179.468272 223.071793 
Q 177.507736 220.801045 175.236988 222.761582 
L 170.42111 226.919553 
Q 168.150362 228.880089 170.110898 231.150837 
L 176.435671 238.476365 
Q 178.396207 240.747113 180.666955 238.786577 
z
" clip-path="url(#p66ef611231)" style="fill: #ffffff; stroke: #ffffff; stroke-linejoin: miter"/>
    </g>
    <g clip-path="url(#p66ef611231)">
     <!-- 7 -->
     <g transform="translate(177.347318 234.94168) rotate(-40.806931) scale(0.1 -0.1)">
      <use xlink:href="#DejaVuSans-37"/>
     </g>
    </g>
   </g>
   <g id="text_14">
    <g id="patch_16">
     <path d="M 242.3946 193.569537 
L 254.573228 189.880818 
Q 257.444417 189.011179 256.574778 186.13999 
L 253.769286 176.877414 
Q 252.899647 174.006224 250.028458 174.875864 
L 237.84983 178.564583 
Q 234.97864 179.434222 235.84828 182.305411 
L 238.653771 191.567987 
Q 239.52341 194.439176 242.3946 193.569537 
z
" clip-path="url(#p66ef611231)" style="fill: #ffffff; stroke: #ffffff; stroke-linejoin: miter"/>
    </g>
    <g clip-path="url(#p66ef611231)">
     <!-- 14 -->
     <g transform="translate(240.922102 188.707956) rotate(-16.850753) scale(0.1 -0.1)">
      <use xlink:href="#DejaVuSans-31"/>
      <use xlink:href="#DejaVuSans-34" x="63.623047"/>
     </g>
    </g>
   </g>
   <g id="text_15">
    <g id="patch_17">
     <path d="M 325.655821 176.17874 
L 328.534811 188.573781 
Q 329.213551 191.495991 332.135761 190.817251 
L 341.562933 188.627606 
Q 344.485143 187.948866 343.806403 185.026656 
L 340.927412 172.631615 
Q 340.248672 169.709405 337.326462 170.388145 
L 327.899291 172.57779 
Q 324.977081 173.25653 325.655821 176.17874 
z
" clip-path="url(#p66ef611231)" style="fill: #ffffff; stroke: #ffffff; stroke-linejoin: miter"/>
    </g>
    <g clip-path="url(#p66ef611231)">
     <!-- 18 -->
     <g transform="translate(330.603792 175.029477) rotate(-283.076203) scale(0.1 -0.1)">
      <use xlink:href="#DejaVuSans-31"/>
      <use xlink:href="#DejaVuSans-38" x="63.623047"/>
     </g>
    </g>
   </g>
   <g id="text_16">
    <g id="patch_18">
     <path d="M 189.127174 271.590257 
L 189.208737 277.952234 
Q 189.247196 280.951988 192.246949 280.91353 
L 201.924279 280.789461 
Q 204.924032 280.751003 204.885574 277.751249 
L 204.80401 271.389272 
Q 204.765552 268.389519 201.765798 268.427977 
L 192.088469 268.552045 
Q 189.088715 268.590504 189.127174 271.590257 
z
" clip-path="url(#p66ef611231)" style="fill: #ffffff; stroke: #ffffff; stroke-linejoin: miter"/>
    </g>
    <g clip-path="url(#p66ef611231)">
     <!-- 6 -->
     <g transform="translate(194.206444 271.525138) rotate(-270.734521) scale(0.1 -0.1)">
      <defs>
       <path id="DejaVuSans-36" d="M 2113 2584 
Q 1688 2584 1439 2293 
Q 1191 2003 1191 1497 
Q 1191 994 1439 701 
Q 1688 409 2113 409 
Q 2538 409 2786 701 
Q 3034 994 3034 1497 
Q 3034 2003 2786 2293 
Q 2538 2584 2113 2584 
z
M 3366 4563 
L 3366 3988 
Q 3128 4100 2886 4159 
Q 2644 4219 2406 4219 
Q 1781 4219 1451 3797 
Q 1122 3375 1075 2522 
Q 1259 2794 1537 2939 
Q 1816 3084 2150 3084 
Q 2853 3084 3261 2657 
Q 3669 2231 3669 1497 
Q 3669 778 3244 343 
Q 2819 -91 2113 -91 
Q 1303 -91 875 529 
Q 447 1150 447 2328 
Q 447 3434 972 4092 
Q 1497 4750 2381 4750 
Q 2619 4750 2861 4703 
Q 3103 4656 3366 4563 
z
" transform="scale(0.015625)"/>
      </defs>
      <use xlink:href="#DejaVuSans-36"/>
     </g>
    </g>
   </g>
   <g id="text_17">
    <g id="patch_19">
     <path d="M 271.499467 260.879358 
L 281.981066 268.094737 
Q 284.45217 269.795809 286.153242 267.324705 
L 291.64097 259.35282 
Q 293.342042 256.881716 290.870938 255.180644 
L 280.389338 247.965266 
Q 277.918234 246.264194 276.217162 248.735298 
L 270.729434 256.707183 
Q 269.028363 259.178287 271.499467 260.879358 
z
" clip-path="url(#p66ef611231)" style="fill: #ffffff; stroke: #ffffff; stroke-linejoin: miter"/>
    </g>
    <g clip-path="url(#p66ef611231)">
     <!-- 10 -->
     <g transform="translate(274.379771 256.695213) rotate(-325.457049) scale(0.1 -0.1)">
      <use xlink:href="#DejaVuSans-31"/>
      <use xlink:href="#DejaVuSans-30" x="63.623047"/>
     </g>
    </g>
   </g>
   <g id="text_18">
    <g id="patch_20">
     <path d="M 329.087448 212.527351 
L 332.513011 224.7826 
Q 333.32061 227.671854 336.209863 226.864255 
L 345.530715 224.258909 
Q 348.419968 223.45131 347.61237 220.562057 
L 344.186806 208.306808 
Q 343.379207 205.417554 340.489954 206.225153 
L 331.169102 208.830499 
Q 328.279849 209.638098 329.087448 212.527351 
z
" clip-path="url(#p66ef611231)" style="fill: #ffffff; stroke: #ffffff; stroke-linejoin: miter"/>
    </g>
    <g clip-path="url(#p66ef611231)">
     <!-- 16 -->
     <g transform="translate(333.979616 211.159902) rotate(-285.616638) scale(0.1 -0.1)">
      <use xlink:href="#DejaVuSans-31"/>
      <use xlink:href="#DejaVuSans-36" x="63.623047"/>
     </g>
    </g>
   </g>
   <g id="text_19">
    <g id="patch_21">
     <path d="M 273.452719 303.114889 
L 278.542719 299.297389 
Q 280.942719 297.497389 279.142719 295.097389 
L 273.335844 287.354889 
Q 271.535844 284.954889 269.135844 286.754889 
L 264.045844 290.572389 
Q 261.645844 292.372389 263.445844 294.772389 
L 269.252719 302.514889 
Q 271.052719 304.914889 273.452719 303.114889 
z
" clip-path="url(#p66ef611231)" style="fill: #ffffff; stroke: #ffffff; stroke-linejoin: miter"/>
    </g>
    <g clip-path="url(#p66ef611231)">
     <!-- 1 -->
     <g transform="translate(270.404906 299.051139) rotate(-36.869898) scale(0.1 -0.1)">
      <use xlink:href="#DejaVuSans-31"/>
     </g>
    </g>
   </g>
   <g id="matplotlib.axis_1">
    <g id="xtick_1">
     <g id="line2d_1">
      <path d="M 10.8 493.2 
L 10.8 10.8 
" clip-path="url(#p66ef611231)" style="fill: none; stroke: #b0b0b0; stroke-opacity: 0.3; stroke-width: 0.8; stroke-linecap: square"/>
     </g>
    </g>
    <g id="xtick_2">
     <g id="line2d_2">
      <path d="M 59.04 493.2 
L 59.04 10.8 
" clip-path="url(#p66ef611231)" style="fill: none; stroke: #b0b0b0; stroke-opacity: 0.3; stroke-width: 0.8; stroke-linecap: square"/>
     </g>
    </g>
    <g id="xtick_3">
     <g id="line2d_3">
      <path d="M 107.28 493.2 
L 107.28 10.8 
" clip-path="url(#p66ef611231)" style="fill: none; stroke: #b0b0b0; stroke-opacity: 0.3; stroke-width: 0.8; stroke-linecap: square"/>
     </g>
    </g>
    <g id="xtick_4">
     <g id="line2d_4">
      <path d="M 155.52 493.2 
L 155.52 10.8 
" clip-path="url(#p66ef611231)" style="fill: none; stroke: #b0b0b0; stroke-opacity: 0.3; stroke-width: 0.8; stroke-linecap: square"/>
     </g>
    </g>
    <g id="xtick_5">
     <g id="line2d_5">
      <path d="M 203.76 493.2 
L 203.76 10.8 
" clip-path="url(#p66ef611231)" style="fill: none; stroke: #b0b0b0; stroke-opacity: 0.3; stroke-width: 0.8; stroke-linecap: square"/>
     </g>
    </g>
    <g id="xtick_6">
     <g id="line2d_6">
      <path d="M 252 493.2 
L 252 10.8 
" clip-path="url(#p66ef611231)" style="fill: none; stroke: #b0b0b0; stroke-opacity: 0.3; stroke-width: 0.8; stroke-linecap: square"/>
     </g>
    </g>
    <g id="xtick_7">
     <g id="line2d_7">
      <path d="M 300.24 493.2 
L 300.24 10.8 
" clip-path="url(#p66ef611231)" style="fill: none; stroke: #b0b0b0; stroke-opacity: 0.3; stroke-width: 0.8; stroke-linecap: square"/>
     </g>
    </g>
    <g id="xtick_8">
     <g id="line2d_8">
      <path d="M 348.48 493.2 
L 348.48 10.8 
" clip-path="url(#p66ef611231)" style="fill: none; stroke: #b0b0b0; stroke-opacity: 0.3; stroke-width: 0.8; stroke-linecap: square"/>
     </g>
    </g>
    <g id="xtick_9">
     <g id="line2d_9">
      <path d="M 396.72 493.2 
L 396.72 10.8 
" clip-path="url(#p66ef611231)" style="fill: none; stroke: #b0b0b0; stroke-opacity: 0.3; stroke-width: 0.8; stroke-linecap: square"/>
     </g>
    </g>
    <g id="xtick_10">
     <g id="line2d_10">
      <path d="M 444.96 493.2 
L 444.96 10.8 
" clip-path="url(#p66ef611231)" style="fill: none; stroke: #b0b0b0; stroke-opacity: 0.3; stroke-width: 0.8; stroke-linecap: square"/>
     </g>
    </g>
    <g id="xtick_11">
     <g id="line2d_11">
      <path d="M 493.2 493.2 
L 493.2 10.8 
" clip-path="url(#p66ef611231)" style="fill: none; stroke: #b0b0b0; stroke-opacity: 0.3; stroke-width: 0.8; stroke-linecap: square"/>
     </g>
    </g>
   </g>
   <g id="matplotlib.axis_2">
    <g id="ytick_1">
     <g id="line2d_12">
      <path d="M 10.8 493.2 
L 493.2 493.2 
" clip-path="url(#p66ef611231)" style="fill: none; stroke: #b0b0b0; stroke-opacity: 0.3; stroke-width: 0.8; stroke-linecap: square"/>
     </g>
    </g>
    <g id="ytick_2">
     <g id="line2d_13">
      <path d="M 10.8 444.96 
L 493.2 444.96 
" clip-path="url(#p66ef611231)" style="fill: none; stroke: #b0b0b0; stroke-opacity: 0.3; stroke-width: 0.8; stroke-linecap: square"/>
     </g>
    </g>
    <g id="ytick_3">
     <g id="line2d_14">
      <path d="M 10.8 396.72 
L 493.2 396.72 
" clip-path="url(#p66ef611231)" style="fill: none; stroke: #b0b0b0; stroke-opacity: 0.3; stroke-width: 0.8; stroke-linecap: square"/>
     </g>
    </g>
    <g id="ytick_4">
     <g id="line2d_15">
      <path d="M 10.8 348.48 
L 493.2 348.48 
" clip-path="url(#p66ef611231)" style="fill: none; stroke: #b0b0b0; stroke-opacity: 0.3; stroke-width: 0.8; stroke-linecap: square"/>
     </g>
    </g>
    <g id="ytick_5">
     <g id="line2d_16">
      <path d="M 10.8 300.24 
L 493.2 300.24 
" clip-path="url(#p66ef611231)" style="fill: none; stroke: #b0b0b0; stroke-opacity: 0.3; stroke-width: 0.8; stroke-linecap: square"/>
     </g>
    </g>
    <g id="ytick_6">
     <g id="line2d_17">
      <path d="M 10.8 252 
L 493.2 252 
" clip-path="url(#p66ef611231)" style="fill: none; stroke: #b0b0b0; stroke-opacity: 0.3; stroke-width: 0.8; stroke-linecap: square"/>
     </g>
    </g>
    <g id="ytick_7">
     <g id="line2d_18">
      <path d="M 10.8 203.76 
L 493.2 203.76 
" clip-path="url(#p66ef611231)" style="fill: none; stroke: #b0b0b0; stroke-opacity: 0.3; stroke-width: 0.8; stroke-linecap: square"/>
     </g>
    </g>
    <g id="ytick_8">
     <g id="line2d_19">
      <path d="M 10.8 155.52 
L 493.2 155.52 
" clip-path="url(#p66ef611231)" style="fill: none; stroke: #b0b0b0; stroke-opacity: 0.3; stroke-width: 0.8; stroke-linecap: square"/>
     </g>
    </g>
    <g id="ytick_9">
     <g id="line2d_20">
      <path d="M 10.8 107.28 
L 493.2 107.28 
" clip-path="url(#p66ef611231)" style="fill: none; stroke: #b0b0b0; stroke-opacity: 0.3; stroke-width: 0.8; stroke-linecap: square"/>
     </g>
    </g>
    <g id="ytick_10">
     <g id="line2d_21">
      <path d="M 10.8 59.04 
L 493.2 59.04 
" clip-path="url(#p66ef611231)" style="fill: none; stroke: #b0b0b0; stroke-opacity: 0.3; stroke-width: 0.8; stroke-linecap: square"/>
     </g>
    </g>
    <g id="ytick_11">
     <g id="line2d_22">
      <path d="M 10.8 10.8 
L 493.2 10.8 
" clip-path="url(#p66ef611231)" style="fill: none; stroke: #b0b0b0; stroke-opacity: 0.3; stroke-width: 0.8; stroke-linecap: square"/>
     </g>
    </g>
   </g>
   <g id="PathCollection_1">
    <defs>
     <path id="m378d32ff30" d="M 0 8.660254 
C 2.296726 8.660254 4.499694 7.747755 6.123724 6.123724 
C 7.747755 4.499694 8.660254 2.296726 8.660254 0 
C 8.660254 -2.296726 7.747755 -4.499694 6.123724 -6.123724 
C 4.499694 -7.747755 2.296726 -8.660254 0 -8.660254 
C -2.296726 -8.660254 -4.499694 -7.747755 -6.123724 -6.123724 
C -7.747755 -4.499694 -8.660254 -2.296726 -8.660254 0 
C -8.660254 2.296726 -7.747755 4.499694 -6.123724 6.123724 
C -4.499694 7.747755 -2.296726 8.660254 0 8.660254 
z
" style="stroke: #1f78b4"/>
    </defs>
    <g clip-path="url(#p66ef611231)">
     <use xlink:href="#m378d32ff30" x="474.3864" y="320.0184" style="fill: #1f78b4; stroke: #1f78b4"/>
     <use xlink:href="#m378d32ff30" x="361.0224" y="50.3568" style="fill: #1f78b4; stroke: #1f78b4"/>
     <use xlink:href="#m378d32ff30" x="117.4104" y="101.0088" style="fill: #1f78b4; stroke: #1f78b4"/>
     <use xlink:href="#m378d32ff30" x="112.104" y="170.4744" style="fill: #1f78b4; stroke: #1f78b4"/>
     <use xlink:href="#m378d32ff30" x="45.5328" y="345.1032" style="fill: #1f78b4; stroke: #1f78b4"/>
     <use xlink:href="#m378d32ff30" x="296.3808" y="169.0272" style="fill: #1f78b4; stroke: #1f78b4"/>
     <use xlink:href="#m378d32ff30" x="303.1344" y="44.568" style="fill: #1f78b4; stroke: #1f78b4"/>
     <use xlink:href="#m378d32ff30" x="196.0416" y="199.4184" style="fill: #1f78b4; stroke: #1f78b4"/>
     <use xlink:href="#m378d32ff30" x="310.3704" y="116.4456" style="fill: #1f78b4; stroke: #1f78b4"/>
     <use xlink:href="#m378d32ff30" x="100.044" y="212.9256" style="fill: #1f78b4; stroke: #1f78b4"/>
     <use xlink:href="#m378d32ff30" x="344.6208" y="239.94" style="fill: #1f78b4; stroke: #1f78b4"/>
     <use xlink:href="#m378d32ff30" x="366.3288" y="316.6416" style="fill: #1f78b4; stroke: #1f78b4"/>
     <use xlink:href="#m378d32ff30" x="197.9712" y="349.9272" style="fill: #1f78b4; stroke: #1f78b4"/>
    </g>
   </g>
   <g id="patch_22">
    <path d="M 10.8 493.2 
L 10.8 10.8 
" style="fill: none; stroke: #000000; stroke-width: 0.8; stroke-linejoin: miter; stroke-linecap: square"/>
   </g>
   <g id="patch_23">
    <path d="M 493.2 493.2 
L 493.2 10.8 
" style="fill: none; stroke: #000000; stroke-width: 0.8; stroke-linejoin: miter; stroke-linecap: square"/>
   </g>
   <g id="patch_24">
    <path d="M 10.8 493.2 
L 493.2 493.2 
" style="fill: none; stroke: #000000; stroke-width: 0.8; stroke-linejoin: miter; stroke-linecap: square"/>
   </g>
   <g id="patch_25">
    <path d="M 10.8 10.8 
L 493.2 10.8 
" style="fill: none; stroke: #000000; stroke-width: 0.8; stroke-linejoin: miter; stroke-linecap: square"/>
   </g>
   <g id="text_20">
    <g clip-path="url(#p66ef611231)">
     <!-- 0 -->
     <g transform="translate(470.5689 323.32965) scale(0.12 -0.12)">
      <use xlink:href="#DejaVuSans-30"/>
     </g>
    </g>
   </g>
   <g id="text_21">
    <g clip-path="url(#p66ef611231)">
     <!-- 1 -->
     <g transform="translate(357.2049 53.66805) scale(0.12 -0.12)">
      <use xlink:href="#DejaVuSans-31"/>
     </g>
    </g>
   </g>
   <g id="text_22">
    <g clip-path="url(#p66ef611231)">
     <!-- 2 -->
     <g transform="translate(113.5929 104.32005) scale(0.12 -0.12)">
      <use xlink:href="#DejaVuSans-32"/>
     </g>
    </g>
   </g>
   <g id="text_23">
    <g clip-path="url(#p66ef611231)">
     <!-- 3 -->
     <g transform="translate(108.2865 173.78565) scale(0.12 -0.12)">
      <use xlink:href="#DejaVuSans-33"/>
     </g>
    </g>
   </g>
   <g id="text_24">
    <g clip-path="url(#p66ef611231)">
     <!-- 4 -->
     <g transform="translate(41.7153 348.41445) scale(0.12 -0.12)">
      <use xlink:href="#DejaVuSans-34"/>
     </g>
    </g>
   </g>
   <g id="text_25">
    <g clip-path="url(#p66ef611231)">
     <!-- 5 -->
     <g transform="translate(292.5633 172.33845) scale(0.12 -0.12)">
      <use xlink:href="#DejaVuSans-35"/>
     </g>
    </g>
   </g>
   <g id="text_26">
    <g clip-path="url(#p66ef611231)">
     <!-- 6 -->
     <g transform="translate(299.3169 47.87925) scale(0.12 -0.12)">
      <use xlink:href="#DejaVuSans-36"/>
     </g>
    </g>
   </g>
   <g id="text_27">
    <g clip-path="url(#p66ef611231)">
     <!-- 7 -->
     <g transform="translate(192.2241 202.72965) scale(0.12 -0.12)">
      <use xlink:href="#DejaVuSans-37"/>
     </g>
    </g>
   </g>
   <g id="text_28">
    <g clip-path="url(#p66ef611231)">
     <!-- 8 -->
     <g transform="translate(306.5529 119.75685) scale(0.12 -0.12)">
      <use xlink:href="#DejaVuSans-38"/>
     </g>
    </g>
   </g>
   <g id="text_29">
    <g clip-path="url(#p66ef611231)">
     <!-- 9 -->
     <g transform="translate(96.2265 216.23685) scale(0.12 -0.12)">
      <defs>
       <path id="DejaVuSans-39" d="M 703 97 
L 703 672 
Q 941 559 1184 500 
Q 1428 441 1663 441 
Q 2288 441 2617 861 
Q 2947 1281 2994 2138 
Q 2813 1869 2534 1725 
Q 2256 1581 1919 1581 
Q 1219 1581 811 2004 
Q 403 2428 403 3163 
Q 403 3881 828 4315 
Q 1253 4750 1959 4750 
Q 2769 4750 3195 4129 
Q 3622 3509 3622 2328 
Q 3622 1225 3098 567 
Q 2575 -91 1691 -91 
Q 1453 -91 1209 -44 
Q 966 3 703 97 
z
M 1959 2075 
Q 2384 2075 2632 2365 
Q 2881 2656 2881 3163 
Q 2881 3666 2632 3958 
Q 2384 4250 1959 4250 
Q 1534 4250 1286 3958 
Q 1038 3666 1038 3163 
Q 1038 2656 1286 2365 
Q 1534 2075 1959 2075 
z
" transform="scale(0.015625)"/>
      </defs>
      <use xlink:href="#DejaVuSans-39"/>
     </g>
    </g>
   </g>
   <g id="text_30">
    <g clip-path="url(#p66ef611231)">
     <!-- 10 -->
     <g transform="translate(336.9858 243.25125) scale(0.12 -0.12)">
      <use xlink:href="#DejaVuSans-31"/>
      <use xlink:href="#DejaVuSans-30" x="63.623047"/>
     </g>
    </g>
   </g>
   <g id="text_31">
    <g clip-path="url(#p66ef611231)">
     <!-- 11 -->
     <g transform="translate(358.6938 319.95285) scale(0.12 -0.12)">
      <use xlink:href="#DejaVuSans-31"/>
      <use xlink:href="#DejaVuSans-31" x="63.623047"/>
     </g>
    </g>
   </g>
   <g id="text_32">
    <g clip-path="url(#p66ef611231)">
     <!-- 12 -->
     <g transform="translate(190.3362 353.23845) scale(0.12 -0.12)">
      <use xlink:href="#DejaVuSans-31"/>
      <use xlink:href="#DejaVuSans-32" x="63.623047"/>
     </g>
    </g>
   </g>
  </g>
 </g>
 <defs>
  <clipPath id="p66ef611231">
   <rect x="10.8" y="10.8" width="482.4" height="482.4"/>
  </clipPath>
 </defs>
</svg>
