<?xml version="1.0" encoding="utf-8" standalone="no"?>
<!DOCTYPE svg PUBLIC "-//W3C//DTD SVG 1.1//EN"
  "http://www.w3.org/Graphics/SVG/1.1/DTD/svg11.dtd">
<svg xmlns:xlink="http://www.w3.org/1999/xlink" width="504pt" height="504pt" viewBox="0 0 504 504" xmlns="http://www.w3.org/2000/svg" version="1.1">
 <metadata>
  <rdf:RDF xmlns:dc="http://purl.org/dc/elements/1.1/" xmlns:cc="http://creativecommons.org/ns#" xmlns:rdf="http://www.w3.org/1999/02/22-rdf-syntax-ns#">
   <cc:Work>
    <dc:type rdf:resource="http://purl.org/dc/dcmitype/StillImage"/>
    <dc:date>2024-10-29T14:59:38.606896</dc:date>
    <dc:format>image/svg+xml</dc:format>
    <dc:creator>
     <cc:Agent>
      <dc:title>Matplotlib v3.9.2, https://matplotlib.org/</dc:title>
     </cc:Agent>
    </dc:creator>
   </cc:Work>
  </rdf:RDF>
 </metadata>
 <defs>
  <style type="text/css">*{stroke-linejoin: round; stroke-linecap: butt}</style>
 </defs>
 <g id="figure_1">
  <g id="patch_1">
   <path d="M 0 504 
L 504 504 
L 504 0 
L 0 0 
L 0 504 
z
" style="fill: none; opacity: 0"/>
  </g>
  <g id="axes_1">
   <g id="patch_2">
    <path d="M 10.8 493.2 
L 493.2 493.2 
L 493.2 10.8 
L 10.8 10.8 
L 10.8 493.2 
z
" style="fill: none; opacity: 0"/>
   </g>
   <g id="LineCollection_1">
    <path d="M 283.8384 309.4056 
L 430.488 221.6088 
" clip-path="url(#pb0a0b5c5b7)" style="fill: none; stroke: #000000"/>
    <path d="M 283.8384 309.4056 
L 160.8264 358.128 
" clip-path="url(#pb0a0b5c5b7)" style="fill: none; stroke: #000000"/>
    <path d="M 283.8384 309.4056 
L 185.9112 11.7648 
" clip-path="url(#pb0a0b5c5b7)" style="fill: none; stroke: #000000"/>
    <path d="M 283.8384 309.4056 
L 93.7728 453.6432 
" clip-path="url(#pb0a0b5c5b7)" style="fill: none; stroke: #000000"/>
    <path d="M 283.8384 309.4056 
L 388.5192 403.4736 
" clip-path="url(#pb0a0b5c5b7)" style="fill: none; stroke: #000000"/>
    <path d="M 283.8384 309.4056 
L 372.1176 467.1504 
" clip-path="url(#pb0a0b5c5b7)" style="fill: none; stroke: #000000"/>
    <path d="M 283.8384 309.4056 
L 325.8072 435.312 
" clip-path="url(#pb0a0b5c5b7)" style="fill: none; stroke: #000000"/>
    <path d="M 135.7416 412.1568 
L 372.1176 467.1504 
" clip-path="url(#pb0a0b5c5b7)" style="fill: none; stroke: #000000"/>
    <path d="M 135.7416 412.1568 
L 93.7728 453.6432 
" clip-path="url(#pb0a0b5c5b7)" style="fill: none; stroke: #000000"/>
    <path d="M 135.7416 412.1568 
L 325.8072 435.312 
" clip-path="url(#pb0a0b5c5b7)" style="fill: none; stroke: #000000"/>
    <path d="M 135.7416 412.1568 
L 437.2416 275.6376 
" clip-path="url(#pb0a0b5c5b7)" style="fill: none; stroke: #000000"/>
    <path d="M 135.7416 412.1568 
L 185.9112 11.7648 
" clip-path="url(#pb0a0b5c5b7)" style="fill: none; stroke: #000000"/>
    <path d="M 135.7416 412.1568 
L 290.1096 302.1696 
" clip-path="url(#pb0a0b5c5b7)" style="fill: none; stroke: #000000"/>
    <path d="M 440.6184 114.9984 
L 290.1096 302.1696 
" clip-path="url(#pb0a0b5c5b7)" style="fill: none; stroke: #000000"/>
    <path d="M 440.6184 114.9984 
L 388.5192 403.4736 
" clip-path="url(#pb0a0b5c5b7)" style="fill: none; stroke: #000000"/>
    <path d="M 440.6184 114.9984 
L 74.4768 126.0936 
" clip-path="url(#pb0a0b5c5b7)" style="fill: none; stroke: #000000"/>
    <path d="M 440.6184 114.9984 
L 356.1984 355.2336 
" clip-path="url(#pb0a0b5c5b7)" style="fill: none; stroke: #000000"/>
    <path d="M 440.6184 114.9984 
L 430.488 221.6088 
" clip-path="url(#pb0a0b5c5b7)" style="fill: none; stroke: #000000"/>
    <path d="M 437.2416 275.6376 
L 290.1096 302.1696 
" clip-path="url(#pb0a0b5c5b7)" style="fill: none; stroke: #000000"/>
    <path d="M 437.2416 275.6376 
L 388.5192 403.4736 
" clip-path="url(#pb0a0b5c5b7)" style="fill: none; stroke: #000000"/>
    <path d="M 437.2416 275.6376 
L 160.8264 358.128 
" clip-path="url(#pb0a0b5c5b7)" style="fill: none; stroke: #000000"/>
    <path d="M 437.2416 275.6376 
L 356.1984 355.2336 
" clip-path="url(#pb0a0b5c5b7)" style="fill: none; stroke: #000000"/>
    <path d="M 437.2416 275.6376 
L 93.7728 453.6432 
" clip-path="url(#pb0a0b5c5b7)" style="fill: none; stroke: #000000"/>
    <path d="M 437.2416 275.6376 
L 74.4768 126.0936 
" clip-path="url(#pb0a0b5c5b7)" style="fill: none; stroke: #000000"/>
    <path d="M 372.1176 467.1504 
L 356.1984 355.2336 
" clip-path="url(#pb0a0b5c5b7)" style="fill: none; stroke: #000000"/>
    <path d="M 372.1176 467.1504 
L 185.9112 11.7648 
" clip-path="url(#pb0a0b5c5b7)" style="fill: none; stroke: #000000"/>
    <path d="M 372.1176 467.1504 
L 430.488 221.6088 
" clip-path="url(#pb0a0b5c5b7)" style="fill: none; stroke: #000000"/>
    <path d="M 372.1176 467.1504 
L 93.7728 453.6432 
" clip-path="url(#pb0a0b5c5b7)" style="fill: none; stroke: #000000"/>
    <path d="M 160.8264 358.128 
L 325.8072 435.312 
" clip-path="url(#pb0a0b5c5b7)" style="fill: none; stroke: #000000"/>
    <path d="M 160.8264 358.128 
L 93.7728 453.6432 
" clip-path="url(#pb0a0b5c5b7)" style="fill: none; stroke: #000000"/>
    <path d="M 160.8264 358.128 
L 74.4768 126.0936 
" clip-path="url(#pb0a0b5c5b7)" style="fill: none; stroke: #000000"/>
    <path d="M 160.8264 358.128 
L 185.9112 11.7648 
" clip-path="url(#pb0a0b5c5b7)" style="fill: none; stroke: #000000"/>
    <path d="M 93.7728 453.6432 
L 74.4768 126.0936 
" clip-path="url(#pb0a0b5c5b7)" style="fill: none; stroke: #000000"/>
    <path d="M 93.7728 453.6432 
L 430.488 221.6088 
" clip-path="url(#pb0a0b5c5b7)" style="fill: none; stroke: #000000"/>
    <path d="M 325.8072 435.312 
L 290.1096 302.1696 
" clip-path="url(#pb0a0b5c5b7)" style="fill: none; stroke: #000000"/>
    <path d="M 325.8072 435.312 
L 74.4768 126.0936 
" clip-path="url(#pb0a0b5c5b7)" style="fill: none; stroke: #000000"/>
    <path d="M 356.1984 355.2336 
L 74.4768 126.0936 
" clip-path="url(#pb0a0b5c5b7)" style="fill: none; stroke: #000000"/>
    <path d="M 356.1984 355.2336 
L 388.5192 403.4736 
" clip-path="url(#pb0a0b5c5b7)" style="fill: none; stroke: #000000"/>
    <path d="M 356.1984 355.2336 
L 430.488 221.6088 
" clip-path="url(#pb0a0b5c5b7)" style="fill: none; stroke: #000000"/>
    <path d="M 356.1984 355.2336 
L 185.9112 11.7648 
" clip-path="url(#pb0a0b5c5b7)" style="fill: none; stroke: #000000"/>
    <path d="M 430.488 221.6088 
L 388.5192 403.4736 
" clip-path="url(#pb0a0b5c5b7)" style="fill: none; stroke: #000000"/>
    <path d="M 430.488 221.6088 
L 185.9112 11.7648 
" clip-path="url(#pb0a0b5c5b7)" style="fill: none; stroke: #000000"/>
    <path d="M 430.488 221.6088 
L 290.1096 302.1696 
" clip-path="url(#pb0a0b5c5b7)" style="fill: none; stroke: #000000"/>
    <path d="M 185.9112 11.7648 
L 290.1096 302.1696 
" clip-path="url(#pb0a0b5c5b7)" style="fill: none; stroke: #000000"/>
    <path d="M 290.1096 302.1696 
L 388.5192 403.4736 
" clip-path="url(#pb0a0b5c5b7)" style="fill: none; stroke: #000000"/>
   </g>
   <g id="text_1">
    <g id="patch_3">
     <path d="M 355.73118 275.501064 
L 366.64911 268.964672 
Q 369.223082 267.423676 367.682086 264.849704 
L 362.710768 256.545964 
Q 361.169772 253.971992 358.5958 255.512988 
L 347.67787 262.049381 
Q 345.103898 263.590377 346.644894 266.164349 
L 351.616212 274.468089 
Q 353.157208 277.042061 355.73118 275.501064 
z
" clip-path="url(#pb0a0b5c5b7)" style="fill: #ffffff; stroke: #ffffff; stroke-linejoin: miter"/>
    </g>
    <g clip-path="url(#pb0a0b5c5b7)">
     <!-- 18 -->
     <g transform="translate(353.12192 271.14274) rotate(-30.908291) scale(0.1 -0.1)">
      <defs>
       <path id="DejaVuSans-31" d="M 794 531 
L 1825 531 
L 1825 4091 
L 703 3866 
L 703 4441 
L 1819 4666 
L 2450 4666 
L 2450 531 
L 3481 531 
L 3481 0 
L 794 0 
L 794 531 
z
" transform="scale(0.015625)"/>
       <path id="DejaVuSans-38" d="M 2034 2216 
Q 1584 2216 1326 1975 
Q 1069 1734 1069 1313 
Q 1069 891 1326 650 
Q 1584 409 2034 409 
Q 2484 409 2743 651 
Q 3003 894 3003 1313 
Q 3003 1734 2745 1975 
Q 2488 2216 2034 2216 
z
M 1403 2484 
Q 997 2584 770 2862 
Q 544 3141 544 3541 
Q 544 4100 942 4425 
Q 1341 4750 2034 4750 
Q 2731 4750 3128 4425 
Q 3525 4100 3525 3541 
Q 3525 3141 3298 2862 
Q 3072 2584 2669 2484 
Q 3125 2378 3379 2068 
Q 3634 1759 3634 1313 
Q 3634 634 3220 271 
Q 2806 -91 2034 -91 
Q 1263 -91 848 271 
Q 434 634 434 1313 
Q 434 1759 690 2068 
Q 947 2378 1403 2484 
z
M 1172 3481 
Q 1172 3119 1398 2916 
Q 1625 2713 2034 2713 
Q 2441 2713 2670 2916 
Q 2900 3119 2900 3481 
Q 2900 3844 2670 4047 
Q 2441 4250 2034 4250 
Q 1625 4250 1398 4047 
Q 1172 3844 1172 3481 
z
" transform="scale(0.015625)"/>
      </defs>
      <use xlink:href="#DejaVuSans-31"/>
      <use xlink:href="#DejaVuSans-38" x="63.623047"/>
     </g>
    </g>
   </g>
   <g id="text_2">
    <g id="patch_4">
     <path d="M 219.303267 343.398134 
L 231.134063 338.712211 
Q 233.923249 337.607475 232.818513 334.818289 
L 229.254587 325.820259 
Q 228.149851 323.031073 225.360665 324.13581 
L 213.529869 328.821733 
Q 210.740683 329.926469 211.845419 332.715655 
L 215.409345 341.713685 
Q 216.514081 344.502871 219.303267 343.398134 
z
" clip-path="url(#pb0a0b5c5b7)" style="fill: #ffffff; stroke: #ffffff; stroke-linejoin: miter"/>
    </g>
    <g clip-path="url(#pb0a0b5c5b7)">
     <!-- 16 -->
     <g transform="translate(217.432695 338.675403) rotate(-21.60745) scale(0.1 -0.1)">
      <defs>
       <path id="DejaVuSans-36" d="M 2113 2584 
Q 1688 2584 1439 2293 
Q 1191 2003 1191 1497 
Q 1191 994 1439 701 
Q 1688 409 2113 409 
Q 2538 409 2786 701 
Q 3034 994 3034 1497 
Q 3034 2003 2786 2293 
Q 2538 2584 2113 2584 
z
M 3366 4563 
L 3366 3988 
Q 3128 4100 2886 4159 
Q 2644 4219 2406 4219 
Q 1781 4219 1451 3797 
Q 1122 3375 1075 2522 
Q 1259 2794 1537 2939 
Q 1816 3084 2150 3084 
Q 2853 3084 3261 2657 
Q 3669 2231 3669 1497 
Q 3669 778 3244 343 
Q 2819 -91 2113 -91 
Q 1303 -91 875 529 
Q 447 1150 447 2328 
Q 447 3434 972 4092 
Q 1497 4750 2381 4750 
Q 2619 4750 2861 4703 
Q 3103 4656 3366 4563 
z
" transform="scale(0.015625)"/>
      </defs>
      <use xlink:href="#DejaVuSans-31"/>
      <use xlink:href="#DejaVuSans-36" x="63.623047"/>
     </g>
    </g>
   </g>
   <g id="text_3">
    <g id="patch_5">
     <path d="M 225.440326 156.992535 
L 229.417276 169.080111 
Q 230.354867 171.929834 233.204591 170.992243 
L 242.397916 167.967534 
Q 245.24764 167.029943 244.310048 164.18022 
L 240.333099 152.092644 
Q 239.395507 149.242921 236.545784 150.180512 
L 227.352458 153.20522 
Q 224.502735 154.142812 225.440326 156.992535 
z
" clip-path="url(#pb0a0b5c5b7)" style="fill: #ffffff; stroke: #ffffff; stroke-linejoin: miter"/>
    </g>
    <g clip-path="url(#pb0a0b5c5b7)">
     <!-- 18 -->
     <g transform="translate(230.265561 155.404978) rotate(-288.211792) scale(0.1 -0.1)">
      <use xlink:href="#DejaVuSans-31"/>
      <use xlink:href="#DejaVuSans-38" x="63.623047"/>
     </g>
    </g>
   </g>
   <g id="text_4">
    <g id="patch_6">
     <path d="M 188.476698 391.614765 
L 198.613313 383.922258 
Q 201.003085 382.108701 199.189527 379.718929 
L 193.338915 372.009426 
Q 191.525357 369.619654 189.135585 371.433212 
L 178.99897 379.125719 
Q 176.609199 380.939277 178.422757 383.329049 
L 184.273369 391.038552 
Q 186.086927 393.428323 188.476698 391.614765 
z
" clip-path="url(#pb0a0b5c5b7)" style="fill: #ffffff; stroke: #ffffff; stroke-linejoin: miter"/>
    </g>
    <g clip-path="url(#pb0a0b5c5b7)">
     <!-- 16 -->
     <g transform="translate(185.40593 387.568334) rotate(-37.194254) scale(0.1 -0.1)">
      <use xlink:href="#DejaVuSans-31"/>
      <use xlink:href="#DejaVuSans-36" x="63.623047"/>
     </g>
    </g>
   </g>
   <g id="text_5">
    <g id="patch_7">
     <path d="M 326.207184 358.018065 
L 335.672106 366.523409 
Q 337.903522 368.528598 339.908711 366.297183 
L 346.377535 359.098542 
Q 348.382724 356.867127 346.151308 354.861938 
L 336.686387 346.356593 
Q 334.454971 344.351404 332.449782 346.58282 
L 325.980958 353.78146 
Q 323.975769 356.012875 326.207184 358.018065 
z
" clip-path="url(#pb0a0b5c5b7)" style="fill: #ffffff; stroke: #ffffff; stroke-linejoin: miter"/>
    </g>
    <g clip-path="url(#pb0a0b5c5b7)">
     <!-- 10 -->
     <g transform="translate(329.602429 354.239767) rotate(-318.05658) scale(0.1 -0.1)">
      <defs>
       <path id="DejaVuSans-30" d="M 2034 4250 
Q 1547 4250 1301 3770 
Q 1056 3291 1056 2328 
Q 1056 1369 1301 889 
Q 1547 409 2034 409 
Q 2525 409 2770 889 
Q 3016 1369 3016 2328 
Q 3016 3291 2770 3770 
Q 2525 4250 2034 4250 
z
M 2034 4750 
Q 2819 4750 3233 4129 
Q 3647 3509 3647 2328 
Q 3647 1150 3233 529 
Q 2819 -91 2034 -91 
Q 1250 -91 836 529 
Q 422 1150 422 2328 
Q 422 3509 836 4129 
Q 1250 4750 2034 4750 
z
" transform="scale(0.015625)"/>
      </defs>
      <use xlink:href="#DejaVuSans-31"/>
      <use xlink:href="#DejaVuSans-30" x="63.623047"/>
     </g>
    </g>
   </g>
   <g id="text_6">
    <g id="patch_8">
     <path d="M 318.030058 386.553994 
L 324.244433 397.65837 
Q 325.709512 400.276297 328.327439 398.811219 
L 336.772982 394.084814 
Q 339.39091 392.619735 337.925831 390.001808 
L 331.711456 378.897432 
Q 330.246377 376.279504 327.62845 377.744583 
L 319.182906 382.470988 
Q 316.564979 383.936066 318.030058 386.553994 
z
" clip-path="url(#pb0a0b5c5b7)" style="fill: #ffffff; stroke: #ffffff; stroke-linejoin: miter"/>
    </g>
    <g clip-path="url(#pb0a0b5c5b7)">
     <!-- 14 -->
     <g transform="translate(322.462809 384.07328) rotate(-299.232817) scale(0.1 -0.1)">
      <defs>
       <path id="DejaVuSans-34" d="M 2419 4116 
L 825 1625 
L 2419 1625 
L 2419 4116 
z
M 2253 4666 
L 3047 4666 
L 3047 1625 
L 3713 1625 
L 3713 1100 
L 3047 1100 
L 3047 0 
L 2419 0 
L 2419 1100 
L 313 1100 
L 313 1709 
L 2253 4666 
z
" transform="scale(0.015625)"/>
      </defs>
      <use xlink:href="#DejaVuSans-31"/>
      <use xlink:href="#DejaVuSans-34" x="63.623047"/>
     </g>
    </g>
   </g>
   <g id="text_7">
    <g id="patch_9">
     <path d="M 295.374838 368.804208 
L 299.398837 380.876203 
Q 300.34752 383.722252 303.19357 382.773569 
L 312.375046 379.713077 
Q 315.221095 378.764394 314.272412 375.918344 
L 310.248414 363.846349 
Q 309.29973 361.000299 306.453681 361.948983 
L 297.272205 365.009474 
Q 294.426155 365.958158 295.374838 368.804208 
z
" clip-path="url(#pb0a0b5c5b7)" style="fill: #ffffff; stroke: #ffffff; stroke-linejoin: miter"/>
    </g>
    <g clip-path="url(#pb0a0b5c5b7)">
     <!-- 11 -->
     <g transform="translate(300.193853 367.197869) rotate(-288.434949) scale(0.1 -0.1)">
      <use xlink:href="#DejaVuSans-31"/>
      <use xlink:href="#DejaVuSans-31" x="63.623047"/>
     </g>
    </g>
   </g>
   <g id="text_8">
    <g id="patch_10">
     <path d="M 249.055751 446.568105 
L 255.252747 448.009855 
Q 258.17471 448.689659 258.854514 445.767696 
L 261.047588 436.341322 
Q 261.727392 433.419359 258.805429 432.739556 
L 252.608433 431.297805 
Q 249.68647 430.618002 249.006666 433.539965 
L 246.813592 442.966339 
Q 246.133788 445.888302 249.055751 446.568105 
z
" clip-path="url(#pb0a0b5c5b7)" style="fill: #ffffff; stroke: #ffffff; stroke-linejoin: miter"/>
    </g>
    <g clip-path="url(#pb0a0b5c5b7)">
     <!-- 9 -->
     <g transform="translate(250.206814 441.620552) rotate(-346.902947) scale(0.1 -0.1)">
      <defs>
       <path id="DejaVuSans-39" d="M 703 97 
L 703 672 
Q 941 559 1184 500 
Q 1428 441 1663 441 
Q 2288 441 2617 861 
Q 2947 1281 2994 2138 
Q 2813 1869 2534 1725 
Q 2256 1581 1919 1581 
Q 1219 1581 811 2004 
Q 403 2428 403 3163 
Q 403 3881 828 4315 
Q 1253 4750 1959 4750 
Q 2769 4750 3195 4129 
Q 3622 3509 3622 2328 
Q 3622 1225 3098 567 
Q 2575 -91 1691 -91 
Q 1453 -91 1209 -44 
Q 966 3 703 97 
z
M 1959 2075 
Q 2384 2075 2632 2365 
Q 2881 2656 2881 3163 
Q 2881 3666 2632 3958 
Q 2384 4250 1959 4250 
Q 1534 4250 1286 3958 
Q 1038 3666 1038 3163 
Q 1038 2656 1286 2365 
Q 1534 2075 1959 2075 
z
" transform="scale(0.015625)"/>
      </defs>
      <use xlink:href="#DejaVuSans-39"/>
     </g>
    </g>
   </g>
   <g id="text_9">
    <g id="patch_11">
     <path d="M 115.743481 442.947635 
L 124.793275 434.001862 
Q 126.926821 431.892839 124.817798 429.759292 
L 118.014002 422.876382 
Q 115.904979 420.742835 113.771432 422.851858 
L 104.721638 431.797631 
Q 102.588092 433.906654 104.697115 436.040201 
L 111.500911 442.923111 
Q 113.609934 445.056658 115.743481 442.947635 
z
" clip-path="url(#pb0a0b5c5b7)" style="fill: #ffffff; stroke: #ffffff; stroke-linejoin: miter"/>
    </g>
    <g clip-path="url(#pb0a0b5c5b7)">
     <!-- 14 -->
     <g transform="translate(112.172422 439.335051) rotate(-44.668814) scale(0.1 -0.1)">
      <use xlink:href="#DejaVuSans-31"/>
      <use xlink:href="#DejaVuSans-34" x="63.623047"/>
     </g>
    </g>
   </g>
   <g id="text_10">
    <g id="patch_12">
     <path d="M 226.669187 431.131294 
L 232.98499 431.900732 
Q 235.962972 432.263532 236.325772 429.28555 
L 237.496179 419.678456 
Q 237.858979 416.700474 234.880997 416.337675 
L 228.565194 415.568237 
Q 225.587212 415.205437 225.224412 418.183419 
L 224.054005 427.790512 
Q 223.691205 430.768494 226.669187 431.131294 
z
" clip-path="url(#pb0a0b5c5b7)" style="fill: #ffffff; stroke: #ffffff; stroke-linejoin: miter"/>
    </g>
    <g clip-path="url(#pb0a0b5c5b7)">
     <!-- 7 -->
     <g transform="translate(227.28349 426.088888) rotate(-353.054032) scale(0.1 -0.1)">
      <defs>
       <path id="DejaVuSans-37" d="M 525 4666 
L 3525 4666 
L 3525 4397 
L 1831 0 
L 1172 0 
L 2766 4134 
L 525 4134 
L 525 4666 
z
" transform="scale(0.015625)"/>
      </defs>
      <use xlink:href="#DejaVuSans-37"/>
     </g>
    </g>
   </g>
   <g id="text_11">
    <g id="patch_13">
     <path d="M 283.928092 353.66319 
L 295.520116 348.414322 
Q 298.253009 347.176867 297.015555 344.443974 
L 293.023476 335.627545 
Q 291.786022 332.894652 289.053129 334.132106 
L 277.461105 339.380974 
Q 274.728212 340.618429 275.965666 343.351322 
L 279.957745 352.167751 
Q 281.195199 354.900644 283.928092 353.66319 
z
" clip-path="url(#pb0a0b5c5b7)" style="fill: #ffffff; stroke: #ffffff; stroke-linejoin: miter"/>
    </g>
    <g clip-path="url(#pb0a0b5c5b7)">
     <!-- 17 -->
     <g transform="translate(281.832799 349.035775) rotate(-24.361018) scale(0.1 -0.1)">
      <use xlink:href="#DejaVuSans-31"/>
      <use xlink:href="#DejaVuSans-37" x="63.623047"/>
     </g>
    </g>
   </g>
   <g id="text_12">
    <g id="patch_14">
     <path d="M 167.813539 219.249012 
L 169.395626 206.622745 
Q 169.768613 203.646021 166.79189 203.273034 
L 157.188857 202.069763 
Q 154.212134 201.696776 153.839147 204.673499 
L 152.25706 217.299766 
Q 151.884073 220.27649 154.860796 220.649477 
L 164.463829 221.852748 
Q 167.440552 222.225735 167.813539 219.249012 
z
" clip-path="url(#pb0a0b5c5b7)" style="fill: #ffffff; stroke: #ffffff; stroke-linejoin: miter"/>
    </g>
    <g clip-path="url(#pb0a0b5c5b7)">
     <!-- 17 -->
     <g transform="translate(162.773265 218.61746) rotate(-82.857992) scale(0.1 -0.1)">
      <use xlink:href="#DejaVuSans-31"/>
      <use xlink:href="#DejaVuSans-37" x="63.623047"/>
     </g>
    </g>
   </g>
   <g id="text_13">
    <g id="patch_15">
     <path d="M 214.885137 365.392352 
L 220.066889 361.700354 
Q 222.510152 359.95953 220.769327 357.516267 
L 215.153355 349.634201 
Q 213.412531 347.190939 210.969269 348.931763 
L 205.787517 352.623762 
Q 203.344254 354.364586 205.085079 356.807848 
L 210.701051 364.689914 
Q 212.441875 367.133177 214.885137 365.392352 
z
" clip-path="url(#pb0a0b5c5b7)" style="fill: #ffffff; stroke: #ffffff; stroke-linejoin: miter"/>
    </g>
    <g clip-path="url(#pb0a0b5c5b7)">
     <!-- 5 -->
     <g transform="translate(211.937523 361.255349) rotate(-35.469872) scale(0.1 -0.1)">
      <defs>
       <path id="DejaVuSans-35" d="M 691 4666 
L 3169 4666 
L 3169 4134 
L 1269 4134 
L 1269 2991 
Q 1406 3038 1543 3061 
Q 1681 3084 1819 3084 
Q 2600 3084 3056 2656 
Q 3513 2228 3513 1497 
Q 3513 744 3044 326 
Q 2575 -91 1722 -91 
Q 1428 -91 1123 -41 
Q 819 9 494 109 
L 494 744 
Q 775 591 1075 516 
Q 1375 441 1709 441 
Q 2250 441 2565 725 
Q 2881 1009 2881 1497 
Q 2881 1984 2565 2268 
Q 2250 2553 1709 2553 
Q 1456 2553 1204 2497 
Q 953 2441 691 2322 
L 691 4666 
z
" transform="scale(0.015625)"/>
      </defs>
      <use xlink:href="#DejaVuSans-35"/>
     </g>
    </g>
   </g>
   <g id="text_14">
    <g id="patch_16">
     <path d="M 369.479003 215.976048 
L 373.46608 211.01776 
Q 375.346038 208.679863 373.008142 206.799906 
L 365.465991 200.735083 
Q 363.128095 198.855126 361.248137 201.193022 
L 357.26106 206.15131 
Q 355.381102 208.489206 357.718998 210.369164 
L 365.261149 216.433986 
Q 367.599045 218.313944 369.479003 215.976048 
z
" clip-path="url(#pb0a0b5c5b7)" style="fill: #ffffff; stroke: #ffffff; stroke-linejoin: miter"/>
    </g>
    <g clip-path="url(#pb0a0b5c5b7)">
     <!-- 2 -->
     <g transform="translate(365.520409 212.792848) rotate(-51.196413) scale(0.1 -0.1)">
      <defs>
       <path id="DejaVuSans-32" d="M 1228 531 
L 3431 531 
L 3431 0 
L 469 0 
L 469 531 
Q 828 903 1448 1529 
Q 2069 2156 2228 2338 
Q 2531 2678 2651 2914 
Q 2772 3150 2772 3378 
Q 2772 3750 2511 3984 
Q 2250 4219 1831 4219 
Q 1534 4219 1204 4116 
Q 875 4013 500 3803 
L 500 4441 
Q 881 4594 1212 4672 
Q 1544 4750 1819 4750 
Q 2544 4750 2975 4387 
Q 3406 4025 3406 3419 
Q 3406 3131 3298 2873 
Q 3191 2616 2906 2266 
Q 2828 2175 2409 1742 
Q 1991 1309 1228 531 
z
" transform="scale(0.015625)"/>
      </defs>
      <use xlink:href="#DejaVuSans-32"/>
     </g>
    </g>
   </g>
   <g id="text_15">
    <g id="patch_17">
     <path d="M 421.717287 263.761939 
L 422.848073 257.500731 
Q 423.381254 254.548491 420.429014 254.015311 
L 410.904966 252.295249 
Q 407.952727 251.762068 407.419546 254.714308 
L 406.28876 260.975516 
Q 405.755579 263.927756 408.707819 264.460936 
L 418.231867 266.180998 
Q 421.184106 266.714179 421.717287 263.761939 
z
" clip-path="url(#pb0a0b5c5b7)" style="fill: #ffffff; stroke: #ffffff; stroke-linejoin: miter"/>
    </g>
    <g clip-path="url(#pb0a0b5c5b7)">
     <!-- 5 -->
     <g transform="translate(416.718469 262.859142) rotate(-79.76262) scale(0.1 -0.1)">
      <use xlink:href="#DejaVuSans-35"/>
     </g>
    </g>
   </g>
   <g id="text_16">
    <g id="patch_18">
     <path d="M 251.424032 128.574224 
L 264.143193 128.188794 
Q 267.141817 128.097927 267.050949 125.099303 
L 266.757808 115.425619 
Q 266.66694 112.426995 263.668317 112.517863 
L 250.949155 112.903292 
Q 247.950532 112.994159 248.041399 115.992783 
L 248.334541 125.666467 
Q 248.425408 128.665091 251.424032 128.574224 
z
" clip-path="url(#pb0a0b5c5b7)" style="fill: #ffffff; stroke: #ffffff; stroke-linejoin: miter"/>
    </g>
    <g clip-path="url(#pb0a0b5c5b7)">
     <!-- 12 -->
     <g transform="translate(251.270173 123.496867) rotate(-1.735705) scale(0.1 -0.1)">
      <use xlink:href="#DejaVuSans-31"/>
      <use xlink:href="#DejaVuSans-32" x="63.623047"/>
     </g>
    </g>
   </g>
   <g id="text_17">
    <g id="patch_19">
     <path d="M 403.694448 243.718413 
L 407.913187 231.713086 
Q 408.907782 228.882754 406.07745 227.888159 
L 396.94668 224.679555 
Q 394.116347 223.684961 393.121752 226.515293 
L 388.903013 238.520619 
Q 387.908419 241.350952 390.738751 242.345546 
L 399.869521 245.55415 
Q 402.699853 246.548745 403.694448 243.718413 
z
" clip-path="url(#pb0a0b5c5b7)" style="fill: #ffffff; stroke: #ffffff; stroke-linejoin: miter"/>
    </g>
    <g clip-path="url(#pb0a0b5c5b7)">
     <!-- 12 -->
     <g transform="translate(398.902047 242.034336) rotate(-70.638238) scale(0.1 -0.1)">
      <use xlink:href="#DejaVuSans-31"/>
      <use xlink:href="#DejaVuSans-32" x="63.623047"/>
     </g>
    </g>
   </g>
   <g id="text_18">
    <g id="patch_20">
     <path d="M 442.755384 175.377595 
L 443.959125 162.709658 
Q 444.242914 159.723111 441.256367 159.439321 
L 431.621642 158.523805 
Q 428.635095 158.240015 428.351305 161.226562 
L 427.147564 173.894499 
Q 426.863775 176.881046 429.850322 177.164836 
L 439.485047 178.080353 
Q 442.471594 178.364142 442.755384 175.377595 
z
" clip-path="url(#pb0a0b5c5b7)" style="fill: #ffffff; stroke: #ffffff; stroke-linejoin: miter"/>
    </g>
    <g clip-path="url(#pb0a0b5c5b7)">
     <!-- 20 -->
     <g transform="translate(437.698475 174.897075) rotate(-84.571903) scale(0.1 -0.1)">
      <use xlink:href="#DejaVuSans-32"/>
      <use xlink:href="#DejaVuSans-30" x="63.623047"/>
     </g>
    </g>
   </g>
   <g id="text_19">
    <g id="patch_21">
     <path d="M 361.934269 297.183109 
L 368.195777 296.053985 
Q 371.148158 295.521588 370.615762 292.569207 
L 368.898228 283.044703 
Q 368.365832 280.092322 365.413451 280.624718 
L 359.151943 281.753843 
Q 356.199561 282.286239 356.731958 285.23862 
L 358.449492 294.763125 
Q 358.981888 297.715506 361.934269 297.183109 
z
" clip-path="url(#pb0a0b5c5b7)" style="fill: #ffffff; stroke: #ffffff; stroke-linejoin: miter"/>
    </g>
    <g clip-path="url(#pb0a0b5c5b7)">
     <!-- 5 -->
     <g transform="translate(361.0328 292.184051) rotate(-10.222169) scale(0.1 -0.1)">
      <use xlink:href="#DejaVuSans-35"/>
     </g>
    </g>
   </g>
   <g id="text_20">
    <g id="patch_22">
     <path d="M 419.072298 345.320593 
L 421.338251 339.37527 
Q 422.406677 336.571974 419.603381 335.503548 
L 410.559833 332.056762 
Q 407.756537 330.988336 406.688112 333.791632 
L 404.422158 339.736955 
Q 403.353733 342.54025 406.157028 343.608676 
L 415.200576 347.055462 
Q 418.003872 348.123888 419.072298 345.320593 
z
" clip-path="url(#pb0a0b5c5b7)" style="fill: #ffffff; stroke: #ffffff; stroke-linejoin: miter"/>
    </g>
    <g clip-path="url(#pb0a0b5c5b7)">
     <!-- 8 -->
     <g transform="translate(414.325676 343.511503) rotate(-69.136552) scale(0.1 -0.1)">
      <use xlink:href="#DejaVuSans-38"/>
     </g>
    </g>
   </g>
   <g id="text_21">
    <g id="patch_23">
     <path d="M 298.229635 325.303538 
L 304.326434 323.484075 
Q 307.201152 322.626174 306.343252 319.751456 
L 303.57563 310.477494 
Q 302.71773 307.602775 299.843011 308.460675 
L 293.746212 310.280139 
Q 290.871493 311.138039 291.729394 314.012758 
L 294.497016 323.28672 
Q 295.354916 326.161438 298.229635 325.303538 
z
" clip-path="url(#pb0a0b5c5b7)" style="fill: #ffffff; stroke: #ffffff; stroke-linejoin: miter"/>
    </g>
    <g clip-path="url(#pb0a0b5c5b7)">
     <!-- 4 -->
     <g transform="translate(296.777013 320.435981) rotate(-16.616646) scale(0.1 -0.1)">
      <use xlink:href="#DejaVuSans-34"/>
     </g>
    </g>
   </g>
   <g id="text_22">
    <g id="patch_24">
     <path d="M 399.942875 323.257847 
L 404.482189 318.799593 
Q 406.622534 316.697469 404.52041 314.557124 
L 397.73887 307.652284 
Q 395.636746 305.511939 393.496401 307.614063 
L 388.957087 312.072318 
Q 386.816743 314.174442 388.918867 316.314787 
L 395.700407 323.219627 
Q 397.802531 325.359971 399.942875 323.257847 
z
" clip-path="url(#pb0a0b5c5b7)" style="fill: #ffffff; stroke: #ffffff; stroke-linejoin: miter"/>
    </g>
    <g clip-path="url(#pb0a0b5c5b7)">
     <!-- 1 -->
     <g transform="translate(396.383497 319.633754) rotate(-44.483836) scale(0.1 -0.1)">
      <use xlink:href="#DejaVuSans-31"/>
     </g>
    </g>
   </g>
   <g id="text_23">
    <g id="patch_25">
     <path d="M 266.288188 373.064922 
L 271.937126 370.137312 
Q 274.600673 368.756907 273.220267 366.09336 
L 268.767022 357.500648 
Q 267.386616 354.837101 264.72307 356.217506 
L 259.074131 359.145116 
Q 256.410585 360.525522 257.79099 363.189069 
L 262.244236 371.781781 
Q 263.624641 374.445328 266.288188 373.064922 
z
" clip-path="url(#pb0a0b5c5b7)" style="fill: #ffffff; stroke: #ffffff; stroke-linejoin: miter"/>
    </g>
    <g clip-path="url(#pb0a0b5c5b7)">
     <!-- 9 -->
     <g transform="translate(263.950845 368.554927) rotate(-27.39583) scale(0.1 -0.1)">
      <use xlink:href="#DejaVuSans-39"/>
     </g>
    </g>
   </g>
   <g id="text_24">
    <g id="patch_26">
     <path d="M 246.990232 205.688524 
L 258.754816 210.538286 
Q 261.528392 211.681648 262.671754 208.908072 
L 266.360289 199.960401 
Q 267.503651 197.186825 264.730076 196.043463 
L 252.965492 191.193701 
Q 250.191916 190.050339 249.048554 192.823914 
L 245.360019 201.771585 
Q 244.216657 204.545161 246.990232 205.688524 
z
" clip-path="url(#pb0a0b5c5b7)" style="fill: #ffffff; stroke: #ffffff; stroke-linejoin: miter"/>
    </g>
    <g clip-path="url(#pb0a0b5c5b7)">
     <!-- 14 -->
     <g transform="translate(248.926207 200.992224) rotate(-337.596876) scale(0.1 -0.1)">
      <use xlink:href="#DejaVuSans-31"/>
      <use xlink:href="#DejaVuSans-34" x="63.623047"/>
     </g>
    </g>
   </g>
   <g id="text_25">
    <g id="patch_27">
     <path d="M 355.948974 409.145772 
L 356.844966 415.444867 
Q 357.267438 418.414971 360.237542 417.992499 
L 369.819221 416.629588 
Q 372.789325 416.207117 372.366853 413.237013 
L 371.470861 406.937917 
Q 371.048389 403.967813 368.078285 404.390285 
L 358.496606 405.753196 
Q 355.526502 406.175668 355.948974 409.145772 
z
" clip-path="url(#pb0a0b5c5b7)" style="fill: #ffffff; stroke: #ffffff; stroke-linejoin: miter"/>
    </g>
    <g clip-path="url(#pb0a0b5c5b7)">
     <!-- 7 -->
     <g transform="translate(360.978041 408.43043) rotate(-278.095524) scale(0.1 -0.1)">
      <use xlink:href="#DejaVuSans-37"/>
     </g>
    </g>
   </g>
   <g id="text_26">
    <g id="patch_28">
     <path d="M 269.350876 236.536478 
L 274.167035 248.314857 
Q 275.302475 251.091686 278.079304 249.956245 
L 287.037467 246.293267 
Q 289.814296 245.157827 288.678855 242.380999 
L 283.862696 230.602619 
Q 282.727255 227.825791 279.950427 228.961231 
L 270.992263 232.624209 
Q 268.215435 233.759649 269.350876 236.536478 
z
" clip-path="url(#pb0a0b5c5b7)" style="fill: #ffffff; stroke: #ffffff; stroke-linejoin: miter"/>
    </g>
    <g clip-path="url(#pb0a0b5c5b7)">
     <!-- 12 -->
     <g transform="translate(274.052682 234.613917) rotate(-292.23957) scale(0.1 -0.1)">
      <use xlink:href="#DejaVuSans-31"/>
      <use xlink:href="#DejaVuSans-32" x="63.623047"/>
     </g>
    </g>
   </g>
   <g id="text_27">
    <g id="patch_29">
     <path d="M 407.457804 352.38273 
L 410.400791 340.002727 
Q 411.094619 337.084063 408.175954 336.390235 
L 398.760221 334.151917 
Q 395.841556 333.458089 395.147728 336.376754 
L 392.204742 348.756756 
Q 391.510914 351.675421 394.429578 352.369249 
L 403.845312 354.607566 
Q 406.763976 355.301394 407.457804 352.38273 
z
" clip-path="url(#pb0a0b5c5b7)" style="fill: #ffffff; stroke: #ffffff; stroke-linejoin: miter"/>
    </g>
    <g clip-path="url(#pb0a0b5c5b7)">
     <!-- 20 -->
     <g transform="translate(402.515836 351.20792) rotate(-76.627795) scale(0.1 -0.1)">
      <use xlink:href="#DejaVuSans-32"/>
      <use xlink:href="#DejaVuSans-30" x="63.623047"/>
     </g>
    </g>
   </g>
   <g id="text_28">
    <g id="patch_30">
     <path d="M 226.207452 467.918125 
L 238.917495 468.534904 
Q 241.913969 468.680313 242.059379 465.683839 
L 242.528476 456.01709 
Q 242.673885 453.020616 239.677411 452.875206 
L 226.967368 452.258428 
Q 223.970894 452.113018 223.825484 455.109492 
L 223.356387 464.776242 
Q 223.210978 467.772716 226.207452 467.918125 
z
" clip-path="url(#pb0a0b5c5b7)" style="fill: #ffffff; stroke: #ffffff; stroke-linejoin: miter"/>
    </g>
    <g clip-path="url(#pb0a0b5c5b7)">
     <!-- 13 -->
     <g transform="translate(226.453663 462.844408) rotate(-357.221795) scale(0.1 -0.1)">
      <defs>
       <path id="DejaVuSans-33" d="M 2597 2516 
Q 3050 2419 3304 2112 
Q 3559 1806 3559 1356 
Q 3559 666 3084 287 
Q 2609 -91 1734 -91 
Q 1441 -91 1130 -33 
Q 819 25 488 141 
L 488 750 
Q 750 597 1062 519 
Q 1375 441 1716 441 
Q 2309 441 2620 675 
Q 2931 909 2931 1356 
Q 2931 1769 2642 2001 
Q 2353 2234 1838 2234 
L 1294 2234 
L 1294 2753 
L 1863 2753 
Q 2328 2753 2575 2939 
Q 2822 3125 2822 3475 
Q 2822 3834 2567 4026 
Q 2313 4219 1838 4219 
Q 1578 4219 1281 4162 
Q 984 4106 628 3988 
L 628 4550 
Q 988 4650 1302 4700 
Q 1616 4750 1894 4750 
Q 2613 4750 3031 4423 
Q 3450 4097 3450 3541 
Q 3450 3153 3228 2886 
Q 3006 2619 2597 2516 
z
" transform="scale(0.015625)"/>
      </defs>
      <use xlink:href="#DejaVuSans-31"/>
      <use xlink:href="#DejaVuSans-33" x="63.623047"/>
     </g>
    </g>
   </g>
   <g id="text_29">
    <g id="patch_31">
     <path d="M 237.115436 402.473296 
L 242.87844 405.169439 
Q 245.59577 406.440704 246.867036 403.723374 
L 250.968192 394.957154 
Q 252.239457 392.239823 249.522127 390.968558 
L 243.759123 388.272415 
Q 241.041792 387.00115 239.770527 389.71848 
L 235.669371 398.4847 
Q 234.398105 401.202031 237.115436 402.473296 
z
" clip-path="url(#pb0a0b5c5b7)" style="fill: #ffffff; stroke: #ffffff; stroke-linejoin: miter"/>
    </g>
    <g clip-path="url(#pb0a0b5c5b7)">
     <!-- 6 -->
     <g transform="translate(239.26798 397.872233) rotate(-334.928103) scale(0.1 -0.1)">
      <use xlink:href="#DejaVuSans-36"/>
     </g>
    </g>
   </g>
   <g id="text_30">
    <g id="patch_32">
     <path d="M 130.060937 415.595504 
L 137.372359 405.180672 
Q 139.096074 402.725309 136.640711 401.001594 
L 128.719607 395.440819 
Q 126.264244 393.717105 124.540529 396.172468 
L 117.229107 406.5873 
Q 115.505392 409.042663 117.960755 410.766378 
L 125.881859 416.327152 
Q 128.337222 418.050867 130.060937 415.595504 
z
" clip-path="url(#pb0a0b5c5b7)" style="fill: #ffffff; stroke: #ffffff; stroke-linejoin: miter"/>
    </g>
    <g clip-path="url(#pb0a0b5c5b7)">
     <!-- 15 -->
     <g transform="translate(125.903444 412.67686) rotate(-54.93037) scale(0.1 -0.1)">
      <use xlink:href="#DejaVuSans-31"/>
      <use xlink:href="#DejaVuSans-35" x="63.623047"/>
     </g>
    </g>
   </g>
   <g id="text_31">
    <g id="patch_33">
     <path d="M 108.084981 238.879935 
L 112.523124 250.805894 
Q 113.569444 253.617515 116.381066 252.571195 
L 125.451472 249.195721 
Q 128.263094 248.149401 127.216773 245.33778 
L 122.77863 233.41182 
Q 121.73231 230.600199 118.920688 231.646519 
L 109.850282 235.021993 
Q 107.03866 236.068314 108.084981 238.879935 
z
" clip-path="url(#pb0a0b5c5b7)" style="fill: #ffffff; stroke: #ffffff; stroke-linejoin: miter"/>
    </g>
    <g clip-path="url(#pb0a0b5c5b7)">
     <!-- 19 -->
     <g transform="translate(112.8457 237.108274) rotate(-290.412316) scale(0.1 -0.1)">
      <use xlink:href="#DejaVuSans-31"/>
      <use xlink:href="#DejaVuSans-39" x="63.623047"/>
     </g>
    </g>
   </g>
   <g id="text_32">
    <g id="patch_34">
     <path d="M 180.727759 191.859023 
L 181.646939 179.167264 
Q 181.863641 176.175101 178.871478 175.958398 
L 169.218636 175.259307 
Q 166.226472 175.042604 166.00977 178.034767 
L 165.09059 190.726526 
Q 164.873887 193.718689 167.86605 193.935391 
L 177.518893 194.634483 
Q 180.511056 194.851186 180.727759 191.859023 
z
" clip-path="url(#pb0a0b5c5b7)" style="fill: #ffffff; stroke: #ffffff; stroke-linejoin: miter"/>
    </g>
    <g clip-path="url(#pb0a0b5c5b7)">
     <!-- 12 -->
     <g transform="translate(175.661341 191.492095) rotate(-85.857677) scale(0.1 -0.1)">
      <use xlink:href="#DejaVuSans-31"/>
      <use xlink:href="#DejaVuSans-32" x="63.623047"/>
     </g>
    </g>
   </g>
   <g id="text_33">
    <g id="patch_35">
     <path d="M 75.925226 283.979424 
L 76.673561 296.682401 
Q 76.849985 299.677209 79.844793 299.500784 
L 89.506168 298.931631 
Q 92.500976 298.755207 92.324552 295.760399 
L 91.576217 283.057422 
Q 91.399793 280.062614 88.404985 280.239039 
L 78.74361 280.808192 
Q 75.748802 280.984616 75.925226 283.979424 
z
" clip-path="url(#pb0a0b5c5b7)" style="fill: #ffffff; stroke: #ffffff; stroke-linejoin: miter"/>
    </g>
    <g clip-path="url(#pb0a0b5c5b7)">
     <!-- 12 -->
     <g transform="translate(80.996122 283.680697) rotate(-273.371407) scale(0.1 -0.1)">
      <use xlink:href="#DejaVuSans-31"/>
      <use xlink:href="#DejaVuSans-32" x="63.623047"/>
     </g>
    </g>
   </g>
   <g id="text_34">
    <g id="patch_36">
     <path d="M 261.339523 347.691108 
L 271.817566 340.470565 
Q 274.287831 338.768276 272.585542 336.298011 
L 267.093887 328.328831 
Q 265.391598 325.858565 262.921332 327.560854 
L 252.443289 334.781397 
Q 249.973024 336.483686 251.675313 338.953952 
L 257.166968 346.923131 
Q 258.869257 349.393397 261.339523 347.691108 
z
" clip-path="url(#pb0a0b5c5b7)" style="fill: #ffffff; stroke: #ffffff; stroke-linejoin: miter"/>
    </g>
    <g clip-path="url(#pb0a0b5c5b7)">
     <!-- 12 -->
     <g transform="translate(258.457157 343.508382) rotate(-34.571183) scale(0.1 -0.1)">
      <use xlink:href="#DejaVuSans-31"/>
      <use xlink:href="#DejaVuSans-32" x="63.623047"/>
     </g>
    </g>
   </g>
   <g id="text_35">
    <g id="patch_37">
     <path d="M 299.562889 367.698052 
L 301.210582 373.843498 
Q 301.98749 376.741155 304.885146 375.964247 
L 314.233107 373.45791 
Q 317.130764 372.681002 316.353856 369.783345 
L 314.706164 363.637898 
Q 313.929256 360.740242 311.031599 361.51715 
L 301.683638 364.023487 
Q 298.785981 364.800395 299.562889 367.698052 
z
" clip-path="url(#pb0a0b5c5b7)" style="fill: #ffffff; stroke: #ffffff; stroke-linejoin: miter"/>
    </g>
    <g clip-path="url(#pb0a0b5c5b7)">
     <!-- 1 -->
     <g transform="translate(304.469286 366.382568) rotate(-285.008914) scale(0.1 -0.1)">
      <use xlink:href="#DejaVuSans-31"/>
     </g>
    </g>
   </g>
   <g id="text_36">
    <g id="patch_38">
     <path d="M 192.051136 283.176965 
L 196.064151 288.114283 
Q 197.956339 290.442292 200.284348 288.550104 
L 207.794601 282.445827 
Q 210.12261 280.553638 208.230422 278.22563 
L 204.217406 273.288311 
Q 202.325218 270.960303 199.997209 272.852491 
L 192.486956 278.956768 
Q 190.158948 280.848956 192.051136 283.176965 
z
" clip-path="url(#pb0a0b5c5b7)" style="fill: #ffffff; stroke: #ffffff; stroke-linejoin: miter"/>
    </g>
    <g clip-path="url(#pb0a0b5c5b7)">
     <!-- 1 -->
     <g transform="translate(195.992988 279.973057) rotate(-309.103953) scale(0.1 -0.1)">
      <use xlink:href="#DejaVuSans-31"/>
     </g>
    </g>
   </g>
   <g id="text_37">
    <g id="patch_39">
     <path d="M 207.924988 244.739141 
L 212.860944 248.753831 
Q 215.188311 250.646809 217.081289 248.319443 
L 223.188114 240.811261 
Q 225.081092 238.483895 222.753725 236.590917 
L 217.817769 232.576226 
Q 215.490403 230.683248 213.597425 233.010615 
L 207.490599 240.518796 
Q 205.597621 242.846163 207.924988 244.739141 
z
" clip-path="url(#pb0a0b5c5b7)" style="fill: #ffffff; stroke: #ffffff; stroke-linejoin: miter"/>
    </g>
    <g clip-path="url(#pb0a0b5c5b7)">
     <!-- 7 -->
     <g transform="translate(211.130233 240.798376) rotate(-320.876605) scale(0.1 -0.1)">
      <use xlink:href="#DejaVuSans-37"/>
     </g>
    </g>
   </g>
   <g id="text_38">
    <g id="patch_40">
     <path d="M 362.304964 378.431308 
L 369.387901 389.002856 
Q 371.057749 391.495166 373.550059 389.825318 
L 381.590354 384.43832 
Q 384.082664 382.768472 382.412817 380.276162 
L 375.32988 369.704614 
Q 373.660032 367.212304 371.167722 368.882152 
L 363.127426 374.26915 
Q 360.635116 375.938998 362.304964 378.431308 
z
" clip-path="url(#pb0a0b5c5b7)" style="fill: #ffffff; stroke: #ffffff; stroke-linejoin: miter"/>
    </g>
    <g clip-path="url(#pb0a0b5c5b7)">
     <!-- 18 -->
     <g transform="translate(366.525016 375.603873) rotate(-303.822085) scale(0.1 -0.1)">
      <use xlink:href="#DejaVuSans-31"/>
      <use xlink:href="#DejaVuSans-38" x="63.623047"/>
     </g>
    </g>
   </g>
   <g id="text_39">
    <g id="patch_41">
     <path d="M 398.650471 295.007723 
L 401.742079 289.446844 
Q 403.199811 286.824819 400.577786 285.367087 
L 392.119024 280.664381 
Q 389.496998 279.206649 388.039266 281.828674 
L 384.947659 287.389552 
Q 383.489926 290.011578 386.111951 291.46931 
L 394.570714 296.172016 
Q 397.192739 297.629748 398.650471 295.007723 
z
" clip-path="url(#pb0a0b5c5b7)" style="fill: #ffffff; stroke: #ffffff; stroke-linejoin: miter"/>
    </g>
    <g clip-path="url(#pb0a0b5c5b7)">
     <!-- 1 -->
     <g transform="translate(394.210782 292.539448) rotate(-60.927837) scale(0.1 -0.1)">
      <use xlink:href="#DejaVuSans-31"/>
     </g>
    </g>
   </g>
   <g id="text_40">
    <g id="patch_42">
     <path d="M 261.205089 181.280314 
L 266.857421 192.68105 
Q 268.189994 195.368846 270.87779 194.036273 
L 279.548733 189.737336 
Q 282.236529 188.404763 280.903956 185.716967 
L 275.251625 174.316231 
Q 273.919052 171.628435 271.231255 172.961008 
L 262.560313 177.259945 
Q 259.872516 178.592518 261.205089 181.280314 
z
" clip-path="url(#pb0a0b5c5b7)" style="fill: #ffffff; stroke: #ffffff; stroke-linejoin: miter"/>
    </g>
    <g clip-path="url(#pb0a0b5c5b7)">
     <!-- 19 -->
     <g transform="translate(265.756144 179.023962) rotate(-296.371594) scale(0.1 -0.1)">
      <use xlink:href="#DejaVuSans-31"/>
      <use xlink:href="#DejaVuSans-39" x="63.623047"/>
     </g>
    </g>
   </g>
   <g id="text_41">
    <g id="patch_43">
     <path d="M 415.711253 320.503418 
L 418.57259 308.10429 
Q 419.247168 305.181117 416.323995 304.506538 
L 406.893715 302.33032 
Q 403.970541 301.655741 403.295963 304.578915 
L 400.434626 316.978043 
Q 399.760047 319.901216 402.683221 320.575795 
L 412.1135 322.752013 
Q 415.036674 323.426592 415.711253 320.503418 
z
" clip-path="url(#pb0a0b5c5b7)" style="fill: #ffffff; stroke: #ffffff; stroke-linejoin: miter"/>
    </g>
    <g clip-path="url(#pb0a0b5c5b7)">
     <!-- 12 -->
     <g transform="translate(410.76165 319.361202) rotate(-77.005383) scale(0.1 -0.1)">
      <use xlink:href="#DejaVuSans-31"/>
      <use xlink:href="#DejaVuSans-32" x="63.623047"/>
     </g>
    </g>
   </g>
   <g id="text_42">
    <g id="patch_44">
     <path d="M 298.265218 118.492186 
L 307.922723 126.778212 
Q 310.199542 128.731695 312.153025 126.454877 
L 318.455044 119.109765 
Q 320.408527 116.832946 318.131709 114.879463 
L 308.474203 106.593438 
Q 306.197385 104.639954 304.243901 106.916773 
L 297.941883 114.261885 
Q 295.988399 116.538703 298.265218 118.492186 
z
" clip-path="url(#pb0a0b5c5b7)" style="fill: #ffffff; stroke: #ffffff; stroke-linejoin: miter"/>
    </g>
    <g clip-path="url(#pb0a0b5c5b7)">
     <!-- 17 -->
     <g transform="translate(301.572913 114.637011) rotate(-319.370797) scale(0.1 -0.1)">
      <use xlink:href="#DejaVuSans-31"/>
      <use xlink:href="#DejaVuSans-37" x="63.623047"/>
     </g>
    </g>
   </g>
   <g id="text_43">
    <g id="patch_45">
     <path d="M 358.684148 271.854032 
L 369.720853 265.520253 
Q 372.322827 264.027024 370.829598 261.42505 
L 366.012379 253.030975 
Q 364.519151 250.429001 361.917177 251.92223 
L 350.880471 258.256009 
Q 348.278498 259.749238 349.771727 262.351212 
L 354.588945 270.745288 
Q 356.082174 273.347261 358.684148 271.854032 
z
" clip-path="url(#pb0a0b5c5b7)" style="fill: #ffffff; stroke: #ffffff; stroke-linejoin: miter"/>
    </g>
    <g clip-path="url(#pb0a0b5c5b7)">
     <!-- 14 -->
     <g transform="translate(356.155769 267.448295) rotate(-29.850788) scale(0.1 -0.1)">
      <use xlink:href="#DejaVuSans-31"/>
      <use xlink:href="#DejaVuSans-34" x="63.623047"/>
     </g>
    </g>
   </g>
   <g id="text_44">
    <g id="patch_46">
     <path d="M 228.482456 153.624003 
L 232.779977 165.601354 
Q 233.793145 168.42509 236.616882 167.411922 
L 245.726375 164.1434 
Q 248.550112 163.130232 247.536944 160.306495 
L 243.239423 148.329144 
Q 242.226255 145.505407 239.402518 146.518575 
L 230.293025 149.787098 
Q 227.469288 150.800266 228.482456 153.624003 
z
" clip-path="url(#pb0a0b5c5b7)" style="fill: #ffffff; stroke: #ffffff; stroke-linejoin: miter"/>
    </g>
    <g clip-path="url(#pb0a0b5c5b7)">
     <!-- 10 -->
     <g transform="translate(233.26369 151.908477) rotate(-289.738189) scale(0.1 -0.1)">
      <use xlink:href="#DejaVuSans-31"/>
      <use xlink:href="#DejaVuSans-30" x="63.623047"/>
     </g>
    </g>
   </g>
   <g id="text_45">
    <g id="patch_47">
     <path d="M 329.257198 353.718919 
L 338.123796 362.846299 
Q 340.214153 364.998138 342.365991 362.90778 
L 349.307911 356.164202 
Q 351.459749 354.073844 349.369392 351.922006 
L 340.502794 342.794626 
Q 338.412437 340.642788 336.260599 342.733145 
L 329.31868 349.476724 
Q 327.166841 351.567081 329.257198 353.718919 
z
" clip-path="url(#pb0a0b5c5b7)" style="fill: #ffffff; stroke: #ffffff; stroke-linejoin: miter"/>
    </g>
    <g clip-path="url(#pb0a0b5c5b7)">
     <!-- 13 -->
     <g transform="translate(332.900754 350.179466) rotate(-314.169685) scale(0.1 -0.1)">
      <use xlink:href="#DejaVuSans-31"/>
      <use xlink:href="#DejaVuSans-33" x="63.623047"/>
     </g>
    </g>
   </g>
   <g id="matplotlib.axis_1">
    <g id="xtick_1">
     <g id="line2d_1">
      <path d="M 10.8 493.2 
L 10.8 10.8 
" clip-path="url(#pb0a0b5c5b7)" style="fill: none; stroke: #b0b0b0; stroke-opacity: 0.3; stroke-width: 0.8; stroke-linecap: square"/>
     </g>
    </g>
    <g id="xtick_2">
     <g id="line2d_2">
      <path d="M 59.04 493.2 
L 59.04 10.8 
" clip-path="url(#pb0a0b5c5b7)" style="fill: none; stroke: #b0b0b0; stroke-opacity: 0.3; stroke-width: 0.8; stroke-linecap: square"/>
     </g>
    </g>
    <g id="xtick_3">
     <g id="line2d_3">
      <path d="M 107.28 493.2 
L 107.28 10.8 
" clip-path="url(#pb0a0b5c5b7)" style="fill: none; stroke: #b0b0b0; stroke-opacity: 0.3; stroke-width: 0.8; stroke-linecap: square"/>
     </g>
    </g>
    <g id="xtick_4">
     <g id="line2d_4">
      <path d="M 155.52 493.2 
L 155.52 10.8 
" clip-path="url(#pb0a0b5c5b7)" style="fill: none; stroke: #b0b0b0; stroke-opacity: 0.3; stroke-width: 0.8; stroke-linecap: square"/>
     </g>
    </g>
    <g id="xtick_5">
     <g id="line2d_5">
      <path d="M 203.76 493.2 
L 203.76 10.8 
" clip-path="url(#pb0a0b5c5b7)" style="fill: none; stroke: #b0b0b0; stroke-opacity: 0.3; stroke-width: 0.8; stroke-linecap: square"/>
     </g>
    </g>
    <g id="xtick_6">
     <g id="line2d_6">
      <path d="M 252 493.2 
L 252 10.8 
" clip-path="url(#pb0a0b5c5b7)" style="fill: none; stroke: #b0b0b0; stroke-opacity: 0.3; stroke-width: 0.8; stroke-linecap: square"/>
     </g>
    </g>
    <g id="xtick_7">
     <g id="line2d_7">
      <path d="M 300.24 493.2 
L 300.24 10.8 
" clip-path="url(#pb0a0b5c5b7)" style="fill: none; stroke: #b0b0b0; stroke-opacity: 0.3; stroke-width: 0.8; stroke-linecap: square"/>
     </g>
    </g>
    <g id="xtick_8">
     <g id="line2d_8">
      <path d="M 348.48 493.2 
L 348.48 10.8 
" clip-path="url(#pb0a0b5c5b7)" style="fill: none; stroke: #b0b0b0; stroke-opacity: 0.3; stroke-width: 0.8; stroke-linecap: square"/>
     </g>
    </g>
    <g id="xtick_9">
     <g id="line2d_9">
      <path d="M 396.72 493.2 
L 396.72 10.8 
" clip-path="url(#pb0a0b5c5b7)" style="fill: none; stroke: #b0b0b0; stroke-opacity: 0.3; stroke-width: 0.8; stroke-linecap: square"/>
     </g>
    </g>
    <g id="xtick_10">
     <g id="line2d_10">
      <path d="M 444.96 493.2 
L 444.96 10.8 
" clip-path="url(#pb0a0b5c5b7)" style="fill: none; stroke: #b0b0b0; stroke-opacity: 0.3; stroke-width: 0.8; stroke-linecap: square"/>
     </g>
    </g>
    <g id="xtick_11">
     <g id="line2d_11">
      <path d="M 493.2 493.2 
L 493.2 10.8 
" clip-path="url(#pb0a0b5c5b7)" style="fill: none; stroke: #b0b0b0; stroke-opacity: 0.3; stroke-width: 0.8; stroke-linecap: square"/>
     </g>
    </g>
   </g>
   <g id="matplotlib.axis_2">
    <g id="ytick_1">
     <g id="line2d_12">
      <path d="M 10.8 493.2 
L 493.2 493.2 
" clip-path="url(#pb0a0b5c5b7)" style="fill: none; stroke: #b0b0b0; stroke-opacity: 0.3; stroke-width: 0.8; stroke-linecap: square"/>
     </g>
    </g>
    <g id="ytick_2">
     <g id="line2d_13">
      <path d="M 10.8 444.96 
L 493.2 444.96 
" clip-path="url(#pb0a0b5c5b7)" style="fill: none; stroke: #b0b0b0; stroke-opacity: 0.3; stroke-width: 0.8; stroke-linecap: square"/>
     </g>
    </g>
    <g id="ytick_3">
     <g id="line2d_14">
      <path d="M 10.8 396.72 
L 493.2 396.72 
" clip-path="url(#pb0a0b5c5b7)" style="fill: none; stroke: #b0b0b0; stroke-opacity: 0.3; stroke-width: 0.8; stroke-linecap: square"/>
     </g>
    </g>
    <g id="ytick_4">
     <g id="line2d_15">
      <path d="M 10.8 348.48 
L 493.2 348.48 
" clip-path="url(#pb0a0b5c5b7)" style="fill: none; stroke: #b0b0b0; stroke-opacity: 0.3; stroke-width: 0.8; stroke-linecap: square"/>
     </g>
    </g>
    <g id="ytick_5">
     <g id="line2d_16">
      <path d="M 10.8 300.24 
L 493.2 300.24 
" clip-path="url(#pb0a0b5c5b7)" style="fill: none; stroke: #b0b0b0; stroke-opacity: 0.3; stroke-width: 0.8; stroke-linecap: square"/>
     </g>
    </g>
    <g id="ytick_6">
     <g id="line2d_17">
      <path d="M 10.8 252 
L 493.2 252 
" clip-path="url(#pb0a0b5c5b7)" style="fill: none; stroke: #b0b0b0; stroke-opacity: 0.3; stroke-width: 0.8; stroke-linecap: square"/>
     </g>
    </g>
    <g id="ytick_7">
     <g id="line2d_18">
      <path d="M 10.8 203.76 
L 493.2 203.76 
" clip-path="url(#pb0a0b5c5b7)" style="fill: none; stroke: #b0b0b0; stroke-opacity: 0.3; stroke-width: 0.8; stroke-linecap: square"/>
     </g>
    </g>
    <g id="ytick_8">
     <g id="line2d_19">
      <path d="M 10.8 155.52 
L 493.2 155.52 
" clip-path="url(#pb0a0b5c5b7)" style="fill: none; stroke: #b0b0b0; stroke-opacity: 0.3; stroke-width: 0.8; stroke-linecap: square"/>
     </g>
    </g>
    <g id="ytick_9">
     <g id="line2d_20">
      <path d="M 10.8 107.28 
L 493.2 107.28 
" clip-path="url(#pb0a0b5c5b7)" style="fill: none; stroke: #b0b0b0; stroke-opacity: 0.3; stroke-width: 0.8; stroke-linecap: square"/>
     </g>
    </g>
    <g id="ytick_10">
     <g id="line2d_21">
      <path d="M 10.8 59.04 
L 493.2 59.04 
" clip-path="url(#pb0a0b5c5b7)" style="fill: none; stroke: #b0b0b0; stroke-opacity: 0.3; stroke-width: 0.8; stroke-linecap: square"/>
     </g>
    </g>
    <g id="ytick_11">
     <g id="line2d_22">
      <path d="M 10.8 10.8 
L 493.2 10.8 
" clip-path="url(#pb0a0b5c5b7)" style="fill: none; stroke: #b0b0b0; stroke-opacity: 0.3; stroke-width: 0.8; stroke-linecap: square"/>
     </g>
    </g>
   </g>
   <g id="PathCollection_1">
    <defs>
     <path id="m5fc83042f1" d="M 0 8.660254 
C 2.296726 8.660254 4.499694 7.747755 6.123724 6.123724 
C 7.747755 4.499694 8.660254 2.296726 8.660254 0 
C 8.660254 -2.296726 7.747755 -4.499694 6.123724 -6.123724 
C 4.499694 -7.747755 2.296726 -8.660254 0 -8.660254 
C -2.296726 -8.660254 -4.499694 -7.747755 -6.123724 -6.123724 
C -7.747755 -4.499694 -8.660254 -2.296726 -8.660254 0 
C -8.660254 2.296726 -7.747755 4.499694 -6.123724 6.123724 
C -4.499694 7.747755 -2.296726 8.660254 0 8.660254 
z
" style="stroke: #1f78b4"/>
    </defs>
    <g clip-path="url(#pb0a0b5c5b7)">
     <use xlink:href="#m5fc83042f1" x="283.8384" y="309.4056" style="fill: #1f78b4; stroke: #1f78b4"/>
     <use xlink:href="#m5fc83042f1" x="135.7416" y="412.1568" style="fill: #1f78b4; stroke: #1f78b4"/>
     <use xlink:href="#m5fc83042f1" x="440.6184" y="114.9984" style="fill: #1f78b4; stroke: #1f78b4"/>
     <use xlink:href="#m5fc83042f1" x="437.2416" y="275.6376" style="fill: #1f78b4; stroke: #1f78b4"/>
     <use xlink:href="#m5fc83042f1" x="372.1176" y="467.1504" style="fill: #1f78b4; stroke: #1f78b4"/>
     <use xlink:href="#m5fc83042f1" x="160.8264" y="358.128" style="fill: #1f78b4; stroke: #1f78b4"/>
     <use xlink:href="#m5fc83042f1" x="93.7728" y="453.6432" style="fill: #1f78b4; stroke: #1f78b4"/>
     <use xlink:href="#m5fc83042f1" x="325.8072" y="435.312" style="fill: #1f78b4; stroke: #1f78b4"/>
     <use xlink:href="#m5fc83042f1" x="356.1984" y="355.2336" style="fill: #1f78b4; stroke: #1f78b4"/>
     <use xlink:href="#m5fc83042f1" x="430.488" y="221.6088" style="fill: #1f78b4; stroke: #1f78b4"/>
     <use xlink:href="#m5fc83042f1" x="185.9112" y="11.7648" style="fill: #1f78b4; stroke: #1f78b4"/>
     <use xlink:href="#m5fc83042f1" x="74.4768" y="126.0936" style="fill: #1f78b4; stroke: #1f78b4"/>
     <use xlink:href="#m5fc83042f1" x="290.1096" y="302.1696" style="fill: #1f78b4; stroke: #1f78b4"/>
     <use xlink:href="#m5fc83042f1" x="388.5192" y="403.4736" style="fill: #1f78b4; stroke: #1f78b4"/>
    </g>
   </g>
   <g id="patch_48">
    <path d="M 10.8 493.2 
L 10.8 10.8 
" style="fill: none; stroke: #000000; stroke-width: 0.8; stroke-linejoin: miter; stroke-linecap: square"/>
   </g>
   <g id="patch_49">
    <path d="M 493.2 493.2 
L 493.2 10.8 
" style="fill: none; stroke: #000000; stroke-width: 0.8; stroke-linejoin: miter; stroke-linecap: square"/>
   </g>
   <g id="patch_50">
    <path d="M 10.8 493.2 
L 493.2 493.2 
" style="fill: none; stroke: #000000; stroke-width: 0.8; stroke-linejoin: miter; stroke-linecap: square"/>
   </g>
   <g id="patch_51">
    <path d="M 10.8 10.8 
L 493.2 10.8 
" style="fill: none; stroke: #000000; stroke-width: 0.8; stroke-linejoin: miter; stroke-linecap: square"/>
   </g>
   <g id="text_46">
    <g clip-path="url(#pb0a0b5c5b7)">
     <!-- 0 -->
     <g transform="translate(280.0209 312.71685) scale(0.12 -0.12)">
      <use xlink:href="#DejaVuSans-30"/>
     </g>
    </g>
   </g>
   <g id="text_47">
    <g clip-path="url(#pb0a0b5c5b7)">
     <!-- 1 -->
     <g transform="translate(131.9241 415.46805) scale(0.12 -0.12)">
      <use xlink:href="#DejaVuSans-31"/>
     </g>
    </g>
   </g>
   <g id="text_48">
    <g clip-path="url(#pb0a0b5c5b7)">
     <!-- 2 -->
     <g transform="translate(436.8009 118.30965) scale(0.12 -0.12)">
      <use xlink:href="#DejaVuSans-32"/>
     </g>
    </g>
   </g>
   <g id="text_49">
    <g clip-path="url(#pb0a0b5c5b7)">
     <!-- 3 -->
     <g transform="translate(433.4241 278.94885) scale(0.12 -0.12)">
      <use xlink:href="#DejaVuSans-33"/>
     </g>
    </g>
   </g>
   <g id="text_50">
    <g clip-path="url(#pb0a0b5c5b7)">
     <!-- 4 -->
     <g transform="translate(368.3001 470.46165) scale(0.12 -0.12)">
      <use xlink:href="#DejaVuSans-34"/>
     </g>
    </g>
   </g>
   <g id="text_51">
    <g clip-path="url(#pb0a0b5c5b7)">
     <!-- 5 -->
     <g transform="translate(157.0089 361.43925) scale(0.12 -0.12)">
      <use xlink:href="#DejaVuSans-35"/>
     </g>
    </g>
   </g>
   <g id="text_52">
    <g clip-path="url(#pb0a0b5c5b7)">
     <!-- 6 -->
     <g transform="translate(89.9553 456.95445) scale(0.12 -0.12)">
      <use xlink:href="#DejaVuSans-36"/>
     </g>
    </g>
   </g>
   <g id="text_53">
    <g clip-path="url(#pb0a0b5c5b7)">
     <!-- 7 -->
     <g transform="translate(321.9897 438.62325) scale(0.12 -0.12)">
      <use xlink:href="#DejaVuSans-37"/>
     </g>
    </g>
   </g>
   <g id="text_54">
    <g clip-path="url(#pb0a0b5c5b7)">
     <!-- 8 -->
     <g transform="translate(352.3809 358.54485) scale(0.12 -0.12)">
      <use xlink:href="#DejaVuSans-38"/>
     </g>
    </g>
   </g>
   <g id="text_55">
    <g clip-path="url(#pb0a0b5c5b7)">
     <!-- 9 -->
     <g transform="translate(426.6705 224.92005) scale(0.12 -0.12)">
      <use xlink:href="#DejaVuSans-39"/>
     </g>
    </g>
   </g>
   <g id="text_56">
    <g clip-path="url(#pb0a0b5c5b7)">
     <!-- 10 -->
     <g transform="translate(178.2762 15.07605) scale(0.12 -0.12)">
      <use xlink:href="#DejaVuSans-31"/>
      <use xlink:href="#DejaVuSans-30" x="63.623047"/>
     </g>
    </g>
   </g>
   <g id="text_57">
    <g clip-path="url(#pb0a0b5c5b7)">
     <!-- 11 -->
     <g transform="translate(66.8418 129.40485) scale(0.12 -0.12)">
      <use xlink:href="#DejaVuSans-31"/>
      <use xlink:href="#DejaVuSans-31" x="63.623047"/>
     </g>
    </g>
   </g>
   <g id="text_58">
    <g clip-path="url(#pb0a0b5c5b7)">
     <!-- 12 -->
     <g transform="translate(282.4746 305.48085) scale(0.12 -0.12)">
      <use xlink:href="#DejaVuSans-31"/>
      <use xlink:href="#DejaVuSans-32" x="63.623047"/>
     </g>
    </g>
   </g>
   <g id="text_59">
    <g clip-path="url(#pb0a0b5c5b7)">
     <!-- 13 -->
     <g transform="translate(380.8842 406.78485) scale(0.12 -0.12)">
      <use xlink:href="#DejaVuSans-31"/>
      <use xlink:href="#DejaVuSans-33" x="63.623047"/>
     </g>
    </g>
   </g>
  </g>
 </g>
 <defs>
  <clipPath id="pb0a0b5c5b7">
   <rect x="10.8" y="10.8" width="482.4" height="482.4"/>
  </clipPath>
 </defs>
</svg>
