<?xml version="1.0" encoding="utf-8" standalone="no"?>
<!DOCTYPE svg PUBLIC "-//W3C//DTD SVG 1.1//EN"
  "http://www.w3.org/Graphics/SVG/1.1/DTD/svg11.dtd">
<svg xmlns:xlink="http://www.w3.org/1999/xlink" width="504pt" height="504pt" viewBox="0 0 504 504" xmlns="http://www.w3.org/2000/svg" version="1.1">
 <metadata>
  <rdf:RDF xmlns:dc="http://purl.org/dc/elements/1.1/" xmlns:cc="http://creativecommons.org/ns#" xmlns:rdf="http://www.w3.org/1999/02/22-rdf-syntax-ns#">
   <cc:Work>
    <dc:type rdf:resource="http://purl.org/dc/dcmitype/StillImage"/>
    <dc:date>2024-10-29T14:59:38.503831</dc:date>
    <dc:format>image/svg+xml</dc:format>
    <dc:creator>
     <cc:Agent>
      <dc:title>Matplotlib v3.9.2, https://matplotlib.org/</dc:title>
     </cc:Agent>
    </dc:creator>
   </cc:Work>
  </rdf:RDF>
 </metadata>
 <defs>
  <style type="text/css">*{stroke-linejoin: round; stroke-linecap: butt}</style>
 </defs>
 <g id="figure_1">
  <g id="patch_1">
   <path d="M 0 504 
L 504 504 
L 504 0 
L 0 0 
L 0 504 
z
" style="fill: none; opacity: 0"/>
  </g>
  <g id="axes_1">
   <g id="patch_2">
    <path d="M 10.8 493.2 
L 493.2 493.2 
L 493.2 10.8 
L 10.8 10.8 
L 10.8 493.2 
z
" style="fill: none; opacity: 0"/>
   </g>
   <g id="LineCollection_1">
    <path d="M 158.4144 27.2016 
L 334.9728 200.8656 
" clip-path="url(#p3206679a63)" style="fill: none; stroke: #000000"/>
    <path d="M 158.4144 27.2016 
L 453.6432 386.5896 
" clip-path="url(#p3206679a63)" style="fill: none; stroke: #000000"/>
    <path d="M 158.4144 27.2016 
L 459.432 307.9584 
" clip-path="url(#p3206679a63)" style="fill: none; stroke: #000000"/>
    <path d="M 158.4144 27.2016 
L 402.9912 391.896 
" clip-path="url(#p3206679a63)" style="fill: none; stroke: #000000"/>
    <path d="M 493.2 170.4744 
L 183.9816 142.9776 
" clip-path="url(#p3206679a63)" style="fill: none; stroke: #000000"/>
    <path d="M 493.2 170.4744 
L 402.9912 391.896 
" clip-path="url(#p3206679a63)" style="fill: none; stroke: #000000"/>
    <path d="M 493.2 170.4744 
L 333.5256 458.4672 
" clip-path="url(#p3206679a63)" style="fill: none; stroke: #000000"/>
    <path d="M 248.1408 105.3504 
L 387.5544 403.956 
" clip-path="url(#p3206679a63)" style="fill: none; stroke: #000000"/>
    <path d="M 248.1408 105.3504 
L 291.0744 159.3792 
" clip-path="url(#p3206679a63)" style="fill: none; stroke: #000000"/>
    <path d="M 248.1408 105.3504 
L 304.5816 193.6296 
" clip-path="url(#p3206679a63)" style="fill: none; stroke: #000000"/>
    <path d="M 24.3072 29.6136 
L 387.5544 403.956 
" clip-path="url(#p3206679a63)" style="fill: none; stroke: #000000"/>
    <path d="M 24.3072 29.6136 
L 291.0744 159.3792 
" clip-path="url(#p3206679a63)" style="fill: none; stroke: #000000"/>
    <path d="M 183.9816 142.9776 
L 158.8968 207.6192 
" clip-path="url(#p3206679a63)" style="fill: none; stroke: #000000"/>
    <path d="M 453.6432 386.5896 
L 333.5256 458.4672 
" clip-path="url(#p3206679a63)" style="fill: none; stroke: #000000"/>
    <path d="M 402.9912 391.896 
L 304.5816 193.6296 
" clip-path="url(#p3206679a63)" style="fill: none; stroke: #000000"/>
    <path d="M 333.5256 458.4672 
L 387.5544 403.956 
" clip-path="url(#p3206679a63)" style="fill: none; stroke: #000000"/>
    <path d="M 333.5256 458.4672 
L 304.5816 193.6296 
" clip-path="url(#p3206679a63)" style="fill: none; stroke: #000000"/>
    <path d="M 158.8968 207.6192 
L 304.5816 193.6296 
" clip-path="url(#p3206679a63)" style="fill: none; stroke: #000000"/>
    <path d="M 158.8968 207.6192 
L 291.0744 159.3792 
" clip-path="url(#p3206679a63)" style="fill: none; stroke: #000000"/>
    <path d="M 334.9728 200.8656 
L 291.0744 159.3792 
" clip-path="url(#p3206679a63)" style="fill: none; stroke: #000000"/>
    <path d="M 459.432 307.9584 
L 387.5544 403.956 
" clip-path="url(#p3206679a63)" style="fill: none; stroke: #000000"/>
    <path d="M 387.5544 403.956 
L 291.0744 159.3792 
" clip-path="url(#p3206679a63)" style="fill: none; stroke: #000000"/>
   </g>
   <g id="text_1">
    <g id="patch_3">
     <path d="M 236.659237 115.159349 
L 245.731224 124.082615 
Q 247.870003 126.186332 249.97372 124.047553 
L 256.760398 117.147763 
Q 258.864115 115.008984 256.725336 112.905267 
L 247.653349 103.982001 
Q 245.51457 101.878284 243.410853 104.017063 
L 236.624175 110.916853 
Q 234.520458 113.055632 236.659237 115.159349 
z
" clip-path="url(#p3206679a63)" style="fill: #ffffff; stroke: #ffffff; stroke-linejoin: miter"/>
    </g>
    <g clip-path="url(#p3206679a63)">
     <!-- 18 -->
     <g transform="translate(240.221312 111.537906) rotate(-315.473508) scale(0.1 -0.1)">
      <defs>
       <path id="DejaVuSans-31" d="M 794 531 
L 1825 531 
L 1825 4091 
L 703 3866 
L 703 4441 
L 1819 4666 
L 2450 4666 
L 2450 531 
L 3481 531 
L 3481 0 
L 794 0 
L 794 531 
z
" transform="scale(0.015625)"/>
       <path id="DejaVuSans-38" d="M 2034 2216 
Q 1584 2216 1326 1975 
Q 1069 1734 1069 1313 
Q 1069 891 1326 650 
Q 1584 409 2034 409 
Q 2484 409 2743 651 
Q 3003 894 3003 1313 
Q 3003 1734 2745 1975 
Q 2488 2216 2034 2216 
z
M 1403 2484 
Q 997 2584 770 2862 
Q 544 3141 544 3541 
Q 544 4100 942 4425 
Q 1341 4750 2034 4750 
Q 2731 4750 3128 4425 
Q 3525 4100 3525 3541 
Q 3525 3141 3298 2862 
Q 3072 2584 2669 2484 
Q 3125 2378 3379 2068 
Q 3634 1759 3634 1313 
Q 3634 634 3220 271 
Q 2806 -91 2034 -91 
Q 1263 -91 848 271 
Q 434 634 434 1313 
Q 434 1759 690 2068 
Q 947 2378 1403 2484 
z
M 1172 3481 
Q 1172 3119 1398 2916 
Q 1625 2713 2034 2713 
Q 2441 2713 2670 2916 
Q 2900 3119 2900 3481 
Q 2900 3844 2670 4047 
Q 2441 4250 2034 4250 
Q 1625 4250 1398 4047 
Q 1172 3844 1172 3481 
z
" transform="scale(0.015625)"/>
      </defs>
      <use xlink:href="#DejaVuSans-31"/>
      <use xlink:href="#DejaVuSans-38" x="63.623047"/>
     </g>
    </g>
   </g>
   <g id="text_2">
    <g id="patch_4">
     <path d="M 295.933179 206.955614 
L 304.01052 216.788324 
Q 305.914804 219.106448 308.232928 217.202164 
L 315.711294 211.058862 
Q 318.029418 209.154578 316.125133 206.836453 
L 308.047793 197.003743 
Q 306.143508 194.685619 303.825384 196.589903 
L 296.347019 202.733205 
Q 294.028894 204.63749 295.933179 206.955614 
z
" clip-path="url(#p3206679a63)" style="fill: #ffffff; stroke: #ffffff; stroke-linejoin: miter"/>
    </g>
    <g clip-path="url(#p3206679a63)">
     <!-- 19 -->
     <g transform="translate(299.858295 203.731224) rotate(-309.402301) scale(0.1 -0.1)">
      <defs>
       <path id="DejaVuSans-39" d="M 703 97 
L 703 672 
Q 941 559 1184 500 
Q 1428 441 1663 441 
Q 2288 441 2617 861 
Q 2947 1281 2994 2138 
Q 2813 1869 2534 1725 
Q 2256 1581 1919 1581 
Q 1219 1581 811 2004 
Q 403 2428 403 3163 
Q 403 3881 828 4315 
Q 1253 4750 1959 4750 
Q 2769 4750 3195 4129 
Q 3622 3509 3622 2328 
Q 3622 1225 3098 567 
Q 2575 -91 1691 -91 
Q 1453 -91 1209 -44 
Q 966 3 703 97 
z
M 1959 2075 
Q 2384 2075 2632 2365 
Q 2881 2656 2881 3163 
Q 2881 3666 2632 3958 
Q 2384 4250 1959 4250 
Q 1534 4250 1286 3958 
Q 1038 3666 1038 3163 
Q 1038 2656 1286 2365 
Q 1534 2075 1959 2075 
z
" transform="scale(0.015625)"/>
      </defs>
      <use xlink:href="#DejaVuSans-31"/>
      <use xlink:href="#DejaVuSans-39" x="63.623047"/>
     </g>
    </g>
   </g>
   <g id="text_3">
    <g id="patch_5">
     <path d="M 301.249158 171.141993 
L 305.901985 175.481649 
Q 308.095852 177.527852 310.142055 175.333985 
L 316.743191 168.256478 
Q 318.789394 166.062611 316.595527 164.016408 
L 311.942701 159.676752 
Q 309.748833 157.630549 307.70263 159.824416 
L 301.101494 166.901923 
Q 299.055291 169.09579 301.249158 171.141993 
z
" clip-path="url(#p3206679a63)" style="fill: #ffffff; stroke: #ffffff; stroke-linejoin: miter"/>
    </g>
    <g clip-path="url(#p3206679a63)">
     <!-- 1 -->
     <g transform="translate(304.713849 167.427273) rotate(-316.994569) scale(0.1 -0.1)">
      <use xlink:href="#DejaVuSans-31"/>
     </g>
    </g>
   </g>
   <g id="text_4">
    <g id="patch_6">
     <path d="M 270.648477 208.630787 
L 277.736045 219.199231 
Q 279.406984 221.690809 281.898562 220.01987 
L 289.936497 214.62935 
Q 292.428075 212.95841 290.757136 210.466832 
L 283.669568 199.898388 
Q 281.998629 197.40681 279.507051 199.077749 
L 271.469116 204.468269 
Q 268.977538 206.139209 270.648477 208.630787 
z
" clip-path="url(#p3206679a63)" style="fill: #ffffff; stroke: #ffffff; stroke-linejoin: miter"/>
    </g>
    <g clip-path="url(#p3206679a63)">
     <!-- 15 -->
     <g transform="translate(274.86729 205.801504) rotate(-303.847185) scale(0.1 -0.1)">
      <defs>
       <path id="DejaVuSans-35" d="M 691 4666 
L 3169 4666 
L 3169 4134 
L 1269 4134 
L 1269 2991 
Q 1406 3038 1543 3061 
Q 1681 3084 1819 3084 
Q 2600 3084 3056 2656 
Q 3513 2228 3513 1497 
Q 3513 744 3044 326 
Q 2575 -91 1722 -91 
Q 1428 -91 1123 -41 
Q 819 9 494 109 
L 494 744 
Q 775 591 1075 516 
Q 1375 441 1709 441 
Q 2250 441 2565 725 
Q 2881 1009 2881 1497 
Q 2881 1984 2565 2268 
Q 2250 2553 1709 2553 
Q 1456 2553 1204 2497 
Q 953 2441 691 2322 
L 691 4666 
z
" transform="scale(0.015625)"/>
      </defs>
      <use xlink:href="#DejaVuSans-31"/>
      <use xlink:href="#DejaVuSans-35" x="63.623047"/>
     </g>
    </g>
   </g>
   <g id="text_5">
    <g id="patch_7">
     <path d="M 334.726547 164.252372 
L 341.06404 164.815924 
Q 344.052249 165.081646 344.317971 162.093437 
L 345.175201 152.453351 
Q 345.440924 149.465143 342.452715 149.19942 
L 336.115222 148.635868 
Q 333.127013 148.370146 332.861291 151.358355 
L 332.00406 160.998441 
Q 331.738338 163.986649 334.726547 164.252372 
z
" clip-path="url(#p3206679a63)" style="fill: #ffffff; stroke: #ffffff; stroke-linejoin: miter"/>
    </g>
    <g clip-path="url(#p3206679a63)">
     <!-- 4 -->
     <g transform="translate(335.176475 159.192649) rotate(-354.918421) scale(0.1 -0.1)">
      <defs>
       <path id="DejaVuSans-34" d="M 2419 4116 
L 825 1625 
L 2419 1625 
L 2419 4116 
z
M 2253 4666 
L 3047 4666 
L 3047 1625 
L 3713 1625 
L 3713 1100 
L 3047 1100 
L 3047 0 
L 2419 0 
L 2419 1100 
L 313 1100 
L 313 1709 
L 2253 4666 
z
" transform="scale(0.015625)"/>
      </defs>
      <use xlink:href="#DejaVuSans-34"/>
     </g>
    </g>
   </g>
   <g id="text_6">
    <g id="patch_8">
     <path d="M 454.155582 287.087605 
L 456.556134 281.195342 
Q 457.688025 278.417065 454.909747 277.285175 
L 445.94691 273.633648 
Q 443.168633 272.501758 442.036742 275.280035 
L 439.636191 281.172297 
Q 438.5043 283.950574 441.282577 285.082465 
L 450.245415 288.733991 
Q 453.023692 289.865882 454.155582 287.087605 
z
" clip-path="url(#p3206679a63)" style="fill: #ffffff; stroke: #ffffff; stroke-linejoin: miter"/>
    </g>
    <g clip-path="url(#p3206679a63)">
     <!-- 7 -->
     <g transform="translate(449.451323 285.171055) rotate(-67.833654) scale(0.1 -0.1)">
      <defs>
       <path id="DejaVuSans-37" d="M 525 4666 
L 3525 4666 
L 3525 4397 
L 1831 0 
L 1172 0 
L 2766 4134 
L 525 4134 
L 525 4666 
z
" transform="scale(0.015625)"/>
      </defs>
      <use xlink:href="#DejaVuSans-37"/>
     </g>
    </g>
   </g>
   <g id="text_7">
    <g id="patch_9">
     <path d="M 417.134595 323.834362 
L 423.304902 312.705439 
Q 424.759592 310.081724 422.135877 308.627035 
L 413.671664 303.934146 
Q 411.047949 302.479457 409.59326 305.103172 
L 403.422952 316.232095 
Q 401.968263 318.855809 404.591978 320.310499 
L 413.056191 325.003387 
Q 415.679905 326.458077 417.134595 323.834362 
z
" clip-path="url(#p3206679a63)" style="fill: #ffffff; stroke: #ffffff; stroke-linejoin: miter"/>
    </g>
    <g clip-path="url(#p3206679a63)">
     <!-- 10 -->
     <g transform="translate(412.692044 321.37124) rotate(-60.994311) scale(0.1 -0.1)">
      <defs>
       <path id="DejaVuSans-30" d="M 2034 4250 
Q 1547 4250 1301 3770 
Q 1056 3291 1056 2328 
Q 1056 1369 1301 889 
Q 1547 409 2034 409 
Q 2525 409 2770 889 
Q 3016 1369 3016 2328 
Q 3016 3291 2770 3770 
Q 2525 4250 2034 4250 
z
M 2034 4750 
Q 2819 4750 3233 4129 
Q 3647 3509 3647 2328 
Q 3647 1150 3233 529 
Q 2819 -91 2034 -91 
Q 1250 -91 836 529 
Q 422 1150 422 2328 
Q 422 3509 836 4129 
Q 1250 4750 2034 4750 
z
" transform="scale(0.015625)"/>
      </defs>
      <use xlink:href="#DejaVuSans-31"/>
      <use xlink:href="#DejaVuSans-30" x="63.623047"/>
     </g>
    </g>
   </g>
   <g id="text_8">
    <g id="patch_10">
     <path d="M 309.398741 255.086914 
L 312.090369 260.852028 
Q 313.359506 263.570353 316.077831 262.301216 
L 324.847261 258.206926 
Q 327.565586 256.937789 326.296449 254.219464 
L 323.60482 248.45435 
Q 322.335683 245.736025 319.617358 247.005162 
L 310.847929 251.099451 
Q 308.129604 252.368589 309.398741 255.086914 
z
" clip-path="url(#p3206679a63)" style="fill: #ffffff; stroke: #ffffff; stroke-linejoin: miter"/>
    </g>
    <g clip-path="url(#p3206679a63)">
     <!-- 3 -->
     <g transform="translate(314.001488 252.937974) rotate(-295.027027) scale(0.1 -0.1)">
      <defs>
       <path id="DejaVuSans-33" d="M 2597 2516 
Q 3050 2419 3304 2112 
Q 3559 1806 3559 1356 
Q 3559 666 3084 287 
Q 2609 -91 1734 -91 
Q 1441 -91 1130 -33 
Q 819 25 488 141 
L 488 750 
Q 750 597 1062 519 
Q 1375 441 1716 441 
Q 2309 441 2620 675 
Q 2931 909 2931 1356 
Q 2931 1769 2642 2001 
Q 2353 2234 1838 2234 
L 1294 2234 
L 1294 2753 
L 1863 2753 
Q 2328 2753 2575 2939 
Q 2822 3125 2822 3475 
Q 2822 3834 2567 4026 
Q 2313 4219 1838 4219 
Q 1578 4219 1281 4162 
Q 984 4106 628 3988 
L 628 4550 
Q 988 4650 1302 4700 
Q 1616 4750 1894 4750 
Q 2613 4750 3031 4423 
Q 3450 4097 3450 3541 
Q 3450 3153 3228 2886 
Q 3006 2619 2597 2516 
z
" transform="scale(0.015625)"/>
      </defs>
      <use xlink:href="#DejaVuSans-33"/>
     </g>
    </g>
   </g>
   <g id="text_9">
    <g id="patch_11">
     <path d="M 259.513514 132.262404 
L 267.430173 142.224941 
Q 269.296576 144.573673 271.645307 142.70727 
L 279.222414 136.686177 
Q 281.571145 134.819774 279.704742 132.471042 
L 271.788084 122.508505 
Q 269.921681 120.159774 267.572949 122.026177 
L 259.995843 128.04727 
Q 257.647111 129.913673 259.513514 132.262404 
z
" clip-path="url(#p3206679a63)" style="fill: #ffffff; stroke: #ffffff; stroke-linejoin: miter"/>
    </g>
    <g clip-path="url(#p3206679a63)">
     <!-- 13 -->
     <g transform="translate(263.490455 129.102157) rotate(-308.472159) scale(0.1 -0.1)">
      <use xlink:href="#DejaVuSans-31"/>
      <use xlink:href="#DejaVuSans-33" x="63.623047"/>
     </g>
    </g>
   </g>
   <g id="text_10">
    <g id="patch_12">
     <path d="M 268.043111 151.032505 
L 271.470346 156.393052 
Q 273.086331 158.920619 275.613898 157.304634 
L 283.767933 152.091399 
Q 286.295499 150.475413 284.679514 147.947847 
L 281.252279 142.5873 
Q 279.636294 140.059733 277.108727 141.675718 
L 268.954693 146.888954 
Q 266.427126 148.504939 268.043111 151.032505 
z
" clip-path="url(#p3206679a63)" style="fill: #ffffff; stroke: #ffffff; stroke-linejoin: miter"/>
    </g>
    <g clip-path="url(#p3206679a63)">
     <!-- 2 -->
     <g transform="translate(272.322861 148.296272) rotate(-302.592581) scale(0.1 -0.1)">
      <defs>
       <path id="DejaVuSans-32" d="M 1228 531 
L 3431 531 
L 3431 0 
L 469 0 
L 469 531 
Q 828 903 1448 1529 
Q 2069 2156 2228 2338 
Q 2531 2678 2651 2914 
Q 2772 3150 2772 3378 
Q 2772 3750 2511 3984 
Q 2250 4219 1831 4219 
Q 1534 4219 1204 4116 
Q 875 4013 500 3803 
L 500 4441 
Q 881 4594 1212 4672 
Q 1544 4750 1819 4750 
Q 2544 4750 2975 4387 
Q 3406 4025 3406 3419 
Q 3406 3131 3298 2873 
Q 3191 2616 2906 2266 
Q 2828 2175 2409 1742 
Q 1991 1309 1228 531 
z
" transform="scale(0.015625)"/>
      </defs>
      <use xlink:href="#DejaVuSans-32"/>
     </g>
    </g>
   </g>
   <g id="text_11">
    <g id="patch_13">
     <path d="M 195.875259 217.678809 
L 204.736838 226.811061 
Q 206.826012 228.964048 208.978999 226.874874 
L 215.924624 220.135111 
Q 218.077611 218.045937 215.988437 215.892951 
L 207.126857 206.760698 
Q 205.037683 204.607712 202.884696 206.696886 
L 195.939071 213.436648 
Q 193.786085 215.525822 195.875259 217.678809 
z
" clip-path="url(#p3206679a63)" style="fill: #ffffff; stroke: #ffffff; stroke-linejoin: miter"/>
    </g>
    <g clip-path="url(#p3206679a63)">
     <!-- 12 -->
     <g transform="translate(199.520759 214.141359) rotate(-314.138193) scale(0.1 -0.1)">
      <use xlink:href="#DejaVuSans-31"/>
      <use xlink:href="#DejaVuSans-32" x="63.623047"/>
     </g>
    </g>
   </g>
   <g id="text_12">
    <g id="patch_14">
     <path d="M 148.539315 98.762084 
L 159.982302 104.328383 
Q 162.680059 105.640674 163.992349 102.942917 
L 168.225853 94.23984 
Q 169.538144 91.542083 166.840387 90.229792 
L 155.3974 84.663493 
Q 152.699643 83.351203 151.387352 86.04896 
L 147.153848 94.752037 
Q 145.841558 97.449794 148.539315 98.762084 
z
" clip-path="url(#p3206679a63)" style="fill: #ffffff; stroke: #ffffff; stroke-linejoin: miter"/>
    </g>
    <g clip-path="url(#p3206679a63)">
     <!-- 14 -->
     <g transform="translate(150.761324 94.194163) rotate(-334.059969) scale(0.1 -0.1)">
      <use xlink:href="#DejaVuSans-31"/>
      <use xlink:href="#DejaVuSans-34" x="63.623047"/>
     </g>
    </g>
   </g>
   <g id="text_13">
    <g id="patch_15">
     <path d="M 176.445319 184.066372 
L 181.048902 172.203293 
Q 182.134226 169.406496 179.337429 168.321172 
L 170.314846 164.819871 
Q 167.51805 163.734547 166.432726 166.531344 
L 161.829143 178.394423 
Q 160.743819 181.19122 163.540615 182.276544 
L 172.563198 185.777845 
Q 175.359995 186.863169 176.445319 184.066372 
z
" clip-path="url(#p3206679a63)" style="fill: #ffffff; stroke: #ffffff; stroke-linejoin: miter"/>
    </g>
    <g clip-path="url(#p3206679a63)">
     <!-- 11 -->
     <g transform="translate(171.709701 182.22867) rotate(-68.790774) scale(0.1 -0.1)">
      <use xlink:href="#DejaVuSans-31"/>
      <use xlink:href="#DejaVuSans-31" x="63.623047"/>
     </g>
    </g>
   </g>
   <g id="text_14">
    <g id="patch_16">
     <path d="M 394.880375 430.888264 
L 400.340039 427.621236 
Q 402.914341 426.08079 401.373895 423.506489 
L 396.404354 415.201685 
Q 394.863909 412.627384 392.289607 414.167829 
L 386.829943 417.434857 
Q 384.255641 418.975303 385.796087 421.549604 
L 390.765628 429.854408 
Q 392.306073 432.428709 394.880375 430.888264 
z
" clip-path="url(#p3206679a63)" style="fill: #ffffff; stroke: #ffffff; stroke-linejoin: miter"/>
    </g>
    <g clip-path="url(#p3206679a63)">
     <!-- 7 -->
     <g transform="translate(392.272048 426.529381) rotate(-30.896031) scale(0.1 -0.1)">
      <use xlink:href="#DejaVuSans-37"/>
     </g>
    </g>
   </g>
   <g id="text_15">
    <g id="patch_17">
     <path d="M 343.935618 290.548233 
L 349.593107 301.94641 
Q 350.926896 304.633603 353.614089 303.299813 
L 362.283086 298.996954 
Q 364.970279 297.663164 363.63649 294.975971 
L 357.979 283.577794 
Q 356.645211 280.890601 353.958018 282.224391 
L 345.289021 286.52725 
Q 342.601828 287.86104 343.935618 290.548233 
z
" clip-path="url(#p3206679a63)" style="fill: #ffffff; stroke: #ffffff; stroke-linejoin: miter"/>
    </g>
    <g clip-path="url(#p3206679a63)">
     <!-- 15 -->
     <g transform="translate(348.485651 288.289822) rotate(-296.39752) scale(0.1 -0.1)">
      <use xlink:href="#DejaVuSans-31"/>
      <use xlink:href="#DejaVuSans-35" x="63.623047"/>
     </g>
    </g>
   </g>
   <g id="text_16">
    <g id="patch_18">
     <path d="M 361.63048 441.247093 
L 370.588335 432.209258 
Q 372.700206 430.078531 370.569479 427.966659 
L 363.695663 421.153674 
Q 361.564936 419.041803 359.453065 421.17253 
L 350.49521 430.210366 
Q 348.383339 432.341093 350.514066 434.452964 
L 357.387881 441.265949 
Q 359.518609 443.377821 361.63048 441.247093 
z
" clip-path="url(#p3206679a63)" style="fill: #ffffff; stroke: #ffffff; stroke-linejoin: miter"/>
    </g>
    <g clip-path="url(#p3206679a63)">
     <!-- 18 -->
     <g transform="translate(358.02267 437.671211) rotate(-45.254646) scale(0.1 -0.1)">
      <use xlink:href="#DejaVuSans-31"/>
      <use xlink:href="#DejaVuSans-38" x="63.623047"/>
     </g>
    </g>
   </g>
   <g id="text_17">
    <g id="patch_19">
     <path d="M 310.914972 323.734468 
L 311.606211 330.059307 
Q 311.932139 333.04155 314.914382 332.715621 
L 324.535221 331.664164 
Q 327.517463 331.338235 327.191535 328.355993 
L 326.500296 322.031153 
Q 326.174368 319.048911 323.192125 319.374839 
L 313.571286 320.426297 
Q 310.589044 320.752225 310.914972 323.734468 
z
" clip-path="url(#p3206679a63)" style="fill: #ffffff; stroke: #ffffff; stroke-linejoin: miter"/>
    </g>
    <g clip-path="url(#p3206679a63)">
     <!-- 7 -->
     <g transform="translate(315.964592 323.182596) rotate(-276.23708) scale(0.1 -0.1)">
      <use xlink:href="#DejaVuSans-37"/>
     </g>
    </g>
   </g>
   <g id="text_18">
    <g id="patch_20">
     <path d="M 229.321731 208.731663 
L 235.655098 208.123492 
Q 238.641361 207.836732 238.354601 204.850468 
L 237.4295 195.216658 
Q 237.14274 192.230395 234.156476 192.517156 
L 227.82311 193.125327 
Q 224.836846 193.412087 225.123607 196.39835 
L 226.048708 206.03216 
Q 226.335468 209.018423 229.321731 208.731663 
z
" clip-path="url(#p3206679a63)" style="fill: #ffffff; stroke: #ffffff; stroke-linejoin: miter"/>
    </g>
    <g clip-path="url(#p3206679a63)">
     <!-- 5 -->
     <g transform="translate(228.83618 203.675235) rotate(-5.485094) scale(0.1 -0.1)">
      <use xlink:href="#DejaVuSans-35"/>
     </g>
    </g>
   </g>
   <g id="text_19">
    <g id="patch_21">
     <path d="M 224.685297 191.953622 
L 230.662181 189.772278 
Q 233.480358 188.743746 232.451826 185.925569 
L 229.13374 176.834012 
Q 228.105208 174.015835 225.287031 175.044366 
L 219.310147 177.225711 
Q 216.491969 178.254243 217.520501 181.07242 
L 220.838588 190.163977 
Q 221.86712 192.982154 224.685297 191.953622 
z
" clip-path="url(#p3206679a63)" style="fill: #ffffff; stroke: #ffffff; stroke-linejoin: miter"/>
    </g>
    <g clip-path="url(#p3206679a63)">
     <!-- 7 -->
     <g transform="translate(222.943757 187.181802) rotate(-20.050237) scale(0.1 -0.1)">
      <use xlink:href="#DejaVuSans-37"/>
     </g>
    </g>
   </g>
   <g id="text_20">
    <g id="patch_22">
     <path d="M 303.016046 181.450557 
L 312.264469 190.190826 
Q 314.444844 192.2514 316.505418 190.071025 
L 323.152916 183.037045 
Q 325.21349 180.85667 323.033115 178.796096 
L 313.784692 170.055827 
Q 311.604317 167.995253 309.543743 170.175628 
L 302.896245 177.209608 
Q 300.835671 179.389983 303.016046 181.450557 
z
" clip-path="url(#p3206679a63)" style="fill: #ffffff; stroke: #ffffff; stroke-linejoin: miter"/>
    </g>
    <g clip-path="url(#p3206679a63)">
     <!-- 14 -->
     <g transform="translate(306.50507 177.758683) rotate(-316.618095) scale(0.1 -0.1)">
      <use xlink:href="#DejaVuSans-31"/>
      <use xlink:href="#DejaVuSans-34" x="63.623047"/>
     </g>
    </g>
   </g>
   <g id="text_21">
    <g id="patch_23">
     <path d="M 425.95453 365.749058 
L 433.581338 355.562919 
Q 435.379406 353.161472 432.977959 351.363403 
L 425.23079 345.562759 
Q 422.829342 343.76469 421.031274 346.166138 
L 413.404466 356.352277 
Q 411.606398 358.753724 414.007845 360.551793 
L 421.755014 366.352437 
Q 424.156461 368.150506 425.95453 365.749058 
z
" clip-path="url(#p3206679a63)" style="fill: #ffffff; stroke: #ffffff; stroke-linejoin: miter"/>
    </g>
    <g clip-path="url(#p3206679a63)">
     <!-- 18 -->
     <g transform="translate(421.888329 362.704516) rotate(-53.176197) scale(0.1 -0.1)">
      <use xlink:href="#DejaVuSans-31"/>
      <use xlink:href="#DejaVuSans-38" x="63.623047"/>
     </g>
    </g>
   </g>
   <g id="text_22">
    <g id="patch_24">
     <path d="M 330.855146 281.5857 
L 333.189914 287.504337 
Q 334.290787 290.29505 337.0815 289.194177 
L 346.084457 285.642715 
Q 348.875169 284.541842 347.774297 281.751129 
L 345.439528 275.832492 
Q 344.338655 273.041779 341.547943 274.142652 
L 332.544986 277.694114 
Q 329.754273 278.794987 330.855146 281.5857 
z
" clip-path="url(#p3206679a63)" style="fill: #ffffff; stroke: #ffffff; stroke-linejoin: miter"/>
    </g>
    <g clip-path="url(#p3206679a63)">
     <!-- 6 -->
     <g transform="translate(335.580463 279.72167) rotate(-291.52811) scale(0.1 -0.1)">
      <defs>
       <path id="DejaVuSans-36" d="M 2113 2584 
Q 1688 2584 1439 2293 
Q 1191 2003 1191 1497 
Q 1191 994 1439 701 
Q 1688 409 2113 409 
Q 2538 409 2786 701 
Q 3034 994 3034 1497 
Q 3034 2003 2786 2293 
Q 2538 2584 2113 2584 
z
M 3366 4563 
L 3366 3988 
Q 3128 4100 2886 4159 
Q 2644 4219 2406 4219 
Q 1781 4219 1451 3797 
Q 1122 3375 1075 2522 
Q 1259 2794 1537 2939 
Q 1816 3084 2150 3084 
Q 2853 3084 3261 2657 
Q 3669 2231 3669 1497 
Q 3669 778 3244 343 
Q 2819 -91 2113 -91 
Q 1303 -91 875 529 
Q 447 1150 447 2328 
Q 447 3434 972 4092 
Q 1497 4750 2381 4750 
Q 2619 4750 2861 4703 
Q 3103 4656 3366 4563 
z
" transform="scale(0.015625)"/>
      </defs>
      <use xlink:href="#DejaVuSans-36"/>
     </g>
    </g>
   </g>
   <g id="matplotlib.axis_1">
    <g id="xtick_1">
     <g id="line2d_1">
      <path d="M 10.8 493.2 
L 10.8 10.8 
" clip-path="url(#p3206679a63)" style="fill: none; stroke: #b0b0b0; stroke-opacity: 0.3; stroke-width: 0.8; stroke-linecap: square"/>
     </g>
    </g>
    <g id="xtick_2">
     <g id="line2d_2">
      <path d="M 59.04 493.2 
L 59.04 10.8 
" clip-path="url(#p3206679a63)" style="fill: none; stroke: #b0b0b0; stroke-opacity: 0.3; stroke-width: 0.8; stroke-linecap: square"/>
     </g>
    </g>
    <g id="xtick_3">
     <g id="line2d_3">
      <path d="M 107.28 493.2 
L 107.28 10.8 
" clip-path="url(#p3206679a63)" style="fill: none; stroke: #b0b0b0; stroke-opacity: 0.3; stroke-width: 0.8; stroke-linecap: square"/>
     </g>
    </g>
    <g id="xtick_4">
     <g id="line2d_4">
      <path d="M 155.52 493.2 
L 155.52 10.8 
" clip-path="url(#p3206679a63)" style="fill: none; stroke: #b0b0b0; stroke-opacity: 0.3; stroke-width: 0.8; stroke-linecap: square"/>
     </g>
    </g>
    <g id="xtick_5">
     <g id="line2d_5">
      <path d="M 203.76 493.2 
L 203.76 10.8 
" clip-path="url(#p3206679a63)" style="fill: none; stroke: #b0b0b0; stroke-opacity: 0.3; stroke-width: 0.8; stroke-linecap: square"/>
     </g>
    </g>
    <g id="xtick_6">
     <g id="line2d_6">
      <path d="M 252 493.2 
L 252 10.8 
" clip-path="url(#p3206679a63)" style="fill: none; stroke: #b0b0b0; stroke-opacity: 0.3; stroke-width: 0.8; stroke-linecap: square"/>
     </g>
    </g>
    <g id="xtick_7">
     <g id="line2d_7">
      <path d="M 300.24 493.2 
L 300.24 10.8 
" clip-path="url(#p3206679a63)" style="fill: none; stroke: #b0b0b0; stroke-opacity: 0.3; stroke-width: 0.8; stroke-linecap: square"/>
     </g>
    </g>
    <g id="xtick_8">
     <g id="line2d_8">
      <path d="M 348.48 493.2 
L 348.48 10.8 
" clip-path="url(#p3206679a63)" style="fill: none; stroke: #b0b0b0; stroke-opacity: 0.3; stroke-width: 0.8; stroke-linecap: square"/>
     </g>
    </g>
    <g id="xtick_9">
     <g id="line2d_9">
      <path d="M 396.72 493.2 
L 396.72 10.8 
" clip-path="url(#p3206679a63)" style="fill: none; stroke: #b0b0b0; stroke-opacity: 0.3; stroke-width: 0.8; stroke-linecap: square"/>
     </g>
    </g>
    <g id="xtick_10">
     <g id="line2d_10">
      <path d="M 444.96 493.2 
L 444.96 10.8 
" clip-path="url(#p3206679a63)" style="fill: none; stroke: #b0b0b0; stroke-opacity: 0.3; stroke-width: 0.8; stroke-linecap: square"/>
     </g>
    </g>
    <g id="xtick_11">
     <g id="line2d_11">
      <path d="M 493.2 493.2 
L 493.2 10.8 
" clip-path="url(#p3206679a63)" style="fill: none; stroke: #b0b0b0; stroke-opacity: 0.3; stroke-width: 0.8; stroke-linecap: square"/>
     </g>
    </g>
   </g>
   <g id="matplotlib.axis_2">
    <g id="ytick_1">
     <g id="line2d_12">
      <path d="M 10.8 493.2 
L 493.2 493.2 
" clip-path="url(#p3206679a63)" style="fill: none; stroke: #b0b0b0; stroke-opacity: 0.3; stroke-width: 0.8; stroke-linecap: square"/>
     </g>
    </g>
    <g id="ytick_2">
     <g id="line2d_13">
      <path d="M 10.8 444.96 
L 493.2 444.96 
" clip-path="url(#p3206679a63)" style="fill: none; stroke: #b0b0b0; stroke-opacity: 0.3; stroke-width: 0.8; stroke-linecap: square"/>
     </g>
    </g>
    <g id="ytick_3">
     <g id="line2d_14">
      <path d="M 10.8 396.72 
L 493.2 396.72 
" clip-path="url(#p3206679a63)" style="fill: none; stroke: #b0b0b0; stroke-opacity: 0.3; stroke-width: 0.8; stroke-linecap: square"/>
     </g>
    </g>
    <g id="ytick_4">
     <g id="line2d_15">
      <path d="M 10.8 348.48 
L 493.2 348.48 
" clip-path="url(#p3206679a63)" style="fill: none; stroke: #b0b0b0; stroke-opacity: 0.3; stroke-width: 0.8; stroke-linecap: square"/>
     </g>
    </g>
    <g id="ytick_5">
     <g id="line2d_16">
      <path d="M 10.8 300.24 
L 493.2 300.24 
" clip-path="url(#p3206679a63)" style="fill: none; stroke: #b0b0b0; stroke-opacity: 0.3; stroke-width: 0.8; stroke-linecap: square"/>
     </g>
    </g>
    <g id="ytick_6">
     <g id="line2d_17">
      <path d="M 10.8 252 
L 493.2 252 
" clip-path="url(#p3206679a63)" style="fill: none; stroke: #b0b0b0; stroke-opacity: 0.3; stroke-width: 0.8; stroke-linecap: square"/>
     </g>
    </g>
    <g id="ytick_7">
     <g id="line2d_18">
      <path d="M 10.8 203.76 
L 493.2 203.76 
" clip-path="url(#p3206679a63)" style="fill: none; stroke: #b0b0b0; stroke-opacity: 0.3; stroke-width: 0.8; stroke-linecap: square"/>
     </g>
    </g>
    <g id="ytick_8">
     <g id="line2d_19">
      <path d="M 10.8 155.52 
L 493.2 155.52 
" clip-path="url(#p3206679a63)" style="fill: none; stroke: #b0b0b0; stroke-opacity: 0.3; stroke-width: 0.8; stroke-linecap: square"/>
     </g>
    </g>
    <g id="ytick_9">
     <g id="line2d_20">
      <path d="M 10.8 107.28 
L 493.2 107.28 
" clip-path="url(#p3206679a63)" style="fill: none; stroke: #b0b0b0; stroke-opacity: 0.3; stroke-width: 0.8; stroke-linecap: square"/>
     </g>
    </g>
    <g id="ytick_10">
     <g id="line2d_21">
      <path d="M 10.8 59.04 
L 493.2 59.04 
" clip-path="url(#p3206679a63)" style="fill: none; stroke: #b0b0b0; stroke-opacity: 0.3; stroke-width: 0.8; stroke-linecap: square"/>
     </g>
    </g>
    <g id="ytick_11">
     <g id="line2d_22">
      <path d="M 10.8 10.8 
L 493.2 10.8 
" clip-path="url(#p3206679a63)" style="fill: none; stroke: #b0b0b0; stroke-opacity: 0.3; stroke-width: 0.8; stroke-linecap: square"/>
     </g>
    </g>
   </g>
   <g id="PathCollection_1">
    <defs>
     <path id="m8add0573dc" d="M 0 8.660254 
C 2.296726 8.660254 4.499694 7.747755 6.123724 6.123724 
C 7.747755 4.499694 8.660254 2.296726 8.660254 0 
C 8.660254 -2.296726 7.747755 -4.499694 6.123724 -6.123724 
C 4.499694 -7.747755 2.296726 -8.660254 0 -8.660254 
C -2.296726 -8.660254 -4.499694 -7.747755 -6.123724 -6.123724 
C -7.747755 -4.499694 -8.660254 -2.296726 -8.660254 0 
C -8.660254 2.296726 -7.747755 4.499694 -6.123724 6.123724 
C -4.499694 7.747755 -2.296726 8.660254 0 8.660254 
z
" style="stroke: #1f78b4"/>
    </defs>
    <g clip-path="url(#p3206679a63)">
     <use xlink:href="#m8add0573dc" x="158.4144" y="27.2016" style="fill: #1f78b4; stroke: #1f78b4"/>
     <use xlink:href="#m8add0573dc" x="493.2" y="170.4744" style="fill: #1f78b4; stroke: #1f78b4"/>
     <use xlink:href="#m8add0573dc" x="248.1408" y="105.3504" style="fill: #1f78b4; stroke: #1f78b4"/>
     <use xlink:href="#m8add0573dc" x="24.3072" y="29.6136" style="fill: #1f78b4; stroke: #1f78b4"/>
     <use xlink:href="#m8add0573dc" x="183.9816" y="142.9776" style="fill: #1f78b4; stroke: #1f78b4"/>
     <use xlink:href="#m8add0573dc" x="453.6432" y="386.5896" style="fill: #1f78b4; stroke: #1f78b4"/>
     <use xlink:href="#m8add0573dc" x="402.9912" y="391.896" style="fill: #1f78b4; stroke: #1f78b4"/>
     <use xlink:href="#m8add0573dc" x="333.5256" y="458.4672" style="fill: #1f78b4; stroke: #1f78b4"/>
     <use xlink:href="#m8add0573dc" x="158.8968" y="207.6192" style="fill: #1f78b4; stroke: #1f78b4"/>
     <use xlink:href="#m8add0573dc" x="334.9728" y="200.8656" style="fill: #1f78b4; stroke: #1f78b4"/>
     <use xlink:href="#m8add0573dc" x="459.432" y="307.9584" style="fill: #1f78b4; stroke: #1f78b4"/>
     <use xlink:href="#m8add0573dc" x="304.5816" y="193.6296" style="fill: #1f78b4; stroke: #1f78b4"/>
     <use xlink:href="#m8add0573dc" x="387.5544" y="403.956" style="fill: #1f78b4; stroke: #1f78b4"/>
     <use xlink:href="#m8add0573dc" x="291.0744" y="159.3792" style="fill: #1f78b4; stroke: #1f78b4"/>
    </g>
   </g>
   <g id="patch_25">
    <path d="M 10.8 493.2 
L 10.8 10.8 
" style="fill: none; stroke: #000000; stroke-width: 0.8; stroke-linejoin: miter; stroke-linecap: square"/>
   </g>
   <g id="patch_26">
    <path d="M 493.2 493.2 
L 493.2 10.8 
" style="fill: none; stroke: #000000; stroke-width: 0.8; stroke-linejoin: miter; stroke-linecap: square"/>
   </g>
   <g id="patch_27">
    <path d="M 10.8 493.2 
L 493.2 493.2 
" style="fill: none; stroke: #000000; stroke-width: 0.8; stroke-linejoin: miter; stroke-linecap: square"/>
   </g>
   <g id="patch_28">
    <path d="M 10.8 10.8 
L 493.2 10.8 
" style="fill: none; stroke: #000000; stroke-width: 0.8; stroke-linejoin: miter; stroke-linecap: square"/>
   </g>
   <g id="text_23">
    <g clip-path="url(#p3206679a63)">
     <!-- 0 -->
     <g transform="translate(154.5969 30.51285) scale(0.12 -0.12)">
      <use xlink:href="#DejaVuSans-30"/>
     </g>
    </g>
   </g>
   <g id="text_24">
    <g clip-path="url(#p3206679a63)">
     <!-- 1 -->
     <g transform="translate(489.3825 173.78565) scale(0.12 -0.12)">
      <use xlink:href="#DejaVuSans-31"/>
     </g>
    </g>
   </g>
   <g id="text_25">
    <g clip-path="url(#p3206679a63)">
     <!-- 2 -->
     <g transform="translate(244.3233 108.66165) scale(0.12 -0.12)">
      <use xlink:href="#DejaVuSans-32"/>
     </g>
    </g>
   </g>
   <g id="text_26">
    <g clip-path="url(#p3206679a63)">
     <!-- 3 -->
     <g transform="translate(20.4897 32.92485) scale(0.12 -0.12)">
      <use xlink:href="#DejaVuSans-33"/>
     </g>
    </g>
   </g>
   <g id="text_27">
    <g clip-path="url(#p3206679a63)">
     <!-- 4 -->
     <g transform="translate(180.1641 146.28885) scale(0.12 -0.12)">
      <use xlink:href="#DejaVuSans-34"/>
     </g>
    </g>
   </g>
   <g id="text_28">
    <g clip-path="url(#p3206679a63)">
     <!-- 5 -->
     <g transform="translate(449.8257 389.90085) scale(0.12 -0.12)">
      <use xlink:href="#DejaVuSans-35"/>
     </g>
    </g>
   </g>
   <g id="text_29">
    <g clip-path="url(#p3206679a63)">
     <!-- 6 -->
     <g transform="translate(399.1737 395.20725) scale(0.12 -0.12)">
      <use xlink:href="#DejaVuSans-36"/>
     </g>
    </g>
   </g>
   <g id="text_30">
    <g clip-path="url(#p3206679a63)">
     <!-- 7 -->
     <g transform="translate(329.7081 461.77845) scale(0.12 -0.12)">
      <use xlink:href="#DejaVuSans-37"/>
     </g>
    </g>
   </g>
   <g id="text_31">
    <g clip-path="url(#p3206679a63)">
     <!-- 8 -->
     <g transform="translate(155.0793 210.93045) scale(0.12 -0.12)">
      <use xlink:href="#DejaVuSans-38"/>
     </g>
    </g>
   </g>
   <g id="text_32">
    <g clip-path="url(#p3206679a63)">
     <!-- 9 -->
     <g transform="translate(331.1553 204.17685) scale(0.12 -0.12)">
      <use xlink:href="#DejaVuSans-39"/>
     </g>
    </g>
   </g>
   <g id="text_33">
    <g clip-path="url(#p3206679a63)">
     <!-- 10 -->
     <g transform="translate(451.797 311.26965) scale(0.12 -0.12)">
      <use xlink:href="#DejaVuSans-31"/>
      <use xlink:href="#DejaVuSans-30" x="63.623047"/>
     </g>
    </g>
   </g>
   <g id="text_34">
    <g clip-path="url(#p3206679a63)">
     <!-- 11 -->
     <g transform="translate(296.9466 196.94085) scale(0.12 -0.12)">
      <use xlink:href="#DejaVuSans-31"/>
      <use xlink:href="#DejaVuSans-31" x="63.623047"/>
     </g>
    </g>
   </g>
   <g id="text_35">
    <g clip-path="url(#p3206679a63)">
     <!-- 12 -->
     <g transform="translate(379.9194 407.26725) scale(0.12 -0.12)">
      <use xlink:href="#DejaVuSans-31"/>
      <use xlink:href="#DejaVuSans-32" x="63.623047"/>
     </g>
    </g>
   </g>
   <g id="text_36">
    <g clip-path="url(#p3206679a63)">
     <!-- 13 -->
     <g transform="translate(283.4394 162.69045) scale(0.12 -0.12)">
      <use xlink:href="#DejaVuSans-31"/>
      <use xlink:href="#DejaVuSans-33" x="63.623047"/>
     </g>
    </g>
   </g>
  </g>
 </g>
 <defs>
  <clipPath id="p3206679a63">
   <rect x="10.8" y="10.8" width="482.4" height="482.4"/>
  </clipPath>
 </defs>
</svg>
