<?xml version="1.0" encoding="utf-8" standalone="no"?>
<!DOCTYPE svg PUBLIC "-//W3C//DTD SVG 1.1//EN"
  "http://www.w3.org/Graphics/SVG/1.1/DTD/svg11.dtd">
<svg xmlns:xlink="http://www.w3.org/1999/xlink" width="504pt" height="504pt" viewBox="0 0 504 504" xmlns="http://www.w3.org/2000/svg" version="1.1">
 <metadata>
  <rdf:RDF xmlns:dc="http://purl.org/dc/elements/1.1/" xmlns:cc="http://creativecommons.org/ns#" xmlns:rdf="http://www.w3.org/1999/02/22-rdf-syntax-ns#">
   <cc:Work>
    <dc:type rdf:resource="http://purl.org/dc/dcmitype/StillImage"/>
    <dc:date>2024-10-29T14:59:39.044996</dc:date>
    <dc:format>image/svg+xml</dc:format>
    <dc:creator>
     <cc:Agent>
      <dc:title>Matplotlib v3.9.2, https://matplotlib.org/</dc:title>
     </cc:Agent>
    </dc:creator>
   </cc:Work>
  </rdf:RDF>
 </metadata>
 <defs>
  <style type="text/css">*{stroke-linejoin: round; stroke-linecap: butt}</style>
 </defs>
 <g id="figure_1">
  <g id="patch_1">
   <path d="M 0 504 
L 504 504 
L 504 0 
L 0 0 
L 0 504 
z
" style="fill: none; opacity: 0"/>
  </g>
  <g id="axes_1">
   <g id="patch_2">
    <path d="M 10.8 493.2 
L 493.2 493.2 
L 493.2 10.8 
L 10.8 10.8 
L 10.8 493.2 
z
" style="fill: none; opacity: 0"/>
   </g>
   <g id="LineCollection_1">
    <path d="M 234.1512 295.416 
L 109.692 282.3912 
" clip-path="url(#p248d2e3181)" style="fill: none; stroke: #000000"/>
    <path d="M 234.1512 295.416 
L 348.48 445.9248 
" clip-path="url(#p248d2e3181)" style="fill: none; stroke: #000000"/>
    <path d="M 234.1512 295.416 
L 91.3608 234.6336 
" clip-path="url(#p248d2e3181)" style="fill: none; stroke: #000000"/>
    <path d="M 234.1512 295.416 
L 416.4984 324.8424 
" clip-path="url(#p248d2e3181)" style="fill: none; stroke: #000000"/>
    <path d="M 234.1512 295.416 
L 361.5048 416.9808 
" clip-path="url(#p248d2e3181)" style="fill: none; stroke: #000000"/>
    <path d="M 234.1512 295.416 
L 480.6576 442.0656 
" clip-path="url(#p248d2e3181)" style="fill: none; stroke: #000000"/>
    <path d="M 178.6752 49.392 
L 480.6576 435.7944 
" clip-path="url(#p248d2e3181)" style="fill: none; stroke: #000000"/>
    <path d="M 178.6752 49.392 
L 361.5048 416.9808 
" clip-path="url(#p248d2e3181)" style="fill: none; stroke: #000000"/>
    <path d="M 178.6752 49.392 
L 480.6576 442.0656 
" clip-path="url(#p248d2e3181)" style="fill: none; stroke: #000000"/>
    <path d="M 178.6752 49.392 
L 348.48 445.9248 
" clip-path="url(#p248d2e3181)" style="fill: none; stroke: #000000"/>
    <path d="M 178.6752 49.392 
L 335.9376 29.1312 
" clip-path="url(#p248d2e3181)" style="fill: none; stroke: #000000"/>
    <path d="M 421.3224 153.5904 
L 480.6576 435.7944 
" clip-path="url(#p248d2e3181)" style="fill: none; stroke: #000000"/>
    <path d="M 421.3224 153.5904 
L 416.4984 324.8424 
" clip-path="url(#p248d2e3181)" style="fill: none; stroke: #000000"/>
    <path d="M 421.3224 153.5904 
L 76.8888 264.5424 
" clip-path="url(#p248d2e3181)" style="fill: none; stroke: #000000"/>
    <path d="M 421.3224 153.5904 
L 36.3672 461.844 
" clip-path="url(#p248d2e3181)" style="fill: none; stroke: #000000"/>
    <path d="M 421.3224 153.5904 
L 109.692 282.3912 
" clip-path="url(#p248d2e3181)" style="fill: none; stroke: #000000"/>
    <path d="M 421.3224 153.5904 
L 480.6576 442.0656 
" clip-path="url(#p248d2e3181)" style="fill: none; stroke: #000000"/>
    <path d="M 175.7808 72.0648 
L 429.0408 143.46 
" clip-path="url(#p248d2e3181)" style="fill: none; stroke: #000000"/>
    <path d="M 175.7808 72.0648 
L 480.6576 435.7944 
" clip-path="url(#p248d2e3181)" style="fill: none; stroke: #000000"/>
    <path d="M 175.7808 72.0648 
L 335.9376 29.1312 
" clip-path="url(#p248d2e3181)" style="fill: none; stroke: #000000"/>
    <path d="M 175.7808 72.0648 
L 91.3608 234.6336 
" clip-path="url(#p248d2e3181)" style="fill: none; stroke: #000000"/>
    <path d="M 175.7808 72.0648 
L 36.3672 461.844 
" clip-path="url(#p248d2e3181)" style="fill: none; stroke: #000000"/>
    <path d="M 175.7808 72.0648 
L 348.48 445.9248 
" clip-path="url(#p248d2e3181)" style="fill: none; stroke: #000000"/>
    <path d="M 175.7808 72.0648 
L 480.6576 442.0656 
" clip-path="url(#p248d2e3181)" style="fill: none; stroke: #000000"/>
    <path d="M 335.9376 29.1312 
L 36.3672 461.844 
" clip-path="url(#p248d2e3181)" style="fill: none; stroke: #000000"/>
    <path d="M 335.9376 29.1312 
L 429.0408 143.46 
" clip-path="url(#p248d2e3181)" style="fill: none; stroke: #000000"/>
    <path d="M 335.9376 29.1312 
L 480.6576 442.0656 
" clip-path="url(#p248d2e3181)" style="fill: none; stroke: #000000"/>
    <path d="M 335.9376 29.1312 
L 348.48 445.9248 
" clip-path="url(#p248d2e3181)" style="fill: none; stroke: #000000"/>
    <path d="M 335.9376 29.1312 
L 109.692 282.3912 
" clip-path="url(#p248d2e3181)" style="fill: none; stroke: #000000"/>
    <path d="M 335.9376 29.1312 
L 361.5048 416.9808 
" clip-path="url(#p248d2e3181)" style="fill: none; stroke: #000000"/>
    <path d="M 91.3608 234.6336 
L 429.0408 143.46 
" clip-path="url(#p248d2e3181)" style="fill: none; stroke: #000000"/>
    <path d="M 91.3608 234.6336 
L 76.8888 264.5424 
" clip-path="url(#p248d2e3181)" style="fill: none; stroke: #000000"/>
    <path d="M 91.3608 234.6336 
L 480.6576 442.0656 
" clip-path="url(#p248d2e3181)" style="fill: none; stroke: #000000"/>
    <path d="M 91.3608 234.6336 
L 348.48 445.9248 
" clip-path="url(#p248d2e3181)" style="fill: none; stroke: #000000"/>
    <path d="M 348.48 445.9248 
L 429.0408 143.46 
" clip-path="url(#p248d2e3181)" style="fill: none; stroke: #000000"/>
    <path d="M 348.48 445.9248 
L 109.692 282.3912 
" clip-path="url(#p248d2e3181)" style="fill: none; stroke: #000000"/>
    <path d="M 361.5048 416.9808 
L 76.8888 264.5424 
" clip-path="url(#p248d2e3181)" style="fill: none; stroke: #000000"/>
    <path d="M 361.5048 416.9808 
L 429.0408 143.46 
" clip-path="url(#p248d2e3181)" style="fill: none; stroke: #000000"/>
    <path d="M 361.5048 416.9808 
L 416.4984 324.8424 
" clip-path="url(#p248d2e3181)" style="fill: none; stroke: #000000"/>
    <path d="M 361.5048 416.9808 
L 480.6576 435.7944 
" clip-path="url(#p248d2e3181)" style="fill: none; stroke: #000000"/>
    <path d="M 361.5048 416.9808 
L 36.3672 461.844 
" clip-path="url(#p248d2e3181)" style="fill: none; stroke: #000000"/>
    <path d="M 36.3672 461.844 
L 109.692 282.3912 
" clip-path="url(#p248d2e3181)" style="fill: none; stroke: #000000"/>
    <path d="M 36.3672 461.844 
L 480.6576 442.0656 
" clip-path="url(#p248d2e3181)" style="fill: none; stroke: #000000"/>
    <path d="M 36.3672 461.844 
L 429.0408 143.46 
" clip-path="url(#p248d2e3181)" style="fill: none; stroke: #000000"/>
    <path d="M 109.692 282.3912 
L 480.6576 442.0656 
" clip-path="url(#p248d2e3181)" style="fill: none; stroke: #000000"/>
    <path d="M 109.692 282.3912 
L 429.0408 143.46 
" clip-path="url(#p248d2e3181)" style="fill: none; stroke: #000000"/>
    <path d="M 109.692 282.3912 
L 480.6576 435.7944 
" clip-path="url(#p248d2e3181)" style="fill: none; stroke: #000000"/>
    <path d="M 109.692 282.3912 
L 76.8888 264.5424 
" clip-path="url(#p248d2e3181)" style="fill: none; stroke: #000000"/>
    <path d="M 480.6576 442.0656 
L 480.6576 435.7944 
" clip-path="url(#p248d2e3181)" style="fill: none; stroke: #000000"/>
    <path d="M 480.6576 442.0656 
L 76.8888 264.5424 
" clip-path="url(#p248d2e3181)" style="fill: none; stroke: #000000"/>
    <path d="M 76.8888 264.5424 
L 429.0408 143.46 
" clip-path="url(#p248d2e3181)" style="fill: none; stroke: #000000"/>
    <path d="M 480.6576 435.7944 
L 416.4984 324.8424 
" clip-path="url(#p248d2e3181)" style="fill: none; stroke: #000000"/>
   </g>
   <g id="text_1">
    <g id="patch_3">
     <path d="M 164.780405 296.038137 
L 177.436291 297.362591 
Q 180.419997 297.674839 180.732245 294.691133 
L 181.739571 285.065573 
Q 182.051819 282.081867 179.068113 281.769619 
L 166.412227 280.445166 
Q 163.428521 280.132918 163.116273 283.116624 
L 162.108947 292.742183 
Q 161.796699 295.725889 164.780405 296.038137 
z
" clip-path="url(#p248d2e3181)" style="fill: #ffffff; stroke: #ffffff; stroke-linejoin: miter"/>
    </g>
    <g clip-path="url(#p248d2e3181)">
     <!-- 12 -->
     <g transform="translate(165.309113 290.98604) rotate(-354.025677) scale(0.1 -0.1)">
      <defs>
       <path id="DejaVuSans-31" d="M 794 531 
L 1825 531 
L 1825 4091 
L 703 3866 
L 703 4441 
L 1819 4666 
L 2450 4666 
L 2450 531 
L 3481 531 
L 3481 0 
L 794 0 
L 794 531 
z
" transform="scale(0.015625)"/>
       <path id="DejaVuSans-32" d="M 1228 531 
L 3431 531 
L 3431 0 
L 469 0 
L 469 531 
Q 828 903 1448 1529 
Q 2069 2156 2228 2338 
Q 2531 2678 2651 2914 
Q 2772 3150 2772 3378 
Q 2772 3750 2511 3984 
Q 2250 4219 1831 4219 
Q 1534 4219 1204 4116 
Q 875 4013 500 3803 
L 500 4441 
Q 881 4594 1212 4672 
Q 1544 4750 1819 4750 
Q 2544 4750 2975 4387 
Q 3406 4025 3406 3419 
Q 3406 3131 3298 2873 
Q 3191 2616 2906 2266 
Q 2828 2175 2409 1742 
Q 1991 1309 1228 531 
z
" transform="scale(0.015625)"/>
      </defs>
      <use xlink:href="#DejaVuSans-31"/>
      <use xlink:href="#DejaVuSans-32" x="63.623047"/>
     </g>
    </g>
   </g>
   <g id="text_2">
    <g id="patch_4">
     <path d="M 281.224848 370.345875 
L 288.922062 380.478916 
Q 290.736729 382.867846 293.125658 381.053178 
L 300.832443 375.198986 
Q 303.221372 373.384318 301.406705 370.995389 
L 293.709491 360.862348 
Q 291.894824 358.473419 289.505895 360.288086 
L 281.79911 366.142279 
Q 279.410181 367.956946 281.224848 370.345875 
z
" clip-path="url(#p248d2e3181)" style="fill: #ffffff; stroke: #ffffff; stroke-linejoin: miter"/>
    </g>
    <g clip-path="url(#p248d2e3181)">
     <!-- 12 -->
     <g transform="translate(285.269852 367.273228) rotate(-307.220863) scale(0.1 -0.1)">
      <use xlink:href="#DejaVuSans-31"/>
      <use xlink:href="#DejaVuSans-32" x="63.623047"/>
     </g>
    </g>
   </g>
   <g id="text_3">
    <g id="patch_5">
     <path d="M 153.831261 269.745485 
L 165.539623 274.72945 
Q 168.299944 275.904451 169.474945 273.144131 
L 173.265549 264.23922 
Q 174.44055 261.478899 171.680229 260.303898 
L 159.971868 255.319933 
Q 157.211547 254.144932 156.036546 256.905253 
L 152.245942 265.810163 
Q 151.070941 268.570484 153.831261 269.745485 
z
" clip-path="url(#p248d2e3181)" style="fill: #ffffff; stroke: #ffffff; stroke-linejoin: miter"/>
    </g>
    <g clip-path="url(#p248d2e3181)">
     <!-- 20 -->
     <g transform="translate(155.820808 265.07163) rotate(-336.941725) scale(0.1 -0.1)">
      <defs>
       <path id="DejaVuSans-30" d="M 2034 4250 
Q 1547 4250 1301 3770 
Q 1056 3291 1056 2328 
Q 1056 1369 1301 889 
Q 1547 409 2034 409 
Q 2525 409 2770 889 
Q 3016 1369 3016 2328 
Q 3016 3291 2770 3770 
Q 2525 4250 2034 4250 
z
M 2034 4750 
Q 2819 4750 3233 4129 
Q 3647 3509 3647 2328 
Q 3647 1150 3233 529 
Q 2819 -91 2034 -91 
Q 1250 -91 836 529 
Q 422 1150 422 2328 
Q 422 3509 836 4129 
Q 1250 4750 2034 4750 
z
" transform="scale(0.015625)"/>
      </defs>
      <use xlink:href="#DejaVuSans-32"/>
      <use xlink:href="#DejaVuSans-30" x="63.623047"/>
     </g>
    </g>
   </g>
   <g id="text_4">
    <g id="patch_6">
     <path d="M 320.936873 317.361575 
L 327.21811 318.375214 
Q 330.179794 318.853157 330.657738 315.891474 
L 332.199604 306.336959 
Q 332.677547 303.375275 329.715864 302.897332 
L 323.434626 301.883693 
Q 320.472943 301.405749 319.994999 304.367433 
L 318.453133 313.921947 
Q 317.975189 316.883631 320.936873 317.361575 
z
" clip-path="url(#p248d2e3181)" style="fill: #ffffff; stroke: #ffffff; stroke-linejoin: miter"/>
    </g>
    <g clip-path="url(#p248d2e3181)">
     <!-- 5 -->
     <g transform="translate(321.746141 312.346766) rotate(-350.832887) scale(0.1 -0.1)">
      <defs>
       <path id="DejaVuSans-35" d="M 691 4666 
L 3169 4666 
L 3169 4134 
L 1269 4134 
L 1269 2991 
Q 1406 3038 1543 3061 
Q 1681 3084 1819 3084 
Q 2600 3084 3056 2656 
Q 3513 2228 3513 1497 
Q 3513 744 3044 326 
Q 2575 -91 1722 -91 
Q 1428 -91 1123 -41 
Q 819 9 494 109 
L 494 744 
Q 775 591 1075 516 
Q 1375 441 1709 441 
Q 2250 441 2565 725 
Q 2881 1009 2881 1497 
Q 2881 1984 2565 2268 
Q 2250 2553 1709 2553 
Q 1456 2553 1204 2497 
Q 953 2441 691 2322 
L 691 4666 
z
" transform="scale(0.015625)"/>
      </defs>
      <use xlink:href="#DejaVuSans-35"/>
     </g>
    </g>
   </g>
   <g id="text_5">
    <g id="patch_7">
     <path d="M 290.112944 359.671109 
L 294.715294 364.064261 
Q 296.88536 366.135688 298.956787 363.965622 
L 305.639298 356.964896 
Q 307.710725 354.79483 305.540659 352.723402 
L 300.938309 348.33025 
Q 298.768242 346.258823 296.696815 348.42889 
L 290.014305 355.429615 
Q 287.942877 357.599682 290.112944 359.671109 
z
" clip-path="url(#p248d2e3181)" style="fill: #ffffff; stroke: #ffffff; stroke-linejoin: miter"/>
    </g>
    <g clip-path="url(#p248d2e3181)">
     <!-- 8 -->
     <g transform="translate(293.620345 355.996689) rotate(-316.33222) scale(0.1 -0.1)">
      <defs>
       <path id="DejaVuSans-38" d="M 2034 2216 
Q 1584 2216 1326 1975 
Q 1069 1734 1069 1313 
Q 1069 891 1326 650 
Q 1584 409 2034 409 
Q 2484 409 2743 651 
Q 3003 894 3003 1313 
Q 3003 1734 2745 1975 
Q 2488 2216 2034 2216 
z
M 1403 2484 
Q 997 2584 770 2862 
Q 544 3141 544 3541 
Q 544 4100 942 4425 
Q 1341 4750 2034 4750 
Q 2731 4750 3128 4425 
Q 3525 4100 3525 3541 
Q 3525 3141 3298 2862 
Q 3072 2584 2669 2484 
Q 3125 2378 3379 2068 
Q 3634 1759 3634 1313 
Q 3634 634 3220 271 
Q 2806 -91 2034 -91 
Q 1263 -91 848 271 
Q 434 634 434 1313 
Q 434 1759 690 2068 
Q 947 2378 1403 2484 
z
M 1172 3481 
Q 1172 3119 1398 2916 
Q 1625 2713 2034 2713 
Q 2441 2713 2670 2916 
Q 2900 3119 2900 3481 
Q 2900 3844 2670 4047 
Q 2441 4250 2034 4250 
Q 1625 4250 1398 4047 
Q 1172 3844 1172 3481 
z
" transform="scale(0.015625)"/>
      </defs>
      <use xlink:href="#DejaVuSans-38"/>
     </g>
    </g>
   </g>
   <g id="text_6">
    <g id="patch_8">
     <path d="M 350.66176 373.850905 
L 356.129795 377.103904 
Q 358.708043 378.637735 360.241873 376.059487 
L 365.190075 367.741951 
Q 366.723905 365.163703 364.145657 363.629872 
L 358.677623 360.376873 
Q 356.099374 358.843042 354.565544 361.42129 
L 349.617342 369.738827 
Q 348.083512 372.317075 350.66176 373.850905 
z
" clip-path="url(#p248d2e3181)" style="fill: #ffffff; stroke: #ffffff; stroke-linejoin: miter"/>
    </g>
    <g clip-path="url(#p248d2e3181)">
     <!-- 4 -->
     <g transform="translate(353.258887 369.48534) rotate(-329.251081) scale(0.1 -0.1)">
      <defs>
       <path id="DejaVuSans-34" d="M 2419 4116 
L 825 1625 
L 2419 1625 
L 2419 4116 
z
M 2253 4666 
L 3047 4666 
L 3047 1625 
L 3713 1625 
L 3713 1100 
L 3047 1100 
L 3047 0 
L 2419 0 
L 2419 1100 
L 313 1100 
L 313 1709 
L 2253 4666 
z
" transform="scale(0.015625)"/>
      </defs>
      <use xlink:href="#DejaVuSans-34"/>
     </g>
    </g>
   </g>
   <g id="text_7">
    <g id="patch_9">
     <path d="M 321.530477 244.913203 
L 325.448362 249.926344 
Q 327.295695 252.290104 329.659455 250.442771 
L 337.285043 244.483198 
Q 339.648803 242.635865 337.80147 240.272105 
L 333.883584 235.258964 
Q 332.036251 232.895204 329.672491 234.742537 
L 322.046904 240.70211 
Q 319.683144 242.549443 321.530477 244.913203 
z
" clip-path="url(#p248d2e3181)" style="fill: #ffffff; stroke: #ffffff; stroke-linejoin: miter"/>
    </g>
    <g clip-path="url(#p248d2e3181)">
     <!-- 1 -->
     <g transform="translate(325.532864 241.785245) rotate(-308.008448) scale(0.1 -0.1)">
      <use xlink:href="#DejaVuSans-31"/>
     </g>
    </g>
   </g>
   <g id="text_8">
    <g id="patch_10">
     <path d="M 261.654179 233.82844 
L 264.487607 239.525201 
Q 265.823605 242.211297 268.509701 240.875299 
L 277.175157 236.565315 
Q 279.861253 235.229317 278.525255 232.543222 
L 275.691827 226.84646 
Q 274.355829 224.160365 271.669733 225.496362 
L 263.004277 229.806347 
Q 260.318181 231.142344 261.654179 233.82844 
z
" clip-path="url(#p248d2e3181)" style="fill: #ffffff; stroke: #ffffff; stroke-linejoin: miter"/>
    </g>
    <g clip-path="url(#p248d2e3181)">
     <!-- 9 -->
     <g transform="translate(266.202354 231.56629) rotate(-296.444619) scale(0.1 -0.1)">
      <defs>
       <path id="DejaVuSans-39" d="M 703 97 
L 703 672 
Q 941 559 1184 500 
Q 1428 441 1663 441 
Q 2288 441 2617 861 
Q 2947 1281 2994 2138 
Q 2813 1869 2534 1725 
Q 2256 1581 1919 1581 
Q 1219 1581 811 2004 
Q 403 2428 403 3163 
Q 403 3881 828 4315 
Q 1253 4750 1959 4750 
Q 2769 4750 3195 4129 
Q 3622 3509 3622 2328 
Q 3622 1225 3098 567 
Q 2575 -91 1691 -91 
Q 1453 -91 1209 -44 
Q 966 3 703 97 
z
M 1959 2075 
Q 2384 2075 2632 2365 
Q 2881 2656 2881 3163 
Q 2881 3666 2632 3958 
Q 2384 4250 1959 4250 
Q 1534 4250 1286 3958 
Q 1038 3666 1038 3163 
Q 1038 2656 1286 2365 
Q 1534 2075 1959 2075 
z
" transform="scale(0.015625)"/>
      </defs>
      <use xlink:href="#DejaVuSans-39"/>
     </g>
    </g>
   </g>
   <g id="text_9">
    <g id="patch_11">
     <path d="M 319.57231 245.462262 
L 327.329682 255.549324 
Q 329.158532 257.927413 331.536621 256.098563 
L 339.208436 250.198617 
Q 341.586525 248.369767 339.757675 245.991678 
L 332.000303 235.904616 
Q 330.171454 233.526527 327.793364 235.355377 
L 320.12155 241.255323 
Q 317.74346 243.084173 319.57231 245.462262 
z
" clip-path="url(#p248d2e3181)" style="fill: #ffffff; stroke: #ffffff; stroke-linejoin: miter"/>
    </g>
    <g clip-path="url(#p248d2e3181)">
     <!-- 14 -->
     <g transform="translate(323.59896 242.3656) rotate(-307.561788) scale(0.1 -0.1)">
      <use xlink:href="#DejaVuSans-31"/>
      <use xlink:href="#DejaVuSans-34" x="63.623047"/>
     </g>
    </g>
   </g>
   <g id="text_10">
    <g id="patch_12">
     <path d="M 255.119094 247.819686 
L 257.623688 253.668482 
Q 258.804636 256.426264 261.562418 255.245316 
L 270.459137 251.435529 
Q 273.216919 250.254581 272.035971 247.496799 
L 269.531377 241.648003 
Q 268.350429 238.890221 265.592647 240.071169 
L 256.695928 243.880956 
Q 253.938146 245.061904 255.119094 247.819686 
z
" clip-path="url(#p248d2e3181)" style="fill: #ffffff; stroke: #ffffff; stroke-linejoin: miter"/>
    </g>
    <g clip-path="url(#p248d2e3181)">
     <!-- 7 -->
     <g transform="translate(259.788651 245.820071) rotate(-293.181764) scale(0.1 -0.1)">
      <defs>
       <path id="DejaVuSans-37" d="M 525 4666 
L 3525 4666 
L 3525 4397 
L 1831 0 
L 1172 0 
L 2766 4134 
L 525 4134 
L 525 4666 
z
" transform="scale(0.015625)"/>
      </defs>
      <use xlink:href="#DejaVuSans-37"/>
     </g>
    </g>
   </g>
   <g id="text_11">
    <g id="patch_13">
     <path d="M 251.996157 47.849594 
L 264.616847 46.223615 
Q 267.592256 45.840281 267.208921 42.864872 
L 265.972267 33.266081 
Q 265.588932 30.290673 262.613524 30.674008 
L 249.992834 32.299986 
Q 247.017425 32.683321 247.40076 35.658729 
L 248.637414 45.257521 
Q 249.020749 48.232929 251.996157 47.849594 
z
" clip-path="url(#p248d2e3181)" style="fill: #ffffff; stroke: #ffffff; stroke-linejoin: miter"/>
    </g>
    <g clip-path="url(#p248d2e3181)">
     <!-- 12 -->
     <g transform="translate(251.347084 42.811546) rotate(-7.341226) scale(0.1 -0.1)">
      <use xlink:href="#DejaVuSans-31"/>
      <use xlink:href="#DejaVuSans-32" x="63.623047"/>
     </g>
    </g>
   </g>
   <g id="text_12">
    <g id="patch_14">
     <path d="M 442.009972 290.081053 
L 444.628237 302.533776 
Q 445.24551 305.469585 448.181319 304.852312 
L 457.652361 302.860965 
Q 460.58817 302.243692 459.970897 299.307883 
L 457.352632 286.85516 
Q 456.73536 283.919351 453.799551 284.536624 
L 444.328509 286.527971 
Q 441.3927 287.145244 442.009972 290.081053 
z
" clip-path="url(#p248d2e3181)" style="fill: #ffffff; stroke: #ffffff; stroke-linejoin: miter"/>
    </g>
    <g clip-path="url(#p248d2e3181)">
     <!-- 20 -->
     <g transform="translate(446.98097 289.035868) rotate(-281.873849) scale(0.1 -0.1)">
      <use xlink:href="#DejaVuSans-32"/>
      <use xlink:href="#DejaVuSans-30" x="63.623047"/>
     </g>
    </g>
   </g>
   <g id="text_13">
    <g id="patch_15">
     <path d="M 426.567221 245.796361 
L 426.92553 233.076406 
Q 427.010003 230.077596 424.011193 229.993122 
L 414.336905 229.720607 
Q 411.338095 229.636134 411.253621 232.634944 
L 410.895313 245.354898 
Q 410.810839 248.353709 413.809649 248.438182 
L 423.483937 248.710698 
Q 426.482747 248.795171 426.567221 245.796361 
z
" clip-path="url(#p248d2e3181)" style="fill: #ffffff; stroke: #ffffff; stroke-linejoin: miter"/>
    </g>
    <g clip-path="url(#p248d2e3181)">
     <!-- 13 -->
     <g transform="translate(421.489548 245.653328) rotate(-88.386461) scale(0.1 -0.1)">
      <defs>
       <path id="DejaVuSans-33" d="M 2597 2516 
Q 3050 2419 3304 2112 
Q 3559 1806 3559 1356 
Q 3559 666 3084 287 
Q 2609 -91 1734 -91 
Q 1441 -91 1130 -33 
Q 819 25 488 141 
L 488 750 
Q 750 597 1062 519 
Q 1375 441 1716 441 
Q 2309 441 2620 675 
Q 2931 909 2931 1356 
Q 2931 1769 2642 2001 
Q 2353 2234 1838 2234 
L 1294 2234 
L 1294 2753 
L 1863 2753 
Q 2328 2753 2575 2939 
Q 2822 3125 2822 3475 
Q 2822 3834 2567 4026 
Q 2313 4219 1838 4219 
Q 1578 4219 1281 4162 
Q 984 4106 628 3988 
L 628 4550 
Q 988 4650 1302 4700 
Q 1616 4750 1894 4750 
Q 2613 4750 3031 4423 
Q 3450 4097 3450 3541 
Q 3450 3153 3228 2886 
Q 3006 2619 2597 2516 
z
" transform="scale(0.015625)"/>
      </defs>
      <use xlink:href="#DejaVuSans-31"/>
      <use xlink:href="#DejaVuSans-33" x="63.623047"/>
     </g>
    </g>
   </g>
   <g id="text_14">
    <g id="patch_16">
     <path d="M 248.479958 217.503681 
L 254.536003 215.552854 
Q 257.391506 214.633015 256.471666 211.777512 
L 253.504224 202.565542 
Q 252.584385 199.710039 249.728882 200.629879 
L 243.672837 202.580706 
Q 240.817335 203.500546 241.737174 206.356048 
L 244.704616 215.568018 
Q 245.624455 218.423521 248.479958 217.503681 
z
" clip-path="url(#p248d2e3181)" style="fill: #ffffff; stroke: #ffffff; stroke-linejoin: miter"/>
    </g>
    <g clip-path="url(#p248d2e3181)">
     <!-- 6 -->
     <g transform="translate(246.922458 212.668661) rotate(-17.855247) scale(0.1 -0.1)">
      <defs>
       <path id="DejaVuSans-36" d="M 2113 2584 
Q 1688 2584 1439 2293 
Q 1191 2003 1191 1497 
Q 1191 994 1439 701 
Q 1688 409 2113 409 
Q 2538 409 2786 701 
Q 3034 994 3034 1497 
Q 3034 2003 2786 2293 
Q 2538 2584 2113 2584 
z
M 3366 4563 
L 3366 3988 
Q 3128 4100 2886 4159 
Q 2644 4219 2406 4219 
Q 1781 4219 1451 3797 
Q 1122 3375 1075 2522 
Q 1259 2794 1537 2939 
Q 1816 3084 2150 3084 
Q 2853 3084 3261 2657 
Q 3669 2231 3669 1497 
Q 3669 778 3244 343 
Q 2819 -91 2113 -91 
Q 1303 -91 875 529 
Q 447 1150 447 2328 
Q 447 3434 972 4092 
Q 1497 4750 2381 4750 
Q 2619 4750 2861 4703 
Q 3103 4656 3366 4563 
z
" transform="scale(0.015625)"/>
      </defs>
      <use xlink:href="#DejaVuSans-36"/>
     </g>
    </g>
   </g>
   <g id="text_15">
    <g id="patch_17">
     <path d="M 228.779447 317.812112 
L 238.712359 309.858315 
Q 241.054106 307.983156 239.178948 305.641409 
L 233.129608 298.086835 
Q 231.254449 295.745087 228.912702 297.620246 
L 218.979791 305.574044 
Q 216.638043 307.449202 218.513202 309.790949 
L 224.562542 317.345524 
Q 226.4377 319.687271 228.779447 317.812112 
z
" clip-path="url(#p248d2e3181)" style="fill: #ffffff; stroke: #ffffff; stroke-linejoin: miter"/>
    </g>
    <g clip-path="url(#p248d2e3181)">
     <!-- 15 -->
     <g transform="translate(225.604374 313.846998) rotate(-38.686067) scale(0.1 -0.1)">
      <use xlink:href="#DejaVuSans-31"/>
      <use xlink:href="#DejaVuSans-35" x="63.623047"/>
     </g>
    </g>
   </g>
   <g id="text_16">
    <g id="patch_18">
     <path d="M 262.620558 227.666126 
L 274.380668 222.805523 
Q 277.153188 221.659605 276.00727 218.887084 
L 272.310491 209.942817 
Q 271.164573 207.170296 268.392052 208.316214 
L 256.631943 213.176816 
Q 253.859422 214.322734 255.00534 217.095255 
L 258.70212 226.039523 
Q 259.848038 228.812044 262.620558 227.666126 
z
" clip-path="url(#p248d2e3181)" style="fill: #ffffff; stroke: #ffffff; stroke-linejoin: miter"/>
    </g>
    <g clip-path="url(#p248d2e3181)">
     <!-- 19 -->
     <g transform="translate(260.680257 222.971613) rotate(-22.455929) scale(0.1 -0.1)">
      <use xlink:href="#DejaVuSans-31"/>
      <use xlink:href="#DejaVuSans-39" x="63.623047"/>
     </g>
    </g>
   </g>
   <g id="text_17">
    <g id="patch_19">
     <path d="M 442.030002 293.176089 
L 444.593683 305.640164 
Q 445.198087 308.57865 448.136573 307.974245 
L 457.616248 306.024412 
Q 460.554734 305.420008 459.95033 302.481523 
L 457.386649 290.017448 
Q 456.782244 287.078963 453.843759 287.683367 
L 444.364083 289.6332 
Q 441.425598 290.237604 442.030002 293.176089 
z
" clip-path="url(#p248d2e3181)" style="fill: #ffffff; stroke: #ffffff; stroke-linejoin: miter"/>
    </g>
    <g clip-path="url(#p248d2e3181)">
     <!-- 12 -->
     <g transform="translate(447.005531 292.152695) rotate(-281.62282) scale(0.1 -0.1)">
      <use xlink:href="#DejaVuSans-31"/>
      <use xlink:href="#DejaVuSans-32" x="63.623047"/>
     </g>
    </g>
   </g>
   <g id="text_18">
    <g id="patch_20">
     <path d="M 294.158908 113.580747 
L 306.406549 117.033415 
Q 309.294008 117.847404 310.107997 114.959944 
L 312.733958 105.64488 
Q 313.547947 102.75742 310.660487 101.943431 
L 298.412846 98.490763 
Q 295.525387 97.676775 294.711398 100.564234 
L 292.085437 109.879299 
Q 291.271448 112.766758 294.158908 113.580747 
z
" clip-path="url(#p248d2e3181)" style="fill: #ffffff; stroke: #ffffff; stroke-linejoin: miter"/>
    </g>
    <g clip-path="url(#p248d2e3181)">
     <!-- 12 -->
     <g transform="translate(295.537177 108.691616) rotate(-344.256603) scale(0.1 -0.1)">
      <use xlink:href="#DejaVuSans-31"/>
      <use xlink:href="#DejaVuSans-32" x="63.623047"/>
     </g>
    </g>
   </g>
   <g id="text_19">
    <g id="patch_21">
     <path d="M 318.122511 254.086998 
L 326.296813 263.83925 
Q 328.223956 266.138405 330.523112 264.211262 
L 337.940284 257.994216 
Q 340.23944 256.067072 338.312296 253.767916 
L 330.137995 244.015664 
Q 328.210851 241.716508 325.911695 243.643652 
L 318.494523 249.860698 
Q 316.195367 251.787842 318.122511 254.086998 
z
" clip-path="url(#p248d2e3181)" style="fill: #ffffff; stroke: #ffffff; stroke-linejoin: miter"/>
    </g>
    <g clip-path="url(#p248d2e3181)">
     <!-- 12 -->
     <g transform="translate(322.015509 250.823902) rotate(-309.969614) scale(0.1 -0.1)">
      <use xlink:href="#DejaVuSans-31"/>
      <use xlink:href="#DejaVuSans-32" x="63.623047"/>
     </g>
    </g>
   </g>
   <g id="text_20">
    <g id="patch_22">
     <path d="M 254.818109 58.992932 
L 260.963623 57.34549 
Q 263.861312 56.5687 263.084522 53.671012 
L 260.578565 44.322949 
Q 259.801775 41.42526 256.904087 42.20205 
L 250.758573 43.849492 
Q 247.860884 44.626282 248.637674 47.523971 
L 251.143631 56.872034 
Q 251.920421 59.769722 254.818109 58.992932 
z
" clip-path="url(#p248d2e3181)" style="fill: #ffffff; stroke: #ffffff; stroke-linejoin: miter"/>
    </g>
    <g clip-path="url(#p248d2e3181)">
     <!-- 1 -->
     <g transform="translate(253.502826 54.086482) rotate(-15.00658) scale(0.1 -0.1)">
      <use xlink:href="#DejaVuSans-31"/>
     </g>
    </g>
   </g>
   <g id="text_21">
    <g id="patch_23">
     <path d="M 139.061792 159.784936 
L 141.993983 154.138374 
Q 143.376549 151.475948 140.714123 150.093382 
L 132.125025 145.633168 
Q 129.462599 144.250603 128.080034 146.913029 
L 125.147843 152.559591 
Q 123.765277 155.222017 126.427703 156.604583 
L 135.016801 161.064796 
Q 137.679227 162.447362 139.061792 159.784936 
z
" clip-path="url(#p248d2e3181)" style="fill: #ffffff; stroke: #ffffff; stroke-linejoin: miter"/>
    </g>
    <g clip-path="url(#p248d2e3181)">
     <!-- 1 -->
     <g transform="translate(134.553695 157.443936) rotate(-62.557697) scale(0.1 -0.1)">
      <use xlink:href="#DejaVuSans-31"/>
     </g>
    </g>
   </g>
   <g id="text_22">
    <g id="patch_24">
     <path d="M 112.383425 272.590765 
L 114.526183 266.59994 
Q 115.536521 263.775189 112.71177 262.764851 
L 103.599006 259.505459 
Q 100.774256 258.495121 99.763918 261.319872 
L 97.62116 267.310697 
Q 96.610822 270.135448 99.435573 271.145786 
L 108.548336 274.405178 
Q 111.373087 275.415516 112.383425 272.590765 
z
" clip-path="url(#p248d2e3181)" style="fill: #ffffff; stroke: #ffffff; stroke-linejoin: miter"/>
    </g>
    <g clip-path="url(#p248d2e3181)">
     <!-- 7 -->
     <g transform="translate(107.600475 270.880032) rotate(-70.319228) scale(0.1 -0.1)">
      <use xlink:href="#DejaVuSans-37"/>
     </g>
    </g>
   </g>
   <g id="text_23">
    <g id="patch_25">
     <path d="M 252.346575 256.507861 
L 257.682871 268.059899 
Q 258.940937 270.783365 261.664404 269.525299 
L 270.45042 265.466727 
Q 273.173887 264.208661 271.915821 261.485194 
L 266.579525 249.933157 
Q 265.321459 247.20969 262.597993 248.467756 
L 253.811976 252.526329 
Q 251.088509 253.784395 252.346575 256.507861 
z
" clip-path="url(#p248d2e3181)" style="fill: #ffffff; stroke: #ffffff; stroke-linejoin: miter"/>
    </g>
    <g clip-path="url(#p248d2e3181)">
     <!-- 18 -->
     <g transform="translate(256.958028 254.377667) rotate(-294.793891) scale(0.1 -0.1)">
      <use xlink:href="#DejaVuSans-31"/>
      <use xlink:href="#DejaVuSans-38" x="63.623047"/>
     </g>
    </g>
   </g>
   <g id="text_24">
    <g id="patch_26">
     <path d="M 320.145805 259.594409 
L 324.191838 264.504706 
Q 326.099595 266.819974 328.414863 264.912218 
L 335.884013 258.757716 
Q 338.199281 256.849959 336.291525 254.534691 
L 332.245491 249.624394 
Q 330.337734 247.309126 328.022467 249.216883 
L 320.553316 255.371385 
Q 318.238048 257.279141 320.145805 259.594409 
z
" clip-path="url(#p248d2e3181)" style="fill: #ffffff; stroke: #ffffff; stroke-linejoin: miter"/>
    </g>
    <g clip-path="url(#p248d2e3181)">
     <!-- 1 -->
     <g transform="translate(324.066084 256.36414) rotate(-309.488167) scale(0.1 -0.1)">
      <use xlink:href="#DejaVuSans-31"/>
     </g>
    </g>
   </g>
   <g id="text_25">
    <g id="patch_27">
     <path d="M 188.975915 255.181018 
L 196.219112 244.718622 
Q 197.926742 242.252046 195.460166 240.544416 
L 187.502887 235.03553 
Q 185.03631 233.3279 183.32868 235.794477 
L 176.085483 246.256873 
Q 174.377854 248.723449 176.84443 250.431079 
L 184.801709 255.939965 
Q 187.268285 257.647594 188.975915 255.181018 
z
" clip-path="url(#p248d2e3181)" style="fill: #ffffff; stroke: #ffffff; stroke-linejoin: miter"/>
    </g>
    <g clip-path="url(#p248d2e3181)">
     <!-- 19 -->
     <g transform="translate(184.799436 252.289609) rotate(-55.304846) scale(0.1 -0.1)">
      <use xlink:href="#DejaVuSans-31"/>
      <use xlink:href="#DejaVuSans-39" x="63.623047"/>
     </g>
    </g>
   </g>
   <g id="text_26">
    <g id="patch_28">
     <path d="M 372.393254 86.312284 
L 380.428512 96.179414 
Q 382.322875 98.505653 384.649114 96.611289 
L 392.153658 90.499994 
Q 394.479897 88.605631 392.585533 86.279392 
L 384.550275 76.412262 
Q 382.655912 74.086023 380.329673 75.980386 
L 372.825129 82.091681 
Q 370.498891 83.986045 372.393254 86.312284 
z
" clip-path="url(#p248d2e3181)" style="fill: #ffffff; stroke: #ffffff; stroke-linejoin: miter"/>
    </g>
    <g clip-path="url(#p248d2e3181)">
     <!-- 12 -->
     <g transform="translate(376.332109 83.104692) rotate(-309.157511) scale(0.1 -0.1)">
      <use xlink:href="#DejaVuSans-31"/>
      <use xlink:href="#DejaVuSans-32" x="63.623047"/>
     </g>
    </g>
   </g>
   <g id="text_27">
    <g id="patch_29">
     <path d="M 398.795584 232.187333 
L 403.004292 244.19618 
Q 403.996522 247.027342 406.827684 246.035113 
L 415.961132 242.834138 
Q 418.792294 241.841908 417.800064 239.010746 
L 413.591356 227.001899 
Q 412.599126 224.170737 409.767964 225.162967 
L 400.634517 228.363941 
Q 397.803354 229.356171 398.795584 232.187333 
z
" clip-path="url(#p248d2e3181)" style="fill: #ffffff; stroke: #ffffff; stroke-linejoin: miter"/>
    </g>
    <g clip-path="url(#p248d2e3181)">
     <!-- 17 -->
     <g transform="translate(403.589391 230.507261) rotate(-289.313895) scale(0.1 -0.1)">
      <use xlink:href="#DejaVuSans-31"/>
      <use xlink:href="#DejaVuSans-37" x="63.623047"/>
     </g>
    </g>
   </g>
   <g id="text_28">
    <g id="patch_30">
     <path d="M 334.18199 231.406926 
L 334.564745 244.126168 
Q 334.654982 247.124811 337.653624 247.034574 
L 347.32737 246.743465 
Q 350.326013 246.653229 350.235776 243.654586 
L 349.853021 230.935344 
Q 349.762784 227.936701 346.764141 228.026938 
L 337.090396 228.318046 
Q 334.091753 228.408283 334.18199 231.406926 
z
" clip-path="url(#p248d2e3181)" style="fill: #ffffff; stroke: #ffffff; stroke-linejoin: miter"/>
    </g>
    <g clip-path="url(#p248d2e3181)">
     <!-- 14 -->
     <g transform="translate(339.259379 231.254134) rotate(-271.723658) scale(0.1 -0.1)">
      <use xlink:href="#DejaVuSans-31"/>
      <use xlink:href="#DejaVuSans-34" x="63.623047"/>
     </g>
    </g>
   </g>
   <g id="text_29">
    <g id="patch_31">
     <path d="M 224.422511 165.728118 
L 232.900076 156.238307 
Q 234.898716 154.001023 232.661432 152.002383 
L 225.443862 145.554687 
Q 223.206578 143.556047 221.207938 145.793331 
L 212.730374 155.283142 
Q 210.731734 157.520426 212.969017 159.519066 
L 220.186587 165.966762 
Q 222.423871 167.965402 224.422511 165.728118 
z
" clip-path="url(#p248d2e3181)" style="fill: #ffffff; stroke: #ffffff; stroke-linejoin: miter"/>
    </g>
    <g clip-path="url(#p248d2e3181)">
     <!-- 10 -->
     <g transform="translate(220.634277 162.343963) rotate(-48.224523) scale(0.1 -0.1)">
      <use xlink:href="#DejaVuSans-31"/>
      <use xlink:href="#DejaVuSans-30" x="63.623047"/>
     </g>
    </g>
   </g>
   <g id="text_30">
    <g id="patch_32">
     <path d="M 340.48066 217.223753 
L 341.31768 229.921194 
Q 341.515013 232.914697 344.508516 232.717364 
L 354.165681 232.08076 
Q 357.159184 231.883427 356.961851 228.889924 
L 356.124831 216.192483 
Q 355.927498 213.19898 352.933995 213.396313 
L 343.27683 214.032917 
Q 340.283327 214.23025 340.48066 217.223753 
z
" clip-path="url(#p248d2e3181)" style="fill: #ffffff; stroke: #ffffff; stroke-linejoin: miter"/>
    </g>
    <g clip-path="url(#p248d2e3181)">
     <!-- 13 -->
     <g transform="translate(345.549346 216.889623) rotate(-273.771504) scale(0.1 -0.1)">
      <use xlink:href="#DejaVuSans-31"/>
      <use xlink:href="#DejaVuSans-33" x="63.623047"/>
     </g>
    </g>
   </g>
   <g id="text_31">
    <g id="patch_33">
     <path d="M 256.102107 198.273217 
L 268.387192 194.956245 
Q 271.28348 194.174247 270.501482 191.27796 
L 267.978725 181.934416 
Q 267.196728 179.038129 264.30044 179.820127 
L 252.015355 183.1371 
Q 249.119068 183.919097 249.901066 186.815384 
L 252.423822 196.158928 
Q 253.20582 199.055215 256.102107 198.273217 
z
" clip-path="url(#p248d2e3181)" style="fill: #ffffff; stroke: #ffffff; stroke-linejoin: miter"/>
    </g>
    <g clip-path="url(#p248d2e3181)">
     <!-- 18 -->
     <g transform="translate(254.778006 193.369139) rotate(-15.109575) scale(0.1 -0.1)">
      <use xlink:href="#DejaVuSans-31"/>
      <use xlink:href="#DejaVuSans-38" x="63.623047"/>
     </g>
    </g>
   </g>
   <g id="text_32">
    <g id="patch_34">
     <path d="M 88.409586 258.730402 
L 93.952099 247.275875 
Q 95.258781 244.575397 92.558304 243.268715 
L 83.84645 239.053301 
Q 81.145972 237.746619 79.839289 240.447096 
L 74.296777 251.901623 
Q 72.990094 254.602101 75.690572 255.908783 
L 84.402425 260.124197 
Q 87.102903 261.430879 88.409586 258.730402 
z
" clip-path="url(#p248d2e3181)" style="fill: #ffffff; stroke: #ffffff; stroke-linejoin: miter"/>
    </g>
    <g clip-path="url(#p248d2e3181)">
     <!-- 12 -->
     <g transform="translate(83.837058 256.517888) rotate(-64.179008) scale(0.1 -0.1)">
      <use xlink:href="#DejaVuSans-31"/>
      <use xlink:href="#DejaVuSans-32" x="63.623047"/>
     </g>
    </g>
   </g>
   <g id="text_33">
    <g id="patch_35">
     <path d="M 279.514638 343.771496 
L 285.129764 346.763446 
Q 287.777368 348.174189 289.188111 345.526586 
L 293.739226 336.985307 
Q 295.149969 334.337703 292.502365 332.92696 
L 286.88724 329.93501 
Q 284.239636 328.524267 282.828893 331.17187 
L 278.277778 339.713149 
Q 276.867035 342.360753 279.514638 343.771496 
z
" clip-path="url(#p248d2e3181)" style="fill: #ffffff; stroke: #ffffff; stroke-linejoin: miter"/>
    </g>
    <g clip-path="url(#p248d2e3181)">
     <!-- 9 -->
     <g transform="translate(281.903349 339.288496) rotate(-331.949628) scale(0.1 -0.1)">
      <use xlink:href="#DejaVuSans-39"/>
     </g>
    </g>
   </g>
   <g id="text_34">
    <g id="patch_36">
     <path d="M 212.485728 344.316007 
L 217.401391 348.35552 
Q 219.719189 350.260202 221.623871 347.942404 
L 227.768454 340.465091 
Q 229.673136 338.147294 227.355338 336.242612 
L 222.439675 332.203099 
Q 220.121877 330.298417 218.217195 332.616215 
L 212.072612 340.093527 
Q 210.16793 342.411325 212.485728 344.316007 
z
" clip-path="url(#p248d2e3181)" style="fill: #ffffff; stroke: #ffffff; stroke-linejoin: miter"/>
    </g>
    <g clip-path="url(#p248d2e3181)">
     <!-- 6 -->
     <g transform="translate(215.710791 340.391444) rotate(-320.587879) scale(0.1 -0.1)">
      <use xlink:href="#DejaVuSans-36"/>
     </g>
    </g>
   </g>
   <g id="text_35">
    <g id="patch_37">
     <path d="M 394.69758 302.859073 
L 397.972675 290.562757 
Q 398.7448 287.663823 395.845865 286.891698 
L 386.49378 284.400792 
Q 383.594845 283.628667 382.822721 286.527602 
L 379.547625 298.823918 
Q 378.775501 301.722853 381.674436 302.494977 
L 391.02652 304.985883 
Q 393.925455 305.758008 394.69758 302.859073 
z
" clip-path="url(#p248d2e3181)" style="fill: #ffffff; stroke: #ffffff; stroke-linejoin: miter"/>
    </g>
    <g clip-path="url(#p248d2e3181)">
     <!-- 15 -->
     <g transform="translate(389.789019 301.551689) rotate(-75.085647) scale(0.1 -0.1)">
      <use xlink:href="#DejaVuSans-31"/>
      <use xlink:href="#DejaVuSans-35" x="63.623047"/>
     </g>
    </g>
   </g>
   <g id="text_36">
    <g id="patch_38">
     <path d="M 222.031007 368.82758 
L 227.280463 372.422662 
Q 229.755649 374.117789 231.450776 371.642604 
L 236.919327 363.657552 
Q 238.614454 361.182366 236.139268 359.487239 
L 230.889812 355.892157 
Q 228.414626 354.19703 226.719499 356.672215 
L 221.250949 364.657267 
Q 219.555821 367.132453 222.031007 368.82758 
z
" clip-path="url(#p248d2e3181)" style="fill: #ffffff; stroke: #ffffff; stroke-linejoin: miter"/>
    </g>
    <g clip-path="url(#p248d2e3181)">
     <!-- 2 -->
     <g transform="translate(224.901246 364.636523) rotate(-325.594766) scale(0.1 -0.1)">
      <use xlink:href="#DejaVuSans-32"/>
     </g>
    </g>
   </g>
   <g id="text_37">
    <g id="patch_39">
     <path d="M 209.890354 344.669752 
L 221.107752 350.677714 
Q 223.752325 352.09413 225.168741 349.449557 
L 229.738156 340.918053 
Q 231.154572 338.27348 228.509998 336.857065 
L 217.292601 330.849102 
Q 214.648027 329.432687 213.231612 332.07726 
L 208.662197 340.608763 
Q 207.245781 343.253337 209.890354 344.669752 
z
" clip-path="url(#p248d2e3181)" style="fill: #ffffff; stroke: #ffffff; stroke-linejoin: miter"/>
    </g>
    <g clip-path="url(#p248d2e3181)">
     <!-- 10 -->
     <g transform="translate(212.28867 340.191884) rotate(-331.8268) scale(0.1 -0.1)">
      <use xlink:href="#DejaVuSans-31"/>
      <use xlink:href="#DejaVuSans-30" x="63.623047"/>
     </g>
    </g>
   </g>
   <g id="text_38">
    <g id="patch_40">
     <path d="M 402.120671 285.188195 
L 403.645854 279.011204 
Q 404.364997 276.098673 401.452467 275.37953 
L 392.056522 273.059544 
Q 389.143992 272.340401 388.424849 275.252931 
L 386.899666 281.429922 
Q 386.180522 284.342453 389.093053 285.061596 
L 398.488997 287.381582 
Q 401.401527 288.100725 402.120671 285.188195 
z
" clip-path="url(#p248d2e3181)" style="fill: #ffffff; stroke: #ffffff; stroke-linejoin: miter"/>
    </g>
    <g clip-path="url(#p248d2e3181)">
     <!-- 9 -->
     <g transform="translate(397.189089 283.970521) rotate(-76.130314) scale(0.1 -0.1)">
      <use xlink:href="#DejaVuSans-39"/>
     </g>
    </g>
   </g>
   <g id="text_39">
    <g id="patch_41">
     <path d="M 394.102618 377.660562 
L 397.363469 372.197206 
Q 398.901002 369.621164 396.32496 368.083631 
L 388.014541 363.123486 
Q 385.438499 361.585953 383.900966 364.161995 
L 380.640115 369.625351 
Q 379.102582 372.201393 381.678624 373.738926 
L 389.989043 378.699071 
Q 392.565085 380.236604 394.102618 377.660562 
z
" clip-path="url(#p248d2e3181)" style="fill: #ffffff; stroke: #ffffff; stroke-linejoin: miter"/>
    </g>
    <g clip-path="url(#p248d2e3181)">
     <!-- 6 -->
     <g transform="translate(389.740788 375.057167) rotate(-59.16877) scale(0.1 -0.1)">
      <use xlink:href="#DejaVuSans-36"/>
     </g>
    </g>
   </g>
   <g id="text_40">
    <g id="patch_42">
     <path d="M 416.716339 433.634589 
L 423.00098 434.626901 
Q 425.964269 435.094789 426.432157 432.1315 
L 427.941582 422.571806 
Q 428.40947 419.608517 425.446181 419.14063 
L 419.161539 418.148318 
Q 416.19825 417.68043 415.730363 420.643719 
L 414.220937 430.203413 
Q 413.75305 433.166701 416.716339 433.634589 
z
" clip-path="url(#p248d2e3181)" style="fill: #ffffff; stroke: #ffffff; stroke-linejoin: miter"/>
    </g>
    <g clip-path="url(#p248d2e3181)">
     <!-- 3 -->
     <g transform="translate(417.50858 428.617062) rotate(-351.027373) scale(0.1 -0.1)">
      <use xlink:href="#DejaVuSans-33"/>
     </g>
    </g>
   </g>
   <g id="text_41">
    <g id="patch_43">
     <path d="M 196.857608 447.612516 
L 203.160391 446.742844 
Q 206.132234 446.332783 205.722172 443.36094 
L 204.399297 433.773651 
Q 203.989236 430.801808 201.017393 431.21187 
L 194.71461 432.081542 
Q 191.742767 432.491603 192.152828 435.463446 
L 193.475703 445.050735 
Q 193.885765 448.022577 196.857608 447.612516 
z
" clip-path="url(#p248d2e3181)" style="fill: #ffffff; stroke: #ffffff; stroke-linejoin: miter"/>
    </g>
    <g clip-path="url(#p248d2e3181)">
     <!-- 4 -->
     <g transform="translate(196.16328 442.580505) rotate(-7.85619) scale(0.1 -0.1)">
      <use xlink:href="#DejaVuSans-34"/>
     </g>
    </g>
   </g>
   <g id="text_42">
    <g id="patch_44">
     <path d="M 79.082349 378.029107 
L 81.488935 372.139307 
Q 82.62367 369.36219 79.846554 368.227455 
L 70.887461 364.56675 
Q 68.110345 363.432014 66.975609 366.209131 
L 64.569024 372.098931 
Q 63.434288 374.876048 66.211405 376.010783 
L 75.170497 379.671488 
Q 77.947614 380.806224 79.082349 378.029107 
z
" clip-path="url(#p248d2e3181)" style="fill: #ffffff; stroke: #ffffff; stroke-linejoin: miter"/>
    </g>
    <g clip-path="url(#p248d2e3181)">
     <!-- 9 -->
     <g transform="translate(74.380055 376.10774) rotate(-67.77497) scale(0.1 -0.1)">
      <use xlink:href="#DejaVuSans-39"/>
     </g>
    </g>
   </g>
   <g id="text_43">
    <g id="patch_45">
     <path d="M 252.506008 460.069012 
L 265.218418 459.503096 
Q 268.215449 459.369677 268.082031 456.372645 
L 267.651618 446.704096 
Q 267.5182 443.707064 264.521168 443.840483 
L 251.808758 444.406399 
Q 248.811726 444.539817 248.945144 447.536849 
L 249.375558 457.205398 
Q 249.508976 460.20243 252.506008 460.069012 
z
" clip-path="url(#p248d2e3181)" style="fill: #ffffff; stroke: #ffffff; stroke-linejoin: miter"/>
    </g>
    <g clip-path="url(#p248d2e3181)">
     <!-- 18 -->
     <g transform="translate(252.2801 454.99435) rotate(-2.548944) scale(0.1 -0.1)">
      <use xlink:href="#DejaVuSans-31"/>
      <use xlink:href="#DejaVuSans-38" x="63.623047"/>
     </g>
    </g>
   </g>
   <g id="text_44">
    <g id="patch_46">
     <path d="M 232.697656 312.749199 
L 242.581873 304.734969 
Q 244.912141 302.845564 243.022735 300.515296 
L 236.927433 292.997757 
Q 235.038027 290.66749 232.70776 292.556896 
L 222.823543 300.571126 
Q 220.493275 302.460532 222.382681 304.790799 
L 228.477983 312.308338 
Q 230.367389 314.638605 232.697656 312.749199 
z
" clip-path="url(#p248d2e3181)" style="fill: #ffffff; stroke: #ffffff; stroke-linejoin: miter"/>
    </g>
    <g clip-path="url(#p248d2e3181)">
     <!-- 12 -->
     <g transform="translate(229.498459 308.803523) rotate(-39.035513) scale(0.1 -0.1)">
      <use xlink:href="#DejaVuSans-31"/>
      <use xlink:href="#DejaVuSans-32" x="63.623047"/>
     </g>
    </g>
   </g>
   <g id="text_45">
    <g id="patch_47">
     <path d="M 289.152939 368.170809 
L 294.997062 370.686289 
Q 297.75264 371.87237 298.938721 369.116792 
L 302.765068 360.227182 
Q 303.951149 357.471603 301.195571 356.285522 
L 295.351449 353.770042 
Q 292.595871 352.583961 291.409789 355.339539 
L 287.583442 364.229149 
Q 286.397361 366.984728 289.152939 368.170809 
z
" clip-path="url(#p248d2e3181)" style="fill: #ffffff; stroke: #ffffff; stroke-linejoin: miter"/>
    </g>
    <g clip-path="url(#p248d2e3181)">
     <!-- 5 -->
     <g transform="translate(291.161247 363.504983) rotate(-336.711548) scale(0.1 -0.1)">
      <use xlink:href="#DejaVuSans-35"/>
     </g>
    </g>
   </g>
   <g id="text_46">
    <g id="patch_48">
     <path d="M 266.658259 222.652529 
L 278.326854 217.576161 
Q 281.0778 216.379375 279.881014 213.628429 
L 276.020132 204.753763 
Q 274.823346 202.002817 272.0724 203.199603 
L 260.403805 208.275971 
Q 257.652859 209.472757 258.849645 212.223703 
L 262.710527 221.098369 
Q 263.907313 223.849315 266.658259 222.652529 
z
" clip-path="url(#p248d2e3181)" style="fill: #ffffff; stroke: #ffffff; stroke-linejoin: miter"/>
    </g>
    <g clip-path="url(#p248d2e3181)">
     <!-- 19 -->
     <g transform="translate(264.631825 217.994547) rotate(-23.511224) scale(0.1 -0.1)">
      <use xlink:href="#DejaVuSans-31"/>
      <use xlink:href="#DejaVuSans-39" x="63.623047"/>
     </g>
    </g>
   </g>
   <g id="text_47">
    <g id="patch_49">
     <path d="M 286.300009 363.905733 
L 298.05924 368.768459 
Q 300.831554 369.914877 301.977973 367.142563 
L 305.676367 358.198963 
Q 306.822785 355.426649 304.050471 354.28023 
L 292.291239 349.417505 
Q 289.518926 348.271087 288.372507 351.043401 
L 284.674113 359.987001 
Q 283.527695 362.759315 286.300009 363.905733 
z
" clip-path="url(#p248d2e3181)" style="fill: #ffffff; stroke: #ffffff; stroke-linejoin: miter"/>
    </g>
    <g clip-path="url(#p248d2e3181)">
     <!-- 13 -->
     <g transform="translate(288.241158 359.211571) rotate(-337.533728) scale(0.1 -0.1)">
      <use xlink:href="#DejaVuSans-31"/>
      <use xlink:href="#DejaVuSans-33" x="63.623047"/>
     </g>
    </g>
   </g>
   <g id="text_48">
    <g id="patch_50">
     <path d="M 86.750832 278.832871 
L 92.339581 281.873808 
Q 94.974747 283.307649 96.408588 280.672482 
L 101.034217 272.171326 
Q 102.468057 269.53616 99.832891 268.102319 
L 94.244143 265.061383 
Q 91.608976 263.627542 90.175136 266.262708 
L 85.549507 274.763865 
Q 84.115666 277.399031 86.750832 278.832871 
z
" clip-path="url(#p248d2e3181)" style="fill: #ffffff; stroke: #ffffff; stroke-linejoin: miter"/>
    </g>
    <g clip-path="url(#p248d2e3181)">
     <!-- 6 -->
     <g transform="translate(89.178653 274.370931) rotate(-331.448608) scale(0.1 -0.1)">
      <use xlink:href="#DejaVuSans-36"/>
     </g>
    </g>
   </g>
   <g id="text_49">
    <g id="patch_51">
     <path d="M 488.496663 442.11125 
L 488.496663 435.74875 
Q 488.496663 432.74875 485.496663 432.74875 
L 475.818537 432.74875 
Q 472.818537 432.74875 472.818537 435.74875 
L 472.818537 442.11125 
Q 472.818537 445.11125 475.818537 445.11125 
L 485.496663 445.11125 
Q 488.496663 445.11125 488.496663 442.11125 
z
" clip-path="url(#p248d2e3181)" style="fill: #ffffff; stroke: #ffffff; stroke-linejoin: miter"/>
    </g>
    <g clip-path="url(#p248d2e3181)">
     <!-- 4 -->
     <g transform="translate(483.416975 442.11125) rotate(-90) scale(0.1 -0.1)">
      <use xlink:href="#DejaVuSans-34"/>
     </g>
    </g>
   </g>
   <g id="text_50">
    <g id="patch_52">
     <path d="M 272.706637 359.200019 
L 278.531047 361.760811 
Q 281.277331 362.968257 282.484777 360.221973 
L 286.380048 351.362348 
Q 287.587495 348.616064 284.841211 347.408618 
L 279.016801 344.847826 
Q 276.270517 343.64038 275.063071 346.386664 
L 271.1678 355.246289 
Q 269.960354 357.992573 272.706637 359.200019 
z
" clip-path="url(#p248d2e3181)" style="fill: #ffffff; stroke: #ffffff; stroke-linejoin: miter"/>
    </g>
    <g clip-path="url(#p248d2e3181)">
     <!-- 1 -->
     <g transform="translate(274.75112 354.549931) rotate(-336.266566) scale(0.1 -0.1)">
      <use xlink:href="#DejaVuSans-31"/>
     </g>
    </g>
   </g>
   <g id="text_51">
    <g id="patch_53">
     <path d="M 252.506109 212.448414 
L 258.522882 210.379633 
Q 261.359867 209.404177 260.38441 206.567192 
L 257.237547 197.41496 
Q 256.26209 194.577974 253.425105 195.553431 
L 247.408333 197.622212 
Q 244.571347 198.597668 245.546804 201.434653 
L 248.693667 210.586885 
Q 249.669124 213.423871 252.506109 212.448414 
z
" clip-path="url(#p248d2e3181)" style="fill: #ffffff; stroke: #ffffff; stroke-linejoin: miter"/>
    </g>
    <g clip-path="url(#p248d2e3181)">
     <!-- 6 -->
     <g transform="translate(250.854438 207.644748) rotate(-18.974795) scale(0.1 -0.1)">
      <use xlink:href="#DejaVuSans-36"/>
     </g>
    </g>
   </g>
   <g id="text_52">
    <g id="patch_54">
     <path d="M 438.606309 378.733735 
L 444.976331 389.749562 
Q 446.478104 392.346613 449.075156 390.84484 
L 457.453352 386.000057 
Q 460.050404 384.498283 458.548631 381.901232 
L 452.178609 370.885405 
Q 450.676836 368.288353 448.079784 369.790126 
L 439.701587 374.63491 
Q 437.104536 376.136683 438.606309 378.733735 
z
" clip-path="url(#p248d2e3181)" style="fill: #ffffff; stroke: #ffffff; stroke-linejoin: miter"/>
    </g>
    <g clip-path="url(#p248d2e3181)">
     <!-- 14 -->
     <g transform="translate(443.003713 376.190888) rotate(-300.039115) scale(0.1 -0.1)">
      <use xlink:href="#DejaVuSans-31"/>
      <use xlink:href="#DejaVuSans-34" x="63.623047"/>
     </g>
    </g>
   </g>
   <g id="matplotlib.axis_1">
    <g id="xtick_1">
     <g id="line2d_1">
      <path d="M 10.8 493.2 
L 10.8 10.8 
" clip-path="url(#p248d2e3181)" style="fill: none; stroke: #b0b0b0; stroke-opacity: 0.3; stroke-width: 0.8; stroke-linecap: square"/>
     </g>
    </g>
    <g id="xtick_2">
     <g id="line2d_2">
      <path d="M 59.04 493.2 
L 59.04 10.8 
" clip-path="url(#p248d2e3181)" style="fill: none; stroke: #b0b0b0; stroke-opacity: 0.3; stroke-width: 0.8; stroke-linecap: square"/>
     </g>
    </g>
    <g id="xtick_3">
     <g id="line2d_3">
      <path d="M 107.28 493.2 
L 107.28 10.8 
" clip-path="url(#p248d2e3181)" style="fill: none; stroke: #b0b0b0; stroke-opacity: 0.3; stroke-width: 0.8; stroke-linecap: square"/>
     </g>
    </g>
    <g id="xtick_4">
     <g id="line2d_4">
      <path d="M 155.52 493.2 
L 155.52 10.8 
" clip-path="url(#p248d2e3181)" style="fill: none; stroke: #b0b0b0; stroke-opacity: 0.3; stroke-width: 0.8; stroke-linecap: square"/>
     </g>
    </g>
    <g id="xtick_5">
     <g id="line2d_5">
      <path d="M 203.76 493.2 
L 203.76 10.8 
" clip-path="url(#p248d2e3181)" style="fill: none; stroke: #b0b0b0; stroke-opacity: 0.3; stroke-width: 0.8; stroke-linecap: square"/>
     </g>
    </g>
    <g id="xtick_6">
     <g id="line2d_6">
      <path d="M 252 493.2 
L 252 10.8 
" clip-path="url(#p248d2e3181)" style="fill: none; stroke: #b0b0b0; stroke-opacity: 0.3; stroke-width: 0.8; stroke-linecap: square"/>
     </g>
    </g>
    <g id="xtick_7">
     <g id="line2d_7">
      <path d="M 300.24 493.2 
L 300.24 10.8 
" clip-path="url(#p248d2e3181)" style="fill: none; stroke: #b0b0b0; stroke-opacity: 0.3; stroke-width: 0.8; stroke-linecap: square"/>
     </g>
    </g>
    <g id="xtick_8">
     <g id="line2d_8">
      <path d="M 348.48 493.2 
L 348.48 10.8 
" clip-path="url(#p248d2e3181)" style="fill: none; stroke: #b0b0b0; stroke-opacity: 0.3; stroke-width: 0.8; stroke-linecap: square"/>
     </g>
    </g>
    <g id="xtick_9">
     <g id="line2d_9">
      <path d="M 396.72 493.2 
L 396.72 10.8 
" clip-path="url(#p248d2e3181)" style="fill: none; stroke: #b0b0b0; stroke-opacity: 0.3; stroke-width: 0.8; stroke-linecap: square"/>
     </g>
    </g>
    <g id="xtick_10">
     <g id="line2d_10">
      <path d="M 444.96 493.2 
L 444.96 10.8 
" clip-path="url(#p248d2e3181)" style="fill: none; stroke: #b0b0b0; stroke-opacity: 0.3; stroke-width: 0.8; stroke-linecap: square"/>
     </g>
    </g>
    <g id="xtick_11">
     <g id="line2d_11">
      <path d="M 493.2 493.2 
L 493.2 10.8 
" clip-path="url(#p248d2e3181)" style="fill: none; stroke: #b0b0b0; stroke-opacity: 0.3; stroke-width: 0.8; stroke-linecap: square"/>
     </g>
    </g>
   </g>
   <g id="matplotlib.axis_2">
    <g id="ytick_1">
     <g id="line2d_12">
      <path d="M 10.8 493.2 
L 493.2 493.2 
" clip-path="url(#p248d2e3181)" style="fill: none; stroke: #b0b0b0; stroke-opacity: 0.3; stroke-width: 0.8; stroke-linecap: square"/>
     </g>
    </g>
    <g id="ytick_2">
     <g id="line2d_13">
      <path d="M 10.8 444.96 
L 493.2 444.96 
" clip-path="url(#p248d2e3181)" style="fill: none; stroke: #b0b0b0; stroke-opacity: 0.3; stroke-width: 0.8; stroke-linecap: square"/>
     </g>
    </g>
    <g id="ytick_3">
     <g id="line2d_14">
      <path d="M 10.8 396.72 
L 493.2 396.72 
" clip-path="url(#p248d2e3181)" style="fill: none; stroke: #b0b0b0; stroke-opacity: 0.3; stroke-width: 0.8; stroke-linecap: square"/>
     </g>
    </g>
    <g id="ytick_4">
     <g id="line2d_15">
      <path d="M 10.8 348.48 
L 493.2 348.48 
" clip-path="url(#p248d2e3181)" style="fill: none; stroke: #b0b0b0; stroke-opacity: 0.3; stroke-width: 0.8; stroke-linecap: square"/>
     </g>
    </g>
    <g id="ytick_5">
     <g id="line2d_16">
      <path d="M 10.8 300.24 
L 493.2 300.24 
" clip-path="url(#p248d2e3181)" style="fill: none; stroke: #b0b0b0; stroke-opacity: 0.3; stroke-width: 0.8; stroke-linecap: square"/>
     </g>
    </g>
    <g id="ytick_6">
     <g id="line2d_17">
      <path d="M 10.8 252 
L 493.2 252 
" clip-path="url(#p248d2e3181)" style="fill: none; stroke: #b0b0b0; stroke-opacity: 0.3; stroke-width: 0.8; stroke-linecap: square"/>
     </g>
    </g>
    <g id="ytick_7">
     <g id="line2d_18">
      <path d="M 10.8 203.76 
L 493.2 203.76 
" clip-path="url(#p248d2e3181)" style="fill: none; stroke: #b0b0b0; stroke-opacity: 0.3; stroke-width: 0.8; stroke-linecap: square"/>
     </g>
    </g>
    <g id="ytick_8">
     <g id="line2d_19">
      <path d="M 10.8 155.52 
L 493.2 155.52 
" clip-path="url(#p248d2e3181)" style="fill: none; stroke: #b0b0b0; stroke-opacity: 0.3; stroke-width: 0.8; stroke-linecap: square"/>
     </g>
    </g>
    <g id="ytick_9">
     <g id="line2d_20">
      <path d="M 10.8 107.28 
L 493.2 107.28 
" clip-path="url(#p248d2e3181)" style="fill: none; stroke: #b0b0b0; stroke-opacity: 0.3; stroke-width: 0.8; stroke-linecap: square"/>
     </g>
    </g>
    <g id="ytick_10">
     <g id="line2d_21">
      <path d="M 10.8 59.04 
L 493.2 59.04 
" clip-path="url(#p248d2e3181)" style="fill: none; stroke: #b0b0b0; stroke-opacity: 0.3; stroke-width: 0.8; stroke-linecap: square"/>
     </g>
    </g>
    <g id="ytick_11">
     <g id="line2d_22">
      <path d="M 10.8 10.8 
L 493.2 10.8 
" clip-path="url(#p248d2e3181)" style="fill: none; stroke: #b0b0b0; stroke-opacity: 0.3; stroke-width: 0.8; stroke-linecap: square"/>
     </g>
    </g>
   </g>
   <g id="PathCollection_1">
    <defs>
     <path id="mae5b7ad257" d="M 0 8.660254 
C 2.296726 8.660254 4.499694 7.747755 6.123724 6.123724 
C 7.747755 4.499694 8.660254 2.296726 8.660254 0 
C 8.660254 -2.296726 7.747755 -4.499694 6.123724 -6.123724 
C 4.499694 -7.747755 2.296726 -8.660254 0 -8.660254 
C -2.296726 -8.660254 -4.499694 -7.747755 -6.123724 -6.123724 
C -7.747755 -4.499694 -8.660254 -2.296726 -8.660254 0 
C -8.660254 2.296726 -7.747755 4.499694 -6.123724 6.123724 
C -4.499694 7.747755 -2.296726 8.660254 0 8.660254 
z
" style="stroke: #1f78b4"/>
    </defs>
    <g clip-path="url(#p248d2e3181)">
     <use xlink:href="#mae5b7ad257" x="234.1512" y="295.416" style="fill: #1f78b4; stroke: #1f78b4"/>
     <use xlink:href="#mae5b7ad257" x="178.6752" y="49.392" style="fill: #1f78b4; stroke: #1f78b4"/>
     <use xlink:href="#mae5b7ad257" x="421.3224" y="153.5904" style="fill: #1f78b4; stroke: #1f78b4"/>
     <use xlink:href="#mae5b7ad257" x="175.7808" y="72.0648" style="fill: #1f78b4; stroke: #1f78b4"/>
     <use xlink:href="#mae5b7ad257" x="335.9376" y="29.1312" style="fill: #1f78b4; stroke: #1f78b4"/>
     <use xlink:href="#mae5b7ad257" x="91.3608" y="234.6336" style="fill: #1f78b4; stroke: #1f78b4"/>
     <use xlink:href="#mae5b7ad257" x="348.48" y="445.9248" style="fill: #1f78b4; stroke: #1f78b4"/>
     <use xlink:href="#mae5b7ad257" x="361.5048" y="416.9808" style="fill: #1f78b4; stroke: #1f78b4"/>
     <use xlink:href="#mae5b7ad257" x="36.3672" y="461.844" style="fill: #1f78b4; stroke: #1f78b4"/>
     <use xlink:href="#mae5b7ad257" x="109.692" y="282.3912" style="fill: #1f78b4; stroke: #1f78b4"/>
     <use xlink:href="#mae5b7ad257" x="480.6576" y="442.0656" style="fill: #1f78b4; stroke: #1f78b4"/>
     <use xlink:href="#mae5b7ad257" x="76.8888" y="264.5424" style="fill: #1f78b4; stroke: #1f78b4"/>
     <use xlink:href="#mae5b7ad257" x="480.6576" y="435.7944" style="fill: #1f78b4; stroke: #1f78b4"/>
     <use xlink:href="#mae5b7ad257" x="416.4984" y="324.8424" style="fill: #1f78b4; stroke: #1f78b4"/>
     <use xlink:href="#mae5b7ad257" x="429.0408" y="143.46" style="fill: #1f78b4; stroke: #1f78b4"/>
    </g>
   </g>
   <g id="patch_55">
    <path d="M 10.8 493.2 
L 10.8 10.8 
" style="fill: none; stroke: #000000; stroke-width: 0.8; stroke-linejoin: miter; stroke-linecap: square"/>
   </g>
   <g id="patch_56">
    <path d="M 493.2 493.2 
L 493.2 10.8 
" style="fill: none; stroke: #000000; stroke-width: 0.8; stroke-linejoin: miter; stroke-linecap: square"/>
   </g>
   <g id="patch_57">
    <path d="M 10.8 493.2 
L 493.2 493.2 
" style="fill: none; stroke: #000000; stroke-width: 0.8; stroke-linejoin: miter; stroke-linecap: square"/>
   </g>
   <g id="patch_58">
    <path d="M 10.8 10.8 
L 493.2 10.8 
" style="fill: none; stroke: #000000; stroke-width: 0.8; stroke-linejoin: miter; stroke-linecap: square"/>
   </g>
   <g id="text_53">
    <g clip-path="url(#p248d2e3181)">
     <!-- 0 -->
     <g transform="translate(230.3337 298.72725) scale(0.12 -0.12)">
      <use xlink:href="#DejaVuSans-30"/>
     </g>
    </g>
   </g>
   <g id="text_54">
    <g clip-path="url(#p248d2e3181)">
     <!-- 1 -->
     <g transform="translate(174.8577 52.70325) scale(0.12 -0.12)">
      <use xlink:href="#DejaVuSans-31"/>
     </g>
    </g>
   </g>
   <g id="text_55">
    <g clip-path="url(#p248d2e3181)">
     <!-- 2 -->
     <g transform="translate(417.5049 156.90165) scale(0.12 -0.12)">
      <use xlink:href="#DejaVuSans-32"/>
     </g>
    </g>
   </g>
   <g id="text_56">
    <g clip-path="url(#p248d2e3181)">
     <!-- 3 -->
     <g transform="translate(171.9633 75.37605) scale(0.12 -0.12)">
      <use xlink:href="#DejaVuSans-33"/>
     </g>
    </g>
   </g>
   <g id="text_57">
    <g clip-path="url(#p248d2e3181)">
     <!-- 4 -->
     <g transform="translate(332.1201 32.44245) scale(0.12 -0.12)">
      <use xlink:href="#DejaVuSans-34"/>
     </g>
    </g>
   </g>
   <g id="text_58">
    <g clip-path="url(#p248d2e3181)">
     <!-- 5 -->
     <g transform="translate(87.5433 237.94485) scale(0.12 -0.12)">
      <use xlink:href="#DejaVuSans-35"/>
     </g>
    </g>
   </g>
   <g id="text_59">
    <g clip-path="url(#p248d2e3181)">
     <!-- 6 -->
     <g transform="translate(344.6625 449.23605) scale(0.12 -0.12)">
      <use xlink:href="#DejaVuSans-36"/>
     </g>
    </g>
   </g>
   <g id="text_60">
    <g clip-path="url(#p248d2e3181)">
     <!-- 7 -->
     <g transform="translate(357.6873 420.29205) scale(0.12 -0.12)">
      <use xlink:href="#DejaVuSans-37"/>
     </g>
    </g>
   </g>
   <g id="text_61">
    <g clip-path="url(#p248d2e3181)">
     <!-- 8 -->
     <g transform="translate(32.5497 465.15525) scale(0.12 -0.12)">
      <use xlink:href="#DejaVuSans-38"/>
     </g>
    </g>
   </g>
   <g id="text_62">
    <g clip-path="url(#p248d2e3181)">
     <!-- 9 -->
     <g transform="translate(105.8745 285.70245) scale(0.12 -0.12)">
      <use xlink:href="#DejaVuSans-39"/>
     </g>
    </g>
   </g>
   <g id="text_63">
    <g clip-path="url(#p248d2e3181)">
     <!-- 10 -->
     <g transform="translate(473.0226 445.37685) scale(0.12 -0.12)">
      <use xlink:href="#DejaVuSans-31"/>
      <use xlink:href="#DejaVuSans-30" x="63.623047"/>
     </g>
    </g>
   </g>
   <g id="text_64">
    <g clip-path="url(#p248d2e3181)">
     <!-- 11 -->
     <g transform="translate(69.2538 267.85365) scale(0.12 -0.12)">
      <use xlink:href="#DejaVuSans-31"/>
      <use xlink:href="#DejaVuSans-31" x="63.623047"/>
     </g>
    </g>
   </g>
   <g id="text_65">
    <g clip-path="url(#p248d2e3181)">
     <!-- 12 -->
     <g transform="translate(473.0226 439.10565) scale(0.12 -0.12)">
      <use xlink:href="#DejaVuSans-31"/>
      <use xlink:href="#DejaVuSans-32" x="63.623047"/>
     </g>
    </g>
   </g>
   <g id="text_66">
    <g clip-path="url(#p248d2e3181)">
     <!-- 13 -->
     <g transform="translate(408.8634 328.15365) scale(0.12 -0.12)">
      <use xlink:href="#DejaVuSans-31"/>
      <use xlink:href="#DejaVuSans-33" x="63.623047"/>
     </g>
    </g>
   </g>
   <g id="text_67">
    <g clip-path="url(#p248d2e3181)">
     <!-- 14 -->
     <g transform="translate(421.4058 146.77125) scale(0.12 -0.12)">
      <use xlink:href="#DejaVuSans-31"/>
      <use xlink:href="#DejaVuSans-34" x="63.623047"/>
     </g>
    </g>
   </g>
  </g>
 </g>
 <defs>
  <clipPath id="p248d2e3181">
   <rect x="10.8" y="10.8" width="482.4" height="482.4"/>
  </clipPath>
 </defs>
</svg>
