<?xml version="1.0" encoding="utf-8" standalone="no"?>
<!DOCTYPE svg PUBLIC "-//W3C//DTD SVG 1.1//EN"
  "http://www.w3.org/Graphics/SVG/1.1/DTD/svg11.dtd">
<svg xmlns:xlink="http://www.w3.org/1999/xlink" width="504pt" height="504pt" viewBox="0 0 504 504" xmlns="http://www.w3.org/2000/svg" version="1.1">
 <metadata>
  <rdf:RDF xmlns:dc="http://purl.org/dc/elements/1.1/" xmlns:cc="http://creativecommons.org/ns#" xmlns:rdf="http://www.w3.org/1999/02/22-rdf-syntax-ns#">
   <cc:Work>
    <dc:type rdf:resource="http://purl.org/dc/dcmitype/StillImage"/>
    <dc:date>2024-10-29T14:59:39.420790</dc:date>
    <dc:format>image/svg+xml</dc:format>
    <dc:creator>
     <cc:Agent>
      <dc:title>Matplotlib v3.9.2, https://matplotlib.org/</dc:title>
     </cc:Agent>
    </dc:creator>
   </cc:Work>
  </rdf:RDF>
 </metadata>
 <defs>
  <style type="text/css">*{stroke-linejoin: round; stroke-linecap: butt}</style>
 </defs>
 <g id="figure_1">
  <g id="patch_1">
   <path d="M 0 504 
L 504 504 
L 504 0 
L 0 0 
L 0 504 
z
" style="fill: none; opacity: 0"/>
  </g>
  <g id="axes_1">
   <g id="patch_2">
    <path d="M 10.8 493.2 
L 493.2 493.2 
L 493.2 10.8 
L 10.8 10.8 
L 10.8 493.2 
z
" style="fill: none; opacity: 0"/>
   </g>
   <g id="LineCollection_1">
    <path d="M 408.78 264.5424 
L 116.928 226.4328 
" clip-path="url(#pcbbe1751ad)" style="fill: none; stroke: #000000"/>
    <path d="M 408.78 264.5424 
L 283.8384 309.4056 
" clip-path="url(#pcbbe1751ad)" style="fill: none; stroke: #000000"/>
    <path d="M 408.78 264.5424 
L 135.7416 412.1568 
" clip-path="url(#pcbbe1751ad)" style="fill: none; stroke: #000000"/>
    <path d="M 408.78 264.5424 
L 481.14 200.3832 
" clip-path="url(#pcbbe1751ad)" style="fill: none; stroke: #000000"/>
    <path d="M 408.78 264.5424 
L 440.6184 114.9984 
" clip-path="url(#pcbbe1751ad)" style="fill: none; stroke: #000000"/>
    <path d="M 408.78 264.5424 
L 188.8056 135.2592 
" clip-path="url(#pcbbe1751ad)" style="fill: none; stroke: #000000"/>
    <path d="M 481.14 200.3832 
L 431.4528 277.5672 
" clip-path="url(#pcbbe1751ad)" style="fill: none; stroke: #000000"/>
    <path d="M 481.14 200.3832 
L 161.3088 297.3456 
" clip-path="url(#pcbbe1751ad)" style="fill: none; stroke: #000000"/>
    <path d="M 409.2624 102.9384 
L 135.7416 412.1568 
" clip-path="url(#pcbbe1751ad)" style="fill: none; stroke: #000000"/>
    <path d="M 409.2624 102.9384 
L 161.3088 297.3456 
" clip-path="url(#pcbbe1751ad)" style="fill: none; stroke: #000000"/>
    <path d="M 409.2624 102.9384 
L 16.5888 487.4112 
" clip-path="url(#pcbbe1751ad)" style="fill: none; stroke: #000000"/>
    <path d="M 409.2624 102.9384 
L 188.8056 135.2592 
" clip-path="url(#pcbbe1751ad)" style="fill: none; stroke: #000000"/>
    <path d="M 188.8056 135.2592 
L 439.6536 320.9832 
" clip-path="url(#pcbbe1751ad)" style="fill: none; stroke: #000000"/>
    <path d="M 188.8056 135.2592 
L 440.6184 114.9984 
" clip-path="url(#pcbbe1751ad)" style="fill: none; stroke: #000000"/>
    <path d="M 188.8056 135.2592 
L 135.7416 412.1568 
" clip-path="url(#pcbbe1751ad)" style="fill: none; stroke: #000000"/>
    <path d="M 353.304 313.2648 
L 439.6536 320.9832 
" clip-path="url(#pcbbe1751ad)" style="fill: none; stroke: #000000"/>
    <path d="M 353.304 313.2648 
L 16.5888 487.4112 
" clip-path="url(#pcbbe1751ad)" style="fill: none; stroke: #000000"/>
    <path d="M 439.6536 320.9832 
L 13.6944 200.3832 
" clip-path="url(#pcbbe1751ad)" style="fill: none; stroke: #000000"/>
    <path d="M 439.6536 320.9832 
L 431.4528 277.5672 
" clip-path="url(#pcbbe1751ad)" style="fill: none; stroke: #000000"/>
    <path d="M 16.5888 487.4112 
L 161.3088 297.3456 
" clip-path="url(#pcbbe1751ad)" style="fill: none; stroke: #000000"/>
    <path d="M 16.5888 487.4112 
L 13.6944 200.3832 
" clip-path="url(#pcbbe1751ad)" style="fill: none; stroke: #000000"/>
    <path d="M 16.5888 487.4112 
L 135.7416 412.1568 
" clip-path="url(#pcbbe1751ad)" style="fill: none; stroke: #000000"/>
    <path d="M 16.5888 487.4112 
L 283.8384 309.4056 
" clip-path="url(#pcbbe1751ad)" style="fill: none; stroke: #000000"/>
    <path d="M 16.5888 487.4112 
L 431.4528 277.5672 
" clip-path="url(#pcbbe1751ad)" style="fill: none; stroke: #000000"/>
    <path d="M 379.836 24.3072 
L 440.6184 114.9984 
" clip-path="url(#pcbbe1751ad)" style="fill: none; stroke: #000000"/>
    <path d="M 379.836 24.3072 
L 13.6944 200.3832 
" clip-path="url(#pcbbe1751ad)" style="fill: none; stroke: #000000"/>
    <path d="M 116.928 226.4328 
L 431.4528 277.5672 
" clip-path="url(#pcbbe1751ad)" style="fill: none; stroke: #000000"/>
    <path d="M 13.6944 200.3832 
L 431.4528 277.5672 
" clip-path="url(#pcbbe1751ad)" style="fill: none; stroke: #000000"/>
    <path d="M 13.6944 200.3832 
L 161.3088 297.3456 
" clip-path="url(#pcbbe1751ad)" style="fill: none; stroke: #000000"/>
    <path d="M 193.6296 241.8696 
L 283.8384 309.4056 
" clip-path="url(#pcbbe1751ad)" style="fill: none; stroke: #000000"/>
   </g>
   <g id="text_1">
    <g id="patch_3">
     <path d="M 255.528981 252.436721 
L 268.146863 254.084345 
Q 271.12161 254.472783 271.510047 251.498037 
L 272.763165 241.901381 
Q 273.151602 238.926635 270.176856 238.538197 
L 257.558974 236.890572 
Q 254.584227 236.502134 254.195789 239.476881 
L 252.942672 249.073537 
Q 252.554234 252.048283 255.528981 252.436721 
z
" clip-path="url(#pcbbe1751ad)" style="fill: #ffffff; stroke: #ffffff; stroke-linejoin: miter"/>
    </g>
    <g clip-path="url(#pcbbe1751ad)">
     <!-- 15 -->
     <g transform="translate(256.186695 247.399794) rotate(-352.560495) scale(0.1 -0.1)">
      <defs>
       <path id="DejaVuSans-31" d="M 794 531 
L 1825 531 
L 1825 4091 
L 703 3866 
L 703 4441 
L 1819 4666 
L 2450 4666 
L 2450 531 
L 3481 531 
L 3481 0 
L 794 0 
L 794 531 
z
" transform="scale(0.015625)"/>
       <path id="DejaVuSans-35" d="M 691 4666 
L 3169 4666 
L 3169 4134 
L 1269 4134 
L 1269 2991 
Q 1406 3038 1543 3061 
Q 1681 3084 1819 3084 
Q 2600 3084 3056 2656 
Q 3513 2228 3513 1497 
Q 3513 744 3044 326 
Q 2575 -91 1722 -91 
Q 1428 -91 1123 -41 
Q 819 9 494 109 
L 494 744 
Q 775 591 1075 516 
Q 1375 441 1709 441 
Q 2250 441 2565 725 
Q 2881 1009 2881 1497 
Q 2881 1984 2565 2268 
Q 2250 2553 1709 2553 
Q 1456 2553 1204 2497 
Q 953 2441 691 2322 
L 691 4666 
z
" transform="scale(0.015625)"/>
      </defs>
      <use xlink:href="#DejaVuSans-31"/>
      <use xlink:href="#DejaVuSans-35" x="63.623047"/>
     </g>
    </g>
   </g>
   <g id="text_2">
    <g id="patch_4">
     <path d="M 342.97185 296.501459 
L 354.948175 292.201079 
Q 357.77167 291.187238 356.757828 288.363742 
L 353.487132 279.25503 
Q 352.47329 276.431534 349.649795 277.445376 
L 337.67347 281.745756 
Q 334.849975 282.759598 335.863816 285.583093 
L 339.134513 294.691805 
Q 340.148354 297.515301 342.97185 296.501459 
z
" clip-path="url(#pcbbe1751ad)" style="fill: #ffffff; stroke: #ffffff; stroke-linejoin: miter"/>
    </g>
    <g clip-path="url(#pcbbe1751ad)">
     <!-- 18 -->
     <g transform="translate(341.255183 291.720634) rotate(-19.751861) scale(0.1 -0.1)">
      <defs>
       <path id="DejaVuSans-38" d="M 2034 2216 
Q 1584 2216 1326 1975 
Q 1069 1734 1069 1313 
Q 1069 891 1326 650 
Q 1584 409 2034 409 
Q 2484 409 2743 651 
Q 3003 894 3003 1313 
Q 3003 1734 2745 1975 
Q 2488 2216 2034 2216 
z
M 1403 2484 
Q 997 2584 770 2862 
Q 544 3141 544 3541 
Q 544 4100 942 4425 
Q 1341 4750 2034 4750 
Q 2731 4750 3128 4425 
Q 3525 4100 3525 3541 
Q 3525 3141 3298 2862 
Q 3072 2584 2669 2484 
Q 3125 2378 3379 2068 
Q 3634 1759 3634 1313 
Q 3634 634 3220 271 
Q 2806 -91 2034 -91 
Q 1263 -91 848 271 
Q 434 634 434 1313 
Q 434 1759 690 2068 
Q 947 2378 1403 2484 
z
M 1172 3481 
Q 1172 3119 1398 2916 
Q 1625 2713 2034 2713 
Q 2441 2713 2670 2916 
Q 2900 3119 2900 3481 
Q 2900 3844 2670 4047 
Q 2441 4250 2034 4250 
Q 1625 4250 1398 4047 
Q 1172 3844 1172 3481 
z
" transform="scale(0.015625)"/>
      </defs>
      <use xlink:href="#DejaVuSans-31"/>
      <use xlink:href="#DejaVuSans-38" x="63.623047"/>
     </g>
    </g>
   </g>
   <g id="text_3">
    <g id="patch_5">
     <path d="M 270.390976 348.271848 
L 281.584794 342.220066 
Q 284.223808 340.79332 282.797062 338.154306 
L 278.19432 329.640736 
Q 276.767573 327.001722 274.128559 328.428468 
L 262.934741 334.48025 
Q 260.295727 335.906996 261.722473 338.54601 
L 266.325216 347.05958 
Q 267.751962 349.698594 270.390976 348.271848 
z
" clip-path="url(#pcbbe1751ad)" style="fill: #ffffff; stroke: #ffffff; stroke-linejoin: miter"/>
    </g>
    <g clip-path="url(#pcbbe1751ad)">
     <!-- 16 -->
     <g transform="translate(267.975168 343.803392) rotate(-28.397254) scale(0.1 -0.1)">
      <defs>
       <path id="DejaVuSans-36" d="M 2113 2584 
Q 1688 2584 1439 2293 
Q 1191 2003 1191 1497 
Q 1191 994 1439 701 
Q 1688 409 2113 409 
Q 2538 409 2786 701 
Q 3034 994 3034 1497 
Q 3034 2003 2786 2293 
Q 2538 2584 2113 2584 
z
M 3366 4563 
L 3366 3988 
Q 3128 4100 2886 4159 
Q 2644 4219 2406 4219 
Q 1781 4219 1451 3797 
Q 1122 3375 1075 2522 
Q 1259 2794 1537 2939 
Q 1816 3084 2150 3084 
Q 2853 3084 3261 2657 
Q 3669 2231 3669 1497 
Q 3669 778 3244 343 
Q 2819 -91 2113 -91 
Q 1303 -91 875 529 
Q 447 1150 447 2328 
Q 447 3434 972 4092 
Q 1497 4750 2381 4750 
Q 2619 4750 2861 4703 
Q 3103 4656 3366 4563 
z
" transform="scale(0.015625)"/>
      </defs>
      <use xlink:href="#DejaVuSans-31"/>
      <use xlink:href="#DejaVuSans-36" x="63.623047"/>
     </g>
    </g>
   </g>
   <g id="text_4">
    <g id="patch_6">
     <path d="M 445.400815 242.548691 
L 454.922098 234.106487 
Q 457.166801 232.116184 455.176497 229.871481 
L 448.755696 222.629975 
Q 446.765392 220.385272 444.520689 222.375575 
L 434.999406 230.817779 
Q 432.754703 232.808082 434.745007 235.052786 
L 441.165809 242.294291 
Q 443.156112 244.538995 445.400815 242.548691 
z
" clip-path="url(#pcbbe1751ad)" style="fill: #ffffff; stroke: #ffffff; stroke-linejoin: miter"/>
    </g>
    <g clip-path="url(#pcbbe1751ad)">
     <!-- 18 -->
     <g transform="translate(442.030775 238.747894) rotate(-41.562335) scale(0.1 -0.1)">
      <use xlink:href="#DejaVuSans-31"/>
      <use xlink:href="#DejaVuSans-38" x="63.623047"/>
     </g>
    </g>
   </g>
   <g id="text_5">
    <g id="patch_7">
     <path d="M 431.042232 197.622442 
L 433.692037 185.176391 
Q 434.316745 182.242156 431.382509 181.617447 
L 421.916542 179.602113 
Q 418.982306 178.977404 418.357598 181.91164 
L 415.707794 194.35769 
Q 415.083086 197.291926 418.017321 197.916634 
L 427.483288 199.931969 
Q 430.417524 200.556677 431.042232 197.622442 
z
" clip-path="url(#pcbbe1751ad)" style="fill: #ffffff; stroke: #ffffff; stroke-linejoin: miter"/>
    </g>
    <g clip-path="url(#pcbbe1751ad)">
     <!-- 16 -->
     <g transform="translate(426.073899 196.564667) rotate(-77.980998) scale(0.1 -0.1)">
      <use xlink:href="#DejaVuSans-31"/>
      <use xlink:href="#DejaVuSans-36" x="63.623047"/>
     </g>
    </g>
   </g>
   <g id="text_6">
    <g id="patch_8">
     <path d="M 289.335219 203.435081 
L 300.305805 209.882706 
Q 302.892191 211.402775 304.412259 208.816389 
L 309.316065 200.472601 
Q 310.836133 197.886216 308.249748 196.366147 
L 297.279162 189.918522 
Q 294.692776 188.398453 293.172707 190.984839 
L 288.268902 199.328627 
Q 286.748833 201.915012 289.335219 203.435081 
z
" clip-path="url(#pcbbe1751ad)" style="fill: #ffffff; stroke: #ffffff; stroke-linejoin: miter"/>
    </g>
    <g clip-path="url(#pcbbe1751ad)">
     <!-- 10 -->
     <g transform="translate(291.909044 199.055737) rotate(-329.556424) scale(0.1 -0.1)">
      <defs>
       <path id="DejaVuSans-30" d="M 2034 4250 
Q 1547 4250 1301 3770 
Q 1056 3291 1056 2328 
Q 1056 1369 1301 889 
Q 1547 409 2034 409 
Q 2525 409 2770 889 
Q 3016 1369 3016 2328 
Q 3016 3291 2770 3770 
Q 2525 4250 2034 4250 
z
M 2034 4750 
Q 2819 4750 3233 4129 
Q 3647 3509 3647 2328 
Q 3647 1150 3233 529 
Q 2819 -91 2034 -91 
Q 1250 -91 836 529 
Q 422 1150 422 2328 
Q 422 3509 836 4129 
Q 1250 4750 2034 4750 
z
" transform="scale(0.015625)"/>
      </defs>
      <use xlink:href="#DejaVuSans-31"/>
      <use xlink:href="#DejaVuSans-30" x="63.623047"/>
     </g>
    </g>
   </g>
   <g id="text_7">
    <g id="patch_9">
     <path d="M 459.443863 248.568159 
L 466.331761 237.86851 
Q 467.955627 235.346 465.433117 233.722134 
L 457.295393 228.483474 
Q 454.772883 226.859608 453.149017 229.382118 
L 446.261118 240.081767 
Q 444.637252 242.604277 447.159762 244.228143 
L 455.297486 249.466803 
Q 457.819997 251.090669 459.443863 248.568159 
z
" clip-path="url(#pcbbe1751ad)" style="fill: #ffffff; stroke: #ffffff; stroke-linejoin: miter"/>
    </g>
    <g clip-path="url(#pcbbe1751ad)">
     <!-- 14 -->
     <g transform="translate(455.172674 245.818581) rotate(-57.228591) scale(0.1 -0.1)">
      <defs>
       <path id="DejaVuSans-34" d="M 2419 4116 
L 825 1625 
L 2419 1625 
L 2419 4116 
z
M 2253 4666 
L 3047 4666 
L 3047 1625 
L 3713 1625 
L 3713 1100 
L 3047 1100 
L 3047 0 
L 2419 0 
L 2419 1100 
L 313 1100 
L 313 1709 
L 2253 4666 
z
" transform="scale(0.015625)"/>
      </defs>
      <use xlink:href="#DejaVuSans-31"/>
      <use xlink:href="#DejaVuSans-34" x="63.623047"/>
     </g>
    </g>
   </g>
   <g id="text_8">
    <g id="patch_10">
     <path d="M 317.408249 258.212723 
L 329.585921 254.52085 
Q 332.456885 253.650467 331.586502 250.779503 
L 328.778611 241.517654 
Q 327.908228 238.64669 325.037265 239.517073 
L 312.859593 243.208946 
Q 309.988629 244.079329 310.859011 246.950293 
L 313.666902 256.212142 
Q 314.537285 259.083106 317.408249 258.212723 
z
" clip-path="url(#pcbbe1751ad)" style="fill: #ffffff; stroke: #ffffff; stroke-linejoin: miter"/>
    </g>
    <g clip-path="url(#pcbbe1751ad)">
     <!-- 11 -->
     <g transform="translate(315.934492 253.351524) rotate(-16.865594) scale(0.1 -0.1)">
      <use xlink:href="#DejaVuSans-31"/>
      <use xlink:href="#DejaVuSans-31" x="63.623047"/>
     </g>
    </g>
   </g>
   <g id="text_9">
    <g id="patch_11">
     <path d="M 276.267006 265.122895 
L 280.482472 260.357263 
Q 282.470118 258.110206 280.223061 256.12256 
L 272.973963 249.710331 
Q 270.726907 247.722685 268.739261 249.969742 
L 264.523795 254.735375 
Q 262.536149 256.982431 264.783205 258.970077 
L 272.032304 265.382306 
Q 274.27936 267.369952 276.267006 265.122895 
z
" clip-path="url(#pcbbe1751ad)" style="fill: #ffffff; stroke: #ffffff; stroke-linejoin: miter"/>
    </g>
    <g clip-path="url(#pcbbe1751ad)">
     <!-- 9 -->
     <g transform="translate(272.462224 261.757355) rotate(-48.50546) scale(0.1 -0.1)">
      <defs>
       <path id="DejaVuSans-39" d="M 703 97 
L 703 672 
Q 941 559 1184 500 
Q 1428 441 1663 441 
Q 2288 441 2617 861 
Q 2947 1281 2994 2138 
Q 2813 1869 2534 1725 
Q 2256 1581 1919 1581 
Q 1219 1581 811 2004 
Q 403 2428 403 3163 
Q 403 3881 828 4315 
Q 1253 4750 1959 4750 
Q 2769 4750 3195 4129 
Q 3622 3509 3622 2328 
Q 3622 1225 3098 567 
Q 2575 -91 1691 -91 
Q 1453 -91 1209 -44 
Q 966 3 703 97 
z
M 1959 2075 
Q 2384 2075 2632 2365 
Q 2881 2656 2881 3163 
Q 2881 3666 2632 3958 
Q 2384 4250 1959 4250 
Q 1534 4250 1286 3958 
Q 1038 3666 1038 3163 
Q 1038 2656 1286 2365 
Q 1534 2075 1959 2075 
z
" transform="scale(0.015625)"/>
      </defs>
      <use xlink:href="#DejaVuSans-39"/>
     </g>
    </g>
   </g>
   <g id="text_10">
    <g id="patch_12">
     <path d="M 285.117413 210.23512 
L 295.131421 202.38367 
Q 297.492287 200.53264 295.641258 198.171774 
L 289.66976 190.555521 
Q 287.81873 188.194654 285.457864 190.045684 
L 275.443856 197.897134 
Q 273.08299 199.748163 274.934019 202.10903 
L 280.905517 209.725283 
Q 282.756547 212.086149 285.117413 210.23512 
z
" clip-path="url(#pcbbe1751ad)" style="fill: #ffffff; stroke: #ffffff; stroke-linejoin: miter"/>
    </g>
    <g clip-path="url(#pcbbe1751ad)">
     <!-- 14 -->
     <g transform="translate(281.983196 206.237632) rotate(-38.098103) scale(0.1 -0.1)">
      <use xlink:href="#DejaVuSans-31"/>
      <use xlink:href="#DejaVuSans-34" x="63.623047"/>
     </g>
    </g>
   </g>
   <g id="text_11">
    <g id="patch_13">
     <path d="M 216.138156 303.000292 
L 220.684345 298.549048 
Q 222.827931 296.45023 220.729113 294.306643 
L 213.958237 287.391345 
Q 211.859419 285.247759 209.715833 287.346578 
L 205.169644 291.797821 
Q 203.026058 293.89664 205.124876 296.040226 
L 211.895752 302.955524 
Q 213.99457 305.09911 216.138156 303.000292 
z
" clip-path="url(#pcbbe1751ad)" style="fill: #ffffff; stroke: #ffffff; stroke-linejoin: miter"/>
    </g>
    <g clip-path="url(#pcbbe1751ad)">
     <!-- 7 -->
     <g transform="translate(212.584376 299.370709) rotate(-44.395411) scale(0.1 -0.1)">
      <defs>
       <path id="DejaVuSans-37" d="M 525 4666 
L 3525 4666 
L 3525 4397 
L 1831 0 
L 1172 0 
L 2766 4134 
L 525 4134 
L 525 4666 
z
" transform="scale(0.015625)"/>
      </defs>
      <use xlink:href="#DejaVuSans-37"/>
     </g>
    </g>
   </g>
   <g id="text_12">
    <g id="patch_14">
     <path d="M 293.877544 127.77764 
L 306.467955 125.931781 
Q 309.436224 125.496608 309.001051 122.528339 
L 307.597165 112.952577 
Q 307.161992 109.984308 304.193722 110.419481 
L 291.603312 112.26534 
Q 288.635043 112.700513 289.070216 115.668782 
L 290.474102 125.244544 
Q 290.909275 128.212813 293.877544 127.77764 
z
" clip-path="url(#pcbbe1751ad)" style="fill: #ffffff; stroke: #ffffff; stroke-linejoin: miter"/>
    </g>
    <g clip-path="url(#pcbbe1751ad)">
     <!-- 17 -->
     <g transform="translate(293.140697 122.75168) rotate(-8.340619) scale(0.1 -0.1)">
      <use xlink:href="#DejaVuSans-31"/>
      <use xlink:href="#DejaVuSans-37" x="63.623047"/>
     </g>
    </g>
   </g>
   <g id="text_13">
    <g id="patch_15">
     <path d="M 304.451387 230.635351 
L 314.678394 238.20727 
Q 317.089477 239.992398 318.874605 237.581316 
L 324.633503 229.803064 
Q 326.418631 227.391982 324.007549 225.606854 
L 313.780542 218.034935 
Q 311.369459 216.249807 309.584331 218.660889 
L 303.825433 226.439141 
Q 302.040305 228.850223 304.451387 230.635351 
z
" clip-path="url(#pcbbe1751ad)" style="fill: #ffffff; stroke: #ffffff; stroke-linejoin: miter"/>
    </g>
    <g clip-path="url(#pcbbe1751ad)">
     <!-- 17 -->
     <g transform="translate(307.474018 226.552836) rotate(-323.484322) scale(0.1 -0.1)">
      <use xlink:href="#DejaVuSans-31"/>
      <use xlink:href="#DejaVuSans-37" x="63.623047"/>
     </g>
    </g>
   </g>
   <g id="text_14">
    <g id="patch_16">
     <path d="M 312.169281 133.197782 
L 318.511286 132.687506 
Q 321.501622 132.446904 321.261021 129.456568 
L 320.484829 119.809619 
Q 320.244228 116.819283 317.253891 117.059884 
L 310.911887 117.570161 
Q 307.92155 117.810762 308.162152 120.801099 
L 308.938343 130.448048 
Q 309.178945 133.438384 312.169281 133.197782 
z
" clip-path="url(#pcbbe1751ad)" style="fill: #ffffff; stroke: #ffffff; stroke-linejoin: miter"/>
    </g>
    <g clip-path="url(#pcbbe1751ad)">
     <!-- 5 -->
     <g transform="translate(311.761887 128.134458) rotate(-4.600096) scale(0.1 -0.1)">
      <use xlink:href="#DejaVuSans-35"/>
     </g>
    </g>
   </g>
   <g id="text_15">
    <g id="patch_17">
     <path d="M 169.373895 278.307378 
L 170.571399 272.058587 
Q 171.136037 269.112202 168.189652 268.547564 
L 158.684492 266.726018 
Q 155.738107 266.161379 155.173469 269.107764 
L 153.975965 275.356555 
Q 153.411327 278.30294 156.357712 278.867578 
L 165.862872 280.689125 
Q 168.809257 281.253763 169.373895 278.307378 
z
" clip-path="url(#pcbbe1751ad)" style="fill: #ffffff; stroke: #ffffff; stroke-linejoin: miter"/>
    </g>
    <g clip-path="url(#pcbbe1751ad)">
     <!-- 2 -->
     <g transform="translate(164.384991 277.351316) rotate(-79.1515) scale(0.1 -0.1)">
      <defs>
       <path id="DejaVuSans-32" d="M 1228 531 
L 3431 531 
L 3431 0 
L 469 0 
L 469 531 
Q 828 903 1448 1529 
Q 2069 2156 2228 2338 
Q 2531 2678 2651 2914 
Q 2772 3150 2772 3378 
Q 2772 3750 2511 3984 
Q 2250 4219 1831 4219 
Q 1534 4219 1204 4116 
Q 875 4013 500 3803 
L 500 4441 
Q 881 4594 1212 4672 
Q 1544 4750 1819 4750 
Q 2544 4750 2975 4387 
Q 3406 4025 3406 3419 
Q 3406 3131 3298 2873 
Q 3191 2616 2906 2266 
Q 2828 2175 2409 1742 
Q 1991 1309 1228 531 
z
" transform="scale(0.015625)"/>
      </defs>
      <use xlink:href="#DejaVuSans-32"/>
     </g>
    </g>
   </g>
   <g id="text_16">
    <g id="patch_18">
     <path d="M 392.61013 324.648513 
L 398.947364 325.21497 
Q 401.935451 325.482062 402.202542 322.493975 
L 403.064191 312.854283 
Q 403.331282 309.866196 400.343196 309.599105 
L 394.005962 309.032648 
Q 391.017875 308.765556 390.750784 311.753643 
L 389.889135 321.393335 
Q 389.622044 324.381422 392.61013 324.648513 
z
" clip-path="url(#pcbbe1751ad)" style="fill: #ffffff; stroke: #ffffff; stroke-linejoin: miter"/>
    </g>
    <g clip-path="url(#pcbbe1751ad)">
     <!-- 5 -->
     <g transform="translate(393.062378 319.588998) rotate(-354.892164) scale(0.1 -0.1)">
      <use xlink:href="#DejaVuSans-35"/>
     </g>
    </g>
   </g>
   <g id="text_17">
    <g id="patch_19">
     <path d="M 182.896129 410.223816 
L 194.198927 404.378099 
Q 196.863633 402.999935 195.485469 400.335228 
L 191.039451 391.738773 
Q 189.661286 389.074067 186.99658 390.452231 
L 175.693782 396.297948 
Q 173.029076 397.676112 174.407241 400.340819 
L 178.853258 408.937274 
Q 180.231423 411.60198 182.896129 410.223816 
z
" clip-path="url(#pcbbe1751ad)" style="fill: #ffffff; stroke: #ffffff; stroke-linejoin: miter"/>
    </g>
    <g clip-path="url(#pcbbe1751ad)">
     <!-- 12 -->
     <g transform="translate(180.56258 405.711857) rotate(-27.347643) scale(0.1 -0.1)">
      <use xlink:href="#DejaVuSans-31"/>
      <use xlink:href="#DejaVuSans-32" x="63.623047"/>
     </g>
    </g>
   </g>
   <g id="text_18">
    <g id="patch_20">
     <path d="M 218.414729 266.491985 
L 230.658458 269.958499 
Q 233.544995 270.775752 234.362248 267.889215 
L 236.99874 258.577125 
Q 237.815993 255.690588 234.929456 254.873335 
L 222.685727 251.406821 
Q 219.799189 250.589568 218.981937 253.476105 
L 216.345445 262.788195 
Q 215.528192 265.674732 218.414729 266.491985 
z
" clip-path="url(#pcbbe1751ad)" style="fill: #ffffff; stroke: #ffffff; stroke-linejoin: miter"/>
    </g>
    <g clip-path="url(#pcbbe1751ad)">
     <!-- 12 -->
     <g transform="translate(219.798525 261.604416) rotate(-344.191819) scale(0.1 -0.1)">
      <use xlink:href="#DejaVuSans-31"/>
      <use xlink:href="#DejaVuSans-32" x="63.623047"/>
     </g>
    </g>
   </g>
   <g id="text_19">
    <g id="patch_21">
     <path d="M 426.669485 294.478556 
L 429.031332 306.982447 
Q 429.588152 309.93032 432.536024 309.373499 
L 442.045983 307.577174 
Q 444.993855 307.020354 444.437035 304.072481 
L 442.075189 291.56859 
Q 441.518368 288.620717 438.570496 289.177538 
L 429.060537 290.973863 
Q 426.112665 291.530683 426.669485 294.478556 
z
" clip-path="url(#pcbbe1751ad)" style="fill: #ffffff; stroke: #ffffff; stroke-linejoin: miter"/>
    </g>
    <g clip-path="url(#pcbbe1751ad)">
     <!-- 20 -->
     <g transform="translate(431.660909 293.535731) rotate(-280.696511) scale(0.1 -0.1)">
      <use xlink:href="#DejaVuSans-32"/>
      <use xlink:href="#DejaVuSans-30" x="63.623047"/>
     </g>
    </g>
   </g>
   <g id="text_20">
    <g id="patch_22">
     <path d="M 93.257752 399.65933 
L 97.112154 394.597216 
Q 98.929553 392.210365 96.542702 390.392966 
L 88.84262 384.529959 
Q 86.455769 382.71256 84.638369 385.099411 
L 80.783968 390.161525 
Q 78.966569 392.548376 81.35342 394.365776 
L 89.053502 400.228782 
Q 91.440353 402.046181 93.257752 399.65933 
z
" clip-path="url(#pcbbe1751ad)" style="fill: #ffffff; stroke: #ffffff; stroke-linejoin: miter"/>
    </g>
    <g clip-path="url(#pcbbe1751ad)">
     <!-- 5 -->
     <g transform="translate(89.216266 396.582056) rotate(-52.713581) scale(0.1 -0.1)">
      <use xlink:href="#DejaVuSans-35"/>
     </g>
    </g>
   </g>
   <g id="text_21">
    <g id="patch_23">
     <path d="M 7.270869 340.796231 
L 7.335025 347.158407 
Q 7.365276 350.158255 10.365123 350.128004 
L 20.042756 350.030415 
Q 23.042604 350.000164 23.012353 347.000316 
L 22.948197 340.63814 
Q 22.917946 337.638292 19.918099 337.668543 
L 10.240466 337.766133 
Q 7.240618 337.796383 7.270869 340.796231 
z
" clip-path="url(#pcbbe1751ad)" style="fill: #ffffff; stroke: #ffffff; stroke-linejoin: miter"/>
    </g>
    <g clip-path="url(#pcbbe1751ad)">
     <!-- 8 -->
     <g transform="translate(12.350298 340.74501) rotate(-270.577753) scale(0.1 -0.1)">
      <use xlink:href="#DejaVuSans-38"/>
     </g>
    </g>
   </g>
   <g id="text_22">
    <g id="patch_24">
     <path d="M 77.661077 458.110868 
L 83.0405 454.713338 
Q 85.576967 453.111359 83.974988 450.574892 
L 78.806937 442.392145 
Q 77.204958 439.855678 74.668492 441.457657 
L 69.289068 444.855187 
Q 66.752602 446.457166 68.354581 448.993633 
L 73.522632 457.17638 
Q 75.124611 459.712847 77.661077 458.110868 
z
" clip-path="url(#pcbbe1751ad)" style="fill: #ffffff; stroke: #ffffff; stroke-linejoin: miter"/>
    </g>
    <g clip-path="url(#pcbbe1751ad)">
     <!-- 4 -->
     <g transform="translate(74.94856 453.816049) rotate(-32.275644) scale(0.1 -0.1)">
      <use xlink:href="#DejaVuSans-34"/>
     </g>
    </g>
   </g>
   <g id="text_23">
    <g id="patch_25">
     <path d="M 151.909458 406.697613 
L 157.204848 403.17054 
Q 159.701692 401.507479 158.038632 399.010635 
L 152.67353 390.955712 
Q 151.010469 388.458868 148.513625 390.121929 
L 143.218235 393.649002 
Q 140.721391 395.312063 142.384451 397.808907 
L 147.749554 405.86383 
Q 149.412614 408.360674 151.909458 406.697613 
z
" clip-path="url(#pcbbe1751ad)" style="fill: #ffffff; stroke: #ffffff; stroke-linejoin: miter"/>
    </g>
    <g clip-path="url(#pcbbe1751ad)">
     <!-- 1 -->
     <g transform="translate(149.093516 402.469884) rotate(-33.666194) scale(0.1 -0.1)">
      <use xlink:href="#DejaVuSans-31"/>
     </g>
    </g>
   </g>
   <g id="text_24">
    <g id="patch_26">
     <path d="M 224.72077 390.919961 
L 230.398298 388.048188 
Q 233.075325 386.69411 231.721247 384.017083 
L 227.352936 375.380882 
Q 225.998859 372.703855 223.321832 374.057933 
L 217.644303 376.929706 
Q 214.967276 378.283784 216.321354 380.960811 
L 220.689665 389.597011 
Q 222.043742 392.274038 224.72077 390.919961 
z
" clip-path="url(#pcbbe1751ad)" style="fill: #ffffff; stroke: #ffffff; stroke-linejoin: miter"/>
    </g>
    <g clip-path="url(#pcbbe1751ad)">
     <!-- 9 -->
     <g transform="translate(222.428006 386.38714) rotate(-26.830923) scale(0.1 -0.1)">
      <use xlink:href="#DejaVuSans-39"/>
     </g>
    </g>
   </g>
   <g id="text_25">
    <g id="patch_27">
     <path d="M 400.173052 68.73172 
L 407.257541 79.302228 
Q 408.927755 81.794293 411.419819 80.124079 
L 419.459324 74.7359 
Q 421.951389 73.065687 420.281175 70.573622 
L 413.196686 60.003114 
Q 411.526472 57.511049 409.034408 59.181263 
L 400.994903 64.569442 
Q 398.502838 66.239655 400.173052 68.73172 
z
" clip-path="url(#pcbbe1751ad)" style="fill: #ffffff; stroke: #ffffff; stroke-linejoin: miter"/>
    </g>
    <g clip-path="url(#pcbbe1751ad)">
     <!-- 14 -->
     <g transform="translate(404.392689 65.903666) rotate(-303.830498) scale(0.1 -0.1)">
      <use xlink:href="#DejaVuSans-31"/>
      <use xlink:href="#DejaVuSans-34" x="63.623047"/>
     </g>
    </g>
   </g>
   <g id="text_26">
    <g id="patch_28">
     <path d="M 197.297206 120.787756 
L 203.031141 118.03033 
Q 205.734765 116.730169 204.434603 114.026545 
L 200.240228 105.304543 
Q 198.940066 102.60092 196.236443 103.901081 
L 190.502508 106.658507 
Q 187.798884 107.958669 189.099046 110.662292 
L 193.293421 119.384294 
Q 194.593583 122.087918 197.297206 120.787756 
z
" clip-path="url(#pcbbe1751ad)" style="fill: #ffffff; stroke: #ffffff; stroke-linejoin: miter"/>
    </g>
    <g clip-path="url(#pcbbe1751ad)">
     <!-- 7 -->
     <g transform="translate(195.095735 116.209902) rotate(-25.682711) scale(0.1 -0.1)">
      <use xlink:href="#DejaVuSans-37"/>
     </g>
    </g>
   </g>
   <g id="text_27">
    <g id="patch_29">
     <path d="M 266.651842 258.716391 
L 279.211936 260.758369 
Q 282.173058 261.239779 282.654467 258.278657 
L 284.207514 248.725953 
Q 284.688924 245.764831 281.727802 245.283421 
L 269.167708 243.241443 
Q 266.206586 242.760033 265.725176 245.721155 
L 264.172129 255.273859 
Q 263.69072 258.234981 266.651842 258.716391 
z
" clip-path="url(#pcbbe1751ad)" style="fill: #ffffff; stroke: #ffffff; stroke-linejoin: miter"/>
    </g>
    <g clip-path="url(#pcbbe1751ad)">
     <!-- 12 -->
     <g transform="translate(267.466979 253.702532) rotate(-350.765833) scale(0.1 -0.1)">
      <use xlink:href="#DejaVuSans-31"/>
      <use xlink:href="#DejaVuSans-32" x="63.623047"/>
     </g>
    </g>
   </g>
   <g id="text_28">
    <g id="patch_30">
     <path d="M 214.892085 245.527717 
L 227.405305 247.839628 
Q 230.355377 248.384676 230.900425 245.434604 
L 232.658772 235.91755 
Q 233.20382 232.967479 230.253748 232.422431 
L 217.740528 230.110519 
Q 214.790456 229.565471 214.245408 232.515543 
L 212.487061 242.032597 
Q 211.942013 244.982669 214.892085 245.527717 
z
" clip-path="url(#pcbbe1751ad)" style="fill: #ffffff; stroke: #ffffff; stroke-linejoin: miter"/>
    </g>
    <g clip-path="url(#pcbbe1751ad)">
     <!-- 20 -->
     <g transform="translate(215.814976 240.532569) rotate(-349.532217) scale(0.1 -0.1)">
      <use xlink:href="#DejaVuSans-32"/>
      <use xlink:href="#DejaVuSans-30" x="63.623047"/>
     </g>
    </g>
   </g>
   <g id="text_29">
    <g id="patch_31">
     <path d="M 77.8796 251.923035 
L 88.515319 258.909242 
Q 91.022758 260.556286 92.669801 258.048847 
L 97.983231 249.959745 
Q 99.630274 247.452306 97.122835 245.805263 
L 86.487116 238.819055 
Q 83.979677 237.172012 82.332634 239.679451 
L 77.019204 247.768553 
Q 75.372161 250.275992 77.8796 251.923035 
z
" clip-path="url(#pcbbe1751ad)" style="fill: #ffffff; stroke: #ffffff; stroke-linejoin: miter"/>
    </g>
    <g clip-path="url(#pcbbe1751ad)">
     <!-- 13 -->
     <g transform="translate(80.668421 247.677366) rotate(-326.700579) scale(0.1 -0.1)">
      <defs>
       <path id="DejaVuSans-33" d="M 2597 2516 
Q 3050 2419 3304 2112 
Q 3559 1806 3559 1356 
Q 3559 666 3084 287 
Q 2609 -91 1734 -91 
Q 1441 -91 1130 -33 
Q 819 25 488 141 
L 488 750 
Q 750 597 1062 519 
Q 1375 441 1716 441 
Q 2309 441 2620 675 
Q 2931 909 2931 1356 
Q 2931 1769 2642 2001 
Q 2353 2234 1838 2234 
L 1294 2234 
L 1294 2753 
L 1863 2753 
Q 2328 2753 2575 2939 
Q 2822 3125 2822 3475 
Q 2822 3834 2567 4026 
Q 2313 4219 1838 4219 
Q 1578 4219 1281 4162 
Q 984 4106 628 3988 
L 628 4550 
Q 988 4650 1302 4700 
Q 1616 4750 1894 4750 
Q 2613 4750 3031 4423 
Q 3450 4097 3450 3541 
Q 3450 3153 3228 2886 
Q 3006 2619 2597 2516 
z
" transform="scale(0.015625)"/>
      </defs>
      <use xlink:href="#DejaVuSans-31"/>
      <use xlink:href="#DejaVuSans-33" x="63.623047"/>
     </g>
    </g>
   </g>
   <g id="text_30">
    <g id="patch_32">
     <path d="M 231.49155 280.007989 
L 236.584817 283.82113 
Q 238.986357 285.619074 240.784302 283.217534 
L 246.584546 275.470065 
Q 248.38249 273.068525 245.98095 271.27058 
L 240.887684 267.45744 
Q 238.486143 265.659495 236.688199 268.061035 
L 230.887955 275.808504 
Q 229.09001 278.210044 231.49155 280.007989 
z
" clip-path="url(#pcbbe1751ad)" style="fill: #ffffff; stroke: #ffffff; stroke-linejoin: miter"/>
    </g>
    <g clip-path="url(#pcbbe1751ad)">
     <!-- 6 -->
     <g transform="translate(234.535883 275.941631) rotate(-323.179157) scale(0.1 -0.1)">
      <use xlink:href="#DejaVuSans-36"/>
     </g>
    </g>
   </g>
   <g id="matplotlib.axis_1">
    <g id="xtick_1">
     <g id="line2d_1">
      <path d="M 10.8 493.2 
L 10.8 10.8 
" clip-path="url(#pcbbe1751ad)" style="fill: none; stroke: #b0b0b0; stroke-opacity: 0.3; stroke-width: 0.8; stroke-linecap: square"/>
     </g>
    </g>
    <g id="xtick_2">
     <g id="line2d_2">
      <path d="M 59.04 493.2 
L 59.04 10.8 
" clip-path="url(#pcbbe1751ad)" style="fill: none; stroke: #b0b0b0; stroke-opacity: 0.3; stroke-width: 0.8; stroke-linecap: square"/>
     </g>
    </g>
    <g id="xtick_3">
     <g id="line2d_3">
      <path d="M 107.28 493.2 
L 107.28 10.8 
" clip-path="url(#pcbbe1751ad)" style="fill: none; stroke: #b0b0b0; stroke-opacity: 0.3; stroke-width: 0.8; stroke-linecap: square"/>
     </g>
    </g>
    <g id="xtick_4">
     <g id="line2d_4">
      <path d="M 155.52 493.2 
L 155.52 10.8 
" clip-path="url(#pcbbe1751ad)" style="fill: none; stroke: #b0b0b0; stroke-opacity: 0.3; stroke-width: 0.8; stroke-linecap: square"/>
     </g>
    </g>
    <g id="xtick_5">
     <g id="line2d_5">
      <path d="M 203.76 493.2 
L 203.76 10.8 
" clip-path="url(#pcbbe1751ad)" style="fill: none; stroke: #b0b0b0; stroke-opacity: 0.3; stroke-width: 0.8; stroke-linecap: square"/>
     </g>
    </g>
    <g id="xtick_6">
     <g id="line2d_6">
      <path d="M 252 493.2 
L 252 10.8 
" clip-path="url(#pcbbe1751ad)" style="fill: none; stroke: #b0b0b0; stroke-opacity: 0.3; stroke-width: 0.8; stroke-linecap: square"/>
     </g>
    </g>
    <g id="xtick_7">
     <g id="line2d_7">
      <path d="M 300.24 493.2 
L 300.24 10.8 
" clip-path="url(#pcbbe1751ad)" style="fill: none; stroke: #b0b0b0; stroke-opacity: 0.3; stroke-width: 0.8; stroke-linecap: square"/>
     </g>
    </g>
    <g id="xtick_8">
     <g id="line2d_8">
      <path d="M 348.48 493.2 
L 348.48 10.8 
" clip-path="url(#pcbbe1751ad)" style="fill: none; stroke: #b0b0b0; stroke-opacity: 0.3; stroke-width: 0.8; stroke-linecap: square"/>
     </g>
    </g>
    <g id="xtick_9">
     <g id="line2d_9">
      <path d="M 396.72 493.2 
L 396.72 10.8 
" clip-path="url(#pcbbe1751ad)" style="fill: none; stroke: #b0b0b0; stroke-opacity: 0.3; stroke-width: 0.8; stroke-linecap: square"/>
     </g>
    </g>
    <g id="xtick_10">
     <g id="line2d_10">
      <path d="M 444.96 493.2 
L 444.96 10.8 
" clip-path="url(#pcbbe1751ad)" style="fill: none; stroke: #b0b0b0; stroke-opacity: 0.3; stroke-width: 0.8; stroke-linecap: square"/>
     </g>
    </g>
    <g id="xtick_11">
     <g id="line2d_11">
      <path d="M 493.2 493.2 
L 493.2 10.8 
" clip-path="url(#pcbbe1751ad)" style="fill: none; stroke: #b0b0b0; stroke-opacity: 0.3; stroke-width: 0.8; stroke-linecap: square"/>
     </g>
    </g>
   </g>
   <g id="matplotlib.axis_2">
    <g id="ytick_1">
     <g id="line2d_12">
      <path d="M 10.8 493.2 
L 493.2 493.2 
" clip-path="url(#pcbbe1751ad)" style="fill: none; stroke: #b0b0b0; stroke-opacity: 0.3; stroke-width: 0.8; stroke-linecap: square"/>
     </g>
    </g>
    <g id="ytick_2">
     <g id="line2d_13">
      <path d="M 10.8 444.96 
L 493.2 444.96 
" clip-path="url(#pcbbe1751ad)" style="fill: none; stroke: #b0b0b0; stroke-opacity: 0.3; stroke-width: 0.8; stroke-linecap: square"/>
     </g>
    </g>
    <g id="ytick_3">
     <g id="line2d_14">
      <path d="M 10.8 396.72 
L 493.2 396.72 
" clip-path="url(#pcbbe1751ad)" style="fill: none; stroke: #b0b0b0; stroke-opacity: 0.3; stroke-width: 0.8; stroke-linecap: square"/>
     </g>
    </g>
    <g id="ytick_4">
     <g id="line2d_15">
      <path d="M 10.8 348.48 
L 493.2 348.48 
" clip-path="url(#pcbbe1751ad)" style="fill: none; stroke: #b0b0b0; stroke-opacity: 0.3; stroke-width: 0.8; stroke-linecap: square"/>
     </g>
    </g>
    <g id="ytick_5">
     <g id="line2d_16">
      <path d="M 10.8 300.24 
L 493.2 300.24 
" clip-path="url(#pcbbe1751ad)" style="fill: none; stroke: #b0b0b0; stroke-opacity: 0.3; stroke-width: 0.8; stroke-linecap: square"/>
     </g>
    </g>
    <g id="ytick_6">
     <g id="line2d_17">
      <path d="M 10.8 252 
L 493.2 252 
" clip-path="url(#pcbbe1751ad)" style="fill: none; stroke: #b0b0b0; stroke-opacity: 0.3; stroke-width: 0.8; stroke-linecap: square"/>
     </g>
    </g>
    <g id="ytick_7">
     <g id="line2d_18">
      <path d="M 10.8 203.76 
L 493.2 203.76 
" clip-path="url(#pcbbe1751ad)" style="fill: none; stroke: #b0b0b0; stroke-opacity: 0.3; stroke-width: 0.8; stroke-linecap: square"/>
     </g>
    </g>
    <g id="ytick_8">
     <g id="line2d_19">
      <path d="M 10.8 155.52 
L 493.2 155.52 
" clip-path="url(#pcbbe1751ad)" style="fill: none; stroke: #b0b0b0; stroke-opacity: 0.3; stroke-width: 0.8; stroke-linecap: square"/>
     </g>
    </g>
    <g id="ytick_9">
     <g id="line2d_20">
      <path d="M 10.8 107.28 
L 493.2 107.28 
" clip-path="url(#pcbbe1751ad)" style="fill: none; stroke: #b0b0b0; stroke-opacity: 0.3; stroke-width: 0.8; stroke-linecap: square"/>
     </g>
    </g>
    <g id="ytick_10">
     <g id="line2d_21">
      <path d="M 10.8 59.04 
L 493.2 59.04 
" clip-path="url(#pcbbe1751ad)" style="fill: none; stroke: #b0b0b0; stroke-opacity: 0.3; stroke-width: 0.8; stroke-linecap: square"/>
     </g>
    </g>
    <g id="ytick_11">
     <g id="line2d_22">
      <path d="M 10.8 10.8 
L 493.2 10.8 
" clip-path="url(#pcbbe1751ad)" style="fill: none; stroke: #b0b0b0; stroke-opacity: 0.3; stroke-width: 0.8; stroke-linecap: square"/>
     </g>
    </g>
   </g>
   <g id="PathCollection_1">
    <defs>
     <path id="mcc99bbc350" d="M 0 8.660254 
C 2.296726 8.660254 4.499694 7.747755 6.123724 6.123724 
C 7.747755 4.499694 8.660254 2.296726 8.660254 0 
C 8.660254 -2.296726 7.747755 -4.499694 6.123724 -6.123724 
C 4.499694 -7.747755 2.296726 -8.660254 0 -8.660254 
C -2.296726 -8.660254 -4.499694 -7.747755 -6.123724 -6.123724 
C -7.747755 -4.499694 -8.660254 -2.296726 -8.660254 0 
C -8.660254 2.296726 -7.747755 4.499694 -6.123724 6.123724 
C -4.499694 7.747755 -2.296726 8.660254 0 8.660254 
z
" style="stroke: #1f78b4"/>
    </defs>
    <g clip-path="url(#pcbbe1751ad)">
     <use xlink:href="#mcc99bbc350" x="408.78" y="264.5424" style="fill: #1f78b4; stroke: #1f78b4"/>
     <use xlink:href="#mcc99bbc350" x="481.14" y="200.3832" style="fill: #1f78b4; stroke: #1f78b4"/>
     <use xlink:href="#mcc99bbc350" x="409.2624" y="102.9384" style="fill: #1f78b4; stroke: #1f78b4"/>
     <use xlink:href="#mcc99bbc350" x="188.8056" y="135.2592" style="fill: #1f78b4; stroke: #1f78b4"/>
     <use xlink:href="#mcc99bbc350" x="353.304" y="313.2648" style="fill: #1f78b4; stroke: #1f78b4"/>
     <use xlink:href="#mcc99bbc350" x="439.6536" y="320.9832" style="fill: #1f78b4; stroke: #1f78b4"/>
     <use xlink:href="#mcc99bbc350" x="16.5888" y="487.4112" style="fill: #1f78b4; stroke: #1f78b4"/>
     <use xlink:href="#mcc99bbc350" x="379.836" y="24.3072" style="fill: #1f78b4; stroke: #1f78b4"/>
     <use xlink:href="#mcc99bbc350" x="116.928" y="226.4328" style="fill: #1f78b4; stroke: #1f78b4"/>
     <use xlink:href="#mcc99bbc350" x="13.6944" y="200.3832" style="fill: #1f78b4; stroke: #1f78b4"/>
     <use xlink:href="#mcc99bbc350" x="193.6296" y="241.8696" style="fill: #1f78b4; stroke: #1f78b4"/>
     <use xlink:href="#mcc99bbc350" x="431.4528" y="277.5672" style="fill: #1f78b4; stroke: #1f78b4"/>
     <use xlink:href="#mcc99bbc350" x="161.3088" y="297.3456" style="fill: #1f78b4; stroke: #1f78b4"/>
     <use xlink:href="#mcc99bbc350" x="283.8384" y="309.4056" style="fill: #1f78b4; stroke: #1f78b4"/>
     <use xlink:href="#mcc99bbc350" x="135.7416" y="412.1568" style="fill: #1f78b4; stroke: #1f78b4"/>
     <use xlink:href="#mcc99bbc350" x="440.6184" y="114.9984" style="fill: #1f78b4; stroke: #1f78b4"/>
    </g>
   </g>
   <g id="patch_33">
    <path d="M 10.8 493.2 
L 10.8 10.8 
" style="fill: none; stroke: #000000; stroke-width: 0.8; stroke-linejoin: miter; stroke-linecap: square"/>
   </g>
   <g id="patch_34">
    <path d="M 493.2 493.2 
L 493.2 10.8 
" style="fill: none; stroke: #000000; stroke-width: 0.8; stroke-linejoin: miter; stroke-linecap: square"/>
   </g>
   <g id="patch_35">
    <path d="M 10.8 493.2 
L 493.2 493.2 
" style="fill: none; stroke: #000000; stroke-width: 0.8; stroke-linejoin: miter; stroke-linecap: square"/>
   </g>
   <g id="patch_36">
    <path d="M 10.8 10.8 
L 493.2 10.8 
" style="fill: none; stroke: #000000; stroke-width: 0.8; stroke-linejoin: miter; stroke-linecap: square"/>
   </g>
   <g id="text_31">
    <g clip-path="url(#pcbbe1751ad)">
     <!-- 0 -->
     <g transform="translate(404.9625 267.85365) scale(0.12 -0.12)">
      <use xlink:href="#DejaVuSans-30"/>
     </g>
    </g>
   </g>
   <g id="text_32">
    <g clip-path="url(#pcbbe1751ad)">
     <!-- 1 -->
     <g transform="translate(477.3225 203.69445) scale(0.12 -0.12)">
      <use xlink:href="#DejaVuSans-31"/>
     </g>
    </g>
   </g>
   <g id="text_33">
    <g clip-path="url(#pcbbe1751ad)">
     <!-- 2 -->
     <g transform="translate(405.4449 106.24965) scale(0.12 -0.12)">
      <use xlink:href="#DejaVuSans-32"/>
     </g>
    </g>
   </g>
   <g id="text_34">
    <g clip-path="url(#pcbbe1751ad)">
     <!-- 3 -->
     <g transform="translate(184.9881 138.57045) scale(0.12 -0.12)">
      <use xlink:href="#DejaVuSans-33"/>
     </g>
    </g>
   </g>
   <g id="text_35">
    <g clip-path="url(#pcbbe1751ad)">
     <!-- 4 -->
     <g transform="translate(349.4865 316.57605) scale(0.12 -0.12)">
      <use xlink:href="#DejaVuSans-34"/>
     </g>
    </g>
   </g>
   <g id="text_36">
    <g clip-path="url(#pcbbe1751ad)">
     <!-- 5 -->
     <g transform="translate(435.8361 324.29445) scale(0.12 -0.12)">
      <use xlink:href="#DejaVuSans-35"/>
     </g>
    </g>
   </g>
   <g id="text_37">
    <g clip-path="url(#pcbbe1751ad)">
     <!-- 6 -->
     <g transform="translate(12.7713 490.72245) scale(0.12 -0.12)">
      <use xlink:href="#DejaVuSans-36"/>
     </g>
    </g>
   </g>
   <g id="text_38">
    <g clip-path="url(#pcbbe1751ad)">
     <!-- 7 -->
     <g transform="translate(376.0185 27.61845) scale(0.12 -0.12)">
      <use xlink:href="#DejaVuSans-37"/>
     </g>
    </g>
   </g>
   <g id="text_39">
    <g clip-path="url(#pcbbe1751ad)">
     <!-- 8 -->
     <g transform="translate(113.1105 229.74405) scale(0.12 -0.12)">
      <use xlink:href="#DejaVuSans-38"/>
     </g>
    </g>
   </g>
   <g id="text_40">
    <g clip-path="url(#pcbbe1751ad)">
     <!-- 9 -->
     <g transform="translate(9.8769 203.69445) scale(0.12 -0.12)">
      <use xlink:href="#DejaVuSans-39"/>
     </g>
    </g>
   </g>
   <g id="text_41">
    <g clip-path="url(#pcbbe1751ad)">
     <!-- 10 -->
     <g transform="translate(185.9946 245.18085) scale(0.12 -0.12)">
      <use xlink:href="#DejaVuSans-31"/>
      <use xlink:href="#DejaVuSans-30" x="63.623047"/>
     </g>
    </g>
   </g>
   <g id="text_42">
    <g clip-path="url(#pcbbe1751ad)">
     <!-- 11 -->
     <g transform="translate(423.8178 280.87845) scale(0.12 -0.12)">
      <use xlink:href="#DejaVuSans-31"/>
      <use xlink:href="#DejaVuSans-31" x="63.623047"/>
     </g>
    </g>
   </g>
   <g id="text_43">
    <g clip-path="url(#pcbbe1751ad)">
     <!-- 12 -->
     <g transform="translate(153.6738 300.65685) scale(0.12 -0.12)">
      <use xlink:href="#DejaVuSans-31"/>
      <use xlink:href="#DejaVuSans-32" x="63.623047"/>
     </g>
    </g>
   </g>
   <g id="text_44">
    <g clip-path="url(#pcbbe1751ad)">
     <!-- 13 -->
     <g transform="translate(276.2034 312.71685) scale(0.12 -0.12)">
      <use xlink:href="#DejaVuSans-31"/>
      <use xlink:href="#DejaVuSans-33" x="63.623047"/>
     </g>
    </g>
   </g>
   <g id="text_45">
    <g clip-path="url(#pcbbe1751ad)">
     <!-- 14 -->
     <g transform="translate(128.1066 415.46805) scale(0.12 -0.12)">
      <use xlink:href="#DejaVuSans-31"/>
      <use xlink:href="#DejaVuSans-34" x="63.623047"/>
     </g>
    </g>
   </g>
   <g id="text_46">
    <g clip-path="url(#pcbbe1751ad)">
     <!-- 15 -->
     <g transform="translate(432.9834 118.30965) scale(0.12 -0.12)">
      <use xlink:href="#DejaVuSans-31"/>
      <use xlink:href="#DejaVuSans-35" x="63.623047"/>
     </g>
    </g>
   </g>
  </g>
 </g>
 <defs>
  <clipPath id="pcbbe1751ad">
   <rect x="10.8" y="10.8" width="482.4" height="482.4"/>
  </clipPath>
 </defs>
</svg>
