<?xml version="1.0" encoding="utf-8" standalone="no"?>
<!DOCTYPE svg PUBLIC "-//W3C//DTD SVG 1.1//EN"
  "http://www.w3.org/Graphics/SVG/1.1/DTD/svg11.dtd">
<svg xmlns:xlink="http://www.w3.org/1999/xlink" width="504pt" height="504pt" viewBox="0 0 504 504" xmlns="http://www.w3.org/2000/svg" version="1.1">
 <metadata>
  <rdf:RDF xmlns:dc="http://purl.org/dc/elements/1.1/" xmlns:cc="http://creativecommons.org/ns#" xmlns:rdf="http://www.w3.org/1999/02/22-rdf-syntax-ns#">
   <cc:Work>
    <dc:type rdf:resource="http://purl.org/dc/dcmitype/StillImage"/>
    <dc:date>2024-10-29T14:59:39.925030</dc:date>
    <dc:format>image/svg+xml</dc:format>
    <dc:creator>
     <cc:Agent>
      <dc:title>Matplotlib v3.9.2, https://matplotlib.org/</dc:title>
     </cc:Agent>
    </dc:creator>
   </cc:Work>
  </rdf:RDF>
 </metadata>
 <defs>
  <style type="text/css">*{stroke-linejoin: round; stroke-linecap: butt}</style>
 </defs>
 <g id="figure_1">
  <g id="patch_1">
   <path d="M 0 504 
L 504 504 
L 504 0 
L 0 0 
L 0 504 
z
" style="fill: none; opacity: 0"/>
  </g>
  <g id="axes_1">
   <g id="patch_2">
    <path d="M 10.8 493.2 
L 493.2 493.2 
L 493.2 10.8 
L 10.8 10.8 
L 10.8 493.2 
z
" style="fill: none; opacity: 0"/>
   </g>
   <g id="LineCollection_1">
    <path d="M 262.1304 72.5472 
L 145.872 410.2272 
" clip-path="url(#p845678ca2f)" style="fill: none; stroke: #000000"/>
    <path d="M 262.1304 72.5472 
L 492.2352 429.5232 
" clip-path="url(#p845678ca2f)" style="fill: none; stroke: #000000"/>
    <path d="M 262.1304 72.5472 
L 377.9064 213.8904 
" clip-path="url(#p845678ca2f)" style="fill: none; stroke: #000000"/>
    <path d="M 262.1304 72.5472 
L 148.7664 73.512 
" clip-path="url(#p845678ca2f)" style="fill: none; stroke: #000000"/>
    <path d="M 262.1304 72.5472 
L 100.5264 443.0304 
" clip-path="url(#p845678ca2f)" style="fill: none; stroke: #000000"/>
    <path d="M 262.1304 72.5472 
L 194.5944 368.2584 
" clip-path="url(#p845678ca2f)" style="fill: none; stroke: #000000"/>
    <path d="M 226.4328 342.6912 
L 148.7664 73.512 
" clip-path="url(#p845678ca2f)" style="fill: none; stroke: #000000"/>
    <path d="M 226.4328 342.6912 
L 282.3912 318.0888 
" clip-path="url(#p845678ca2f)" style="fill: none; stroke: #000000"/>
    <path d="M 226.4328 342.6912 
L 100.5264 443.0304 
" clip-path="url(#p845678ca2f)" style="fill: none; stroke: #000000"/>
    <path d="M 206.6544 220.1616 
L 377.9064 213.8904 
" clip-path="url(#p845678ca2f)" style="fill: none; stroke: #000000"/>
    <path d="M 206.6544 220.1616 
L 50.3568 178.1928 
" clip-path="url(#p845678ca2f)" style="fill: none; stroke: #000000"/>
    <path d="M 206.6544 220.1616 
L 194.5944 368.2584 
" clip-path="url(#p845678ca2f)" style="fill: none; stroke: #000000"/>
    <path d="M 194.5944 368.2584 
L 389.0016 66.7584 
" clip-path="url(#p845678ca2f)" style="fill: none; stroke: #000000"/>
    <path d="M 194.5944 368.2584 
L 201.8304 115.4808 
" clip-path="url(#p845678ca2f)" style="fill: none; stroke: #000000"/>
    <path d="M 194.5944 368.2584 
L 228.3624 131.8824 
" clip-path="url(#p845678ca2f)" style="fill: none; stroke: #000000"/>
    <path d="M 91.8432 63.3816 
L 389.0016 66.7584 
" clip-path="url(#p845678ca2f)" style="fill: none; stroke: #000000"/>
    <path d="M 91.8432 63.3816 
L 228.3624 131.8824 
" clip-path="url(#p845678ca2f)" style="fill: none; stroke: #000000"/>
    <path d="M 389.0016 66.7584 
L 492.2352 429.5232 
" clip-path="url(#p845678ca2f)" style="fill: none; stroke: #000000"/>
    <path d="M 389.0016 66.7584 
L 282.3912 318.0888 
" clip-path="url(#p845678ca2f)" style="fill: none; stroke: #000000"/>
    <path d="M 228.3624 131.8824 
L 282.3912 318.0888 
" clip-path="url(#p845678ca2f)" style="fill: none; stroke: #000000"/>
    <path d="M 228.3624 131.8824 
L 68.688 147.8016 
" clip-path="url(#p845678ca2f)" style="fill: none; stroke: #000000"/>
    <path d="M 228.3624 131.8824 
L 377.9064 213.8904 
" clip-path="url(#p845678ca2f)" style="fill: none; stroke: #000000"/>
    <path d="M 36.8496 343.1736 
L 201.8304 115.4808 
" clip-path="url(#p845678ca2f)" style="fill: none; stroke: #000000"/>
    <path d="M 36.8496 343.1736 
L 50.3568 178.1928 
" clip-path="url(#p845678ca2f)" style="fill: none; stroke: #000000"/>
    <path d="M 145.872 410.2272 
L 492.2352 429.5232 
" clip-path="url(#p845678ca2f)" style="fill: none; stroke: #000000"/>
    <path d="M 145.872 410.2272 
L 100.5264 443.0304 
" clip-path="url(#p845678ca2f)" style="fill: none; stroke: #000000"/>
    <path d="M 50.3568 178.1928 
L 148.7664 73.512 
" clip-path="url(#p845678ca2f)" style="fill: none; stroke: #000000"/>
    <path d="M 50.3568 178.1928 
L 201.8304 115.4808 
" clip-path="url(#p845678ca2f)" style="fill: none; stroke: #000000"/>
    <path d="M 50.3568 178.1928 
L 282.3912 318.0888 
" clip-path="url(#p845678ca2f)" style="fill: none; stroke: #000000"/>
    <path d="M 68.688 147.8016 
L 148.7664 73.512 
" clip-path="url(#p845678ca2f)" style="fill: none; stroke: #000000"/>
    <path d="M 68.688 147.8016 
L 492.2352 429.5232 
" clip-path="url(#p845678ca2f)" style="fill: none; stroke: #000000"/>
    <path d="M 148.7664 73.512 
L 492.2352 429.5232 
" clip-path="url(#p845678ca2f)" style="fill: none; stroke: #000000"/>
    <path d="M 148.7664 73.512 
L 100.5264 443.0304 
" clip-path="url(#p845678ca2f)" style="fill: none; stroke: #000000"/>
    <path d="M 377.9064 213.8904 
L 201.8304 115.4808 
" clip-path="url(#p845678ca2f)" style="fill: none; stroke: #000000"/>
   </g>
   <g id="text_1">
    <g id="patch_3">
     <path d="M 210.377233 246.948323 
L 212.448435 240.932383 
Q 213.425033 238.095791 210.588441 237.119193 
L 201.437476 233.968646 
Q 198.600883 232.992048 197.624285 235.82864 
L 195.553083 241.84458 
Q 194.576485 244.681172 197.413077 245.65777 
L 206.564042 248.808317 
Q 209.400634 249.784915 210.377233 246.948323 
z
" clip-path="url(#p845678ca2f)" style="fill: #ffffff; stroke: #ffffff; stroke-linejoin: miter"/>
    </g>
    <g clip-path="url(#p845678ca2f)">
     <!-- 9 -->
     <g transform="translate(205.574232 245.294718) rotate(-71.002146) scale(0.1 -0.1)">
      <defs>
       <path id="DejaVuSans-39" d="M 703 97 
L 703 672 
Q 941 559 1184 500 
Q 1428 441 1663 441 
Q 2288 441 2617 861 
Q 2947 1281 2994 2138 
Q 2813 1869 2534 1725 
Q 2256 1581 1919 1581 
Q 1219 1581 811 2004 
Q 403 2428 403 3163 
Q 403 3881 828 4315 
Q 1253 4750 1959 4750 
Q 2769 4750 3195 4129 
Q 3622 3509 3622 2328 
Q 3622 1225 3098 567 
Q 2575 -91 1691 -91 
Q 1453 -91 1209 -44 
Q 966 3 703 97 
z
M 1959 2075 
Q 2384 2075 2632 2365 
Q 2881 2656 2881 3163 
Q 2881 3666 2632 3958 
Q 2384 4250 1959 4250 
Q 1534 4250 1286 3958 
Q 1038 3666 1038 3163 
Q 1038 2656 1286 2365 
Q 1534 2075 1959 2075 
z
" transform="scale(0.015625)"/>
      </defs>
      <use xlink:href="#DejaVuSans-39"/>
     </g>
    </g>
   </g>
   <g id="text_2">
    <g id="patch_4">
     <path d="M 367.146515 249.93409 
L 374.0408 260.629625 
Q 375.666171 263.151166 378.187712 261.525795 
L 386.322307 256.282278 
Q 388.843848 254.656907 387.218476 252.135366 
L 380.324192 241.439831 
Q 378.698821 238.91829 376.17728 240.543662 
L 368.042685 245.787178 
Q 365.521144 247.41255 367.146515 249.93409 
z
" clip-path="url(#p845678ca2f)" style="fill: #ffffff; stroke: #ffffff; stroke-linejoin: miter"/>
    </g>
    <g clip-path="url(#p845678ca2f)">
     <!-- 14 -->
     <g transform="translate(371.416062 247.181964) rotate(-302.805609) scale(0.1 -0.1)">
      <defs>
       <path id="DejaVuSans-31" d="M 794 531 
L 1825 531 
L 1825 4091 
L 703 3866 
L 703 4441 
L 1819 4666 
L 2450 4666 
L 2450 531 
L 3481 531 
L 3481 0 
L 794 0 
L 794 531 
z
" transform="scale(0.015625)"/>
       <path id="DejaVuSans-34" d="M 2419 4116 
L 825 1625 
L 2419 1625 
L 2419 4116 
z
M 2253 4666 
L 3047 4666 
L 3047 1625 
L 3713 1625 
L 3713 1100 
L 3047 1100 
L 3047 0 
L 2419 0 
L 2419 1100 
L 313 1100 
L 313 1709 
L 2253 4666 
z
" transform="scale(0.015625)"/>
      </defs>
      <use xlink:href="#DejaVuSans-31"/>
      <use xlink:href="#DejaVuSans-34" x="63.623047"/>
     </g>
    </g>
   </g>
   <g id="text_3">
    <g id="patch_5">
     <path d="M 311.938739 145.725791 
L 315.970458 150.647848 
Q 317.871465 152.968661 320.192278 151.067653 
L 327.679317 144.934925 
Q 330.00013 143.033918 328.099123 140.713106 
L 324.067403 135.791048 
Q 322.166396 133.470236 319.845584 135.371243 
L 312.358545 141.503971 
Q 310.037732 143.404978 311.938739 145.725791 
z
" clip-path="url(#p845678ca2f)" style="fill: #ffffff; stroke: #ffffff; stroke-linejoin: miter"/>
    </g>
    <g clip-path="url(#p845678ca2f)">
     <!-- 7 -->
     <g transform="translate(315.868407 142.50695) rotate(-309.321338) scale(0.1 -0.1)">
      <defs>
       <path id="DejaVuSans-37" d="M 525 4666 
L 3525 4666 
L 3525 4397 
L 1831 0 
L 1172 0 
L 2766 4134 
L 525 4134 
L 525 4666 
z
" transform="scale(0.015625)"/>
      </defs>
      <use xlink:href="#DejaVuSans-37"/>
     </g>
    </g>
   </g>
   <g id="text_4">
    <g id="patch_6">
     <path d="M 199.154433 80.922512 
L 211.878972 80.814218 
Q 214.878863 80.788687 214.853333 77.788796 
L 214.770968 68.111021 
Q 214.745437 65.11113 211.745546 65.136661 
L 199.021007 65.244955 
Q 196.021116 65.270486 196.046647 68.270377 
L 196.129011 77.948152 
Q 196.154542 80.948043 199.154433 80.922512 
z
" clip-path="url(#p845678ca2f)" style="fill: #ffffff; stroke: #ffffff; stroke-linejoin: miter"/>
    </g>
    <g clip-path="url(#p845678ca2f)">
     <!-- 17 -->
     <g transform="translate(199.111203 75.843009) rotate(-0.487612) scale(0.1 -0.1)">
      <use xlink:href="#DejaVuSans-31"/>
      <use xlink:href="#DejaVuSans-37" x="63.623047"/>
     </g>
    </g>
   </g>
   <g id="text_5">
    <g id="patch_7">
     <path d="M 185.968895 266.756925 
L 191.056565 255.093253 
Q 192.256015 252.343467 189.50623 251.144017 
L 180.635309 247.274539 
Q 177.885524 246.075089 176.686073 248.824874 
L 171.598404 260.488546 
Q 170.398953 263.238331 173.148738 264.437782 
L 182.01966 268.307259 
Q 184.769445 269.50671 185.968895 266.756925 
z
" clip-path="url(#p845678ca2f)" style="fill: #ffffff; stroke: #ffffff; stroke-linejoin: miter"/>
    </g>
    <g clip-path="url(#p845678ca2f)">
     <!-- 17 -->
     <g transform="translate(181.312879 264.72598) rotate(-66.433271) scale(0.1 -0.1)">
      <use xlink:href="#DejaVuSans-31"/>
      <use xlink:href="#DejaVuSans-37" x="63.623047"/>
     </g>
    </g>
   </g>
   <g id="text_6">
    <g id="patch_8">
     <path d="M 235.296882 225.247354 
L 236.713506 219.044565 
Q 237.381462 216.119872 234.456768 215.451915 
L 225.021584 213.297061 
Q 222.09689 212.629105 221.428934 215.553799 
L 220.01231 221.756587 
Q 219.344354 224.681281 222.269048 225.349237 
L 231.704232 227.504092 
Q 234.628926 228.172048 235.296882 225.247354 
z
" clip-path="url(#p845678ca2f)" style="fill: #ffffff; stroke: #ffffff; stroke-linejoin: miter"/>
    </g>
    <g clip-path="url(#p845678ca2f)">
     <!-- 5 -->
     <g transform="translate(230.344705 224.116351) rotate(-77.135151) scale(0.1 -0.1)">
      <defs>
       <path id="DejaVuSans-35" d="M 691 4666 
L 3169 4666 
L 3169 4134 
L 1269 4134 
L 1269 2991 
Q 1406 3038 1543 3061 
Q 1681 3084 1819 3084 
Q 2600 3084 3056 2656 
Q 3513 2228 3513 1497 
Q 3513 744 3044 326 
Q 2575 -91 1722 -91 
Q 1428 -91 1123 -41 
Q 819 9 494 109 
L 494 744 
Q 775 591 1075 516 
Q 1375 441 1709 441 
Q 2250 441 2565 725 
Q 2881 1009 2881 1497 
Q 2881 1984 2565 2268 
Q 2250 2553 1709 2553 
Q 1456 2553 1204 2497 
Q 953 2441 691 2322 
L 691 4666 
z
" transform="scale(0.015625)"/>
      </defs>
      <use xlink:href="#DejaVuSans-35"/>
     </g>
    </g>
   </g>
   <g id="text_7">
    <g id="patch_9">
     <path d="M 179.186694 207.22105 
L 180.950518 213.334178 
Q 181.782183 216.216596 184.664601 215.38493 
L 193.963401 212.701943 
Q 196.845819 211.870278 196.014153 208.98786 
L 194.25033 202.874732 
Q 193.418664 199.992314 190.536247 200.823979 
L 181.237446 203.506967 
Q 178.355029 204.338632 179.186694 207.22105 
z
" clip-path="url(#p845678ca2f)" style="fill: #ffffff; stroke: #ffffff; stroke-linejoin: miter"/>
    </g>
    <g clip-path="url(#p845678ca2f)">
     <!-- 2 -->
     <g transform="translate(184.067288 205.81285) rotate(-286.094462) scale(0.1 -0.1)">
      <defs>
       <path id="DejaVuSans-32" d="M 1228 531 
L 3431 531 
L 3431 0 
L 469 0 
L 469 531 
Q 828 903 1448 1529 
Q 2069 2156 2228 2338 
Q 2531 2678 2651 2914 
Q 2772 3150 2772 3378 
Q 2772 3750 2511 3984 
Q 2250 4219 1831 4219 
Q 1534 4219 1204 4116 
Q 875 4013 500 3803 
L 500 4441 
Q 881 4594 1212 4672 
Q 1544 4750 1819 4750 
Q 2544 4750 2975 4387 
Q 3406 4025 3406 3419 
Q 3406 3131 3298 2873 
Q 3191 2616 2906 2266 
Q 2828 2175 2409 1742 
Q 1991 1309 1228 531 
z
" transform="scale(0.015625)"/>
      </defs>
      <use xlink:href="#DejaVuSans-32"/>
     </g>
    </g>
   </g>
   <g id="text_8">
    <g id="patch_10">
     <path d="M 254.653433 338.847097 
L 260.477865 336.286355 
Q 263.224159 335.078933 262.016737 332.332639 
L 258.121542 323.47298 
Q 256.914119 320.726686 254.167825 321.934108 
L 248.343393 324.49485 
Q 245.597099 325.702272 246.804522 328.448566 
L 250.699717 337.308225 
Q 251.907139 340.05452 254.653433 338.847097 
z
" clip-path="url(#p845678ca2f)" style="fill: #ffffff; stroke: #ffffff; stroke-linejoin: miter"/>
    </g>
    <g clip-path="url(#p845678ca2f)">
     <!-- 5 -->
     <g transform="translate(252.60899 334.196992) rotate(-23.73294) scale(0.1 -0.1)">
      <use xlink:href="#DejaVuSans-35"/>
     </g>
    </g>
   </g>
   <g id="text_9">
    <g id="patch_11">
     <path d="M 163.388999 402.956909 
L 173.340416 395.026277 
Q 175.686527 393.15658 173.81683 390.81047 
L 167.785109 383.241821 
Q 165.915412 380.895711 163.569302 382.765408 
L 153.617884 390.696039 
Q 151.271774 392.565736 153.141471 394.911846 
L 159.173192 402.480496 
Q 161.042889 404.826606 163.388999 402.956909 
z
" clip-path="url(#p845678ca2f)" style="fill: #ffffff; stroke: #ffffff; stroke-linejoin: miter"/>
    </g>
    <g clip-path="url(#p845678ca2f)">
     <!-- 12 -->
     <g transform="translate(160.223173 398.984407) rotate(-38.552563) scale(0.1 -0.1)">
      <use xlink:href="#DejaVuSans-31"/>
      <use xlink:href="#DejaVuSans-32" x="63.623047"/>
     </g>
    </g>
   </g>
   <g id="text_10">
    <g id="patch_12">
     <path d="M 286.205534 225.092777 
L 298.92201 224.627103 
Q 301.920001 224.517317 301.810215 221.519327 
L 301.456042 211.847685 
Q 301.346257 208.849694 298.348266 208.95948 
L 285.63179 209.425153 
Q 282.633799 209.534939 282.743585 212.532929 
L 283.097758 222.204572 
Q 283.207543 225.202562 286.205534 225.092777 
z
" clip-path="url(#p845678ca2f)" style="fill: #ffffff; stroke: #ffffff; stroke-linejoin: miter"/>
    </g>
    <g clip-path="url(#p845678ca2f)">
     <!-- 12 -->
     <g transform="translate(286.019642 220.016492) rotate(-2.097218) scale(0.1 -0.1)">
      <use xlink:href="#DejaVuSans-31"/>
      <use xlink:href="#DejaVuSans-32" x="63.623047"/>
     </g>
    </g>
   </g>
   <g id="text_11">
    <g id="patch_13">
     <path d="M 120.329926 205.098631 
L 132.619581 208.398631 
Q 135.516946 209.176627 136.294942 206.279262 
L 138.80479 196.932243 
Q 139.582786 194.034879 136.685421 193.256883 
L 124.395766 189.956883 
Q 121.498401 189.178886 120.720405 192.076251 
L 118.210557 201.42327 
Q 117.432561 204.320635 120.329926 205.098631 
z
" clip-path="url(#p845678ca2f)" style="fill: #ffffff; stroke: #ffffff; stroke-linejoin: miter"/>
    </g>
    <g clip-path="url(#p845678ca2f)">
     <!-- 20 -->
     <g transform="translate(121.647252 200.192729) rotate(-344.969569) scale(0.1 -0.1)">
      <defs>
       <path id="DejaVuSans-30" d="M 2034 4250 
Q 1547 4250 1301 3770 
Q 1056 3291 1056 2328 
Q 1056 1369 1301 889 
Q 1547 409 2034 409 
Q 2525 409 2770 889 
Q 3016 1369 3016 2328 
Q 3016 3291 2770 3770 
Q 2525 4250 2034 4250 
z
M 2034 4750 
Q 2819 4750 3233 4129 
Q 3647 3509 3647 2328 
Q 3647 1150 3233 529 
Q 2819 -91 2034 -91 
Q 1250 -91 836 529 
Q 422 1150 422 2328 
Q 422 3509 836 4129 
Q 1250 4750 2034 4750 
z
" transform="scale(0.015625)"/>
      </defs>
      <use xlink:href="#DejaVuSans-32"/>
      <use xlink:href="#DejaVuSans-30" x="63.623047"/>
     </g>
    </g>
   </g>
   <g id="text_12">
    <g id="patch_14">
     <path d="M 208.179378 298.017209 
L 208.695788 291.675701 
Q 208.939281 288.685599 205.949179 288.442105 
L 196.302985 287.656585 
Q 193.312883 287.413091 193.069389 290.403193 
L 192.55298 296.744701 
Q 192.309486 299.734804 195.299588 299.978297 
L 204.945782 300.763818 
Q 207.935884 301.007312 208.179378 298.017209 
z
" clip-path="url(#p845678ca2f)" style="fill: #ffffff; stroke: #ffffff; stroke-linejoin: miter"/>
    </g>
    <g clip-path="url(#p845678ca2f)">
     <!-- 5 -->
     <g transform="translate(203.11645 297.604919) rotate(-85.344493) scale(0.1 -0.1)">
      <use xlink:href="#DejaVuSans-35"/>
     </g>
    </g>
   </g>
   <g id="text_13">
    <g id="patch_15">
     <path d="M 296.662492 224.429764 
L 300.11041 219.082497 
Q 301.736147 216.561192 299.214843 214.935455 
L 291.081008 209.690758 
Q 288.559703 208.065021 286.933966 210.586326 
L 283.486048 215.933593 
Q 281.860311 218.454898 284.381615 220.080635 
L 292.51545 225.325332 
Q 295.036755 226.951069 296.662492 224.429764 
z
" clip-path="url(#p845678ca2f)" style="fill: #ffffff; stroke: #ffffff; stroke-linejoin: miter"/>
    </g>
    <g clip-path="url(#p845678ca2f)">
     <!-- 8 -->
     <g transform="translate(292.393345 221.677018) rotate(-57.186077) scale(0.1 -0.1)">
      <defs>
       <path id="DejaVuSans-38" d="M 2034 2216 
Q 1584 2216 1326 1975 
Q 1069 1734 1069 1313 
Q 1069 891 1326 650 
Q 1584 409 2034 409 
Q 2484 409 2743 651 
Q 3003 894 3003 1313 
Q 3003 1734 2745 1975 
Q 2488 2216 2034 2216 
z
M 1403 2484 
Q 997 2584 770 2862 
Q 544 3141 544 3541 
Q 544 4100 942 4425 
Q 1341 4750 2034 4750 
Q 2731 4750 3128 4425 
Q 3525 4100 3525 3541 
Q 3525 3141 3298 2862 
Q 3072 2584 2669 2484 
Q 3125 2378 3379 2068 
Q 3634 1759 3634 1313 
Q 3634 634 3220 271 
Q 2806 -91 2034 -91 
Q 1263 -91 848 271 
Q 434 634 434 1313 
Q 434 1759 690 2068 
Q 947 2378 1403 2484 
z
M 1172 3481 
Q 1172 3119 1398 2916 
Q 1625 2713 2034 2713 
Q 2441 2713 2670 2916 
Q 2900 3119 2900 3481 
Q 2900 3844 2670 4047 
Q 2441 4250 2034 4250 
Q 1625 4250 1398 4047 
Q 1172 3844 1172 3481 
z
" transform="scale(0.015625)"/>
      </defs>
      <use xlink:href="#DejaVuSans-38"/>
     </g>
    </g>
   </g>
   <g id="text_14">
    <g id="patch_16">
     <path d="M 205.957311 245.270816 
L 206.139369 238.910921 
Q 206.225211 235.912149 203.22644 235.826306 
L 193.552278 235.549374 
Q 190.553506 235.463532 190.467663 238.462303 
L 190.285605 244.822198 
Q 190.199763 247.82097 193.198534 247.906812 
L 202.872696 248.183744 
Q 205.871468 248.269587 205.957311 245.270816 
z
" clip-path="url(#p845678ca2f)" style="fill: #ffffff; stroke: #ffffff; stroke-linejoin: miter"/>
    </g>
    <g clip-path="url(#p845678ca2f)">
     <!-- 4 -->
     <g transform="translate(200.879703 245.125464) rotate(-88.360301) scale(0.1 -0.1)">
      <use xlink:href="#DejaVuSans-34"/>
     </g>
    </g>
   </g>
   <g id="text_15">
    <g id="patch_17">
     <path d="M 218.788645 254.329228 
L 219.688438 248.030675 
Q 220.112702 245.060826 217.142854 244.636562 
L 207.561999 243.267868 
Q 204.59215 242.843604 204.167886 245.813453 
L 203.268093 252.112007 
Q 202.843829 255.081855 205.813677 255.506119 
L 215.394532 256.874813 
Q 218.364381 257.299077 218.788645 254.329228 
z
" clip-path="url(#p845678ca2f)" style="fill: #ffffff; stroke: #ffffff; stroke-linejoin: miter"/>
    </g>
    <g clip-path="url(#p845678ca2f)">
     <!-- 1 -->
     <g transform="translate(213.760011 253.610852) rotate(-81.869898) scale(0.1 -0.1)">
      <use xlink:href="#DejaVuSans-31"/>
     </g>
    </g>
   </g>
   <g id="text_16">
    <g id="patch_18">
     <path d="M 237.150687 72.87239 
L 243.512776 72.944687 
Q 246.512582 72.978775 246.546671 69.978969 
L 246.656642 60.301469 
Q 246.690731 57.301662 243.690925 57.267574 
L 237.328836 57.195277 
Q 234.329029 57.161189 234.294941 60.160995 
L 234.184969 69.838495 
Q 234.15088 72.838301 237.150687 72.87239 
z
" clip-path="url(#p845678ca2f)" style="fill: #ffffff; stroke: #ffffff; stroke-linejoin: miter"/>
    </g>
    <g clip-path="url(#p845678ca2f)">
     <!-- 9 -->
     <g transform="translate(237.208407 67.793031) rotate(-359.34894) scale(0.1 -0.1)">
      <use xlink:href="#DejaVuSans-39"/>
     </g>
    </g>
   </g>
   <g id="text_17">
    <g id="patch_19">
     <path d="M 150.899533 101.784647 
L 162.27307 107.49151 
Q 164.954454 108.83694 166.299883 106.155556 
L 170.640294 97.505299 
Q 171.985724 94.823916 169.30434 93.478486 
L 157.930803 87.771623 
Q 155.249419 86.426194 153.90399 89.107578 
L 149.563579 97.757834 
Q 148.218149 100.439218 150.899533 101.784647 
z
" clip-path="url(#p845678ca2f)" style="fill: #ffffff; stroke: #ffffff; stroke-linejoin: miter"/>
    </g>
    <g clip-path="url(#p845678ca2f)">
     <!-- 14 -->
     <g transform="translate(153.177653 97.24445) rotate(-333.354023) scale(0.1 -0.1)">
      <use xlink:href="#DejaVuSans-31"/>
      <use xlink:href="#DejaVuSans-34" x="63.623047"/>
     </g>
    </g>
   </g>
   <g id="text_18">
    <g id="patch_20">
     <path d="M 432.207456 247.224885 
L 433.948919 253.34442 
Q 434.770042 256.229859 437.655481 255.408737 
L 446.964027 252.759762 
Q 449.849466 251.93864 449.028344 249.053201 
L 447.28688 242.933665 
Q 446.465758 240.048226 443.580319 240.869349 
L 434.271773 243.518323 
Q 431.386334 244.339446 432.207456 247.224885 
z
" clip-path="url(#p845678ca2f)" style="fill: #ffffff; stroke: #ffffff; stroke-linejoin: miter"/>
    </g>
    <g clip-path="url(#p845678ca2f)">
     <!-- 7 -->
     <g transform="translate(437.093165 245.834536) rotate(-285.885) scale(0.1 -0.1)">
      <use xlink:href="#DejaVuSans-37"/>
     </g>
    </g>
   </g>
   <g id="text_19">
    <g id="patch_21">
     <path d="M 340.428375 201.342323 
L 345.397545 189.627675 
Q 346.569058 186.865871 343.807255 185.694358 
L 334.897563 181.915007 
Q 332.13576 180.743494 330.964247 183.505297 
L 325.995077 195.219945 
Q 324.823564 197.981748 327.585367 199.153261 
L 336.495059 202.932612 
Q 339.256862 204.104126 340.428375 201.342323 
z
" clip-path="url(#p845678ca2f)" style="fill: #ffffff; stroke: #ffffff; stroke-linejoin: miter"/>
    </g>
    <g clip-path="url(#p845678ca2f)">
     <!-- 12 -->
     <g transform="translate(335.75201 199.358682) rotate(-67.014107) scale(0.1 -0.1)">
      <use xlink:href="#DejaVuSans-31"/>
      <use xlink:href="#DejaVuSans-32" x="63.623047"/>
     </g>
    </g>
   </g>
   <g id="text_20">
    <g id="patch_22">
     <path d="M 246.074804 221.057998 
L 249.62078 233.27895 
Q 250.456766 236.160118 253.337934 235.324131 
L 262.6327 232.627204 
Q 265.513868 231.791218 264.677882 228.91005 
L 261.131906 216.689098 
Q 260.295919 213.80793 257.414752 214.643916 
L 248.119985 217.340843 
Q 245.238817 218.17683 246.074804 221.057998 
z
" clip-path="url(#p845678ca2f)" style="fill: #ffffff; stroke: #ffffff; stroke-linejoin: miter"/>
    </g>
    <g clip-path="url(#p845678ca2f)">
     <!-- 20 -->
     <g transform="translate(250.953281 219.642481) rotate(-286.180374) scale(0.1 -0.1)">
      <use xlink:href="#DejaVuSans-32"/>
      <use xlink:href="#DejaVuSans-30" x="63.623047"/>
     </g>
    </g>
   </g>
   <g id="text_21">
    <g id="patch_23">
     <path d="M 142.969579 148.273809 
L 155.631805 147.011411 
Q 158.617006 146.713793 158.319388 143.728593 
L 157.359259 134.098211 
Q 157.061641 131.11301 154.07644 131.410628 
L 141.414214 132.673025 
Q 138.429013 132.970643 138.726631 135.955844 
L 139.68676 145.586226 
Q 139.984378 148.571427 142.969579 148.273809 
z
" clip-path="url(#p845678ca2f)" style="fill: #ffffff; stroke: #ffffff; stroke-linejoin: miter"/>
    </g>
    <g clip-path="url(#p845678ca2f)">
     <!-- 13 -->
     <g transform="translate(142.465643 143.21918) rotate(-5.693454) scale(0.1 -0.1)">
      <defs>
       <path id="DejaVuSans-33" d="M 2597 2516 
Q 3050 2419 3304 2112 
Q 3559 1806 3559 1356 
Q 3559 666 3084 287 
Q 2609 -91 1734 -91 
Q 1441 -91 1130 -33 
Q 819 25 488 141 
L 488 750 
Q 750 597 1062 519 
Q 1375 441 1716 441 
Q 2309 441 2620 675 
Q 2931 909 2931 1356 
Q 2931 1769 2642 2001 
Q 2353 2234 1838 2234 
L 1294 2234 
L 1294 2753 
L 1863 2753 
Q 2328 2753 2575 2939 
Q 2822 3125 2822 3475 
Q 2822 3834 2567 4026 
Q 2313 4219 1838 4219 
Q 1578 4219 1281 4162 
Q 984 4106 628 3988 
L 628 4550 
Q 988 4650 1302 4700 
Q 1616 4750 1894 4750 
Q 2613 4750 3031 4423 
Q 3450 4097 3450 3541 
Q 3450 3153 3228 2886 
Q 3006 2619 2597 2516 
z
" transform="scale(0.015625)"/>
      </defs>
      <use xlink:href="#DejaVuSans-31"/>
      <use xlink:href="#DejaVuSans-33" x="63.623047"/>
     </g>
    </g>
   </g>
   <g id="text_22">
    <g id="patch_24">
     <path d="M 296.574606 178.229504 
L 302.153325 181.288801 
Q 304.783762 182.731299 306.22626 180.100862 
L 310.879818 171.614962 
Q 312.322316 168.984525 309.691879 167.542027 
L 304.11316 164.482729 
Q 301.482723 163.040231 300.040225 165.670669 
L 295.386667 174.156569 
Q 293.944169 176.787006 296.574606 178.229504 
z
" clip-path="url(#p845678ca2f)" style="fill: #ffffff; stroke: #ffffff; stroke-linejoin: miter"/>
    </g>
    <g clip-path="url(#p845678ca2f)">
     <!-- 6 -->
     <g transform="translate(299.017086 173.775571) rotate(-331.260205) scale(0.1 -0.1)">
      <defs>
       <path id="DejaVuSans-36" d="M 2113 2584 
Q 1688 2584 1439 2293 
Q 1191 2003 1191 1497 
Q 1191 994 1439 701 
Q 1688 409 2113 409 
Q 2538 409 2786 701 
Q 3034 994 3034 1497 
Q 3034 2003 2786 2293 
Q 2538 2584 2113 2584 
z
M 3366 4563 
L 3366 3988 
Q 3128 4100 2886 4159 
Q 2644 4219 2406 4219 
Q 1781 4219 1451 3797 
Q 1122 3375 1075 2522 
Q 1259 2794 1537 2939 
Q 1816 3084 2150 3084 
Q 2853 3084 3261 2657 
Q 3669 2231 3669 1497 
Q 3669 778 3244 343 
Q 2819 -91 2113 -91 
Q 1303 -91 875 529 
Q 447 1150 447 2328 
Q 447 3434 972 4092 
Q 1497 4750 2381 4750 
Q 2619 4750 2861 4703 
Q 3103 4656 3366 4563 
z
" transform="scale(0.015625)"/>
      </defs>
      <use xlink:href="#DejaVuSans-36"/>
     </g>
    </g>
   </g>
   <g id="text_23">
    <g id="patch_25">
     <path d="M 121.954931 239.078597 
L 129.421231 228.77423 
Q 131.181459 226.344909 128.752139 224.584681 
L 120.91505 218.906113 
Q 118.48573 217.145885 116.725502 219.575205 
L 109.259202 229.879573 
Q 107.498974 232.308893 109.928294 234.069121 
L 117.765383 239.74769 
Q 120.194703 241.507918 121.954931 239.078597 
z
" clip-path="url(#p845678ca2f)" style="fill: #ffffff; stroke: #ffffff; stroke-linejoin: miter"/>
    </g>
    <g clip-path="url(#p845678ca2f)">
     <!-- 15 -->
     <g transform="translate(117.841535 236.098128) rotate(-54.073805) scale(0.1 -0.1)">
      <use xlink:href="#DejaVuSans-31"/>
      <use xlink:href="#DejaVuSans-35" x="63.623047"/>
     </g>
    </g>
   </g>
   <g id="text_24">
    <g id="patch_26">
     <path d="M 50.896983 267.663757 
L 51.935322 254.981191 
Q 52.180117 251.991195 49.190121 251.7464 
L 39.54427 250.956681 
Q 36.554274 250.711886 36.309479 253.701882 
L 35.27114 266.384448 
Q 35.026345 269.374444 38.016341 269.619239 
L 47.662192 270.408958 
Q 50.652188 270.653753 50.896983 267.663757 
z
" clip-path="url(#p845678ca2f)" style="fill: #ffffff; stroke: #ffffff; stroke-linejoin: miter"/>
    </g>
    <g clip-path="url(#p845678ca2f)">
     <!-- 19 -->
     <g transform="translate(45.834235 267.249263) rotate(-85.319556) scale(0.1 -0.1)">
      <use xlink:href="#DejaVuSans-31"/>
      <use xlink:href="#DejaVuSans-39" x="63.623047"/>
     </g>
    </g>
   </g>
   <g id="text_25">
    <g id="patch_27">
     <path d="M 312.267259 427.348349 
L 324.972558 428.056165 
Q 327.967913 428.223037 328.134785 425.227682 
L 328.673122 415.56454 
Q 328.839994 412.569185 325.844639 412.402313 
L 313.13934 411.694497 
Q 310.143984 411.527625 309.977112 414.52298 
L 309.438776 424.186121 
Q 309.271904 427.181477 312.267259 427.348349 
z
" clip-path="url(#p845678ca2f)" style="fill: #ffffff; stroke: #ffffff; stroke-linejoin: miter"/>
    </g>
    <g clip-path="url(#p845678ca2f)">
     <!-- 12 -->
     <g transform="translate(312.549812 422.276526) rotate(-356.811331) scale(0.1 -0.1)">
      <use xlink:href="#DejaVuSans-31"/>
      <use xlink:href="#DejaVuSans-32" x="63.623047"/>
     </g>
    </g>
   </g>
   <g id="text_26">
    <g id="patch_28">
     <path d="M 122.638752 436.709405 
L 132.948858 429.25103 
Q 135.379531 427.492671 133.621172 425.061998 
L 127.948631 417.220545 
Q 126.190272 414.789871 123.759599 416.548231 
L 113.449493 424.006605 
Q 111.01882 425.764964 112.777179 428.195638 
L 118.44972 436.037091 
Q 120.208079 438.467764 122.638752 436.709405 
z
" clip-path="url(#p845678ca2f)" style="fill: #ffffff; stroke: #ffffff; stroke-linejoin: miter"/>
    </g>
    <g clip-path="url(#p845678ca2f)">
     <!-- 12 -->
     <g transform="translate(119.661447 432.593718) rotate(-35.882137) scale(0.1 -0.1)">
      <use xlink:href="#DejaVuSans-31"/>
      <use xlink:href="#DejaVuSans-32" x="63.623047"/>
     </g>
    </g>
   </g>
   <g id="text_27">
    <g id="patch_29">
     <path d="M 100.916077 135.856403 
L 109.632011 126.585042 
Q 111.686848 124.39926 109.501065 122.344423 
L 102.44964 115.715433 
Q 100.263858 113.660596 98.209021 115.846378 
L 89.493087 125.117739 
Q 87.43825 127.303522 89.624033 129.358359 
L 96.675458 135.987348 
Q 98.86124 138.042185 100.916077 135.856403 
z
" clip-path="url(#p845678ca2f)" style="fill: #ffffff; stroke: #ffffff; stroke-linejoin: miter"/>
    </g>
    <g clip-path="url(#p845678ca2f)">
     <!-- 12 -->
     <g transform="translate(97.215047 132.377093) rotate(-46.768666) scale(0.1 -0.1)">
      <use xlink:href="#DejaVuSans-31"/>
      <use xlink:href="#DejaVuSans-32" x="63.623047"/>
     </g>
    </g>
   </g>
   <g id="text_28">
    <g id="patch_30">
     <path d="M 126.152903 155.296586 
L 132.031504 152.86277 
Q 134.803339 151.715195 133.655764 148.943359 
L 129.953639 140.001303 
Q 128.806064 137.229468 126.034228 138.377043 
L 120.155627 140.810859 
Q 117.383792 141.958434 118.531367 144.730269 
L 122.233492 153.672325 
Q 123.381068 156.444161 126.152903 155.296586 
z
" clip-path="url(#p845678ca2f)" style="fill: #ffffff; stroke: #ffffff; stroke-linejoin: miter"/>
    </g>
    <g clip-path="url(#p845678ca2f)">
     <!-- 1 -->
     <g transform="translate(124.209795 150.603233) rotate(-22.490178) scale(0.1 -0.1)">
      <use xlink:href="#DejaVuSans-31"/>
     </g>
    </g>
   </g>
   <g id="text_29">
    <g id="patch_31">
     <path d="M 159.60411 253.21276 
L 165.052899 256.497893 
Q 167.622073 258.046876 169.171055 255.477702 
L 174.168136 247.18944 
Q 175.717118 244.620266 173.147944 243.071284 
L 167.699155 239.786151 
Q 165.129981 238.237169 163.580999 240.806342 
L 158.583918 249.094604 
Q 157.034936 251.663778 159.60411 253.21276 
z
" clip-path="url(#p845678ca2f)" style="fill: #ffffff; stroke: #ffffff; stroke-linejoin: miter"/>
    </g>
    <g clip-path="url(#p845678ca2f)">
     <!-- 1 -->
     <g transform="translate(162.226891 248.86256) rotate(-328.913779) scale(0.1 -0.1)">
      <use xlink:href="#DejaVuSans-31"/>
     </g>
    </g>
   </g>
   <g id="text_30">
    <g id="patch_32">
     <path d="M 111.725924 118.567767 
L 116.390324 114.240553 
Q 118.589648 112.200216 116.549311 110.000892 
L 109.9671 102.905781 
Q 107.926763 100.706457 105.727439 102.746794 
L 101.06304 107.074008 
Q 98.863716 109.114345 100.904052 111.313669 
L 107.486264 118.40878 
Q 109.5266 120.608104 111.725924 118.567767 
z
" clip-path="url(#p845678ca2f)" style="fill: #ffffff; stroke: #ffffff; stroke-linejoin: miter"/>
    </g>
    <g clip-path="url(#p845678ca2f)">
     <!-- 7 -->
     <g transform="translate(108.271167 114.843808) rotate(-42.852415) scale(0.1 -0.1)">
      <use xlink:href="#DejaVuSans-37"/>
     </g>
    </g>
   </g>
   <g id="text_31">
    <g id="patch_33">
     <path d="M 270.820332 291.664312 
L 281.415592 298.711729 
Q 283.913493 300.373202 285.574966 297.875302 
L 290.934949 289.816971 
Q 292.596422 287.319071 290.098522 285.657598 
L 279.503262 278.610181 
Q 277.005362 276.948707 275.343888 279.446608 
L 269.983905 287.504938 
Q 268.322432 290.002838 270.820332 291.664312 
z
" clip-path="url(#p845678ca2f)" style="fill: #ffffff; stroke: #ffffff; stroke-linejoin: miter"/>
    </g>
    <g clip-path="url(#p845678ca2f)">
     <!-- 18 -->
     <g transform="translate(273.633587 287.434794) rotate(-326.370212) scale(0.1 -0.1)">
      <use xlink:href="#DejaVuSans-31"/>
      <use xlink:href="#DejaVuSans-38" x="63.623047"/>
     </g>
    </g>
   </g>
   <g id="text_32">
    <g id="patch_34">
     <path d="M 312.651626 254.672137 
L 317.069212 259.251039 
Q 319.15216 261.41005 321.311171 259.327102 
L 328.276229 252.607424 
Q 330.43524 250.524476 328.352292 248.365466 
L 323.934706 243.786564 
Q 321.851758 241.627553 319.692747 243.710501 
L 312.727689 250.430178 
Q 310.568678 252.513126 312.651626 254.672137 
z
" clip-path="url(#p845678ca2f)" style="fill: #ffffff; stroke: #ffffff; stroke-linejoin: miter"/>
    </g>
    <g clip-path="url(#p845678ca2f)">
     <!-- 1 -->
     <g transform="translate(316.307326 251.145229) rotate(-313.972737) scale(0.1 -0.1)">
      <use xlink:href="#DejaVuSans-31"/>
     </g>
    </g>
   </g>
   <g id="text_33">
    <g id="patch_35">
     <path d="M 131.595786 265.595645 
L 133.243036 252.977714 
Q 133.631386 250.002956 130.656628 249.614607 
L 121.059935 248.361775 
Q 118.085177 247.973425 117.696827 250.948183 
L 116.049578 263.566114 
Q 115.661228 266.540872 118.635986 266.929222 
L 128.232679 268.182054 
Q 131.207437 268.570403 131.595786 265.595645 
z
" clip-path="url(#p845678ca2f)" style="fill: #ffffff; stroke: #ffffff; stroke-linejoin: miter"/>
    </g>
    <g clip-path="url(#p845678ca2f)">
     <!-- 19 -->
     <g transform="translate(126.55884 264.938081) rotate(-82.562197) scale(0.1 -0.1)">
      <use xlink:href="#DejaVuSans-31"/>
      <use xlink:href="#DejaVuSans-39" x="63.623047"/>
     </g>
    </g>
   </g>
   <g id="text_34">
    <g id="patch_36">
     <path d="M 280.489803 168.424206 
L 291.597628 174.632415 
Q 294.216368 176.09604 295.679993 173.477299 
L 300.401708 165.029133 
Q 301.865333 162.410393 299.246592 160.946768 
L 288.138768 154.738559 
Q 285.520027 153.274934 284.056402 155.893675 
L 279.334687 164.341841 
Q 277.871062 166.960581 280.489803 168.424206 
z
" clip-path="url(#p845678ca2f)" style="fill: #ffffff; stroke: #ffffff; stroke-linejoin: miter"/>
    </g>
    <g clip-path="url(#p845678ca2f)">
     <!-- 12 -->
     <g transform="translate(282.968055 163.990078) rotate(-330.798996) scale(0.1 -0.1)">
      <use xlink:href="#DejaVuSans-31"/>
      <use xlink:href="#DejaVuSans-32" x="63.623047"/>
     </g>
    </g>
   </g>
   <g id="matplotlib.axis_1">
    <g id="xtick_1">
     <g id="line2d_1">
      <path d="M 10.8 493.2 
L 10.8 10.8 
" clip-path="url(#p845678ca2f)" style="fill: none; stroke: #b0b0b0; stroke-opacity: 0.3; stroke-width: 0.8; stroke-linecap: square"/>
     </g>
    </g>
    <g id="xtick_2">
     <g id="line2d_2">
      <path d="M 59.04 493.2 
L 59.04 10.8 
" clip-path="url(#p845678ca2f)" style="fill: none; stroke: #b0b0b0; stroke-opacity: 0.3; stroke-width: 0.8; stroke-linecap: square"/>
     </g>
    </g>
    <g id="xtick_3">
     <g id="line2d_3">
      <path d="M 107.28 493.2 
L 107.28 10.8 
" clip-path="url(#p845678ca2f)" style="fill: none; stroke: #b0b0b0; stroke-opacity: 0.3; stroke-width: 0.8; stroke-linecap: square"/>
     </g>
    </g>
    <g id="xtick_4">
     <g id="line2d_4">
      <path d="M 155.52 493.2 
L 155.52 10.8 
" clip-path="url(#p845678ca2f)" style="fill: none; stroke: #b0b0b0; stroke-opacity: 0.3; stroke-width: 0.8; stroke-linecap: square"/>
     </g>
    </g>
    <g id="xtick_5">
     <g id="line2d_5">
      <path d="M 203.76 493.2 
L 203.76 10.8 
" clip-path="url(#p845678ca2f)" style="fill: none; stroke: #b0b0b0; stroke-opacity: 0.3; stroke-width: 0.8; stroke-linecap: square"/>
     </g>
    </g>
    <g id="xtick_6">
     <g id="line2d_6">
      <path d="M 252 493.2 
L 252 10.8 
" clip-path="url(#p845678ca2f)" style="fill: none; stroke: #b0b0b0; stroke-opacity: 0.3; stroke-width: 0.8; stroke-linecap: square"/>
     </g>
    </g>
    <g id="xtick_7">
     <g id="line2d_7">
      <path d="M 300.24 493.2 
L 300.24 10.8 
" clip-path="url(#p845678ca2f)" style="fill: none; stroke: #b0b0b0; stroke-opacity: 0.3; stroke-width: 0.8; stroke-linecap: square"/>
     </g>
    </g>
    <g id="xtick_8">
     <g id="line2d_8">
      <path d="M 348.48 493.2 
L 348.48 10.8 
" clip-path="url(#p845678ca2f)" style="fill: none; stroke: #b0b0b0; stroke-opacity: 0.3; stroke-width: 0.8; stroke-linecap: square"/>
     </g>
    </g>
    <g id="xtick_9">
     <g id="line2d_9">
      <path d="M 396.72 493.2 
L 396.72 10.8 
" clip-path="url(#p845678ca2f)" style="fill: none; stroke: #b0b0b0; stroke-opacity: 0.3; stroke-width: 0.8; stroke-linecap: square"/>
     </g>
    </g>
    <g id="xtick_10">
     <g id="line2d_10">
      <path d="M 444.96 493.2 
L 444.96 10.8 
" clip-path="url(#p845678ca2f)" style="fill: none; stroke: #b0b0b0; stroke-opacity: 0.3; stroke-width: 0.8; stroke-linecap: square"/>
     </g>
    </g>
    <g id="xtick_11">
     <g id="line2d_11">
      <path d="M 493.2 493.2 
L 493.2 10.8 
" clip-path="url(#p845678ca2f)" style="fill: none; stroke: #b0b0b0; stroke-opacity: 0.3; stroke-width: 0.8; stroke-linecap: square"/>
     </g>
    </g>
   </g>
   <g id="matplotlib.axis_2">
    <g id="ytick_1">
     <g id="line2d_12">
      <path d="M 10.8 493.2 
L 493.2 493.2 
" clip-path="url(#p845678ca2f)" style="fill: none; stroke: #b0b0b0; stroke-opacity: 0.3; stroke-width: 0.8; stroke-linecap: square"/>
     </g>
    </g>
    <g id="ytick_2">
     <g id="line2d_13">
      <path d="M 10.8 444.96 
L 493.2 444.96 
" clip-path="url(#p845678ca2f)" style="fill: none; stroke: #b0b0b0; stroke-opacity: 0.3; stroke-width: 0.8; stroke-linecap: square"/>
     </g>
    </g>
    <g id="ytick_3">
     <g id="line2d_14">
      <path d="M 10.8 396.72 
L 493.2 396.72 
" clip-path="url(#p845678ca2f)" style="fill: none; stroke: #b0b0b0; stroke-opacity: 0.3; stroke-width: 0.8; stroke-linecap: square"/>
     </g>
    </g>
    <g id="ytick_4">
     <g id="line2d_15">
      <path d="M 10.8 348.48 
L 493.2 348.48 
" clip-path="url(#p845678ca2f)" style="fill: none; stroke: #b0b0b0; stroke-opacity: 0.3; stroke-width: 0.8; stroke-linecap: square"/>
     </g>
    </g>
    <g id="ytick_5">
     <g id="line2d_16">
      <path d="M 10.8 300.24 
L 493.2 300.24 
" clip-path="url(#p845678ca2f)" style="fill: none; stroke: #b0b0b0; stroke-opacity: 0.3; stroke-width: 0.8; stroke-linecap: square"/>
     </g>
    </g>
    <g id="ytick_6">
     <g id="line2d_17">
      <path d="M 10.8 252 
L 493.2 252 
" clip-path="url(#p845678ca2f)" style="fill: none; stroke: #b0b0b0; stroke-opacity: 0.3; stroke-width: 0.8; stroke-linecap: square"/>
     </g>
    </g>
    <g id="ytick_7">
     <g id="line2d_18">
      <path d="M 10.8 203.76 
L 493.2 203.76 
" clip-path="url(#p845678ca2f)" style="fill: none; stroke: #b0b0b0; stroke-opacity: 0.3; stroke-width: 0.8; stroke-linecap: square"/>
     </g>
    </g>
    <g id="ytick_8">
     <g id="line2d_19">
      <path d="M 10.8 155.52 
L 493.2 155.52 
" clip-path="url(#p845678ca2f)" style="fill: none; stroke: #b0b0b0; stroke-opacity: 0.3; stroke-width: 0.8; stroke-linecap: square"/>
     </g>
    </g>
    <g id="ytick_9">
     <g id="line2d_20">
      <path d="M 10.8 107.28 
L 493.2 107.28 
" clip-path="url(#p845678ca2f)" style="fill: none; stroke: #b0b0b0; stroke-opacity: 0.3; stroke-width: 0.8; stroke-linecap: square"/>
     </g>
    </g>
    <g id="ytick_10">
     <g id="line2d_21">
      <path d="M 10.8 59.04 
L 493.2 59.04 
" clip-path="url(#p845678ca2f)" style="fill: none; stroke: #b0b0b0; stroke-opacity: 0.3; stroke-width: 0.8; stroke-linecap: square"/>
     </g>
    </g>
    <g id="ytick_11">
     <g id="line2d_22">
      <path d="M 10.8 10.8 
L 493.2 10.8 
" clip-path="url(#p845678ca2f)" style="fill: none; stroke: #b0b0b0; stroke-opacity: 0.3; stroke-width: 0.8; stroke-linecap: square"/>
     </g>
    </g>
   </g>
   <g id="PathCollection_1">
    <defs>
     <path id="me0a0ae978d" d="M 0 8.660254 
C 2.296726 8.660254 4.499694 7.747755 6.123724 6.123724 
C 7.747755 4.499694 8.660254 2.296726 8.660254 0 
C 8.660254 -2.296726 7.747755 -4.499694 6.123724 -6.123724 
C 4.499694 -7.747755 2.296726 -8.660254 0 -8.660254 
C -2.296726 -8.660254 -4.499694 -7.747755 -6.123724 -6.123724 
C -7.747755 -4.499694 -8.660254 -2.296726 -8.660254 0 
C -8.660254 2.296726 -7.747755 4.499694 -6.123724 6.123724 
C -4.499694 7.747755 -2.296726 8.660254 0 8.660254 
z
" style="stroke: #1f78b4"/>
    </defs>
    <g clip-path="url(#p845678ca2f)">
     <use xlink:href="#me0a0ae978d" x="262.1304" y="72.5472" style="fill: #1f78b4; stroke: #1f78b4"/>
     <use xlink:href="#me0a0ae978d" x="226.4328" y="342.6912" style="fill: #1f78b4; stroke: #1f78b4"/>
     <use xlink:href="#me0a0ae978d" x="206.6544" y="220.1616" style="fill: #1f78b4; stroke: #1f78b4"/>
     <use xlink:href="#me0a0ae978d" x="194.5944" y="368.2584" style="fill: #1f78b4; stroke: #1f78b4"/>
     <use xlink:href="#me0a0ae978d" x="91.8432" y="63.3816" style="fill: #1f78b4; stroke: #1f78b4"/>
     <use xlink:href="#me0a0ae978d" x="389.0016" y="66.7584" style="fill: #1f78b4; stroke: #1f78b4"/>
     <use xlink:href="#me0a0ae978d" x="228.3624" y="131.8824" style="fill: #1f78b4; stroke: #1f78b4"/>
     <use xlink:href="#me0a0ae978d" x="36.8496" y="343.1736" style="fill: #1f78b4; stroke: #1f78b4"/>
     <use xlink:href="#me0a0ae978d" x="145.872" y="410.2272" style="fill: #1f78b4; stroke: #1f78b4"/>
     <use xlink:href="#me0a0ae978d" x="50.3568" y="178.1928" style="fill: #1f78b4; stroke: #1f78b4"/>
     <use xlink:href="#me0a0ae978d" x="68.688" y="147.8016" style="fill: #1f78b4; stroke: #1f78b4"/>
     <use xlink:href="#me0a0ae978d" x="148.7664" y="73.512" style="fill: #1f78b4; stroke: #1f78b4"/>
     <use xlink:href="#me0a0ae978d" x="282.3912" y="318.0888" style="fill: #1f78b4; stroke: #1f78b4"/>
     <use xlink:href="#me0a0ae978d" x="492.2352" y="429.5232" style="fill: #1f78b4; stroke: #1f78b4"/>
     <use xlink:href="#me0a0ae978d" x="377.9064" y="213.8904" style="fill: #1f78b4; stroke: #1f78b4"/>
     <use xlink:href="#me0a0ae978d" x="201.8304" y="115.4808" style="fill: #1f78b4; stroke: #1f78b4"/>
     <use xlink:href="#me0a0ae978d" x="100.5264" y="443.0304" style="fill: #1f78b4; stroke: #1f78b4"/>
    </g>
   </g>
   <g id="patch_37">
    <path d="M 10.8 493.2 
L 10.8 10.8 
" style="fill: none; stroke: #000000; stroke-width: 0.8; stroke-linejoin: miter; stroke-linecap: square"/>
   </g>
   <g id="patch_38">
    <path d="M 493.2 493.2 
L 493.2 10.8 
" style="fill: none; stroke: #000000; stroke-width: 0.8; stroke-linejoin: miter; stroke-linecap: square"/>
   </g>
   <g id="patch_39">
    <path d="M 10.8 493.2 
L 493.2 493.2 
" style="fill: none; stroke: #000000; stroke-width: 0.8; stroke-linejoin: miter; stroke-linecap: square"/>
   </g>
   <g id="patch_40">
    <path d="M 10.8 10.8 
L 493.2 10.8 
" style="fill: none; stroke: #000000; stroke-width: 0.8; stroke-linejoin: miter; stroke-linecap: square"/>
   </g>
   <g id="text_35">
    <g clip-path="url(#p845678ca2f)">
     <!-- 0 -->
     <g transform="translate(258.3129 75.85845) scale(0.12 -0.12)">
      <use xlink:href="#DejaVuSans-30"/>
     </g>
    </g>
   </g>
   <g id="text_36">
    <g clip-path="url(#p845678ca2f)">
     <!-- 1 -->
     <g transform="translate(222.6153 346.00245) scale(0.12 -0.12)">
      <use xlink:href="#DejaVuSans-31"/>
     </g>
    </g>
   </g>
   <g id="text_37">
    <g clip-path="url(#p845678ca2f)">
     <!-- 2 -->
     <g transform="translate(202.8369 223.47285) scale(0.12 -0.12)">
      <use xlink:href="#DejaVuSans-32"/>
     </g>
    </g>
   </g>
   <g id="text_38">
    <g clip-path="url(#p845678ca2f)">
     <!-- 3 -->
     <g transform="translate(190.7769 371.56965) scale(0.12 -0.12)">
      <use xlink:href="#DejaVuSans-33"/>
     </g>
    </g>
   </g>
   <g id="text_39">
    <g clip-path="url(#p845678ca2f)">
     <!-- 4 -->
     <g transform="translate(88.0257 66.69285) scale(0.12 -0.12)">
      <use xlink:href="#DejaVuSans-34"/>
     </g>
    </g>
   </g>
   <g id="text_40">
    <g clip-path="url(#p845678ca2f)">
     <!-- 5 -->
     <g transform="translate(385.1841 70.06965) scale(0.12 -0.12)">
      <use xlink:href="#DejaVuSans-35"/>
     </g>
    </g>
   </g>
   <g id="text_41">
    <g clip-path="url(#p845678ca2f)">
     <!-- 6 -->
     <g transform="translate(224.5449 135.19365) scale(0.12 -0.12)">
      <use xlink:href="#DejaVuSans-36"/>
     </g>
    </g>
   </g>
   <g id="text_42">
    <g clip-path="url(#p845678ca2f)">
     <!-- 7 -->
     <g transform="translate(33.0321 346.48485) scale(0.12 -0.12)">
      <use xlink:href="#DejaVuSans-37"/>
     </g>
    </g>
   </g>
   <g id="text_43">
    <g clip-path="url(#p845678ca2f)">
     <!-- 8 -->
     <g transform="translate(142.0545 413.53845) scale(0.12 -0.12)">
      <use xlink:href="#DejaVuSans-38"/>
     </g>
    </g>
   </g>
   <g id="text_44">
    <g clip-path="url(#p845678ca2f)">
     <!-- 9 -->
     <g transform="translate(46.5393 181.50405) scale(0.12 -0.12)">
      <use xlink:href="#DejaVuSans-39"/>
     </g>
    </g>
   </g>
   <g id="text_45">
    <g clip-path="url(#p845678ca2f)">
     <!-- 10 -->
     <g transform="translate(61.053 151.11285) scale(0.12 -0.12)">
      <use xlink:href="#DejaVuSans-31"/>
      <use xlink:href="#DejaVuSans-30" x="63.623047"/>
     </g>
    </g>
   </g>
   <g id="text_46">
    <g clip-path="url(#p845678ca2f)">
     <!-- 11 -->
     <g transform="translate(141.1314 76.82325) scale(0.12 -0.12)">
      <use xlink:href="#DejaVuSans-31"/>
      <use xlink:href="#DejaVuSans-31" x="63.623047"/>
     </g>
    </g>
   </g>
   <g id="text_47">
    <g clip-path="url(#p845678ca2f)">
     <!-- 12 -->
     <g transform="translate(274.7562 321.40005) scale(0.12 -0.12)">
      <use xlink:href="#DejaVuSans-31"/>
      <use xlink:href="#DejaVuSans-32" x="63.623047"/>
     </g>
    </g>
   </g>
   <g id="text_48">
    <g clip-path="url(#p845678ca2f)">
     <!-- 13 -->
     <g transform="translate(484.6002 432.83445) scale(0.12 -0.12)">
      <use xlink:href="#DejaVuSans-31"/>
      <use xlink:href="#DejaVuSans-33" x="63.623047"/>
     </g>
    </g>
   </g>
   <g id="text_49">
    <g clip-path="url(#p845678ca2f)">
     <!-- 14 -->
     <g transform="translate(370.2714 217.20165) scale(0.12 -0.12)">
      <use xlink:href="#DejaVuSans-31"/>
      <use xlink:href="#DejaVuSans-34" x="63.623047"/>
     </g>
    </g>
   </g>
   <g id="text_50">
    <g clip-path="url(#p845678ca2f)">
     <!-- 15 -->
     <g transform="translate(194.1954 118.79205) scale(0.12 -0.12)">
      <use xlink:href="#DejaVuSans-31"/>
      <use xlink:href="#DejaVuSans-35" x="63.623047"/>
     </g>
    </g>
   </g>
   <g id="text_51">
    <g clip-path="url(#p845678ca2f)">
     <!-- 16 -->
     <g transform="translate(92.8914 446.34165) scale(0.12 -0.12)">
      <use xlink:href="#DejaVuSans-31"/>
      <use xlink:href="#DejaVuSans-36" x="63.623047"/>
     </g>
    </g>
   </g>
  </g>
 </g>
 <defs>
  <clipPath id="p845678ca2f">
   <rect x="10.8" y="10.8" width="482.4" height="482.4"/>
  </clipPath>
 </defs>
</svg>
