<?xml version="1.0" encoding="utf-8" standalone="no"?>
<!DOCTYPE svg PUBLIC "-//W3C//DTD SVG 1.1//EN"
  "http://www.w3.org/Graphics/SVG/1.1/DTD/svg11.dtd">
<svg xmlns:xlink="http://www.w3.org/1999/xlink" width="504pt" height="504pt" viewBox="0 0 504 504" xmlns="http://www.w3.org/2000/svg" version="1.1">
 <metadata>
  <rdf:RDF xmlns:dc="http://purl.org/dc/elements/1.1/" xmlns:cc="http://creativecommons.org/ns#" xmlns:rdf="http://www.w3.org/1999/02/22-rdf-syntax-ns#">
   <cc:Work>
    <dc:type rdf:resource="http://purl.org/dc/dcmitype/StillImage"/>
    <dc:date>2024-10-29T14:59:39.834609</dc:date>
    <dc:format>image/svg+xml</dc:format>
    <dc:creator>
     <cc:Agent>
      <dc:title>Matplotlib v3.9.2, https://matplotlib.org/</dc:title>
     </cc:Agent>
    </dc:creator>
   </cc:Work>
  </rdf:RDF>
 </metadata>
 <defs>
  <style type="text/css">*{stroke-linejoin: round; stroke-linecap: butt}</style>
 </defs>
 <g id="figure_1">
  <g id="patch_1">
   <path d="M 0 504 
L 504 504 
L 504 0 
L 0 0 
L 0 504 
z
" style="fill: none; opacity: 0"/>
  </g>
  <g id="axes_1">
   <g id="patch_2">
    <path d="M 10.8 493.2 
L 493.2 493.2 
L 493.2 10.8 
L 10.8 10.8 
L 10.8 493.2 
z
" style="fill: none; opacity: 0"/>
   </g>
   <g id="LineCollection_1">
    <path d="M 334.9728 200.8656 
L 270.8136 140.5656 
" clip-path="url(#p0c2df6b8a1)" style="fill: none; stroke: #000000"/>
    <path d="M 334.9728 200.8656 
L 489.8232 333.5256 
" clip-path="url(#p0c2df6b8a1)" style="fill: none; stroke: #000000"/>
    <path d="M 334.9728 200.8656 
L 351.3744 313.7472 
" clip-path="url(#p0c2df6b8a1)" style="fill: none; stroke: #000000"/>
    <path d="M 459.432 307.9584 
L 293.9688 37.332 
" clip-path="url(#p0c2df6b8a1)" style="fill: none; stroke: #000000"/>
    <path d="M 459.432 307.9584 
L 212.4432 164.6856 
" clip-path="url(#p0c2df6b8a1)" style="fill: none; stroke: #000000"/>
    <path d="M 459.432 307.9584 
L 486.9288 356.6808 
" clip-path="url(#p0c2df6b8a1)" style="fill: none; stroke: #000000"/>
    <path d="M 304.5816 193.6296 
L 351.3744 313.7472 
" clip-path="url(#p0c2df6b8a1)" style="fill: none; stroke: #000000"/>
    <path d="M 304.5816 193.6296 
L 317.124 69.1704 
" clip-path="url(#p0c2df6b8a1)" style="fill: none; stroke: #000000"/>
    <path d="M 387.5544 403.956 
L 264.06 137.6712 
" clip-path="url(#p0c2df6b8a1)" style="fill: none; stroke: #000000"/>
    <path d="M 387.5544 403.956 
L 300.24 239.4576 
" clip-path="url(#p0c2df6b8a1)" style="fill: none; stroke: #000000"/>
    <path d="M 387.5544 403.956 
L 187.3584 306.0288 
" clip-path="url(#p0c2df6b8a1)" style="fill: none; stroke: #000000"/>
    <path d="M 291.0744 159.3792 
L 264.06 137.6712 
" clip-path="url(#p0c2df6b8a1)" style="fill: none; stroke: #000000"/>
    <path d="M 187.3584 306.0288 
L 212.4432 164.6856 
" clip-path="url(#p0c2df6b8a1)" style="fill: none; stroke: #000000"/>
    <path d="M 187.3584 306.0288 
L 15.1416 368.2584 
" clip-path="url(#p0c2df6b8a1)" style="fill: none; stroke: #000000"/>
    <path d="M 154.0728 32.9904 
L 300.24 239.4576 
" clip-path="url(#p0c2df6b8a1)" style="fill: none; stroke: #000000"/>
    <path d="M 317.124 69.1704 
L 293.9688 37.332 
" clip-path="url(#p0c2df6b8a1)" style="fill: none; stroke: #000000"/>
    <path d="M 293.9688 37.332 
L 489.8232 333.5256 
" clip-path="url(#p0c2df6b8a1)" style="fill: none; stroke: #000000"/>
   </g>
   <g id="text_1">
    <g id="patch_3">
     <path d="M 292.887841 172.069927 
L 302.160324 180.784667 
Q 304.346371 182.839222 306.400927 180.653175 
L 313.029008 173.600896 
Q 315.083564 171.414849 312.897517 169.360294 
L 303.625034 160.645554 
Q 301.438987 158.590999 299.384431 160.777046 
L 292.75635 167.829325 
Q 290.701794 170.015372 292.887841 172.069927 
z
" clip-path="url(#p0c2df6b8a1)" style="fill: #ffffff; stroke: #ffffff; stroke-linejoin: miter"/>
    </g>
    <g clip-path="url(#p0c2df6b8a1)">
     <!-- 15 -->
     <g transform="translate(296.366675 168.368449) rotate(-316.776044) scale(0.1 -0.1)">
      <defs>
       <path id="DejaVuSans-31" d="M 794 531 
L 1825 531 
L 1825 4091 
L 703 3866 
L 703 4441 
L 1819 4666 
L 2450 4666 
L 2450 531 
L 3481 531 
L 3481 0 
L 794 0 
L 794 531 
z
" transform="scale(0.015625)"/>
       <path id="DejaVuSans-35" d="M 691 4666 
L 3169 4666 
L 3169 4134 
L 1269 4134 
L 1269 2991 
Q 1406 3038 1543 3061 
Q 1681 3084 1819 3084 
Q 2600 3084 3056 2656 
Q 3513 2228 3513 1497 
Q 3513 744 3044 326 
Q 2575 -91 1722 -91 
Q 1428 -91 1123 -41 
Q 819 9 494 109 
L 494 744 
Q 775 591 1075 516 
Q 1375 441 1709 441 
Q 2250 441 2565 725 
Q 2881 1009 2881 1497 
Q 2881 1984 2565 2268 
Q 2250 2553 1709 2553 
Q 1456 2553 1204 2497 
Q 953 2441 691 2322 
L 691 4666 
z
" transform="scale(0.015625)"/>
      </defs>
      <use xlink:href="#DejaVuSans-31"/>
      <use xlink:href="#DejaVuSans-35" x="63.623047"/>
     </g>
    </g>
   </g>
   <g id="text_2">
    <g id="patch_4">
     <path d="M 402.465447 269.008788 
L 412.129112 277.287629 
Q 414.407382 279.239418 416.359172 276.961148 
L 422.655726 269.611351 
Q 424.607516 267.333081 422.329245 265.381291 
L 412.66558 257.10245 
Q 410.387309 255.150661 408.43552 257.428932 
L 402.138965 264.778728 
Q 400.187176 267.056999 402.465447 269.008788 
z
" clip-path="url(#p0c2df6b8a1)" style="fill: #ffffff; stroke: #ffffff; stroke-linejoin: miter"/>
    </g>
    <g clip-path="url(#p0c2df6b8a1)">
     <!-- 18 -->
     <g transform="translate(405.770274 265.151154) rotate(-319.413408) scale(0.1 -0.1)">
      <defs>
       <path id="DejaVuSans-38" d="M 2034 2216 
Q 1584 2216 1326 1975 
Q 1069 1734 1069 1313 
Q 1069 891 1326 650 
Q 1584 409 2034 409 
Q 2484 409 2743 651 
Q 3003 894 3003 1313 
Q 3003 1734 2745 1975 
Q 2488 2216 2034 2216 
z
M 1403 2484 
Q 997 2584 770 2862 
Q 544 3141 544 3541 
Q 544 4100 942 4425 
Q 1341 4750 2034 4750 
Q 2731 4750 3128 4425 
Q 3525 4100 3525 3541 
Q 3525 3141 3298 2862 
Q 3072 2584 2669 2484 
Q 3125 2378 3379 2068 
Q 3634 1759 3634 1313 
Q 3634 634 3220 271 
Q 2806 -91 2034 -91 
Q 1263 -91 848 271 
Q 434 634 434 1313 
Q 434 1759 690 2068 
Q 947 2378 1403 2484 
z
M 1172 3481 
Q 1172 3119 1398 2916 
Q 1625 2713 2034 2713 
Q 2441 2713 2670 2916 
Q 2900 3119 2900 3481 
Q 2900 3844 2670 4047 
Q 2441 4250 2034 4250 
Q 1625 4250 1398 4047 
Q 1172 3844 1172 3481 
z
" transform="scale(0.015625)"/>
      </defs>
      <use xlink:href="#DejaVuSans-31"/>
      <use xlink:href="#DejaVuSans-38" x="63.623047"/>
     </g>
    </g>
   </g>
   <g id="text_3">
    <g id="patch_5">
     <path d="M 334.958166 255.28261 
L 335.873025 261.578993 
Q 336.304393 264.547818 339.273218 264.116451 
L 348.850771 262.72484 
Q 351.819596 262.293473 351.388228 259.324648 
L 350.473369 253.028265 
Q 350.042002 250.05944 347.073177 250.490807 
L 337.495624 251.882418 
Q 334.526799 252.313785 334.958166 255.28261 
z
" clip-path="url(#p0c2df6b8a1)" style="fill: #ffffff; stroke: #ffffff; stroke-linejoin: miter"/>
    </g>
    <g clip-path="url(#p0c2df6b8a1)">
     <!-- 7 -->
     <g transform="translate(339.985067 254.552206) rotate(-278.267173) scale(0.1 -0.1)">
      <defs>
       <path id="DejaVuSans-37" d="M 525 4666 
L 3525 4666 
L 3525 4397 
L 1831 0 
L 1172 0 
L 2766 4134 
L 525 4134 
L 525 4666 
z
" transform="scale(0.015625)"/>
      </defs>
      <use xlink:href="#DejaVuSans-37"/>
     </g>
    </g>
   </g>
   <g id="text_4">
    <g id="patch_6">
     <path d="M 368.352651 174.019767 
L 371.671551 179.448055 
Q 373.236454 182.007562 375.795962 180.442658 
L 384.053038 175.394214 
Q 386.612545 173.82931 385.047642 171.269803 
L 381.728742 165.841515 
Q 380.163838 163.282008 377.604331 164.846912 
L 369.347254 169.895356 
Q 366.787747 171.46026 368.352651 174.019767 
z
" clip-path="url(#p0c2df6b8a1)" style="fill: #ffffff; stroke: #ffffff; stroke-linejoin: miter"/>
    </g>
    <g clip-path="url(#p0c2df6b8a1)">
     <!-- 5 -->
     <g transform="translate(372.686483 171.370026) rotate(-301.441957) scale(0.1 -0.1)">
      <use xlink:href="#DejaVuSans-35"/>
     </g>
    </g>
   </g>
   <g id="text_5">
    <g id="patch_7">
     <path d="M 329.252183 241.506416 
L 334.755758 244.69892 
Q 337.350763 246.204226 338.856069 243.60922 
L 343.712249 235.237624 
Q 345.217555 232.642618 342.622549 231.137312 
L 337.118975 227.944809 
Q 334.523969 226.439503 333.018663 229.034509 
L 328.162484 237.406105 
Q 326.657178 240.001111 329.252183 241.506416 
z
" clip-path="url(#p0c2df6b8a1)" style="fill: #ffffff; stroke: #ffffff; stroke-linejoin: miter"/>
    </g>
    <g clip-path="url(#p0c2df6b8a1)">
     <!-- 7 -->
     <g transform="translate(331.801011 237.112477) rotate(-329.882917) scale(0.1 -0.1)">
      <use xlink:href="#DejaVuSans-37"/>
     </g>
    </g>
   </g>
   <g id="text_6">
    <g id="patch_8">
     <path d="M 463.226971 330.632445 
L 469.481167 341.714442 
Q 470.955634 344.327093 473.568285 342.852626 
L 481.996808 338.095935 
Q 484.60946 336.621469 483.134993 334.008817 
L 476.880797 322.92682 
Q 475.40633 320.314169 472.793678 321.788636 
L 464.365156 326.545327 
Q 461.752504 328.019793 463.226971 330.632445 
z
" clip-path="url(#p0c2df6b8a1)" style="fill: #ffffff; stroke: #ffffff; stroke-linejoin: miter"/>
    </g>
    <g clip-path="url(#p0c2df6b8a1)">
     <!-- 14 -->
     <g transform="translate(467.650789 328.135835) rotate(-299.43849) scale(0.1 -0.1)">
      <defs>
       <path id="DejaVuSans-34" d="M 2419 4116 
L 825 1625 
L 2419 1625 
L 2419 4116 
z
M 2253 4666 
L 3047 4666 
L 3047 1625 
L 3713 1625 
L 3713 1100 
L 3047 1100 
L 3047 0 
L 2419 0 
L 2419 1100 
L 313 1100 
L 313 1709 
L 2253 4666 
z
" transform="scale(0.015625)"/>
      </defs>
      <use xlink:href="#DejaVuSans-31"/>
      <use xlink:href="#DejaVuSans-34" x="63.623047"/>
     </g>
    </g>
   </g>
   <g id="text_7">
    <g id="patch_9">
     <path d="M 318.364422 250.606176 
L 322.983444 262.463252 
Q 324.072407 265.258634 326.867789 264.16967 
L 335.885806 260.656627 
Q 338.681188 259.567663 337.592224 256.772282 
L 332.973202 244.915205 
Q 331.884238 242.119824 329.088857 243.208788 
L 320.070839 246.72183 
Q 317.275458 247.810794 318.364422 250.606176 
z
" clip-path="url(#p0c2df6b8a1)" style="fill: #ffffff; stroke: #ffffff; stroke-linejoin: miter"/>
    </g>
    <g clip-path="url(#p0c2df6b8a1)">
     <!-- 18 -->
     <g transform="translate(323.097643 248.76231) rotate(-291.283811) scale(0.1 -0.1)">
      <use xlink:href="#DejaVuSans-31"/>
      <use xlink:href="#DejaVuSans-38" x="63.623047"/>
     </g>
    </g>
   </g>
   <g id="text_8">
    <g id="patch_10">
     <path d="M 318.333526 135.349799 
L 318.971477 129.019362 
Q 319.272279 126.034481 316.287397 125.733679 
L 306.658045 124.763279 
Q 303.673163 124.462477 303.372361 127.447358 
L 302.73441 133.777795 
Q 302.433608 136.762676 305.41849 137.063478 
L 315.047842 138.033878 
Q 318.032724 138.33468 318.333526 135.349799 
z
" clip-path="url(#p0c2df6b8a1)" style="fill: #ffffff; stroke: #ffffff; stroke-linejoin: miter"/>
    </g>
    <g clip-path="url(#p0c2df6b8a1)">
     <!-- 6 -->
     <g transform="translate(313.279437 134.840472) rotate(-84.245435) scale(0.1 -0.1)">
      <defs>
       <path id="DejaVuSans-36" d="M 2113 2584 
Q 1688 2584 1439 2293 
Q 1191 2003 1191 1497 
Q 1191 994 1439 701 
Q 1688 409 2113 409 
Q 2538 409 2786 701 
Q 3034 994 3034 1497 
Q 3034 2003 2786 2293 
Q 2538 2584 2113 2584 
z
M 3366 4563 
L 3366 3988 
Q 3128 4100 2886 4159 
Q 2644 4219 2406 4219 
Q 1781 4219 1451 3797 
Q 1122 3375 1075 2522 
Q 1259 2794 1537 2939 
Q 1816 3084 2150 3084 
Q 2853 3084 3261 2657 
Q 3669 2231 3669 1497 
Q 3669 778 3244 343 
Q 2819 -91 2113 -91 
Q 1303 -91 875 529 
Q 447 1150 447 2328 
Q 447 3434 972 4092 
Q 1497 4750 2381 4750 
Q 2619 4750 2861 4703 
Q 3103 4656 3366 4563 
z
" transform="scale(0.015625)"/>
      </defs>
      <use xlink:href="#DejaVuSans-36"/>
     </g>
    </g>
   </g>
   <g id="text_9">
    <g id="patch_11">
     <path d="M 316.019978 268.342175 
L 321.373703 279.886145 
Q 322.635878 282.60771 325.357443 281.345535 
L 334.137324 277.273706 
Q 336.858889 276.011531 335.596714 273.289966 
L 330.242988 261.745996 
Q 328.980813 259.024431 326.259249 260.286606 
L 317.479368 264.358435 
Q 314.757803 265.62061 316.019978 268.342175 
z
" clip-path="url(#p0c2df6b8a1)" style="fill: #ffffff; stroke: #ffffff; stroke-linejoin: miter"/>
    </g>
    <g clip-path="url(#p0c2df6b8a1)">
     <!-- 10 -->
     <g transform="translate(320.62821 266.205023) rotate(-294.880367) scale(0.1 -0.1)">
      <defs>
       <path id="DejaVuSans-30" d="M 2034 4250 
Q 1547 4250 1301 3770 
Q 1056 3291 1056 2328 
Q 1056 1369 1301 889 
Q 1547 409 2034 409 
Q 2525 409 2770 889 
Q 3016 1369 3016 2328 
Q 3016 3291 2770 3770 
Q 2525 4250 2034 4250 
z
M 2034 4750 
Q 2819 4750 3233 4129 
Q 3647 3509 3647 2328 
Q 3647 1150 3233 529 
Q 2819 -91 2034 -91 
Q 1250 -91 836 529 
Q 422 1150 422 2328 
Q 422 3509 836 4129 
Q 1250 4750 2034 4750 
z
" transform="scale(0.015625)"/>
      </defs>
      <use xlink:href="#DejaVuSans-31"/>
      <use xlink:href="#DejaVuSans-30" x="63.623047"/>
     </g>
    </g>
   </g>
   <g id="text_10">
    <g id="patch_12">
     <path d="M 333.991001 319.763879 
L 339.956984 331.00366 
Q 341.363503 333.65351 344.013353 332.246991 
L 352.56188 327.709504 
Q 355.21173 326.302985 353.805211 323.653135 
L 347.839228 312.413354 
Q 346.432709 309.763504 343.782859 311.170023 
L 335.234332 315.707511 
Q 332.584482 317.114029 333.991001 319.763879 
z
" clip-path="url(#p0c2df6b8a1)" style="fill: #ffffff; stroke: #ffffff; stroke-linejoin: miter"/>
    </g>
    <g clip-path="url(#p0c2df6b8a1)">
     <!-- 16 -->
     <g transform="translate(338.477804 317.382321) rotate(-297.958996) scale(0.1 -0.1)">
      <use xlink:href="#DejaVuSans-31"/>
      <use xlink:href="#DejaVuSans-36" x="63.623047"/>
     </g>
    </g>
   </g>
   <g id="text_11">
    <g id="patch_13">
     <path d="M 281.152747 360.635582 
L 286.868113 363.431291 
Q 289.562982 364.749504 290.881194 362.054636 
L 295.133803 353.360878 
Q 296.452016 350.66601 293.757148 349.347797 
L 288.041781 346.552088 
Q 285.346913 345.233875 284.0287 347.928743 
L 279.776091 356.622501 
Q 278.457878 359.317369 281.152747 360.635582 
z
" clip-path="url(#p0c2df6b8a1)" style="fill: #ffffff; stroke: #ffffff; stroke-linejoin: miter"/>
    </g>
    <g clip-path="url(#p0c2df6b8a1)">
     <!-- 1 -->
     <g transform="translate(283.384783 356.072552) rotate(-333.934125) scale(0.1 -0.1)">
      <use xlink:href="#DejaVuSans-31"/>
     </g>
    </g>
   </g>
   <g id="text_12">
    <g id="patch_14">
     <path d="M 267.697392 150.650516 
L 277.616644 158.621343 
Q 279.95517 160.500516 281.834344 158.161989 
L 287.896635 150.617804 
Q 289.775809 148.279278 287.437282 146.400104 
L 277.518031 138.429277 
Q 275.179504 136.550104 273.30033 138.888631 
L 267.238039 146.432816 
Q 265.358866 148.771343 267.697392 150.650516 
z
" clip-path="url(#p0c2df6b8a1)" style="fill: #ffffff; stroke: #ffffff; stroke-linejoin: miter"/>
    </g>
    <g clip-path="url(#p0c2df6b8a1)">
     <!-- 12 -->
     <g transform="translate(270.879264 146.690854) rotate(-321.215636) scale(0.1 -0.1)">
      <defs>
       <path id="DejaVuSans-32" d="M 1228 531 
L 3431 531 
L 3431 0 
L 469 0 
L 469 531 
Q 828 903 1448 1529 
Q 2069 2156 2228 2338 
Q 2531 2678 2651 2914 
Q 2772 3150 2772 3378 
Q 2772 3750 2511 3984 
Q 2250 4219 1831 4219 
Q 1534 4219 1204 4116 
Q 875 4013 500 3803 
L 500 4441 
Q 881 4594 1212 4672 
Q 1544 4750 1819 4750 
Q 2544 4750 2975 4387 
Q 3406 4025 3406 3419 
Q 3406 3131 3298 2873 
Q 3191 2616 2906 2266 
Q 2828 2175 2409 1742 
Q 1991 1309 1228 531 
z
" transform="scale(0.015625)"/>
      </defs>
      <use xlink:href="#DejaVuSans-31"/>
      <use xlink:href="#DejaVuSans-32" x="63.623047"/>
     </g>
    </g>
   </g>
   <g id="text_13">
    <g id="patch_15">
     <path d="M 207.063684 239.857431 
L 208.175491 233.592825 
Q 208.699722 230.638983 205.74588 230.114751 
L 196.216664 228.423559 
Q 193.262822 227.899328 192.738591 230.85317 
L 191.626783 237.117776 
Q 191.102552 240.071618 194.056394 240.595849 
L 203.585611 242.287041 
Q 206.539452 242.811273 207.063684 239.857431 
z
" clip-path="url(#p0c2df6b8a1)" style="fill: #ffffff; stroke: #ffffff; stroke-linejoin: miter"/>
    </g>
    <g clip-path="url(#p0c2df6b8a1)">
     <!-- 7 -->
     <g transform="translate(202.062153 238.969787) rotate(-79.936252) scale(0.1 -0.1)">
      <use xlink:href="#DejaVuSans-37"/>
     </g>
    </g>
   </g>
   <g id="text_14">
    <g id="patch_16">
     <path d="M 100.922333 345.597139 
L 106.906161 343.434916 
Q 109.727612 342.4154 108.708096 339.593949 
L 105.419095 330.491829 
Q 104.399579 327.670378 101.578128 328.689894 
L 95.5943 330.852118 
Q 92.772849 331.871634 93.792365 334.693085 
L 97.081366 343.795204 
Q 98.100882 346.616655 100.922333 345.597139 
z
" clip-path="url(#p0c2df6b8a1)" style="fill: #ffffff; stroke: #ffffff; stroke-linejoin: miter"/>
    </g>
    <g clip-path="url(#p0c2df6b8a1)">
     <!-- 7 -->
     <g transform="translate(99.196059 340.819776) rotate(-19.867045) scale(0.1 -0.1)">
      <use xlink:href="#DejaVuSans-37"/>
     </g>
    </g>
   </g>
   <g id="text_15">
    <g id="patch_17">
     <path d="M 218.919663 138.156222 
L 222.595951 143.349131 
Q 224.329368 145.797654 226.777891 144.064237 
L 234.676929 138.472161 
Q 237.125452 136.738744 235.392035 134.290221 
L 231.715746 129.097312 
Q 229.982329 126.648789 227.533806 128.382206 
L 219.634769 133.974281 
Q 217.186246 135.707699 218.919663 138.156222 
z
" clip-path="url(#p0c2df6b8a1)" style="fill: #ffffff; stroke: #ffffff; stroke-linejoin: miter"/>
    </g>
    <g clip-path="url(#p0c2df6b8a1)">
     <!-- 3 -->
     <g transform="translate(223.065573 135.221149) rotate(-305.296354) scale(0.1 -0.1)">
      <defs>
       <path id="DejaVuSans-33" d="M 2597 2516 
Q 3050 2419 3304 2112 
Q 3559 1806 3559 1356 
Q 3559 666 3084 287 
Q 2609 -91 1734 -91 
Q 1441 -91 1130 -33 
Q 819 25 488 141 
L 488 750 
Q 750 597 1062 519 
Q 1375 441 1716 441 
Q 2309 441 2620 675 
Q 2931 909 2931 1356 
Q 2931 1769 2642 2001 
Q 2353 2234 1838 2234 
L 1294 2234 
L 1294 2753 
L 1863 2753 
Q 2328 2753 2575 2939 
Q 2822 3125 2822 3475 
Q 2822 3834 2567 4026 
Q 2313 4219 1838 4219 
Q 1578 4219 1281 4162 
Q 984 4106 628 3988 
L 628 4550 
Q 988 4650 1302 4700 
Q 1616 4750 1894 4750 
Q 2613 4750 3031 4423 
Q 3450 4097 3450 3541 
Q 3450 3153 3228 2886 
Q 3006 2619 2597 2516 
z
" transform="scale(0.015625)"/>
      </defs>
      <use xlink:href="#DejaVuSans-33"/>
     </g>
    </g>
   </g>
   <g id="text_16">
    <g id="patch_18">
     <path d="M 295.463528 52.715099 
L 302.948013 63.006265 
Q 304.712528 65.432473 307.138736 63.667958 
L 314.965785 57.975559 
Q 317.391994 56.211044 315.627479 53.784836 
L 308.142994 43.493669 
Q 306.378479 41.067461 303.95227 42.831976 
L 296.125221 48.524375 
Q 293.699013 50.28889 295.463528 52.715099 
z
" clip-path="url(#p0c2df6b8a1)" style="fill: #ffffff; stroke: #ffffff; stroke-linejoin: miter"/>
    </g>
    <g clip-path="url(#p0c2df6b8a1)">
     <!-- 10 -->
     <g transform="translate(299.571655 49.72737) rotate(-306.027373) scale(0.1 -0.1)">
      <use xlink:href="#DejaVuSans-31"/>
      <use xlink:href="#DejaVuSans-30" x="63.623047"/>
     </g>
    </g>
   </g>
   <g id="text_17">
    <g id="patch_19">
     <path d="M 381.847808 184.445263 
L 388.866424 195.059624 
Q 390.521107 197.562027 393.023511 195.907343 
L 401.096368 190.569265 
Q 403.598771 188.914582 401.944088 186.412178 
L 394.925471 175.797818 
Q 393.270788 173.295414 390.768384 174.950098 
L 382.695527 180.288176 
Q 380.193124 181.94286 381.847808 184.445263 
z
" clip-path="url(#p0c2df6b8a1)" style="fill: #ffffff; stroke: #ffffff; stroke-linejoin: miter"/>
    </g>
    <g clip-path="url(#p0c2df6b8a1)">
     <!-- 19 -->
     <g transform="translate(386.08495 181.643505) rotate(-303.474184) scale(0.1 -0.1)">
      <defs>
       <path id="DejaVuSans-39" d="M 703 97 
L 703 672 
Q 941 559 1184 500 
Q 1428 441 1663 441 
Q 2288 441 2617 861 
Q 2947 1281 2994 2138 
Q 2813 1869 2534 1725 
Q 2256 1581 1919 1581 
Q 1219 1581 811 2004 
Q 403 2428 403 3163 
Q 403 3881 828 4315 
Q 1253 4750 1959 4750 
Q 2769 4750 3195 4129 
Q 3622 3509 3622 2328 
Q 3622 1225 3098 567 
Q 2575 -91 1691 -91 
Q 1453 -91 1209 -44 
Q 966 3 703 97 
z
M 1959 2075 
Q 2384 2075 2632 2365 
Q 2881 2656 2881 3163 
Q 2881 3666 2632 3958 
Q 2384 4250 1959 4250 
Q 1534 4250 1286 3958 
Q 1038 3666 1038 3163 
Q 1038 2656 1286 2365 
Q 1534 2075 1959 2075 
z
" transform="scale(0.015625)"/>
      </defs>
      <use xlink:href="#DejaVuSans-31"/>
      <use xlink:href="#DejaVuSans-39" x="63.623047"/>
     </g>
    </g>
   </g>
   <g id="matplotlib.axis_1">
    <g id="xtick_1">
     <g id="line2d_1">
      <path d="M 10.8 493.2 
L 10.8 10.8 
" clip-path="url(#p0c2df6b8a1)" style="fill: none; stroke: #b0b0b0; stroke-opacity: 0.3; stroke-width: 0.8; stroke-linecap: square"/>
     </g>
    </g>
    <g id="xtick_2">
     <g id="line2d_2">
      <path d="M 59.04 493.2 
L 59.04 10.8 
" clip-path="url(#p0c2df6b8a1)" style="fill: none; stroke: #b0b0b0; stroke-opacity: 0.3; stroke-width: 0.8; stroke-linecap: square"/>
     </g>
    </g>
    <g id="xtick_3">
     <g id="line2d_3">
      <path d="M 107.28 493.2 
L 107.28 10.8 
" clip-path="url(#p0c2df6b8a1)" style="fill: none; stroke: #b0b0b0; stroke-opacity: 0.3; stroke-width: 0.8; stroke-linecap: square"/>
     </g>
    </g>
    <g id="xtick_4">
     <g id="line2d_4">
      <path d="M 155.52 493.2 
L 155.52 10.8 
" clip-path="url(#p0c2df6b8a1)" style="fill: none; stroke: #b0b0b0; stroke-opacity: 0.3; stroke-width: 0.8; stroke-linecap: square"/>
     </g>
    </g>
    <g id="xtick_5">
     <g id="line2d_5">
      <path d="M 203.76 493.2 
L 203.76 10.8 
" clip-path="url(#p0c2df6b8a1)" style="fill: none; stroke: #b0b0b0; stroke-opacity: 0.3; stroke-width: 0.8; stroke-linecap: square"/>
     </g>
    </g>
    <g id="xtick_6">
     <g id="line2d_6">
      <path d="M 252 493.2 
L 252 10.8 
" clip-path="url(#p0c2df6b8a1)" style="fill: none; stroke: #b0b0b0; stroke-opacity: 0.3; stroke-width: 0.8; stroke-linecap: square"/>
     </g>
    </g>
    <g id="xtick_7">
     <g id="line2d_7">
      <path d="M 300.24 493.2 
L 300.24 10.8 
" clip-path="url(#p0c2df6b8a1)" style="fill: none; stroke: #b0b0b0; stroke-opacity: 0.3; stroke-width: 0.8; stroke-linecap: square"/>
     </g>
    </g>
    <g id="xtick_8">
     <g id="line2d_8">
      <path d="M 348.48 493.2 
L 348.48 10.8 
" clip-path="url(#p0c2df6b8a1)" style="fill: none; stroke: #b0b0b0; stroke-opacity: 0.3; stroke-width: 0.8; stroke-linecap: square"/>
     </g>
    </g>
    <g id="xtick_9">
     <g id="line2d_9">
      <path d="M 396.72 493.2 
L 396.72 10.8 
" clip-path="url(#p0c2df6b8a1)" style="fill: none; stroke: #b0b0b0; stroke-opacity: 0.3; stroke-width: 0.8; stroke-linecap: square"/>
     </g>
    </g>
    <g id="xtick_10">
     <g id="line2d_10">
      <path d="M 444.96 493.2 
L 444.96 10.8 
" clip-path="url(#p0c2df6b8a1)" style="fill: none; stroke: #b0b0b0; stroke-opacity: 0.3; stroke-width: 0.8; stroke-linecap: square"/>
     </g>
    </g>
    <g id="xtick_11">
     <g id="line2d_11">
      <path d="M 493.2 493.2 
L 493.2 10.8 
" clip-path="url(#p0c2df6b8a1)" style="fill: none; stroke: #b0b0b0; stroke-opacity: 0.3; stroke-width: 0.8; stroke-linecap: square"/>
     </g>
    </g>
   </g>
   <g id="matplotlib.axis_2">
    <g id="ytick_1">
     <g id="line2d_12">
      <path d="M 10.8 493.2 
L 493.2 493.2 
" clip-path="url(#p0c2df6b8a1)" style="fill: none; stroke: #b0b0b0; stroke-opacity: 0.3; stroke-width: 0.8; stroke-linecap: square"/>
     </g>
    </g>
    <g id="ytick_2">
     <g id="line2d_13">
      <path d="M 10.8 444.96 
L 493.2 444.96 
" clip-path="url(#p0c2df6b8a1)" style="fill: none; stroke: #b0b0b0; stroke-opacity: 0.3; stroke-width: 0.8; stroke-linecap: square"/>
     </g>
    </g>
    <g id="ytick_3">
     <g id="line2d_14">
      <path d="M 10.8 396.72 
L 493.2 396.72 
" clip-path="url(#p0c2df6b8a1)" style="fill: none; stroke: #b0b0b0; stroke-opacity: 0.3; stroke-width: 0.8; stroke-linecap: square"/>
     </g>
    </g>
    <g id="ytick_4">
     <g id="line2d_15">
      <path d="M 10.8 348.48 
L 493.2 348.48 
" clip-path="url(#p0c2df6b8a1)" style="fill: none; stroke: #b0b0b0; stroke-opacity: 0.3; stroke-width: 0.8; stroke-linecap: square"/>
     </g>
    </g>
    <g id="ytick_5">
     <g id="line2d_16">
      <path d="M 10.8 300.24 
L 493.2 300.24 
" clip-path="url(#p0c2df6b8a1)" style="fill: none; stroke: #b0b0b0; stroke-opacity: 0.3; stroke-width: 0.8; stroke-linecap: square"/>
     </g>
    </g>
    <g id="ytick_6">
     <g id="line2d_17">
      <path d="M 10.8 252 
L 493.2 252 
" clip-path="url(#p0c2df6b8a1)" style="fill: none; stroke: #b0b0b0; stroke-opacity: 0.3; stroke-width: 0.8; stroke-linecap: square"/>
     </g>
    </g>
    <g id="ytick_7">
     <g id="line2d_18">
      <path d="M 10.8 203.76 
L 493.2 203.76 
" clip-path="url(#p0c2df6b8a1)" style="fill: none; stroke: #b0b0b0; stroke-opacity: 0.3; stroke-width: 0.8; stroke-linecap: square"/>
     </g>
    </g>
    <g id="ytick_8">
     <g id="line2d_19">
      <path d="M 10.8 155.52 
L 493.2 155.52 
" clip-path="url(#p0c2df6b8a1)" style="fill: none; stroke: #b0b0b0; stroke-opacity: 0.3; stroke-width: 0.8; stroke-linecap: square"/>
     </g>
    </g>
    <g id="ytick_9">
     <g id="line2d_20">
      <path d="M 10.8 107.28 
L 493.2 107.28 
" clip-path="url(#p0c2df6b8a1)" style="fill: none; stroke: #b0b0b0; stroke-opacity: 0.3; stroke-width: 0.8; stroke-linecap: square"/>
     </g>
    </g>
    <g id="ytick_10">
     <g id="line2d_21">
      <path d="M 10.8 59.04 
L 493.2 59.04 
" clip-path="url(#p0c2df6b8a1)" style="fill: none; stroke: #b0b0b0; stroke-opacity: 0.3; stroke-width: 0.8; stroke-linecap: square"/>
     </g>
    </g>
    <g id="ytick_11">
     <g id="line2d_22">
      <path d="M 10.8 10.8 
L 493.2 10.8 
" clip-path="url(#p0c2df6b8a1)" style="fill: none; stroke: #b0b0b0; stroke-opacity: 0.3; stroke-width: 0.8; stroke-linecap: square"/>
     </g>
    </g>
   </g>
   <g id="PathCollection_1">
    <defs>
     <path id="m1bdda17328" d="M 0 8.660254 
C 2.296726 8.660254 4.499694 7.747755 6.123724 6.123724 
C 7.747755 4.499694 8.660254 2.296726 8.660254 0 
C 8.660254 -2.296726 7.747755 -4.499694 6.123724 -6.123724 
C 4.499694 -7.747755 2.296726 -8.660254 0 -8.660254 
C -2.296726 -8.660254 -4.499694 -7.747755 -6.123724 -6.123724 
C -7.747755 -4.499694 -8.660254 -2.296726 -8.660254 0 
C -8.660254 2.296726 -7.747755 4.499694 -6.123724 6.123724 
C -4.499694 7.747755 -2.296726 8.660254 0 8.660254 
z
" style="stroke: #1f78b4"/>
    </defs>
    <g clip-path="url(#p0c2df6b8a1)">
     <use xlink:href="#m1bdda17328" x="334.9728" y="200.8656" style="fill: #1f78b4; stroke: #1f78b4"/>
     <use xlink:href="#m1bdda17328" x="459.432" y="307.9584" style="fill: #1f78b4; stroke: #1f78b4"/>
     <use xlink:href="#m1bdda17328" x="304.5816" y="193.6296" style="fill: #1f78b4; stroke: #1f78b4"/>
     <use xlink:href="#m1bdda17328" x="387.5544" y="403.956" style="fill: #1f78b4; stroke: #1f78b4"/>
     <use xlink:href="#m1bdda17328" x="291.0744" y="159.3792" style="fill: #1f78b4; stroke: #1f78b4"/>
     <use xlink:href="#m1bdda17328" x="264.06" y="137.6712" style="fill: #1f78b4; stroke: #1f78b4"/>
     <use xlink:href="#m1bdda17328" x="187.3584" y="306.0288" style="fill: #1f78b4; stroke: #1f78b4"/>
     <use xlink:href="#m1bdda17328" x="154.0728" y="32.9904" style="fill: #1f78b4; stroke: #1f78b4"/>
     <use xlink:href="#m1bdda17328" x="270.8136" y="140.5656" style="fill: #1f78b4; stroke: #1f78b4"/>
     <use xlink:href="#m1bdda17328" x="317.124" y="69.1704" style="fill: #1f78b4; stroke: #1f78b4"/>
     <use xlink:href="#m1bdda17328" x="15.1416" y="368.2584" style="fill: #1f78b4; stroke: #1f78b4"/>
     <use xlink:href="#m1bdda17328" x="293.9688" y="37.332" style="fill: #1f78b4; stroke: #1f78b4"/>
     <use xlink:href="#m1bdda17328" x="212.4432" y="164.6856" style="fill: #1f78b4; stroke: #1f78b4"/>
     <use xlink:href="#m1bdda17328" x="489.8232" y="333.5256" style="fill: #1f78b4; stroke: #1f78b4"/>
     <use xlink:href="#m1bdda17328" x="351.3744" y="313.7472" style="fill: #1f78b4; stroke: #1f78b4"/>
     <use xlink:href="#m1bdda17328" x="300.24" y="239.4576" style="fill: #1f78b4; stroke: #1f78b4"/>
     <use xlink:href="#m1bdda17328" x="486.9288" y="356.6808" style="fill: #1f78b4; stroke: #1f78b4"/>
    </g>
   </g>
   <g id="patch_20">
    <path d="M 10.8 493.2 
L 10.8 10.8 
" style="fill: none; stroke: #000000; stroke-width: 0.8; stroke-linejoin: miter; stroke-linecap: square"/>
   </g>
   <g id="patch_21">
    <path d="M 493.2 493.2 
L 493.2 10.8 
" style="fill: none; stroke: #000000; stroke-width: 0.8; stroke-linejoin: miter; stroke-linecap: square"/>
   </g>
   <g id="patch_22">
    <path d="M 10.8 493.2 
L 493.2 493.2 
" style="fill: none; stroke: #000000; stroke-width: 0.8; stroke-linejoin: miter; stroke-linecap: square"/>
   </g>
   <g id="patch_23">
    <path d="M 10.8 10.8 
L 493.2 10.8 
" style="fill: none; stroke: #000000; stroke-width: 0.8; stroke-linejoin: miter; stroke-linecap: square"/>
   </g>
   <g id="text_18">
    <g clip-path="url(#p0c2df6b8a1)">
     <!-- 0 -->
     <g transform="translate(331.1553 204.17685) scale(0.12 -0.12)">
      <use xlink:href="#DejaVuSans-30"/>
     </g>
    </g>
   </g>
   <g id="text_19">
    <g clip-path="url(#p0c2df6b8a1)">
     <!-- 1 -->
     <g transform="translate(455.6145 311.26965) scale(0.12 -0.12)">
      <use xlink:href="#DejaVuSans-31"/>
     </g>
    </g>
   </g>
   <g id="text_20">
    <g clip-path="url(#p0c2df6b8a1)">
     <!-- 2 -->
     <g transform="translate(300.7641 196.94085) scale(0.12 -0.12)">
      <use xlink:href="#DejaVuSans-32"/>
     </g>
    </g>
   </g>
   <g id="text_21">
    <g clip-path="url(#p0c2df6b8a1)">
     <!-- 3 -->
     <g transform="translate(383.7369 407.26725) scale(0.12 -0.12)">
      <use xlink:href="#DejaVuSans-33"/>
     </g>
    </g>
   </g>
   <g id="text_22">
    <g clip-path="url(#p0c2df6b8a1)">
     <!-- 4 -->
     <g transform="translate(287.2569 162.69045) scale(0.12 -0.12)">
      <use xlink:href="#DejaVuSans-34"/>
     </g>
    </g>
   </g>
   <g id="text_23">
    <g clip-path="url(#p0c2df6b8a1)">
     <!-- 5 -->
     <g transform="translate(260.2425 140.98245) scale(0.12 -0.12)">
      <use xlink:href="#DejaVuSans-35"/>
     </g>
    </g>
   </g>
   <g id="text_24">
    <g clip-path="url(#p0c2df6b8a1)">
     <!-- 6 -->
     <g transform="translate(183.5409 309.34005) scale(0.12 -0.12)">
      <use xlink:href="#DejaVuSans-36"/>
     </g>
    </g>
   </g>
   <g id="text_25">
    <g clip-path="url(#p0c2df6b8a1)">
     <!-- 7 -->
     <g transform="translate(150.2553 36.30165) scale(0.12 -0.12)">
      <use xlink:href="#DejaVuSans-37"/>
     </g>
    </g>
   </g>
   <g id="text_26">
    <g clip-path="url(#p0c2df6b8a1)">
     <!-- 8 -->
     <g transform="translate(266.9961 143.87685) scale(0.12 -0.12)">
      <use xlink:href="#DejaVuSans-38"/>
     </g>
    </g>
   </g>
   <g id="text_27">
    <g clip-path="url(#p0c2df6b8a1)">
     <!-- 9 -->
     <g transform="translate(313.3065 72.48165) scale(0.12 -0.12)">
      <use xlink:href="#DejaVuSans-39"/>
     </g>
    </g>
   </g>
   <g id="text_28">
    <g clip-path="url(#p0c2df6b8a1)">
     <!-- 10 -->
     <g transform="translate(7.5066 371.56965) scale(0.12 -0.12)">
      <use xlink:href="#DejaVuSans-31"/>
      <use xlink:href="#DejaVuSans-30" x="63.623047"/>
     </g>
    </g>
   </g>
   <g id="text_29">
    <g clip-path="url(#p0c2df6b8a1)">
     <!-- 11 -->
     <g transform="translate(286.3338 40.64325) scale(0.12 -0.12)">
      <use xlink:href="#DejaVuSans-31"/>
      <use xlink:href="#DejaVuSans-31" x="63.623047"/>
     </g>
    </g>
   </g>
   <g id="text_30">
    <g clip-path="url(#p0c2df6b8a1)">
     <!-- 12 -->
     <g transform="translate(204.8082 167.99685) scale(0.12 -0.12)">
      <use xlink:href="#DejaVuSans-31"/>
      <use xlink:href="#DejaVuSans-32" x="63.623047"/>
     </g>
    </g>
   </g>
   <g id="text_31">
    <g clip-path="url(#p0c2df6b8a1)">
     <!-- 13 -->
     <g transform="translate(482.1882 336.83685) scale(0.12 -0.12)">
      <use xlink:href="#DejaVuSans-31"/>
      <use xlink:href="#DejaVuSans-33" x="63.623047"/>
     </g>
    </g>
   </g>
   <g id="text_32">
    <g clip-path="url(#p0c2df6b8a1)">
     <!-- 14 -->
     <g transform="translate(343.7394 317.05845) scale(0.12 -0.12)">
      <use xlink:href="#DejaVuSans-31"/>
      <use xlink:href="#DejaVuSans-34" x="63.623047"/>
     </g>
    </g>
   </g>
   <g id="text_33">
    <g clip-path="url(#p0c2df6b8a1)">
     <!-- 15 -->
     <g transform="translate(292.605 242.76885) scale(0.12 -0.12)">
      <use xlink:href="#DejaVuSans-31"/>
      <use xlink:href="#DejaVuSans-35" x="63.623047"/>
     </g>
    </g>
   </g>
   <g id="text_34">
    <g clip-path="url(#p0c2df6b8a1)">
     <!-- 16 -->
     <g transform="translate(479.2938 359.99205) scale(0.12 -0.12)">
      <use xlink:href="#DejaVuSans-31"/>
      <use xlink:href="#DejaVuSans-36" x="63.623047"/>
     </g>
    </g>
   </g>
  </g>
 </g>
 <defs>
  <clipPath id="p0c2df6b8a1">
   <rect x="10.8" y="10.8" width="482.4" height="482.4"/>
  </clipPath>
 </defs>
</svg>
