<?xml version="1.0" encoding="utf-8" standalone="no"?>
<!DOCTYPE svg PUBLIC "-//W3C//DTD SVG 1.1//EN"
  "http://www.w3.org/Graphics/SVG/1.1/DTD/svg11.dtd">
<svg xmlns:xlink="http://www.w3.org/1999/xlink" width="504pt" height="504pt" viewBox="0 0 504 504" xmlns="http://www.w3.org/2000/svg" version="1.1">
 <metadata>
  <rdf:RDF xmlns:dc="http://purl.org/dc/elements/1.1/" xmlns:cc="http://creativecommons.org/ns#" xmlns:rdf="http://www.w3.org/1999/02/22-rdf-syntax-ns#">
   <cc:Work>
    <dc:type rdf:resource="http://purl.org/dc/dcmitype/StillImage"/>
    <dc:date>2024-10-29T14:59:40.059167</dc:date>
    <dc:format>image/svg+xml</dc:format>
    <dc:creator>
     <cc:Agent>
      <dc:title>Matplotlib v3.9.2, https://matplotlib.org/</dc:title>
     </cc:Agent>
    </dc:creator>
   </cc:Work>
  </rdf:RDF>
 </metadata>
 <defs>
  <style type="text/css">*{stroke-linejoin: round; stroke-linecap: butt}</style>
 </defs>
 <g id="figure_1">
  <g id="patch_1">
   <path d="M 0 504 
L 504 504 
L 504 0 
L 0 0 
L 0 504 
z
" style="fill: none; opacity: 0"/>
  </g>
  <g id="axes_1">
   <g id="patch_2">
    <path d="M 10.8 493.2 
L 493.2 493.2 
L 493.2 10.8 
L 10.8 10.8 
L 10.8 493.2 
z
" style="fill: none; opacity: 0"/>
   </g>
   <g id="LineCollection_1">
    <path d="M 466.668 337.8672 
L 99.0792 488.8584 
" clip-path="url(#p5eed13c61c)" style="fill: none; stroke: #000000"/>
    <path d="M 466.668 337.8672 
L 403.956 12.7296 
" clip-path="url(#p5eed13c61c)" style="fill: none; stroke: #000000"/>
    <path d="M 466.668 337.8672 
L 144.9072 224.5032 
" clip-path="url(#p5eed13c61c)" style="fill: none; stroke: #000000"/>
    <path d="M 466.668 337.8672 
L 483.0696 158.8968 
" clip-path="url(#p5eed13c61c)" style="fill: none; stroke: #000000"/>
    <path d="M 466.668 337.8672 
L 469.5624 287.2152 
" clip-path="url(#p5eed13c61c)" style="fill: none; stroke: #000000"/>
    <path d="M 466.668 337.8672 
L 101.4912 67.2408 
" clip-path="url(#p5eed13c61c)" style="fill: none; stroke: #000000"/>
    <path d="M 466.668 337.8672 
L 75.4416 147.8016 
" clip-path="url(#p5eed13c61c)" style="fill: none; stroke: #000000"/>
    <path d="M 223.5384 335.4552 
L 483.0696 158.8968 
" clip-path="url(#p5eed13c61c)" style="fill: none; stroke: #000000"/>
    <path d="M 223.5384 335.4552 
L 20.9304 65.3112 
" clip-path="url(#p5eed13c61c)" style="fill: none; stroke: #000000"/>
    <path d="M 223.5384 335.4552 
L 469.5624 287.2152 
" clip-path="url(#p5eed13c61c)" style="fill: none; stroke: #000000"/>
    <path d="M 223.5384 335.4552 
L 490.788 450.2664 
" clip-path="url(#p5eed13c61c)" style="fill: none; stroke: #000000"/>
    <path d="M 223.5384 335.4552 
L 144.9072 224.5032 
" clip-path="url(#p5eed13c61c)" style="fill: none; stroke: #000000"/>
    <path d="M 223.5384 335.4552 
L 373.0824 240.9048 
" clip-path="url(#p5eed13c61c)" style="fill: none; stroke: #000000"/>
    <path d="M 223.5384 335.4552 
L 101.4912 67.2408 
" clip-path="url(#p5eed13c61c)" style="fill: none; stroke: #000000"/>
    <path d="M 223.5384 335.4552 
L 123.1992 180.1224 
" clip-path="url(#p5eed13c61c)" style="fill: none; stroke: #000000"/>
    <path d="M 373.0824 240.9048 
L 144.9072 224.5032 
" clip-path="url(#p5eed13c61c)" style="fill: none; stroke: #000000"/>
    <path d="M 373.0824 240.9048 
L 129.9528 232.2216 
" clip-path="url(#p5eed13c61c)" style="fill: none; stroke: #000000"/>
    <path d="M 373.0824 240.9048 
L 101.4912 67.2408 
" clip-path="url(#p5eed13c61c)" style="fill: none; stroke: #000000"/>
    <path d="M 373.0824 240.9048 
L 289.6272 338.3496 
" clip-path="url(#p5eed13c61c)" style="fill: none; stroke: #000000"/>
    <path d="M 373.0824 240.9048 
L 490.788 450.2664 
" clip-path="url(#p5eed13c61c)" style="fill: none; stroke: #000000"/>
    <path d="M 373.0824 240.9048 
L 308.4408 315.6768 
" clip-path="url(#p5eed13c61c)" style="fill: none; stroke: #000000"/>
    <path d="M 101.4912 67.2408 
L 289.6272 338.3496 
" clip-path="url(#p5eed13c61c)" style="fill: none; stroke: #000000"/>
    <path d="M 101.4912 67.2408 
L 123.1992 180.1224 
" clip-path="url(#p5eed13c61c)" style="fill: none; stroke: #000000"/>
    <path d="M 101.4912 67.2408 
L 75.4416 147.8016 
" clip-path="url(#p5eed13c61c)" style="fill: none; stroke: #000000"/>
    <path d="M 101.4912 67.2408 
L 99.0792 488.8584 
" clip-path="url(#p5eed13c61c)" style="fill: none; stroke: #000000"/>
    <path d="M 101.4912 67.2408 
L 490.788 450.2664 
" clip-path="url(#p5eed13c61c)" style="fill: none; stroke: #000000"/>
    <path d="M 101.4912 67.2408 
L 144.9072 224.5032 
" clip-path="url(#p5eed13c61c)" style="fill: none; stroke: #000000"/>
    <path d="M 490.788 450.2664 
L 289.6272 338.3496 
" clip-path="url(#p5eed13c61c)" style="fill: none; stroke: #000000"/>
    <path d="M 490.788 450.2664 
L 75.4416 147.8016 
" clip-path="url(#p5eed13c61c)" style="fill: none; stroke: #000000"/>
    <path d="M 490.788 450.2664 
L 469.5624 287.2152 
" clip-path="url(#p5eed13c61c)" style="fill: none; stroke: #000000"/>
    <path d="M 490.788 450.2664 
L 304.0992 186.3936 
" clip-path="url(#p5eed13c61c)" style="fill: none; stroke: #000000"/>
    <path d="M 490.788 450.2664 
L 483.0696 158.8968 
" clip-path="url(#p5eed13c61c)" style="fill: none; stroke: #000000"/>
    <path d="M 490.788 450.2664 
L 144.9072 224.5032 
" clip-path="url(#p5eed13c61c)" style="fill: none; stroke: #000000"/>
    <path d="M 490.788 450.2664 
L 20.9304 65.3112 
" clip-path="url(#p5eed13c61c)" style="fill: none; stroke: #000000"/>
    <path d="M 490.788 450.2664 
L 129.9528 232.2216 
" clip-path="url(#p5eed13c61c)" style="fill: none; stroke: #000000"/>
    <path d="M 289.6272 338.3496 
L 403.956 12.7296 
" clip-path="url(#p5eed13c61c)" style="fill: none; stroke: #000000"/>
    <path d="M 289.6272 338.3496 
L 20.9304 65.3112 
" clip-path="url(#p5eed13c61c)" style="fill: none; stroke: #000000"/>
    <path d="M 289.6272 338.3496 
L 99.0792 488.8584 
" clip-path="url(#p5eed13c61c)" style="fill: none; stroke: #000000"/>
    <path d="M 289.6272 338.3496 
L 469.5624 287.2152 
" clip-path="url(#p5eed13c61c)" style="fill: none; stroke: #000000"/>
    <path d="M 289.6272 338.3496 
L 75.4416 147.8016 
" clip-path="url(#p5eed13c61c)" style="fill: none; stroke: #000000"/>
    <path d="M 75.4416 147.8016 
L 20.9304 65.3112 
" clip-path="url(#p5eed13c61c)" style="fill: none; stroke: #000000"/>
    <path d="M 75.4416 147.8016 
L 308.4408 315.6768 
" clip-path="url(#p5eed13c61c)" style="fill: none; stroke: #000000"/>
    <path d="M 75.4416 147.8016 
L 144.9072 224.5032 
" clip-path="url(#p5eed13c61c)" style="fill: none; stroke: #000000"/>
    <path d="M 75.4416 147.8016 
L 469.5624 287.2152 
" clip-path="url(#p5eed13c61c)" style="fill: none; stroke: #000000"/>
    <path d="M 75.4416 147.8016 
L 483.0696 158.8968 
" clip-path="url(#p5eed13c61c)" style="fill: none; stroke: #000000"/>
    <path d="M 75.4416 147.8016 
L 403.956 12.7296 
" clip-path="url(#p5eed13c61c)" style="fill: none; stroke: #000000"/>
    <path d="M 75.4416 147.8016 
L 129.9528 232.2216 
" clip-path="url(#p5eed13c61c)" style="fill: none; stroke: #000000"/>
    <path d="M 304.0992 186.3936 
L 123.1992 180.1224 
" clip-path="url(#p5eed13c61c)" style="fill: none; stroke: #000000"/>
    <path d="M 304.0992 186.3936 
L 129.9528 232.2216 
" clip-path="url(#p5eed13c61c)" style="fill: none; stroke: #000000"/>
    <path d="M 304.0992 186.3936 
L 99.0792 488.8584 
" clip-path="url(#p5eed13c61c)" style="fill: none; stroke: #000000"/>
    <path d="M 99.0792 488.8584 
L 403.956 12.7296 
" clip-path="url(#p5eed13c61c)" style="fill: none; stroke: #000000"/>
    <path d="M 99.0792 488.8584 
L 469.5624 287.2152 
" clip-path="url(#p5eed13c61c)" style="fill: none; stroke: #000000"/>
    <path d="M 99.0792 488.8584 
L 129.9528 232.2216 
" clip-path="url(#p5eed13c61c)" style="fill: none; stroke: #000000"/>
    <path d="M 99.0792 488.8584 
L 123.1992 180.1224 
" clip-path="url(#p5eed13c61c)" style="fill: none; stroke: #000000"/>
    <path d="M 129.9528 232.2216 
L 483.0696 158.8968 
" clip-path="url(#p5eed13c61c)" style="fill: none; stroke: #000000"/>
    <path d="M 129.9528 232.2216 
L 123.1992 180.1224 
" clip-path="url(#p5eed13c61c)" style="fill: none; stroke: #000000"/>
    <path d="M 129.9528 232.2216 
L 20.9304 65.3112 
" clip-path="url(#p5eed13c61c)" style="fill: none; stroke: #000000"/>
    <path d="M 129.9528 232.2216 
L 403.956 12.7296 
" clip-path="url(#p5eed13c61c)" style="fill: none; stroke: #000000"/>
    <path d="M 129.9528 232.2216 
L 308.4408 315.6768 
" clip-path="url(#p5eed13c61c)" style="fill: none; stroke: #000000"/>
    <path d="M 129.9528 232.2216 
L 469.5624 287.2152 
" clip-path="url(#p5eed13c61c)" style="fill: none; stroke: #000000"/>
    <path d="M 308.4408 315.6768 
L 483.0696 158.8968 
" clip-path="url(#p5eed13c61c)" style="fill: none; stroke: #000000"/>
    <path d="M 308.4408 315.6768 
L 403.956 12.7296 
" clip-path="url(#p5eed13c61c)" style="fill: none; stroke: #000000"/>
    <path d="M 483.0696 158.8968 
L 403.956 12.7296 
" clip-path="url(#p5eed13c61c)" style="fill: none; stroke: #000000"/>
    <path d="M 483.0696 158.8968 
L 469.5624 287.2152 
" clip-path="url(#p5eed13c61c)" style="fill: none; stroke: #000000"/>
    <path d="M 483.0696 158.8968 
L 144.9072 224.5032 
" clip-path="url(#p5eed13c61c)" style="fill: none; stroke: #000000"/>
    <path d="M 483.0696 158.8968 
L 20.9304 65.3112 
" clip-path="url(#p5eed13c61c)" style="fill: none; stroke: #000000"/>
    <path d="M 20.9304 65.3112 
L 144.9072 224.5032 
" clip-path="url(#p5eed13c61c)" style="fill: none; stroke: #000000"/>
    <path d="M 144.9072 224.5032 
L 123.1992 180.1224 
" clip-path="url(#p5eed13c61c)" style="fill: none; stroke: #000000"/>
   </g>
   <g id="text_1">
    <g id="patch_3">
     <path d="M 279.96722 423.031248 
L 291.737903 418.196309 
Q 294.512917 417.056441 293.373049 414.281427 
L 289.695788 405.329117 
Q 288.55592 402.554103 285.780907 403.693971 
L 274.010223 408.528911 
Q 271.23521 409.668779 272.375077 412.443792 
L 276.052339 421.396102 
Q 277.192206 424.171116 279.96722 423.031248 
z
" clip-path="url(#p5eed13c61c)" style="fill: #ffffff; stroke: #ffffff; stroke-linejoin: miter"/>
    </g>
    <g clip-path="url(#p5eed13c61c)">
     <!-- 11 -->
     <g transform="translate(278.037163 418.332514) rotate(-22.330954) scale(0.1 -0.1)">
      <defs>
       <path id="DejaVuSans-31" d="M 794 531 
L 1825 531 
L 1825 4091 
L 703 3866 
L 703 4441 
L 1819 4666 
L 2450 4666 
L 2450 531 
L 3481 531 
L 3481 0 
L 794 0 
L 794 531 
z
" transform="scale(0.015625)"/>
      </defs>
      <use xlink:href="#DejaVuSans-31"/>
      <use xlink:href="#DejaVuSans-31" x="63.623047"/>
     </g>
    </g>
   </g>
   <g id="text_2">
    <g id="patch_4">
     <path d="M 427.012522 173.660412 
L 428.217501 179.907766 
Q 428.785664 182.853473 431.731372 182.28531 
L 441.234346 180.452392 
Q 444.180053 179.884229 443.61189 176.938522 
L 442.40691 170.691168 
Q 441.838747 167.745461 438.89304 168.313624 
L 429.390066 170.146542 
Q 426.444359 170.714705 427.012522 173.660412 
z
" clip-path="url(#p5eed13c61c)" style="fill: #ffffff; stroke: #ffffff; stroke-linejoin: miter"/>
    </g>
    <g clip-path="url(#p5eed13c61c)">
     <!-- 7 -->
     <g transform="translate(432.000279 172.698382) rotate(-280.917053) scale(0.1 -0.1)">
      <defs>
       <path id="DejaVuSans-37" d="M 525 4666 
L 3525 4666 
L 3525 4397 
L 1831 0 
L 1172 0 
L 2766 4134 
L 525 4134 
L 525 4666 
z
" transform="scale(0.015625)"/>
      </defs>
      <use xlink:href="#DejaVuSans-37"/>
     </g>
    </g>
   </g>
   <g id="text_3">
    <g id="patch_5">
     <path d="M 297.18334 286.465088 
L 309.185216 290.693635 
Q 312.014735 291.690541 313.011642 288.861023 
L 316.227705 279.732877 
Q 317.224612 276.903358 314.395093 275.906451 
L 302.393217 271.677905 
Q 299.563699 270.680998 298.566792 273.510516 
L 295.350728 282.638662 
Q 294.353821 285.468181 297.18334 286.465088 
z
" clip-path="url(#p5eed13c61c)" style="fill: #ffffff; stroke: #ffffff; stroke-linejoin: miter"/>
    </g>
    <g clip-path="url(#p5eed13c61c)">
     <!-- 11 -->
     <g transform="translate(298.871332 281.674064) rotate(-340.591424) scale(0.1 -0.1)">
      <use xlink:href="#DejaVuSans-31"/>
      <use xlink:href="#DejaVuSans-31" x="63.623047"/>
     </g>
    </g>
   </g>
   <g id="text_4">
    <g id="patch_6">
     <path d="M 482.385059 252.262804 
L 482.965712 245.926855 
Q 483.239498 242.939374 480.252017 242.665589 
L 470.614279 241.782346 
Q 467.626798 241.50856 467.353013 244.496041 
L 466.77236 250.83199 
Q 466.498575 253.819471 469.486056 254.093256 
L 479.123793 254.976499 
Q 482.111274 255.250284 482.385059 252.262804 
z
" clip-path="url(#p5eed13c61c)" style="fill: #ffffff; stroke: #ffffff; stroke-linejoin: miter"/>
    </g>
    <g clip-path="url(#p5eed13c61c)">
     <!-- 8 -->
     <g transform="translate(477.32657 251.799222) rotate(-84.7638) scale(0.1 -0.1)">
      <defs>
       <path id="DejaVuSans-38" d="M 2034 2216 
Q 1584 2216 1326 1975 
Q 1069 1734 1069 1313 
Q 1069 891 1326 650 
Q 1584 409 2034 409 
Q 2484 409 2743 651 
Q 3003 894 3003 1313 
Q 3003 1734 2745 1975 
Q 2488 2216 2034 2216 
z
M 1403 2484 
Q 997 2584 770 2862 
Q 544 3141 544 3541 
Q 544 4100 942 4425 
Q 1341 4750 2034 4750 
Q 2731 4750 3128 4425 
Q 3525 4100 3525 3541 
Q 3525 3141 3298 2862 
Q 3072 2584 2669 2484 
Q 3125 2378 3379 2068 
Q 3634 1759 3634 1313 
Q 3634 634 3220 271 
Q 2806 -91 2034 -91 
Q 1263 -91 848 271 
Q 434 634 434 1313 
Q 434 1759 690 2068 
Q 947 2378 1403 2484 
z
M 1172 3481 
Q 1172 3119 1398 2916 
Q 1625 2713 2034 2713 
Q 2441 2713 2670 2916 
Q 2900 3119 2900 3481 
Q 2900 3844 2670 4047 
Q 2441 4250 2034 4250 
Q 1625 4250 1398 4047 
Q 1172 3844 1172 3481 
z
" transform="scale(0.015625)"/>
      </defs>
      <use xlink:href="#DejaVuSans-38"/>
     </g>
    </g>
   </g>
   <g id="text_5">
    <g id="patch_7">
     <path d="M 475.5785 319.340828 
L 476.304459 306.636553 
Q 476.475608 303.641439 473.480494 303.47029 
L 463.818132 302.918155 
Q 460.823018 302.747005 460.651868 305.742119 
L 459.92591 318.446395 
Q 459.75476 321.441509 462.749874 321.612658 
L 472.412237 322.164793 
Q 475.407351 322.335942 475.5785 319.340828 
z
" clip-path="url(#p5eed13c61c)" style="fill: #ffffff; stroke: #ffffff; stroke-linejoin: miter"/>
    </g>
    <g clip-path="url(#p5eed13c61c)">
     <!-- 17 -->
     <g transform="translate(470.507086 319.051033) rotate(-86.729512) scale(0.1 -0.1)">
      <use xlink:href="#DejaVuSans-31"/>
      <use xlink:href="#DejaVuSans-37" x="63.623047"/>
     </g>
    </g>
   </g>
   <g id="text_6">
    <g id="patch_8">
     <path d="M 276.85561 206.957471 
L 281.967405 210.745737 
Q 284.377682 212.531952 286.163897 210.121676 
L 291.926303 202.346022 
Q 293.712519 199.935746 291.302242 198.14953 
L 286.190447 194.361265 
Q 283.78017 192.575049 281.993955 194.985326 
L 276.231549 202.760979 
Q 274.445333 205.171255 276.85561 206.957471 
z
" clip-path="url(#p5eed13c61c)" style="fill: #ffffff; stroke: #ffffff; stroke-linejoin: miter"/>
    </g>
    <g clip-path="url(#p5eed13c61c)">
     <!-- 6 -->
     <g transform="translate(279.880082 202.87632) rotate(-323.458476) scale(0.1 -0.1)">
      <defs>
       <path id="DejaVuSans-36" d="M 2113 2584 
Q 1688 2584 1439 2293 
Q 1191 2003 1191 1497 
Q 1191 994 1439 701 
Q 1688 409 2113 409 
Q 2538 409 2786 701 
Q 3034 994 3034 1497 
Q 3034 2003 2786 2293 
Q 2538 2584 2113 2584 
z
M 3366 4563 
L 3366 3988 
Q 3128 4100 2886 4159 
Q 2644 4219 2406 4219 
Q 1781 4219 1451 3797 
Q 1122 3375 1075 2522 
Q 1259 2794 1537 2939 
Q 1816 3084 2150 3084 
Q 2853 3084 3261 2657 
Q 3669 2231 3669 1497 
Q 3669 778 3244 343 
Q 2819 -91 2113 -91 
Q 1303 -91 875 529 
Q 447 1150 447 2328 
Q 447 3434 972 4092 
Q 1497 4750 2381 4750 
Q 2619 4750 2861 4703 
Q 3103 4656 3366 4563 
z
" transform="scale(0.015625)"/>
      </defs>
      <use xlink:href="#DejaVuSans-36"/>
     </g>
    </g>
   </g>
   <g id="text_7">
    <g id="patch_9">
     <path d="M 264.76932 248.495982 
L 270.492203 251.276273 
Q 273.190615 252.587216 274.501558 249.888803 
L 278.730713 241.183612 
Q 280.041656 238.4852 277.343243 237.174257 
L 271.620361 234.393967 
Q 268.921948 233.083024 267.611006 235.781436 
L 263.38185 244.486627 
Q 262.070907 247.185039 264.76932 248.495982 
z
" clip-path="url(#p5eed13c61c)" style="fill: #ffffff; stroke: #ffffff; stroke-linejoin: miter"/>
    </g>
    <g clip-path="url(#p5eed13c61c)">
     <!-- 3 -->
     <g transform="translate(266.989046 243.926952) rotate(-334.088593) scale(0.1 -0.1)">
      <defs>
       <path id="DejaVuSans-33" d="M 2597 2516 
Q 3050 2419 3304 2112 
Q 3559 1806 3559 1356 
Q 3559 666 3084 287 
Q 2609 -91 1734 -91 
Q 1441 -91 1130 -33 
Q 819 25 488 141 
L 488 750 
Q 750 597 1062 519 
Q 1375 441 1716 441 
Q 2309 441 2620 675 
Q 2931 909 2931 1356 
Q 2931 1769 2642 2001 
Q 2353 2234 1838 2234 
L 1294 2234 
L 1294 2753 
L 1863 2753 
Q 2328 2753 2575 2939 
Q 2822 3125 2822 3475 
Q 2822 3834 2567 4026 
Q 2313 4219 1838 4219 
Q 1578 4219 1281 4162 
Q 984 4106 628 3988 
L 628 4550 
Q 988 4650 1302 4700 
Q 1616 4750 1894 4750 
Q 2613 4750 3031 4423 
Q 3450 4097 3450 3541 
Q 3450 3153 3228 2886 
Q 3006 2619 2597 2516 
z
" transform="scale(0.015625)"/>
      </defs>
      <use xlink:href="#DejaVuSans-33"/>
     </g>
    </g>
   </g>
   <g id="text_8">
    <g id="patch_10">
     <path d="M 355.085608 255.445045 
L 360.3462 251.866278 
Q 362.826636 250.178844 361.139202 247.698407 
L 355.695468 239.696416 
Q 354.008034 237.215979 351.527597 238.903414 
L 346.267005 242.482181 
Q 343.786568 244.169616 345.474003 246.650052 
L 350.917737 254.652043 
Q 352.605171 257.13248 355.085608 255.445045 
z
" clip-path="url(#p5eed13c61c)" style="fill: #ffffff; stroke: #ffffff; stroke-linejoin: miter"/>
    </g>
    <g clip-path="url(#p5eed13c61c)">
     <!-- 4 -->
     <g transform="translate(352.228394 251.245098) rotate(-34.227352) scale(0.1 -0.1)">
      <defs>
       <path id="DejaVuSans-34" d="M 2419 4116 
L 825 1625 
L 2419 1625 
L 2419 4116 
z
M 2253 4666 
L 3047 4666 
L 3047 1625 
L 3713 1625 
L 3713 1100 
L 3047 1100 
L 3047 0 
L 2419 0 
L 2419 1100 
L 313 1100 
L 313 1709 
L 2253 4666 
z
" transform="scale(0.015625)"/>
      </defs>
      <use xlink:href="#DejaVuSans-34"/>
     </g>
    </g>
   </g>
   <g id="text_9">
    <g id="patch_11">
     <path d="M 112.145309 199.996183 
L 119.780309 210.176183 
Q 121.580309 212.576183 123.980309 210.776183 
L 131.722809 204.969308 
Q 134.122809 203.169308 132.322809 200.769308 
L 124.687809 190.589308 
Q 122.887809 188.189308 120.487809 189.989308 
L 112.745309 195.796183 
Q 110.345309 197.596183 112.145309 199.996183 
z
" clip-path="url(#p5eed13c61c)" style="fill: #ffffff; stroke: #ffffff; stroke-linejoin: miter"/>
    </g>
    <g clip-path="url(#p5eed13c61c)">
     <!-- 16 -->
     <g transform="translate(116.209059 196.948371) rotate(-306.869898) scale(0.1 -0.1)">
      <use xlink:href="#DejaVuSans-31"/>
      <use xlink:href="#DejaVuSans-36" x="63.623047"/>
     </g>
    </g>
   </g>
   <g id="text_10">
    <g id="patch_12">
     <path d="M 341.813215 320.252394 
L 354.300433 317.80392 
Q 357.244374 317.226677 356.66713 314.282736 
L 354.804919 304.785459 
Q 354.227676 301.841517 351.283735 302.418761 
L 338.796517 304.867235 
Q 335.852576 305.444478 336.429819 308.388419 
L 338.29203 317.885696 
Q 338.869274 320.829638 341.813215 320.252394 
z
" clip-path="url(#p5eed13c61c)" style="fill: #ffffff; stroke: #ffffff; stroke-linejoin: miter"/>
    </g>
    <g clip-path="url(#p5eed13c61c)">
     <!-- 18 -->
     <g transform="translate(340.83581 315.267627) rotate(-11.093723) scale(0.1 -0.1)">
      <use xlink:href="#DejaVuSans-31"/>
      <use xlink:href="#DejaVuSans-38" x="63.623047"/>
     </g>
    </g>
   </g>
   <g id="text_11">
    <g id="patch_13">
     <path d="M 348.222821 397.551822 
L 359.914571 402.574631 
Q 362.670976 403.758791 363.855135 401.002386 
L 367.675283 392.11011 
Q 368.859442 389.353705 366.103037 388.169546 
L 354.411288 383.146736 
Q 351.654883 381.962577 350.470724 384.718982 
L 346.650576 393.611258 
Q 345.466417 396.367662 348.222821 397.551822 
z
" clip-path="url(#p5eed13c61c)" style="fill: #ffffff; stroke: #ffffff; stroke-linejoin: miter"/>
    </g>
    <g clip-path="url(#p5eed13c61c)">
     <!-- 16 -->
     <g transform="translate(350.227875 392.884597) rotate(-336.7515) scale(0.1 -0.1)">
      <use xlink:href="#DejaVuSans-31"/>
      <use xlink:href="#DejaVuSans-36" x="63.623047"/>
     </g>
    </g>
   </g>
   <g id="text_12">
    <g id="patch_14">
     <path d="M 174.14818 279.320847 
L 181.505955 289.702984 
Q 183.240598 292.150639 185.688253 290.415997 
L 193.58449 284.819968 
Q 196.032145 283.085325 194.297503 280.63767 
L 186.939728 270.255533 
Q 185.205085 267.807878 182.75743 269.54252 
L 174.861193 275.138549 
Q 172.413538 276.873192 174.14818 279.320847 
z
" clip-path="url(#p5eed13c61c)" style="fill: #ffffff; stroke: #ffffff; stroke-linejoin: miter"/>
    </g>
    <g clip-path="url(#p5eed13c61c)">
     <!-- 15 -->
     <g transform="translate(178.292621 276.3837) rotate(-305.325035) scale(0.1 -0.1)">
      <defs>
       <path id="DejaVuSans-35" d="M 691 4666 
L 3169 4666 
L 3169 4134 
L 1269 4134 
L 1269 2991 
Q 1406 3038 1543 3061 
Q 1681 3084 1819 3084 
Q 2600 3084 3056 2656 
Q 3513 2228 3513 1497 
Q 3513 744 3044 326 
Q 2575 -91 1722 -91 
Q 1428 -91 1123 -41 
Q 819 9 494 109 
L 494 744 
Q 775 591 1075 516 
Q 1375 441 1709 441 
Q 2250 441 2565 725 
Q 2881 1009 2881 1497 
Q 2881 1984 2565 2268 
Q 2250 2553 1709 2553 
Q 1456 2553 1204 2497 
Q 953 2441 691 2322 
L 691 4666 
z
" transform="scale(0.015625)"/>
      </defs>
      <use xlink:href="#DejaVuSans-31"/>
      <use xlink:href="#DejaVuSans-35" x="63.623047"/>
     </g>
    </g>
   </g>
   <g id="text_13">
    <g id="patch_15">
     <path d="M 297.120772 298.206629 
L 307.876319 291.406347 
Q 310.412008 289.803137 308.808798 287.267448 
L 303.636777 279.08721 
Q 302.033567 276.551521 299.497878 278.154731 
L 288.742331 284.955013 
Q 286.206642 286.558222 287.809851 289.093911 
L 292.981873 297.274149 
Q 294.585083 299.809838 297.120772 298.206629 
z
" clip-path="url(#p5eed13c61c)" style="fill: #ffffff; stroke: #ffffff; stroke-linejoin: miter"/>
    </g>
    <g clip-path="url(#p5eed13c61c)">
     <!-- 11 -->
     <g transform="translate(294.40617 293.913126) rotate(-32.303451) scale(0.1 -0.1)">
      <use xlink:href="#DejaVuSans-31"/>
      <use xlink:href="#DejaVuSans-31" x="63.623047"/>
     </g>
    </g>
   </g>
   <g id="text_14">
    <g id="patch_16">
     <path d="M 152.744183 198.802842 
L 158.014533 210.385114 
Q 159.257052 213.115709 161.987647 211.87319 
L 170.796659 207.864772 
Q 173.527254 206.622254 172.284735 203.891659 
L 167.014384 192.309387 
Q 165.771866 189.578792 163.041271 190.821311 
L 154.232259 194.829728 
Q 151.501664 196.072247 152.744183 198.802842 
z
" clip-path="url(#p5eed13c61c)" style="fill: #ffffff; stroke: #ffffff; stroke-linejoin: miter"/>
    </g>
    <g clip-path="url(#p5eed13c61c)">
     <!-- 18 -->
     <g transform="translate(157.367705 196.698973) rotate(-294.467243) scale(0.1 -0.1)">
      <use xlink:href="#DejaVuSans-31"/>
      <use xlink:href="#DejaVuSans-38" x="63.623047"/>
     </g>
    </g>
   </g>
   <g id="text_15">
    <g id="patch_17">
     <path d="M 163.331192 256.696976 
L 170.235804 267.385847 
Q 171.863611 269.905816 174.38358 268.27801 
L 182.513107 263.026638 
Q 185.033076 261.398832 183.40527 258.878862 
L 176.500658 248.189992 
Q 174.872851 245.670022 172.352882 247.297829 
L 164.223355 252.5492 
Q 161.703386 254.177006 163.331192 256.696976 
z
" clip-path="url(#p5eed13c61c)" style="fill: #ffffff; stroke: #ffffff; stroke-linejoin: miter"/>
    </g>
    <g clip-path="url(#p5eed13c61c)">
     <!-- 11 -->
     <g transform="translate(167.598078 253.940727) rotate(-302.860953) scale(0.1 -0.1)">
      <use xlink:href="#DejaVuSans-31"/>
      <use xlink:href="#DejaVuSans-31" x="63.623047"/>
     </g>
    </g>
   </g>
   <g id="text_16">
    <g id="patch_18">
     <path d="M 252.087278 240.066765 
L 264.77953 240.979104 
Q 267.771809 241.194194 267.986899 238.201915 
L 268.680788 228.548696 
Q 268.895878 225.556417 265.903599 225.341327 
L 253.211347 224.428988 
Q 250.219067 224.213898 250.003977 227.206177 
L 249.310088 236.859395 
Q 249.094999 239.851675 252.087278 240.066765 
z
" clip-path="url(#p5eed13c61c)" style="fill: #ffffff; stroke: #ffffff; stroke-linejoin: miter"/>
    </g>
    <g clip-path="url(#p5eed13c61c)">
     <!-- 15 -->
     <g transform="translate(252.451474 235.00015) rotate(-355.888559) scale(0.1 -0.1)">
      <use xlink:href="#DejaVuSans-31"/>
      <use xlink:href="#DejaVuSans-35" x="63.623047"/>
     </g>
    </g>
   </g>
   <g id="text_17">
    <g id="patch_19">
     <path d="M 244.879155 244.170173 
L 257.596048 244.624348 
Q 260.594136 244.731422 260.701211 241.733334 
L 261.046638 232.061375 
Q 261.153713 229.063287 258.155624 228.956212 
L 245.438732 228.502037 
Q 242.440643 228.394963 242.333568 231.393051 
L 241.988141 241.06501 
Q 241.881067 244.063098 244.879155 244.170173 
z
" clip-path="url(#p5eed13c61c)" style="fill: #ffffff; stroke: #ffffff; stroke-linejoin: miter"/>
    </g>
    <g clip-path="url(#p5eed13c61c)">
     <!-- 13 -->
     <g transform="translate(245.060457 239.093722) rotate(-357.954592) scale(0.1 -0.1)">
      <use xlink:href="#DejaVuSans-31"/>
      <use xlink:href="#DejaVuSans-33" x="63.623047"/>
     </g>
    </g>
   </g>
   <g id="text_18">
    <g id="patch_20">
     <path d="M 230.382358 158.962531 
L 235.742693 162.390099 
Q 238.270159 164.00624 239.886301 161.478774 
L 245.100042 153.325063 
Q 246.716184 150.797597 244.188717 149.181455 
L 238.828383 145.753887 
Q 236.300916 144.137745 234.684775 146.665212 
L 229.471034 154.818923 
Q 227.854892 157.346389 230.382358 158.962531 
z
" clip-path="url(#p5eed13c61c)" style="fill: #ffffff; stroke: #ffffff; stroke-linejoin: miter"/>
    </g>
    <g clip-path="url(#p5eed13c61c)">
     <!-- 7 -->
     <g transform="translate(233.118857 154.682952) rotate(-327.403866) scale(0.1 -0.1)">
      <use xlink:href="#DejaVuSans-37"/>
     </g>
    </g>
   </g>
   <g id="text_19">
    <g id="patch_21">
     <path d="M 335.239419 297.142569 
L 339.378108 292.31011 
Q 341.329553 290.031544 339.050987 288.080099 
L 331.700239 281.784656 
Q 329.421673 279.833211 327.470228 282.111777 
L 323.331538 286.944236 
Q 321.380093 289.222801 323.658659 291.174246 
L 331.009408 297.469689 
Q 333.287973 299.421134 335.239419 297.142569 
z
" clip-path="url(#p5eed13c61c)" style="fill: #ffffff; stroke: #ffffff; stroke-linejoin: miter"/>
    </g>
    <g clip-path="url(#p5eed13c61c)">
     <!-- 5 -->
     <g transform="translate(331.381284 293.838325) rotate(-49.422072) scale(0.1 -0.1)">
      <use xlink:href="#DejaVuSans-35"/>
     </g>
    </g>
   </g>
   <g id="text_20">
    <g id="patch_22">
     <path d="M 423.543324 346.654851 
L 426.661397 352.200932 
Q 428.131609 354.815981 430.746657 353.345769 
L 439.182912 348.602806 
Q 441.797961 347.132594 440.327749 344.517546 
L 437.209675 338.971464 
Q 435.739464 336.356416 433.124416 337.826627 
L 424.68816 342.569591 
Q 422.073112 344.039802 423.543324 346.654851 
z
" clip-path="url(#p5eed13c61c)" style="fill: #ffffff; stroke: #ffffff; stroke-linejoin: miter"/>
    </g>
    <g clip-path="url(#p5eed13c61c)">
     <!-- 8 -->
     <g transform="translate(427.9712 344.165446) rotate(-299.345216) scale(0.1 -0.1)">
      <use xlink:href="#DejaVuSans-38"/>
     </g>
    </g>
   </g>
   <g id="text_21">
    <g id="patch_23">
     <path d="M 342.530989 288.230435 
L 350.853151 278.604053 
Q 352.815154 276.334572 350.545673 274.372569 
L 343.224233 268.043065 
Q 340.954752 266.081062 338.992749 268.350543 
L 330.670586 277.976925 
Q 328.708583 280.246407 330.978064 282.208409 
L 338.299505 288.537913 
Q 340.568986 290.499916 342.530989 288.230435 
z
" clip-path="url(#p5eed13c61c)" style="fill: #ffffff; stroke: #ffffff; stroke-linejoin: miter"/>
    </g>
    <g clip-path="url(#p5eed13c61c)">
     <!-- 15 -->
     <g transform="translate(338.688237 284.908314) rotate(-49.156057) scale(0.1 -0.1)">
      <use xlink:href="#DejaVuSans-31"/>
      <use xlink:href="#DejaVuSans-35" x="63.623047"/>
     </g>
    </g>
   </g>
   <g id="text_22">
    <g id="patch_24">
     <path d="M 187.303605 204.648478 
L 190.931005 209.875654 
Q 192.64137 212.340335 195.106051 210.629969 
L 203.057213 205.112259 
Q 205.521893 203.401894 203.811528 200.937213 
L 200.184127 195.710037 
Q 198.473762 193.245356 196.009082 194.955722 
L 188.05792 200.473432 
Q 185.593239 202.183797 187.303605 204.648478 
z
" clip-path="url(#p5eed13c61c)" style="fill: #ffffff; stroke: #ffffff; stroke-linejoin: miter"/>
    </g>
    <g clip-path="url(#p5eed13c61c)">
     <!-- 8 -->
     <g transform="translate(191.476873 201.752437) rotate(-304.758721) scale(0.1 -0.1)">
      <use xlink:href="#DejaVuSans-38"/>
     </g>
    </g>
   </g>
   <g id="text_23">
    <g id="patch_25">
     <path d="M 104.046785 122.039879 
L 105.248326 128.287895 
Q 105.814869 131.233915 108.760888 130.667372 
L 118.264869 128.839684 
Q 121.210888 128.273142 120.644346 125.327122 
L 119.442805 119.079106 
Q 118.876262 116.133087 115.930243 116.699629 
L 106.426262 118.527318 
Q 103.480243 119.09386 104.046785 122.039879 
z
" clip-path="url(#p5eed13c61c)" style="fill: #ffffff; stroke: #ffffff; stroke-linejoin: miter"/>
    </g>
    <g clip-path="url(#p5eed13c61c)">
     <!-- 3 -->
     <g transform="translate(109.035071 121.080594) rotate(-280.885527) scale(0.1 -0.1)">
      <use xlink:href="#DejaVuSans-33"/>
     </g>
    </g>
   </g>
   <g id="text_24">
    <g id="patch_26">
     <path d="M 94.946902 112.958565 
L 96.904443 106.904687 
Q 97.827449 104.050206 94.972968 103.127201 
L 85.764295 100.149546 
Q 82.909814 99.22654 81.986808 102.081021 
L 80.029267 108.134899 
Q 79.106261 110.989379 81.960742 111.912385 
L 91.169415 114.89004 
Q 94.023896 115.813046 94.946902 112.958565 
z
" clip-path="url(#p5eed13c61c)" style="fill: #ffffff; stroke: #ffffff; stroke-linejoin: miter"/>
    </g>
    <g clip-path="url(#p5eed13c61c)">
     <!-- 8 -->
     <g transform="translate(90.113612 111.395705) rotate(-72.081215) scale(0.1 -0.1)">
      <use xlink:href="#DejaVuSans-38"/>
     </g>
    </g>
   </g>
   <g id="text_25">
    <g id="patch_27">
     <path d="M 108.105931 281.276416 
L 108.142329 274.914021 
Q 108.159491 271.91407 105.15954 271.896907 
L 95.481574 271.841542 
Q 92.481623 271.824379 92.46446 274.82433 
L 92.428062 281.186726 
Q 92.4109 284.186677 95.410851 284.203839 
L 105.088818 284.259205 
Q 108.088769 284.276367 108.105931 281.276416 
z
" clip-path="url(#p5eed13c61c)" style="fill: #ffffff; stroke: #ffffff; stroke-linejoin: miter"/>
    </g>
    <g clip-path="url(#p5eed13c61c)">
     <!-- 4 -->
     <g transform="translate(103.026326 281.247357) rotate(-89.672225) scale(0.1 -0.1)">
      <use xlink:href="#DejaVuSans-34"/>
     </g>
    </g>
   </g>
   <g id="text_26">
    <g id="patch_28">
     <path d="M 286.108591 259.881359 
L 295.179288 268.805936 
Q 297.317763 270.909962 299.421789 268.771487 
L 306.209465 261.872678 
Q 308.313491 259.734203 306.175016 257.630177 
L 297.104318 248.7056 
Q 294.965844 246.601574 292.861818 248.740049 
L 286.074142 255.638858 
Q 283.970116 257.777332 286.108591 259.881359 
z
" clip-path="url(#p5eed13c61c)" style="fill: #ffffff; stroke: #ffffff; stroke-linejoin: miter"/>
    </g>
    <g clip-path="url(#p5eed13c61c)">
     <!-- 18 -->
     <g transform="translate(289.671189 256.260431) rotate(-315.465227) scale(0.1 -0.1)">
      <use xlink:href="#DejaVuSans-31"/>
      <use xlink:href="#DejaVuSans-38" x="63.623047"/>
     </g>
    </g>
   </g>
   <g id="text_27">
    <g id="patch_29">
     <path d="M 114.795884 144.89036 
L 116.489063 151.02343 
Q 117.287418 153.915251 120.179239 153.116896 
L 129.508374 150.541368 
Q 132.400195 149.743012 131.60184 146.851191 
L 129.908661 140.718121 
Q 129.110305 137.8263 126.218484 138.624655 
L 116.88935 141.200183 
Q 113.997529 141.998539 114.795884 144.89036 
z
" clip-path="url(#p5eed13c61c)" style="fill: #ffffff; stroke: #ffffff; stroke-linejoin: miter"/>
    </g>
    <g clip-path="url(#p5eed13c61c)">
     <!-- 7 -->
     <g transform="translate(119.6924 143.538561) rotate(-285.433424) scale(0.1 -0.1)">
      <use xlink:href="#DejaVuSans-37"/>
     </g>
    </g>
   </g>
   <g id="text_28">
    <g id="patch_30">
     <path d="M 383.615961 399.611319 
L 389.175899 402.704618 
Q 391.79748 404.163148 393.25601 401.541566 
L 397.961288 393.084234 
Q 399.419818 390.462653 396.798237 389.004123 
L 391.238299 385.910824 
Q 388.616717 384.452294 387.158187 387.073876 
L 382.452909 395.531208 
Q 380.994379 398.152789 383.615961 399.611319 
z
" clip-path="url(#p5eed13c61c)" style="fill: #ffffff; stroke: #ffffff; stroke-linejoin: miter"/>
    </g>
    <g clip-path="url(#p5eed13c61c)">
     <!-- 8 -->
     <g transform="translate(386.085586 395.172381) rotate(-330.91041) scale(0.1 -0.1)">
      <use xlink:href="#DejaVuSans-38"/>
     </g>
    </g>
   </g>
   <g id="text_29">
    <g id="patch_31">
     <path d="M 273.357097 301.625579 
L 283.643612 309.116456 
Q 286.068724 310.882478 287.834746 308.457367 
L 293.532006 300.633856 
Q 295.298028 298.208744 292.872917 296.442722 
L 282.586402 288.951845 
Q 280.16129 287.185823 278.395268 289.610935 
L 272.698007 297.434446 
Q 270.931985 299.859557 273.357097 301.625579 
z
" clip-path="url(#p5eed13c61c)" style="fill: #ffffff; stroke: #ffffff; stroke-linejoin: miter"/>
    </g>
    <g clip-path="url(#p5eed13c61c)">
     <!-- 15 -->
     <g transform="translate(276.347377 297.51931) rotate(-323.937032) scale(0.1 -0.1)">
      <use xlink:href="#DejaVuSans-31"/>
      <use xlink:href="#DejaVuSans-35" x="63.623047"/>
     </g>
    </g>
   </g>
   <g id="text_30">
    <g id="patch_32">
     <path d="M 471.580275 363.442495 
L 473.222924 376.061026 
Q 473.610189 379.035925 476.585089 378.64866 
L 486.182238 377.399327 
Q 489.157137 377.012062 488.769872 374.037163 
L 487.127223 361.418632 
Q 486.739958 358.443732 483.765059 358.830997 
L 474.16791 360.08033 
Q 471.19301 360.467595 471.580275 363.442495 
z
" clip-path="url(#p5eed13c61c)" style="fill: #ffffff; stroke: #ffffff; stroke-linejoin: miter"/>
    </g>
    <g clip-path="url(#p5eed13c61c)">
     <!-- 16 -->
     <g transform="translate(476.617461 362.786766) rotate(-277.416914) scale(0.1 -0.1)">
      <use xlink:href="#DejaVuSans-31"/>
      <use xlink:href="#DejaVuSans-36" x="63.623047"/>
     </g>
    </g>
   </g>
   <g id="text_31">
    <g id="patch_33">
     <path d="M 387.371838 317.666884 
L 394.721311 328.0549 
Q 396.453996 330.503941 398.903037 328.771255 
L 406.803746 323.18154 
Q 409.252787 321.448855 407.520101 318.999814 
L 400.170628 308.611799 
Q 398.437943 306.162758 395.988902 307.895443 
L 388.088193 313.485158 
Q 385.639152 315.217843 387.371838 317.666884 
z
" clip-path="url(#p5eed13c61c)" style="fill: #ffffff; stroke: #ffffff; stroke-linejoin: miter"/>
    </g>
    <g clip-path="url(#p5eed13c61c)">
     <!-- 12 -->
     <g transform="translate(391.518625 314.733051) rotate(-305.279232) scale(0.1 -0.1)">
      <defs>
       <path id="DejaVuSans-32" d="M 1228 531 
L 3431 531 
L 3431 0 
L 469 0 
L 469 531 
Q 828 903 1448 1529 
Q 2069 2156 2228 2338 
Q 2531 2678 2651 2914 
Q 2772 3150 2772 3378 
Q 2772 3750 2511 3984 
Q 2250 4219 1831 4219 
Q 1534 4219 1204 4116 
Q 875 4013 500 3803 
L 500 4441 
Q 881 4594 1212 4672 
Q 1544 4750 1819 4750 
Q 2544 4750 2975 4387 
Q 3406 4025 3406 3419 
Q 3406 3131 3298 2873 
Q 3191 2616 2906 2266 
Q 2828 2175 2409 1742 
Q 1991 1309 1228 531 
z
" transform="scale(0.015625)"/>
      </defs>
      <use xlink:href="#DejaVuSans-31"/>
      <use xlink:href="#DejaVuSans-32" x="63.623047"/>
     </g>
    </g>
   </g>
   <g id="text_32">
    <g id="patch_34">
     <path d="M 478.924025 298.429748 
L 479.260992 311.150285 
Q 479.340435 314.149233 482.339383 314.069791 
L 492.014114 313.813507 
Q 495.013062 313.734064 494.93362 310.735116 
L 494.596652 298.014579 
Q 494.517209 295.015631 491.518261 295.095073 
L 481.84353 295.351357 
Q 478.844582 295.4308 478.924025 298.429748 
z
" clip-path="url(#p5eed13c61c)" style="fill: #ffffff; stroke: #ffffff; stroke-linejoin: miter"/>
    </g>
    <g clip-path="url(#p5eed13c61c)">
     <!-- 14 -->
     <g transform="translate(484.001931 298.295234) rotate(-271.517414) scale(0.1 -0.1)">
      <use xlink:href="#DejaVuSans-31"/>
      <use xlink:href="#DejaVuSans-34" x="63.623047"/>
     </g>
    </g>
   </g>
   <g id="text_33">
    <g id="patch_35">
     <path d="M 310.897726 342.209657 
L 316.225693 345.687326 
Q 318.737897 347.327091 320.377662 344.814886 
L 325.667613 336.710411 
Q 327.307378 334.198207 324.795173 332.558441 
L 319.467207 329.080773 
Q 316.955003 327.441008 315.315238 329.953212 
L 310.025287 338.057688 
Q 308.385522 340.569892 310.897726 342.209657 
z
" clip-path="url(#p5eed13c61c)" style="fill: #ffffff; stroke: #ffffff; stroke-linejoin: miter"/>
    </g>
    <g clip-path="url(#p5eed13c61c)">
     <!-- 7 -->
     <g transform="translate(313.674224 337.955919) rotate(-326.866725) scale(0.1 -0.1)">
      <use xlink:href="#DejaVuSans-37"/>
     </g>
    </g>
   </g>
   <g id="text_34">
    <g id="patch_36">
     <path d="M 245.967711 259.818793 
L 255.810912 267.883346 
Q 258.13151 269.784616 260.032779 267.464019 
L 266.166355 259.977674 
Q 268.067625 257.657077 265.747028 255.755807 
L 255.903826 247.691254 
Q 253.583229 245.789984 251.681959 248.110582 
L 245.548383 255.596926 
Q 243.647113 257.917523 245.967711 259.818793 
z
" clip-path="url(#p5eed13c61c)" style="fill: #ffffff; stroke: #ffffff; stroke-linejoin: miter"/>
    </g>
    <g clip-path="url(#p5eed13c61c)">
     <!-- 18 -->
     <g transform="translate(249.186996 255.88949) rotate(-320.672174) scale(0.1 -0.1)">
      <use xlink:href="#DejaVuSans-31"/>
      <use xlink:href="#DejaVuSans-38" x="63.623047"/>
     </g>
    </g>
   </g>
   <g id="text_35">
    <g id="patch_37">
     <path d="M 300.869995 344.662252 
L 311.760983 351.243437 
Q 314.328603 352.794994 315.880159 350.227374 
L 320.885545 341.944125 
Q 322.437102 339.376505 319.869482 337.824948 
L 308.978493 331.243763 
Q 306.410873 329.692206 304.859317 332.259826 
L 299.853931 340.543075 
Q 298.302375 343.110695 300.869995 344.662252 
z
" clip-path="url(#p5eed13c61c)" style="fill: #ffffff; stroke: #ffffff; stroke-linejoin: miter"/>
    </g>
    <g clip-path="url(#p5eed13c61c)">
     <!-- 16 -->
     <g transform="translate(303.497135 340.314683) rotate(-328.856352) scale(0.1 -0.1)">
      <use xlink:href="#DejaVuSans-31"/>
      <use xlink:href="#DejaVuSans-36" x="63.623047"/>
     </g>
    </g>
   </g>
   <g id="text_36">
    <g id="patch_38">
     <path d="M 353.134379 181.137372 
L 355.242175 175.134156 
Q 356.236028 172.303563 353.405435 171.30971 
L 344.273824 168.1035 
Q 341.443231 167.109648 340.449378 169.940241 
L 338.341582 175.943457 
Q 337.34773 178.77405 340.178323 179.767902 
L 349.309934 182.974112 
Q 352.140527 183.967965 353.134379 181.137372 
z
" clip-path="url(#p5eed13c61c)" style="fill: #ffffff; stroke: #ffffff; stroke-linejoin: miter"/>
    </g>
    <g clip-path="url(#p5eed13c61c)">
     <!-- 9 -->
     <g transform="translate(348.341537 179.454552) rotate(-70.653259) scale(0.1 -0.1)">
      <defs>
       <path id="DejaVuSans-39" d="M 703 97 
L 703 672 
Q 941 559 1184 500 
Q 1428 441 1663 441 
Q 2288 441 2617 861 
Q 2947 1281 2994 2138 
Q 2813 1869 2534 1725 
Q 2256 1581 1919 1581 
Q 1219 1581 811 2004 
Q 403 2428 403 3163 
Q 403 3881 828 4315 
Q 1253 4750 1959 4750 
Q 2769 4750 3195 4129 
Q 3622 3509 3622 2328 
Q 3622 1225 3098 567 
Q 2575 -91 1691 -91 
Q 1453 -91 1209 -44 
Q 966 3 703 97 
z
M 1959 2075 
Q 2384 2075 2632 2365 
Q 2881 2656 2881 3163 
Q 2881 3666 2632 3958 
Q 2384 4250 1959 4250 
Q 1534 4250 1286 3958 
Q 1038 3666 1038 3163 
Q 1038 2656 1286 2365 
Q 1534 2075 1959 2075 
z
" transform="scale(0.015625)"/>
      </defs>
      <use xlink:href="#DejaVuSans-39"/>
     </g>
    </g>
   </g>
   <g id="text_37">
    <g id="patch_39">
     <path d="M 145.228203 202.793437 
L 154.153738 211.863191 
Q 156.25799 214.001444 158.396243 211.897192 
L 165.294334 205.108787 
Q 167.432587 203.004535 165.328335 200.866283 
L 156.402799 191.796529 
Q 154.298547 189.658276 152.160295 191.762528 
L 145.262203 198.550933 
Q 143.123951 200.655185 145.228203 202.793437 
z
" clip-path="url(#p5eed13c61c)" style="fill: #ffffff; stroke: #ffffff; stroke-linejoin: miter"/>
    </g>
    <g clip-path="url(#p5eed13c61c)">
     <!-- 14 -->
     <g transform="translate(148.848754 199.230456) rotate(-314.540827) scale(0.1 -0.1)">
      <use xlink:href="#DejaVuSans-31"/>
      <use xlink:href="#DejaVuSans-34" x="63.623047"/>
     </g>
    </g>
   </g>
   <g id="text_38">
    <g id="patch_40">
     <path d="M 194.218712 423.699729 
L 204.204404 415.812296 
Q 206.558594 413.952784 204.699082 411.598593 
L 198.700217 404.003876 
Q 196.840705 401.649686 194.486514 403.509198 
L 184.500822 411.396631 
Q 182.146632 413.256143 184.006144 415.610334 
L 190.005009 423.205051 
Q 191.864522 425.559241 194.218712 423.699729 
z
" clip-path="url(#p5eed13c61c)" style="fill: #ffffff; stroke: #ffffff; stroke-linejoin: miter"/>
    </g>
    <g clip-path="url(#p5eed13c61c)">
     <!-- 14 -->
     <g transform="translate(191.070132 419.713545) rotate(-38.30427) scale(0.1 -0.1)">
      <use xlink:href="#DejaVuSans-31"/>
      <use xlink:href="#DejaVuSans-34" x="63.623047"/>
     </g>
    </g>
   </g>
   <g id="text_39">
    <g id="patch_41">
     <path d="M 375.61931 322.061621 
L 387.859644 318.583135 
Q 390.74538 317.763059 389.925305 314.877323 
L 387.279708 305.567816 
Q 386.459633 302.682079 383.573896 303.502154 
L 371.333563 306.98064 
Q 368.447826 307.800716 369.267901 310.686453 
L 371.913498 319.995959 
Q 372.733574 322.881696 375.61931 322.061621 
z
" clip-path="url(#p5eed13c61c)" style="fill: #ffffff; stroke: #ffffff; stroke-linejoin: miter"/>
    </g>
    <g clip-path="url(#p5eed13c61c)">
     <!-- 10 -->
     <g transform="translate(374.230735 317.175407) rotate(-15.864212) scale(0.1 -0.1)">
      <defs>
       <path id="DejaVuSans-30" d="M 2034 4250 
Q 1547 4250 1301 3770 
Q 1056 3291 1056 2328 
Q 1056 1369 1301 889 
Q 1547 409 2034 409 
Q 2525 409 2770 889 
Q 3016 1369 3016 2328 
Q 3016 3291 2770 3770 
Q 2525 4250 2034 4250 
z
M 2034 4750 
Q 2819 4750 3233 4129 
Q 3647 3509 3647 2328 
Q 3647 1150 3233 529 
Q 2819 -91 2034 -91 
Q 1250 -91 836 529 
Q 422 1150 422 2328 
Q 422 3509 836 4129 
Q 1250 4750 2034 4750 
z
" transform="scale(0.015625)"/>
      </defs>
      <use xlink:href="#DejaVuSans-31"/>
      <use xlink:href="#DejaVuSans-30" x="63.623047"/>
     </g>
    </g>
   </g>
   <g id="text_40">
    <g id="patch_42">
     <path d="M 172.570936 244.703931 
L 182.078175 253.161947 
Q 184.319567 255.155978 186.313598 252.914586 
L 192.746426 245.683762 
Q 194.740458 243.442369 192.499065 241.448338 
L 182.991827 232.990322 
Q 180.750435 230.99629 178.756403 233.237683 
L 172.323575 240.468507 
Q 170.329544 242.709899 172.570936 244.703931 
z
" clip-path="url(#p5eed13c61c)" style="fill: #ffffff; stroke: #ffffff; stroke-linejoin: miter"/>
    </g>
    <g clip-path="url(#p5eed13c61c)">
     <!-- 19 -->
     <g transform="translate(175.947288 240.90874) rotate(-318.342441) scale(0.1 -0.1)">
      <use xlink:href="#DejaVuSans-31"/>
      <use xlink:href="#DejaVuSans-39" x="63.623047"/>
     </g>
    </g>
   </g>
   <g id="text_41">
    <g id="patch_43">
     <path d="M 39.890736 108.22216 
L 43.398496 113.530364 
Q 45.05245 116.033249 47.555336 114.379296 
L 55.62975 109.043572 
Q 58.132635 107.389618 56.478682 104.886732 
L 52.970921 99.578529 
Q 51.316968 97.075643 48.814082 98.729597 
L 40.739668 104.065321 
Q 38.236782 105.719274 39.890736 108.22216 
z
" clip-path="url(#p5eed13c61c)" style="fill: #ffffff; stroke: #ffffff; stroke-linejoin: miter"/>
    </g>
    <g clip-path="url(#p5eed13c61c)">
     <!-- 1 -->
     <g transform="translate(44.128695 105.421637) rotate(-303.457474) scale(0.1 -0.1)">
      <use xlink:href="#DejaVuSans-31"/>
     </g>
    </g>
   </g>
   <g id="text_42">
    <g id="patch_44">
     <path d="M 184.780209 236.241562 
L 189.94238 239.96089 
Q 192.376409 241.7146 194.13012 239.280571 
L 199.787663 231.428291 
Q 201.541374 228.994261 199.107344 227.240551 
L 193.945174 223.521223 
Q 191.511144 221.767512 189.757434 224.201542 
L 184.09989 232.053822 
Q 182.346179 234.487851 184.780209 236.241562 
z
" clip-path="url(#p5eed13c61c)" style="fill: #ffffff; stroke: #ffffff; stroke-linejoin: miter"/>
    </g>
    <g clip-path="url(#p5eed13c61c)">
     <!-- 8 -->
     <g transform="translate(187.749643 232.120192) rotate(-324.227367) scale(0.1 -0.1)">
      <use xlink:href="#DejaVuSans-38"/>
     </g>
    </g>
   </g>
   <g id="text_43">
    <g id="patch_45">
     <path d="M 100.093613 186.699324 
L 108.635644 196.13115 
Q 110.649482 198.354763 112.873095 196.340925 
L 120.046564 189.844199 
Q 122.270177 187.83036 120.256339 185.606747 
L 111.714308 176.174921 
Q 109.700469 173.951308 107.476856 175.965147 
L 100.303388 182.461873 
Q 98.079775 184.475711 100.093613 186.699324 
z
" clip-path="url(#p5eed13c61c)" style="fill: #ffffff; stroke: #ffffff; stroke-linejoin: miter"/>
    </g>
    <g clip-path="url(#p5eed13c61c)">
     <!-- 11 -->
     <g transform="translate(103.8587 183.289435) rotate(-312.165889) scale(0.1 -0.1)">
      <use xlink:href="#DejaVuSans-31"/>
      <use xlink:href="#DejaVuSans-31" x="63.623047"/>
     </g>
    </g>
   </g>
   <g id="text_44">
    <g id="patch_46">
     <path d="M 266.887814 223.837527 
L 272.886097 225.959319 
Q 275.714364 226.959771 276.714816 224.131504 
L 279.942316 215.007396 
Q 280.942768 212.179128 278.114501 211.178676 
L 272.116217 209.056885 
Q 269.28795 208.056433 268.287498 210.8847 
L 265.059998 220.008808 
Q 264.059546 222.837075 266.887814 223.837527 
z
" clip-path="url(#p5eed13c61c)" style="fill: #ffffff; stroke: #ffffff; stroke-linejoin: miter"/>
    </g>
    <g clip-path="url(#p5eed13c61c)">
     <!-- 8 -->
     <g transform="translate(268.581808 219.048623) rotate(-340.519624) scale(0.1 -0.1)">
      <use xlink:href="#DejaVuSans-38"/>
     </g>
    </g>
   </g>
   <g id="text_45">
    <g id="patch_47">
     <path d="M 272.679686 161.012176 
L 285.399975 161.358409 
Q 288.398864 161.440036 288.480491 158.441146 
L 288.743822 148.766605 
Q 288.825448 145.767715 285.826559 145.686089 
L 273.10627 145.339856 
Q 270.107381 145.258229 270.025754 148.257119 
L 269.762423 157.931661 
Q 269.680797 160.93055 272.679686 161.012176 
z
" clip-path="url(#p5eed13c61c)" style="fill: #ffffff; stroke: #ffffff; stroke-linejoin: miter"/>
    </g>
    <g clip-path="url(#p5eed13c61c)">
     <!-- 10 -->
     <g transform="translate(272.817899 155.93437) rotate(-358.440855) scale(0.1 -0.1)">
      <use xlink:href="#DejaVuSans-31"/>
      <use xlink:href="#DejaVuSans-30" x="63.623047"/>
     </g>
    </g>
   </g>
   <g id="text_46">
    <g id="patch_48">
     <path d="M 239.737303 88.725578 
L 245.621819 86.3061 
Q 248.396444 85.165285 247.255629 82.39066 
L 243.575313 73.439606 
Q 242.434498 70.664981 239.659874 71.805796 
L 233.775357 74.225274 
Q 231.000733 75.366089 232.141548 78.140714 
L 235.821864 87.091768 
Q 236.962678 89.866393 239.737303 88.725578 
z
" clip-path="url(#p5eed13c61c)" style="fill: #ffffff; stroke: #ffffff; stroke-linejoin: miter"/>
    </g>
    <g clip-path="url(#p5eed13c61c)">
     <!-- 9 -->
     <g transform="translate(237.805642 84.027503) rotate(-22.350507) scale(0.1 -0.1)">
      <use xlink:href="#DejaVuSans-39"/>
     </g>
    </g>
   </g>
   <g id="text_47">
    <g id="patch_49">
     <path d="M 94.384617 191.589219 
L 97.835986 196.934259 
Q 99.463351 199.454514 101.983606 197.827149 
L 110.114053 192.577203 
Q 112.634308 190.949839 111.006943 188.429584 
L 107.555574 183.084544 
Q 105.92821 180.564289 103.407955 182.191653 
L 95.277508 187.441599 
Q 92.757253 189.068964 94.384617 191.589219 
z
" clip-path="url(#p5eed13c61c)" style="fill: #ffffff; stroke: #ffffff; stroke-linejoin: miter"/>
    </g>
    <g clip-path="url(#p5eed13c61c)">
     <!-- 6 -->
     <g transform="translate(98.651986 188.833717) rotate(-302.850908) scale(0.1 -0.1)">
      <use xlink:href="#DejaVuSans-36"/>
     </g>
    </g>
   </g>
   <g id="text_48">
    <g id="patch_50">
     <path d="M 207.019584 190.871945 
L 219.736945 191.312813 
Q 222.735144 191.416751 222.839081 188.418552 
L 223.174388 178.746237 
Q 223.278326 175.748038 220.280127 175.644101 
L 207.562766 175.203232 
Q 204.564567 175.099295 204.46063 178.097494 
L 204.125323 187.769808 
Q 204.021385 190.768007 207.019584 190.871945 
z
" clip-path="url(#p5eed13c61c)" style="fill: #ffffff; stroke: #ffffff; stroke-linejoin: miter"/>
    </g>
    <g clip-path="url(#p5eed13c61c)">
     <!-- 14 -->
     <g transform="translate(207.195574 185.795307) rotate(-358.014541) scale(0.1 -0.1)">
      <use xlink:href="#DejaVuSans-31"/>
      <use xlink:href="#DejaVuSans-34" x="63.623047"/>
     </g>
    </g>
   </g>
   <g id="text_49">
    <g id="patch_51">
     <path d="M 215.945553 217.697883 
L 222.098565 216.078669 
Q 224.999789 215.315189 224.236309 212.413966 
L 221.773291 203.054497 
Q 221.009811 200.153274 218.108587 200.916754 
L 211.955576 202.535967 
Q 209.054352 203.299447 209.817832 206.200671 
L 212.28085 215.560139 
Q 213.04433 218.461363 215.945553 217.697883 
z
" clip-path="url(#p5eed13c61c)" style="fill: #ffffff; stroke: #ffffff; stroke-linejoin: miter"/>
    </g>
    <g clip-path="url(#p5eed13c61c)">
     <!-- 5 -->
     <g transform="translate(214.652807 212.785446) rotate(-14.743563) scale(0.1 -0.1)">
      <use xlink:href="#DejaVuSans-35"/>
     </g>
    </g>
   </g>
   <g id="text_50">
    <g id="patch_52">
     <path d="M 204.507086 347.2926 
L 211.64685 336.759348 
Q 213.330095 334.276067 210.846813 332.592822 
L 202.835644 327.162604 
Q 200.352363 325.479359 198.669118 327.96264 
L 191.529354 338.495892 
Q 189.846109 340.979173 192.32939 342.662418 
L 200.34056 348.092637 
Q 202.823841 349.775882 204.507086 347.2926 
z
" clip-path="url(#p5eed13c61c)" style="fill: #ffffff; stroke: #ffffff; stroke-linejoin: miter"/>
    </g>
    <g clip-path="url(#p5eed13c61c)">
     <!-- 11 -->
     <g transform="translate(200.302321 344.442481) rotate(-55.869366) scale(0.1 -0.1)">
      <use xlink:href="#DejaVuSans-31"/>
      <use xlink:href="#DejaVuSans-31" x="63.623047"/>
     </g>
    </g>
   </g>
   <g id="text_51">
    <g id="patch_53">
     <path d="M 256.40286 257.701689 
L 259.833822 252.343526 
Q 261.451564 249.817084 258.925121 248.199342 
L 250.774714 242.980438 
Q 248.248271 241.362696 246.630529 243.889138 
L 243.199568 249.247301 
Q 241.581826 251.773744 244.108268 253.391486 
L 252.258676 258.610389 
Q 254.785118 260.228131 256.40286 257.701689 
z
" clip-path="url(#p5eed13c61c)" style="fill: #ffffff; stroke: #ffffff; stroke-linejoin: miter"/>
    </g>
    <g clip-path="url(#p5eed13c61c)">
     <!-- 7 -->
     <g transform="translate(252.125014 254.962481) rotate(-57.367581) scale(0.1 -0.1)">
      <use xlink:href="#DejaVuSans-37"/>
     </g>
    </g>
   </g>
   <g id="text_52">
    <g id="patch_54">
     <path d="M 285.274637 396.442594 
L 290.863026 393.400997 
Q 293.498022 391.966845 292.063871 389.331848 
L 287.437237 380.831239 
Q 286.003085 378.196242 283.368088 379.630394 
L 277.779699 382.671991 
Q 275.144702 384.106143 276.578854 386.74114 
L 281.205488 395.241749 
Q 282.63964 397.876746 285.274637 396.442594 
z
" clip-path="url(#p5eed13c61c)" style="fill: #ffffff; stroke: #ffffff; stroke-linejoin: miter"/>
    </g>
    <g clip-path="url(#p5eed13c61c)">
     <!-- 4 -->
     <g transform="translate(282.846289 391.980941) rotate(-28.558163) scale(0.1 -0.1)">
      <use xlink:href="#DejaVuSans-34"/>
     </g>
    </g>
   </g>
   <g id="text_53">
    <g id="patch_55">
     <path d="M 121.918994 364.634648 
L 122.678928 358.317695 
Q 123.037247 355.33917 120.058723 354.980851 
L 110.449879 353.8249 
Q 107.471354 353.466582 107.113036 356.445106 
L 106.353101 362.76206 
Q 105.994783 365.740584 108.973307 366.098903 
L 118.582151 367.254854 
Q 121.560675 367.613173 121.918994 364.634648 
z
" clip-path="url(#p5eed13c61c)" style="fill: #ffffff; stroke: #ffffff; stroke-linejoin: miter"/>
    </g>
    <g clip-path="url(#p5eed13c61c)">
     <!-- 1 -->
     <g transform="translate(116.87567 364.027933) rotate(-83.14024) scale(0.1 -0.1)">
      <use xlink:href="#DejaVuSans-31"/>
     </g>
    </g>
   </g>
   <g id="text_54">
    <g id="patch_56">
     <path d="M 118.459021 341.442437 
L 119.450142 328.756093 
Q 119.683805 325.765207 116.692918 325.531544 
L 107.044194 324.777737 
Q 104.053308 324.544074 103.819645 327.534961 
L 102.828524 340.221304 
Q 102.594861 343.212191 105.585748 343.445854 
L 115.234472 344.19966 
Q 118.225358 344.433323 118.459021 341.442437 
z
" clip-path="url(#p5eed13c61c)" style="fill: #ffffff; stroke: #ffffff; stroke-linejoin: miter"/>
    </g>
    <g clip-path="url(#p5eed13c61c)">
     <!-- 19 -->
     <g transform="translate(113.394765 341.046792) rotate(-85.532841) scale(0.1 -0.1)">
      <use xlink:href="#DejaVuSans-31"/>
      <use xlink:href="#DejaVuSans-39" x="63.623047"/>
     </g>
    </g>
   </g>
   <g id="text_55">
    <g id="patch_57">
     <path d="M 301.874608 204.528273 
L 314.33383 201.941112 
Q 317.271172 201.331173 316.661232 198.393832 
L 314.693541 188.917846 
Q 314.083601 185.980505 311.14626 186.590445 
L 298.687038 189.177606 
Q 295.749696 189.787545 296.359636 192.724887 
L 298.327327 202.200872 
Q 298.937267 205.138213 301.874608 204.528273 
z
" clip-path="url(#p5eed13c61c)" style="fill: #ffffff; stroke: #ffffff; stroke-linejoin: miter"/>
    </g>
    <g clip-path="url(#p5eed13c61c)">
     <!-- 17 -->
     <g transform="translate(300.84184 199.554682) rotate(-11.730775) scale(0.1 -0.1)">
      <use xlink:href="#DejaVuSans-31"/>
      <use xlink:href="#DejaVuSans-37" x="63.623047"/>
     </g>
    </g>
   </g>
   <g id="text_56">
    <g id="patch_58">
     <path d="M 117.983855 200.868479 
L 119.619705 213.487893 
Q 120.005367 216.463001 122.980475 216.077339 
L 132.578296 214.833177 
Q 135.553403 214.447515 135.167741 211.472407 
L 133.531891 198.852993 
Q 133.146229 195.877885 130.171121 196.263547 
L 120.573301 197.507709 
Q 117.598193 197.893371 117.983855 200.868479 
z
" clip-path="url(#p5eed13c61c)" style="fill: #ffffff; stroke: #ffffff; stroke-linejoin: miter"/>
    </g>
    <g clip-path="url(#p5eed13c61c)">
     <!-- 12 -->
     <g transform="translate(123.021394 200.215465) rotate(-277.386043) scale(0.1 -0.1)">
      <use xlink:href="#DejaVuSans-31"/>
      <use xlink:href="#DejaVuSans-32" x="63.623047"/>
     </g>
    </g>
   </g>
   <g id="text_57">
    <g id="patch_59">
     <path d="M 65.399714 147.727267 
L 72.358484 158.380959 
Q 73.999058 160.892635 76.510734 159.252061 
L 84.613505 153.959499 
Q 87.125181 152.318925 85.484607 149.807249 
L 78.525837 139.153557 
Q 76.885263 136.641881 74.373587 138.282456 
L 66.270816 143.575017 
Q 63.75914 145.215591 65.399714 147.727267 
z
" clip-path="url(#p5eed13c61c)" style="fill: #ffffff; stroke: #ffffff; stroke-linejoin: miter"/>
    </g>
    <g clip-path="url(#p5eed13c61c)">
     <!-- 13 -->
     <g transform="translate(69.652557 144.949399) rotate(-303.151734) scale(0.1 -0.1)">
      <use xlink:href="#DejaVuSans-31"/>
      <use xlink:href="#DejaVuSans-33" x="63.623047"/>
     </g>
    </g>
   </g>
   <g id="text_58">
    <g id="patch_60">
     <path d="M 266.889402 132.57174 
L 276.820838 124.616101 
Q 279.162237 122.740508 277.286645 120.399108 
L 271.235904 112.845656 
Q 269.360311 110.504257 267.018911 112.379849 
L 257.087475 120.335489 
Q 254.746076 122.211082 256.621669 124.552482 
L 262.67241 132.105934 
Q 264.548002 134.447333 266.889402 132.57174 
z
" clip-path="url(#p5eed13c61c)" style="fill: #ffffff; stroke: #ffffff; stroke-linejoin: miter"/>
    </g>
    <g clip-path="url(#p5eed13c61c)">
     <!-- 20 -->
     <g transform="translate(263.713593 128.607214) rotate(-38.696694) scale(0.1 -0.1)">
      <use xlink:href="#DejaVuSans-32"/>
      <use xlink:href="#DejaVuSans-30" x="63.623047"/>
     </g>
    </g>
   </g>
   <g id="text_59">
    <g id="patch_61">
     <path d="M 210.11354 278.355789 
L 221.640738 283.745533 
Q 224.358348 285.0162 225.629015 282.298589 
L 229.728238 273.531465 
Q 230.998905 270.813854 228.281294 269.543188 
L 216.754096 264.153444 
Q 214.036486 262.882777 212.765819 265.600388 
L 208.666596 274.367512 
Q 207.39593 277.085123 210.11354 278.355789 
z
" clip-path="url(#p5eed13c61c)" style="fill: #ffffff; stroke: #ffffff; stroke-linejoin: miter"/>
    </g>
    <g clip-path="url(#p5eed13c61c)">
     <!-- 11 -->
     <g transform="translate(212.26507 273.754252) rotate(-334.940734) scale(0.1 -0.1)">
      <use xlink:href="#DejaVuSans-31"/>
      <use xlink:href="#DejaVuSans-31" x="63.623047"/>
     </g>
    </g>
   </g>
   <g id="text_60">
    <g id="patch_62">
     <path d="M 295.363147 266.947973 
L 301.643834 267.965016 
Q 304.605258 268.444565 305.084807 265.483141 
L 306.631851 255.929463 
Q 307.1114 252.968039 304.149976 252.48849 
L 297.869289 251.471447 
Q 294.907865 250.991899 294.428316 253.953323 
L 292.881272 263.507 
Q 292.401723 266.468424 295.363147 266.947973 
z
" clip-path="url(#p5eed13c61c)" style="fill: #ffffff; stroke: #ffffff; stroke-linejoin: miter"/>
    </g>
    <g clip-path="url(#p5eed13c61c)">
     <!-- 8 -->
     <g transform="translate(296.175133 261.933604) rotate(-350.801834) scale(0.1 -0.1)">
      <use xlink:href="#DejaVuSans-38"/>
     </g>
    </g>
   </g>
   <g id="text_61">
    <g id="patch_63">
     <path d="M 396.258633 247.369622 
L 405.727449 238.868613 
Q 407.959783 236.864446 405.955616 234.632112 
L 399.490089 227.43051 
Q 397.485922 225.198176 395.253588 227.202343 
L 385.784772 235.703352 
Q 383.552439 237.707519 385.556606 239.939853 
L 392.022132 247.141455 
Q 394.026299 249.373789 396.258633 247.369622 
z
" clip-path="url(#p5eed13c61c)" style="fill: #ffffff; stroke: #ffffff; stroke-linejoin: miter"/>
    </g>
    <g clip-path="url(#p5eed13c61c)">
     <!-- 14 -->
     <g transform="translate(392.865119 243.589769) rotate(-41.917179) scale(0.1 -0.1)">
      <use xlink:href="#DejaVuSans-31"/>
      <use xlink:href="#DejaVuSans-34" x="63.623047"/>
     </g>
    </g>
   </g>
   <g id="text_62">
    <g id="patch_64">
     <path d="M 362.718152 169.594183 
L 364.631325 163.526137 
Q 365.533411 160.664977 362.67225 159.762891 
L 353.442026 156.852725 
Q 350.580865 155.950639 349.67878 158.8118 
L 347.765606 164.879845 
Q 346.86352 167.741006 349.724681 168.643092 
L 358.954905 171.553258 
Q 361.816066 172.455344 362.718152 169.594183 
z
" clip-path="url(#p5eed13c61c)" style="fill: #ffffff; stroke: #ffffff; stroke-linejoin: miter"/>
    </g>
    <g clip-path="url(#p5eed13c61c)">
     <!-- 1 -->
     <g transform="translate(357.873551 168.066745) rotate(-72.500634) scale(0.1 -0.1)">
      <use xlink:href="#DejaVuSans-31"/>
     </g>
    </g>
   </g>
   <g id="text_63">
    <g id="patch_65">
     <path d="M 433.589798 83.948377 
L 439.646931 95.1393 
Q 441.074939 97.777632 443.713271 96.349624 
L 452.224638 91.742811 
Q 454.86297 90.314803 453.434962 87.676471 
L 447.377829 76.485548 
Q 445.949821 73.847217 443.311489 75.275225 
L 434.800122 79.882037 
Q 432.16179 81.310045 433.589798 83.948377 
z
" clip-path="url(#p5eed13c61c)" style="fill: #ffffff; stroke: #ffffff; stroke-linejoin: miter"/>
    </g>
    <g clip-path="url(#p5eed13c61c)">
     <!-- 10 -->
     <g transform="translate(438.057098 81.530432) rotate(-298.424651) scale(0.1 -0.1)">
      <use xlink:href="#DejaVuSans-31"/>
      <use xlink:href="#DejaVuSans-30" x="63.623047"/>
     </g>
    </g>
   </g>
   <g id="text_64">
    <g id="patch_66">
     <path d="M 483.445898 230.204512 
L 484.778011 217.54943 
Q 485.092066 214.565914 482.108549 214.251859 
L 472.483601 213.238707 
Q 469.500085 212.924653 469.186031 215.908169 
L 467.853917 228.563251 
Q 467.539862 231.546767 470.523379 231.860822 
L 480.148327 232.873974 
Q 483.131843 233.188028 483.445898 230.204512 
z
" clip-path="url(#p5eed13c61c)" style="fill: #ffffff; stroke: #ffffff; stroke-linejoin: miter"/>
    </g>
    <g clip-path="url(#p5eed13c61c)">
     <!-- 10 -->
     <g transform="translate(478.394121 229.672746) rotate(-83.990994) scale(0.1 -0.1)">
      <use xlink:href="#DejaVuSans-31"/>
      <use xlink:href="#DejaVuSans-30" x="63.623047"/>
     </g>
    </g>
   </g>
   <g id="text_65">
    <g id="patch_67">
     <path d="M 309.236667 200.607105 
L 321.728741 198.183536 
Q 324.673828 197.612164 324.102456 194.667077 
L 322.259186 185.166106 
Q 321.687814 182.221019 318.742728 182.792391 
L 306.250653 185.215961 
Q 303.305566 185.787333 303.876938 188.732419 
L 305.720208 198.233391 
Q 306.29158 201.178477 309.236667 200.607105 
z
" clip-path="url(#p5eed13c61c)" style="fill: #ffffff; stroke: #ffffff; stroke-linejoin: miter"/>
    </g>
    <g clip-path="url(#p5eed13c61c)">
     <!-- 17 -->
     <g transform="translate(308.269203 195.620399) rotate(-10.979474) scale(0.1 -0.1)">
      <use xlink:href="#DejaVuSans-31"/>
      <use xlink:href="#DejaVuSans-37" x="63.623047"/>
     </g>
    </g>
   </g>
   <g id="text_66">
    <g id="patch_68">
     <path d="M 247.32785 119.156046 
L 253.563772 120.418853 
Q 256.504089 121.014283 257.099518 118.073966 
L 259.020399 108.588381 
Q 259.615828 105.648064 256.675511 105.052634 
L 250.439589 103.789828 
Q 247.499272 103.194398 246.903843 106.134715 
L 244.982962 115.6203 
Q 244.387533 118.560617 247.32785 119.156046 
z
" clip-path="url(#p5eed13c61c)" style="fill: #ffffff; stroke: #ffffff; stroke-linejoin: miter"/>
    </g>
    <g clip-path="url(#p5eed13c61c)">
     <!-- 1 -->
     <g transform="translate(248.336048 114.177416) rotate(-348.552116) scale(0.1 -0.1)">
      <use xlink:href="#DejaVuSans-31"/>
     </g>
    </g>
   </g>
   <g id="text_67">
    <g id="patch_69">
     <path d="M 72.824834 144.704198 
L 80.643546 154.743789 
Q 82.486857 157.110686 84.853754 155.267375 
L 92.489464 149.320776 
Q 94.856362 147.477465 93.013051 145.110568 
L 85.194339 135.070977 
Q 83.351028 132.70408 80.984131 134.547391 
L 73.348421 140.493989 
Q 70.981523 142.337301 72.824834 144.704198 
z
" clip-path="url(#p5eed13c61c)" style="fill: #ffffff; stroke: #ffffff; stroke-linejoin: miter"/>
    </g>
    <g clip-path="url(#p5eed13c61c)">
     <!-- 13 -->
     <g transform="translate(76.832534 141.58305) rotate(-307.911026) scale(0.1 -0.1)">
      <use xlink:href="#DejaVuSans-31"/>
      <use xlink:href="#DejaVuSans-33" x="63.623047"/>
     </g>
    </g>
   </g>
   <g id="text_68">
    <g id="patch_70">
     <path d="M 124.21635 200.042884 
L 129.807527 211.473735 
Q 131.125683 214.168631 133.820579 212.850475 
L 142.514426 208.59805 
Q 145.209322 207.279894 143.891167 204.584998 
L 138.299989 193.154147 
Q 136.981834 190.459251 134.286937 191.777406 
L 125.59309 196.029832 
Q 122.898194 197.347988 124.21635 200.042884 
z
" clip-path="url(#p5eed13c61c)" style="fill: #ffffff; stroke: #ffffff; stroke-linejoin: miter"/>
    </g>
    <g clip-path="url(#p5eed13c61c)">
     <!-- 14 -->
     <g transform="translate(128.779426 197.810944) rotate(-296.064664) scale(0.1 -0.1)">
      <use xlink:href="#DejaVuSans-31"/>
      <use xlink:href="#DejaVuSans-34" x="63.623047"/>
     </g>
    </g>
   </g>
   <g id="matplotlib.axis_1">
    <g id="xtick_1">
     <g id="line2d_1">
      <path d="M 10.8 493.2 
L 10.8 10.8 
" clip-path="url(#p5eed13c61c)" style="fill: none; stroke: #b0b0b0; stroke-opacity: 0.3; stroke-width: 0.8; stroke-linecap: square"/>
     </g>
    </g>
    <g id="xtick_2">
     <g id="line2d_2">
      <path d="M 59.04 493.2 
L 59.04 10.8 
" clip-path="url(#p5eed13c61c)" style="fill: none; stroke: #b0b0b0; stroke-opacity: 0.3; stroke-width: 0.8; stroke-linecap: square"/>
     </g>
    </g>
    <g id="xtick_3">
     <g id="line2d_3">
      <path d="M 107.28 493.2 
L 107.28 10.8 
" clip-path="url(#p5eed13c61c)" style="fill: none; stroke: #b0b0b0; stroke-opacity: 0.3; stroke-width: 0.8; stroke-linecap: square"/>
     </g>
    </g>
    <g id="xtick_4">
     <g id="line2d_4">
      <path d="M 155.52 493.2 
L 155.52 10.8 
" clip-path="url(#p5eed13c61c)" style="fill: none; stroke: #b0b0b0; stroke-opacity: 0.3; stroke-width: 0.8; stroke-linecap: square"/>
     </g>
    </g>
    <g id="xtick_5">
     <g id="line2d_5">
      <path d="M 203.76 493.2 
L 203.76 10.8 
" clip-path="url(#p5eed13c61c)" style="fill: none; stroke: #b0b0b0; stroke-opacity: 0.3; stroke-width: 0.8; stroke-linecap: square"/>
     </g>
    </g>
    <g id="xtick_6">
     <g id="line2d_6">
      <path d="M 252 493.2 
L 252 10.8 
" clip-path="url(#p5eed13c61c)" style="fill: none; stroke: #b0b0b0; stroke-opacity: 0.3; stroke-width: 0.8; stroke-linecap: square"/>
     </g>
    </g>
    <g id="xtick_7">
     <g id="line2d_7">
      <path d="M 300.24 493.2 
L 300.24 10.8 
" clip-path="url(#p5eed13c61c)" style="fill: none; stroke: #b0b0b0; stroke-opacity: 0.3; stroke-width: 0.8; stroke-linecap: square"/>
     </g>
    </g>
    <g id="xtick_8">
     <g id="line2d_8">
      <path d="M 348.48 493.2 
L 348.48 10.8 
" clip-path="url(#p5eed13c61c)" style="fill: none; stroke: #b0b0b0; stroke-opacity: 0.3; stroke-width: 0.8; stroke-linecap: square"/>
     </g>
    </g>
    <g id="xtick_9">
     <g id="line2d_9">
      <path d="M 396.72 493.2 
L 396.72 10.8 
" clip-path="url(#p5eed13c61c)" style="fill: none; stroke: #b0b0b0; stroke-opacity: 0.3; stroke-width: 0.8; stroke-linecap: square"/>
     </g>
    </g>
    <g id="xtick_10">
     <g id="line2d_10">
      <path d="M 444.96 493.2 
L 444.96 10.8 
" clip-path="url(#p5eed13c61c)" style="fill: none; stroke: #b0b0b0; stroke-opacity: 0.3; stroke-width: 0.8; stroke-linecap: square"/>
     </g>
    </g>
    <g id="xtick_11">
     <g id="line2d_11">
      <path d="M 493.2 493.2 
L 493.2 10.8 
" clip-path="url(#p5eed13c61c)" style="fill: none; stroke: #b0b0b0; stroke-opacity: 0.3; stroke-width: 0.8; stroke-linecap: square"/>
     </g>
    </g>
   </g>
   <g id="matplotlib.axis_2">
    <g id="ytick_1">
     <g id="line2d_12">
      <path d="M 10.8 493.2 
L 493.2 493.2 
" clip-path="url(#p5eed13c61c)" style="fill: none; stroke: #b0b0b0; stroke-opacity: 0.3; stroke-width: 0.8; stroke-linecap: square"/>
     </g>
    </g>
    <g id="ytick_2">
     <g id="line2d_13">
      <path d="M 10.8 444.96 
L 493.2 444.96 
" clip-path="url(#p5eed13c61c)" style="fill: none; stroke: #b0b0b0; stroke-opacity: 0.3; stroke-width: 0.8; stroke-linecap: square"/>
     </g>
    </g>
    <g id="ytick_3">
     <g id="line2d_14">
      <path d="M 10.8 396.72 
L 493.2 396.72 
" clip-path="url(#p5eed13c61c)" style="fill: none; stroke: #b0b0b0; stroke-opacity: 0.3; stroke-width: 0.8; stroke-linecap: square"/>
     </g>
    </g>
    <g id="ytick_4">
     <g id="line2d_15">
      <path d="M 10.8 348.48 
L 493.2 348.48 
" clip-path="url(#p5eed13c61c)" style="fill: none; stroke: #b0b0b0; stroke-opacity: 0.3; stroke-width: 0.8; stroke-linecap: square"/>
     </g>
    </g>
    <g id="ytick_5">
     <g id="line2d_16">
      <path d="M 10.8 300.24 
L 493.2 300.24 
" clip-path="url(#p5eed13c61c)" style="fill: none; stroke: #b0b0b0; stroke-opacity: 0.3; stroke-width: 0.8; stroke-linecap: square"/>
     </g>
    </g>
    <g id="ytick_6">
     <g id="line2d_17">
      <path d="M 10.8 252 
L 493.2 252 
" clip-path="url(#p5eed13c61c)" style="fill: none; stroke: #b0b0b0; stroke-opacity: 0.3; stroke-width: 0.8; stroke-linecap: square"/>
     </g>
    </g>
    <g id="ytick_7">
     <g id="line2d_18">
      <path d="M 10.8 203.76 
L 493.2 203.76 
" clip-path="url(#p5eed13c61c)" style="fill: none; stroke: #b0b0b0; stroke-opacity: 0.3; stroke-width: 0.8; stroke-linecap: square"/>
     </g>
    </g>
    <g id="ytick_8">
     <g id="line2d_19">
      <path d="M 10.8 155.52 
L 493.2 155.52 
" clip-path="url(#p5eed13c61c)" style="fill: none; stroke: #b0b0b0; stroke-opacity: 0.3; stroke-width: 0.8; stroke-linecap: square"/>
     </g>
    </g>
    <g id="ytick_9">
     <g id="line2d_20">
      <path d="M 10.8 107.28 
L 493.2 107.28 
" clip-path="url(#p5eed13c61c)" style="fill: none; stroke: #b0b0b0; stroke-opacity: 0.3; stroke-width: 0.8; stroke-linecap: square"/>
     </g>
    </g>
    <g id="ytick_10">
     <g id="line2d_21">
      <path d="M 10.8 59.04 
L 493.2 59.04 
" clip-path="url(#p5eed13c61c)" style="fill: none; stroke: #b0b0b0; stroke-opacity: 0.3; stroke-width: 0.8; stroke-linecap: square"/>
     </g>
    </g>
    <g id="ytick_11">
     <g id="line2d_22">
      <path d="M 10.8 10.8 
L 493.2 10.8 
" clip-path="url(#p5eed13c61c)" style="fill: none; stroke: #b0b0b0; stroke-opacity: 0.3; stroke-width: 0.8; stroke-linecap: square"/>
     </g>
    </g>
   </g>
   <g id="PathCollection_1">
    <defs>
     <path id="mbdb4366903" d="M 0 8.660254 
C 2.296726 8.660254 4.499694 7.747755 6.123724 6.123724 
C 7.747755 4.499694 8.660254 2.296726 8.660254 0 
C 8.660254 -2.296726 7.747755 -4.499694 6.123724 -6.123724 
C 4.499694 -7.747755 2.296726 -8.660254 0 -8.660254 
C -2.296726 -8.660254 -4.499694 -7.747755 -6.123724 -6.123724 
C -7.747755 -4.499694 -8.660254 -2.296726 -8.660254 0 
C -8.660254 2.296726 -7.747755 4.499694 -6.123724 6.123724 
C -4.499694 7.747755 -2.296726 8.660254 0 8.660254 
z
" style="stroke: #1f78b4"/>
    </defs>
    <g clip-path="url(#p5eed13c61c)">
     <use xlink:href="#mbdb4366903" x="466.668" y="337.8672" style="fill: #1f78b4; stroke: #1f78b4"/>
     <use xlink:href="#mbdb4366903" x="223.5384" y="335.4552" style="fill: #1f78b4; stroke: #1f78b4"/>
     <use xlink:href="#mbdb4366903" x="373.0824" y="240.9048" style="fill: #1f78b4; stroke: #1f78b4"/>
     <use xlink:href="#mbdb4366903" x="101.4912" y="67.2408" style="fill: #1f78b4; stroke: #1f78b4"/>
     <use xlink:href="#mbdb4366903" x="490.788" y="450.2664" style="fill: #1f78b4; stroke: #1f78b4"/>
     <use xlink:href="#mbdb4366903" x="289.6272" y="338.3496" style="fill: #1f78b4; stroke: #1f78b4"/>
     <use xlink:href="#mbdb4366903" x="75.4416" y="147.8016" style="fill: #1f78b4; stroke: #1f78b4"/>
     <use xlink:href="#mbdb4366903" x="304.0992" y="186.3936" style="fill: #1f78b4; stroke: #1f78b4"/>
     <use xlink:href="#mbdb4366903" x="99.0792" y="488.8584" style="fill: #1f78b4; stroke: #1f78b4"/>
     <use xlink:href="#mbdb4366903" x="129.9528" y="232.2216" style="fill: #1f78b4; stroke: #1f78b4"/>
     <use xlink:href="#mbdb4366903" x="308.4408" y="315.6768" style="fill: #1f78b4; stroke: #1f78b4"/>
     <use xlink:href="#mbdb4366903" x="483.0696" y="158.8968" style="fill: #1f78b4; stroke: #1f78b4"/>
     <use xlink:href="#mbdb4366903" x="20.9304" y="65.3112" style="fill: #1f78b4; stroke: #1f78b4"/>
     <use xlink:href="#mbdb4366903" x="403.956" y="12.7296" style="fill: #1f78b4; stroke: #1f78b4"/>
     <use xlink:href="#mbdb4366903" x="144.9072" y="224.5032" style="fill: #1f78b4; stroke: #1f78b4"/>
     <use xlink:href="#mbdb4366903" x="123.1992" y="180.1224" style="fill: #1f78b4; stroke: #1f78b4"/>
     <use xlink:href="#mbdb4366903" x="469.5624" y="287.2152" style="fill: #1f78b4; stroke: #1f78b4"/>
    </g>
   </g>
   <g id="patch_71">
    <path d="M 10.8 493.2 
L 10.8 10.8 
" style="fill: none; stroke: #000000; stroke-width: 0.8; stroke-linejoin: miter; stroke-linecap: square"/>
   </g>
   <g id="patch_72">
    <path d="M 493.2 493.2 
L 493.2 10.8 
" style="fill: none; stroke: #000000; stroke-width: 0.8; stroke-linejoin: miter; stroke-linecap: square"/>
   </g>
   <g id="patch_73">
    <path d="M 10.8 493.2 
L 493.2 493.2 
" style="fill: none; stroke: #000000; stroke-width: 0.8; stroke-linejoin: miter; stroke-linecap: square"/>
   </g>
   <g id="patch_74">
    <path d="M 10.8 10.8 
L 493.2 10.8 
" style="fill: none; stroke: #000000; stroke-width: 0.8; stroke-linejoin: miter; stroke-linecap: square"/>
   </g>
   <g id="text_69">
    <g clip-path="url(#p5eed13c61c)">
     <!-- 0 -->
     <g transform="translate(462.8505 341.17845) scale(0.12 -0.12)">
      <use xlink:href="#DejaVuSans-30"/>
     </g>
    </g>
   </g>
   <g id="text_70">
    <g clip-path="url(#p5eed13c61c)">
     <!-- 1 -->
     <g transform="translate(219.7209 338.76645) scale(0.12 -0.12)">
      <use xlink:href="#DejaVuSans-31"/>
     </g>
    </g>
   </g>
   <g id="text_71">
    <g clip-path="url(#p5eed13c61c)">
     <!-- 2 -->
     <g transform="translate(369.2649 244.21605) scale(0.12 -0.12)">
      <use xlink:href="#DejaVuSans-32"/>
     </g>
    </g>
   </g>
   <g id="text_72">
    <g clip-path="url(#p5eed13c61c)">
     <!-- 3 -->
     <g transform="translate(97.6737 70.55205) scale(0.12 -0.12)">
      <use xlink:href="#DejaVuSans-33"/>
     </g>
    </g>
   </g>
   <g id="text_73">
    <g clip-path="url(#p5eed13c61c)">
     <!-- 4 -->
     <g transform="translate(486.9705 453.57765) scale(0.12 -0.12)">
      <use xlink:href="#DejaVuSans-34"/>
     </g>
    </g>
   </g>
   <g id="text_74">
    <g clip-path="url(#p5eed13c61c)">
     <!-- 5 -->
     <g transform="translate(285.8097 341.66085) scale(0.12 -0.12)">
      <use xlink:href="#DejaVuSans-35"/>
     </g>
    </g>
   </g>
   <g id="text_75">
    <g clip-path="url(#p5eed13c61c)">
     <!-- 6 -->
     <g transform="translate(71.6241 151.11285) scale(0.12 -0.12)">
      <use xlink:href="#DejaVuSans-36"/>
     </g>
    </g>
   </g>
   <g id="text_76">
    <g clip-path="url(#p5eed13c61c)">
     <!-- 7 -->
     <g transform="translate(300.2817 189.70485) scale(0.12 -0.12)">
      <use xlink:href="#DejaVuSans-37"/>
     </g>
    </g>
   </g>
   <g id="text_77">
    <g clip-path="url(#p5eed13c61c)">
     <!-- 8 -->
     <g transform="translate(95.2617 492.16965) scale(0.12 -0.12)">
      <use xlink:href="#DejaVuSans-38"/>
     </g>
    </g>
   </g>
   <g id="text_78">
    <g clip-path="url(#p5eed13c61c)">
     <!-- 9 -->
     <g transform="translate(126.1353 235.53285) scale(0.12 -0.12)">
      <use xlink:href="#DejaVuSans-39"/>
     </g>
    </g>
   </g>
   <g id="text_79">
    <g clip-path="url(#p5eed13c61c)">
     <!-- 10 -->
     <g transform="translate(300.8058 318.98805) scale(0.12 -0.12)">
      <use xlink:href="#DejaVuSans-31"/>
      <use xlink:href="#DejaVuSans-30" x="63.623047"/>
     </g>
    </g>
   </g>
   <g id="text_80">
    <g clip-path="url(#p5eed13c61c)">
     <!-- 11 -->
     <g transform="translate(475.4346 162.20805) scale(0.12 -0.12)">
      <use xlink:href="#DejaVuSans-31"/>
      <use xlink:href="#DejaVuSans-31" x="63.623047"/>
     </g>
    </g>
   </g>
   <g id="text_81">
    <g clip-path="url(#p5eed13c61c)">
     <!-- 12 -->
     <g transform="translate(13.2954 68.62245) scale(0.12 -0.12)">
      <use xlink:href="#DejaVuSans-31"/>
      <use xlink:href="#DejaVuSans-32" x="63.623047"/>
     </g>
    </g>
   </g>
   <g id="text_82">
    <g clip-path="url(#p5eed13c61c)">
     <!-- 13 -->
     <g transform="translate(396.321 16.04085) scale(0.12 -0.12)">
      <use xlink:href="#DejaVuSans-31"/>
      <use xlink:href="#DejaVuSans-33" x="63.623047"/>
     </g>
    </g>
   </g>
   <g id="text_83">
    <g clip-path="url(#p5eed13c61c)">
     <!-- 14 -->
     <g transform="translate(137.2722 227.81445) scale(0.12 -0.12)">
      <use xlink:href="#DejaVuSans-31"/>
      <use xlink:href="#DejaVuSans-34" x="63.623047"/>
     </g>
    </g>
   </g>
   <g id="text_84">
    <g clip-path="url(#p5eed13c61c)">
     <!-- 15 -->
     <g transform="translate(115.5642 183.43365) scale(0.12 -0.12)">
      <use xlink:href="#DejaVuSans-31"/>
      <use xlink:href="#DejaVuSans-35" x="63.623047"/>
     </g>
    </g>
   </g>
   <g id="text_85">
    <g clip-path="url(#p5eed13c61c)">
     <!-- 16 -->
     <g transform="translate(461.9274 290.52645) scale(0.12 -0.12)">
      <use xlink:href="#DejaVuSans-31"/>
      <use xlink:href="#DejaVuSans-36" x="63.623047"/>
     </g>
    </g>
   </g>
  </g>
 </g>
 <defs>
  <clipPath id="p5eed13c61c">
   <rect x="10.8" y="10.8" width="482.4" height="482.4"/>
  </clipPath>
 </defs>
</svg>
