<?xml version="1.0" encoding="utf-8" standalone="no"?>
<!DOCTYPE svg PUBLIC "-//W3C//DTD SVG 1.1//EN"
  "http://www.w3.org/Graphics/SVG/1.1/DTD/svg11.dtd">
<svg xmlns:xlink="http://www.w3.org/1999/xlink" width="504pt" height="504pt" viewBox="0 0 504 504" xmlns="http://www.w3.org/2000/svg" version="1.1">
 <metadata>
  <rdf:RDF xmlns:dc="http://purl.org/dc/elements/1.1/" xmlns:cc="http://creativecommons.org/ns#" xmlns:rdf="http://www.w3.org/1999/02/22-rdf-syntax-ns#">
   <cc:Work>
    <dc:type rdf:resource="http://purl.org/dc/dcmitype/StillImage"/>
    <dc:date>2024-10-29T14:59:40.501059</dc:date>
    <dc:format>image/svg+xml</dc:format>
    <dc:creator>
     <cc:Agent>
      <dc:title>Matplotlib v3.9.2, https://matplotlib.org/</dc:title>
     </cc:Agent>
    </dc:creator>
   </cc:Work>
  </rdf:RDF>
 </metadata>
 <defs>
  <style type="text/css">*{stroke-linejoin: round; stroke-linecap: butt}</style>
 </defs>
 <g id="figure_1">
  <g id="patch_1">
   <path d="M 0 504 
L 504 504 
L 504 0 
L 0 0 
L 0 504 
z
" style="fill: none; opacity: 0"/>
  </g>
  <g id="axes_1">
   <g id="patch_2">
    <path d="M 10.8 493.2 
L 493.2 493.2 
L 493.2 10.8 
L 10.8 10.8 
L 10.8 493.2 
z
" style="fill: none; opacity: 0"/>
   </g>
   <g id="LineCollection_1">
    <path d="M 262.1304 72.5472 
L 23.3424 410.7096 
" clip-path="url(#p1307434d3e)" style="fill: none; stroke: #000000"/>
    <path d="M 262.1304 72.5472 
L 492.2352 429.5232 
" clip-path="url(#p1307434d3e)" style="fill: none; stroke: #000000"/>
    <path d="M 262.1304 72.5472 
L 377.9064 213.8904 
" clip-path="url(#p1307434d3e)" style="fill: none; stroke: #000000"/>
    <path d="M 262.1304 72.5472 
L 201.8304 115.4808 
" clip-path="url(#p1307434d3e)" style="fill: none; stroke: #000000"/>
    <path d="M 262.1304 72.5472 
L 145.872 410.2272 
" clip-path="url(#p1307434d3e)" style="fill: none; stroke: #000000"/>
    <path d="M 262.1304 72.5472 
L 194.5944 368.2584 
" clip-path="url(#p1307434d3e)" style="fill: none; stroke: #000000"/>
    <path d="M 226.4328 342.6912 
L 148.7664 73.512 
" clip-path="url(#p1307434d3e)" style="fill: none; stroke: #000000"/>
    <path d="M 226.4328 342.6912 
L 282.3912 318.0888 
" clip-path="url(#p1307434d3e)" style="fill: none; stroke: #000000"/>
    <path d="M 226.4328 342.6912 
L 100.5264 443.0304 
" clip-path="url(#p1307434d3e)" style="fill: none; stroke: #000000"/>
    <path d="M 206.6544 220.1616 
L 377.9064 213.8904 
" clip-path="url(#p1307434d3e)" style="fill: none; stroke: #000000"/>
    <path d="M 206.6544 220.1616 
L 282.3912 318.0888 
" clip-path="url(#p1307434d3e)" style="fill: none; stroke: #000000"/>
    <path d="M 206.6544 220.1616 
L 228.3624 131.8824 
" clip-path="url(#p1307434d3e)" style="fill: none; stroke: #000000"/>
    <path d="M 206.6544 220.1616 
L 145.872 410.2272 
" clip-path="url(#p1307434d3e)" style="fill: none; stroke: #000000"/>
    <path d="M 194.5944 368.2584 
L 50.3568 178.1928 
" clip-path="url(#p1307434d3e)" style="fill: none; stroke: #000000"/>
    <path d="M 194.5944 368.2584 
L 201.8304 115.4808 
" clip-path="url(#p1307434d3e)" style="fill: none; stroke: #000000"/>
    <path d="M 194.5944 368.2584 
L 377.9064 213.8904 
" clip-path="url(#p1307434d3e)" style="fill: none; stroke: #000000"/>
    <path d="M 194.5944 368.2584 
L 23.3424 410.7096 
" clip-path="url(#p1307434d3e)" style="fill: none; stroke: #000000"/>
    <path d="M 91.8432 63.3816 
L 389.0016 66.7584 
" clip-path="url(#p1307434d3e)" style="fill: none; stroke: #000000"/>
    <path d="M 91.8432 63.3816 
L 228.3624 131.8824 
" clip-path="url(#p1307434d3e)" style="fill: none; stroke: #000000"/>
    <path d="M 389.0016 66.7584 
L 228.3624 131.8824 
" clip-path="url(#p1307434d3e)" style="fill: none; stroke: #000000"/>
    <path d="M 389.0016 66.7584 
L 50.3568 178.1928 
" clip-path="url(#p1307434d3e)" style="fill: none; stroke: #000000"/>
    <path d="M 389.0016 66.7584 
L 100.5264 443.0304 
" clip-path="url(#p1307434d3e)" style="fill: none; stroke: #000000"/>
    <path d="M 228.3624 131.8824 
L 50.3568 178.1928 
" clip-path="url(#p1307434d3e)" style="fill: none; stroke: #000000"/>
    <path d="M 228.3624 131.8824 
L 377.9064 213.8904 
" clip-path="url(#p1307434d3e)" style="fill: none; stroke: #000000"/>
    <path d="M 228.3624 131.8824 
L 23.3424 410.7096 
" clip-path="url(#p1307434d3e)" style="fill: none; stroke: #000000"/>
    <path d="M 228.3624 131.8824 
L 148.7664 73.512 
" clip-path="url(#p1307434d3e)" style="fill: none; stroke: #000000"/>
    <path d="M 36.8496 343.1736 
L 23.3424 410.7096 
" clip-path="url(#p1307434d3e)" style="fill: none; stroke: #000000"/>
    <path d="M 36.8496 343.1736 
L 50.3568 178.1928 
" clip-path="url(#p1307434d3e)" style="fill: none; stroke: #000000"/>
    <path d="M 145.872 410.2272 
L 282.3912 318.0888 
" clip-path="url(#p1307434d3e)" style="fill: none; stroke: #000000"/>
    <path d="M 50.3568 178.1928 
L 282.3912 318.0888 
" clip-path="url(#p1307434d3e)" style="fill: none; stroke: #000000"/>
    <path d="M 50.3568 178.1928 
L 100.5264 443.0304 
" clip-path="url(#p1307434d3e)" style="fill: none; stroke: #000000"/>
    <path d="M 68.688 147.8016 
L 492.2352 429.5232 
" clip-path="url(#p1307434d3e)" style="fill: none; stroke: #000000"/>
    <path d="M 148.7664 73.512 
L 201.8304 115.4808 
" clip-path="url(#p1307434d3e)" style="fill: none; stroke: #000000"/>
    <path d="M 148.7664 73.512 
L 282.3912 318.0888 
" clip-path="url(#p1307434d3e)" style="fill: none; stroke: #000000"/>
    <path d="M 148.7664 73.512 
L 100.5264 443.0304 
" clip-path="url(#p1307434d3e)" style="fill: none; stroke: #000000"/>
    <path d="M 492.2352 429.5232 
L 23.3424 410.7096 
" clip-path="url(#p1307434d3e)" style="fill: none; stroke: #000000"/>
    <path d="M 377.9064 213.8904 
L 23.3424 410.7096 
" clip-path="url(#p1307434d3e)" style="fill: none; stroke: #000000"/>
    <path d="M 201.8304 115.4808 
L 23.3424 410.7096 
" clip-path="url(#p1307434d3e)" style="fill: none; stroke: #000000"/>
   </g>
   <g id="text_1">
    <g id="patch_3">
     <path d="M 145.46932 251.34827 
L 152.80936 240.953587 
Q 154.539821 238.502974 152.089208 236.772513 
L 144.183429 231.189972 
Q 141.732816 229.459511 140.002355 231.910124 
L 132.662315 242.304807 
Q 130.931853 244.75542 133.382466 246.485881 
L 141.288246 252.068421 
Q 143.738859 253.798883 145.46932 251.34827 
z
" clip-path="url(#p1307434d3e)" style="fill: #ffffff; stroke: #ffffff; stroke-linejoin: miter"/>
    </g>
    <g clip-path="url(#p1307434d3e)">
     <!-- 16 -->
     <g transform="translate(141.319871 248.418202) rotate(-54.772781) scale(0.1 -0.1)">
      <defs>
       <path id="DejaVuSans-31" d="M 794 531 
L 1825 531 
L 1825 4091 
L 703 3866 
L 703 4441 
L 1819 4666 
L 2450 4666 
L 2450 531 
L 3481 531 
L 3481 0 
L 794 0 
L 794 531 
z
" transform="scale(0.015625)"/>
       <path id="DejaVuSans-36" d="M 2113 2584 
Q 1688 2584 1439 2293 
Q 1191 2003 1191 1497 
Q 1191 994 1439 701 
Q 1688 409 2113 409 
Q 2538 409 2786 701 
Q 3034 994 3034 1497 
Q 3034 2003 2786 2293 
Q 2538 2584 2113 2584 
z
M 3366 4563 
L 3366 3988 
Q 3128 4100 2886 4159 
Q 2644 4219 2406 4219 
Q 1781 4219 1451 3797 
Q 1122 3375 1075 2522 
Q 1259 2794 1537 2939 
Q 1816 3084 2150 3084 
Q 2853 3084 3261 2657 
Q 3669 2231 3669 1497 
Q 3669 778 3244 343 
Q 2819 -91 2113 -91 
Q 1303 -91 875 529 
Q 447 1150 447 2328 
Q 447 3434 972 4092 
Q 1497 4750 2381 4750 
Q 2619 4750 2861 4703 
Q 3103 4656 3366 4563 
z
" transform="scale(0.015625)"/>
      </defs>
      <use xlink:href="#DejaVuSans-31"/>
      <use xlink:href="#DejaVuSans-36" x="63.623047"/>
     </g>
    </g>
   </g>
   <g id="text_2">
    <g id="patch_4">
     <path d="M 367.146515 249.93409 
L 374.0408 260.629625 
Q 375.666171 263.151166 378.187712 261.525795 
L 386.322307 256.282278 
Q 388.843848 254.656907 387.218476 252.135366 
L 380.324192 241.439831 
Q 378.698821 238.91829 376.17728 240.543662 
L 368.042685 245.787178 
Q 365.521144 247.41255 367.146515 249.93409 
z
" clip-path="url(#p1307434d3e)" style="fill: #ffffff; stroke: #ffffff; stroke-linejoin: miter"/>
    </g>
    <g clip-path="url(#p1307434d3e)">
     <!-- 10 -->
     <g transform="translate(371.416062 247.181964) rotate(-302.805609) scale(0.1 -0.1)">
      <defs>
       <path id="DejaVuSans-30" d="M 2034 4250 
Q 1547 4250 1301 3770 
Q 1056 3291 1056 2328 
Q 1056 1369 1301 889 
Q 1547 409 2034 409 
Q 2525 409 2770 889 
Q 3016 1369 3016 2328 
Q 3016 3291 2770 3770 
Q 2525 4250 2034 4250 
z
M 2034 4750 
Q 2819 4750 3233 4129 
Q 3647 3509 3647 2328 
Q 3647 1150 3233 529 
Q 2819 -91 2034 -91 
Q 1250 -91 836 529 
Q 422 1150 422 2328 
Q 422 3509 836 4129 
Q 1250 4750 2034 4750 
z
" transform="scale(0.015625)"/>
      </defs>
      <use xlink:href="#DejaVuSans-31"/>
      <use xlink:href="#DejaVuSans-30" x="63.623047"/>
     </g>
    </g>
   </g>
   <g id="text_3">
    <g id="patch_5">
     <path d="M 309.922879 143.264762 
L 317.986318 153.108876 
Q 319.887325 155.429689 322.208138 153.528682 
L 329.695176 147.395954 
Q 332.015989 145.494947 330.114982 143.174134 
L 322.051544 133.33002 
Q 320.150537 131.009207 317.829724 132.910214 
L 310.342685 139.042942 
Q 308.021872 140.943949 309.922879 143.264762 
z
" clip-path="url(#p1307434d3e)" style="fill: #ffffff; stroke: #ffffff; stroke-linejoin: miter"/>
    </g>
    <g clip-path="url(#p1307434d3e)">
     <!-- 14 -->
     <g transform="translate(313.852547 140.045921) rotate(-309.321338) scale(0.1 -0.1)">
      <defs>
       <path id="DejaVuSans-34" d="M 2419 4116 
L 825 1625 
L 2419 1625 
L 2419 4116 
z
M 2253 4666 
L 3047 4666 
L 3047 1625 
L 3713 1625 
L 3713 1100 
L 3047 1100 
L 3047 0 
L 2419 0 
L 2419 1100 
L 313 1100 
L 313 1709 
L 2253 4666 
z
" transform="scale(0.015625)"/>
      </defs>
      <use xlink:href="#DejaVuSans-31"/>
      <use xlink:href="#DejaVuSans-34" x="63.623047"/>
     </g>
    </g>
   </g>
   <g id="text_4">
    <g id="patch_6">
     <path d="M 231.344085 104.090105 
L 241.710038 96.709546 
Q 244.153878 94.969532 242.413864 92.525693 
L 236.800507 84.641764 
Q 235.060493 82.197925 232.616654 83.937939 
L 222.250701 91.318497 
Q 219.806861 93.058511 221.546875 95.502351 
L 227.160232 103.386279 
Q 228.900246 105.830119 231.344085 104.090105 
z
" clip-path="url(#p1307434d3e)" style="fill: #ffffff; stroke: #ffffff; stroke-linejoin: miter"/>
    </g>
    <g clip-path="url(#p1307434d3e)">
     <!-- 11 -->
     <g transform="translate(228.397843 99.952124) rotate(-35.450866) scale(0.1 -0.1)">
      <use xlink:href="#DejaVuSans-31"/>
      <use xlink:href="#DejaVuSans-31" x="63.623047"/>
     </g>
    </g>
   </g>
   <g id="text_5">
    <g id="patch_7">
     <path d="M 210.377233 246.948323 
L 212.448435 240.932383 
Q 213.425033 238.095791 210.588441 237.119193 
L 201.437476 233.968646 
Q 198.600883 232.992048 197.624285 235.82864 
L 195.553083 241.84458 
Q 194.576485 244.681172 197.413077 245.65777 
L 206.564042 248.808317 
Q 209.400634 249.784915 210.377233 246.948323 
z
" clip-path="url(#p1307434d3e)" style="fill: #ffffff; stroke: #ffffff; stroke-linejoin: miter"/>
    </g>
    <g clip-path="url(#p1307434d3e)">
     <!-- 9 -->
     <g transform="translate(205.574232 245.294718) rotate(-71.002146) scale(0.1 -0.1)">
      <defs>
       <path id="DejaVuSans-39" d="M 703 97 
L 703 672 
Q 941 559 1184 500 
Q 1428 441 1663 441 
Q 2288 441 2617 861 
Q 2947 1281 2994 2138 
Q 2813 1869 2534 1725 
Q 2256 1581 1919 1581 
Q 1219 1581 811 2004 
Q 403 2428 403 3163 
Q 403 3881 828 4315 
Q 1253 4750 1959 4750 
Q 2769 4750 3195 4129 
Q 3622 3509 3622 2328 
Q 3622 1225 3098 567 
Q 2575 -91 1691 -91 
Q 1453 -91 1209 -44 
Q 966 3 703 97 
z
M 1959 2075 
Q 2384 2075 2632 2365 
Q 2881 2656 2881 3163 
Q 2881 3666 2632 3958 
Q 2384 4250 1959 4250 
Q 1534 4250 1286 3958 
Q 1038 3666 1038 3163 
Q 1038 2656 1286 2365 
Q 1534 2075 1959 2075 
z
" transform="scale(0.015625)"/>
      </defs>
      <use xlink:href="#DejaVuSans-39"/>
     </g>
    </g>
   </g>
   <g id="text_6">
    <g id="patch_8">
     <path d="M 234.58857 228.348748 
L 237.421818 215.943171 
Q 238.089774 213.018477 235.16508 212.350521 
L 225.729896 210.195667 
Q 222.805202 209.52771 222.137246 212.452404 
L 219.303998 224.857981 
Q 218.636042 227.782675 221.560736 228.450631 
L 230.99592 230.605486 
Q 233.920614 231.273442 234.58857 228.348748 
z
" clip-path="url(#p1307434d3e)" style="fill: #ffffff; stroke: #ffffff; stroke-linejoin: miter"/>
    </g>
    <g clip-path="url(#p1307434d3e)">
     <!-- 14 -->
     <g transform="translate(229.636393 227.217745) rotate(-77.135151) scale(0.1 -0.1)">
      <use xlink:href="#DejaVuSans-31"/>
      <use xlink:href="#DejaVuSans-34" x="63.623047"/>
     </g>
    </g>
   </g>
   <g id="text_7">
    <g id="patch_9">
     <path d="M 179.186694 207.22105 
L 180.950518 213.334178 
Q 181.782183 216.216596 184.664601 215.38493 
L 193.963401 212.701943 
Q 196.845819 211.870278 196.014153 208.98786 
L 194.25033 202.874732 
Q 193.418664 199.992314 190.536247 200.823979 
L 181.237446 203.506967 
Q 178.355029 204.338632 179.186694 207.22105 
z
" clip-path="url(#p1307434d3e)" style="fill: #ffffff; stroke: #ffffff; stroke-linejoin: miter"/>
    </g>
    <g clip-path="url(#p1307434d3e)">
     <!-- 7 -->
     <g transform="translate(184.067288 205.81285) rotate(-286.094462) scale(0.1 -0.1)">
      <defs>
       <path id="DejaVuSans-37" d="M 525 4666 
L 3525 4666 
L 3525 4397 
L 1831 0 
L 1172 0 
L 2766 4134 
L 525 4134 
L 525 4666 
z
" transform="scale(0.015625)"/>
      </defs>
      <use xlink:href="#DejaVuSans-37"/>
     </g>
    </g>
   </g>
   <g id="text_8">
    <g id="patch_10">
     <path d="M 251.741217 340.127468 
L 263.390081 335.005985 
Q 266.136375 333.798562 264.928953 331.052268 
L 261.033758 322.192609 
Q 259.826335 319.446315 257.080041 320.653737 
L 245.431177 325.775221 
Q 242.684883 326.982643 243.892306 329.728937 
L 247.787501 338.588596 
Q 248.994923 341.33489 251.741217 340.127468 
z
" clip-path="url(#p1307434d3e)" style="fill: #ffffff; stroke: #ffffff; stroke-linejoin: miter"/>
    </g>
    <g clip-path="url(#p1307434d3e)">
     <!-- 17 -->
     <g transform="translate(249.696774 335.477363) rotate(-23.73294) scale(0.1 -0.1)">
      <use xlink:href="#DejaVuSans-31"/>
      <use xlink:href="#DejaVuSans-37" x="63.623047"/>
     </g>
    </g>
   </g>
   <g id="text_9">
    <g id="patch_11">
     <path d="M 163.388999 402.956909 
L 173.340416 395.026277 
Q 175.686527 393.15658 173.81683 390.81047 
L 167.785109 383.241821 
Q 165.915412 380.895711 163.569302 382.765408 
L 153.617884 390.696039 
Q 151.271774 392.565736 153.141471 394.911846 
L 159.173192 402.480496 
Q 161.042889 404.826606 163.388999 402.956909 
z
" clip-path="url(#p1307434d3e)" style="fill: #ffffff; stroke: #ffffff; stroke-linejoin: miter"/>
    </g>
    <g clip-path="url(#p1307434d3e)">
     <!-- 17 -->
     <g transform="translate(160.223173 398.984407) rotate(-38.552563) scale(0.1 -0.1)">
      <use xlink:href="#DejaVuSans-31"/>
      <use xlink:href="#DejaVuSans-37" x="63.623047"/>
     </g>
    </g>
   </g>
   <g id="text_10">
    <g id="patch_12">
     <path d="M 289.384653 224.976358 
L 295.742891 224.743521 
Q 298.740882 224.633736 298.631096 221.635745 
L 298.276923 211.964103 
Q 298.167138 208.966112 295.169147 209.075898 
L 288.810909 209.308735 
Q 285.812918 209.418521 285.922704 212.416511 
L 286.276877 222.088153 
Q 286.386662 225.086144 289.384653 224.976358 
z
" clip-path="url(#p1307434d3e)" style="fill: #ffffff; stroke: #ffffff; stroke-linejoin: miter"/>
    </g>
    <g clip-path="url(#p1307434d3e)">
     <!-- 5 -->
     <g transform="translate(289.198761 219.900073) rotate(-2.097218) scale(0.1 -0.1)">
      <defs>
       <path id="DejaVuSans-35" d="M 691 4666 
L 3169 4666 
L 3169 4134 
L 1269 4134 
L 1269 2991 
Q 1406 3038 1543 3061 
Q 1681 3084 1819 3084 
Q 2600 3084 3056 2656 
Q 3513 2228 3513 1497 
Q 3513 744 3044 326 
Q 2575 -91 1722 -91 
Q 1428 -91 1123 -41 
Q 819 9 494 109 
L 494 744 
Q 775 591 1075 516 
Q 1375 441 1709 441 
Q 2250 441 2565 725 
Q 2881 1009 2881 1497 
Q 2881 1984 2565 2268 
Q 2250 2553 1709 2553 
Q 1456 2553 1204 2497 
Q 953 2441 691 2322 
L 691 4666 
z
" transform="scale(0.015625)"/>
      </defs>
      <use xlink:href="#DejaVuSans-35"/>
     </g>
    </g>
   </g>
   <g id="text_11">
    <g id="patch_13">
     <path d="M 236.376227 271.405262 
L 240.268678 276.438177 
Q 242.104019 278.81126 244.477102 276.97592 
L 252.132769 271.055035 
Q 254.505852 269.219694 252.670512 266.846611 
L 248.778061 261.813696 
Q 246.94272 259.440613 244.569637 261.275953 
L 236.91397 267.196838 
Q 234.540887 269.032178 236.376227 271.405262 
z
" clip-path="url(#p1307434d3e)" style="fill: #ffffff; stroke: #ffffff; stroke-linejoin: miter"/>
    </g>
    <g clip-path="url(#p1307434d3e)">
     <!-- 2 -->
     <g transform="translate(240.394401 268.29761) rotate(-307.718331) scale(0.1 -0.1)">
      <defs>
       <path id="DejaVuSans-32" d="M 1228 531 
L 3431 531 
L 3431 0 
L 469 0 
L 469 531 
Q 828 903 1448 1529 
Q 2069 2156 2228 2338 
Q 2531 2678 2651 2914 
Q 2772 3150 2772 3378 
Q 2772 3750 2511 3984 
Q 2250 4219 1831 4219 
Q 1534 4219 1204 4116 
Q 875 4013 500 3803 
L 500 4441 
Q 881 4594 1212 4672 
Q 1544 4750 1819 4750 
Q 2544 4750 2975 4387 
Q 3406 4025 3406 3419 
Q 3406 3131 3298 2873 
Q 3191 2616 2906 2266 
Q 2828 2175 2409 1742 
Q 1991 1309 1228 531 
z
" transform="scale(0.015625)"/>
      </defs>
      <use xlink:href="#DejaVuSans-32"/>
     </g>
    </g>
   </g>
   <g id="text_12">
    <g id="patch_14">
     <path d="M 224.360614 180.984859 
L 225.879903 174.806415 
Q 226.596267 171.8932 223.683052 171.176836 
L 214.284899 168.865815 
Q 211.371684 168.14945 210.65532 171.062665 
L 209.13603 177.241109 
Q 208.419666 180.154324 211.332881 180.870689 
L 220.731034 183.18171 
Q 223.644249 183.898074 224.360614 180.984859 
z
" clip-path="url(#p1307434d3e)" style="fill: #ffffff; stroke: #ffffff; stroke-linejoin: miter"/>
    </g>
    <g clip-path="url(#p1307434d3e)">
     <!-- 5 -->
     <g transform="translate(219.427873 179.77189) rotate(-76.184975) scale(0.1 -0.1)">
      <use xlink:href="#DejaVuSans-35"/>
     </g>
    </g>
   </g>
   <g id="text_13">
    <g id="patch_15">
     <path d="M 181.791241 323.643876 
L 185.667279 311.523564 
Q 186.58108 308.666124 183.723639 307.752323 
L 174.505416 304.804363 
Q 171.647976 303.890562 170.734175 306.748003 
L 166.858136 318.868315 
Q 165.944335 321.725755 168.801776 322.639556 
L 178.019999 325.587516 
Q 180.87744 326.501317 181.791241 323.643876 
z
" clip-path="url(#p1307434d3e)" style="fill: #ffffff; stroke: #ffffff; stroke-linejoin: miter"/>
    </g>
    <g clip-path="url(#p1307434d3e)">
     <!-- 12 -->
     <g transform="translate(176.952939 322.096602) rotate(-72.265882) scale(0.1 -0.1)">
      <use xlink:href="#DejaVuSans-31"/>
      <use xlink:href="#DejaVuSans-32" x="63.623047"/>
     </g>
    </g>
   </g>
   <g id="text_14">
    <g id="patch_16">
     <path d="M 112.385235 272.896698 
L 120.077742 283.033313 
Q 121.891299 285.423085 124.281071 283.609527 
L 131.990574 277.758915 
Q 134.380346 275.945357 132.566788 273.555585 
L 124.874281 263.41897 
Q 123.060723 261.029199 120.670951 262.842757 
L 112.961448 268.693369 
Q 110.571677 270.506927 112.385235 272.896698 
z
" clip-path="url(#p1307434d3e)" style="fill: #ffffff; stroke: #ffffff; stroke-linejoin: miter"/>
    </g>
    <g clip-path="url(#p1307434d3e)">
     <!-- 12 -->
     <g transform="translate(116.431666 269.82593) rotate(-307.194254) scale(0.1 -0.1)">
      <use xlink:href="#DejaVuSans-31"/>
      <use xlink:href="#DejaVuSans-32" x="63.623047"/>
     </g>
    </g>
   </g>
   <g id="text_15">
    <g id="patch_17">
     <path d="M 205.866282 248.450763 
L 206.230398 235.730973 
Q 206.31624 232.732202 203.317469 232.646359 
L 193.643307 232.369427 
Q 190.644535 232.283584 190.558692 235.282356 
L 190.194576 248.002145 
Q 190.108734 251.000917 193.107505 251.08676 
L 202.781667 251.363692 
Q 205.780439 251.449534 205.866282 248.450763 
z
" clip-path="url(#p1307434d3e)" style="fill: #ffffff; stroke: #ffffff; stroke-linejoin: miter"/>
    </g>
    <g clip-path="url(#p1307434d3e)">
     <!-- 20 -->
     <g transform="translate(200.788674 248.305412) rotate(-88.360301) scale(0.1 -0.1)">
      <use xlink:href="#DejaVuSans-32"/>
      <use xlink:href="#DejaVuSans-30" x="63.623047"/>
     </g>
    </g>
   </g>
   <g id="text_16">
    <g id="patch_18">
     <path d="M 288.867588 299.118783 
L 293.734335 295.020469 
Q 296.029069 293.088062 294.096661 290.793328 
L 287.862635 283.390422 
Q 285.930228 281.095688 283.635494 283.028096 
L 278.768747 287.126409 
Q 276.474013 289.058817 278.40642 291.35355 
L 284.640447 298.756456 
Q 286.572854 301.05119 288.867588 299.118783 
z
" clip-path="url(#p1307434d3e)" style="fill: #ffffff; stroke: #ffffff; stroke-linejoin: miter"/>
    </g>
    <g clip-path="url(#p1307434d3e)">
     <!-- 5 -->
     <g transform="translate(285.595579 295.233273) rotate(-40.100908) scale(0.1 -0.1)">
      <use xlink:href="#DejaVuSans-35"/>
     </g>
    </g>
   </g>
   <g id="text_17">
    <g id="patch_19">
     <path d="M 107.766642 397.858221 
L 113.942231 396.32737 
Q 116.8541 395.605555 116.132285 392.693686 
L 113.803678 383.299874 
Q 113.081863 380.388005 110.169993 381.10982 
L 103.994404 382.640671 
Q 101.082535 383.362486 101.80435 386.274355 
L 104.132957 395.668167 
Q 104.854773 398.580036 107.766642 397.858221 
z
" clip-path="url(#p1307434d3e)" style="fill: #ffffff; stroke: #ffffff; stroke-linejoin: miter"/>
    </g>
    <g clip-path="url(#p1307434d3e)">
     <!-- 8 -->
     <g transform="translate(106.544443 392.927759) rotate(-13.92226) scale(0.1 -0.1)">
      <defs>
       <path id="DejaVuSans-38" d="M 2034 2216 
Q 1584 2216 1326 1975 
Q 1069 1734 1069 1313 
Q 1069 891 1326 650 
Q 1584 409 2034 409 
Q 2484 409 2743 651 
Q 3003 894 3003 1313 
Q 3003 1734 2745 1975 
Q 2488 2216 2034 2216 
z
M 1403 2484 
Q 997 2584 770 2862 
Q 544 3141 544 3541 
Q 544 4100 942 4425 
Q 1341 4750 2034 4750 
Q 2731 4750 3128 4425 
Q 3525 4100 3525 3541 
Q 3525 3141 3298 2862 
Q 3072 2584 2669 2484 
Q 3125 2378 3379 2068 
Q 3634 1759 3634 1313 
Q 3634 634 3220 271 
Q 2806 -91 2034 -91 
Q 1263 -91 848 271 
Q 434 634 434 1313 
Q 434 1759 690 2068 
Q 947 2378 1403 2484 
z
M 1172 3481 
Q 1172 3119 1398 2916 
Q 1625 2713 2034 2713 
Q 2441 2713 2670 2916 
Q 2900 3119 2900 3481 
Q 2900 3844 2670 4047 
Q 2441 4250 2034 4250 
Q 1625 4250 1398 4047 
Q 1172 3844 1172 3481 
z
" transform="scale(0.015625)"/>
      </defs>
      <use xlink:href="#DejaVuSans-38"/>
     </g>
    </g>
   </g>
   <g id="text_18">
    <g id="patch_20">
     <path d="M 237.150687 72.87239 
L 243.512776 72.944687 
Q 246.512582 72.978775 246.546671 69.978969 
L 246.656642 60.301469 
Q 246.690731 57.301662 243.690925 57.267574 
L 237.328836 57.195277 
Q 234.329029 57.161189 234.294941 60.160995 
L 234.184969 69.838495 
Q 234.15088 72.838301 237.150687 72.87239 
z
" clip-path="url(#p1307434d3e)" style="fill: #ffffff; stroke: #ffffff; stroke-linejoin: miter"/>
    </g>
    <g clip-path="url(#p1307434d3e)">
     <!-- 4 -->
     <g transform="translate(237.208407 67.793031) rotate(-359.34894) scale(0.1 -0.1)">
      <use xlink:href="#DejaVuSans-34"/>
     </g>
    </g>
   </g>
   <g id="text_19">
    <g id="patch_21">
     <path d="M 153.742917 103.211363 
L 159.429686 106.064795 
Q 162.11107 107.410224 163.456499 104.72884 
L 167.79691 96.078584 
Q 169.14234 93.3972 166.460956 92.05177 
L 160.774187 89.198339 
Q 158.092803 87.85291 156.747374 90.534293 
L 152.406963 99.18455 
Q 151.061533 101.865934 153.742917 103.211363 
z
" clip-path="url(#p1307434d3e)" style="fill: #ffffff; stroke: #ffffff; stroke-linejoin: miter"/>
    </g>
    <g clip-path="url(#p1307434d3e)">
     <!-- 1 -->
     <g transform="translate(156.021038 98.671166) rotate(-333.354023) scale(0.1 -0.1)">
      <use xlink:href="#DejaVuSans-31"/>
     </g>
    </g>
   </g>
   <g id="text_20">
    <g id="patch_22">
     <path d="M 308.678674 107.780506 
L 314.575052 105.390082 
Q 317.35527 104.262967 316.228155 101.482749 
L 312.592034 92.51365 
Q 311.464918 89.733433 308.684701 90.860548 
L 302.788322 93.250972 
Q 300.008104 94.378087 301.135219 97.158305 
L 304.77134 106.127403 
Q 305.898456 108.907621 308.678674 107.780506 
z
" clip-path="url(#p1307434d3e)" style="fill: #ffffff; stroke: #ffffff; stroke-linejoin: miter"/>
    </g>
    <g clip-path="url(#p1307434d3e)">
     <!-- 9 -->
     <g transform="translate(306.770209 103.07296) rotate(-22.0679) scale(0.1 -0.1)">
      <use xlink:href="#DejaVuSans-39"/>
     </g>
    </g>
   </g>
   <g id="text_21">
    <g id="patch_23">
     <path d="M 216.086752 131.910295 
L 228.174154 127.932817 
Q 231.023837 126.995101 230.086121 124.145418 
L 227.06101 114.952225 
Q 226.123294 112.102543 223.273612 113.040259 
L 211.18621 117.017737 
Q 208.336527 117.955453 209.274243 120.805135 
L 212.299354 129.998329 
Q 213.23707 132.848011 216.086752 131.910295 
z
" clip-path="url(#p1307434d3e)" style="fill: #ffffff; stroke: #ffffff; stroke-linejoin: miter"/>
    </g>
    <g clip-path="url(#p1307434d3e)">
     <!-- 14 -->
     <g transform="translate(214.498984 127.08513) rotate(-18.214299) scale(0.1 -0.1)">
      <use xlink:href="#DejaVuSans-31"/>
      <use xlink:href="#DejaVuSans-34" x="63.623047"/>
     </g>
    </g>
   </g>
   <g id="text_22">
    <g id="patch_24">
     <path d="M 249.048934 262.189406 
L 252.920079 257.140086 
Q 254.745374 254.759267 252.364555 252.933972 
L 244.683933 247.045495 
Q 242.303114 245.220201 240.47782 247.60102 
L 236.606674 252.65034 
Q 234.781379 255.031159 237.162198 256.856454 
L 244.84282 262.744931 
Q 247.223639 264.570225 249.048934 262.189406 
z
" clip-path="url(#p1307434d3e)" style="fill: #ffffff; stroke: #ffffff; stroke-linejoin: miter"/>
    </g>
    <g clip-path="url(#p1307434d3e)">
     <!-- 7 -->
     <g transform="translate(245.017661 259.098764) rotate(-52.52382) scale(0.1 -0.1)">
      <use xlink:href="#DejaVuSans-37"/>
     </g>
    </g>
   </g>
   <g id="text_23">
    <g id="patch_25">
     <path d="M 135.177879 164.225538 
L 147.492933 161.021622 
Q 150.396285 160.266278 149.640942 157.362926 
L 147.204171 147.99659 
Q 146.448827 145.093237 143.545475 145.848581 
L 131.230421 149.052497 
Q 128.327069 149.807841 129.082412 152.711193 
L 131.519183 162.07753 
Q 132.274527 164.980882 135.177879 164.225538 
z
" clip-path="url(#p1307434d3e)" style="fill: #ffffff; stroke: #ffffff; stroke-linejoin: miter"/>
    </g>
    <g clip-path="url(#p1307434d3e)">
     <!-- 12 -->
     <g transform="translate(133.898909 159.309497) rotate(-14.582942) scale(0.1 -0.1)">
      <use xlink:href="#DejaVuSans-31"/>
      <use xlink:href="#DejaVuSans-32" x="63.623047"/>
     </g>
    </g>
   </g>
   <g id="text_24">
    <g id="patch_26">
     <path d="M 293.785247 176.699855 
L 304.942685 182.81845 
Q 307.573122 184.260948 309.01562 181.630511 
L 313.669178 173.144611 
Q 315.111676 170.514173 312.481238 169.071676 
L 301.323801 162.953081 
Q 298.693363 161.510583 297.250865 164.14102 
L 292.597307 172.62692 
Q 291.15481 175.257357 293.785247 176.699855 
z
" clip-path="url(#p1307434d3e)" style="fill: #ffffff; stroke: #ffffff; stroke-linejoin: miter"/>
    </g>
    <g clip-path="url(#p1307434d3e)">
     <!-- 20 -->
     <g transform="translate(296.227726 172.245922) rotate(-331.260205) scale(0.1 -0.1)">
      <use xlink:href="#DejaVuSans-32"/>
      <use xlink:href="#DejaVuSans-30" x="63.623047"/>
     </g>
    </g>
   </g>
   <g id="text_25">
    <g id="patch_27">
     <path d="M 128.398762 281.06588 
L 135.93693 270.813971 
Q 137.714101 268.397018 135.297148 266.619847 
L 127.499957 260.886618 
Q 125.083004 259.109446 123.305833 261.526399 
L 115.767664 271.778309 
Q 113.990493 274.195262 116.407446 275.972433 
L 124.204637 281.705662 
Q 126.62159 283.482833 128.398762 281.06588 
z
" clip-path="url(#p1307434d3e)" style="fill: #ffffff; stroke: #ffffff; stroke-linejoin: miter"/>
    </g>
    <g clip-path="url(#p1307434d3e)">
     <!-- 13 -->
     <g transform="translate(124.306306 278.056722) rotate(-53.673174) scale(0.1 -0.1)">
      <defs>
       <path id="DejaVuSans-33" d="M 2597 2516 
Q 3050 2419 3304 2112 
Q 3559 1806 3559 1356 
Q 3559 666 3084 287 
Q 2609 -91 1734 -91 
Q 1441 -91 1130 -33 
Q 819 25 488 141 
L 488 750 
Q 750 597 1062 519 
Q 1375 441 1716 441 
Q 2309 441 2620 675 
Q 2931 909 2931 1356 
Q 2931 1769 2642 2001 
Q 2353 2234 1838 2234 
L 1294 2234 
L 1294 2753 
L 1863 2753 
Q 2328 2753 2575 2939 
Q 2822 3125 2822 3475 
Q 2822 3834 2567 4026 
Q 2313 4219 1838 4219 
Q 1578 4219 1281 4162 
Q 984 4106 628 3988 
L 628 4550 
Q 988 4650 1302 4700 
Q 1616 4750 1894 4750 
Q 2613 4750 3031 4423 
Q 3450 4097 3450 3541 
Q 3450 3153 3228 2886 
Q 3006 2619 2597 2516 
z
" transform="scale(0.015625)"/>
      </defs>
      <use xlink:href="#DejaVuSans-31"/>
      <use xlink:href="#DejaVuSans-33" x="63.623047"/>
     </g>
    </g>
   </g>
   <g id="text_26">
    <g id="patch_28">
     <path d="M 181.362726 107.136972 
L 186.493477 110.899523 
Q 188.912692 112.673614 190.686783 110.254399 
L 196.410075 102.44991 
Q 198.184166 100.030696 195.764951 98.256605 
L 190.634199 94.494053 
Q 188.214984 92.719962 186.440893 95.139177 
L 180.717602 102.943666 
Q 178.943511 105.362881 181.362726 107.136972 
z
" clip-path="url(#p1307434d3e)" style="fill: #ffffff; stroke: #ffffff; stroke-linejoin: miter"/>
    </g>
    <g clip-path="url(#p1307434d3e)">
     <!-- 6 -->
     <g transform="translate(184.366668 103.040686) rotate(-323.746162) scale(0.1 -0.1)">
      <use xlink:href="#DejaVuSans-36"/>
     </g>
    </g>
   </g>
   <g id="text_27">
    <g id="patch_29">
     <path d="M 36.53484 384.718932 
L 39.030418 372.241043 
Q 39.618766 369.299301 36.677024 368.710952 
L 27.186842 366.812916 
Q 24.2451 366.224567 23.656752 369.166309 
L 21.161174 381.644198 
Q 20.572825 384.585941 23.514567 385.174289 
L 33.00475 387.072325 
Q 35.946492 387.660674 36.53484 384.718932 
z
" clip-path="url(#p1307434d3e)" style="fill: #ffffff; stroke: #ffffff; stroke-linejoin: miter"/>
    </g>
    <g clip-path="url(#p1307434d3e)">
     <!-- 15 -->
     <g transform="translate(31.553797 383.722723) rotate(-78.690068) scale(0.1 -0.1)">
      <use xlink:href="#DejaVuSans-31"/>
      <use xlink:href="#DejaVuSans-35" x="63.623047"/>
     </g>
    </g>
   </g>
   <g id="text_28">
    <g id="patch_30">
     <path d="M 50.896983 267.663757 
L 51.935322 254.981191 
Q 52.180117 251.991195 49.190121 251.7464 
L 39.54427 250.956681 
Q 36.554274 250.711886 36.309479 253.701882 
L 35.27114 266.384448 
Q 35.026345 269.374444 38.016341 269.619239 
L 47.662192 270.408958 
Q 50.652188 270.653753 50.896983 267.663757 
z
" clip-path="url(#p1307434d3e)" style="fill: #ffffff; stroke: #ffffff; stroke-linejoin: miter"/>
    </g>
    <g clip-path="url(#p1307434d3e)">
     <!-- 19 -->
     <g transform="translate(45.834235 267.249263) rotate(-85.319556) scale(0.1 -0.1)">
      <use xlink:href="#DejaVuSans-31"/>
      <use xlink:href="#DejaVuSans-39" x="63.623047"/>
     </g>
    </g>
   </g>
   <g id="text_29">
    <g id="patch_31">
     <path d="M 213.241346 374.216228 
L 223.788878 367.097576 
Q 226.275526 365.419308 224.597258 362.932661 
L 219.183097 354.910631 
Q 217.504829 352.423983 215.018181 354.102251 
L 204.47065 361.220903 
Q 201.984002 362.89917 203.662269 365.385818 
L 209.076431 373.407848 
Q 210.754699 375.894496 213.241346 374.216228 
z
" clip-path="url(#p1307434d3e)" style="fill: #ffffff; stroke: #ffffff; stroke-linejoin: miter"/>
    </g>
    <g clip-path="url(#p1307434d3e)">
     <!-- 12 -->
     <g transform="translate(210.399655 370.005763) rotate(-34.015873) scale(0.1 -0.1)">
      <use xlink:href="#DejaVuSans-31"/>
      <use xlink:href="#DejaVuSans-32" x="63.623047"/>
     </g>
    </g>
   </g>
   <g id="text_30">
    <g id="patch_32">
     <path d="M 156.879715 251.570194 
L 167.777294 258.14046 
Q 170.346468 259.689442 171.89545 257.120268 
L 176.892531 248.832006 
Q 178.441513 246.262832 175.872339 244.71385 
L 164.97476 238.143584 
Q 162.405586 236.594602 160.856604 239.163776 
L 155.859523 247.452038 
Q 154.310541 250.021212 156.879715 251.570194 
z
" clip-path="url(#p1307434d3e)" style="fill: #ffffff; stroke: #ffffff; stroke-linejoin: miter"/>
    </g>
    <g clip-path="url(#p1307434d3e)">
     <!-- 12 -->
     <g transform="translate(159.502497 247.219994) rotate(-328.913779) scale(0.1 -0.1)">
      <use xlink:href="#DejaVuSans-31"/>
      <use xlink:href="#DejaVuSans-32" x="63.623047"/>
     </g>
    </g>
   </g>
   <g id="text_31">
    <g id="patch_33">
     <path d="M 66.555242 305.819043 
L 68.923685 318.321687 
Q 69.48206 321.269265 72.429638 320.710889 
L 81.938648 318.909547 
Q 84.886226 318.351171 84.327851 315.403593 
L 81.959408 302.900949 
Q 81.401033 299.953371 78.453455 300.511747 
L 68.944445 302.313089 
Q 65.996867 302.871465 66.555242 305.819043 
z
" clip-path="url(#p1307434d3e)" style="fill: #ffffff; stroke: #ffffff; stroke-linejoin: miter"/>
    </g>
    <g clip-path="url(#p1307434d3e)">
     <!-- 12 -->
     <g transform="translate(71.546168 304.873585) rotate(-280.726738) scale(0.1 -0.1)">
      <use xlink:href="#DejaVuSans-31"/>
      <use xlink:href="#DejaVuSans-32" x="63.623047"/>
     </g>
    </g>
   </g>
   <g id="text_32">
    <g id="patch_34">
     <path d="M 273.469147 293.426166 
L 278.766777 296.949874 
Q 281.264677 298.611348 282.926151 296.113448 
L 288.286134 288.055117 
Q 289.947607 285.557217 287.449707 283.895743 
L 282.152077 280.372035 
Q 279.654177 278.710561 277.992703 281.208462 
L 272.63272 289.266792 
Q 270.971247 291.764692 273.469147 293.426166 
z
" clip-path="url(#p1307434d3e)" style="fill: #ffffff; stroke: #ffffff; stroke-linejoin: miter"/>
    </g>
    <g clip-path="url(#p1307434d3e)">
     <!-- 1 -->
     <g transform="translate(276.282402 289.196648) rotate(-326.370212) scale(0.1 -0.1)">
      <use xlink:href="#DejaVuSans-31"/>
     </g>
    </g>
   </g>
   <g id="text_33">
    <g id="patch_35">
     <path d="M 167.940074 98.671168 
L 172.930405 102.618066 
Q 175.28341 104.479079 177.144422 102.126074 
L 183.148127 94.535183 
Q 185.00914 92.182178 182.656135 90.321165 
L 177.665805 86.374267 
Q 175.3128 84.513254 173.451787 86.866259 
L 167.448082 94.45715 
Q 165.587069 96.810155 167.940074 98.671168 
z
" clip-path="url(#p1307434d3e)" style="fill: #ffffff; stroke: #ffffff; stroke-linejoin: miter"/>
    </g>
    <g clip-path="url(#p1307434d3e)">
     <!-- 1 -->
     <g transform="translate(171.091195 94.686992) rotate(-321.659207) scale(0.1 -0.1)">
      <use xlink:href="#DejaVuSans-31"/>
     </g>
    </g>
   </g>
   <g id="text_34">
    <g id="patch_36">
     <path d="M 207.175568 196.769584 
L 210.226122 202.353089 
Q 211.664497 204.985783 214.297191 203.547408 
L 222.790371 198.90715 
Q 225.423065 197.468775 223.98469 194.836081 
L 220.934136 189.252576 
Q 219.495761 186.619882 216.863067 188.058257 
L 208.369887 192.698515 
Q 205.737193 194.13689 207.175568 196.769584 
z
" clip-path="url(#p1307434d3e)" style="fill: #ffffff; stroke: #ffffff; stroke-linejoin: miter"/>
    </g>
    <g clip-path="url(#p1307434d3e)">
     <!-- 7 -->
     <g transform="translate(211.633322 194.334086) rotate(-298.650034) scale(0.1 -0.1)">
      <use xlink:href="#DejaVuSans-37"/>
     </g>
    </g>
   </g>
   <g id="text_35">
    <g id="patch_37">
     <path d="M 131.595786 265.595645 
L 133.243036 252.977714 
Q 133.631386 250.002956 130.656628 249.614607 
L 121.059935 248.361775 
Q 118.085177 247.973425 117.696827 250.948183 
L 116.049578 263.566114 
Q 115.661228 266.540872 118.635986 266.929222 
L 128.232679 268.182054 
Q 131.207437 268.570403 131.595786 265.595645 
z
" clip-path="url(#p1307434d3e)" style="fill: #ffffff; stroke: #ffffff; stroke-linejoin: miter"/>
    </g>
    <g clip-path="url(#p1307434d3e)">
     <!-- 18 -->
     <g transform="translate(126.55884 264.938081) rotate(-82.562197) scale(0.1 -0.1)">
      <use xlink:href="#DejaVuSans-31"/>
      <use xlink:href="#DejaVuSans-38" x="63.623047"/>
     </g>
    </g>
   </g>
   <g id="text_36">
    <g id="patch_38">
     <path d="M 254.296737 427.821656 
L 260.654122 428.076737 
Q 263.65171 428.19701 263.771984 425.199422 
L 264.159991 415.529078 
Q 264.280265 412.53149 261.282677 412.411216 
L 254.925292 412.156136 
Q 251.927704 412.035863 251.807431 415.033451 
L 251.419423 424.703795 
Q 251.299149 427.701383 254.296737 427.821656 
z
" clip-path="url(#p1307434d3e)" style="fill: #ffffff; stroke: #ffffff; stroke-linejoin: miter"/>
    </g>
    <g clip-path="url(#p1307434d3e)">
     <!-- 1 -->
     <g transform="translate(254.500388 422.746053) rotate(-357.702328) scale(0.1 -0.1)">
      <use xlink:href="#DejaVuSans-31"/>
     </g>
    </g>
   </g>
   <g id="text_37">
    <g id="patch_39">
     <path d="M 198.867337 322.241189 
L 209.993129 316.065239 
Q 212.616106 314.609219 211.160086 311.986242 
L 206.462906 303.52441 
Q 205.006886 300.901434 202.38391 302.357453 
L 191.258117 308.533403 
Q 188.63514 309.989423 190.09116 312.6124 
L 194.78834 321.074232 
Q 196.24436 323.697209 198.867337 322.241189 
z
" clip-path="url(#p1307434d3e)" style="fill: #ffffff; stroke: #ffffff; stroke-linejoin: miter"/>
    </g>
    <g clip-path="url(#p1307434d3e)">
     <!-- 19 -->
     <g transform="translate(196.401962 317.799888) rotate(-29.034744) scale(0.1 -0.1)">
      <use xlink:href="#DejaVuSans-31"/>
      <use xlink:href="#DejaVuSans-39" x="63.623047"/>
     </g>
    </g>
   </g>
   <g id="text_38">
    <g id="patch_40">
     <path d="M 116.00248 272.596521 
L 122.586035 261.706965 
Q 124.138151 259.139683 121.570868 257.587568 
L 113.288708 252.58038 
Q 110.721426 251.028265 109.169311 253.595547 
L 102.585756 264.485103 
Q 101.033641 267.052385 103.600923 268.6045 
L 111.883083 273.611688 
Q 114.450365 275.163804 116.00248 272.596521 
z
" clip-path="url(#p1307434d3e)" style="fill: #ffffff; stroke: #ffffff; stroke-linejoin: miter"/>
    </g>
    <g clip-path="url(#p1307434d3e)">
     <!-- 12 -->
     <g transform="translate(111.655483 269.968435) rotate(-58.843884) scale(0.1 -0.1)">
      <use xlink:href="#DejaVuSans-31"/>
      <use xlink:href="#DejaVuSans-32" x="63.623047"/>
     </g>
    </g>
   </g>
   <g id="matplotlib.axis_1">
    <g id="xtick_1">
     <g id="line2d_1">
      <path d="M 10.8 493.2 
L 10.8 10.8 
" clip-path="url(#p1307434d3e)" style="fill: none; stroke: #b0b0b0; stroke-opacity: 0.3; stroke-width: 0.8; stroke-linecap: square"/>
     </g>
    </g>
    <g id="xtick_2">
     <g id="line2d_2">
      <path d="M 59.04 493.2 
L 59.04 10.8 
" clip-path="url(#p1307434d3e)" style="fill: none; stroke: #b0b0b0; stroke-opacity: 0.3; stroke-width: 0.8; stroke-linecap: square"/>
     </g>
    </g>
    <g id="xtick_3">
     <g id="line2d_3">
      <path d="M 107.28 493.2 
L 107.28 10.8 
" clip-path="url(#p1307434d3e)" style="fill: none; stroke: #b0b0b0; stroke-opacity: 0.3; stroke-width: 0.8; stroke-linecap: square"/>
     </g>
    </g>
    <g id="xtick_4">
     <g id="line2d_4">
      <path d="M 155.52 493.2 
L 155.52 10.8 
" clip-path="url(#p1307434d3e)" style="fill: none; stroke: #b0b0b0; stroke-opacity: 0.3; stroke-width: 0.8; stroke-linecap: square"/>
     </g>
    </g>
    <g id="xtick_5">
     <g id="line2d_5">
      <path d="M 203.76 493.2 
L 203.76 10.8 
" clip-path="url(#p1307434d3e)" style="fill: none; stroke: #b0b0b0; stroke-opacity: 0.3; stroke-width: 0.8; stroke-linecap: square"/>
     </g>
    </g>
    <g id="xtick_6">
     <g id="line2d_6">
      <path d="M 252 493.2 
L 252 10.8 
" clip-path="url(#p1307434d3e)" style="fill: none; stroke: #b0b0b0; stroke-opacity: 0.3; stroke-width: 0.8; stroke-linecap: square"/>
     </g>
    </g>
    <g id="xtick_7">
     <g id="line2d_7">
      <path d="M 300.24 493.2 
L 300.24 10.8 
" clip-path="url(#p1307434d3e)" style="fill: none; stroke: #b0b0b0; stroke-opacity: 0.3; stroke-width: 0.8; stroke-linecap: square"/>
     </g>
    </g>
    <g id="xtick_8">
     <g id="line2d_8">
      <path d="M 348.48 493.2 
L 348.48 10.8 
" clip-path="url(#p1307434d3e)" style="fill: none; stroke: #b0b0b0; stroke-opacity: 0.3; stroke-width: 0.8; stroke-linecap: square"/>
     </g>
    </g>
    <g id="xtick_9">
     <g id="line2d_9">
      <path d="M 396.72 493.2 
L 396.72 10.8 
" clip-path="url(#p1307434d3e)" style="fill: none; stroke: #b0b0b0; stroke-opacity: 0.3; stroke-width: 0.8; stroke-linecap: square"/>
     </g>
    </g>
    <g id="xtick_10">
     <g id="line2d_10">
      <path d="M 444.96 493.2 
L 444.96 10.8 
" clip-path="url(#p1307434d3e)" style="fill: none; stroke: #b0b0b0; stroke-opacity: 0.3; stroke-width: 0.8; stroke-linecap: square"/>
     </g>
    </g>
    <g id="xtick_11">
     <g id="line2d_11">
      <path d="M 493.2 493.2 
L 493.2 10.8 
" clip-path="url(#p1307434d3e)" style="fill: none; stroke: #b0b0b0; stroke-opacity: 0.3; stroke-width: 0.8; stroke-linecap: square"/>
     </g>
    </g>
   </g>
   <g id="matplotlib.axis_2">
    <g id="ytick_1">
     <g id="line2d_12">
      <path d="M 10.8 493.2 
L 493.2 493.2 
" clip-path="url(#p1307434d3e)" style="fill: none; stroke: #b0b0b0; stroke-opacity: 0.3; stroke-width: 0.8; stroke-linecap: square"/>
     </g>
    </g>
    <g id="ytick_2">
     <g id="line2d_13">
      <path d="M 10.8 444.96 
L 493.2 444.96 
" clip-path="url(#p1307434d3e)" style="fill: none; stroke: #b0b0b0; stroke-opacity: 0.3; stroke-width: 0.8; stroke-linecap: square"/>
     </g>
    </g>
    <g id="ytick_3">
     <g id="line2d_14">
      <path d="M 10.8 396.72 
L 493.2 396.72 
" clip-path="url(#p1307434d3e)" style="fill: none; stroke: #b0b0b0; stroke-opacity: 0.3; stroke-width: 0.8; stroke-linecap: square"/>
     </g>
    </g>
    <g id="ytick_4">
     <g id="line2d_15">
      <path d="M 10.8 348.48 
L 493.2 348.48 
" clip-path="url(#p1307434d3e)" style="fill: none; stroke: #b0b0b0; stroke-opacity: 0.3; stroke-width: 0.8; stroke-linecap: square"/>
     </g>
    </g>
    <g id="ytick_5">
     <g id="line2d_16">
      <path d="M 10.8 300.24 
L 493.2 300.24 
" clip-path="url(#p1307434d3e)" style="fill: none; stroke: #b0b0b0; stroke-opacity: 0.3; stroke-width: 0.8; stroke-linecap: square"/>
     </g>
    </g>
    <g id="ytick_6">
     <g id="line2d_17">
      <path d="M 10.8 252 
L 493.2 252 
" clip-path="url(#p1307434d3e)" style="fill: none; stroke: #b0b0b0; stroke-opacity: 0.3; stroke-width: 0.8; stroke-linecap: square"/>
     </g>
    </g>
    <g id="ytick_7">
     <g id="line2d_18">
      <path d="M 10.8 203.76 
L 493.2 203.76 
" clip-path="url(#p1307434d3e)" style="fill: none; stroke: #b0b0b0; stroke-opacity: 0.3; stroke-width: 0.8; stroke-linecap: square"/>
     </g>
    </g>
    <g id="ytick_8">
     <g id="line2d_19">
      <path d="M 10.8 155.52 
L 493.2 155.52 
" clip-path="url(#p1307434d3e)" style="fill: none; stroke: #b0b0b0; stroke-opacity: 0.3; stroke-width: 0.8; stroke-linecap: square"/>
     </g>
    </g>
    <g id="ytick_9">
     <g id="line2d_20">
      <path d="M 10.8 107.28 
L 493.2 107.28 
" clip-path="url(#p1307434d3e)" style="fill: none; stroke: #b0b0b0; stroke-opacity: 0.3; stroke-width: 0.8; stroke-linecap: square"/>
     </g>
    </g>
    <g id="ytick_10">
     <g id="line2d_21">
      <path d="M 10.8 59.04 
L 493.2 59.04 
" clip-path="url(#p1307434d3e)" style="fill: none; stroke: #b0b0b0; stroke-opacity: 0.3; stroke-width: 0.8; stroke-linecap: square"/>
     </g>
    </g>
    <g id="ytick_11">
     <g id="line2d_22">
      <path d="M 10.8 10.8 
L 493.2 10.8 
" clip-path="url(#p1307434d3e)" style="fill: none; stroke: #b0b0b0; stroke-opacity: 0.3; stroke-width: 0.8; stroke-linecap: square"/>
     </g>
    </g>
   </g>
   <g id="PathCollection_1">
    <defs>
     <path id="m899224d998" d="M 0 8.660254 
C 2.296726 8.660254 4.499694 7.747755 6.123724 6.123724 
C 7.747755 4.499694 8.660254 2.296726 8.660254 0 
C 8.660254 -2.296726 7.747755 -4.499694 6.123724 -6.123724 
C 4.499694 -7.747755 2.296726 -8.660254 0 -8.660254 
C -2.296726 -8.660254 -4.499694 -7.747755 -6.123724 -6.123724 
C -7.747755 -4.499694 -8.660254 -2.296726 -8.660254 0 
C -8.660254 2.296726 -7.747755 4.499694 -6.123724 6.123724 
C -4.499694 7.747755 -2.296726 8.660254 0 8.660254 
z
" style="stroke: #1f78b4"/>
    </defs>
    <g clip-path="url(#p1307434d3e)">
     <use xlink:href="#m899224d998" x="262.1304" y="72.5472" style="fill: #1f78b4; stroke: #1f78b4"/>
     <use xlink:href="#m899224d998" x="226.4328" y="342.6912" style="fill: #1f78b4; stroke: #1f78b4"/>
     <use xlink:href="#m899224d998" x="206.6544" y="220.1616" style="fill: #1f78b4; stroke: #1f78b4"/>
     <use xlink:href="#m899224d998" x="194.5944" y="368.2584" style="fill: #1f78b4; stroke: #1f78b4"/>
     <use xlink:href="#m899224d998" x="91.8432" y="63.3816" style="fill: #1f78b4; stroke: #1f78b4"/>
     <use xlink:href="#m899224d998" x="389.0016" y="66.7584" style="fill: #1f78b4; stroke: #1f78b4"/>
     <use xlink:href="#m899224d998" x="228.3624" y="131.8824" style="fill: #1f78b4; stroke: #1f78b4"/>
     <use xlink:href="#m899224d998" x="36.8496" y="343.1736" style="fill: #1f78b4; stroke: #1f78b4"/>
     <use xlink:href="#m899224d998" x="145.872" y="410.2272" style="fill: #1f78b4; stroke: #1f78b4"/>
     <use xlink:href="#m899224d998" x="50.3568" y="178.1928" style="fill: #1f78b4; stroke: #1f78b4"/>
     <use xlink:href="#m899224d998" x="68.688" y="147.8016" style="fill: #1f78b4; stroke: #1f78b4"/>
     <use xlink:href="#m899224d998" x="148.7664" y="73.512" style="fill: #1f78b4; stroke: #1f78b4"/>
     <use xlink:href="#m899224d998" x="282.3912" y="318.0888" style="fill: #1f78b4; stroke: #1f78b4"/>
     <use xlink:href="#m899224d998" x="492.2352" y="429.5232" style="fill: #1f78b4; stroke: #1f78b4"/>
     <use xlink:href="#m899224d998" x="377.9064" y="213.8904" style="fill: #1f78b4; stroke: #1f78b4"/>
     <use xlink:href="#m899224d998" x="201.8304" y="115.4808" style="fill: #1f78b4; stroke: #1f78b4"/>
     <use xlink:href="#m899224d998" x="100.5264" y="443.0304" style="fill: #1f78b4; stroke: #1f78b4"/>
     <use xlink:href="#m899224d998" x="23.3424" y="410.7096" style="fill: #1f78b4; stroke: #1f78b4"/>
    </g>
   </g>
   <g id="patch_41">
    <path d="M 10.8 493.2 
L 10.8 10.8 
" style="fill: none; stroke: #000000; stroke-width: 0.8; stroke-linejoin: miter; stroke-linecap: square"/>
   </g>
   <g id="patch_42">
    <path d="M 493.2 493.2 
L 493.2 10.8 
" style="fill: none; stroke: #000000; stroke-width: 0.8; stroke-linejoin: miter; stroke-linecap: square"/>
   </g>
   <g id="patch_43">
    <path d="M 10.8 493.2 
L 493.2 493.2 
" style="fill: none; stroke: #000000; stroke-width: 0.8; stroke-linejoin: miter; stroke-linecap: square"/>
   </g>
   <g id="patch_44">
    <path d="M 10.8 10.8 
L 493.2 10.8 
" style="fill: none; stroke: #000000; stroke-width: 0.8; stroke-linejoin: miter; stroke-linecap: square"/>
   </g>
   <g id="text_39">
    <g clip-path="url(#p1307434d3e)">
     <!-- 0 -->
     <g transform="translate(258.3129 75.85845) scale(0.12 -0.12)">
      <use xlink:href="#DejaVuSans-30"/>
     </g>
    </g>
   </g>
   <g id="text_40">
    <g clip-path="url(#p1307434d3e)">
     <!-- 1 -->
     <g transform="translate(222.6153 346.00245) scale(0.12 -0.12)">
      <use xlink:href="#DejaVuSans-31"/>
     </g>
    </g>
   </g>
   <g id="text_41">
    <g clip-path="url(#p1307434d3e)">
     <!-- 2 -->
     <g transform="translate(202.8369 223.47285) scale(0.12 -0.12)">
      <use xlink:href="#DejaVuSans-32"/>
     </g>
    </g>
   </g>
   <g id="text_42">
    <g clip-path="url(#p1307434d3e)">
     <!-- 3 -->
     <g transform="translate(190.7769 371.56965) scale(0.12 -0.12)">
      <use xlink:href="#DejaVuSans-33"/>
     </g>
    </g>
   </g>
   <g id="text_43">
    <g clip-path="url(#p1307434d3e)">
     <!-- 4 -->
     <g transform="translate(88.0257 66.69285) scale(0.12 -0.12)">
      <use xlink:href="#DejaVuSans-34"/>
     </g>
    </g>
   </g>
   <g id="text_44">
    <g clip-path="url(#p1307434d3e)">
     <!-- 5 -->
     <g transform="translate(385.1841 70.06965) scale(0.12 -0.12)">
      <use xlink:href="#DejaVuSans-35"/>
     </g>
    </g>
   </g>
   <g id="text_45">
    <g clip-path="url(#p1307434d3e)">
     <!-- 6 -->
     <g transform="translate(224.5449 135.19365) scale(0.12 -0.12)">
      <use xlink:href="#DejaVuSans-36"/>
     </g>
    </g>
   </g>
   <g id="text_46">
    <g clip-path="url(#p1307434d3e)">
     <!-- 7 -->
     <g transform="translate(33.0321 346.48485) scale(0.12 -0.12)">
      <use xlink:href="#DejaVuSans-37"/>
     </g>
    </g>
   </g>
   <g id="text_47">
    <g clip-path="url(#p1307434d3e)">
     <!-- 8 -->
     <g transform="translate(142.0545 413.53845) scale(0.12 -0.12)">
      <use xlink:href="#DejaVuSans-38"/>
     </g>
    </g>
   </g>
   <g id="text_48">
    <g clip-path="url(#p1307434d3e)">
     <!-- 9 -->
     <g transform="translate(46.5393 181.50405) scale(0.12 -0.12)">
      <use xlink:href="#DejaVuSans-39"/>
     </g>
    </g>
   </g>
   <g id="text_49">
    <g clip-path="url(#p1307434d3e)">
     <!-- 10 -->
     <g transform="translate(61.053 151.11285) scale(0.12 -0.12)">
      <use xlink:href="#DejaVuSans-31"/>
      <use xlink:href="#DejaVuSans-30" x="63.623047"/>
     </g>
    </g>
   </g>
   <g id="text_50">
    <g clip-path="url(#p1307434d3e)">
     <!-- 11 -->
     <g transform="translate(141.1314 76.82325) scale(0.12 -0.12)">
      <use xlink:href="#DejaVuSans-31"/>
      <use xlink:href="#DejaVuSans-31" x="63.623047"/>
     </g>
    </g>
   </g>
   <g id="text_51">
    <g clip-path="url(#p1307434d3e)">
     <!-- 12 -->
     <g transform="translate(274.7562 321.40005) scale(0.12 -0.12)">
      <use xlink:href="#DejaVuSans-31"/>
      <use xlink:href="#DejaVuSans-32" x="63.623047"/>
     </g>
    </g>
   </g>
   <g id="text_52">
    <g clip-path="url(#p1307434d3e)">
     <!-- 13 -->
     <g transform="translate(484.6002 432.83445) scale(0.12 -0.12)">
      <use xlink:href="#DejaVuSans-31"/>
      <use xlink:href="#DejaVuSans-33" x="63.623047"/>
     </g>
    </g>
   </g>
   <g id="text_53">
    <g clip-path="url(#p1307434d3e)">
     <!-- 14 -->
     <g transform="translate(370.2714 217.20165) scale(0.12 -0.12)">
      <use xlink:href="#DejaVuSans-31"/>
      <use xlink:href="#DejaVuSans-34" x="63.623047"/>
     </g>
    </g>
   </g>
   <g id="text_54">
    <g clip-path="url(#p1307434d3e)">
     <!-- 15 -->
     <g transform="translate(194.1954 118.79205) scale(0.12 -0.12)">
      <use xlink:href="#DejaVuSans-31"/>
      <use xlink:href="#DejaVuSans-35" x="63.623047"/>
     </g>
    </g>
   </g>
   <g id="text_55">
    <g clip-path="url(#p1307434d3e)">
     <!-- 16 -->
     <g transform="translate(92.8914 446.34165) scale(0.12 -0.12)">
      <use xlink:href="#DejaVuSans-31"/>
      <use xlink:href="#DejaVuSans-36" x="63.623047"/>
     </g>
    </g>
   </g>
   <g id="text_56">
    <g clip-path="url(#p1307434d3e)">
     <!-- 17 -->
     <g transform="translate(15.7074 414.02085) scale(0.12 -0.12)">
      <use xlink:href="#DejaVuSans-31"/>
      <use xlink:href="#DejaVuSans-37" x="63.623047"/>
     </g>
    </g>
   </g>
  </g>
 </g>
 <defs>
  <clipPath id="p1307434d3e">
   <rect x="10.8" y="10.8" width="482.4" height="482.4"/>
  </clipPath>
 </defs>
</svg>
