<?xml version="1.0" encoding="utf-8" standalone="no"?>
<!DOCTYPE svg PUBLIC "-//W3C//DTD SVG 1.1//EN"
  "http://www.w3.org/Graphics/SVG/1.1/DTD/svg11.dtd">
<svg xmlns:xlink="http://www.w3.org/1999/xlink" width="504pt" height="504pt" viewBox="0 0 504 504" xmlns="http://www.w3.org/2000/svg" version="1.1">
 <metadata>
  <rdf:RDF xmlns:dc="http://purl.org/dc/elements/1.1/" xmlns:cc="http://creativecommons.org/ns#" xmlns:rdf="http://www.w3.org/1999/02/22-rdf-syntax-ns#">
   <cc:Work>
    <dc:type rdf:resource="http://purl.org/dc/dcmitype/StillImage"/>
    <dc:date>2024-10-29T14:59:40.403385</dc:date>
    <dc:format>image/svg+xml</dc:format>
    <dc:creator>
     <cc:Agent>
      <dc:title>Matplotlib v3.9.2, https://matplotlib.org/</dc:title>
     </cc:Agent>
    </dc:creator>
   </cc:Work>
  </rdf:RDF>
 </metadata>
 <defs>
  <style type="text/css">*{stroke-linejoin: round; stroke-linecap: butt}</style>
 </defs>
 <g id="figure_1">
  <g id="patch_1">
   <path d="M 0 504 
L 504 504 
L 504 0 
L 0 0 
L 0 504 
z
" style="fill: none; opacity: 0"/>
  </g>
  <g id="axes_1">
   <g id="patch_2">
    <path d="M 10.8 493.2 
L 493.2 493.2 
L 493.2 10.8 
L 10.8 10.8 
L 10.8 493.2 
z
" style="fill: none; opacity: 0"/>
   </g>
   <g id="LineCollection_1">
    <path d="M 310.3704 116.4456 
L 151.1784 440.6184 
" clip-path="url(#p89d84c7776)" style="fill: none; stroke: #000000"/>
    <path d="M 310.3704 116.4456 
L 264.5424 17.0712 
" clip-path="url(#p89d84c7776)" style="fill: none; stroke: #000000"/>
    <path d="M 310.3704 116.4456 
L 147.3192 462.3264 
" clip-path="url(#p89d84c7776)" style="fill: none; stroke: #000000"/>
    <path d="M 100.044 212.9256 
L 170.4744 152.6256 
" clip-path="url(#p89d84c7776)" style="fill: none; stroke: #000000"/>
    <path d="M 100.044 212.9256 
L 190.2528 203.76 
" clip-path="url(#p89d84c7776)" style="fill: none; stroke: #000000"/>
    <path d="M 100.044 212.9256 
L 287.2152 375.9768 
" clip-path="url(#p89d84c7776)" style="fill: none; stroke: #000000"/>
    <path d="M 344.6208 239.94 
L 147.3192 462.3264 
" clip-path="url(#p89d84c7776)" style="fill: none; stroke: #000000"/>
    <path d="M 344.6208 239.94 
L 190.2528 203.76 
" clip-path="url(#p89d84c7776)" style="fill: none; stroke: #000000"/>
    <path d="M 366.3288 316.6416 
L 466.668 291.5568 
" clip-path="url(#p89d84c7776)" style="fill: none; stroke: #000000"/>
    <path d="M 366.3288 316.6416 
L 388.5192 432.4176 
" clip-path="url(#p89d84c7776)" style="fill: none; stroke: #000000"/>
    <path d="M 366.3288 316.6416 
L 147.3192 462.3264 
" clip-path="url(#p89d84c7776)" style="fill: none; stroke: #000000"/>
    <path d="M 197.9712 349.9272 
L 471.0096 233.1864 
" clip-path="url(#p89d84c7776)" style="fill: none; stroke: #000000"/>
    <path d="M 471.0096 233.1864 
L 363.4344 186.876 
" clip-path="url(#p89d84c7776)" style="fill: none; stroke: #000000"/>
    <path d="M 363.4344 186.876 
L 466.668 291.5568 
" clip-path="url(#p89d84c7776)" style="fill: none; stroke: #000000"/>
    <path d="M 363.4344 186.876 
L 147.3192 462.3264 
" clip-path="url(#p89d84c7776)" style="fill: none; stroke: #000000"/>
    <path d="M 434.8296 488.8584 
L 151.1784 440.6184 
" clip-path="url(#p89d84c7776)" style="fill: none; stroke: #000000"/>
    <path d="M 135.7416 210.0312 
L 190.2528 203.76 
" clip-path="url(#p89d84c7776)" style="fill: none; stroke: #000000"/>
    <path d="M 339.3144 14.1768 
L 264.5424 17.0712 
" clip-path="url(#p89d84c7776)" style="fill: none; stroke: #000000"/>
    <path d="M 170.4744 152.6256 
L 388.5192 432.4176 
" clip-path="url(#p89d84c7776)" style="fill: none; stroke: #000000"/>
   </g>
   <g id="text_1">
    <g id="patch_3">
     <path d="M 235.006754 287.697485 
L 240.615814 276.275398 
Q 241.938186 273.582568 239.245356 272.260196 
L 230.558175 267.99417 
Q 227.865345 266.671798 226.542973 269.364628 
L 220.933913 280.786715 
Q 219.611541 283.479545 222.304371 284.801916 
L 230.991552 289.067943 
Q 233.684382 290.390315 235.006754 287.697485 
z
" clip-path="url(#p89d84c7776)" style="fill: #ffffff; stroke: #ffffff; stroke-linejoin: miter"/>
    </g>
    <g clip-path="url(#p89d84c7776)">
     <!-- 18 -->
     <g transform="translate(230.447176 285.458406) rotate(-63.845664) scale(0.1 -0.1)">
      <defs>
       <path id="DejaVuSans-31" d="M 794 531 
L 1825 531 
L 1825 4091 
L 703 3866 
L 703 4441 
L 1819 4666 
L 2450 4666 
L 2450 531 
L 3481 531 
L 3481 0 
L 794 0 
L 794 531 
z
" transform="scale(0.015625)"/>
       <path id="DejaVuSans-38" d="M 2034 2216 
Q 1584 2216 1326 1975 
Q 1069 1734 1069 1313 
Q 1069 891 1326 650 
Q 1584 409 2034 409 
Q 2484 409 2743 651 
Q 3003 894 3003 1313 
Q 3003 1734 2745 1975 
Q 2488 2216 2034 2216 
z
M 1403 2484 
Q 997 2584 770 2862 
Q 544 3141 544 3541 
Q 544 4100 942 4425 
Q 1341 4750 2034 4750 
Q 2731 4750 3128 4425 
Q 3525 4100 3525 3541 
Q 3525 3141 3298 2862 
Q 3072 2584 2669 2484 
Q 3125 2378 3379 2068 
Q 3634 1759 3634 1313 
Q 3634 634 3220 271 
Q 2806 -91 2034 -91 
Q 1263 -91 848 271 
Q 434 634 434 1313 
Q 434 1759 690 2068 
Q 947 2378 1403 2484 
z
M 1172 3481 
Q 1172 3119 1398 2916 
Q 1625 2713 2034 2713 
Q 2441 2713 2670 2916 
Q 2900 3119 2900 3481 
Q 2900 3844 2670 4047 
Q 2441 4250 2034 4250 
Q 1625 4250 1398 4047 
Q 1172 3844 1172 3481 
z
" transform="scale(0.015625)"/>
      </defs>
      <use xlink:href="#DejaVuSans-31"/>
      <use xlink:href="#DejaVuSans-38" x="63.623047"/>
     </g>
    </g>
   </g>
   <g id="text_2">
    <g id="patch_4">
     <path d="M 279.006358 67.154021 
L 281.670837 72.931733 
Q 282.927173 75.655998 285.651438 74.399662 
L 294.44003 70.34667 
Q 297.164295 69.090335 295.90796 66.366069 
L 293.243481 60.588357 
Q 291.987145 57.864092 289.26288 59.120428 
L 280.474287 63.17342 
Q 277.750022 64.429756 279.006358 67.154021 
z
" clip-path="url(#p89d84c7776)" style="fill: #ffffff; stroke: #ffffff; stroke-linejoin: miter"/>
    </g>
    <g clip-path="url(#p89d84c7776)">
     <!-- 7 -->
     <g transform="translate(283.619163 65.026756) rotate(-294.7575) scale(0.1 -0.1)">
      <defs>
       <path id="DejaVuSans-37" d="M 525 4666 
L 3525 4666 
L 3525 4397 
L 1831 0 
L 1172 0 
L 2766 4134 
L 525 4134 
L 525 4666 
z
" transform="scale(0.015625)"/>
      </defs>
      <use xlink:href="#DejaVuSans-37"/>
     </g>
    </g>
   </g>
   <g id="text_3">
    <g id="patch_5">
     <path d="M 234.578495 295.607202 
L 237.291493 289.852114 
Q 238.570707 287.138516 235.857109 285.859302 
L 227.10293 281.732506 
Q 224.389332 280.453293 223.110118 283.166891 
L 220.39712 288.921979 
Q 219.117906 291.635577 221.831504 292.914791 
L 230.585684 297.041587 
Q 233.299281 298.3208 234.578495 295.607202 
z
" clip-path="url(#p89d84c7776)" style="fill: #ffffff; stroke: #ffffff; stroke-linejoin: miter"/>
    </g>
    <g clip-path="url(#p89d84c7776)">
     <!-- 5 -->
     <g transform="translate(229.983752 293.441201) rotate(-64.760405) scale(0.1 -0.1)">
      <defs>
       <path id="DejaVuSans-35" d="M 691 4666 
L 3169 4666 
L 3169 4134 
L 1269 4134 
L 1269 2991 
Q 1406 3038 1543 3061 
Q 1681 3084 1819 3084 
Q 2600 3084 3056 2656 
Q 3513 2228 3513 1497 
Q 3513 744 3044 326 
Q 2575 -91 1722 -91 
Q 1428 -91 1123 -41 
Q 819 9 494 109 
L 494 744 
Q 775 591 1075 516 
Q 1375 441 1709 441 
Q 2250 441 2565 725 
Q 2881 1009 2881 1497 
Q 2881 1984 2565 2268 
Q 2250 2553 1709 2553 
Q 1456 2553 1204 2497 
Q 953 2441 691 2322 
L 691 4666 
z
" transform="scale(0.015625)"/>
      </defs>
      <use xlink:href="#DejaVuSans-35"/>
     </g>
    </g>
   </g>
   <g id="text_4">
    <g id="patch_6">
     <path d="M 137.940301 190.799801 
L 142.773407 186.661868 
Q 145.052279 184.71078 143.10119 182.431909 
L 136.806898 175.080175 
Q 134.855809 172.801304 132.576938 174.752392 
L 127.743832 178.890325 
Q 125.464961 180.841414 127.416049 183.120285 
L 133.710342 190.472019 
Q 135.66143 192.75089 137.940301 190.799801 
z
" clip-path="url(#p89d84c7776)" style="fill: #ffffff; stroke: #ffffff; stroke-linejoin: miter"/>
    </g>
    <g clip-path="url(#p89d84c7776)">
     <!-- 7 -->
     <g transform="translate(134.636662 186.94115) rotate(-40.568961) scale(0.1 -0.1)">
      <use xlink:href="#DejaVuSans-37"/>
     </g>
    </g>
   </g>
   <g id="text_5">
    <g id="patch_7">
     <path d="M 139.608812 216.785067 
L 152.268634 215.498775 
Q 155.253267 215.195524 154.950016 212.21089 
L 153.971714 202.582337 
Q 153.668462 199.597704 150.683828 199.900955 
L 138.024007 201.187247 
Q 135.039373 201.490499 135.342625 204.475132 
L 136.320927 214.103685 
Q 136.624179 217.088319 139.608812 216.785067 
z
" clip-path="url(#p89d84c7776)" style="fill: #ffffff; stroke: #ffffff; stroke-linejoin: miter"/>
    </g>
    <g clip-path="url(#p89d84c7776)">
     <!-- 14 -->
     <g transform="translate(139.095338 211.731399) rotate(-5.801587) scale(0.1 -0.1)">
      <defs>
       <path id="DejaVuSans-34" d="M 2419 4116 
L 825 1625 
L 2419 1625 
L 2419 4116 
z
M 2253 4666 
L 3047 4666 
L 3047 1625 
L 3713 1625 
L 3713 1100 
L 3047 1100 
L 3047 0 
L 2419 0 
L 2419 1100 
L 313 1100 
L 313 1709 
L 2253 4666 
z
" transform="scale(0.015625)"/>
      </defs>
      <use xlink:href="#DejaVuSans-31"/>
      <use xlink:href="#DejaVuSans-34" x="63.623047"/>
     </g>
    </g>
   </g>
   <g id="text_6">
    <g id="patch_8">
     <path d="M 183.684004 296.183619 
L 193.278903 304.542061 
Q 195.540961 306.512617 197.511517 304.250559 
L 203.868613 296.953064 
Q 205.839169 294.691005 203.577111 292.720449 
L 193.982213 284.362007 
Q 191.720154 282.391451 189.749598 284.65351 
L 183.392502 291.951005 
Q 181.421946 294.213063 183.684004 296.183619 
z
" clip-path="url(#p89d84c7776)" style="fill: #ffffff; stroke: #ffffff; stroke-linejoin: miter"/>
    </g>
    <g clip-path="url(#p89d84c7776)">
     <!-- 18 -->
     <g transform="translate(187.020608 292.353436) rotate(-318.939769) scale(0.1 -0.1)">
      <use xlink:href="#DejaVuSans-31"/>
      <use xlink:href="#DejaVuSans-38" x="63.623047"/>
     </g>
    </g>
   </g>
   <g id="text_7">
    <g id="patch_9">
     <path d="M 249.723693 358.714156 
L 253.946221 353.954779 
Q 255.937196 351.710672 253.693089 349.719697 
L 246.453507 343.296726 
Q 244.2094 341.305751 242.218424 343.549858 
L 237.995897 348.309235 
Q 236.004921 350.553342 238.249028 352.544317 
L 245.488611 358.967287 
Q 247.732717 360.958263 249.723693 358.714156 
z
" clip-path="url(#p89d84c7776)" style="fill: #ffffff; stroke: #ffffff; stroke-linejoin: miter"/>
    </g>
    <g clip-path="url(#p89d84c7776)">
     <!-- 6 -->
     <g transform="translate(245.923906 355.342978) rotate(-48.420506) scale(0.1 -0.1)">
      <defs>
       <path id="DejaVuSans-36" d="M 2113 2584 
Q 1688 2584 1439 2293 
Q 1191 2003 1191 1497 
Q 1191 994 1439 701 
Q 1688 409 2113 409 
Q 2538 409 2786 701 
Q 3034 994 3034 1497 
Q 3034 2003 2786 2293 
Q 2538 2584 2113 2584 
z
M 3366 4563 
L 3366 3988 
Q 3128 4100 2886 4159 
Q 2644 4219 2406 4219 
Q 1781 4219 1451 3797 
Q 1122 3375 1075 2522 
Q 1259 2794 1537 2939 
Q 1816 3084 2150 3084 
Q 2853 3084 3261 2657 
Q 3669 2231 3669 1497 
Q 3669 778 3244 343 
Q 2819 -91 2113 -91 
Q 1303 -91 875 529 
Q 447 1150 447 2328 
Q 447 3434 972 4092 
Q 1497 4750 2381 4750 
Q 2619 4750 2861 4703 
Q 3103 4656 3366 4563 
z
" transform="scale(0.015625)"/>
      </defs>
      <use xlink:href="#DejaVuSans-36"/>
     </g>
    </g>
   </g>
   <g id="text_8">
    <g id="patch_10">
     <path d="M 259.454891 228.030731 
L 271.844158 230.934465 
Q 274.765007 231.619039 275.449581 228.69819 
L 277.658046 219.27541 
Q 278.34262 216.354561 275.421771 215.669987 
L 263.032503 212.766252 
Q 260.111654 212.081678 259.42708 215.002527 
L 257.218616 224.425308 
Q 256.534042 227.346157 259.454891 228.030731 
z
" clip-path="url(#p89d84c7776)" style="fill: #ffffff; stroke: #ffffff; stroke-linejoin: miter"/>
    </g>
    <g clip-path="url(#p89d84c7776)">
     <!-- 10 -->
     <g transform="translate(260.614032 223.085064) rotate(-346.809389) scale(0.1 -0.1)">
      <defs>
       <path id="DejaVuSans-30" d="M 2034 4250 
Q 1547 4250 1301 3770 
Q 1056 3291 1056 2328 
Q 1056 1369 1301 889 
Q 1547 409 2034 409 
Q 2525 409 2770 889 
Q 3016 1369 3016 2328 
Q 3016 3291 2770 3770 
Q 2525 4250 2034 4250 
z
M 2034 4750 
Q 2819 4750 3233 4129 
Q 3647 3509 3647 2328 
Q 3647 1150 3233 529 
Q 2819 -91 2034 -91 
Q 1250 -91 836 529 
Q 422 1150 422 2328 
Q 422 3509 836 4129 
Q 1250 4750 2034 4750 
z
" transform="scale(0.015625)"/>
      </defs>
      <use xlink:href="#DejaVuSans-31"/>
      <use xlink:href="#DejaVuSans-30" x="63.623047"/>
     </g>
    </g>
   </g>
   <g id="text_9">
    <g id="patch_11">
     <path d="M 412.225146 313.247834 
L 424.570209 310.161568 
Q 427.480637 309.433961 426.75303 306.523534 
L 424.40574 297.134374 
Q 423.678133 294.223946 420.767706 294.951553 
L 408.422642 298.037819 
Q 405.512215 298.765426 406.239822 301.675853 
L 408.587112 311.065014 
Q 409.314719 313.975441 412.225146 313.247834 
z
" clip-path="url(#p89d84c7776)" style="fill: #ffffff; stroke: #ffffff; stroke-linejoin: miter"/>
    </g>
    <g clip-path="url(#p89d84c7776)">
     <!-- 16 -->
     <g transform="translate(410.993141 308.319813) rotate(-14.036243) scale(0.1 -0.1)">
      <use xlink:href="#DejaVuSans-31"/>
      <use xlink:href="#DejaVuSans-36" x="63.623047"/>
     </g>
    </g>
   </g>
   <g id="text_10">
    <g id="patch_12">
     <path d="M 369.125869 372.878926 
L 370.323547 379.127683 
Q 370.888268 382.074052 373.834637 381.509331 
L 383.339746 379.687519 
Q 386.286115 379.122798 385.721394 376.176429 
L 384.523716 369.927671 
Q 383.958995 366.981302 381.012626 367.546023 
L 371.507517 369.367836 
Q 368.561148 369.932556 369.125869 372.878926 
z
" clip-path="url(#p89d84c7776)" style="fill: #ffffff; stroke: #ffffff; stroke-linejoin: miter"/>
    </g>
    <g clip-path="url(#p89d84c7776)">
     <!-- 1 -->
     <g transform="translate(374.114747 371.922724) rotate(-280.850105) scale(0.1 -0.1)">
      <use xlink:href="#DejaVuSans-31"/>
     </g>
    </g>
   </g>
   <g id="text_11">
    <g id="patch_13">
     <path d="M 255.869138 399.534173 
L 266.464153 392.486387 
Q 268.961995 390.824827 267.300435 388.326985 
L 261.940172 380.268841 
Q 260.278612 377.770998 257.780769 379.432559 
L 247.185754 386.480344 
Q 244.687911 388.141904 246.349472 390.639747 
L 251.709735 398.697891 
Q 253.371295 401.195733 255.869138 399.534173 
z
" clip-path="url(#p89d84c7776)" style="fill: #ffffff; stroke: #ffffff; stroke-linejoin: miter"/>
    </g>
    <g clip-path="url(#p89d84c7776)">
     <!-- 12 -->
     <g transform="translate(253.055735 395.304753) rotate(-33.631781) scale(0.1 -0.1)">
      <defs>
       <path id="DejaVuSans-32" d="M 1228 531 
L 3431 531 
L 3431 0 
L 469 0 
L 469 531 
Q 828 903 1448 1529 
Q 2069 2156 2228 2338 
Q 2531 2678 2651 2914 
Q 2772 3150 2772 3378 
Q 2772 3750 2511 3984 
Q 2250 4219 1831 4219 
Q 1534 4219 1204 4116 
Q 875 4013 500 3803 
L 500 4441 
Q 881 4594 1212 4672 
Q 1544 4750 1819 4750 
Q 2544 4750 2975 4387 
Q 3406 4025 3406 3419 
Q 3406 3131 3298 2873 
Q 3191 2616 2906 2266 
Q 2828 2175 2409 1742 
Q 1991 1309 1228 531 
z
" transform="scale(0.015625)"/>
      </defs>
      <use xlink:href="#DejaVuSans-31"/>
      <use xlink:href="#DejaVuSans-32" x="63.623047"/>
     </g>
    </g>
   </g>
   <g id="text_12">
    <g id="patch_14">
     <path d="M 334.645892 300.015849 
L 340.496089 297.514528 
Q 343.254531 296.335123 342.075127 293.576681 
L 338.270318 284.677831 
Q 337.090913 281.919388 334.332471 283.098793 
L 328.482274 285.600114 
Q 325.723832 286.779519 326.903237 289.537961 
L 330.708045 298.436811 
Q 331.88745 301.195254 334.645892 300.015849 
z
" clip-path="url(#p89d84c7776)" style="fill: #ffffff; stroke: #ffffff; stroke-linejoin: miter"/>
    </g>
    <g clip-path="url(#p89d84c7776)">
     <!-- 7 -->
     <g transform="translate(332.64889 295.345174) rotate(-23.149703) scale(0.1 -0.1)">
      <use xlink:href="#DejaVuSans-37"/>
     </g>
    </g>
   </g>
   <g id="text_13">
    <g id="patch_15">
     <path d="M 411.201164 215.973862 
L 417.04515 218.489659 
Q 419.800664 219.675889 420.986895 216.920375 
L 424.813723 208.030972 
Q 425.999953 205.275458 423.244439 204.089228 
L 417.400453 201.573431 
Q 414.644939 200.387201 413.458709 203.142715 
L 409.63188 212.032118 
Q 408.44565 214.787632 411.201164 215.973862 
z
" clip-path="url(#p89d84c7776)" style="fill: #ffffff; stroke: #ffffff; stroke-linejoin: miter"/>
    </g>
    <g clip-path="url(#p89d84c7776)">
     <!-- 7 -->
     <g transform="translate(413.209724 211.308146) rotate(-336.708447) scale(0.1 -0.1)">
      <use xlink:href="#DejaVuSans-37"/>
     </g>
    </g>
   </g>
   <g id="text_14">
    <g id="patch_16">
     <path d="M 407.237288 242.457032 
L 411.704831 246.987205 
Q 413.811335 249.123239 415.947369 247.016735 
L 422.838304 240.221067 
Q 424.974339 238.114563 422.867835 235.978529 
L 418.400292 231.448356 
Q 416.293788 229.312322 414.157754 231.418826 
L 407.266818 238.214495 
Q 405.130784 240.320998 407.237288 242.457032 
z
" clip-path="url(#p89d84c7776)" style="fill: #ffffff; stroke: #ffffff; stroke-linejoin: miter"/>
    </g>
    <g clip-path="url(#p89d84c7776)">
     <!-- 3 -->
     <g transform="translate(410.854083 238.890239) rotate(-314.601196) scale(0.1 -0.1)">
      <defs>
       <path id="DejaVuSans-33" d="M 2597 2516 
Q 3050 2419 3304 2112 
Q 3559 1806 3559 1356 
Q 3559 666 3084 287 
Q 2609 -91 1734 -91 
Q 1441 -91 1130 -33 
Q 819 25 488 141 
L 488 750 
Q 750 597 1062 519 
Q 1375 441 1716 441 
Q 2309 441 2620 675 
Q 2931 909 2931 1356 
Q 2931 1769 2642 2001 
Q 2353 2234 1838 2234 
L 1294 2234 
L 1294 2753 
L 1863 2753 
Q 2328 2753 2575 2939 
Q 2822 3125 2822 3475 
Q 2822 3834 2567 4026 
Q 2313 4219 1838 4219 
Q 1578 4219 1281 4162 
Q 984 4106 628 3988 
L 628 4550 
Q 988 4650 1302 4700 
Q 1616 4750 1894 4750 
Q 2613 4750 3031 4423 
Q 3450 4097 3450 3541 
Q 3450 3153 3228 2886 
Q 3006 2619 2597 2516 
z
" transform="scale(0.015625)"/>
      </defs>
      <use xlink:href="#DejaVuSans-33"/>
     </g>
    </g>
   </g>
   <g id="text_15">
    <g id="patch_17">
     <path d="M 257.616546 334.446016 
L 265.471354 324.434642 
Q 267.323175 322.074396 264.96293 320.222575 
L 257.34868 314.248523 
Q 254.988435 312.396701 253.136613 314.756947 
L 245.281805 324.768321 
Q 243.429984 327.128566 245.790229 328.980387 
L 253.404479 334.95444 
Q 255.764724 336.806261 257.616546 334.446016 
z
" clip-path="url(#p89d84c7776)" style="fill: #ffffff; stroke: #ffffff; stroke-linejoin: miter"/>
    </g>
    <g clip-path="url(#p89d84c7776)">
     <!-- 10 -->
     <g transform="translate(253.620109 331.310458) rotate(-51.882679) scale(0.1 -0.1)">
      <use xlink:href="#DejaVuSans-31"/>
      <use xlink:href="#DejaVuSans-30" x="63.623047"/>
     </g>
    </g>
   </g>
   <g id="text_16">
    <g id="patch_18">
     <path d="M 285.414653 471.399314 
L 297.959528 473.532796 
Q 300.917062 474.035778 301.420044 471.078244 
L 303.042685 461.537115 
Q 303.545667 458.579581 300.588133 458.076599 
L 288.043258 455.943117 
Q 285.085724 455.440135 284.582742 458.397669 
L 282.960101 467.938798 
Q 282.457119 470.896332 285.414653 471.399314 
z
" clip-path="url(#p89d84c7776)" style="fill: #ffffff; stroke: #ffffff; stroke-linejoin: miter"/>
    </g>
    <g clip-path="url(#p89d84c7776)">
     <!-- 19 -->
     <g transform="translate(286.266317 466.391531) rotate(-350.348167) scale(0.1 -0.1)">
      <defs>
       <path id="DejaVuSans-39" d="M 703 97 
L 703 672 
Q 941 559 1184 500 
Q 1428 441 1663 441 
Q 2288 441 2617 861 
Q 2947 1281 2994 2138 
Q 2813 1869 2534 1725 
Q 2256 1581 1919 1581 
Q 1219 1581 811 2004 
Q 403 2428 403 3163 
Q 403 3881 828 4315 
Q 1253 4750 1959 4750 
Q 2769 4750 3195 4129 
Q 3622 3509 3622 2328 
Q 3622 1225 3098 567 
Q 2575 -91 1691 -91 
Q 1453 -91 1209 -44 
Q 966 3 703 97 
z
M 1959 2075 
Q 2384 2075 2632 2365 
Q 2881 2656 2881 3163 
Q 2881 3666 2632 3958 
Q 2384 4250 1959 4250 
Q 1534 4250 1286 3958 
Q 1038 3666 1038 3163 
Q 1038 2656 1286 2365 
Q 1534 2075 1959 2075 
z
" transform="scale(0.015625)"/>
      </defs>
      <use xlink:href="#DejaVuSans-31"/>
      <use xlink:href="#DejaVuSans-39" x="63.623047"/>
     </g>
    </g>
   </g>
   <g id="text_17">
    <g id="patch_19">
     <path d="M 157.569875 215.41075 
L 170.211493 213.956405 
Q 173.191835 213.613534 172.848964 210.633191 
L 171.742847 201.018483 
Q 171.399976 198.038141 168.419633 198.381013 
L 155.778016 199.835358 
Q 152.797673 200.178229 153.140545 203.158571 
L 154.246661 212.773279 
Q 154.589533 215.753621 157.569875 215.41075 
z
" clip-path="url(#p89d84c7776)" style="fill: #ffffff; stroke: #ffffff; stroke-linejoin: miter"/>
    </g>
    <g clip-path="url(#p89d84c7776)">
     <!-- 19 -->
     <g transform="translate(156.989315 210.364348) rotate(-6.562699) scale(0.1 -0.1)">
      <use xlink:href="#DejaVuSans-31"/>
      <use xlink:href="#DejaVuSans-39" x="63.623047"/>
     </g>
    </g>
   </g>
   <g id="text_18">
    <g id="patch_20">
     <path d="M 295.87307 23.703333 
L 308.588547 23.211121 
Q 311.586301 23.095079 311.470259 20.097324 
L 311.095903 10.426442 
Q 310.97986 7.428687 307.982106 7.54473 
L 295.266629 8.036942 
Q 292.268874 8.152984 292.384916 11.150739 
L 292.759273 20.821621 
Q 292.875315 23.819375 295.87307 23.703333 
z
" clip-path="url(#p89d84c7776)" style="fill: #ffffff; stroke: #ffffff; stroke-linejoin: miter"/>
    </g>
    <g clip-path="url(#p89d84c7776)">
     <!-- 13 -->
     <g transform="translate(295.676584 18.627447) rotate(-2.216794) scale(0.1 -0.1)">
      <use xlink:href="#DejaVuSans-31"/>
      <use xlink:href="#DejaVuSans-33" x="63.623047"/>
     </g>
    </g>
   </g>
   <g id="text_19">
    <g id="patch_21">
     <path d="M 269.402732 292.321833 
L 277.224707 302.358881 
Q 279.068788 304.725179 281.435086 302.881099 
L 289.068862 296.932018 
Q 291.435161 295.087937 289.59108 292.721639 
L 281.769105 282.684591 
Q 279.925024 280.318293 277.558726 282.162374 
L 269.92495 288.111455 
Q 267.558652 289.955535 269.402732 292.321833 
z
" clip-path="url(#p89d84c7776)" style="fill: #ffffff; stroke: #ffffff; stroke-linejoin: miter"/>
    </g>
    <g clip-path="url(#p89d84c7776)">
     <!-- 20 -->
     <g transform="translate(273.409417 289.199382) rotate(-307.929655) scale(0.1 -0.1)">
      <use xlink:href="#DejaVuSans-32"/>
      <use xlink:href="#DejaVuSans-30" x="63.623047"/>
     </g>
    </g>
   </g>
   <g id="matplotlib.axis_1">
    <g id="xtick_1">
     <g id="line2d_1">
      <path d="M 10.8 493.2 
L 10.8 10.8 
" clip-path="url(#p89d84c7776)" style="fill: none; stroke: #b0b0b0; stroke-opacity: 0.3; stroke-width: 0.8; stroke-linecap: square"/>
     </g>
    </g>
    <g id="xtick_2">
     <g id="line2d_2">
      <path d="M 59.04 493.2 
L 59.04 10.8 
" clip-path="url(#p89d84c7776)" style="fill: none; stroke: #b0b0b0; stroke-opacity: 0.3; stroke-width: 0.8; stroke-linecap: square"/>
     </g>
    </g>
    <g id="xtick_3">
     <g id="line2d_3">
      <path d="M 107.28 493.2 
L 107.28 10.8 
" clip-path="url(#p89d84c7776)" style="fill: none; stroke: #b0b0b0; stroke-opacity: 0.3; stroke-width: 0.8; stroke-linecap: square"/>
     </g>
    </g>
    <g id="xtick_4">
     <g id="line2d_4">
      <path d="M 155.52 493.2 
L 155.52 10.8 
" clip-path="url(#p89d84c7776)" style="fill: none; stroke: #b0b0b0; stroke-opacity: 0.3; stroke-width: 0.8; stroke-linecap: square"/>
     </g>
    </g>
    <g id="xtick_5">
     <g id="line2d_5">
      <path d="M 203.76 493.2 
L 203.76 10.8 
" clip-path="url(#p89d84c7776)" style="fill: none; stroke: #b0b0b0; stroke-opacity: 0.3; stroke-width: 0.8; stroke-linecap: square"/>
     </g>
    </g>
    <g id="xtick_6">
     <g id="line2d_6">
      <path d="M 252 493.2 
L 252 10.8 
" clip-path="url(#p89d84c7776)" style="fill: none; stroke: #b0b0b0; stroke-opacity: 0.3; stroke-width: 0.8; stroke-linecap: square"/>
     </g>
    </g>
    <g id="xtick_7">
     <g id="line2d_7">
      <path d="M 300.24 493.2 
L 300.24 10.8 
" clip-path="url(#p89d84c7776)" style="fill: none; stroke: #b0b0b0; stroke-opacity: 0.3; stroke-width: 0.8; stroke-linecap: square"/>
     </g>
    </g>
    <g id="xtick_8">
     <g id="line2d_8">
      <path d="M 348.48 493.2 
L 348.48 10.8 
" clip-path="url(#p89d84c7776)" style="fill: none; stroke: #b0b0b0; stroke-opacity: 0.3; stroke-width: 0.8; stroke-linecap: square"/>
     </g>
    </g>
    <g id="xtick_9">
     <g id="line2d_9">
      <path d="M 396.72 493.2 
L 396.72 10.8 
" clip-path="url(#p89d84c7776)" style="fill: none; stroke: #b0b0b0; stroke-opacity: 0.3; stroke-width: 0.8; stroke-linecap: square"/>
     </g>
    </g>
    <g id="xtick_10">
     <g id="line2d_10">
      <path d="M 444.96 493.2 
L 444.96 10.8 
" clip-path="url(#p89d84c7776)" style="fill: none; stroke: #b0b0b0; stroke-opacity: 0.3; stroke-width: 0.8; stroke-linecap: square"/>
     </g>
    </g>
    <g id="xtick_11">
     <g id="line2d_11">
      <path d="M 493.2 493.2 
L 493.2 10.8 
" clip-path="url(#p89d84c7776)" style="fill: none; stroke: #b0b0b0; stroke-opacity: 0.3; stroke-width: 0.8; stroke-linecap: square"/>
     </g>
    </g>
   </g>
   <g id="matplotlib.axis_2">
    <g id="ytick_1">
     <g id="line2d_12">
      <path d="M 10.8 493.2 
L 493.2 493.2 
" clip-path="url(#p89d84c7776)" style="fill: none; stroke: #b0b0b0; stroke-opacity: 0.3; stroke-width: 0.8; stroke-linecap: square"/>
     </g>
    </g>
    <g id="ytick_2">
     <g id="line2d_13">
      <path d="M 10.8 444.96 
L 493.2 444.96 
" clip-path="url(#p89d84c7776)" style="fill: none; stroke: #b0b0b0; stroke-opacity: 0.3; stroke-width: 0.8; stroke-linecap: square"/>
     </g>
    </g>
    <g id="ytick_3">
     <g id="line2d_14">
      <path d="M 10.8 396.72 
L 493.2 396.72 
" clip-path="url(#p89d84c7776)" style="fill: none; stroke: #b0b0b0; stroke-opacity: 0.3; stroke-width: 0.8; stroke-linecap: square"/>
     </g>
    </g>
    <g id="ytick_4">
     <g id="line2d_15">
      <path d="M 10.8 348.48 
L 493.2 348.48 
" clip-path="url(#p89d84c7776)" style="fill: none; stroke: #b0b0b0; stroke-opacity: 0.3; stroke-width: 0.8; stroke-linecap: square"/>
     </g>
    </g>
    <g id="ytick_5">
     <g id="line2d_16">
      <path d="M 10.8 300.24 
L 493.2 300.24 
" clip-path="url(#p89d84c7776)" style="fill: none; stroke: #b0b0b0; stroke-opacity: 0.3; stroke-width: 0.8; stroke-linecap: square"/>
     </g>
    </g>
    <g id="ytick_6">
     <g id="line2d_17">
      <path d="M 10.8 252 
L 493.2 252 
" clip-path="url(#p89d84c7776)" style="fill: none; stroke: #b0b0b0; stroke-opacity: 0.3; stroke-width: 0.8; stroke-linecap: square"/>
     </g>
    </g>
    <g id="ytick_7">
     <g id="line2d_18">
      <path d="M 10.8 203.76 
L 493.2 203.76 
" clip-path="url(#p89d84c7776)" style="fill: none; stroke: #b0b0b0; stroke-opacity: 0.3; stroke-width: 0.8; stroke-linecap: square"/>
     </g>
    </g>
    <g id="ytick_8">
     <g id="line2d_19">
      <path d="M 10.8 155.52 
L 493.2 155.52 
" clip-path="url(#p89d84c7776)" style="fill: none; stroke: #b0b0b0; stroke-opacity: 0.3; stroke-width: 0.8; stroke-linecap: square"/>
     </g>
    </g>
    <g id="ytick_9">
     <g id="line2d_20">
      <path d="M 10.8 107.28 
L 493.2 107.28 
" clip-path="url(#p89d84c7776)" style="fill: none; stroke: #b0b0b0; stroke-opacity: 0.3; stroke-width: 0.8; stroke-linecap: square"/>
     </g>
    </g>
    <g id="ytick_10">
     <g id="line2d_21">
      <path d="M 10.8 59.04 
L 493.2 59.04 
" clip-path="url(#p89d84c7776)" style="fill: none; stroke: #b0b0b0; stroke-opacity: 0.3; stroke-width: 0.8; stroke-linecap: square"/>
     </g>
    </g>
    <g id="ytick_11">
     <g id="line2d_22">
      <path d="M 10.8 10.8 
L 493.2 10.8 
" clip-path="url(#p89d84c7776)" style="fill: none; stroke: #b0b0b0; stroke-opacity: 0.3; stroke-width: 0.8; stroke-linecap: square"/>
     </g>
    </g>
   </g>
   <g id="PathCollection_1">
    <defs>
     <path id="m67a51311cd" d="M 0 8.660254 
C 2.296726 8.660254 4.499694 7.747755 6.123724 6.123724 
C 7.747755 4.499694 8.660254 2.296726 8.660254 0 
C 8.660254 -2.296726 7.747755 -4.499694 6.123724 -6.123724 
C 4.499694 -7.747755 2.296726 -8.660254 0 -8.660254 
C -2.296726 -8.660254 -4.499694 -7.747755 -6.123724 -6.123724 
C -7.747755 -4.499694 -8.660254 -2.296726 -8.660254 0 
C -8.660254 2.296726 -7.747755 4.499694 -6.123724 6.123724 
C -4.499694 7.747755 -2.296726 8.660254 0 8.660254 
z
" style="stroke: #1f78b4"/>
    </defs>
    <g clip-path="url(#p89d84c7776)">
     <use xlink:href="#m67a51311cd" x="310.3704" y="116.4456" style="fill: #1f78b4; stroke: #1f78b4"/>
     <use xlink:href="#m67a51311cd" x="100.044" y="212.9256" style="fill: #1f78b4; stroke: #1f78b4"/>
     <use xlink:href="#m67a51311cd" x="344.6208" y="239.94" style="fill: #1f78b4; stroke: #1f78b4"/>
     <use xlink:href="#m67a51311cd" x="366.3288" y="316.6416" style="fill: #1f78b4; stroke: #1f78b4"/>
     <use xlink:href="#m67a51311cd" x="197.9712" y="349.9272" style="fill: #1f78b4; stroke: #1f78b4"/>
     <use xlink:href="#m67a51311cd" x="471.0096" y="233.1864" style="fill: #1f78b4; stroke: #1f78b4"/>
     <use xlink:href="#m67a51311cd" x="363.4344" y="186.876" style="fill: #1f78b4; stroke: #1f78b4"/>
     <use xlink:href="#m67a51311cd" x="434.8296" y="488.8584" style="fill: #1f78b4; stroke: #1f78b4"/>
     <use xlink:href="#m67a51311cd" x="135.7416" y="210.0312" style="fill: #1f78b4; stroke: #1f78b4"/>
     <use xlink:href="#m67a51311cd" x="466.668" y="291.5568" style="fill: #1f78b4; stroke: #1f78b4"/>
     <use xlink:href="#m67a51311cd" x="339.3144" y="14.1768" style="fill: #1f78b4; stroke: #1f78b4"/>
     <use xlink:href="#m67a51311cd" x="170.4744" y="152.6256" style="fill: #1f78b4; stroke: #1f78b4"/>
     <use xlink:href="#m67a51311cd" x="190.2528" y="203.76" style="fill: #1f78b4; stroke: #1f78b4"/>
     <use xlink:href="#m67a51311cd" x="264.5424" y="17.0712" style="fill: #1f78b4; stroke: #1f78b4"/>
     <use xlink:href="#m67a51311cd" x="147.3192" y="462.3264" style="fill: #1f78b4; stroke: #1f78b4"/>
     <use xlink:href="#m67a51311cd" x="388.5192" y="432.4176" style="fill: #1f78b4; stroke: #1f78b4"/>
     <use xlink:href="#m67a51311cd" x="287.2152" y="375.9768" style="fill: #1f78b4; stroke: #1f78b4"/>
     <use xlink:href="#m67a51311cd" x="151.1784" y="440.6184" style="fill: #1f78b4; stroke: #1f78b4"/>
    </g>
   </g>
   <g id="patch_22">
    <path d="M 10.8 493.2 
L 10.8 10.8 
" style="fill: none; stroke: #000000; stroke-width: 0.8; stroke-linejoin: miter; stroke-linecap: square"/>
   </g>
   <g id="patch_23">
    <path d="M 493.2 493.2 
L 493.2 10.8 
" style="fill: none; stroke: #000000; stroke-width: 0.8; stroke-linejoin: miter; stroke-linecap: square"/>
   </g>
   <g id="patch_24">
    <path d="M 10.8 493.2 
L 493.2 493.2 
" style="fill: none; stroke: #000000; stroke-width: 0.8; stroke-linejoin: miter; stroke-linecap: square"/>
   </g>
   <g id="patch_25">
    <path d="M 10.8 10.8 
L 493.2 10.8 
" style="fill: none; stroke: #000000; stroke-width: 0.8; stroke-linejoin: miter; stroke-linecap: square"/>
   </g>
   <g id="text_20">
    <g clip-path="url(#p89d84c7776)">
     <!-- 0 -->
     <g transform="translate(306.5529 119.75685) scale(0.12 -0.12)">
      <use xlink:href="#DejaVuSans-30"/>
     </g>
    </g>
   </g>
   <g id="text_21">
    <g clip-path="url(#p89d84c7776)">
     <!-- 1 -->
     <g transform="translate(96.2265 216.23685) scale(0.12 -0.12)">
      <use xlink:href="#DejaVuSans-31"/>
     </g>
    </g>
   </g>
   <g id="text_22">
    <g clip-path="url(#p89d84c7776)">
     <!-- 2 -->
     <g transform="translate(340.8033 243.25125) scale(0.12 -0.12)">
      <use xlink:href="#DejaVuSans-32"/>
     </g>
    </g>
   </g>
   <g id="text_23">
    <g clip-path="url(#p89d84c7776)">
     <!-- 3 -->
     <g transform="translate(362.5113 319.95285) scale(0.12 -0.12)">
      <use xlink:href="#DejaVuSans-33"/>
     </g>
    </g>
   </g>
   <g id="text_24">
    <g clip-path="url(#p89d84c7776)">
     <!-- 4 -->
     <g transform="translate(194.1537 353.23845) scale(0.12 -0.12)">
      <use xlink:href="#DejaVuSans-34"/>
     </g>
    </g>
   </g>
   <g id="text_25">
    <g clip-path="url(#p89d84c7776)">
     <!-- 5 -->
     <g transform="translate(467.1921 236.49765) scale(0.12 -0.12)">
      <use xlink:href="#DejaVuSans-35"/>
     </g>
    </g>
   </g>
   <g id="text_26">
    <g clip-path="url(#p89d84c7776)">
     <!-- 6 -->
     <g transform="translate(359.6169 190.18725) scale(0.12 -0.12)">
      <use xlink:href="#DejaVuSans-36"/>
     </g>
    </g>
   </g>
   <g id="text_27">
    <g clip-path="url(#p89d84c7776)">
     <!-- 7 -->
     <g transform="translate(431.0121 492.16965) scale(0.12 -0.12)">
      <use xlink:href="#DejaVuSans-37"/>
     </g>
    </g>
   </g>
   <g id="text_28">
    <g clip-path="url(#p89d84c7776)">
     <!-- 8 -->
     <g transform="translate(131.9241 213.34245) scale(0.12 -0.12)">
      <use xlink:href="#DejaVuSans-38"/>
     </g>
    </g>
   </g>
   <g id="text_29">
    <g clip-path="url(#p89d84c7776)">
     <!-- 9 -->
     <g transform="translate(462.8505 294.86805) scale(0.12 -0.12)">
      <use xlink:href="#DejaVuSans-39"/>
     </g>
    </g>
   </g>
   <g id="text_30">
    <g clip-path="url(#p89d84c7776)">
     <!-- 10 -->
     <g transform="translate(331.6794 17.48805) scale(0.12 -0.12)">
      <use xlink:href="#DejaVuSans-31"/>
      <use xlink:href="#DejaVuSans-30" x="63.623047"/>
     </g>
    </g>
   </g>
   <g id="text_31">
    <g clip-path="url(#p89d84c7776)">
     <!-- 11 -->
     <g transform="translate(162.8394 155.93685) scale(0.12 -0.12)">
      <use xlink:href="#DejaVuSans-31"/>
      <use xlink:href="#DejaVuSans-31" x="63.623047"/>
     </g>
    </g>
   </g>
   <g id="text_32">
    <g clip-path="url(#p89d84c7776)">
     <!-- 12 -->
     <g transform="translate(182.6178 207.07125) scale(0.12 -0.12)">
      <use xlink:href="#DejaVuSans-31"/>
      <use xlink:href="#DejaVuSans-32" x="63.623047"/>
     </g>
    </g>
   </g>
   <g id="text_33">
    <g clip-path="url(#p89d84c7776)">
     <!-- 13 -->
     <g transform="translate(256.9074 20.38245) scale(0.12 -0.12)">
      <use xlink:href="#DejaVuSans-31"/>
      <use xlink:href="#DejaVuSans-33" x="63.623047"/>
     </g>
    </g>
   </g>
   <g id="text_34">
    <g clip-path="url(#p89d84c7776)">
     <!-- 14 -->
     <g transform="translate(139.6842 465.63765) scale(0.12 -0.12)">
      <use xlink:href="#DejaVuSans-31"/>
      <use xlink:href="#DejaVuSans-34" x="63.623047"/>
     </g>
    </g>
   </g>
   <g id="text_35">
    <g clip-path="url(#p89d84c7776)">
     <!-- 15 -->
     <g transform="translate(380.8842 435.72885) scale(0.12 -0.12)">
      <use xlink:href="#DejaVuSans-31"/>
      <use xlink:href="#DejaVuSans-35" x="63.623047"/>
     </g>
    </g>
   </g>
   <g id="text_36">
    <g clip-path="url(#p89d84c7776)">
     <!-- 16 -->
     <g transform="translate(279.5802 379.28805) scale(0.12 -0.12)">
      <use xlink:href="#DejaVuSans-31"/>
      <use xlink:href="#DejaVuSans-36" x="63.623047"/>
     </g>
    </g>
   </g>
   <g id="text_37">
    <g clip-path="url(#p89d84c7776)">
     <!-- 17 -->
     <g transform="translate(143.5434 443.92965) scale(0.12 -0.12)">
      <use xlink:href="#DejaVuSans-31"/>
      <use xlink:href="#DejaVuSans-37" x="63.623047"/>
     </g>
    </g>
   </g>
  </g>
 </g>
 <defs>
  <clipPath id="p89d84c7776">
   <rect x="10.8" y="10.8" width="482.4" height="482.4"/>
  </clipPath>
 </defs>
</svg>
