<?xml version="1.0" encoding="utf-8" standalone="no"?>
<!DOCTYPE svg PUBLIC "-//W3C//DTD SVG 1.1//EN"
  "http://www.w3.org/Graphics/SVG/1.1/DTD/svg11.dtd">
<svg xmlns:xlink="http://www.w3.org/1999/xlink" width="504pt" height="504pt" viewBox="0 0 504 504" xmlns="http://www.w3.org/2000/svg" version="1.1">
 <metadata>
  <rdf:RDF xmlns:dc="http://purl.org/dc/elements/1.1/" xmlns:cc="http://creativecommons.org/ns#" xmlns:rdf="http://www.w3.org/1999/02/22-rdf-syntax-ns#">
   <cc:Work>
    <dc:type rdf:resource="http://purl.org/dc/dcmitype/StillImage"/>
    <dc:date>2024-10-29T14:59:40.647628</dc:date>
    <dc:format>image/svg+xml</dc:format>
    <dc:creator>
     <cc:Agent>
      <dc:title>Matplotlib v3.9.2, https://matplotlib.org/</dc:title>
     </cc:Agent>
    </dc:creator>
   </cc:Work>
  </rdf:RDF>
 </metadata>
 <defs>
  <style type="text/css">*{stroke-linejoin: round; stroke-linecap: butt}</style>
 </defs>
 <g id="figure_1">
  <g id="patch_1">
   <path d="M 0 504 
L 504 504 
L 504 0 
L 0 0 
L 0 504 
z
" style="fill: none; opacity: 0"/>
  </g>
  <g id="axes_1">
   <g id="patch_2">
    <path d="M 10.8 493.2 
L 493.2 493.2 
L 493.2 10.8 
L 10.8 10.8 
L 10.8 493.2 
z
" style="fill: none; opacity: 0"/>
   </g>
   <g id="LineCollection_1">
    <path d="M 123.1992 180.1224 
L 53.7336 90.396 
" clip-path="url(#pa06f35dc0c)" style="fill: none; stroke: #000000"/>
    <path d="M 123.1992 180.1224 
L 174.816 298.7928 
" clip-path="url(#pa06f35dc0c)" style="fill: none; stroke: #000000"/>
    <path d="M 123.1992 180.1224 
L 58.5576 443.5128 
" clip-path="url(#pa06f35dc0c)" style="fill: none; stroke: #000000"/>
    <path d="M 123.1992 180.1224 
L 210.996 427.1112 
" clip-path="url(#pa06f35dc0c)" style="fill: none; stroke: #000000"/>
    <path d="M 123.1992 180.1224 
L 32.0256 492.2352 
" clip-path="url(#pa06f35dc0c)" style="fill: none; stroke: #000000"/>
    <path d="M 123.1992 180.1224 
L 233.1864 223.056 
" clip-path="url(#pa06f35dc0c)" style="fill: none; stroke: #000000"/>
    <path d="M 123.1992 180.1224 
L 384.1776 143.9424 
" clip-path="url(#pa06f35dc0c)" style="fill: none; stroke: #000000"/>
    <path d="M 123.1992 180.1224 
L 278.532 200.8656 
" clip-path="url(#pa06f35dc0c)" style="fill: none; stroke: #000000"/>
    <path d="M 469.5624 287.2152 
L 384.1776 143.9424 
" clip-path="url(#pa06f35dc0c)" style="fill: none; stroke: #000000"/>
    <path d="M 469.5624 287.2152 
L 191.2176 137.6712 
" clip-path="url(#pa06f35dc0c)" style="fill: none; stroke: #000000"/>
    <path d="M 469.5624 287.2152 
L 60.4872 254.8944 
" clip-path="url(#pa06f35dc0c)" style="fill: none; stroke: #000000"/>
    <path d="M 469.5624 287.2152 
L 381.2832 149.7312 
" clip-path="url(#pa06f35dc0c)" style="fill: none; stroke: #000000"/>
    <path d="M 469.5624 287.2152 
L 58.5576 443.5128 
" clip-path="url(#pa06f35dc0c)" style="fill: none; stroke: #000000"/>
    <path d="M 469.5624 287.2152 
L 233.1864 223.056 
" clip-path="url(#pa06f35dc0c)" style="fill: none; stroke: #000000"/>
    <path d="M 469.5624 287.2152 
L 210.996 427.1112 
" clip-path="url(#pa06f35dc0c)" style="fill: none; stroke: #000000"/>
    <path d="M 185.9112 214.8552 
L 58.5576 443.5128 
" clip-path="url(#pa06f35dc0c)" style="fill: none; stroke: #000000"/>
    <path d="M 185.9112 214.8552 
L 191.2176 137.6712 
" clip-path="url(#pa06f35dc0c)" style="fill: none; stroke: #000000"/>
    <path d="M 185.9112 214.8552 
L 142.9776 425.664 
" clip-path="url(#pa06f35dc0c)" style="fill: none; stroke: #000000"/>
    <path d="M 185.9112 214.8552 
L 32.0256 492.2352 
" clip-path="url(#pa06f35dc0c)" style="fill: none; stroke: #000000"/>
    <path d="M 185.9112 214.8552 
L 278.532 200.8656 
" clip-path="url(#pa06f35dc0c)" style="fill: none; stroke: #000000"/>
    <path d="M 185.9112 214.8552 
L 381.2832 149.7312 
" clip-path="url(#pa06f35dc0c)" style="fill: none; stroke: #000000"/>
    <path d="M 185.9112 214.8552 
L 20.9304 145.3896 
" clip-path="url(#pa06f35dc0c)" style="fill: none; stroke: #000000"/>
    <path d="M 185.9112 214.8552 
L 233.1864 223.056 
" clip-path="url(#pa06f35dc0c)" style="fill: none; stroke: #000000"/>
    <path d="M 233.1864 223.056 
L 338.3496 463.2912 
" clip-path="url(#pa06f35dc0c)" style="fill: none; stroke: #000000"/>
    <path d="M 233.1864 223.056 
L 210.996 427.1112 
" clip-path="url(#pa06f35dc0c)" style="fill: none; stroke: #000000"/>
    <path d="M 233.1864 223.056 
L 58.5576 443.5128 
" clip-path="url(#pa06f35dc0c)" style="fill: none; stroke: #000000"/>
    <path d="M 233.1864 223.056 
L 53.7336 90.396 
" clip-path="url(#pa06f35dc0c)" style="fill: none; stroke: #000000"/>
    <path d="M 233.1864 223.056 
L 32.0256 492.2352 
" clip-path="url(#pa06f35dc0c)" style="fill: none; stroke: #000000"/>
    <path d="M 233.1864 223.056 
L 278.532 200.8656 
" clip-path="url(#pa06f35dc0c)" style="fill: none; stroke: #000000"/>
    <path d="M 233.1864 223.056 
L 60.4872 254.8944 
" clip-path="url(#pa06f35dc0c)" style="fill: none; stroke: #000000"/>
    <path d="M 233.1864 223.056 
L 174.816 298.7928 
" clip-path="url(#pa06f35dc0c)" style="fill: none; stroke: #000000"/>
    <path d="M 233.1864 223.056 
L 20.9304 145.3896 
" clip-path="url(#pa06f35dc0c)" style="fill: none; stroke: #000000"/>
    <path d="M 381.2832 149.7312 
L 278.532 200.8656 
" clip-path="url(#pa06f35dc0c)" style="fill: none; stroke: #000000"/>
    <path d="M 381.2832 149.7312 
L 142.9776 425.664 
" clip-path="url(#pa06f35dc0c)" style="fill: none; stroke: #000000"/>
    <path d="M 381.2832 149.7312 
L 60.4872 254.8944 
" clip-path="url(#pa06f35dc0c)" style="fill: none; stroke: #000000"/>
    <path d="M 381.2832 149.7312 
L 389.484 337.8672 
" clip-path="url(#pa06f35dc0c)" style="fill: none; stroke: #000000"/>
    <path d="M 381.2832 149.7312 
L 191.2176 137.6712 
" clip-path="url(#pa06f35dc0c)" style="fill: none; stroke: #000000"/>
    <path d="M 381.2832 149.7312 
L 58.5576 443.5128 
" clip-path="url(#pa06f35dc0c)" style="fill: none; stroke: #000000"/>
    <path d="M 381.2832 149.7312 
L 338.3496 463.2912 
" clip-path="url(#pa06f35dc0c)" style="fill: none; stroke: #000000"/>
    <path d="M 278.532 200.8656 
L 142.9776 425.664 
" clip-path="url(#pa06f35dc0c)" style="fill: none; stroke: #000000"/>
    <path d="M 278.532 200.8656 
L 338.3496 463.2912 
" clip-path="url(#pa06f35dc0c)" style="fill: none; stroke: #000000"/>
    <path d="M 278.532 200.8656 
L 60.4872 254.8944 
" clip-path="url(#pa06f35dc0c)" style="fill: none; stroke: #000000"/>
    <path d="M 278.532 200.8656 
L 191.2176 137.6712 
" clip-path="url(#pa06f35dc0c)" style="fill: none; stroke: #000000"/>
    <path d="M 278.532 200.8656 
L 32.0256 492.2352 
" clip-path="url(#pa06f35dc0c)" style="fill: none; stroke: #000000"/>
    <path d="M 278.532 200.8656 
L 20.9304 145.3896 
" clip-path="url(#pa06f35dc0c)" style="fill: none; stroke: #000000"/>
    <path d="M 142.9776 425.664 
L 338.3496 463.2912 
" clip-path="url(#pa06f35dc0c)" style="fill: none; stroke: #000000"/>
    <path d="M 142.9776 425.664 
L 58.5576 443.5128 
" clip-path="url(#pa06f35dc0c)" style="fill: none; stroke: #000000"/>
    <path d="M 142.9776 425.664 
L 53.7336 90.396 
" clip-path="url(#pa06f35dc0c)" style="fill: none; stroke: #000000"/>
    <path d="M 142.9776 425.664 
L 384.1776 143.9424 
" clip-path="url(#pa06f35dc0c)" style="fill: none; stroke: #000000"/>
    <path d="M 142.9776 425.664 
L 60.4872 254.8944 
" clip-path="url(#pa06f35dc0c)" style="fill: none; stroke: #000000"/>
    <path d="M 142.9776 425.664 
L 210.996 427.1112 
" clip-path="url(#pa06f35dc0c)" style="fill: none; stroke: #000000"/>
    <path d="M 142.9776 425.664 
L 20.9304 145.3896 
" clip-path="url(#pa06f35dc0c)" style="fill: none; stroke: #000000"/>
    <path d="M 389.484 337.8672 
L 53.7336 90.396 
" clip-path="url(#pa06f35dc0c)" style="fill: none; stroke: #000000"/>
    <path d="M 389.484 337.8672 
L 338.3496 463.2912 
" clip-path="url(#pa06f35dc0c)" style="fill: none; stroke: #000000"/>
    <path d="M 389.484 337.8672 
L 210.996 427.1112 
" clip-path="url(#pa06f35dc0c)" style="fill: none; stroke: #000000"/>
    <path d="M 389.484 337.8672 
L 20.9304 145.3896 
" clip-path="url(#pa06f35dc0c)" style="fill: none; stroke: #000000"/>
    <path d="M 32.0256 492.2352 
L 191.2176 137.6712 
" clip-path="url(#pa06f35dc0c)" style="fill: none; stroke: #000000"/>
    <path d="M 32.0256 492.2352 
L 174.816 298.7928 
" clip-path="url(#pa06f35dc0c)" style="fill: none; stroke: #000000"/>
    <path d="M 32.0256 492.2352 
L 338.3496 463.2912 
" clip-path="url(#pa06f35dc0c)" style="fill: none; stroke: #000000"/>
    <path d="M 338.3496 463.2912 
L 191.2176 137.6712 
" clip-path="url(#pa06f35dc0c)" style="fill: none; stroke: #000000"/>
    <path d="M 338.3496 463.2912 
L 60.4872 254.8944 
" clip-path="url(#pa06f35dc0c)" style="fill: none; stroke: #000000"/>
    <path d="M 338.3496 463.2912 
L 210.996 427.1112 
" clip-path="url(#pa06f35dc0c)" style="fill: none; stroke: #000000"/>
    <path d="M 338.3496 463.2912 
L 20.9304 145.3896 
" clip-path="url(#pa06f35dc0c)" style="fill: none; stroke: #000000"/>
    <path d="M 20.9304 145.3896 
L 174.816 298.7928 
" clip-path="url(#pa06f35dc0c)" style="fill: none; stroke: #000000"/>
    <path d="M 20.9304 145.3896 
L 191.2176 137.6712 
" clip-path="url(#pa06f35dc0c)" style="fill: none; stroke: #000000"/>
    <path d="M 384.1776 143.9424 
L 210.996 427.1112 
" clip-path="url(#pa06f35dc0c)" style="fill: none; stroke: #000000"/>
    <path d="M 384.1776 143.9424 
L 191.2176 137.6712 
" clip-path="url(#pa06f35dc0c)" style="fill: none; stroke: #000000"/>
    <path d="M 384.1776 143.9424 
L 60.4872 254.8944 
" clip-path="url(#pa06f35dc0c)" style="fill: none; stroke: #000000"/>
    <path d="M 384.1776 143.9424 
L 58.5576 443.5128 
" clip-path="url(#pa06f35dc0c)" style="fill: none; stroke: #000000"/>
    <path d="M 384.1776 143.9424 
L 53.7336 90.396 
" clip-path="url(#pa06f35dc0c)" style="fill: none; stroke: #000000"/>
    <path d="M 174.816 298.7928 
L 53.7336 90.396 
" clip-path="url(#pa06f35dc0c)" style="fill: none; stroke: #000000"/>
    <path d="M 174.816 298.7928 
L 60.4872 254.8944 
" clip-path="url(#pa06f35dc0c)" style="fill: none; stroke: #000000"/>
    <path d="M 174.816 298.7928 
L 58.5576 443.5128 
" clip-path="url(#pa06f35dc0c)" style="fill: none; stroke: #000000"/>
    <path d="M 58.5576 443.5128 
L 53.7336 90.396 
" clip-path="url(#pa06f35dc0c)" style="fill: none; stroke: #000000"/>
    <path d="M 58.5576 443.5128 
L 210.996 427.1112 
" clip-path="url(#pa06f35dc0c)" style="fill: none; stroke: #000000"/>
    <path d="M 210.996 427.1112 
L 53.7336 90.396 
" clip-path="url(#pa06f35dc0c)" style="fill: none; stroke: #000000"/>
   </g>
   <g id="text_1">
    <g id="patch_3">
     <path d="M 78.372269 135.026249 
L 86.162172 145.088208 
Q 87.998692 147.460379 90.370863 145.623859 
L 98.023586 139.699171 
Q 100.395757 137.862651 98.559238 135.49048 
L 90.769334 125.428521 
Q 88.932814 123.05635 86.560643 124.892869 
L 78.90792 130.817558 
Q 76.535749 132.654078 78.372269 135.026249 
z
" clip-path="url(#pa06f35dc0c)" style="fill: #ffffff; stroke: #ffffff; stroke-linejoin: miter"/>
    </g>
    <g clip-path="url(#pa06f35dc0c)">
     <!-- 11 -->
     <g transform="translate(82.388898 131.9166) rotate(-307.746805) scale(0.1 -0.1)">
      <defs>
       <path id="DejaVuSans-31" d="M 794 531 
L 1825 531 
L 1825 4091 
L 703 3866 
L 703 4441 
L 1819 4666 
L 2450 4666 
L 2450 531 
L 3481 531 
L 3481 0 
L 794 0 
L 794 531 
z
" transform="scale(0.015625)"/>
      </defs>
      <use xlink:href="#DejaVuSans-31"/>
      <use xlink:href="#DejaVuSans-31" x="63.623047"/>
     </g>
    </g>
   </g>
   <g id="text_2">
    <g id="patch_4">
     <path d="M 139.280814 236.748633 
L 144.356338 248.417595 
Q 145.552925 251.168627 148.303958 249.97204 
L 157.178903 246.1118 
Q 159.929935 244.915212 158.733348 242.16418 
L 153.657824 230.495218 
Q 152.461236 227.744185 149.710204 228.940773 
L 140.835259 232.801013 
Q 138.084227 233.9976 139.280814 236.748633 
z
" clip-path="url(#pa06f35dc0c)" style="fill: #ffffff; stroke: #ffffff; stroke-linejoin: miter"/>
    </g>
    <g clip-path="url(#pa06f35dc0c)">
     <!-- 18 -->
     <g transform="translate(143.938942 234.722536) rotate(-293.507082) scale(0.1 -0.1)">
      <defs>
       <path id="DejaVuSans-38" d="M 2034 2216 
Q 1584 2216 1326 1975 
Q 1069 1734 1069 1313 
Q 1069 891 1326 650 
Q 1584 409 2034 409 
Q 2484 409 2743 651 
Q 3003 894 3003 1313 
Q 3003 1734 2745 1975 
Q 2488 2216 2034 2216 
z
M 1403 2484 
Q 997 2584 770 2862 
Q 544 3141 544 3541 
Q 544 4100 942 4425 
Q 1341 4750 2034 4750 
Q 2731 4750 3128 4425 
Q 3525 4100 3525 3541 
Q 3525 3141 3298 2862 
Q 3072 2584 2669 2484 
Q 3125 2378 3379 2068 
Q 3634 1759 3634 1313 
Q 3634 634 3220 271 
Q 2806 -91 2034 -91 
Q 1263 -91 848 271 
Q 434 634 434 1313 
Q 434 1759 690 2068 
Q 947 2378 1403 2484 
z
M 1172 3481 
Q 1172 3119 1398 2916 
Q 1625 2713 2034 2713 
Q 2441 2713 2670 2916 
Q 2900 3119 2900 3481 
Q 2900 3844 2670 4047 
Q 2441 4250 2034 4250 
Q 1625 4250 1398 4047 
Q 1172 3844 1172 3481 
z
" transform="scale(0.015625)"/>
      </defs>
      <use xlink:href="#DejaVuSans-31"/>
      <use xlink:href="#DejaVuSans-38" x="63.623047"/>
     </g>
    </g>
   </g>
   <g id="text_3">
    <g id="patch_5">
     <path d="M 96.974548 319.867197 
L 100.007528 307.508935 
Q 100.722573 304.595395 97.809034 303.880351 
L 88.409834 301.573588 
Q 85.496295 300.858543 84.781251 303.772082 
L 81.74827 316.130345 
Q 81.033226 319.043884 83.946765 319.758929 
L 93.345964 322.065692 
Q 96.259504 322.780737 96.974548 319.867197 
z
" clip-path="url(#pa06f35dc0c)" style="fill: #ffffff; stroke: #ffffff; stroke-linejoin: miter"/>
    </g>
    <g clip-path="url(#pa06f35dc0c)">
     <!-- 11 -->
     <g transform="translate(92.041258 318.656463) rotate(-76.210933) scale(0.1 -0.1)">
      <use xlink:href="#DejaVuSans-31"/>
      <use xlink:href="#DejaVuSans-31" x="63.623047"/>
     </g>
    </g>
   </g>
   <g id="text_4">
    <g id="patch_6">
     <path d="M 157.580258 300.247323 
L 161.842332 312.237334 
Q 162.847143 315.064055 165.673865 314.059244 
L 174.792986 310.817681 
Q 177.619708 309.81287 176.614896 306.986149 
L 172.352822 294.996138 
Q 171.348011 292.169417 168.52129 293.174228 
L 159.402168 296.415791 
Q 156.575447 297.420602 157.580258 300.247323 
z
" clip-path="url(#pa06f35dc0c)" style="fill: #ffffff; stroke: #ffffff; stroke-linejoin: miter"/>
    </g>
    <g clip-path="url(#pa06f35dc0c)">
     <!-- 15 -->
     <g transform="translate(162.366545 298.545948) rotate(-289.56871) scale(0.1 -0.1)">
      <defs>
       <path id="DejaVuSans-35" d="M 691 4666 
L 3169 4666 
L 3169 4134 
L 1269 4134 
L 1269 2991 
Q 1406 3038 1543 3061 
Q 1681 3084 1819 3084 
Q 2600 3084 3056 2656 
Q 3513 2228 3513 1497 
Q 3513 744 3044 326 
Q 2575 -91 1722 -91 
Q 1428 -91 1123 -41 
Q 819 9 494 109 
L 494 744 
Q 775 591 1075 516 
Q 1375 441 1709 441 
Q 2250 441 2565 725 
Q 2881 1009 2881 1497 
Q 2881 1984 2565 2268 
Q 2250 2553 1709 2553 
Q 1456 2553 1204 2497 
Q 953 2441 691 2322 
L 691 4666 
z
" transform="scale(0.015625)"/>
      </defs>
      <use xlink:href="#DejaVuSans-31"/>
      <use xlink:href="#DejaVuSans-35" x="63.623047"/>
     </g>
    </g>
   </g>
   <g id="text_5">
    <g id="patch_7">
     <path d="M 83.35313 344.483507 
L 86.921205 332.268988 
Q 87.762401 329.389338 84.88275 328.548141 
L 75.592877 325.834407 
Q 72.713226 324.993211 71.872029 327.872862 
L 68.303955 340.08738 
Q 67.462759 342.967031 70.34241 343.808227 
L 79.632283 346.521962 
Q 82.511934 347.363158 83.35313 344.483507 
z
" clip-path="url(#pa06f35dc0c)" style="fill: #ffffff; stroke: #ffffff; stroke-linejoin: miter"/>
    </g>
    <g clip-path="url(#pa06f35dc0c)">
     <!-- 13 -->
     <g transform="translate(78.477222 343.059169) rotate(-73.715994) scale(0.1 -0.1)">
      <defs>
       <path id="DejaVuSans-33" d="M 2597 2516 
Q 3050 2419 3304 2112 
Q 3559 1806 3559 1356 
Q 3559 666 3084 287 
Q 2609 -91 1734 -91 
Q 1441 -91 1130 -33 
Q 819 25 488 141 
L 488 750 
Q 750 597 1062 519 
Q 1375 441 1716 441 
Q 2309 441 2620 675 
Q 2931 909 2931 1356 
Q 2931 1769 2642 2001 
Q 2353 2234 1838 2234 
L 1294 2234 
L 1294 2753 
L 1863 2753 
Q 2328 2753 2575 2939 
Q 2822 3125 2822 3475 
Q 2822 3834 2567 4026 
Q 2313 4219 1838 4219 
Q 1578 4219 1281 4162 
Q 984 4106 628 3988 
L 628 4550 
Q 988 4650 1302 4700 
Q 1616 4750 1894 4750 
Q 2613 4750 3031 4423 
Q 3450 4097 3450 3541 
Q 3450 3153 3228 2886 
Q 3006 2619 2597 2516 
z
" transform="scale(0.015625)"/>
      </defs>
      <use xlink:href="#DejaVuSans-31"/>
      <use xlink:href="#DejaVuSans-33" x="63.623047"/>
     </g>
    </g>
   </g>
   <g id="text_6">
    <g id="patch_8">
     <path d="M 172.379075 207.734937 
L 178.306023 210.048526 
Q 181.100654 211.139413 182.191541 208.344782 
L 185.710788 199.329184 
Q 186.801675 196.534552 184.007043 195.443665 
L 178.080095 193.130076 
Q 175.285464 192.039189 174.194577 194.833821 
L 170.67533 203.849419 
Q 169.584443 206.64405 172.379075 207.734937 
z
" clip-path="url(#pa06f35dc0c)" style="fill: #ffffff; stroke: #ffffff; stroke-linejoin: miter"/>
    </g>
    <g clip-path="url(#pa06f35dc0c)">
     <!-- 7 -->
     <g transform="translate(174.226197 203.002985) rotate(-338.676769) scale(0.1 -0.1)">
      <defs>
       <path id="DejaVuSans-37" d="M 525 4666 
L 3525 4666 
L 3525 4397 
L 1831 0 
L 1172 0 
L 2766 4134 
L 525 4134 
L 525 4666 
z
" transform="scale(0.015625)"/>
      </defs>
      <use xlink:href="#DejaVuSans-37"/>
     </g>
    </g>
   </g>
   <g id="text_7">
    <g id="patch_9">
     <path d="M 251.616186 170.233708 
L 257.918414 169.360017 
Q 260.889994 168.94806 260.478038 165.97648 
L 259.149048 156.390037 
Q 258.737092 153.418456 255.765511 153.830413 
L 249.463284 154.704104 
Q 246.491703 155.116061 246.90366 158.087641 
L 248.232649 167.674084 
Q 248.644606 170.645665 251.616186 170.233708 
z
" clip-path="url(#pa06f35dc0c)" style="fill: #ffffff; stroke: #ffffff; stroke-linejoin: miter"/>
    </g>
    <g clip-path="url(#pa06f35dc0c)">
     <!-- 5 -->
     <g transform="translate(250.918649 165.202141) rotate(-7.892731) scale(0.1 -0.1)">
      <use xlink:href="#DejaVuSans-35"/>
     </g>
    </g>
   </g>
   <g id="text_8">
    <g id="patch_10">
     <path d="M 196.674597 197.842983 
L 202.981113 198.685157 
Q 205.954716 199.082253 206.351812 196.10865 
L 207.632861 186.515683 
Q 208.029957 183.54208 205.056354 183.144984 
L 198.749838 182.30281 
Q 195.776235 181.905713 195.379139 184.879316 
L 194.09809 194.472284 
Q 193.700994 197.445887 196.674597 197.842983 
z
" clip-path="url(#pa06f35dc0c)" style="fill: #ffffff; stroke: #ffffff; stroke-linejoin: miter"/>
    </g>
    <g clip-path="url(#pa06f35dc0c)">
     <!-- 8 -->
     <g transform="translate(197.346972 192.807991) rotate(-352.393702) scale(0.1 -0.1)">
      <use xlink:href="#DejaVuSans-38"/>
     </g>
    </g>
   </g>
   <g id="text_9">
    <g id="patch_11">
     <path d="M 416.879241 214.127065 
L 423.393695 225.058099 
Q 424.92952 227.63516 427.506581 226.099336 
L 435.820287 221.144703 
Q 438.397348 219.608879 436.861524 217.031818 
L 430.347069 206.100784 
Q 428.811245 203.523723 426.234184 205.059547 
L 417.920478 210.01418 
Q 415.343416 211.550004 416.879241 214.127065 
z
" clip-path="url(#pa06f35dc0c)" style="fill: #ffffff; stroke: #ffffff; stroke-linejoin: miter"/>
    </g>
    <g clip-path="url(#pa06f35dc0c)">
     <!-- 15 -->
     <g transform="translate(421.242796 211.526563) rotate(-300.793234) scale(0.1 -0.1)">
      <use xlink:href="#DejaVuSans-31"/>
      <use xlink:href="#DejaVuSans-35" x="63.623047"/>
     </g>
    </g>
   </g>
   <g id="text_10">
    <g id="patch_12">
     <path d="M 323.876156 217.842365 
L 329.480958 220.853611 
Q 332.123694 222.273451 333.543535 219.630716 
L 338.124 211.10514 
Q 339.543841 208.462404 336.901105 207.042563 
L 331.296303 204.031318 
Q 328.653567 202.611477 327.233726 205.254213 
L 322.653261 213.779789 
Q 321.23342 216.422524 323.876156 217.842365 
z
" clip-path="url(#pa06f35dc0c)" style="fill: #ffffff; stroke: #ffffff; stroke-linejoin: miter"/>
    </g>
    <g clip-path="url(#pa06f35dc0c)">
     <!-- 8 -->
     <g transform="translate(326.280272 213.367608) rotate(-331.752565) scale(0.1 -0.1)">
      <use xlink:href="#DejaVuSans-38"/>
     </g>
    </g>
   </g>
   <g id="text_11">
    <g id="patch_13">
     <path d="M 261.233443 278.618739 
L 267.576176 279.119875 
Q 270.566856 279.356167 270.803148 276.365487 
L 271.565436 266.717429 
Q 271.801727 263.726749 268.811048 263.490457 
L 262.468314 262.989321 
Q 259.477634 262.753029 259.241342 265.743709 
L 258.479055 275.391767 
Q 258.242763 278.382447 261.233443 278.618739 
z
" clip-path="url(#pa06f35dc0c)" style="fill: #ffffff; stroke: #ffffff; stroke-linejoin: miter"/>
    </g>
    <g clip-path="url(#pa06f35dc0c)">
     <!-- 3 -->
     <g transform="translate(261.633539 273.554833) rotate(-355.482477) scale(0.1 -0.1)">
      <use xlink:href="#DejaVuSans-33"/>
     </g>
    </g>
   </g>
   <g id="text_12">
    <g id="patch_14">
     <path d="M 417.108615 220.033337 
L 420.546336 225.387165 
Q 422.167266 227.911563 424.691664 226.290634 
L 432.835479 221.061448 
Q 435.359877 219.440518 433.738948 216.91612 
L 430.301226 211.562291 
Q 428.680297 209.037893 426.155898 210.658822 
L 418.012084 215.888009 
Q 415.487685 217.508938 417.108615 220.033337 
z
" clip-path="url(#pa06f35dc0c)" style="fill: #ffffff; stroke: #ffffff; stroke-linejoin: miter"/>
    </g>
    <g clip-path="url(#pa06f35dc0c)">
     <!-- 8 -->
     <g transform="translate(421.383 217.288731) rotate(-302.704734) scale(0.1 -0.1)">
      <use xlink:href="#DejaVuSans-38"/>
     </g>
    </g>
   </g>
   <g id="text_13">
    <g id="patch_15">
     <path d="M 263.873115 373.821819 
L 269.820119 371.560282 
Q 272.624207 370.493939 271.557864 367.68985 
L 268.117795 358.643744 
Q 267.051452 355.839656 264.247363 356.905999 
L 258.300359 359.167536 
Q 255.496271 360.23388 256.562614 363.037968 
L 260.002683 372.084074 
Q 261.069026 374.888162 263.873115 373.821819 
z
" clip-path="url(#pa06f35dc0c)" style="fill: #ffffff; stroke: #ffffff; stroke-linejoin: miter"/>
    </g>
    <g clip-path="url(#pa06f35dc0c)">
     <!-- 4 -->
     <g transform="translate(262.067551 369.073855) rotate(-20.820893) scale(0.1 -0.1)">
      <defs>
       <path id="DejaVuSans-34" d="M 2419 4116 
L 825 1625 
L 2419 1625 
L 2419 4116 
z
M 2253 4666 
L 3047 4666 
L 3047 1625 
L 3713 1625 
L 3713 1100 
L 3047 1100 
L 3047 0 
L 2419 0 
L 2419 1100 
L 313 1100 
L 313 1709 
L 2253 4666 
z
" transform="scale(0.015625)"/>
      </defs>
      <use xlink:href="#DejaVuSans-34"/>
     </g>
    </g>
   </g>
   <g id="text_14">
    <g id="patch_16">
     <path d="M 343.182504 261.034782 
L 355.463163 264.368104 
Q 358.358407 265.153956 359.144259 262.258712 
L 361.67945 252.918535 
Q 362.465302 250.023291 359.570058 249.237439 
L 347.289398 245.904117 
Q 344.394155 245.118265 343.608303 248.013509 
L 341.073112 257.353686 
Q 340.28726 260.24893 343.182504 261.034782 
z
" clip-path="url(#pa06f35dc0c)" style="fill: #ffffff; stroke: #ffffff; stroke-linejoin: miter"/>
    </g>
    <g clip-path="url(#pa06f35dc0c)">
     <!-- 18 -->
     <g transform="translate(344.513131 256.132471) rotate(-344.814163) scale(0.1 -0.1)">
      <use xlink:href="#DejaVuSans-31"/>
      <use xlink:href="#DejaVuSans-38" x="63.623047"/>
     </g>
    </g>
   </g>
   <g id="text_15">
    <g id="patch_17">
     <path d="M 341.210328 365.572296 
L 346.80628 362.544635 
Q 349.444842 361.117055 348.017262 358.478492 
L 343.411827 349.966378 
Q 341.984247 347.327816 339.345684 348.755396 
L 333.749732 351.783057 
Q 331.111169 353.210637 332.53875 355.8492 
L 337.144184 364.361314 
Q 338.571765 366.999877 341.210328 365.572296 
z
" clip-path="url(#pa06f35dc0c)" style="fill: #ffffff; stroke: #ffffff; stroke-linejoin: miter"/>
    </g>
    <g clip-path="url(#pa06f35dc0c)">
     <!-- 7 -->
     <g transform="translate(338.793107 361.104604) rotate(-28.415373) scale(0.1 -0.1)">
      <use xlink:href="#DejaVuSans-37"/>
     </g>
    </g>
   </g>
   <g id="text_16">
    <g id="patch_18">
     <path d="M 127.534714 335.778005 
L 130.63059 330.219502 
Q 132.090335 327.598596 129.469429 326.138852 
L 121.014279 321.429654 
Q 118.393374 319.969909 116.933629 322.590815 
L 113.837754 328.149318 
Q 112.378009 330.770224 114.998914 332.229968 
L 123.454064 336.939166 
Q 126.07497 338.398911 127.534714 335.778005 
z
" clip-path="url(#pa06f35dc0c)" style="fill: #ffffff; stroke: #ffffff; stroke-linejoin: miter"/>
    </g>
    <g clip-path="url(#pa06f35dc0c)">
     <!-- 8 -->
     <g transform="translate(123.096921 333.306323) rotate(-60.883854) scale(0.1 -0.1)">
      <use xlink:href="#DejaVuSans-38"/>
     </g>
    </g>
   </g>
   <g id="text_17">
    <g id="patch_19">
     <path d="M 195.948817 183.14537 
L 196.821601 170.450337 
Q 197.027365 167.457402 194.03443 167.251638 
L 184.379096 166.587833 
Q 181.386161 166.382069 181.180397 169.375004 
L 180.307613 182.070038 
Q 180.101849 185.062973 183.094784 185.268737 
L 192.750118 185.932541 
Q 195.743053 186.138306 195.948817 183.14537 
z
" clip-path="url(#pa06f35dc0c)" style="fill: #ffffff; stroke: #ffffff; stroke-linejoin: miter"/>
    </g>
    <g clip-path="url(#pa06f35dc0c)">
     <!-- 15 -->
     <g transform="translate(190.881092 182.796964) rotate(-86.067104) scale(0.1 -0.1)">
      <use xlink:href="#DejaVuSans-31"/>
      <use xlink:href="#DejaVuSans-35" x="63.623047"/>
     </g>
    </g>
   </g>
   <g id="text_18">
    <g id="patch_20">
     <path d="M 170.855819 328.059636 
L 173.395279 315.590604 
Q 173.993973 312.65095 171.054319 312.052256 
L 161.570872 310.120844 
Q 158.631218 309.522151 158.032525 312.461805 
L 155.493065 324.930837 
Q 154.894371 327.870491 157.834025 328.469185 
L 167.317471 330.400596 
Q 170.257125 330.99929 170.855819 328.059636 
z
" clip-path="url(#pa06f35dc0c)" style="fill: #ffffff; stroke: #ffffff; stroke-linejoin: miter"/>
    </g>
    <g clip-path="url(#pa06f35dc0c)">
     <!-- 16 -->
     <g transform="translate(165.878311 327.04591) rotate(-78.4885) scale(0.1 -0.1)">
      <defs>
       <path id="DejaVuSans-36" d="M 2113 2584 
Q 1688 2584 1439 2293 
Q 1191 2003 1191 1497 
Q 1191 994 1439 701 
Q 1688 409 2113 409 
Q 2538 409 2786 701 
Q 3034 994 3034 1497 
Q 3034 2003 2786 2293 
Q 2538 2584 2113 2584 
z
M 3366 4563 
L 3366 3988 
Q 3128 4100 2886 4159 
Q 2644 4219 2406 4219 
Q 1781 4219 1451 3797 
Q 1122 3375 1075 2522 
Q 1259 2794 1537 2939 
Q 1816 3084 2150 3084 
Q 2853 3084 3261 2657 
Q 3669 2231 3669 1497 
Q 3669 778 3244 343 
Q 2819 -91 2113 -91 
Q 1303 -91 875 529 
Q 447 1150 447 2328 
Q 447 3434 972 4092 
Q 1497 4750 2381 4750 
Q 2619 4750 2861 4703 
Q 3103 4656 3366 4563 
z
" transform="scale(0.015625)"/>
      </defs>
      <use xlink:href="#DejaVuSans-31"/>
      <use xlink:href="#DejaVuSans-36" x="63.623047"/>
     </g>
    </g>
   </g>
   <g id="text_19">
    <g id="patch_21">
     <path d="M 112.736369 362.912211 
L 118.909602 351.784911 
Q 120.364981 349.161579 117.741649 347.7062 
L 109.27867 343.011086 
Q 106.655338 341.555707 105.199959 344.179039 
L 99.026726 355.30634 
Q 97.571347 357.929672 100.194679 359.385051 
L 108.657658 364.080165 
Q 111.28099 365.535544 112.736369 362.912211 
z
" clip-path="url(#pa06f35dc0c)" style="fill: #ffffff; stroke: #ffffff; stroke-linejoin: miter"/>
    </g>
    <g clip-path="url(#pa06f35dc0c)">
     <!-- 12 -->
     <g transform="translate(108.294467 360.447921) rotate(-60.979249) scale(0.1 -0.1)">
      <defs>
       <path id="DejaVuSans-32" d="M 1228 531 
L 3431 531 
L 3431 0 
L 469 0 
L 469 531 
Q 828 903 1448 1529 
Q 2069 2156 2228 2338 
Q 2531 2678 2651 2914 
Q 2772 3150 2772 3378 
Q 2772 3750 2511 3984 
Q 2250 4219 1831 4219 
Q 1534 4219 1204 4116 
Q 875 4013 500 3803 
L 500 4441 
Q 881 4594 1212 4672 
Q 1544 4750 1819 4750 
Q 2544 4750 2975 4387 
Q 3406 4025 3406 3419 
Q 3406 3131 3298 2873 
Q 3191 2616 2906 2266 
Q 2828 2175 2409 1742 
Q 1991 1309 1228 531 
z
" transform="scale(0.015625)"/>
      </defs>
      <use xlink:href="#DejaVuSans-31"/>
      <use xlink:href="#DejaVuSans-32" x="63.623047"/>
     </g>
    </g>
   </g>
   <g id="text_20">
    <g id="patch_22">
     <path d="M 227.099295 216.562058 
L 239.68158 214.661609 
Q 242.647935 214.213566 242.199892 211.247212 
L 240.754486 201.677629 
Q 240.306443 198.711275 237.340089 199.159318 
L 224.757803 201.059768 
Q 221.791448 201.507811 222.239492 204.474165 
L 223.684897 214.043747 
Q 224.13294 217.010101 227.099295 216.562058 
z
" clip-path="url(#pa06f35dc0c)" style="fill: #ffffff; stroke: #ffffff; stroke-linejoin: miter"/>
    </g>
    <g clip-path="url(#pa06f35dc0c)">
     <!-- 14 -->
     <g transform="translate(226.340655 211.539341) rotate(-8.589126) scale(0.1 -0.1)">
      <use xlink:href="#DejaVuSans-31"/>
      <use xlink:href="#DejaVuSans-34" x="63.623047"/>
     </g>
    </g>
   </g>
   <g id="text_21">
    <g id="patch_23">
     <path d="M 283.056555 190.736512 
L 289.092553 188.724513 
Q 291.938603 187.77583 290.989919 184.92978 
L 287.929428 175.748304 
Q 286.980744 172.902255 284.134694 173.850938 
L 278.098697 175.862937 
Q 275.252647 176.81162 276.20133 179.65767 
L 279.261822 188.839146 
Q 280.210505 191.685196 283.056555 190.736512 
z
" clip-path="url(#pa06f35dc0c)" style="fill: #ffffff; stroke: #ffffff; stroke-linejoin: miter"/>
    </g>
    <g clip-path="url(#pa06f35dc0c)">
     <!-- 7 -->
     <g transform="translate(281.450217 185.917498) rotate(-18.434949) scale(0.1 -0.1)">
      <use xlink:href="#DejaVuSans-37"/>
     </g>
    </g>
   </g>
   <g id="text_22">
    <g id="patch_24">
     <path d="M 94.513416 184.877523 
L 106.241226 189.815549 
Q 109.006132 190.97972 110.170303 188.214813 
L 113.925967 179.295111 
Q 115.090138 176.530205 112.325232 175.366034 
L 100.597422 170.428009 
Q 97.832516 169.263838 96.668345 172.028744 
L 92.912681 180.948446 
Q 91.74851 183.713352 94.513416 184.877523 
z
" clip-path="url(#pa06f35dc0c)" style="fill: #ffffff; stroke: #ffffff; stroke-linejoin: miter"/>
    </g>
    <g clip-path="url(#pa06f35dc0c)">
     <!-- 18 -->
     <g transform="translate(96.484624 180.195904) rotate(-337.166346) scale(0.1 -0.1)">
      <use xlink:href="#DejaVuSans-31"/>
      <use xlink:href="#DejaVuSans-38" x="63.623047"/>
     </g>
    </g>
   </g>
   <g id="text_23">
    <g id="patch_25">
     <path d="M 201.937982 225.591489 
L 214.475739 227.766406 
Q 217.431595 228.279157 217.944346 225.323301 
L 219.598501 215.787585 
Q 220.111251 212.831729 217.155395 212.318978 
L 204.617638 210.144061 
Q 201.661781 209.63131 201.149031 212.587167 
L 199.494876 222.122882 
Q 198.982125 225.078739 201.937982 225.591489 
z
" clip-path="url(#pa06f35dc0c)" style="fill: #ffffff; stroke: #ffffff; stroke-linejoin: miter"/>
    </g>
    <g clip-path="url(#pa06f35dc0c)">
     <!-- 16 -->
     <g transform="translate(202.806186 220.586547) rotate(-350.158868) scale(0.1 -0.1)">
      <use xlink:href="#DejaVuSans-31"/>
      <use xlink:href="#DejaVuSans-36" x="63.623047"/>
     </g>
    </g>
   </g>
   <g id="text_24">
    <g id="patch_26">
     <path d="M 277.311101 343.402838 
L 279.862539 349.231351 
Q 281.065574 351.97957 283.813793 350.776534 
L 292.679661 346.895492 
Q 295.42788 345.692456 294.224844 342.944238 
L 291.673406 337.115724 
Q 290.470371 334.367505 287.722152 335.570541 
L 278.856284 339.451583 
Q 276.108066 340.654619 277.311101 343.402838 
z
" clip-path="url(#pa06f35dc0c)" style="fill: #ffffff; stroke: #ffffff; stroke-linejoin: miter"/>
    </g>
    <g clip-path="url(#pa06f35dc0c)">
     <!-- 9 -->
     <g transform="translate(281.964465 341.365823) rotate(-293.641448) scale(0.1 -0.1)">
      <defs>
       <path id="DejaVuSans-39" d="M 703 97 
L 703 672 
Q 941 559 1184 500 
Q 1428 441 1663 441 
Q 2288 441 2617 861 
Q 2947 1281 2994 2138 
Q 2813 1869 2534 1725 
Q 2256 1581 1919 1581 
Q 1219 1581 811 2004 
Q 403 2428 403 3163 
Q 403 3881 828 4315 
Q 1253 4750 1959 4750 
Q 2769 4750 3195 4129 
Q 3622 3509 3622 2328 
Q 3622 1225 3098 567 
Q 2575 -91 1691 -91 
Q 1453 -91 1209 -44 
Q 966 3 703 97 
z
M 1959 2075 
Q 2384 2075 2632 2365 
Q 2881 2656 2881 3163 
Q 2881 3666 2632 3958 
Q 2384 4250 1959 4250 
Q 1534 4250 1286 3958 
Q 1038 3666 1038 3163 
Q 1038 2656 1286 2365 
Q 1534 2075 1959 2075 
z
" transform="scale(0.015625)"/>
      </defs>
      <use xlink:href="#DejaVuSans-39"/>
     </g>
    </g>
   </g>
   <g id="text_25">
    <g id="patch_27">
     <path d="M 229.196503 332.255983 
L 230.572199 319.605564 
Q 230.896528 316.623147 227.914111 316.298818 
L 218.292709 315.252519 
Q 215.310292 314.92819 214.985963 317.910607 
L 213.610268 330.561026 
Q 213.285939 333.543443 216.268356 333.867772 
L 225.889757 334.914071 
Q 228.872174 335.2384 229.196503 332.255983 
z
" clip-path="url(#pa06f35dc0c)" style="fill: #ffffff; stroke: #ffffff; stroke-linejoin: miter"/>
    </g>
    <g clip-path="url(#pa06f35dc0c)">
     <!-- 14 -->
     <g transform="translate(224.146588 331.706819) rotate(-83.793642) scale(0.1 -0.1)">
      <use xlink:href="#DejaVuSans-31"/>
      <use xlink:href="#DejaVuSans-34" x="63.623047"/>
     </g>
    </g>
   </g>
   <g id="text_26">
    <g id="patch_28">
     <path d="M 148.065972 343.139525 
L 155.967212 333.164755 
Q 157.829979 330.81314 155.478364 328.950372 
L 147.891954 322.941006 
Q 145.540338 321.078238 143.67757 323.429853 
L 135.77633 333.404623 
Q 133.913562 335.756239 136.265178 337.619007 
L 143.851588 343.628373 
Q 146.203204 345.491141 148.065972 343.139525 
z
" clip-path="url(#pa06f35dc0c)" style="fill: #ffffff; stroke: #ffffff; stroke-linejoin: miter"/>
    </g>
    <g clip-path="url(#pa06f35dc0c)">
     <!-- 14 -->
     <g transform="translate(144.084147 339.985432) rotate(-51.616462) scale(0.1 -0.1)">
      <use xlink:href="#DejaVuSans-31"/>
      <use xlink:href="#DejaVuSans-34" x="63.623047"/>
     </g>
    </g>
   </g>
   <g id="text_27">
    <g id="patch_29">
     <path d="M 133.682902 159.246793 
L 143.915471 166.811193 
Q 146.327865 168.594548 148.111221 166.182155 
L 153.8644 158.399672 
Q 155.647755 155.987279 153.235362 154.203923 
L 143.002792 146.639523 
Q 140.590398 144.856168 138.807043 147.268562 
L 133.053864 155.051044 
Q 131.270508 157.463438 133.682902 159.246793 
z
" clip-path="url(#pa06f35dc0c)" style="fill: #ffffff; stroke: #ffffff; stroke-linejoin: miter"/>
    </g>
    <g clip-path="url(#pa06f35dc0c)">
     <!-- 10 -->
     <g transform="translate(136.702531 155.162058) rotate(-323.526435) scale(0.1 -0.1)">
      <defs>
       <path id="DejaVuSans-30" d="M 2034 4250 
Q 1547 4250 1301 3770 
Q 1056 3291 1056 2328 
Q 1056 1369 1301 889 
Q 1547 409 2034 409 
Q 2525 409 2770 889 
Q 3016 1369 3016 2328 
Q 3016 3291 2770 3770 
Q 2525 4250 2034 4250 
z
M 2034 4750 
Q 2819 4750 3233 4129 
Q 3647 3509 3647 2328 
Q 3647 1150 3233 529 
Q 2819 -91 2034 -91 
Q 1250 -91 836 529 
Q 422 1150 422 2328 
Q 422 3509 836 4129 
Q 1250 4750 2034 4750 
z
" transform="scale(0.015625)"/>
      </defs>
      <use xlink:href="#DejaVuSans-31"/>
      <use xlink:href="#DejaVuSans-30" x="63.623047"/>
     </g>
    </g>
   </g>
   <g id="text_28">
    <g id="patch_30">
     <path d="M 135.076387 367.435104 
L 142.693839 357.241966 
Q 144.489702 354.838869 142.086605 353.043006 
L 134.334113 347.249477 
Q 131.931016 345.453614 130.135153 347.856712 
L 122.517701 358.049849 
Q 120.721838 360.452946 123.124935 362.248809 
L 130.877427 368.042338 
Q 133.280524 369.838201 135.076387 367.435104 
z
" clip-path="url(#pa06f35dc0c)" style="fill: #ffffff; stroke: #ffffff; stroke-linejoin: miter"/>
    </g>
    <g clip-path="url(#pa06f35dc0c)">
     <!-- 19 -->
     <g transform="translate(131.007393 364.394296) rotate(-53.228803) scale(0.1 -0.1)">
      <use xlink:href="#DejaVuSans-31"/>
      <use xlink:href="#DejaVuSans-39" x="63.623047"/>
     </g>
    </g>
   </g>
   <g id="text_29">
    <g id="patch_31">
     <path d="M 256.447619 220.400212 
L 262.162523 217.603557 
Q 264.857173 216.284899 263.538515 213.590248 
L 259.284467 204.897195 
Q 257.965809 202.202544 255.271158 203.521203 
L 249.556254 206.317858 
Q 246.861604 207.636517 248.180263 210.331167 
L 252.43431 219.024221 
Q 253.752969 221.718871 256.447619 220.400212 
z
" clip-path="url(#pa06f35dc0c)" style="fill: #ffffff; stroke: #ffffff; stroke-linejoin: miter"/>
    </g>
    <g clip-path="url(#pa06f35dc0c)">
     <!-- 1 -->
     <g transform="translate(254.214828 215.837552) rotate(-26.075356) scale(0.1 -0.1)">
      <use xlink:href="#DejaVuSans-31"/>
     </g>
    </g>
   </g>
   <g id="text_30">
    <g id="patch_32">
     <path d="M 145.130072 247.261013 
L 151.387129 246.107478 
Q 154.337411 245.563571 153.793504 242.613289 
L 152.038838 233.095555 
Q 151.494931 230.145273 148.544649 230.68918 
L 142.287592 231.842715 
Q 139.33731 232.386622 139.881217 235.336905 
L 141.635883 244.854638 
Q 142.17979 247.80492 145.130072 247.261013 
z
" clip-path="url(#pa06f35dc0c)" style="fill: #ffffff; stroke: #ffffff; stroke-linejoin: miter"/>
    </g>
    <g clip-path="url(#pa06f35dc0c)">
     <!-- 8 -->
     <g transform="translate(144.209113 242.26551) rotate(-10.445622) scale(0.1 -0.1)">
      <use xlink:href="#DejaVuSans-38"/>
     </g>
    </g>
   </g>
   <g id="text_31">
    <g id="patch_33">
     <path d="M 206.326768 270.748546 
L 214.094642 260.669569 
Q 215.925968 258.293386 213.549785 256.46206 
L 205.884119 250.554127 
Q 203.507936 248.722801 201.67661 251.098984 
L 193.908737 261.177961 
Q 192.077411 263.554144 194.453594 265.38547 
L 202.11926 271.293403 
Q 204.495443 273.124729 206.326768 270.748546 
z
" clip-path="url(#pa06f35dc0c)" style="fill: #ffffff; stroke: #ffffff; stroke-linejoin: miter"/>
    </g>
    <g clip-path="url(#pa06f35dc0c)">
     <!-- 11 -->
     <g transform="translate(202.303346 267.647691) rotate(-52.378536) scale(0.1 -0.1)">
      <use xlink:href="#DejaVuSans-31"/>
      <use xlink:href="#DejaVuSans-31" x="63.623047"/>
     </g>
    </g>
   </g>
   <g id="text_32">
    <g id="patch_34">
     <path d="M 121.377087 190.491323 
L 127.352149 192.677652 
Q 130.169468 193.708534 131.20035 190.891216 
L 134.526019 181.802431 
Q 135.556902 178.985112 132.739583 177.95423 
L 126.764521 175.7679 
Q 123.947203 174.737018 122.916321 177.554336 
L 119.590651 186.643122 
Q 118.559769 189.46044 121.377087 190.491323 
z
" clip-path="url(#pa06f35dc0c)" style="fill: #ffffff; stroke: #ffffff; stroke-linejoin: miter"/>
    </g>
    <g clip-path="url(#pa06f35dc0c)">
     <!-- 8 -->
     <g transform="translate(123.122607 185.720957) rotate(-339.901968) scale(0.1 -0.1)">
      <use xlink:href="#DejaVuSans-38"/>
     </g>
    </g>
   </g>
   <g id="text_33">
    <g id="patch_35">
     <path d="M 327.704203 185.151051 
L 339.096466 179.481662 
Q 341.782265 178.145067 340.44567 175.459268 
L 336.13376 166.79477 
Q 334.797165 164.108971 332.111366 165.445566 
L 320.719104 171.114955 
Q 318.033305 172.451549 319.3699 175.137348 
L 323.68181 183.801847 
Q 325.018404 186.487645 327.704203 185.151051 
z
" clip-path="url(#pa06f35dc0c)" style="fill: #ffffff; stroke: #ffffff; stroke-linejoin: miter"/>
    </g>
    <g clip-path="url(#pa06f35dc0c)">
     <!-- 10 -->
     <g transform="translate(325.441042 180.603378) rotate(-26.457352) scale(0.1 -0.1)">
      <use xlink:href="#DejaVuSans-31"/>
      <use xlink:href="#DejaVuSans-30" x="63.623047"/>
     </g>
    </g>
   </g>
   <g id="text_34">
    <g id="patch_36">
     <path d="M 265.984091 295.228736 
L 270.142748 290.41345 
Q 272.103607 288.142981 269.833138 286.182121 
L 262.508511 279.856306 
Q 260.238042 277.895447 258.277182 280.165916 
L 254.118526 284.981202 
Q 252.157666 287.251671 254.428135 289.212531 
L 261.752763 295.538346 
Q 264.023232 297.499205 265.984091 295.228736 
z
" clip-path="url(#pa06f35dc0c)" style="fill: #ffffff; stroke: #ffffff; stroke-linejoin: miter"/>
    </g>
    <g clip-path="url(#pa06f35dc0c)">
     <!-- 9 -->
     <g transform="translate(262.139667 291.908552) rotate(-49.184916) scale(0.1 -0.1)">
      <use xlink:href="#DejaVuSans-39"/>
     </g>
    </g>
   </g>
   <g id="text_35">
    <g id="patch_37">
     <path d="M 220.303505 210.753022 
L 226.349429 208.77105 
Q 229.200159 207.836525 228.265634 204.985795 
L 225.250817 195.78922 
Q 224.316292 192.93849 221.465562 193.873015 
L 215.419638 195.854987 
Q 212.568908 196.789512 213.503433 199.640242 
L 216.51825 208.836817 
Q 217.452775 211.687547 220.303505 210.753022 
z
" clip-path="url(#pa06f35dc0c)" style="fill: #ffffff; stroke: #ffffff; stroke-linejoin: miter"/>
    </g>
    <g clip-path="url(#pa06f35dc0c)">
     <!-- 6 -->
     <g transform="translate(218.72114 205.926082) rotate(-18.150155) scale(0.1 -0.1)">
      <use xlink:href="#DejaVuSans-36"/>
     </g>
    </g>
   </g>
   <g id="text_36">
    <g id="patch_38">
     <path d="M 377.27485 237.783015 
L 377.829003 250.495943 
Q 377.959648 253.493097 380.956802 253.362452 
L 390.625746 252.940985 
Q 393.6229 252.81034 393.492254 249.813186 
L 392.938101 237.100258 
Q 392.807456 234.103104 389.810302 234.233749 
L 380.141359 234.655216 
Q 377.144205 234.785861 377.27485 237.783015 
z
" clip-path="url(#pa06f35dc0c)" style="fill: #ffffff; stroke: #ffffff; stroke-linejoin: miter"/>
    </g>
    <g clip-path="url(#pa06f35dc0c)">
     <!-- 14 -->
     <g transform="translate(382.349718 237.561803) rotate(-272.495928) scale(0.1 -0.1)">
      <use xlink:href="#DejaVuSans-31"/>
      <use xlink:href="#DejaVuSans-34" x="63.623047"/>
     </g>
    </g>
   </g>
   <g id="text_37">
    <g id="patch_39">
     <path d="M 282.579052 151.323074 
L 288.928782 151.725975 
Q 291.922761 151.915949 292.112735 148.92197 
L 292.725596 139.263269 
Q 292.91557 136.26929 289.921591 136.079316 
L 283.57186 135.676415 
Q 280.577881 135.486441 280.387908 138.48042 
L 279.775046 148.139121 
Q 279.585073 151.1331 282.579052 151.323074 
z
" clip-path="url(#pa06f35dc0c)" style="fill: #ffffff; stroke: #ffffff; stroke-linejoin: miter"/>
    </g>
    <g clip-path="url(#pa06f35dc0c)">
     <!-- 5 -->
     <g transform="translate(282.90072 146.253581) rotate(-356.369348) scale(0.1 -0.1)">
      <use xlink:href="#DejaVuSans-35"/>
     </g>
    </g>
   </g>
   <g id="text_38">
    <g id="patch_40">
     <path d="M 220.491605 306.702661 
L 229.901612 298.136601 
Q 232.120082 296.117097 230.100578 293.898628 
L 223.585576 286.741754 
Q 221.566073 284.523284 219.347603 286.542788 
L 209.937596 295.108848 
Q 207.719127 297.128351 209.73863 299.346821 
L 216.253633 306.503695 
Q 218.273136 308.722164 220.491605 306.702661 
z
" clip-path="url(#pa06f35dc0c)" style="fill: #ffffff; stroke: #ffffff; stroke-linejoin: miter"/>
    </g>
    <g clip-path="url(#pa06f35dc0c)">
     <!-- 11 -->
     <g transform="translate(217.072123 302.946284) rotate(-42.312031) scale(0.1 -0.1)">
      <use xlink:href="#DejaVuSans-31"/>
      <use xlink:href="#DejaVuSans-31" x="63.623047"/>
     </g>
    </g>
   </g>
   <g id="text_39">
    <g id="patch_41">
     <path d="M 367.151298 310.727479 
L 368.014418 304.423795 
Q 368.42139 301.451528 365.449123 301.044556 
L 355.860464 299.731647 
Q 352.888197 299.324675 352.481225 302.296943 
L 351.618105 308.600627 
Q 351.211133 311.572894 354.1834 311.979866 
L 363.772059 313.292775 
Q 366.744326 313.699747 367.151298 310.727479 
z
" clip-path="url(#pa06f35dc0c)" style="fill: #ffffff; stroke: #ffffff; stroke-linejoin: miter"/>
    </g>
    <g clip-path="url(#pa06f35dc0c)">
     <!-- 7 -->
     <g transform="translate(362.118568 310.038383) rotate(-82.203368) scale(0.1 -0.1)">
      <use xlink:href="#DejaVuSans-37"/>
     </g>
    </g>
   </g>
   <g id="text_40">
    <g id="patch_42">
     <path d="M 215.823247 320.040094 
L 219.108754 314.59153 
Q 220.657913 312.022463 218.088846 310.473304 
L 209.800927 305.475654 
Q 207.23186 303.926495 205.682701 306.495562 
L 202.397194 311.944126 
Q 200.848035 314.513194 203.417102 316.062352 
L 211.705021 321.060003 
Q 214.274088 322.609161 215.823247 320.040094 
z
" clip-path="url(#pa06f35dc0c)" style="fill: #ffffff; stroke: #ffffff; stroke-linejoin: miter"/>
    </g>
    <g clip-path="url(#pa06f35dc0c)">
     <!-- 4 -->
     <g transform="translate(211.473227 317.417013) rotate(-58.909843) scale(0.1 -0.1)">
      <use xlink:href="#DejaVuSans-34"/>
     </g>
    </g>
   </g>
   <g id="text_41">
    <g id="patch_43">
     <path d="M 300.09083 330.719111 
L 301.504837 336.922496 
Q 302.17156 339.847472 305.096535 339.180749 
L 314.532628 337.029875 
Q 317.457603 336.363153 316.790881 333.438177 
L 315.376874 327.234792 
Q 314.710152 324.309817 311.785176 324.976539 
L 302.349084 327.127413 
Q 299.424108 327.794135 300.09083 330.719111 
z
" clip-path="url(#pa06f35dc0c)" style="fill: #ffffff; stroke: #ffffff; stroke-linejoin: miter"/>
    </g>
    <g clip-path="url(#pa06f35dc0c)">
     <!-- 1 -->
     <g transform="translate(305.043484 329.590197) rotate(-282.840679) scale(0.1 -0.1)">
      <use xlink:href="#DejaVuSans-31"/>
     </g>
    </g>
   </g>
   <g id="text_42">
    <g id="patch_44">
     <path d="M 165.217118 237.019756 
L 177.568584 233.959216 
Q 180.480521 233.237674 179.758979 230.325737 
L 177.431255 220.931706 
Q 176.709713 218.019769 173.797776 218.741311 
L 161.44631 221.801852 
Q 158.534373 222.523394 159.255914 225.435331 
L 161.583639 234.829361 
Q 162.305181 237.741298 165.217118 237.019756 
z
" clip-path="url(#pa06f35dc0c)" style="fill: #ffffff; stroke: #ffffff; stroke-linejoin: miter"/>
    </g>
    <g clip-path="url(#pa06f35dc0c)">
     <!-- 19 -->
     <g transform="translate(163.995382 232.089179) rotate(-13.916877) scale(0.1 -0.1)">
      <use xlink:href="#DejaVuSans-31"/>
      <use xlink:href="#DejaVuSans-39" x="63.623047"/>
     </g>
    </g>
   </g>
   <g id="text_43">
    <g id="patch_45">
     <path d="M 225.124444 171.888308 
L 235.432823 179.349068 
Q 237.863089 181.10799 239.622011 178.677724 
L 245.296367 170.837584 
Q 247.055289 168.407318 244.625022 166.648396 
L 234.316643 159.187635 
Q 231.886377 157.428713 230.127455 159.85898 
L 224.4531 167.69912 
Q 222.694178 170.129386 225.124444 171.888308 
z
" clip-path="url(#pa06f35dc0c)" style="fill: #ffffff; stroke: #ffffff; stroke-linejoin: miter"/>
    </g>
    <g clip-path="url(#pa06f35dc0c)">
     <!-- 17 -->
     <g transform="translate(228.102702 167.77331) rotate(-324.104601) scale(0.1 -0.1)">
      <use xlink:href="#DejaVuSans-31"/>
      <use xlink:href="#DejaVuSans-37" x="63.623047"/>
     </g>
    </g>
   </g>
   <g id="text_44">
    <g id="patch_46">
     <path d="M 157.152957 356.472075 
L 165.371851 346.757375 
Q 167.309508 344.467072 165.019205 342.529415 
L 157.630593 336.278454 
Q 155.340291 334.340797 153.402634 336.6311 
L 145.18374 346.3458 
Q 143.246083 348.636103 145.536386 350.57376 
L 152.924998 356.824721 
Q 155.2153 358.762378 157.152957 356.472075 
z
" clip-path="url(#pa06f35dc0c)" style="fill: #ffffff; stroke: #ffffff; stroke-linejoin: miter"/>
    </g>
    <g clip-path="url(#pa06f35dc0c)">
     <!-- 12 -->
     <g transform="translate(153.27495 353.191178) rotate(-49.767894) scale(0.1 -0.1)">
      <use xlink:href="#DejaVuSans-31"/>
      <use xlink:href="#DejaVuSans-32" x="63.623047"/>
     </g>
    </g>
   </g>
   <g id="text_45">
    <g id="patch_47">
     <path d="M 141.862595 179.451833 
L 154.302397 182.130817 
Q 157.23516 182.762404 157.866747 179.829641 
L 159.904275 170.368427 
Q 160.535862 167.435664 157.6031 166.804076 
L 145.163298 164.125093 
Q 142.230535 163.493505 141.598947 166.426268 
L 139.56142 175.887483 
Q 138.929832 178.820246 141.862595 179.451833 
z
" clip-path="url(#pa06f35dc0c)" style="fill: #ffffff; stroke: #ffffff; stroke-linejoin: miter"/>
    </g>
    <g clip-path="url(#pa06f35dc0c)">
     <!-- 13 -->
     <g transform="translate(142.932018 174.485994) rotate(-347.846636) scale(0.1 -0.1)">
      <use xlink:href="#DejaVuSans-31"/>
      <use xlink:href="#DejaVuSans-33" x="63.623047"/>
     </g>
    </g>
   </g>
   <g id="text_46">
    <g id="patch_48">
     <path d="M 232.933204 450.971905 
L 245.428576 453.378421 
Q 248.374439 453.945772 248.941791 450.999909 
L 250.77209 441.49643 
Q 251.339442 438.550566 248.393578 437.983215 
L 235.898207 435.576699 
Q 232.952343 435.009347 232.384992 437.955211 
L 230.554692 447.45869 
Q 229.987341 450.404553 232.933204 450.971905 
z
" clip-path="url(#pa06f35dc0c)" style="fill: #ffffff; stroke: #ffffff; stroke-linejoin: miter"/>
    </g>
    <g clip-path="url(#pa06f35dc0c)">
     <!-- 20 -->
     <g transform="translate(233.89386 445.983883) rotate(-349.098732) scale(0.1 -0.1)">
      <use xlink:href="#DejaVuSans-32"/>
      <use xlink:href="#DejaVuSans-30" x="63.623047"/>
     </g>
    </g>
   </g>
   <g id="text_47">
    <g id="patch_49">
     <path d="M 96.161998 443.574514 
L 108.611775 440.942275 
Q 111.54689 440.321708 110.926323 437.386594 
L 108.924348 427.917792 
Q 108.303781 424.982678 105.368666 425.603245 
L 92.918889 428.235484 
Q 89.983775 428.856051 90.604342 431.791165 
L 92.606317 441.259966 
Q 93.226884 444.195081 96.161998 443.574514 
z
" clip-path="url(#pa06f35dc0c)" style="fill: #ffffff; stroke: #ffffff; stroke-linejoin: miter"/>
    </g>
    <g clip-path="url(#pa06f35dc0c)">
     <!-- 11 -->
     <g transform="translate(95.111236 438.604692) rotate(-11.93815) scale(0.1 -0.1)">
      <use xlink:href="#DejaVuSans-31"/>
      <use xlink:href="#DejaVuSans-31" x="63.623047"/>
     </g>
    </g>
   </g>
   <g id="text_48">
    <g id="patch_50">
     <path d="M 89.962101 256.972589 
L 91.598726 263.120993 
Q 92.370416 266.020044 95.269466 265.248354 
L 104.621925 262.75885 
Q 107.520975 261.987161 106.749286 259.08811 
L 105.11266 252.939707 
Q 104.340971 250.040656 101.44192 250.812346 
L 92.089462 253.301849 
Q 89.190411 254.073539 89.962101 256.972589 
z
" clip-path="url(#pa06f35dc0c)" style="fill: #ffffff; stroke: #ffffff; stroke-linejoin: miter"/>
    </g>
    <g clip-path="url(#pa06f35dc0c)">
     <!-- 8 -->
     <g transform="translate(94.870858 255.665942) rotate(-284.905759) scale(0.1 -0.1)">
      <use xlink:href="#DejaVuSans-38"/>
     </g>
    </g>
   </g>
   <g id="text_49">
    <g id="patch_51">
     <path d="M 265.395478 294.733287 
L 273.671345 285.067075 
Q 275.622433 282.788203 273.343562 280.837115 
L 265.991828 274.542823 
Q 263.712957 272.591734 261.761869 274.870605 
L 253.486002 284.536818 
Q 251.534914 286.815689 253.813785 288.766777 
L 261.165519 295.06107 
Q 263.44439 297.012158 265.395478 294.733287 
z
" clip-path="url(#pa06f35dc0c)" style="fill: #ffffff; stroke: #ffffff; stroke-linejoin: miter"/>
    </g>
    <g clip-path="url(#pa06f35dc0c)">
     <!-- 14 -->
     <g transform="translate(261.536827 291.429647) rotate(-49.431039) scale(0.1 -0.1)">
      <use xlink:href="#DejaVuSans-31"/>
      <use xlink:href="#DejaVuSans-34" x="63.623047"/>
     </g>
    </g>
   </g>
   <g id="text_50">
    <g id="patch_52">
     <path d="M 93.289264 340.822816 
L 96.056713 346.55192 
Q 97.3616 349.253266 100.062946 347.948379 
L 108.7776 343.738758 
Q 111.478946 342.43387 110.174058 339.732525 
L 107.40661 334.00342 
Q 106.101722 331.302075 103.400376 332.606962 
L 94.685722 336.816583 
Q 91.984377 338.12147 93.289264 340.822816 
z
" clip-path="url(#pa06f35dc0c)" style="fill: #ffffff; stroke: #ffffff; stroke-linejoin: miter"/>
    </g>
    <g clip-path="url(#pa06f35dc0c)">
     <!-- 1 -->
     <g transform="translate(97.863261 338.613343) rotate(-295.782905) scale(0.1 -0.1)">
      <use xlink:href="#DejaVuSans-31"/>
     </g>
    </g>
   </g>
   <g id="text_51">
    <g id="patch_53">
     <path d="M 170.459031 434.089548 
L 183.181151 434.360231 
Q 186.180472 434.424047 186.244288 431.424726 
L 186.450159 421.74879 
Q 186.513974 418.749469 183.514653 418.685654 
L 170.792532 418.41497 
Q 167.793211 418.351155 167.729396 421.350476 
L 167.523525 431.026411 
Q 167.459709 434.025733 170.459031 434.089548 
z
" clip-path="url(#pa06f35dc0c)" style="fill: #ffffff; stroke: #ffffff; stroke-linejoin: miter"/>
    </g>
    <g clip-path="url(#pa06f35dc0c)">
     <!-- 10 -->
     <g transform="translate(170.567085 429.01101) rotate(-358.781125) scale(0.1 -0.1)">
      <use xlink:href="#DejaVuSans-31"/>
      <use xlink:href="#DejaVuSans-30" x="63.623047"/>
     </g>
    </g>
   </g>
   <g id="text_52">
    <g id="patch_54">
     <path d="M 72.226464 282.82277 
L 77.306861 294.489611 
Q 78.504597 297.240143 81.25513 296.042407 
L 90.128462 292.178461 
Q 92.878994 290.980724 91.681258 288.230192 
L 86.600861 276.563351 
Q 85.403125 273.812818 82.652592 275.010554 
L 73.77926 278.874501 
Q 71.028728 280.072237 72.226464 282.82277 
z
" clip-path="url(#pa06f35dc0c)" style="fill: #ffffff; stroke: #ffffff; stroke-linejoin: miter"/>
    </g>
    <g clip-path="url(#pa06f35dc0c)">
     <!-- 10 -->
     <g transform="translate(76.883746 280.794728) rotate(-293.531012) scale(0.1 -0.1)">
      <use xlink:href="#DejaVuSans-31"/>
      <use xlink:href="#DejaVuSans-30" x="63.623047"/>
     </g>
    </g>
   </g>
   <g id="text_53">
    <g id="patch_55">
     <path d="M 211.836531 216.667109 
L 222.079757 224.217073 
Q 224.494663 225.997025 226.274615 223.582119 
L 232.016815 215.791532 
Q 233.796767 213.376627 231.381861 211.596674 
L 221.138635 204.046711 
Q 218.723729 202.266758 216.943777 204.681664 
L 211.201577 212.472251 
Q 209.421625 214.887157 211.836531 216.667109 
z
" clip-path="url(#pa06f35dc0c)" style="fill: #ffffff; stroke: #ffffff; stroke-linejoin: miter"/>
    </g>
    <g clip-path="url(#pa06f35dc0c)">
     <!-- 17 -->
     <g transform="translate(214.850398 212.57812) rotate(-323.607225) scale(0.1 -0.1)">
      <use xlink:href="#DejaVuSans-31"/>
      <use xlink:href="#DejaVuSans-37" x="63.623047"/>
     </g>
    </g>
   </g>
   <g id="text_54">
    <g id="patch_56">
     <path d="M 369.975442 406.482837 
L 372.377433 400.591161 
Q 373.510002 397.81316 370.732002 396.680591 
L 361.770056 393.026875 
Q 358.992056 391.894305 357.859486 394.672306 
L 355.457495 400.563982 
Q 354.324926 403.341982 357.102927 404.474552 
L 366.064872 408.128268 
Q 368.842872 409.260837 369.975442 406.482837 
z
" clip-path="url(#pa06f35dc0c)" style="fill: #ffffff; stroke: #ffffff; stroke-linejoin: miter"/>
    </g>
    <g clip-path="url(#pa06f35dc0c)">
     <!-- 1 -->
     <g transform="translate(365.27165 404.565137) rotate(-67.819656) scale(0.1 -0.1)">
      <use xlink:href="#DejaVuSans-31"/>
     </g>
    </g>
   </g>
   <g id="text_55">
    <g id="patch_57">
     <path d="M 298.053497 392.34679 
L 309.435083 386.655997 
Q 312.118364 385.314356 310.776723 382.631075 
L 306.448534 373.974696 
Q 305.106894 371.291415 302.423612 372.633056 
L 291.042026 378.323849 
Q 288.358744 379.665489 289.700385 382.348771 
L 294.028574 391.005149 
Q 295.370215 393.688431 298.053497 392.34679 
z
" clip-path="url(#pa06f35dc0c)" style="fill: #ffffff; stroke: #ffffff; stroke-linejoin: miter"/>
    </g>
    <g clip-path="url(#pa06f35dc0c)">
     <!-- 13 -->
     <g transform="translate(295.781791 387.803379) rotate(-26.565051) scale(0.1 -0.1)">
      <use xlink:href="#DejaVuSans-31"/>
      <use xlink:href="#DejaVuSans-33" x="63.623047"/>
     </g>
    </g>
   </g>
   <g id="text_56">
    <g id="patch_58">
     <path d="M 195.938452 245.631506 
L 207.217874 251.522199 
Q 209.877069 252.910967 211.265838 250.251771 
L 215.746063 241.673095 
Q 217.134831 239.013899 214.475636 237.625131 
L 203.196213 231.734438 
Q 200.537018 230.345669 199.148249 233.004865 
L 194.668024 241.583542 
Q 193.279256 244.242737 195.938452 245.631506 
z
" clip-path="url(#pa06f35dc0c)" style="fill: #ffffff; stroke: #ffffff; stroke-linejoin: miter"/>
    </g>
    <g clip-path="url(#pa06f35dc0c)">
     <!-- 14 -->
     <g transform="translate(198.289955 241.128878) rotate(-332.424127) scale(0.1 -0.1)">
      <use xlink:href="#DejaVuSans-31"/>
      <use xlink:href="#DejaVuSans-34" x="63.623047"/>
     </g>
    </g>
   </g>
   <g id="text_57">
    <g id="patch_59">
     <path d="M 116.167263 323.967553 
L 121.379301 312.358923 
Q 122.608072 309.622115 119.871264 308.393344 
L 111.042205 304.429276 
Q 108.305396 303.200505 107.076625 305.937314 
L 101.864587 317.545944 
Q 100.635816 320.282752 103.372625 321.511523 
L 112.201683 325.475591 
Q 114.938492 326.704362 116.167263 323.967553 
z
" clip-path="url(#pa06f35dc0c)" style="fill: #ffffff; stroke: #ffffff; stroke-linejoin: miter"/>
    </g>
    <g clip-path="url(#pa06f35dc0c)">
     <!-- 11 -->
     <g transform="translate(111.533219 321.886962) rotate(-65.820893) scale(0.1 -0.1)">
      <use xlink:href="#DejaVuSans-31"/>
      <use xlink:href="#DejaVuSans-31" x="63.623047"/>
     </g>
    </g>
   </g>
   <g id="text_58">
    <g id="patch_60">
     <path d="M 105.949394 405.288109 
L 113.506558 395.050194 
Q 115.288207 392.636541 112.874553 390.854891 
L 105.088006 385.107215 
Q 102.674352 383.325565 100.892702 385.739219 
L 93.335538 395.977134 
Q 91.553889 398.390787 93.967543 400.172437 
L 101.75409 405.920113 
Q 104.167744 407.701763 105.949394 405.288109 
z
" clip-path="url(#pa06f35dc0c)" style="fill: #ffffff; stroke: #ffffff; stroke-linejoin: miter"/>
    </g>
    <g clip-path="url(#pa06f35dc0c)">
     <!-- 14 -->
     <g transform="translate(101.862525 402.271368) rotate(-53.56694) scale(0.1 -0.1)">
      <use xlink:href="#DejaVuSans-31"/>
      <use xlink:href="#DejaVuSans-34" x="63.623047"/>
     </g>
    </g>
   </g>
   <g id="text_59">
    <g id="patch_61">
     <path d="M 179.589469 486.166136 
L 192.258042 484.969105 
Q 195.244739 484.686897 194.962532 481.700201 
L 194.052118 472.064992 
Q 193.769911 469.078295 190.783214 469.360502 
L 178.114641 470.557533 
Q 175.127944 470.83974 175.410151 473.826437 
L 176.320565 483.461646 
Q 176.602772 486.448343 179.589469 486.166136 
z
" clip-path="url(#pa06f35dc0c)" style="fill: #ffffff; stroke: #ffffff; stroke-linejoin: miter"/>
    </g>
    <g clip-path="url(#pa06f35dc0c)">
     <!-- 11 -->
     <g transform="translate(179.111627 481.108973) rotate(-5.397749) scale(0.1 -0.1)">
      <use xlink:href="#DejaVuSans-31"/>
      <use xlink:href="#DejaVuSans-31" x="63.623047"/>
     </g>
    </g>
   </g>
   <g id="text_60">
    <g id="patch_62">
     <path d="M 255.019575 297.909882 
L 260.259317 309.506034 
Q 261.49462 312.2399 264.228487 311.004598 
L 273.048055 307.01946 
Q 275.781921 305.784157 274.546619 303.05029 
L 269.306876 291.454139 
Q 268.071573 288.720272 265.337707 289.955575 
L 256.518139 293.940713 
Q 253.784272 295.176016 255.019575 297.909882 
z
" clip-path="url(#pa06f35dc0c)" style="fill: #ffffff; stroke: #ffffff; stroke-linejoin: miter"/>
    </g>
    <g clip-path="url(#pa06f35dc0c)">
     <!-- 17 -->
     <g transform="translate(259.648638 295.818232) rotate(-294.31592) scale(0.1 -0.1)">
      <use xlink:href="#DejaVuSans-31"/>
      <use xlink:href="#DejaVuSans-37" x="63.623047"/>
     </g>
    </g>
   </g>
   <g id="text_61">
    <g id="patch_63">
     <path d="M 192.168292 363.454047 
L 197.258292 367.271547 
Q 199.658292 369.071547 201.458292 366.671547 
L 207.265167 358.929047 
Q 209.065167 356.529047 206.665167 354.729047 
L 201.575167 350.911547 
Q 199.175167 349.111547 197.375167 351.511547 
L 191.568292 359.254047 
Q 189.768292 361.654047 192.168292 363.454047 
z
" clip-path="url(#pa06f35dc0c)" style="fill: #ffffff; stroke: #ffffff; stroke-linejoin: miter"/>
    </g>
    <g clip-path="url(#pa06f35dc0c)">
     <!-- 6 -->
     <g transform="translate(195.216105 359.390297) rotate(-323.130102) scale(0.1 -0.1)">
      <use xlink:href="#DejaVuSans-36"/>
     </g>
    </g>
   </g>
   <g id="text_62">
    <g id="patch_64">
     <path d="M 269.470484 451.872531 
L 275.590798 453.611256 
Q 278.476604 454.431087 279.296435 451.545281 
L 281.941245 442.235551 
Q 282.761076 439.349745 279.87527 438.529913 
L 273.754956 436.791188 
Q 270.86915 435.971357 270.049319 438.857163 
L 267.404509 448.166893 
Q 266.584678 451.052699 269.470484 451.872531 
z
" clip-path="url(#pa06f35dc0c)" style="fill: #ffffff; stroke: #ffffff; stroke-linejoin: miter"/>
    </g>
    <g clip-path="url(#pa06f35dc0c)">
     <!-- 3 -->
     <g transform="translate(270.858646 446.9862) rotate(-344.140634) scale(0.1 -0.1)">
      <use xlink:href="#DejaVuSans-33"/>
     </g>
    </g>
   </g>
   <g id="text_63">
    <g id="patch_65">
     <path d="M 169.597573 305.377246 
L 178.588672 314.38201 
Q 180.708381 316.50494 182.831311 314.385231 
L 189.679973 307.546961 
Q 191.802904 305.427252 189.683195 303.304322 
L 180.692096 294.299559 
Q 178.572387 292.176628 176.449456 294.296337 
L 169.600794 301.134607 
Q 167.477864 303.254316 169.597573 305.377246 
z
" clip-path="url(#pa06f35dc0c)" style="fill: #ffffff; stroke: #ffffff; stroke-linejoin: miter"/>
    </g>
    <g clip-path="url(#pa06f35dc0c)">
     <!-- 19 -->
     <g transform="translate(173.19218 301.788093) rotate(-314.956495) scale(0.1 -0.1)">
      <use xlink:href="#DejaVuSans-31"/>
      <use xlink:href="#DejaVuSans-39" x="63.623047"/>
     </g>
    </g>
   </g>
   <g id="text_64">
    <g id="patch_66">
     <path d="M 87.833405 223.151624 
L 96.845453 232.135421 
Q 98.970101 234.253408 101.088089 232.12876 
L 107.920805 225.274558 
Q 110.038792 223.14991 107.914144 221.031922 
L 98.902096 212.048125 
Q 96.777448 209.930138 94.659461 212.054785 
L 87.826745 218.908988 
Q 85.708757 221.033636 87.833405 223.151624 
z
" clip-path="url(#pa06f35dc0c)" style="fill: #ffffff; stroke: #ffffff; stroke-linejoin: miter"/>
    </g>
    <g clip-path="url(#pa06f35dc0c)">
     <!-- 11 -->
     <g transform="translate(91.419643 219.554108) rotate(-315.089946) scale(0.1 -0.1)">
      <use xlink:href="#DejaVuSans-31"/>
      <use xlink:href="#DejaVuSans-31" x="63.623047"/>
     </g>
    </g>
   </g>
   <g id="text_65">
    <g id="patch_67">
     <path d="M 103.252379 149.505403 
L 109.608354 149.217313 
Q 112.605277 149.081476 112.469439 146.084552 
L 112.03122 136.416354 
Q 111.895383 133.419431 108.898459 133.555268 
L 102.542485 133.843358 
Q 99.545562 133.979196 99.6814 136.976119 
L 100.119618 146.644318 
Q 100.255456 149.641241 103.252379 149.505403 
z
" clip-path="url(#pa06f35dc0c)" style="fill: #ffffff; stroke: #ffffff; stroke-linejoin: miter"/>
    </g>
    <g clip-path="url(#pa06f35dc0c)">
     <!-- 5 -->
     <g transform="translate(103.022375 144.430925) rotate(-2.5952) scale(0.1 -0.1)">
      <use xlink:href="#DejaVuSans-35"/>
     </g>
    </g>
   </g>
   <g id="text_66">
    <g id="patch_68">
     <path d="M 300.954357 295.045248 
L 307.593548 284.189523 
Q 309.15878 281.630217 306.599473 280.064985 
L 298.343044 275.015482 
Q 295.783738 273.450251 294.218506 276.009557 
L 287.579315 286.865282 
Q 286.014083 289.424589 288.573389 290.98982 
L 296.829819 296.039323 
Q 299.389125 297.604555 300.954357 295.045248 
z
" clip-path="url(#pa06f35dc0c)" style="fill: #ffffff; stroke: #ffffff; stroke-linejoin: miter"/>
    </g>
    <g clip-path="url(#pa06f35dc0c)">
     <!-- 20 -->
     <g transform="translate(296.620865 292.394952) rotate(-58.550698) scale(0.1 -0.1)">
      <use xlink:href="#DejaVuSans-32"/>
      <use xlink:href="#DejaVuSans-30" x="63.623047"/>
     </g>
    </g>
   </g>
   <g id="text_67">
    <g id="patch_69">
     <path d="M 281.083837 148.435054 
L 293.802122 148.848398 
Q 296.800539 148.945847 296.897988 145.94743 
L 297.212361 136.274412 
Q 297.309809 133.275995 294.311392 133.178547 
L 281.593108 132.765203 
Q 278.594691 132.667754 278.497242 135.666171 
L 278.182869 145.339189 
Q 278.085421 148.337606 281.083837 148.435054 
z
" clip-path="url(#pa06f35dc0c)" style="fill: #ffffff; stroke: #ffffff; stroke-linejoin: miter"/>
    </g>
    <g clip-path="url(#pa06f35dc0c)">
     <!-- 20 -->
     <g transform="translate(281.24884 143.358047) rotate(-358.138542) scale(0.1 -0.1)">
      <use xlink:href="#DejaVuSans-32"/>
      <use xlink:href="#DejaVuSans-30" x="63.623047"/>
     </g>
    </g>
   </g>
   <g id="text_68">
    <g id="patch_70">
     <path d="M 221.864718 207.865501 
L 227.883456 205.802446 
Q 230.721368 204.829689 229.748611 201.991777 
L 226.610458 192.836555 
Q 225.637701 189.998643 222.799789 190.9714 
L 216.781051 193.034455 
Q 213.943139 194.007211 214.915895 196.845123 
L 218.054049 206.000346 
Q 219.026806 208.838257 221.864718 207.865501 
z
" clip-path="url(#pa06f35dc0c)" style="fill: #ffffff; stroke: #ffffff; stroke-linejoin: miter"/>
    </g>
    <g clip-path="url(#pa06f35dc0c)">
     <!-- 6 -->
     <g transform="translate(220.217618 203.060265) rotate(-18.920278) scale(0.1 -0.1)">
      <use xlink:href="#DejaVuSans-36"/>
     </g>
    </g>
   </g>
   <g id="text_69">
    <g id="patch_71">
     <path d="M 224.334885 301.649596 
L 229.017246 297.341824 
Q 231.225039 295.310654 229.19387 293.102861 
L 222.641232 285.980429 
Q 220.610063 283.772636 218.402269 285.803805 
L 213.719908 290.111578 
Q 211.512115 292.142747 213.543285 294.35054 
L 220.095923 301.472973 
Q 222.127092 303.680766 224.334885 301.649596 
z
" clip-path="url(#pa06f35dc0c)" style="fill: #ffffff; stroke: #ffffff; stroke-linejoin: miter"/>
    </g>
    <g clip-path="url(#pa06f35dc0c)">
     <!-- 1 -->
     <g transform="translate(220.89565 297.911296) rotate(-42.614056) scale(0.1 -0.1)">
      <use xlink:href="#DejaVuSans-31"/>
     </g>
    </g>
   </g>
   <g id="text_70">
    <g id="patch_72">
     <path d="M 214.562552 124.398649 
L 220.843128 125.416378 
Q 223.804499 125.896249 224.284371 122.934878 
L 225.832458 113.381369 
Q 226.31233 110.419997 223.350958 109.940125 
L 217.070382 108.922397 
Q 214.10901 108.442525 213.629139 111.403897 
L 212.081052 120.957405 
Q 211.60118 123.918777 214.562552 124.398649 
z
" clip-path="url(#pa06f35dc0c)" style="fill: #ffffff; stroke: #ffffff; stroke-linejoin: miter"/>
    </g>
    <g clip-path="url(#pa06f35dc0c)">
     <!-- 8 -->
     <g transform="translate(215.375085 119.384368) rotate(-350.795582) scale(0.1 -0.1)">
      <use xlink:href="#DejaVuSans-38"/>
     </g>
    </g>
   </g>
   <g id="text_71">
    <g id="patch_73">
     <path d="M 104.300587 193.031574 
L 110.693334 204.034229 
Q 112.200464 206.628175 114.794411 205.121044 
L 123.162589 200.258978 
Q 125.756535 198.751847 124.249405 196.157901 
L 117.856658 185.155246 
Q 116.349527 182.561299 113.755581 184.06843 
L 105.387403 188.930497 
Q 102.793457 190.437628 104.300587 193.031574 
z
" clip-path="url(#pa06f35dc0c)" style="fill: #ffffff; stroke: #ffffff; stroke-linejoin: miter"/>
    </g>
    <g clip-path="url(#pa06f35dc0c)">
     <!-- 17 -->
     <g transform="translate(108.692733 190.479656) rotate(-300.157381) scale(0.1 -0.1)">
      <use xlink:href="#DejaVuSans-31"/>
      <use xlink:href="#DejaVuSans-37" x="63.623047"/>
     </g>
    </g>
   </g>
   <g id="text_72">
    <g id="patch_74">
     <path d="M 108.901492 281.880914 
L 120.780896 286.442204 
Q 123.581542 287.517557 124.656895 284.716912 
L 128.12603 275.681913 
Q 129.201383 272.881267 126.400738 271.805914 
L 114.521333 267.244623 
Q 111.720688 266.16927 110.645334 268.969916 
L 107.1762 278.004915 
Q 106.100846 280.80556 108.901492 281.880914 
z
" clip-path="url(#pa06f35dc0c)" style="fill: #ffffff; stroke: #ffffff; stroke-linejoin: miter"/>
    </g>
    <g clip-path="url(#pa06f35dc0c)">
     <!-- 20 -->
     <g transform="translate(110.722311 277.138779) rotate(-338.994896) scale(0.1 -0.1)">
      <use xlink:href="#DejaVuSans-32"/>
      <use xlink:href="#DejaVuSans-30" x="63.623047"/>
     </g>
    </g>
   </g>
   <g id="text_73">
    <g id="patch_75">
     <path d="M 118.813794 381.021989 
L 126.783185 371.101584 
Q 128.66202 368.762786 126.323222 366.883951 
L 118.77816 360.822751 
Q 116.439361 358.943916 114.560526 361.282715 
L 106.591135 371.203119 
Q 104.7123 373.541918 107.051098 375.420753 
L 114.59616 381.481953 
Q 116.934959 383.360788 118.813794 381.021989 
z
" clip-path="url(#pa06f35dc0c)" style="fill: #ffffff; stroke: #ffffff; stroke-linejoin: miter"/>
    </g>
    <g clip-path="url(#pa06f35dc0c)">
     <!-- 12 -->
     <g transform="translate(114.853672 377.840691) rotate(-51.223926) scale(0.1 -0.1)">
      <use xlink:href="#DejaVuSans-31"/>
      <use xlink:href="#DejaVuSans-32" x="63.623047"/>
     </g>
    </g>
   </g>
   <g id="text_74">
    <g id="patch_76">
     <path d="M 48.263798 263.879421 
L 48.350709 270.241328 
Q 48.391689 273.241048 51.391409 273.200068 
L 61.068631 273.067866 
Q 64.068351 273.026886 64.027372 270.027166 
L 63.94046 263.665259 
Q 63.899481 260.665539 60.89976 260.706519 
L 51.222538 260.838721 
Q 48.222818 260.879701 48.263798 263.879421 
z
" clip-path="url(#pa06f35dc0c)" style="fill: #ffffff; stroke: #ffffff; stroke-linejoin: miter"/>
    </g>
    <g clip-path="url(#pa06f35dc0c)">
     <!-- 1 -->
     <g transform="translate(53.343012 263.810033) rotate(-270.782681) scale(0.1 -0.1)">
      <use xlink:href="#DejaVuSans-31"/>
     </g>
    </g>
   </g>
   <g id="text_75">
    <g id="patch_77">
     <path d="M 132.454207 443.446206 
L 138.780196 442.765562 
Q 141.76298 442.444629 141.442047 439.461845 
L 140.406706 429.839259 
Q 140.085773 426.856474 137.102989 427.177407 
L 130.777001 427.858051 
Q 127.794216 428.178984 128.115149 431.161768 
L 129.15049 440.784354 
Q 129.471423 443.767139 132.454207 443.446206 
z
" clip-path="url(#pa06f35dc0c)" style="fill: #ffffff; stroke: #ffffff; stroke-linejoin: miter"/>
    </g>
    <g clip-path="url(#pa06f35dc0c)">
     <!-- 9 -->
     <g transform="translate(131.910795 438.395669) rotate(-6.141111) scale(0.1 -0.1)">
      <use xlink:href="#DejaVuSans-39"/>
     </g>
    </g>
   </g>
   <g id="text_76">
    <g id="patch_78">
     <path d="M 122.569267 256.304973 
L 127.954101 267.834465 
Q 129.22361 270.552616 131.941761 269.283107 
L 140.710631 265.187618 
Q 143.428782 263.918109 142.159273 261.199957 
L 136.774439 249.670466 
Q 135.50493 246.952314 132.786778 248.221823 
L 124.017909 252.317312 
Q 121.299758 253.586822 122.569267 256.304973 
z
" clip-path="url(#pa06f35dc0c)" style="fill: #ffffff; stroke: #ffffff; stroke-linejoin: miter"/>
    </g>
    <g clip-path="url(#pa06f35dc0c)">
     <!-- 18 -->
     <g transform="translate(127.17172 254.155403) rotate(-295.034866) scale(0.1 -0.1)">
      <use xlink:href="#DejaVuSans-31"/>
      <use xlink:href="#DejaVuSans-38" x="63.623047"/>
     </g>
    </g>
   </g>
   <g id="matplotlib.axis_1">
    <g id="xtick_1">
     <g id="line2d_1">
      <path d="M 10.8 493.2 
L 10.8 10.8 
" clip-path="url(#pa06f35dc0c)" style="fill: none; stroke: #b0b0b0; stroke-opacity: 0.3; stroke-width: 0.8; stroke-linecap: square"/>
     </g>
    </g>
    <g id="xtick_2">
     <g id="line2d_2">
      <path d="M 59.04 493.2 
L 59.04 10.8 
" clip-path="url(#pa06f35dc0c)" style="fill: none; stroke: #b0b0b0; stroke-opacity: 0.3; stroke-width: 0.8; stroke-linecap: square"/>
     </g>
    </g>
    <g id="xtick_3">
     <g id="line2d_3">
      <path d="M 107.28 493.2 
L 107.28 10.8 
" clip-path="url(#pa06f35dc0c)" style="fill: none; stroke: #b0b0b0; stroke-opacity: 0.3; stroke-width: 0.8; stroke-linecap: square"/>
     </g>
    </g>
    <g id="xtick_4">
     <g id="line2d_4">
      <path d="M 155.52 493.2 
L 155.52 10.8 
" clip-path="url(#pa06f35dc0c)" style="fill: none; stroke: #b0b0b0; stroke-opacity: 0.3; stroke-width: 0.8; stroke-linecap: square"/>
     </g>
    </g>
    <g id="xtick_5">
     <g id="line2d_5">
      <path d="M 203.76 493.2 
L 203.76 10.8 
" clip-path="url(#pa06f35dc0c)" style="fill: none; stroke: #b0b0b0; stroke-opacity: 0.3; stroke-width: 0.8; stroke-linecap: square"/>
     </g>
    </g>
    <g id="xtick_6">
     <g id="line2d_6">
      <path d="M 252 493.2 
L 252 10.8 
" clip-path="url(#pa06f35dc0c)" style="fill: none; stroke: #b0b0b0; stroke-opacity: 0.3; stroke-width: 0.8; stroke-linecap: square"/>
     </g>
    </g>
    <g id="xtick_7">
     <g id="line2d_7">
      <path d="M 300.24 493.2 
L 300.24 10.8 
" clip-path="url(#pa06f35dc0c)" style="fill: none; stroke: #b0b0b0; stroke-opacity: 0.3; stroke-width: 0.8; stroke-linecap: square"/>
     </g>
    </g>
    <g id="xtick_8">
     <g id="line2d_8">
      <path d="M 348.48 493.2 
L 348.48 10.8 
" clip-path="url(#pa06f35dc0c)" style="fill: none; stroke: #b0b0b0; stroke-opacity: 0.3; stroke-width: 0.8; stroke-linecap: square"/>
     </g>
    </g>
    <g id="xtick_9">
     <g id="line2d_9">
      <path d="M 396.72 493.2 
L 396.72 10.8 
" clip-path="url(#pa06f35dc0c)" style="fill: none; stroke: #b0b0b0; stroke-opacity: 0.3; stroke-width: 0.8; stroke-linecap: square"/>
     </g>
    </g>
    <g id="xtick_10">
     <g id="line2d_10">
      <path d="M 444.96 493.2 
L 444.96 10.8 
" clip-path="url(#pa06f35dc0c)" style="fill: none; stroke: #b0b0b0; stroke-opacity: 0.3; stroke-width: 0.8; stroke-linecap: square"/>
     </g>
    </g>
    <g id="xtick_11">
     <g id="line2d_11">
      <path d="M 493.2 493.2 
L 493.2 10.8 
" clip-path="url(#pa06f35dc0c)" style="fill: none; stroke: #b0b0b0; stroke-opacity: 0.3; stroke-width: 0.8; stroke-linecap: square"/>
     </g>
    </g>
   </g>
   <g id="matplotlib.axis_2">
    <g id="ytick_1">
     <g id="line2d_12">
      <path d="M 10.8 493.2 
L 493.2 493.2 
" clip-path="url(#pa06f35dc0c)" style="fill: none; stroke: #b0b0b0; stroke-opacity: 0.3; stroke-width: 0.8; stroke-linecap: square"/>
     </g>
    </g>
    <g id="ytick_2">
     <g id="line2d_13">
      <path d="M 10.8 444.96 
L 493.2 444.96 
" clip-path="url(#pa06f35dc0c)" style="fill: none; stroke: #b0b0b0; stroke-opacity: 0.3; stroke-width: 0.8; stroke-linecap: square"/>
     </g>
    </g>
    <g id="ytick_3">
     <g id="line2d_14">
      <path d="M 10.8 396.72 
L 493.2 396.72 
" clip-path="url(#pa06f35dc0c)" style="fill: none; stroke: #b0b0b0; stroke-opacity: 0.3; stroke-width: 0.8; stroke-linecap: square"/>
     </g>
    </g>
    <g id="ytick_4">
     <g id="line2d_15">
      <path d="M 10.8 348.48 
L 493.2 348.48 
" clip-path="url(#pa06f35dc0c)" style="fill: none; stroke: #b0b0b0; stroke-opacity: 0.3; stroke-width: 0.8; stroke-linecap: square"/>
     </g>
    </g>
    <g id="ytick_5">
     <g id="line2d_16">
      <path d="M 10.8 300.24 
L 493.2 300.24 
" clip-path="url(#pa06f35dc0c)" style="fill: none; stroke: #b0b0b0; stroke-opacity: 0.3; stroke-width: 0.8; stroke-linecap: square"/>
     </g>
    </g>
    <g id="ytick_6">
     <g id="line2d_17">
      <path d="M 10.8 252 
L 493.2 252 
" clip-path="url(#pa06f35dc0c)" style="fill: none; stroke: #b0b0b0; stroke-opacity: 0.3; stroke-width: 0.8; stroke-linecap: square"/>
     </g>
    </g>
    <g id="ytick_7">
     <g id="line2d_18">
      <path d="M 10.8 203.76 
L 493.2 203.76 
" clip-path="url(#pa06f35dc0c)" style="fill: none; stroke: #b0b0b0; stroke-opacity: 0.3; stroke-width: 0.8; stroke-linecap: square"/>
     </g>
    </g>
    <g id="ytick_8">
     <g id="line2d_19">
      <path d="M 10.8 155.52 
L 493.2 155.52 
" clip-path="url(#pa06f35dc0c)" style="fill: none; stroke: #b0b0b0; stroke-opacity: 0.3; stroke-width: 0.8; stroke-linecap: square"/>
     </g>
    </g>
    <g id="ytick_9">
     <g id="line2d_20">
      <path d="M 10.8 107.28 
L 493.2 107.28 
" clip-path="url(#pa06f35dc0c)" style="fill: none; stroke: #b0b0b0; stroke-opacity: 0.3; stroke-width: 0.8; stroke-linecap: square"/>
     </g>
    </g>
    <g id="ytick_10">
     <g id="line2d_21">
      <path d="M 10.8 59.04 
L 493.2 59.04 
" clip-path="url(#pa06f35dc0c)" style="fill: none; stroke: #b0b0b0; stroke-opacity: 0.3; stroke-width: 0.8; stroke-linecap: square"/>
     </g>
    </g>
    <g id="ytick_11">
     <g id="line2d_22">
      <path d="M 10.8 10.8 
L 493.2 10.8 
" clip-path="url(#pa06f35dc0c)" style="fill: none; stroke: #b0b0b0; stroke-opacity: 0.3; stroke-width: 0.8; stroke-linecap: square"/>
     </g>
    </g>
   </g>
   <g id="PathCollection_1">
    <defs>
     <path id="m367bc2ef0c" d="M 0 8.660254 
C 2.296726 8.660254 4.499694 7.747755 6.123724 6.123724 
C 7.747755 4.499694 8.660254 2.296726 8.660254 0 
C 8.660254 -2.296726 7.747755 -4.499694 6.123724 -6.123724 
C 4.499694 -7.747755 2.296726 -8.660254 0 -8.660254 
C -2.296726 -8.660254 -4.499694 -7.747755 -6.123724 -6.123724 
C -7.747755 -4.499694 -8.660254 -2.296726 -8.660254 0 
C -8.660254 2.296726 -7.747755 4.499694 -6.123724 6.123724 
C -4.499694 7.747755 -2.296726 8.660254 0 8.660254 
z
" style="stroke: #1f78b4"/>
    </defs>
    <g clip-path="url(#pa06f35dc0c)">
     <use xlink:href="#m367bc2ef0c" x="123.1992" y="180.1224" style="fill: #1f78b4; stroke: #1f78b4"/>
     <use xlink:href="#m367bc2ef0c" x="469.5624" y="287.2152" style="fill: #1f78b4; stroke: #1f78b4"/>
     <use xlink:href="#m367bc2ef0c" x="185.9112" y="214.8552" style="fill: #1f78b4; stroke: #1f78b4"/>
     <use xlink:href="#m367bc2ef0c" x="233.1864" y="223.056" style="fill: #1f78b4; stroke: #1f78b4"/>
     <use xlink:href="#m367bc2ef0c" x="381.2832" y="149.7312" style="fill: #1f78b4; stroke: #1f78b4"/>
     <use xlink:href="#m367bc2ef0c" x="278.532" y="200.8656" style="fill: #1f78b4; stroke: #1f78b4"/>
     <use xlink:href="#m367bc2ef0c" x="142.9776" y="425.664" style="fill: #1f78b4; stroke: #1f78b4"/>
     <use xlink:href="#m367bc2ef0c" x="389.484" y="337.8672" style="fill: #1f78b4; stroke: #1f78b4"/>
     <use xlink:href="#m367bc2ef0c" x="32.0256" y="492.2352" style="fill: #1f78b4; stroke: #1f78b4"/>
     <use xlink:href="#m367bc2ef0c" x="338.3496" y="463.2912" style="fill: #1f78b4; stroke: #1f78b4"/>
     <use xlink:href="#m367bc2ef0c" x="20.9304" y="145.3896" style="fill: #1f78b4; stroke: #1f78b4"/>
     <use xlink:href="#m367bc2ef0c" x="384.1776" y="143.9424" style="fill: #1f78b4; stroke: #1f78b4"/>
     <use xlink:href="#m367bc2ef0c" x="191.2176" y="137.6712" style="fill: #1f78b4; stroke: #1f78b4"/>
     <use xlink:href="#m367bc2ef0c" x="174.816" y="298.7928" style="fill: #1f78b4; stroke: #1f78b4"/>
     <use xlink:href="#m367bc2ef0c" x="58.5576" y="443.5128" style="fill: #1f78b4; stroke: #1f78b4"/>
     <use xlink:href="#m367bc2ef0c" x="210.996" y="427.1112" style="fill: #1f78b4; stroke: #1f78b4"/>
     <use xlink:href="#m367bc2ef0c" x="60.4872" y="254.8944" style="fill: #1f78b4; stroke: #1f78b4"/>
     <use xlink:href="#m367bc2ef0c" x="53.7336" y="90.396" style="fill: #1f78b4; stroke: #1f78b4"/>
    </g>
   </g>
   <g id="patch_79">
    <path d="M 10.8 493.2 
L 10.8 10.8 
" style="fill: none; stroke: #000000; stroke-width: 0.8; stroke-linejoin: miter; stroke-linecap: square"/>
   </g>
   <g id="patch_80">
    <path d="M 493.2 493.2 
L 493.2 10.8 
" style="fill: none; stroke: #000000; stroke-width: 0.8; stroke-linejoin: miter; stroke-linecap: square"/>
   </g>
   <g id="patch_81">
    <path d="M 10.8 493.2 
L 493.2 493.2 
" style="fill: none; stroke: #000000; stroke-width: 0.8; stroke-linejoin: miter; stroke-linecap: square"/>
   </g>
   <g id="patch_82">
    <path d="M 10.8 10.8 
L 493.2 10.8 
" style="fill: none; stroke: #000000; stroke-width: 0.8; stroke-linejoin: miter; stroke-linecap: square"/>
   </g>
   <g id="text_77">
    <g clip-path="url(#pa06f35dc0c)">
     <!-- 0 -->
     <g transform="translate(119.3817 183.43365) scale(0.12 -0.12)">
      <use xlink:href="#DejaVuSans-30"/>
     </g>
    </g>
   </g>
   <g id="text_78">
    <g clip-path="url(#pa06f35dc0c)">
     <!-- 1 -->
     <g transform="translate(465.7449 290.52645) scale(0.12 -0.12)">
      <use xlink:href="#DejaVuSans-31"/>
     </g>
    </g>
   </g>
   <g id="text_79">
    <g clip-path="url(#pa06f35dc0c)">
     <!-- 2 -->
     <g transform="translate(182.0937 218.16645) scale(0.12 -0.12)">
      <use xlink:href="#DejaVuSans-32"/>
     </g>
    </g>
   </g>
   <g id="text_80">
    <g clip-path="url(#pa06f35dc0c)">
     <!-- 3 -->
     <g transform="translate(229.3689 226.36725) scale(0.12 -0.12)">
      <use xlink:href="#DejaVuSans-33"/>
     </g>
    </g>
   </g>
   <g id="text_81">
    <g clip-path="url(#pa06f35dc0c)">
     <!-- 4 -->
     <g transform="translate(377.4657 153.04245) scale(0.12 -0.12)">
      <use xlink:href="#DejaVuSans-34"/>
     </g>
    </g>
   </g>
   <g id="text_82">
    <g clip-path="url(#pa06f35dc0c)">
     <!-- 5 -->
     <g transform="translate(274.7145 204.17685) scale(0.12 -0.12)">
      <use xlink:href="#DejaVuSans-35"/>
     </g>
    </g>
   </g>
   <g id="text_83">
    <g clip-path="url(#pa06f35dc0c)">
     <!-- 6 -->
     <g transform="translate(139.1601 428.97525) scale(0.12 -0.12)">
      <use xlink:href="#DejaVuSans-36"/>
     </g>
    </g>
   </g>
   <g id="text_84">
    <g clip-path="url(#pa06f35dc0c)">
     <!-- 7 -->
     <g transform="translate(385.6665 341.17845) scale(0.12 -0.12)">
      <use xlink:href="#DejaVuSans-37"/>
     </g>
    </g>
   </g>
   <g id="text_85">
    <g clip-path="url(#pa06f35dc0c)">
     <!-- 8 -->
     <g transform="translate(28.2081 495.54645) scale(0.12 -0.12)">
      <use xlink:href="#DejaVuSans-38"/>
     </g>
    </g>
   </g>
   <g id="text_86">
    <g clip-path="url(#pa06f35dc0c)">
     <!-- 9 -->
     <g transform="translate(334.5321 466.60245) scale(0.12 -0.12)">
      <use xlink:href="#DejaVuSans-39"/>
     </g>
    </g>
   </g>
   <g id="text_87">
    <g clip-path="url(#pa06f35dc0c)">
     <!-- 10 -->
     <g transform="translate(13.2954 148.70085) scale(0.12 -0.12)">
      <use xlink:href="#DejaVuSans-31"/>
      <use xlink:href="#DejaVuSans-30" x="63.623047"/>
     </g>
    </g>
   </g>
   <g id="text_88">
    <g clip-path="url(#pa06f35dc0c)">
     <!-- 11 -->
     <g transform="translate(376.5426 147.25365) scale(0.12 -0.12)">
      <use xlink:href="#DejaVuSans-31"/>
      <use xlink:href="#DejaVuSans-31" x="63.623047"/>
     </g>
    </g>
   </g>
   <g id="text_89">
    <g clip-path="url(#pa06f35dc0c)">
     <!-- 12 -->
     <g transform="translate(183.5826 140.98245) scale(0.12 -0.12)">
      <use xlink:href="#DejaVuSans-31"/>
      <use xlink:href="#DejaVuSans-32" x="63.623047"/>
     </g>
    </g>
   </g>
   <g id="text_90">
    <g clip-path="url(#pa06f35dc0c)">
     <!-- 13 -->
     <g transform="translate(167.181 302.10405) scale(0.12 -0.12)">
      <use xlink:href="#DejaVuSans-31"/>
      <use xlink:href="#DejaVuSans-33" x="63.623047"/>
     </g>
    </g>
   </g>
   <g id="text_91">
    <g clip-path="url(#pa06f35dc0c)">
     <!-- 14 -->
     <g transform="translate(50.9226 446.82405) scale(0.12 -0.12)">
      <use xlink:href="#DejaVuSans-31"/>
      <use xlink:href="#DejaVuSans-34" x="63.623047"/>
     </g>
    </g>
   </g>
   <g id="text_92">
    <g clip-path="url(#pa06f35dc0c)">
     <!-- 15 -->
     <g transform="translate(203.361 430.42245) scale(0.12 -0.12)">
      <use xlink:href="#DejaVuSans-31"/>
      <use xlink:href="#DejaVuSans-35" x="63.623047"/>
     </g>
    </g>
   </g>
   <g id="text_93">
    <g clip-path="url(#pa06f35dc0c)">
     <!-- 16 -->
     <g transform="translate(52.8522 258.20565) scale(0.12 -0.12)">
      <use xlink:href="#DejaVuSans-31"/>
      <use xlink:href="#DejaVuSans-36" x="63.623047"/>
     </g>
    </g>
   </g>
   <g id="text_94">
    <g clip-path="url(#pa06f35dc0c)">
     <!-- 17 -->
     <g transform="translate(46.0986 93.70725) scale(0.12 -0.12)">
      <use xlink:href="#DejaVuSans-31"/>
      <use xlink:href="#DejaVuSans-37" x="63.623047"/>
     </g>
    </g>
   </g>
  </g>
 </g>
 <defs>
  <clipPath id="pa06f35dc0c">
   <rect x="10.8" y="10.8" width="482.4" height="482.4"/>
  </clipPath>
 </defs>
</svg>
