<?xml version="1.0" encoding="utf-8" standalone="no"?>
<!DOCTYPE svg PUBLIC "-//W3C//DTD SVG 1.1//EN"
  "http://www.w3.org/Graphics/SVG/1.1/DTD/svg11.dtd">
<svg xmlns:xlink="http://www.w3.org/1999/xlink" width="504pt" height="504pt" viewBox="0 0 504 504" xmlns="http://www.w3.org/2000/svg" version="1.1">
 <metadata>
  <rdf:RDF xmlns:dc="http://purl.org/dc/elements/1.1/" xmlns:cc="http://creativecommons.org/ns#" xmlns:rdf="http://www.w3.org/1999/02/22-rdf-syntax-ns#">
   <cc:Work>
    <dc:type rdf:resource="http://purl.org/dc/dcmitype/StillImage"/>
    <dc:date>2024-10-29T14:59:40.998131</dc:date>
    <dc:format>image/svg+xml</dc:format>
    <dc:creator>
     <cc:Agent>
      <dc:title>Matplotlib v3.9.2, https://matplotlib.org/</dc:title>
     </cc:Agent>
    </dc:creator>
   </cc:Work>
  </rdf:RDF>
 </metadata>
 <defs>
  <style type="text/css">*{stroke-linejoin: round; stroke-linecap: butt}</style>
 </defs>
 <g id="figure_1">
  <g id="patch_1">
   <path d="M 0 504 
L 504 504 
L 504 0 
L 0 0 
L 0 504 
z
" style="fill: none; opacity: 0"/>
  </g>
  <g id="axes_1">
   <g id="patch_2">
    <path d="M 10.8 493.2 
L 493.2 493.2 
L 493.2 10.8 
L 10.8 10.8 
L 10.8 493.2 
z
" style="fill: none; opacity: 0"/>
   </g>
   <g id="LineCollection_1">
    <path d="M 197.9712 349.9272 
L 277.5672 254.8944 
" clip-path="url(#p840447fc2a)" style="fill: none; stroke: #000000"/>
    <path d="M 197.9712 349.9272 
L 151.1784 440.6184 
" clip-path="url(#p840447fc2a)" style="fill: none; stroke: #000000"/>
    <path d="M 197.9712 349.9272 
L 20.448 275.1552 
" clip-path="url(#p840447fc2a)" style="fill: none; stroke: #000000"/>
    <path d="M 471.0096 233.1864 
L 388.5192 432.4176 
" clip-path="url(#p840447fc2a)" style="fill: none; stroke: #000000"/>
    <path d="M 471.0096 233.1864 
L 287.2152 375.9768 
" clip-path="url(#p840447fc2a)" style="fill: none; stroke: #000000"/>
    <path d="M 471.0096 233.1864 
L 252.9648 13.6944 
" clip-path="url(#p840447fc2a)" style="fill: none; stroke: #000000"/>
    <path d="M 363.4344 186.876 
L 20.448 275.1552 
" clip-path="url(#p840447fc2a)" style="fill: none; stroke: #000000"/>
    <path d="M 363.4344 186.876 
L 264.5424 17.0712 
" clip-path="url(#p840447fc2a)" style="fill: none; stroke: #000000"/>
    <path d="M 434.8296 488.8584 
L 264.5424 17.0712 
" clip-path="url(#p840447fc2a)" style="fill: none; stroke: #000000"/>
    <path d="M 434.8296 488.8584 
L 280.4616 159.8616 
" clip-path="url(#p840447fc2a)" style="fill: none; stroke: #000000"/>
    <path d="M 434.8296 488.8584 
L 339.3144 14.1768 
" clip-path="url(#p840447fc2a)" style="fill: none; stroke: #000000"/>
    <path d="M 135.7416 210.0312 
L 466.668 291.5568 
" clip-path="url(#p840447fc2a)" style="fill: none; stroke: #000000"/>
    <path d="M 135.7416 210.0312 
L 339.3144 14.1768 
" clip-path="url(#p840447fc2a)" style="fill: none; stroke: #000000"/>
    <path d="M 466.668 291.5568 
L 339.3144 14.1768 
" clip-path="url(#p840447fc2a)" style="fill: none; stroke: #000000"/>
    <path d="M 339.3144 14.1768 
L 147.3192 462.3264 
" clip-path="url(#p840447fc2a)" style="fill: none; stroke: #000000"/>
    <path d="M 170.4744 152.6256 
L 277.5672 254.8944 
" clip-path="url(#p840447fc2a)" style="fill: none; stroke: #000000"/>
    <path d="M 190.2528 203.76 
L 287.2152 375.9768 
" clip-path="url(#p840447fc2a)" style="fill: none; stroke: #000000"/>
    <path d="M 388.5192 432.4176 
L 280.4616 159.8616 
" clip-path="url(#p840447fc2a)" style="fill: none; stroke: #000000"/>
    <path d="M 388.5192 432.4176 
L 151.1784 440.6184 
" clip-path="url(#p840447fc2a)" style="fill: none; stroke: #000000"/>
    <path d="M 20.448 275.1552 
L 277.5672 254.8944 
" clip-path="url(#p840447fc2a)" style="fill: none; stroke: #000000"/>
    <path d="M 277.5672 254.8944 
L 162.2736 279.0144 
" clip-path="url(#p840447fc2a)" style="fill: none; stroke: #000000"/>
   </g>
   <g id="text_1">
    <g id="patch_3">
     <path d="M 241.736039 309.883182 
L 245.821376 305.005537 
Q 247.747665 302.705665 245.447793 300.779376 
L 238.02831 294.565088 
Q 235.728438 292.638799 233.802149 294.938671 
L 229.716811 299.816317 
Q 227.790523 302.116189 230.090395 304.042478 
L 237.509878 310.256766 
Q 239.80975 312.183054 241.736039 309.883182 
z
" clip-path="url(#p840447fc2a)" style="fill: #ffffff; stroke: #ffffff; stroke-linejoin: miter"/>
    </g>
    <g clip-path="url(#p840447fc2a)">
     <!-- 7 -->
     <g transform="translate(237.841828 306.621534) rotate(-50.051689) scale(0.1 -0.1)">
      <defs>
       <path id="DejaVuSans-37" d="M 525 4666 
L 3525 4666 
L 3525 4397 
L 1831 0 
L 1172 0 
L 2766 4134 
L 525 4134 
L 525 4666 
z
" transform="scale(0.015625)"/>
      </defs>
      <use xlink:href="#DejaVuSans-37"/>
     </g>
    </g>
   </g>
   <g id="text_2">
    <g id="patch_4">
     <path d="M 178.623949 404.521317 
L 184.458648 393.212829 
Q 185.834215 390.546781 183.168167 389.171213 
L 174.567384 384.733575 
Q 171.901335 383.358007 170.525768 386.024056 
L 164.691069 397.332544 
Q 163.315502 399.998593 165.98155 401.37416 
L 174.582333 405.811798 
Q 177.248382 407.187366 178.623949 404.521317 
z
" clip-path="url(#p840447fc2a)" style="fill: #ffffff; stroke: #ffffff; stroke-linejoin: miter"/>
    </g>
    <g clip-path="url(#p840447fc2a)">
     <!-- 14 -->
     <g transform="translate(174.109718 402.192166) rotate(-62.708191) scale(0.1 -0.1)">
      <defs>
       <path id="DejaVuSans-31" d="M 794 531 
L 1825 531 
L 1825 4091 
L 703 3866 
L 703 4441 
L 1819 4666 
L 2450 4666 
L 2450 531 
L 3481 531 
L 3481 0 
L 794 0 
L 794 531 
z
" transform="scale(0.015625)"/>
       <path id="DejaVuSans-34" d="M 2419 4116 
L 825 1625 
L 2419 1625 
L 2419 4116 
z
M 2253 4666 
L 3047 4666 
L 3047 1625 
L 3713 1625 
L 3713 1100 
L 3047 1100 
L 3047 0 
L 2419 0 
L 2419 1100 
L 313 1100 
L 313 1709 
L 2253 4666 
z
" transform="scale(0.015625)"/>
      </defs>
      <use xlink:href="#DejaVuSans-31"/>
      <use xlink:href="#DejaVuSans-34" x="63.623047"/>
     </g>
    </g>
   </g>
   <g id="text_3">
    <g id="patch_5">
     <path d="M 100.302132 317.295449 
L 112.029342 322.234899 
Q 114.794107 323.399406 115.958614 320.634641 
L 119.715361 311.715395 
Q 120.879868 308.95063 118.115104 307.786124 
L 106.387893 302.846674 
Q 103.623129 301.682167 102.458622 304.446931 
L 98.701874 313.366177 
Q 97.537367 316.130942 100.302132 317.295449 
z
" clip-path="url(#p840447fc2a)" style="fill: #ffffff; stroke: #ffffff; stroke-linejoin: miter"/>
    </g>
    <g clip-path="url(#p840447fc2a)">
     <!-- 18 -->
     <g transform="translate(102.273909 312.614069) rotate(-337.159386) scale(0.1 -0.1)">
      <defs>
       <path id="DejaVuSans-38" d="M 2034 2216 
Q 1584 2216 1326 1975 
Q 1069 1734 1069 1313 
Q 1069 891 1326 650 
Q 1584 409 2034 409 
Q 2484 409 2743 651 
Q 3003 894 3003 1313 
Q 3003 1734 2745 1975 
Q 2488 2216 2034 2216 
z
M 1403 2484 
Q 997 2584 770 2862 
Q 544 3141 544 3541 
Q 544 4100 942 4425 
Q 1341 4750 2034 4750 
Q 2731 4750 3128 4425 
Q 3525 4100 3525 3541 
Q 3525 3141 3298 2862 
Q 3072 2584 2669 2484 
Q 3125 2378 3379 2068 
Q 3634 1759 3634 1313 
Q 3634 634 3220 271 
Q 2806 -91 2034 -91 
Q 1263 -91 848 271 
Q 434 634 434 1313 
Q 434 1759 690 2068 
Q 947 2378 1403 2484 
z
M 1172 3481 
Q 1172 3119 1398 2916 
Q 1625 2713 2034 2713 
Q 2441 2713 2670 2916 
Q 2900 3119 2900 3481 
Q 2900 3844 2670 4047 
Q 2441 4250 2034 4250 
Q 1625 4250 1398 4047 
Q 1172 3844 1172 3481 
z
" transform="scale(0.015625)"/>
      </defs>
      <use xlink:href="#DejaVuSans-31"/>
      <use xlink:href="#DejaVuSans-38" x="63.623047"/>
     </g>
    </g>
   </g>
   <g id="text_4">
    <g id="patch_6">
     <path d="M 435.790071 338.740407 
L 438.224042 332.86187 
Q 439.37169 330.090065 436.599884 328.942417 
L 427.657926 325.240056 
Q 424.88612 324.092408 423.738472 326.864213 
L 421.304502 332.74275 
Q 420.156854 335.514555 422.928659 336.662203 
L 431.870618 340.364564 
Q 434.642423 341.512212 435.790071 338.740407 
z
" clip-path="url(#p840447fc2a)" style="fill: #ffffff; stroke: #ffffff; stroke-linejoin: miter"/>
    </g>
    <g clip-path="url(#p840447fc2a)">
     <!-- 6 -->
     <g transform="translate(431.09677 336.797175) rotate(-67.508313) scale(0.1 -0.1)">
      <defs>
       <path id="DejaVuSans-36" d="M 2113 2584 
Q 1688 2584 1439 2293 
Q 1191 2003 1191 1497 
Q 1191 994 1439 701 
Q 1688 409 2113 409 
Q 2538 409 2786 701 
Q 3034 994 3034 1497 
Q 3034 2003 2786 2293 
Q 2538 2584 2113 2584 
z
M 3366 4563 
L 3366 3988 
Q 3128 4100 2886 4159 
Q 2644 4219 2406 4219 
Q 1781 4219 1451 3797 
Q 1122 3375 1075 2522 
Q 1259 2794 1537 2939 
Q 1816 3084 2150 3084 
Q 2853 3084 3261 2657 
Q 3669 2231 3669 1497 
Q 3669 778 3244 343 
Q 2819 -91 2113 -91 
Q 1303 -91 875 529 
Q 447 1150 447 2328 
Q 447 3434 972 4092 
Q 1497 4750 2381 4750 
Q 2619 4750 2861 4703 
Q 3103 4656 3366 4563 
z
" transform="scale(0.015625)"/>
      </defs>
      <use xlink:href="#DejaVuSans-36"/>
     </g>
    </g>
   </g>
   <g id="text_5">
    <g id="patch_7">
     <path d="M 378.896984 314.675755 
L 388.94575 306.86884 
Q 391.314811 305.02831 389.474281 302.659249 
L 383.536654 295.01656 
Q 381.696124 292.6475 379.327063 294.48803 
L 369.278297 302.294945 
Q 366.909236 304.135475 368.749766 306.504536 
L 374.687393 314.147225 
Q 376.527923 316.516285 378.896984 314.675755 
z
" clip-path="url(#p840447fc2a)" style="fill: #ffffff; stroke: #ffffff; stroke-linejoin: miter"/>
    </g>
    <g clip-path="url(#p840447fc2a)">
     <!-- 10 -->
     <g transform="translate(375.780545 310.664393) rotate(-37.843737) scale(0.1 -0.1)">
      <defs>
       <path id="DejaVuSans-30" d="M 2034 4250 
Q 1547 4250 1301 3770 
Q 1056 3291 1056 2328 
Q 1056 1369 1301 889 
Q 1547 409 2034 409 
Q 2525 409 2770 889 
Q 3016 1369 3016 2328 
Q 3016 3291 2770 3770 
Q 2525 4250 2034 4250 
z
M 2034 4750 
Q 2819 4750 3233 4129 
Q 3647 3509 3647 2328 
Q 3647 1150 3233 529 
Q 2819 -91 2034 -91 
Q 1250 -91 836 529 
Q 422 1150 422 2328 
Q 422 3509 836 4129 
Q 1250 4750 2034 4750 
z
" transform="scale(0.015625)"/>
      </defs>
      <use xlink:href="#DejaVuSans-31"/>
      <use xlink:href="#DejaVuSans-30" x="63.623047"/>
     </g>
    </g>
   </g>
   <g id="text_6">
    <g id="patch_8">
     <path d="M 351.94039 124.449867 
L 360.908513 133.477513 
Q 363.022805 135.605838 365.151131 133.491546 
L 372.017196 126.670751 
Q 374.145522 124.556459 372.031229 122.428134 
L 363.063106 113.400488 
Q 360.948814 111.272162 358.820489 113.386455 
L 351.954423 120.20725 
Q 349.826098 122.321542 351.94039 124.449867 
z
" clip-path="url(#p840447fc2a)" style="fill: #ffffff; stroke: #ffffff; stroke-linejoin: miter"/>
    </g>
    <g clip-path="url(#p840447fc2a)">
     <!-- 16 -->
     <g transform="translate(355.544132 120.869886) rotate(-314.810489) scale(0.1 -0.1)">
      <use xlink:href="#DejaVuSans-31"/>
      <use xlink:href="#DejaVuSans-36" x="63.623047"/>
     </g>
    </g>
   </g>
   <g id="text_7">
    <g id="patch_9">
     <path d="M 190.8139 239.400303 
L 196.975578 237.814386 
Q 199.880888 237.066606 199.133108 234.161296 
L 196.720738 224.788646 
Q 195.972958 221.883336 193.067648 222.631116 
L 186.90597 224.217033 
Q 184.00066 224.964813 184.74844 227.870123 
L 187.16081 237.242773 
Q 187.908591 240.148083 190.8139 239.400303 
z
" clip-path="url(#p840447fc2a)" style="fill: #ffffff; stroke: #ffffff; stroke-linejoin: miter"/>
    </g>
    <g clip-path="url(#p840447fc2a)">
     <!-- 1 -->
     <g transform="translate(189.547737 234.480948) rotate(-14.43373) scale(0.1 -0.1)">
      <use xlink:href="#DejaVuSans-31"/>
     </g>
    </g>
   </g>
   <g id="text_8">
    <g id="patch_10">
     <path d="M 304.011514 100.419111 
L 310.415501 111.415227 
Q 311.925282 114.007631 314.517687 112.49785 
L 322.880892 107.627234 
Q 325.473297 106.117453 323.963515 103.525048 
L 317.559528 92.528932 
Q 316.049747 89.936528 313.457342 91.446309 
L 305.094137 96.316925 
Q 302.501732 97.826706 304.011514 100.419111 
z
" clip-path="url(#p840447fc2a)" style="fill: #ffffff; stroke: #ffffff; stroke-linejoin: miter"/>
    </g>
    <g clip-path="url(#p840447fc2a)">
     <!-- 12 -->
     <g transform="translate(308.401048 97.862706) rotate(-300.215938) scale(0.1 -0.1)">
      <defs>
       <path id="DejaVuSans-32" d="M 1228 531 
L 3431 531 
L 3431 0 
L 469 0 
L 469 531 
Q 828 903 1448 1529 
Q 2069 2156 2228 2338 
Q 2531 2678 2651 2914 
Q 2772 3150 2772 3378 
Q 2772 3750 2511 3984 
Q 2250 4219 1831 4219 
Q 1534 4219 1204 4116 
Q 875 4013 500 3803 
L 500 4441 
Q 881 4594 1212 4672 
Q 1544 4750 1819 4750 
Q 2544 4750 2975 4387 
Q 3406 4025 3406 3419 
Q 3406 3131 3298 2873 
Q 3191 2616 2906 2266 
Q 2828 2175 2409 1742 
Q 1991 1309 1228 531 
z
" transform="scale(0.015625)"/>
      </defs>
      <use xlink:href="#DejaVuSans-31"/>
      <use xlink:href="#DejaVuSans-32" x="63.623047"/>
     </g>
    </g>
   </g>
   <g id="text_9">
    <g id="patch_11">
     <path d="M 341.23265 252.634311 
L 343.392735 258.618911 
Q 344.411243 261.440726 347.233059 260.422218 
L 356.336352 257.136469 
Q 359.158168 256.117961 358.13966 253.296146 
L 355.979574 247.311546 
Q 354.961066 244.48973 352.139251 245.508238 
L 343.035957 248.793988 
Q 340.214142 249.812496 341.23265 252.634311 
z
" clip-path="url(#p840447fc2a)" style="fill: #ffffff; stroke: #ffffff; stroke-linejoin: miter"/>
    </g>
    <g clip-path="url(#p840447fc2a)">
     <!-- 7 -->
     <g transform="translate(346.01063 250.909743) rotate(-289.846576) scale(0.1 -0.1)">
      <use xlink:href="#DejaVuSans-37"/>
     </g>
    </g>
   </g>
   <g id="text_10">
    <g id="patch_12">
     <path d="M 349.197459 324.809568 
L 351.900083 330.569536 
Q 353.174405 333.285434 355.890303 332.011112 
L 364.651904 327.900097 
Q 367.367803 326.625775 366.093481 323.909877 
L 363.390857 318.149909 
Q 362.116535 315.434011 359.400636 316.708332 
L 350.639035 320.819348 
Q 347.923137 322.093669 349.197459 324.809568 
z
" clip-path="url(#p840447fc2a)" style="fill: #ffffff; stroke: #ffffff; stroke-linejoin: miter"/>
    </g>
    <g clip-path="url(#p840447fc2a)">
     <!-- 7 -->
     <g transform="translate(353.796097 322.651849) rotate(-295.136355) scale(0.1 -0.1)">
      <use xlink:href="#DejaVuSans-37"/>
     </g>
    </g>
   </g>
   <g id="text_11">
    <g id="patch_13">
     <path d="M 378.759166 249.943961 
L 380.014268 256.181438 
Q 380.606065 259.122488 383.547115 258.530692 
L 393.035066 256.621531 
Q 395.976116 256.029734 395.38432 253.088684 
L 394.129217 246.851206 
Q 393.537421 243.910156 390.59637 244.501953 
L 381.10842 246.411114 
Q 378.167369 247.00291 378.759166 249.943961 
z
" clip-path="url(#p840447fc2a)" style="fill: #ffffff; stroke: #ffffff; stroke-linejoin: miter"/>
    </g>
    <g clip-path="url(#p840447fc2a)">
     <!-- 3 -->
     <g transform="translate(383.739038 248.941913) rotate(-281.377102) scale(0.1 -0.1)">
      <defs>
       <path id="DejaVuSans-33" d="M 2597 2516 
Q 3050 2419 3304 2112 
Q 3559 1806 3559 1356 
Q 3559 666 3084 287 
Q 2609 -91 1734 -91 
Q 1441 -91 1130 -33 
Q 819 25 488 141 
L 488 750 
Q 750 597 1062 519 
Q 1375 441 1716 441 
Q 2309 441 2620 675 
Q 2931 909 2931 1356 
Q 2931 1769 2642 2001 
Q 2353 2234 1838 2234 
L 1294 2234 
L 1294 2753 
L 1863 2753 
Q 2328 2753 2575 2939 
Q 2822 3125 2822 3475 
Q 2822 3834 2567 4026 
Q 2313 4219 1838 4219 
Q 1578 4219 1281 4162 
Q 984 4106 628 3988 
L 628 4550 
Q 988 4650 1302 4700 
Q 1616 4750 1894 4750 
Q 2613 4750 3031 4423 
Q 3450 4097 3450 3541 
Q 3450 3153 3228 2886 
Q 3006 2619 2597 2516 
z
" transform="scale(0.015625)"/>
      </defs>
      <use xlink:href="#DejaVuSans-33"/>
     </g>
    </g>
   </g>
   <g id="text_12">
    <g id="patch_14">
     <path d="M 293.152931 256.883816 
L 305.508517 259.927685 
Q 308.421425 260.645296 309.139036 257.732388 
L 311.454081 248.335225 
Q 312.171692 245.422317 309.258784 244.704705 
L 296.903199 241.660837 
Q 293.990291 240.943225 293.272679 243.856133 
L 290.957635 253.253296 
Q 290.240023 256.166204 293.152931 256.883816 
z
" clip-path="url(#p840447fc2a)" style="fill: #ffffff; stroke: #ffffff; stroke-linejoin: miter"/>
    </g>
    <g clip-path="url(#p840447fc2a)">
     <!-- 10 -->
     <g transform="translate(294.368012 251.951595) rotate(-346.160446) scale(0.1 -0.1)">
      <use xlink:href="#DejaVuSans-31"/>
      <use xlink:href="#DejaVuSans-30" x="63.623047"/>
     </g>
    </g>
   </g>
   <g id="text_13">
    <g id="patch_15">
     <path d="M 238.377177 122.164995 
L 247.547272 113.342581 
Q 249.709181 111.262641 247.62924 109.100732 
L 240.919266 102.126325 
Q 238.839326 99.964417 236.677417 102.044357 
L 227.507322 110.866771 
Q 225.345414 112.946711 227.425354 115.10862 
L 234.135329 122.083027 
Q 236.215269 124.244935 238.377177 122.164995 
z
" clip-path="url(#p840447fc2a)" style="fill: #ffffff; stroke: #ffffff; stroke-linejoin: miter"/>
    </g>
    <g clip-path="url(#p840447fc2a)">
     <!-- 19 -->
     <g transform="translate(234.855362 118.504388) rotate(-43.892973) scale(0.1 -0.1)">
      <defs>
       <path id="DejaVuSans-39" d="M 703 97 
L 703 672 
Q 941 559 1184 500 
Q 1428 441 1663 441 
Q 2288 441 2617 861 
Q 2947 1281 2994 2138 
Q 2813 1869 2534 1725 
Q 2256 1581 1919 1581 
Q 1219 1581 811 2004 
Q 403 2428 403 3163 
Q 403 3881 828 4315 
Q 1253 4750 1959 4750 
Q 2769 4750 3195 4129 
Q 3622 3509 3622 2328 
Q 3622 1225 3098 567 
Q 2575 -91 1691 -91 
Q 1453 -91 1209 -44 
Q 966 3 703 97 
z
M 1959 2075 
Q 2384 2075 2632 2365 
Q 2881 2656 2881 3163 
Q 2881 3666 2632 3958 
Q 2384 4250 1959 4250 
Q 1534 4250 1286 3958 
Q 1038 3666 1038 3163 
Q 1038 2656 1286 2365 
Q 1534 2075 1959 2075 
z
" transform="scale(0.015625)"/>
      </defs>
      <use xlink:href="#DejaVuSans-31"/>
      <use xlink:href="#DejaVuSans-39" x="63.623047"/>
     </g>
    </g>
   </g>
   <g id="text_14">
    <g id="patch_16">
     <path d="M 393.212106 150.354937 
L 398.521653 161.919293 
Q 399.773413 164.645664 402.499784 163.393904 
L 411.29517 159.355675 
Q 414.02154 158.103915 412.769781 155.377544 
L 407.460233 143.813188 
Q 406.208473 141.086818 403.482102 142.338577 
L 394.686717 146.376807 
Q 391.960346 147.628566 393.212106 150.354937 
z
" clip-path="url(#p840447fc2a)" style="fill: #ffffff; stroke: #ffffff; stroke-linejoin: miter"/>
    </g>
    <g clip-path="url(#p840447fc2a)">
     <!-- 19 -->
     <g transform="translate(397.828476 148.235421) rotate(-294.661295) scale(0.1 -0.1)">
      <use xlink:href="#DejaVuSans-31"/>
      <use xlink:href="#DejaVuSans-39" x="63.623047"/>
     </g>
    </g>
   </g>
   <g id="text_15">
    <g id="patch_17">
     <path d="M 248.01679 247.18723 
L 253.027893 235.490458 
Q 254.209293 232.73287 251.451704 231.55147 
L 242.555608 227.740226 
Q 239.79802 226.558826 238.61662 229.316414 
L 233.605517 241.013186 
Q 232.424117 243.770775 235.181706 244.952174 
L 244.077801 248.763419 
Q 246.83539 249.944818 248.01679 247.18723 
z
" clip-path="url(#p840447fc2a)" style="fill: #ffffff; stroke: #ffffff; stroke-linejoin: miter"/>
    </g>
    <g clip-path="url(#p840447fc2a)">
     <!-- 13 -->
     <g transform="translate(243.34756 245.18685) rotate(-66.808853) scale(0.1 -0.1)">
      <use xlink:href="#DejaVuSans-31"/>
      <use xlink:href="#DejaVuSans-33" x="63.623047"/>
     </g>
    </g>
   </g>
   <g id="text_16">
    <g id="patch_18">
     <path d="M 214.007213 205.036773 
L 223.21003 213.825049 
Q 225.379653 215.896941 227.451545 213.727318 
L 234.135555 206.728025 
Q 236.207447 204.558402 234.037825 202.48651 
L 224.835008 193.698234 
Q 222.665385 191.626342 220.593493 193.795965 
L 213.909483 200.795259 
Q 211.837591 202.964881 214.007213 205.036773 
z
" clip-path="url(#p840447fc2a)" style="fill: #ffffff; stroke: #ffffff; stroke-linejoin: miter"/>
    </g>
    <g clip-path="url(#p840447fc2a)">
     <!-- 20 -->
     <g transform="translate(217.515402 201.363105) rotate(-316.319946) scale(0.1 -0.1)">
      <use xlink:href="#DejaVuSans-32"/>
      <use xlink:href="#DejaVuSans-30" x="63.623047"/>
     </g>
    </g>
   </g>
   <g id="text_17">
    <g id="patch_19">
     <path d="M 228.781371 288.169575 
L 235.024368 299.257884 
Q 236.496195 301.872024 239.110335 300.400197 
L 247.543658 295.652023 
Q 250.157798 294.180197 248.685972 291.566057 
L 242.442974 280.477748 
Q 240.971147 277.863608 238.357008 279.335434 
L 229.923684 284.083608 
Q 227.309544 285.555435 228.781371 288.169575 
z
" clip-path="url(#p840447fc2a)" style="fill: #ffffff; stroke: #ffffff; stroke-linejoin: miter"/>
    </g>
    <g clip-path="url(#p840447fc2a)">
     <!-- 20 -->
     <g transform="translate(233.207708 285.677435) rotate(-299.380608) scale(0.1 -0.1)">
      <use xlink:href="#DejaVuSans-32"/>
      <use xlink:href="#DejaVuSans-30" x="63.623047"/>
     </g>
    </g>
   </g>
   <g id="text_18">
    <g id="patch_20">
     <path d="M 326.031599 296.07367 
L 328.376512 301.988295 
Q 329.482169 304.777117 332.27099 303.67146 
L 341.267843 300.104566 
Q 344.056665 298.998909 342.951008 296.210088 
L 340.606095 290.295463 
Q 339.500438 287.506642 336.711617 288.612299 
L 327.714764 292.179193 
Q 324.925943 293.284849 326.031599 296.07367 
z
" clip-path="url(#p840447fc2a)" style="fill: #ffffff; stroke: #ffffff; stroke-linejoin: miter"/>
    </g>
    <g clip-path="url(#p840447fc2a)">
     <!-- 6 -->
     <g transform="translate(330.753713 294.201541) rotate(-291.626354) scale(0.1 -0.1)">
      <use xlink:href="#DejaVuSans-36"/>
     </g>
    </g>
   </g>
   <g id="text_19">
    <g id="patch_21">
     <path d="M 263.763619 444.572001 
L 276.48103 444.132578 
Q 279.47924 444.028982 279.375644 441.030771 
L 279.041436 431.358418 
Q 278.93784 428.360207 275.939629 428.463804 
L 263.222218 428.903227 
Q 260.224007 429.006823 260.327604 432.005034 
L 260.661811 441.677387 
Q 260.765408 444.675598 263.763619 444.572001 
z
" clip-path="url(#p840447fc2a)" style="fill: #ffffff; stroke: #ffffff; stroke-linejoin: miter"/>
    </g>
    <g clip-path="url(#p840447fc2a)">
     <!-- 19 -->
     <g transform="translate(263.588206 439.495343) rotate(-1.978945) scale(0.1 -0.1)">
      <use xlink:href="#DejaVuSans-31"/>
      <use xlink:href="#DejaVuSans-39" x="63.623047"/>
     </g>
    </g>
   </g>
   <g id="text_20">
    <g id="patch_22">
     <path d="M 143.281491 273.339376 
L 155.967168 272.339754 
Q 158.957897 272.104087 158.72223 269.113357 
L 157.961957 259.46514 
Q 157.72629 256.474411 154.735561 256.710079 
L 142.049885 257.7097 
Q 139.059156 257.945367 139.294823 260.936097 
L 140.055095 270.584314 
Q 140.290762 273.575043 143.281491 273.339376 
z
" clip-path="url(#p840447fc2a)" style="fill: #ffffff; stroke: #ffffff; stroke-linejoin: miter"/>
    </g>
    <g clip-path="url(#p840447fc2a)">
     <!-- 17 -->
     <g transform="translate(142.882453 268.275386) rotate(-4.505554) scale(0.1 -0.1)">
      <use xlink:href="#DejaVuSans-31"/>
      <use xlink:href="#DejaVuSans-37" x="63.623047"/>
     </g>
    </g>
   </g>
   <g id="text_21">
    <g id="patch_23">
     <path d="M 215.29932 275.929924 
L 227.754674 273.324201 
Q 230.691103 272.709886 230.076787 269.773456 
L 228.094979 260.300414 
Q 227.480663 257.363984 224.544234 257.9783 
L 212.08888 260.584023 
Q 209.152451 261.198338 209.766767 264.134768 
L 211.748575 273.60781 
Q 212.362891 276.544239 215.29932 275.929924 
z
" clip-path="url(#p840447fc2a)" style="fill: #ffffff; stroke: #ffffff; stroke-linejoin: miter"/>
    </g>
    <g clip-path="url(#p840447fc2a)">
     <!-- 12 -->
     <g transform="translate(214.259143 270.957876) rotate(-11.816147) scale(0.1 -0.1)">
      <use xlink:href="#DejaVuSans-31"/>
      <use xlink:href="#DejaVuSans-32" x="63.623047"/>
     </g>
    </g>
   </g>
   <g id="matplotlib.axis_1">
    <g id="xtick_1">
     <g id="line2d_1">
      <path d="M 10.8 493.2 
L 10.8 10.8 
" clip-path="url(#p840447fc2a)" style="fill: none; stroke: #b0b0b0; stroke-opacity: 0.3; stroke-width: 0.8; stroke-linecap: square"/>
     </g>
    </g>
    <g id="xtick_2">
     <g id="line2d_2">
      <path d="M 59.04 493.2 
L 59.04 10.8 
" clip-path="url(#p840447fc2a)" style="fill: none; stroke: #b0b0b0; stroke-opacity: 0.3; stroke-width: 0.8; stroke-linecap: square"/>
     </g>
    </g>
    <g id="xtick_3">
     <g id="line2d_3">
      <path d="M 107.28 493.2 
L 107.28 10.8 
" clip-path="url(#p840447fc2a)" style="fill: none; stroke: #b0b0b0; stroke-opacity: 0.3; stroke-width: 0.8; stroke-linecap: square"/>
     </g>
    </g>
    <g id="xtick_4">
     <g id="line2d_4">
      <path d="M 155.52 493.2 
L 155.52 10.8 
" clip-path="url(#p840447fc2a)" style="fill: none; stroke: #b0b0b0; stroke-opacity: 0.3; stroke-width: 0.8; stroke-linecap: square"/>
     </g>
    </g>
    <g id="xtick_5">
     <g id="line2d_5">
      <path d="M 203.76 493.2 
L 203.76 10.8 
" clip-path="url(#p840447fc2a)" style="fill: none; stroke: #b0b0b0; stroke-opacity: 0.3; stroke-width: 0.8; stroke-linecap: square"/>
     </g>
    </g>
    <g id="xtick_6">
     <g id="line2d_6">
      <path d="M 252 493.2 
L 252 10.8 
" clip-path="url(#p840447fc2a)" style="fill: none; stroke: #b0b0b0; stroke-opacity: 0.3; stroke-width: 0.8; stroke-linecap: square"/>
     </g>
    </g>
    <g id="xtick_7">
     <g id="line2d_7">
      <path d="M 300.24 493.2 
L 300.24 10.8 
" clip-path="url(#p840447fc2a)" style="fill: none; stroke: #b0b0b0; stroke-opacity: 0.3; stroke-width: 0.8; stroke-linecap: square"/>
     </g>
    </g>
    <g id="xtick_8">
     <g id="line2d_8">
      <path d="M 348.48 493.2 
L 348.48 10.8 
" clip-path="url(#p840447fc2a)" style="fill: none; stroke: #b0b0b0; stroke-opacity: 0.3; stroke-width: 0.8; stroke-linecap: square"/>
     </g>
    </g>
    <g id="xtick_9">
     <g id="line2d_9">
      <path d="M 396.72 493.2 
L 396.72 10.8 
" clip-path="url(#p840447fc2a)" style="fill: none; stroke: #b0b0b0; stroke-opacity: 0.3; stroke-width: 0.8; stroke-linecap: square"/>
     </g>
    </g>
    <g id="xtick_10">
     <g id="line2d_10">
      <path d="M 444.96 493.2 
L 444.96 10.8 
" clip-path="url(#p840447fc2a)" style="fill: none; stroke: #b0b0b0; stroke-opacity: 0.3; stroke-width: 0.8; stroke-linecap: square"/>
     </g>
    </g>
    <g id="xtick_11">
     <g id="line2d_11">
      <path d="M 493.2 493.2 
L 493.2 10.8 
" clip-path="url(#p840447fc2a)" style="fill: none; stroke: #b0b0b0; stroke-opacity: 0.3; stroke-width: 0.8; stroke-linecap: square"/>
     </g>
    </g>
   </g>
   <g id="matplotlib.axis_2">
    <g id="ytick_1">
     <g id="line2d_12">
      <path d="M 10.8 493.2 
L 493.2 493.2 
" clip-path="url(#p840447fc2a)" style="fill: none; stroke: #b0b0b0; stroke-opacity: 0.3; stroke-width: 0.8; stroke-linecap: square"/>
     </g>
    </g>
    <g id="ytick_2">
     <g id="line2d_13">
      <path d="M 10.8 444.96 
L 493.2 444.96 
" clip-path="url(#p840447fc2a)" style="fill: none; stroke: #b0b0b0; stroke-opacity: 0.3; stroke-width: 0.8; stroke-linecap: square"/>
     </g>
    </g>
    <g id="ytick_3">
     <g id="line2d_14">
      <path d="M 10.8 396.72 
L 493.2 396.72 
" clip-path="url(#p840447fc2a)" style="fill: none; stroke: #b0b0b0; stroke-opacity: 0.3; stroke-width: 0.8; stroke-linecap: square"/>
     </g>
    </g>
    <g id="ytick_4">
     <g id="line2d_15">
      <path d="M 10.8 348.48 
L 493.2 348.48 
" clip-path="url(#p840447fc2a)" style="fill: none; stroke: #b0b0b0; stroke-opacity: 0.3; stroke-width: 0.8; stroke-linecap: square"/>
     </g>
    </g>
    <g id="ytick_5">
     <g id="line2d_16">
      <path d="M 10.8 300.24 
L 493.2 300.24 
" clip-path="url(#p840447fc2a)" style="fill: none; stroke: #b0b0b0; stroke-opacity: 0.3; stroke-width: 0.8; stroke-linecap: square"/>
     </g>
    </g>
    <g id="ytick_6">
     <g id="line2d_17">
      <path d="M 10.8 252 
L 493.2 252 
" clip-path="url(#p840447fc2a)" style="fill: none; stroke: #b0b0b0; stroke-opacity: 0.3; stroke-width: 0.8; stroke-linecap: square"/>
     </g>
    </g>
    <g id="ytick_7">
     <g id="line2d_18">
      <path d="M 10.8 203.76 
L 493.2 203.76 
" clip-path="url(#p840447fc2a)" style="fill: none; stroke: #b0b0b0; stroke-opacity: 0.3; stroke-width: 0.8; stroke-linecap: square"/>
     </g>
    </g>
    <g id="ytick_8">
     <g id="line2d_19">
      <path d="M 10.8 155.52 
L 493.2 155.52 
" clip-path="url(#p840447fc2a)" style="fill: none; stroke: #b0b0b0; stroke-opacity: 0.3; stroke-width: 0.8; stroke-linecap: square"/>
     </g>
    </g>
    <g id="ytick_9">
     <g id="line2d_20">
      <path d="M 10.8 107.28 
L 493.2 107.28 
" clip-path="url(#p840447fc2a)" style="fill: none; stroke: #b0b0b0; stroke-opacity: 0.3; stroke-width: 0.8; stroke-linecap: square"/>
     </g>
    </g>
    <g id="ytick_10">
     <g id="line2d_21">
      <path d="M 10.8 59.04 
L 493.2 59.04 
" clip-path="url(#p840447fc2a)" style="fill: none; stroke: #b0b0b0; stroke-opacity: 0.3; stroke-width: 0.8; stroke-linecap: square"/>
     </g>
    </g>
    <g id="ytick_11">
     <g id="line2d_22">
      <path d="M 10.8 10.8 
L 493.2 10.8 
" clip-path="url(#p840447fc2a)" style="fill: none; stroke: #b0b0b0; stroke-opacity: 0.3; stroke-width: 0.8; stroke-linecap: square"/>
     </g>
    </g>
   </g>
   <g id="PathCollection_1">
    <defs>
     <path id="mbf2a54c3f2" d="M 0 8.660254 
C 2.296726 8.660254 4.499694 7.747755 6.123724 6.123724 
C 7.747755 4.499694 8.660254 2.296726 8.660254 0 
C 8.660254 -2.296726 7.747755 -4.499694 6.123724 -6.123724 
C 4.499694 -7.747755 2.296726 -8.660254 0 -8.660254 
C -2.296726 -8.660254 -4.499694 -7.747755 -6.123724 -6.123724 
C -7.747755 -4.499694 -8.660254 -2.296726 -8.660254 0 
C -8.660254 2.296726 -7.747755 4.499694 -6.123724 6.123724 
C -4.499694 7.747755 -2.296726 8.660254 0 8.660254 
z
" style="stroke: #1f78b4"/>
    </defs>
    <g clip-path="url(#p840447fc2a)">
     <use xlink:href="#mbf2a54c3f2" x="197.9712" y="349.9272" style="fill: #1f78b4; stroke: #1f78b4"/>
     <use xlink:href="#mbf2a54c3f2" x="471.0096" y="233.1864" style="fill: #1f78b4; stroke: #1f78b4"/>
     <use xlink:href="#mbf2a54c3f2" x="363.4344" y="186.876" style="fill: #1f78b4; stroke: #1f78b4"/>
     <use xlink:href="#mbf2a54c3f2" x="434.8296" y="488.8584" style="fill: #1f78b4; stroke: #1f78b4"/>
     <use xlink:href="#mbf2a54c3f2" x="135.7416" y="210.0312" style="fill: #1f78b4; stroke: #1f78b4"/>
     <use xlink:href="#mbf2a54c3f2" x="466.668" y="291.5568" style="fill: #1f78b4; stroke: #1f78b4"/>
     <use xlink:href="#mbf2a54c3f2" x="339.3144" y="14.1768" style="fill: #1f78b4; stroke: #1f78b4"/>
     <use xlink:href="#mbf2a54c3f2" x="170.4744" y="152.6256" style="fill: #1f78b4; stroke: #1f78b4"/>
     <use xlink:href="#mbf2a54c3f2" x="190.2528" y="203.76" style="fill: #1f78b4; stroke: #1f78b4"/>
     <use xlink:href="#mbf2a54c3f2" x="264.5424" y="17.0712" style="fill: #1f78b4; stroke: #1f78b4"/>
     <use xlink:href="#mbf2a54c3f2" x="147.3192" y="462.3264" style="fill: #1f78b4; stroke: #1f78b4"/>
     <use xlink:href="#mbf2a54c3f2" x="388.5192" y="432.4176" style="fill: #1f78b4; stroke: #1f78b4"/>
     <use xlink:href="#mbf2a54c3f2" x="287.2152" y="375.9768" style="fill: #1f78b4; stroke: #1f78b4"/>
     <use xlink:href="#mbf2a54c3f2" x="151.1784" y="440.6184" style="fill: #1f78b4; stroke: #1f78b4"/>
     <use xlink:href="#mbf2a54c3f2" x="20.448" y="275.1552" style="fill: #1f78b4; stroke: #1f78b4"/>
     <use xlink:href="#mbf2a54c3f2" x="280.4616" y="159.8616" style="fill: #1f78b4; stroke: #1f78b4"/>
     <use xlink:href="#mbf2a54c3f2" x="252.9648" y="13.6944" style="fill: #1f78b4; stroke: #1f78b4"/>
     <use xlink:href="#mbf2a54c3f2" x="277.5672" y="254.8944" style="fill: #1f78b4; stroke: #1f78b4"/>
     <use xlink:href="#mbf2a54c3f2" x="162.2736" y="279.0144" style="fill: #1f78b4; stroke: #1f78b4"/>
    </g>
   </g>
   <g id="patch_24">
    <path d="M 10.8 493.2 
L 10.8 10.8 
" style="fill: none; stroke: #000000; stroke-width: 0.8; stroke-linejoin: miter; stroke-linecap: square"/>
   </g>
   <g id="patch_25">
    <path d="M 493.2 493.2 
L 493.2 10.8 
" style="fill: none; stroke: #000000; stroke-width: 0.8; stroke-linejoin: miter; stroke-linecap: square"/>
   </g>
   <g id="patch_26">
    <path d="M 10.8 493.2 
L 493.2 493.2 
" style="fill: none; stroke: #000000; stroke-width: 0.8; stroke-linejoin: miter; stroke-linecap: square"/>
   </g>
   <g id="patch_27">
    <path d="M 10.8 10.8 
L 493.2 10.8 
" style="fill: none; stroke: #000000; stroke-width: 0.8; stroke-linejoin: miter; stroke-linecap: square"/>
   </g>
   <g id="text_22">
    <g clip-path="url(#p840447fc2a)">
     <!-- 0 -->
     <g transform="translate(194.1537 353.23845) scale(0.12 -0.12)">
      <use xlink:href="#DejaVuSans-30"/>
     </g>
    </g>
   </g>
   <g id="text_23">
    <g clip-path="url(#p840447fc2a)">
     <!-- 1 -->
     <g transform="translate(467.1921 236.49765) scale(0.12 -0.12)">
      <use xlink:href="#DejaVuSans-31"/>
     </g>
    </g>
   </g>
   <g id="text_24">
    <g clip-path="url(#p840447fc2a)">
     <!-- 2 -->
     <g transform="translate(359.6169 190.18725) scale(0.12 -0.12)">
      <use xlink:href="#DejaVuSans-32"/>
     </g>
    </g>
   </g>
   <g id="text_25">
    <g clip-path="url(#p840447fc2a)">
     <!-- 3 -->
     <g transform="translate(431.0121 492.16965) scale(0.12 -0.12)">
      <use xlink:href="#DejaVuSans-33"/>
     </g>
    </g>
   </g>
   <g id="text_26">
    <g clip-path="url(#p840447fc2a)">
     <!-- 4 -->
     <g transform="translate(131.9241 213.34245) scale(0.12 -0.12)">
      <use xlink:href="#DejaVuSans-34"/>
     </g>
    </g>
   </g>
   <g id="text_27">
    <g clip-path="url(#p840447fc2a)">
     <!-- 5 -->
     <g transform="translate(462.8505 294.86805) scale(0.12 -0.12)">
      <defs>
       <path id="DejaVuSans-35" d="M 691 4666 
L 3169 4666 
L 3169 4134 
L 1269 4134 
L 1269 2991 
Q 1406 3038 1543 3061 
Q 1681 3084 1819 3084 
Q 2600 3084 3056 2656 
Q 3513 2228 3513 1497 
Q 3513 744 3044 326 
Q 2575 -91 1722 -91 
Q 1428 -91 1123 -41 
Q 819 9 494 109 
L 494 744 
Q 775 591 1075 516 
Q 1375 441 1709 441 
Q 2250 441 2565 725 
Q 2881 1009 2881 1497 
Q 2881 1984 2565 2268 
Q 2250 2553 1709 2553 
Q 1456 2553 1204 2497 
Q 953 2441 691 2322 
L 691 4666 
z
" transform="scale(0.015625)"/>
      </defs>
      <use xlink:href="#DejaVuSans-35"/>
     </g>
    </g>
   </g>
   <g id="text_28">
    <g clip-path="url(#p840447fc2a)">
     <!-- 6 -->
     <g transform="translate(335.4969 17.48805) scale(0.12 -0.12)">
      <use xlink:href="#DejaVuSans-36"/>
     </g>
    </g>
   </g>
   <g id="text_29">
    <g clip-path="url(#p840447fc2a)">
     <!-- 7 -->
     <g transform="translate(166.6569 155.93685) scale(0.12 -0.12)">
      <use xlink:href="#DejaVuSans-37"/>
     </g>
    </g>
   </g>
   <g id="text_30">
    <g clip-path="url(#p840447fc2a)">
     <!-- 8 -->
     <g transform="translate(186.4353 207.07125) scale(0.12 -0.12)">
      <use xlink:href="#DejaVuSans-38"/>
     </g>
    </g>
   </g>
   <g id="text_31">
    <g clip-path="url(#p840447fc2a)">
     <!-- 9 -->
     <g transform="translate(260.7249 20.38245) scale(0.12 -0.12)">
      <use xlink:href="#DejaVuSans-39"/>
     </g>
    </g>
   </g>
   <g id="text_32">
    <g clip-path="url(#p840447fc2a)">
     <!-- 10 -->
     <g transform="translate(139.6842 465.63765) scale(0.12 -0.12)">
      <use xlink:href="#DejaVuSans-31"/>
      <use xlink:href="#DejaVuSans-30" x="63.623047"/>
     </g>
    </g>
   </g>
   <g id="text_33">
    <g clip-path="url(#p840447fc2a)">
     <!-- 11 -->
     <g transform="translate(380.8842 435.72885) scale(0.12 -0.12)">
      <use xlink:href="#DejaVuSans-31"/>
      <use xlink:href="#DejaVuSans-31" x="63.623047"/>
     </g>
    </g>
   </g>
   <g id="text_34">
    <g clip-path="url(#p840447fc2a)">
     <!-- 12 -->
     <g transform="translate(279.5802 379.28805) scale(0.12 -0.12)">
      <use xlink:href="#DejaVuSans-31"/>
      <use xlink:href="#DejaVuSans-32" x="63.623047"/>
     </g>
    </g>
   </g>
   <g id="text_35">
    <g clip-path="url(#p840447fc2a)">
     <!-- 13 -->
     <g transform="translate(143.5434 443.92965) scale(0.12 -0.12)">
      <use xlink:href="#DejaVuSans-31"/>
      <use xlink:href="#DejaVuSans-33" x="63.623047"/>
     </g>
    </g>
   </g>
   <g id="text_36">
    <g clip-path="url(#p840447fc2a)">
     <!-- 14 -->
     <g transform="translate(12.813 278.46645) scale(0.12 -0.12)">
      <use xlink:href="#DejaVuSans-31"/>
      <use xlink:href="#DejaVuSans-34" x="63.623047"/>
     </g>
    </g>
   </g>
   <g id="text_37">
    <g clip-path="url(#p840447fc2a)">
     <!-- 15 -->
     <g transform="translate(272.8266 163.17285) scale(0.12 -0.12)">
      <use xlink:href="#DejaVuSans-31"/>
      <use xlink:href="#DejaVuSans-35" x="63.623047"/>
     </g>
    </g>
   </g>
   <g id="text_38">
    <g clip-path="url(#p840447fc2a)">
     <!-- 16 -->
     <g transform="translate(245.3298 17.00565) scale(0.12 -0.12)">
      <use xlink:href="#DejaVuSans-31"/>
      <use xlink:href="#DejaVuSans-36" x="63.623047"/>
     </g>
    </g>
   </g>
   <g id="text_39">
    <g clip-path="url(#p840447fc2a)">
     <!-- 17 -->
     <g transform="translate(269.9322 258.20565) scale(0.12 -0.12)">
      <use xlink:href="#DejaVuSans-31"/>
      <use xlink:href="#DejaVuSans-37" x="63.623047"/>
     </g>
    </g>
   </g>
   <g id="text_40">
    <g clip-path="url(#p840447fc2a)">
     <!-- 18 -->
     <g transform="translate(154.6386 282.32565) scale(0.12 -0.12)">
      <use xlink:href="#DejaVuSans-31"/>
      <use xlink:href="#DejaVuSans-38" x="63.623047"/>
     </g>
    </g>
   </g>
  </g>
 </g>
 <defs>
  <clipPath id="p840447fc2a">
   <rect x="10.8" y="10.8" width="482.4" height="482.4"/>
  </clipPath>
 </defs>
</svg>
