<?xml version="1.0" encoding="utf-8" standalone="no"?>
<!DOCTYPE svg PUBLIC "-//W3C//DTD SVG 1.1//EN"
  "http://www.w3.org/Graphics/SVG/1.1/DTD/svg11.dtd">
<svg xmlns:xlink="http://www.w3.org/1999/xlink" width="504pt" height="504pt" viewBox="0 0 504 504" xmlns="http://www.w3.org/2000/svg" version="1.1">
 <metadata>
  <rdf:RDF xmlns:dc="http://purl.org/dc/elements/1.1/" xmlns:cc="http://creativecommons.org/ns#" xmlns:rdf="http://www.w3.org/1999/02/22-rdf-syntax-ns#">
   <cc:Work>
    <dc:type rdf:resource="http://purl.org/dc/dcmitype/StillImage"/>
    <dc:date>2024-10-29T14:59:41.664327</dc:date>
    <dc:format>image/svg+xml</dc:format>
    <dc:creator>
     <cc:Agent>
      <dc:title>Matplotlib v3.9.2, https://matplotlib.org/</dc:title>
     </cc:Agent>
    </dc:creator>
   </cc:Work>
  </rdf:RDF>
 </metadata>
 <defs>
  <style type="text/css">*{stroke-linejoin: round; stroke-linecap: butt}</style>
 </defs>
 <g id="figure_1">
  <g id="patch_1">
   <path d="M 0 504 
L 504 504 
L 504 0 
L 0 0 
L 0 504 
z
" style="fill: none; opacity: 0"/>
  </g>
  <g id="axes_1">
   <g id="patch_2">
    <path d="M 10.8 493.2 
L 493.2 493.2 
L 493.2 10.8 
L 10.8 10.8 
L 10.8 493.2 
z
" style="fill: none; opacity: 0"/>
   </g>
   <g id="LineCollection_1">
    <path d="M 366.3288 316.6416 
L 162.2736 279.0144 
" clip-path="url(#p88e92d4213)" style="fill: none; stroke: #000000"/>
    <path d="M 366.3288 316.6416 
L 287.2152 375.9768 
" clip-path="url(#p88e92d4213)" style="fill: none; stroke: #000000"/>
    <path d="M 366.3288 316.6416 
L 147.3192 462.3264 
" clip-path="url(#p88e92d4213)" style="fill: none; stroke: #000000"/>
    <path d="M 366.3288 316.6416 
L 277.5672 254.8944 
" clip-path="url(#p88e92d4213)" style="fill: none; stroke: #000000"/>
    <path d="M 197.9712 349.9272 
L 162.2736 279.0144 
" clip-path="url(#p88e92d4213)" style="fill: none; stroke: #000000"/>
    <path d="M 197.9712 349.9272 
L 151.1784 440.6184 
" clip-path="url(#p88e92d4213)" style="fill: none; stroke: #000000"/>
    <path d="M 197.9712 349.9272 
L 471.0096 233.1864 
" clip-path="url(#p88e92d4213)" style="fill: none; stroke: #000000"/>
    <path d="M 197.9712 349.9272 
L 147.3192 462.3264 
" clip-path="url(#p88e92d4213)" style="fill: none; stroke: #000000"/>
    <path d="M 471.0096 233.1864 
L 388.5192 432.4176 
" clip-path="url(#p88e92d4213)" style="fill: none; stroke: #000000"/>
    <path d="M 363.4344 186.876 
L 135.7416 210.0312 
" clip-path="url(#p88e92d4213)" style="fill: none; stroke: #000000"/>
    <path d="M 363.4344 186.876 
L 20.448 275.1552 
" clip-path="url(#p88e92d4213)" style="fill: none; stroke: #000000"/>
    <path d="M 363.4344 186.876 
L 151.1784 440.6184 
" clip-path="url(#p88e92d4213)" style="fill: none; stroke: #000000"/>
    <path d="M 434.8296 488.8584 
L 151.1784 440.6184 
" clip-path="url(#p88e92d4213)" style="fill: none; stroke: #000000"/>
    <path d="M 135.7416 210.0312 
L 388.5192 432.4176 
" clip-path="url(#p88e92d4213)" style="fill: none; stroke: #000000"/>
    <path d="M 466.668 291.5568 
L 388.5192 432.4176 
" clip-path="url(#p88e92d4213)" style="fill: none; stroke: #000000"/>
    <path d="M 466.668 291.5568 
L 190.2528 203.76 
" clip-path="url(#p88e92d4213)" style="fill: none; stroke: #000000"/>
    <path d="M 466.668 291.5568 
L 151.1784 440.6184 
" clip-path="url(#p88e92d4213)" style="fill: none; stroke: #000000"/>
    <path d="M 339.3144 14.1768 
L 162.2736 279.0144 
" clip-path="url(#p88e92d4213)" style="fill: none; stroke: #000000"/>
    <path d="M 170.4744 152.6256 
L 252.9648 13.6944 
" clip-path="url(#p88e92d4213)" style="fill: none; stroke: #000000"/>
    <path d="M 190.2528 203.76 
L 147.3192 462.3264 
" clip-path="url(#p88e92d4213)" style="fill: none; stroke: #000000"/>
    <path d="M 264.5424 17.0712 
L 287.2152 375.9768 
" clip-path="url(#p88e92d4213)" style="fill: none; stroke: #000000"/>
    <path d="M 20.448 275.1552 
L 252.9648 13.6944 
" clip-path="url(#p88e92d4213)" style="fill: none; stroke: #000000"/>
    <path d="M 280.4616 159.8616 
L 252.9648 13.6944 
" clip-path="url(#p88e92d4213)" style="fill: none; stroke: #000000"/>
   </g>
   <g id="text_1">
    <g id="patch_3">
     <path d="M 256.62398 304.383564 
L 269.138005 306.691115 
Q 272.088267 307.235135 272.632287 304.284873 
L 274.387317 294.767207 
Q 274.931337 291.816946 271.981076 291.272926 
L 259.46705 288.965375 
Q 256.516789 288.421355 255.972769 291.371616 
L 254.217738 300.889283 
Q 253.673718 303.839544 256.62398 304.383564 
z
" clip-path="url(#p88e92d4213)" style="fill: #ffffff; stroke: #ffffff; stroke-linejoin: miter"/>
    </g>
    <g clip-path="url(#p88e92d4213)">
     <!-- 18 -->
     <g transform="translate(257.54513 299.388095) rotate(-349.552182) scale(0.1 -0.1)">
      <defs>
       <path id="DejaVuSans-31" d="M 794 531 
L 1825 531 
L 1825 4091 
L 703 3866 
L 703 4441 
L 1819 4666 
L 2450 4666 
L 2450 531 
L 3481 531 
L 3481 0 
L 794 0 
L 794 531 
z
" transform="scale(0.015625)"/>
       <path id="DejaVuSans-38" d="M 2034 2216 
Q 1584 2216 1326 1975 
Q 1069 1734 1069 1313 
Q 1069 891 1326 650 
Q 1584 409 2034 409 
Q 2484 409 2743 651 
Q 3003 894 3003 1313 
Q 3003 1734 2745 1975 
Q 2488 2216 2034 2216 
z
M 1403 2484 
Q 997 2584 770 2862 
Q 544 3141 544 3541 
Q 544 4100 942 4425 
Q 1341 4750 2034 4750 
Q 2731 4750 3128 4425 
Q 3525 4100 3525 3541 
Q 3525 3141 3298 2862 
Q 3072 2584 2669 2484 
Q 3125 2378 3379 2068 
Q 3634 1759 3634 1313 
Q 3634 634 3220 271 
Q 2806 -91 2034 -91 
Q 1263 -91 848 271 
Q 434 634 434 1313 
Q 434 1759 690 2068 
Q 947 2378 1403 2484 
z
M 1172 3481 
Q 1172 3119 1398 2916 
Q 1625 2713 2034 2713 
Q 2441 2713 2670 2916 
Q 2900 3119 2900 3481 
Q 2900 3844 2670 4047 
Q 2441 4250 2034 4250 
Q 1625 4250 1398 4047 
Q 1172 3844 1172 3481 
z
" transform="scale(0.015625)"/>
      </defs>
      <use xlink:href="#DejaVuSans-31"/>
      <use xlink:href="#DejaVuSans-38" x="63.623047"/>
     </g>
    </g>
   </g>
   <g id="text_2">
    <g id="patch_4">
     <path d="M 328.93121 354.488621 
L 334.02121 350.671121 
Q 336.42121 348.871121 334.62121 346.471121 
L 328.814335 338.728621 
Q 327.014335 336.328621 324.614335 338.128621 
L 319.524335 341.946121 
Q 317.124335 343.746121 318.924335 346.146121 
L 324.73121 353.888621 
Q 326.53121 356.288621 328.93121 354.488621 
z
" clip-path="url(#p88e92d4213)" style="fill: #ffffff; stroke: #ffffff; stroke-linejoin: miter"/>
    </g>
    <g clip-path="url(#p88e92d4213)">
     <!-- 7 -->
     <g transform="translate(325.883397 350.424871) rotate(-36.869898) scale(0.1 -0.1)">
      <defs>
       <path id="DejaVuSans-37" d="M 525 4666 
L 3525 4666 
L 3525 4397 
L 1831 0 
L 1172 0 
L 2766 4134 
L 525 4134 
L 525 4666 
z
" transform="scale(0.015625)"/>
      </defs>
      <use xlink:href="#DejaVuSans-37"/>
     </g>
    </g>
   </g>
   <g id="text_3">
    <g id="patch_5">
     <path d="M 258.517892 397.772227 
L 263.815399 394.248334 
Q 266.313242 392.586773 264.651681 390.088931 
L 259.291418 382.030787 
Q 257.629858 379.532945 255.132015 381.194505 
L 249.834508 384.718398 
Q 247.336665 386.379958 248.998226 388.877801 
L 254.358489 396.935944 
Q 256.020049 399.433787 258.517892 397.772227 
z
" clip-path="url(#p88e92d4213)" style="fill: #ffffff; stroke: #ffffff; stroke-linejoin: miter"/>
    </g>
    <g clip-path="url(#p88e92d4213)">
     <!-- 5 -->
     <g transform="translate(255.704489 393.542807) rotate(-33.631781) scale(0.1 -0.1)">
      <defs>
       <path id="DejaVuSans-35" d="M 691 4666 
L 3169 4666 
L 3169 4134 
L 1269 4134 
L 1269 2991 
Q 1406 3038 1543 3061 
Q 1681 3084 1819 3084 
Q 2600 3084 3056 2656 
Q 3513 2228 3513 1497 
Q 3513 744 3044 326 
Q 2575 -91 1722 -91 
Q 1428 -91 1123 -41 
Q 819 9 494 109 
L 494 744 
Q 775 591 1075 516 
Q 1375 441 1709 441 
Q 2250 441 2565 725 
Q 2881 1009 2881 1497 
Q 2881 1984 2565 2268 
Q 2250 2553 1709 2553 
Q 1456 2553 1204 2497 
Q 953 2441 691 2322 
L 691 4666 
z
" transform="scale(0.015625)"/>
      </defs>
      <use xlink:href="#DejaVuSans-35"/>
     </g>
    </g>
   </g>
   <g id="text_4">
    <g id="patch_6">
     <path d="M 314.85914 290.38591 
L 320.08215 294.019308 
Q 322.544865 295.732501 324.258059 293.269786 
L 329.784892 285.324963 
Q 331.498086 282.862247 329.03537 281.149054 
L 323.812361 277.515656 
Q 321.349645 275.802462 319.636452 278.265178 
L 314.109618 286.210001 
Q 312.396425 288.672717 314.85914 290.38591 
z
" clip-path="url(#p88e92d4213)" style="fill: #ffffff; stroke: #ffffff; stroke-linejoin: miter"/>
    </g>
    <g clip-path="url(#p88e92d4213)">
     <!-- 7 -->
     <g transform="translate(317.759969 286.215968) rotate(-325.175511) scale(0.1 -0.1)">
      <use xlink:href="#DejaVuSans-37"/>
     </g>
    </g>
   </g>
   <g id="text_5">
    <g id="patch_7">
     <path d="M 170.260827 312.314909 
L 175.982527 323.680989 
Q 177.331454 326.360615 180.01108 325.011687 
L 188.655665 320.659992 
Q 191.335291 319.311064 189.986363 316.631438 
L 184.264663 305.265359 
Q 182.915736 302.585733 180.23611 303.93466 
L 171.591525 308.286356 
Q 168.911899 309.635283 170.260827 312.314909 
z
" clip-path="url(#p88e92d4213)" style="fill: #ffffff; stroke: #ffffff; stroke-linejoin: miter"/>
    </g>
    <g clip-path="url(#p88e92d4213)">
     <!-- 14 -->
     <g transform="translate(174.798047 310.030866) rotate(-296.720746) scale(0.1 -0.1)">
      <defs>
       <path id="DejaVuSans-34" d="M 2419 4116 
L 825 1625 
L 2419 1625 
L 2419 4116 
z
M 2253 4666 
L 3047 4666 
L 3047 1625 
L 3713 1625 
L 3713 1100 
L 3047 1100 
L 3047 0 
L 2419 0 
L 2419 1100 
L 313 1100 
L 313 1709 
L 2253 4666 
z
" transform="scale(0.015625)"/>
      </defs>
      <use xlink:href="#DejaVuSans-31"/>
      <use xlink:href="#DejaVuSans-34" x="63.623047"/>
     </g>
    </g>
   </g>
   <g id="text_6">
    <g id="patch_8">
     <path d="M 178.623949 404.521317 
L 184.458648 393.212829 
Q 185.834215 390.546781 183.168167 389.171213 
L 174.567384 384.733575 
Q 171.901335 383.358007 170.525768 386.024056 
L 164.691069 397.332544 
Q 163.315502 399.998593 165.98155 401.37416 
L 174.582333 405.811798 
Q 177.248382 407.187366 178.623949 404.521317 
z
" clip-path="url(#p88e92d4213)" style="fill: #ffffff; stroke: #ffffff; stroke-linejoin: miter"/>
    </g>
    <g clip-path="url(#p88e92d4213)">
     <!-- 18 -->
     <g transform="translate(174.109718 402.192166) rotate(-62.708191) scale(0.1 -0.1)">
      <use xlink:href="#DejaVuSans-31"/>
      <use xlink:href="#DejaVuSans-38" x="63.623047"/>
     </g>
    </g>
   </g>
   <g id="text_7">
    <g id="patch_9">
     <path d="M 334.645892 300.015849 
L 340.496089 297.514528 
Q 343.254531 296.335123 342.075127 293.576681 
L 338.270318 284.677831 
Q 337.090913 281.919388 334.332471 283.098793 
L 328.482274 285.600114 
Q 325.723832 286.779519 326.903237 289.537961 
L 330.708045 298.436811 
Q 331.88745 301.195254 334.645892 300.015849 
z
" clip-path="url(#p88e92d4213)" style="fill: #ffffff; stroke: #ffffff; stroke-linejoin: miter"/>
    </g>
    <g clip-path="url(#p88e92d4213)">
     <!-- 6 -->
     <g transform="translate(332.64889 295.345174) rotate(-23.149703) scale(0.1 -0.1)">
      <defs>
       <path id="DejaVuSans-36" d="M 2113 2584 
Q 1688 2584 1439 2293 
Q 1191 2003 1191 1497 
Q 1191 994 1439 701 
Q 1688 409 2113 409 
Q 2538 409 2786 701 
Q 3034 994 3034 1497 
Q 3034 2003 2786 2293 
Q 2538 2584 2113 2584 
z
M 3366 4563 
L 3366 3988 
Q 3128 4100 2886 4159 
Q 2644 4219 2406 4219 
Q 1781 4219 1451 3797 
Q 1122 3375 1075 2522 
Q 1259 2794 1537 2939 
Q 1816 3084 2150 3084 
Q 2853 3084 3261 2657 
Q 3669 2231 3669 1497 
Q 3669 778 3244 343 
Q 2819 -91 2113 -91 
Q 1303 -91 875 529 
Q 447 1150 447 2328 
Q 447 3434 972 4092 
Q 1497 4750 2381 4750 
Q 2619 4750 2861 4703 
Q 3103 4656 3366 4563 
z
" transform="scale(0.015625)"/>
      </defs>
      <use xlink:href="#DejaVuSans-36"/>
     </g>
    </g>
   </g>
   <g id="text_8">
    <g id="patch_10">
     <path d="M 177.178193 415.147854 
L 182.406294 403.546449 
Q 183.638852 400.811344 180.903747 399.578786 
L 172.080184 395.602502 
Q 169.345079 394.369944 168.112521 397.105049 
L 162.88442 408.706454 
Q 161.651862 411.441559 164.386967 412.674117 
L 173.21053 416.650401 
Q 175.945635 417.882959 177.178193 415.147854 
z
" clip-path="url(#p88e92d4213)" style="fill: #ffffff; stroke: #ffffff; stroke-linejoin: miter"/>
    </g>
    <g clip-path="url(#p88e92d4213)">
     <!-- 10 -->
     <g transform="translate(172.547034 413.060851) rotate(-65.741588) scale(0.1 -0.1)">
      <defs>
       <path id="DejaVuSans-30" d="M 2034 4250 
Q 1547 4250 1301 3770 
Q 1056 3291 1056 2328 
Q 1056 1369 1301 889 
Q 1547 409 2034 409 
Q 2525 409 2770 889 
Q 3016 1369 3016 2328 
Q 3016 3291 2770 3770 
Q 2525 4250 2034 4250 
z
M 2034 4750 
Q 2819 4750 3233 4129 
Q 3647 3509 3647 2328 
Q 3647 1150 3233 529 
Q 2819 -91 2034 -91 
Q 1250 -91 836 529 
Q 422 1150 422 2328 
Q 422 3509 836 4129 
Q 1250 4750 2034 4750 
z
" transform="scale(0.015625)"/>
      </defs>
      <use xlink:href="#DejaVuSans-31"/>
      <use xlink:href="#DejaVuSans-30" x="63.623047"/>
     </g>
    </g>
   </g>
   <g id="text_9">
    <g id="patch_11">
     <path d="M 434.573086 341.679675 
L 439.441027 329.922602 
Q 440.588675 327.150796 437.81687 326.003148 
L 428.874911 322.300788 
Q 426.103106 321.153139 424.955458 323.924945 
L 420.087517 335.682018 
Q 418.939869 338.453823 421.711674 339.601471 
L 430.653633 343.303832 
Q 433.425438 344.45148 434.573086 341.679675 
z
" clip-path="url(#p88e92d4213)" style="fill: #ffffff; stroke: #ffffff; stroke-linejoin: miter"/>
    </g>
    <g clip-path="url(#p88e92d4213)">
     <!-- 16 -->
     <g transform="translate(429.879785 339.736444) rotate(-67.508313) scale(0.1 -0.1)">
      <use xlink:href="#DejaVuSans-31"/>
      <use xlink:href="#DejaVuSans-36" x="63.623047"/>
     </g>
    </g>
   </g>
   <g id="text_10">
    <g id="patch_12">
     <path d="M 247.217081 206.574204 
L 253.546934 205.93049 
Q 256.53154 205.626971 256.228021 202.642364 
L 255.248855 193.013899 
Q 254.945336 190.029293 251.960729 190.332812 
L 245.630876 190.976526 
Q 242.64627 191.280045 242.949789 194.264652 
L 243.928955 203.893117 
Q 244.232474 206.877723 247.217081 206.574204 
z
" clip-path="url(#p88e92d4213)" style="fill: #ffffff; stroke: #ffffff; stroke-linejoin: miter"/>
    </g>
    <g clip-path="url(#p88e92d4213)">
     <!-- 1 -->
     <g transform="translate(246.703153 201.520581) rotate(-5.806727) scale(0.1 -0.1)">
      <use xlink:href="#DejaVuSans-31"/>
     </g>
    </g>
   </g>
   <g id="text_11">
    <g id="patch_13">
     <path d="M 187.733061 240.193262 
L 200.056417 237.021427 
Q 202.961727 236.273647 202.213947 233.368338 
L 199.801577 223.995687 
Q 199.053797 221.090377 196.148487 221.838158 
L 183.825131 225.009992 
Q 180.919821 225.757772 181.667602 228.663082 
L 184.079972 238.035732 
Q 184.827752 240.941042 187.733061 240.193262 
z
" clip-path="url(#p88e92d4213)" style="fill: #ffffff; stroke: #ffffff; stroke-linejoin: miter"/>
    </g>
    <g clip-path="url(#p88e92d4213)">
     <!-- 12 -->
     <g transform="translate(186.466898 235.273906) rotate(-14.43373) scale(0.1 -0.1)">
      <defs>
       <path id="DejaVuSans-32" d="M 1228 531 
L 3431 531 
L 3431 0 
L 469 0 
L 469 531 
Q 828 903 1448 1529 
Q 2069 2156 2228 2338 
Q 2531 2678 2651 2914 
Q 2772 3150 2772 3378 
Q 2772 3750 2511 3984 
Q 2250 4219 1831 4219 
Q 1534 4219 1204 4116 
Q 875 4013 500 3803 
L 500 4441 
Q 881 4594 1212 4672 
Q 1544 4750 1819 4750 
Q 2544 4750 2975 4387 
Q 3406 4025 3406 3419 
Q 3406 3131 3298 2873 
Q 3191 2616 2906 2266 
Q 2828 2175 2409 1742 
Q 1991 1309 1228 531 
z
" transform="scale(0.015625)"/>
      </defs>
      <use xlink:href="#DejaVuSans-31"/>
      <use xlink:href="#DejaVuSans-32" x="63.623047"/>
     </g>
    </g>
   </g>
   <g id="text_12">
    <g id="patch_14">
     <path d="M 261.277042 321.218133 
L 265.359334 316.337938 
Q 267.284187 314.036864 264.983113 312.112012 
L 257.559752 305.902356 
Q 255.258678 303.977503 253.333825 306.278577 
L 249.251533 311.158772 
Q 247.32668 313.459846 249.627755 315.384699 
L 257.051115 321.594354 
Q 259.352189 323.519207 261.277042 321.218133 
z
" clip-path="url(#p88e92d4213)" style="fill: #ffffff; stroke: #ffffff; stroke-linejoin: miter"/>
    </g>
    <g clip-path="url(#p88e92d4213)">
     <!-- 7 -->
     <g transform="translate(257.380796 317.958916) rotate(-50.087454) scale(0.1 -0.1)">
      <use xlink:href="#DejaVuSans-37"/>
     </g>
    </g>
   </g>
   <g id="text_13">
    <g id="patch_15">
     <path d="M 288.550872 471.932685 
L 294.823309 472.999426 
Q 297.780843 473.502408 298.283825 470.544874 
L 299.906466 461.003745 
Q 300.409448 458.04621 297.451914 457.543228 
L 291.179477 456.476487 
Q 288.221943 455.973505 287.718961 458.93104 
L 286.09632 468.472169 
Q 285.593338 471.429703 288.550872 471.932685 
z
" clip-path="url(#p88e92d4213)" style="fill: #ffffff; stroke: #ffffff; stroke-linejoin: miter"/>
    </g>
    <g clip-path="url(#p88e92d4213)">
     <!-- 7 -->
     <g transform="translate(289.402536 466.924902) rotate(-350.348167) scale(0.1 -0.1)">
      <use xlink:href="#DejaVuSans-37"/>
     </g>
    </g>
   </g>
   <g id="text_14">
    <g id="patch_16">
     <path d="M 254.563025 325.007807 
L 259.339983 329.210435 
Q 261.592379 331.192028 263.573972 328.939632 
L 269.966673 321.673307 
Q 271.948266 319.420911 269.69587 317.439318 
L 264.918913 313.236689 
Q 262.666516 311.255096 260.684923 313.507493 
L 254.292222 320.773817 
Q 252.310629 323.026214 254.563025 325.007807 
z
" clip-path="url(#p88e92d4213)" style="fill: #ffffff; stroke: #ffffff; stroke-linejoin: miter"/>
    </g>
    <g clip-path="url(#p88e92d4213)">
     <!-- 3 -->
     <g transform="translate(257.918316 321.193983) rotate(-318.659618) scale(0.1 -0.1)">
      <defs>
       <path id="DejaVuSans-33" d="M 2597 2516 
Q 3050 2419 3304 2112 
Q 3559 1806 3559 1356 
Q 3559 666 3084 287 
Q 2609 -91 1734 -91 
Q 1441 -91 1130 -33 
Q 819 25 488 141 
L 488 750 
Q 750 597 1062 519 
Q 1375 441 1716 441 
Q 2309 441 2620 675 
Q 2931 909 2931 1356 
Q 2931 1769 2642 2001 
Q 2353 2234 1838 2234 
L 1294 2234 
L 1294 2753 
L 1863 2753 
Q 2328 2753 2575 2939 
Q 2822 3125 2822 3475 
Q 2822 3834 2567 4026 
Q 2313 4219 1838 4219 
Q 1578 4219 1281 4162 
Q 984 4106 628 3988 
L 628 4550 
Q 988 4650 1302 4700 
Q 1616 4750 1894 4750 
Q 2613 4750 3031 4423 
Q 3450 4097 3450 3541 
Q 3450 3153 3228 2886 
Q 3006 2619 2597 2516 
z
" transform="scale(0.015625)"/>
      </defs>
      <use xlink:href="#DejaVuSans-33"/>
     </g>
    </g>
   </g>
   <g id="text_15">
    <g id="patch_17">
     <path d="M 431.361705 371.353848 
L 437.535039 360.226604 
Q 438.990442 357.603285 436.367123 356.147882 
L 427.904187 351.452691 
Q 425.280868 349.997288 423.825465 352.620607 
L 417.652131 363.747852 
Q 416.196728 366.37117 418.820047 367.826573 
L 427.282983 372.521764 
Q 429.906302 373.977167 431.361705 371.353848 
z
" clip-path="url(#p88e92d4213)" style="fill: #ffffff; stroke: #ffffff; stroke-linejoin: miter"/>
    </g>
    <g clip-path="url(#p88e92d4213)">
     <!-- 10 -->
     <g transform="translate(426.919824 368.889517) rotate(-60.978727) scale(0.1 -0.1)">
      <use xlink:href="#DejaVuSans-31"/>
      <use xlink:href="#DejaVuSans-30" x="63.623047"/>
     </g>
    </g>
   </g>
   <g id="text_16">
    <g id="patch_18">
     <path d="M 320.022887 253.203413 
L 332.150811 257.055563 
Q 335.010047 257.963732 335.918216 255.104497 
L 338.848008 245.880483 
Q 339.756177 243.021248 336.896941 242.113078 
L 324.769016 238.260928 
Q 321.90978 237.352759 321.001611 240.211994 
L 318.07182 249.436008 
Q 317.163651 252.295244 320.022887 253.203413 
z
" clip-path="url(#p88e92d4213)" style="fill: #ffffff; stroke: #ffffff; stroke-linejoin: miter"/>
    </g>
    <g clip-path="url(#p88e92d4213)">
     <!-- 19 -->
     <g transform="translate(321.560625 248.362071) rotate(-342.378771) scale(0.1 -0.1)">
      <defs>
       <path id="DejaVuSans-39" d="M 703 97 
L 703 672 
Q 941 559 1184 500 
Q 1428 441 1663 441 
Q 2288 441 2617 861 
Q 2947 1281 2994 2138 
Q 2813 1869 2534 1725 
Q 2256 1581 1919 1581 
Q 1219 1581 811 2004 
Q 403 2428 403 3163 
Q 403 3881 828 4315 
Q 1253 4750 1959 4750 
Q 2769 4750 3195 4129 
Q 3622 3509 3622 2328 
Q 3622 1225 3098 567 
Q 2575 -91 1691 -91 
Q 1453 -91 1209 -44 
Q 966 3 703 97 
z
M 1959 2075 
Q 2384 2075 2632 2365 
Q 2881 2656 2881 3163 
Q 2881 3666 2632 3958 
Q 2384 4250 1959 4250 
Q 1534 4250 1286 3958 
Q 1038 3666 1038 3163 
Q 1038 2656 1286 2365 
Q 1534 2075 1959 2075 
z
" transform="scale(0.015625)"/>
      </defs>
      <use xlink:href="#DejaVuSans-31"/>
      <use xlink:href="#DejaVuSans-39" x="63.623047"/>
     </g>
    </g>
   </g>
   <g id="text_17">
    <g id="patch_19">
     <path d="M 306.518364 375.893828 
L 318.023796 370.457775 
Q 320.736275 369.176191 319.454691 366.463712 
L 315.320247 357.713142 
Q 314.038663 355.000663 311.326184 356.282247 
L 299.820752 361.7183 
Q 297.108273 362.999884 298.389857 365.712363 
L 302.524301 374.462933 
Q 303.805885 377.175412 306.518364 375.893828 
z
" clip-path="url(#p88e92d4213)" style="fill: #ffffff; stroke: #ffffff; stroke-linejoin: miter"/>
    </g>
    <g clip-path="url(#p88e92d4213)">
     <!-- 19 -->
     <g transform="translate(304.348349 371.300979) rotate(-25.28966) scale(0.1 -0.1)">
      <use xlink:href="#DejaVuSans-31"/>
      <use xlink:href="#DejaVuSans-39" x="63.623047"/>
     </g>
    </g>
   </g>
   <g id="text_18">
    <g id="patch_20">
     <path d="M 253.775388 156.241126 
L 260.847283 145.662188 
Q 262.514527 143.168136 260.020475 141.500892 
L 251.974559 136.122292 
Q 249.480507 134.455048 247.813263 136.9491 
L 240.741368 147.528038 
Q 239.074123 150.02209 241.568176 151.689335 
L 249.614092 157.067934 
Q 252.108144 158.735179 253.775388 156.241126 
z
" clip-path="url(#p88e92d4213)" style="fill: #ffffff; stroke: #ffffff; stroke-linejoin: miter"/>
    </g>
    <g clip-path="url(#p88e92d4213)">
     <!-- 13 -->
     <g transform="translate(249.552386 153.4181) rotate(-56.237741) scale(0.1 -0.1)">
      <use xlink:href="#DejaVuSans-31"/>
      <use xlink:href="#DejaVuSans-33" x="63.623047"/>
     </g>
    </g>
   </g>
   <g id="text_19">
    <g id="patch_21">
     <path d="M 215.213595 92.629868 
L 221.710201 81.688216 
Q 223.241817 79.108652 220.662253 77.577035 
L 212.340471 72.635978 
Q 209.760907 71.104361 208.22929 73.683926 
L 201.732685 84.625577 
Q 200.201069 87.205141 202.780633 88.736758 
L 211.102414 93.677816 
Q 213.681979 95.209432 215.213595 92.629868 
z
" clip-path="url(#p88e92d4213)" style="fill: #ffffff; stroke: #ffffff; stroke-linejoin: miter"/>
    </g>
    <g clip-path="url(#p88e92d4213)">
     <!-- 20 -->
     <g transform="translate(210.845802 90.03649) rotate(-59.300277) scale(0.1 -0.1)">
      <use xlink:href="#DejaVuSans-32"/>
      <use xlink:href="#DejaVuSans-30" x="63.623047"/>
     </g>
    </g>
   </g>
   <g id="text_20">
    <g id="patch_22">
     <path d="M 175.477003 340.603751 
L 177.561384 328.050624 
Q 178.05279 325.091145 175.09331 324.599738 
L 165.545905 323.014442 
Q 162.586426 322.523036 162.09502 325.482515 
L 160.010639 338.035642 
Q 159.519232 340.995121 162.478712 341.486527 
L 172.026117 343.071824 
Q 174.985597 343.56323 175.477003 340.603751 
z
" clip-path="url(#p88e92d4213)" style="fill: #ffffff; stroke: #ffffff; stroke-linejoin: miter"/>
    </g>
    <g clip-path="url(#p88e92d4213)">
     <!-- 20 -->
     <g transform="translate(170.465925 339.771687) rotate(-80.57235) scale(0.1 -0.1)">
      <use xlink:href="#DejaVuSans-32"/>
      <use xlink:href="#DejaVuSans-30" x="63.623047"/>
     </g>
    </g>
   </g>
   <g id="text_21">
    <g id="patch_23">
     <path d="M 267.854759 193.843191 
L 268.255892 200.193034 
Q 268.445031 203.187065 271.439063 202.997926 
L 281.097934 202.387756 
Q 284.091966 202.198617 283.902827 199.204585 
L 283.501694 192.854742 
Q 283.312555 189.860711 280.318523 190.04985 
L 270.659652 190.66002 
Q 267.66562 190.849159 267.854759 193.843191 
z
" clip-path="url(#p88e92d4213)" style="fill: #ffffff; stroke: #ffffff; stroke-linejoin: miter"/>
    </g>
    <g clip-path="url(#p88e92d4213)">
     <!-- 6 -->
     <g transform="translate(272.924341 193.522935) rotate(-273.614688) scale(0.1 -0.1)">
      <use xlink:href="#DejaVuSans-36"/>
     </g>
    </g>
   </g>
   <g id="text_22">
    <g id="patch_24">
     <path d="M 138.336418 154.388188 
L 146.792626 144.879341 
Q 148.786231 142.637569 146.544459 140.643964 
L 139.312411 134.212512 
Q 137.070639 132.218907 135.077034 134.460678 
L 126.620827 143.969526 
Q 124.627222 146.211297 126.868993 148.204902 
L 134.101042 154.636355 
Q 136.342813 156.62996 138.336418 154.388188 
z
" clip-path="url(#p88e92d4213)" style="fill: #ffffff; stroke: #ffffff; stroke-linejoin: miter"/>
    </g>
    <g clip-path="url(#p88e92d4213)">
     <!-- 19 -->
     <g transform="translate(134.540585 151.012558) rotate(-48.35334) scale(0.1 -0.1)">
      <use xlink:href="#DejaVuSans-31"/>
      <use xlink:href="#DejaVuSans-39" x="63.623047"/>
     </g>
    </g>
   </g>
   <g id="text_23">
    <g id="patch_25">
     <path d="M 257.832958 81.974233 
L 260.185505 94.479878 
Q 260.740132 97.428164 263.688418 96.873536 
L 273.19971 95.084283 
Q 276.147996 94.529655 275.593368 91.581369 
L 273.240821 79.075725 
Q 272.686193 76.127439 269.737907 76.682067 
L 260.226615 78.47132 
Q 257.27833 79.025948 257.832958 81.974233 
z
" clip-path="url(#p88e92d4213)" style="fill: #ffffff; stroke: #ffffff; stroke-linejoin: miter"/>
    </g>
    <g clip-path="url(#p88e92d4213)">
     <!-- 17 -->
     <g transform="translate(262.825081 81.035121) rotate(-280.653903) scale(0.1 -0.1)">
      <use xlink:href="#DejaVuSans-31"/>
      <use xlink:href="#DejaVuSans-37" x="63.623047"/>
     </g>
    </g>
   </g>
   <g id="matplotlib.axis_1">
    <g id="xtick_1">
     <g id="line2d_1">
      <path d="M 10.8 493.2 
L 10.8 10.8 
" clip-path="url(#p88e92d4213)" style="fill: none; stroke: #b0b0b0; stroke-opacity: 0.3; stroke-width: 0.8; stroke-linecap: square"/>
     </g>
    </g>
    <g id="xtick_2">
     <g id="line2d_2">
      <path d="M 59.04 493.2 
L 59.04 10.8 
" clip-path="url(#p88e92d4213)" style="fill: none; stroke: #b0b0b0; stroke-opacity: 0.3; stroke-width: 0.8; stroke-linecap: square"/>
     </g>
    </g>
    <g id="xtick_3">
     <g id="line2d_3">
      <path d="M 107.28 493.2 
L 107.28 10.8 
" clip-path="url(#p88e92d4213)" style="fill: none; stroke: #b0b0b0; stroke-opacity: 0.3; stroke-width: 0.8; stroke-linecap: square"/>
     </g>
    </g>
    <g id="xtick_4">
     <g id="line2d_4">
      <path d="M 155.52 493.2 
L 155.52 10.8 
" clip-path="url(#p88e92d4213)" style="fill: none; stroke: #b0b0b0; stroke-opacity: 0.3; stroke-width: 0.8; stroke-linecap: square"/>
     </g>
    </g>
    <g id="xtick_5">
     <g id="line2d_5">
      <path d="M 203.76 493.2 
L 203.76 10.8 
" clip-path="url(#p88e92d4213)" style="fill: none; stroke: #b0b0b0; stroke-opacity: 0.3; stroke-width: 0.8; stroke-linecap: square"/>
     </g>
    </g>
    <g id="xtick_6">
     <g id="line2d_6">
      <path d="M 252 493.2 
L 252 10.8 
" clip-path="url(#p88e92d4213)" style="fill: none; stroke: #b0b0b0; stroke-opacity: 0.3; stroke-width: 0.8; stroke-linecap: square"/>
     </g>
    </g>
    <g id="xtick_7">
     <g id="line2d_7">
      <path d="M 300.24 493.2 
L 300.24 10.8 
" clip-path="url(#p88e92d4213)" style="fill: none; stroke: #b0b0b0; stroke-opacity: 0.3; stroke-width: 0.8; stroke-linecap: square"/>
     </g>
    </g>
    <g id="xtick_8">
     <g id="line2d_8">
      <path d="M 348.48 493.2 
L 348.48 10.8 
" clip-path="url(#p88e92d4213)" style="fill: none; stroke: #b0b0b0; stroke-opacity: 0.3; stroke-width: 0.8; stroke-linecap: square"/>
     </g>
    </g>
    <g id="xtick_9">
     <g id="line2d_9">
      <path d="M 396.72 493.2 
L 396.72 10.8 
" clip-path="url(#p88e92d4213)" style="fill: none; stroke: #b0b0b0; stroke-opacity: 0.3; stroke-width: 0.8; stroke-linecap: square"/>
     </g>
    </g>
    <g id="xtick_10">
     <g id="line2d_10">
      <path d="M 444.96 493.2 
L 444.96 10.8 
" clip-path="url(#p88e92d4213)" style="fill: none; stroke: #b0b0b0; stroke-opacity: 0.3; stroke-width: 0.8; stroke-linecap: square"/>
     </g>
    </g>
    <g id="xtick_11">
     <g id="line2d_11">
      <path d="M 493.2 493.2 
L 493.2 10.8 
" clip-path="url(#p88e92d4213)" style="fill: none; stroke: #b0b0b0; stroke-opacity: 0.3; stroke-width: 0.8; stroke-linecap: square"/>
     </g>
    </g>
   </g>
   <g id="matplotlib.axis_2">
    <g id="ytick_1">
     <g id="line2d_12">
      <path d="M 10.8 493.2 
L 493.2 493.2 
" clip-path="url(#p88e92d4213)" style="fill: none; stroke: #b0b0b0; stroke-opacity: 0.3; stroke-width: 0.8; stroke-linecap: square"/>
     </g>
    </g>
    <g id="ytick_2">
     <g id="line2d_13">
      <path d="M 10.8 444.96 
L 493.2 444.96 
" clip-path="url(#p88e92d4213)" style="fill: none; stroke: #b0b0b0; stroke-opacity: 0.3; stroke-width: 0.8; stroke-linecap: square"/>
     </g>
    </g>
    <g id="ytick_3">
     <g id="line2d_14">
      <path d="M 10.8 396.72 
L 493.2 396.72 
" clip-path="url(#p88e92d4213)" style="fill: none; stroke: #b0b0b0; stroke-opacity: 0.3; stroke-width: 0.8; stroke-linecap: square"/>
     </g>
    </g>
    <g id="ytick_4">
     <g id="line2d_15">
      <path d="M 10.8 348.48 
L 493.2 348.48 
" clip-path="url(#p88e92d4213)" style="fill: none; stroke: #b0b0b0; stroke-opacity: 0.3; stroke-width: 0.8; stroke-linecap: square"/>
     </g>
    </g>
    <g id="ytick_5">
     <g id="line2d_16">
      <path d="M 10.8 300.24 
L 493.2 300.24 
" clip-path="url(#p88e92d4213)" style="fill: none; stroke: #b0b0b0; stroke-opacity: 0.3; stroke-width: 0.8; stroke-linecap: square"/>
     </g>
    </g>
    <g id="ytick_6">
     <g id="line2d_17">
      <path d="M 10.8 252 
L 493.2 252 
" clip-path="url(#p88e92d4213)" style="fill: none; stroke: #b0b0b0; stroke-opacity: 0.3; stroke-width: 0.8; stroke-linecap: square"/>
     </g>
    </g>
    <g id="ytick_7">
     <g id="line2d_18">
      <path d="M 10.8 203.76 
L 493.2 203.76 
" clip-path="url(#p88e92d4213)" style="fill: none; stroke: #b0b0b0; stroke-opacity: 0.3; stroke-width: 0.8; stroke-linecap: square"/>
     </g>
    </g>
    <g id="ytick_8">
     <g id="line2d_19">
      <path d="M 10.8 155.52 
L 493.2 155.52 
" clip-path="url(#p88e92d4213)" style="fill: none; stroke: #b0b0b0; stroke-opacity: 0.3; stroke-width: 0.8; stroke-linecap: square"/>
     </g>
    </g>
    <g id="ytick_9">
     <g id="line2d_20">
      <path d="M 10.8 107.28 
L 493.2 107.28 
" clip-path="url(#p88e92d4213)" style="fill: none; stroke: #b0b0b0; stroke-opacity: 0.3; stroke-width: 0.8; stroke-linecap: square"/>
     </g>
    </g>
    <g id="ytick_10">
     <g id="line2d_21">
      <path d="M 10.8 59.04 
L 493.2 59.04 
" clip-path="url(#p88e92d4213)" style="fill: none; stroke: #b0b0b0; stroke-opacity: 0.3; stroke-width: 0.8; stroke-linecap: square"/>
     </g>
    </g>
    <g id="ytick_11">
     <g id="line2d_22">
      <path d="M 10.8 10.8 
L 493.2 10.8 
" clip-path="url(#p88e92d4213)" style="fill: none; stroke: #b0b0b0; stroke-opacity: 0.3; stroke-width: 0.8; stroke-linecap: square"/>
     </g>
    </g>
   </g>
   <g id="PathCollection_1">
    <defs>
     <path id="m0199f30545" d="M 0 8.660254 
C 2.296726 8.660254 4.499694 7.747755 6.123724 6.123724 
C 7.747755 4.499694 8.660254 2.296726 8.660254 0 
C 8.660254 -2.296726 7.747755 -4.499694 6.123724 -6.123724 
C 4.499694 -7.747755 2.296726 -8.660254 0 -8.660254 
C -2.296726 -8.660254 -4.499694 -7.747755 -6.123724 -6.123724 
C -7.747755 -4.499694 -8.660254 -2.296726 -8.660254 0 
C -8.660254 2.296726 -7.747755 4.499694 -6.123724 6.123724 
C -4.499694 7.747755 -2.296726 8.660254 0 8.660254 
z
" style="stroke: #1f78b4"/>
    </defs>
    <g clip-path="url(#p88e92d4213)">
     <use xlink:href="#m0199f30545" x="366.3288" y="316.6416" style="fill: #1f78b4; stroke: #1f78b4"/>
     <use xlink:href="#m0199f30545" x="197.9712" y="349.9272" style="fill: #1f78b4; stroke: #1f78b4"/>
     <use xlink:href="#m0199f30545" x="471.0096" y="233.1864" style="fill: #1f78b4; stroke: #1f78b4"/>
     <use xlink:href="#m0199f30545" x="363.4344" y="186.876" style="fill: #1f78b4; stroke: #1f78b4"/>
     <use xlink:href="#m0199f30545" x="434.8296" y="488.8584" style="fill: #1f78b4; stroke: #1f78b4"/>
     <use xlink:href="#m0199f30545" x="135.7416" y="210.0312" style="fill: #1f78b4; stroke: #1f78b4"/>
     <use xlink:href="#m0199f30545" x="466.668" y="291.5568" style="fill: #1f78b4; stroke: #1f78b4"/>
     <use xlink:href="#m0199f30545" x="339.3144" y="14.1768" style="fill: #1f78b4; stroke: #1f78b4"/>
     <use xlink:href="#m0199f30545" x="170.4744" y="152.6256" style="fill: #1f78b4; stroke: #1f78b4"/>
     <use xlink:href="#m0199f30545" x="190.2528" y="203.76" style="fill: #1f78b4; stroke: #1f78b4"/>
     <use xlink:href="#m0199f30545" x="264.5424" y="17.0712" style="fill: #1f78b4; stroke: #1f78b4"/>
     <use xlink:href="#m0199f30545" x="147.3192" y="462.3264" style="fill: #1f78b4; stroke: #1f78b4"/>
     <use xlink:href="#m0199f30545" x="388.5192" y="432.4176" style="fill: #1f78b4; stroke: #1f78b4"/>
     <use xlink:href="#m0199f30545" x="287.2152" y="375.9768" style="fill: #1f78b4; stroke: #1f78b4"/>
     <use xlink:href="#m0199f30545" x="151.1784" y="440.6184" style="fill: #1f78b4; stroke: #1f78b4"/>
     <use xlink:href="#m0199f30545" x="20.448" y="275.1552" style="fill: #1f78b4; stroke: #1f78b4"/>
     <use xlink:href="#m0199f30545" x="280.4616" y="159.8616" style="fill: #1f78b4; stroke: #1f78b4"/>
     <use xlink:href="#m0199f30545" x="252.9648" y="13.6944" style="fill: #1f78b4; stroke: #1f78b4"/>
     <use xlink:href="#m0199f30545" x="277.5672" y="254.8944" style="fill: #1f78b4; stroke: #1f78b4"/>
     <use xlink:href="#m0199f30545" x="162.2736" y="279.0144" style="fill: #1f78b4; stroke: #1f78b4"/>
    </g>
   </g>
   <g id="patch_26">
    <path d="M 10.8 493.2 
L 10.8 10.8 
" style="fill: none; stroke: #000000; stroke-width: 0.8; stroke-linejoin: miter; stroke-linecap: square"/>
   </g>
   <g id="patch_27">
    <path d="M 493.2 493.2 
L 493.2 10.8 
" style="fill: none; stroke: #000000; stroke-width: 0.8; stroke-linejoin: miter; stroke-linecap: square"/>
   </g>
   <g id="patch_28">
    <path d="M 10.8 493.2 
L 493.2 493.2 
" style="fill: none; stroke: #000000; stroke-width: 0.8; stroke-linejoin: miter; stroke-linecap: square"/>
   </g>
   <g id="patch_29">
    <path d="M 10.8 10.8 
L 493.2 10.8 
" style="fill: none; stroke: #000000; stroke-width: 0.8; stroke-linejoin: miter; stroke-linecap: square"/>
   </g>
   <g id="text_24">
    <g clip-path="url(#p88e92d4213)">
     <!-- 0 -->
     <g transform="translate(362.5113 319.95285) scale(0.12 -0.12)">
      <use xlink:href="#DejaVuSans-30"/>
     </g>
    </g>
   </g>
   <g id="text_25">
    <g clip-path="url(#p88e92d4213)">
     <!-- 1 -->
     <g transform="translate(194.1537 353.23845) scale(0.12 -0.12)">
      <use xlink:href="#DejaVuSans-31"/>
     </g>
    </g>
   </g>
   <g id="text_26">
    <g clip-path="url(#p88e92d4213)">
     <!-- 2 -->
     <g transform="translate(467.1921 236.49765) scale(0.12 -0.12)">
      <use xlink:href="#DejaVuSans-32"/>
     </g>
    </g>
   </g>
   <g id="text_27">
    <g clip-path="url(#p88e92d4213)">
     <!-- 3 -->
     <g transform="translate(359.6169 190.18725) scale(0.12 -0.12)">
      <use xlink:href="#DejaVuSans-33"/>
     </g>
    </g>
   </g>
   <g id="text_28">
    <g clip-path="url(#p88e92d4213)">
     <!-- 4 -->
     <g transform="translate(431.0121 492.16965) scale(0.12 -0.12)">
      <use xlink:href="#DejaVuSans-34"/>
     </g>
    </g>
   </g>
   <g id="text_29">
    <g clip-path="url(#p88e92d4213)">
     <!-- 5 -->
     <g transform="translate(131.9241 213.34245) scale(0.12 -0.12)">
      <use xlink:href="#DejaVuSans-35"/>
     </g>
    </g>
   </g>
   <g id="text_30">
    <g clip-path="url(#p88e92d4213)">
     <!-- 6 -->
     <g transform="translate(462.8505 294.86805) scale(0.12 -0.12)">
      <use xlink:href="#DejaVuSans-36"/>
     </g>
    </g>
   </g>
   <g id="text_31">
    <g clip-path="url(#p88e92d4213)">
     <!-- 7 -->
     <g transform="translate(335.4969 17.48805) scale(0.12 -0.12)">
      <use xlink:href="#DejaVuSans-37"/>
     </g>
    </g>
   </g>
   <g id="text_32">
    <g clip-path="url(#p88e92d4213)">
     <!-- 8 -->
     <g transform="translate(166.6569 155.93685) scale(0.12 -0.12)">
      <use xlink:href="#DejaVuSans-38"/>
     </g>
    </g>
   </g>
   <g id="text_33">
    <g clip-path="url(#p88e92d4213)">
     <!-- 9 -->
     <g transform="translate(186.4353 207.07125) scale(0.12 -0.12)">
      <use xlink:href="#DejaVuSans-39"/>
     </g>
    </g>
   </g>
   <g id="text_34">
    <g clip-path="url(#p88e92d4213)">
     <!-- 10 -->
     <g transform="translate(256.9074 20.38245) scale(0.12 -0.12)">
      <use xlink:href="#DejaVuSans-31"/>
      <use xlink:href="#DejaVuSans-30" x="63.623047"/>
     </g>
    </g>
   </g>
   <g id="text_35">
    <g clip-path="url(#p88e92d4213)">
     <!-- 11 -->
     <g transform="translate(139.6842 465.63765) scale(0.12 -0.12)">
      <use xlink:href="#DejaVuSans-31"/>
      <use xlink:href="#DejaVuSans-31" x="63.623047"/>
     </g>
    </g>
   </g>
   <g id="text_36">
    <g clip-path="url(#p88e92d4213)">
     <!-- 12 -->
     <g transform="translate(380.8842 435.72885) scale(0.12 -0.12)">
      <use xlink:href="#DejaVuSans-31"/>
      <use xlink:href="#DejaVuSans-32" x="63.623047"/>
     </g>
    </g>
   </g>
   <g id="text_37">
    <g clip-path="url(#p88e92d4213)">
     <!-- 13 -->
     <g transform="translate(279.5802 379.28805) scale(0.12 -0.12)">
      <use xlink:href="#DejaVuSans-31"/>
      <use xlink:href="#DejaVuSans-33" x="63.623047"/>
     </g>
    </g>
   </g>
   <g id="text_38">
    <g clip-path="url(#p88e92d4213)">
     <!-- 14 -->
     <g transform="translate(143.5434 443.92965) scale(0.12 -0.12)">
      <use xlink:href="#DejaVuSans-31"/>
      <use xlink:href="#DejaVuSans-34" x="63.623047"/>
     </g>
    </g>
   </g>
   <g id="text_39">
    <g clip-path="url(#p88e92d4213)">
     <!-- 15 -->
     <g transform="translate(12.813 278.46645) scale(0.12 -0.12)">
      <use xlink:href="#DejaVuSans-31"/>
      <use xlink:href="#DejaVuSans-35" x="63.623047"/>
     </g>
    </g>
   </g>
   <g id="text_40">
    <g clip-path="url(#p88e92d4213)">
     <!-- 16 -->
     <g transform="translate(272.8266 163.17285) scale(0.12 -0.12)">
      <use xlink:href="#DejaVuSans-31"/>
      <use xlink:href="#DejaVuSans-36" x="63.623047"/>
     </g>
    </g>
   </g>
   <g id="text_41">
    <g clip-path="url(#p88e92d4213)">
     <!-- 17 -->
     <g transform="translate(245.3298 17.00565) scale(0.12 -0.12)">
      <use xlink:href="#DejaVuSans-31"/>
      <use xlink:href="#DejaVuSans-37" x="63.623047"/>
     </g>
    </g>
   </g>
   <g id="text_42">
    <g clip-path="url(#p88e92d4213)">
     <!-- 18 -->
     <g transform="translate(269.9322 258.20565) scale(0.12 -0.12)">
      <use xlink:href="#DejaVuSans-31"/>
      <use xlink:href="#DejaVuSans-38" x="63.623047"/>
     </g>
    </g>
   </g>
   <g id="text_43">
    <g clip-path="url(#p88e92d4213)">
     <!-- 19 -->
     <g transform="translate(154.6386 282.32565) scale(0.12 -0.12)">
      <use xlink:href="#DejaVuSans-31"/>
      <use xlink:href="#DejaVuSans-39" x="63.623047"/>
     </g>
    </g>
   </g>
  </g>
 </g>
 <defs>
  <clipPath id="p88e92d4213">
   <rect x="10.8" y="10.8" width="482.4" height="482.4"/>
  </clipPath>
 </defs>
</svg>
