<?xml version="1.0" encoding="utf-8" standalone="no"?>
<!DOCTYPE svg PUBLIC "-//W3C//DTD SVG 1.1//EN"
  "http://www.w3.org/Graphics/SVG/1.1/DTD/svg11.dtd">
<svg xmlns:xlink="http://www.w3.org/1999/xlink" width="504pt" height="504pt" viewBox="0 0 504 504" xmlns="http://www.w3.org/2000/svg" version="1.1">
 <metadata>
  <rdf:RDF xmlns:dc="http://purl.org/dc/elements/1.1/" xmlns:cc="http://creativecommons.org/ns#" xmlns:rdf="http://www.w3.org/1999/02/22-rdf-syntax-ns#">
   <cc:Work>
    <dc:type rdf:resource="http://purl.org/dc/dcmitype/StillImage"/>
    <dc:date>2024-10-29T14:59:42.382581</dc:date>
    <dc:format>image/svg+xml</dc:format>
    <dc:creator>
     <cc:Agent>
      <dc:title>Matplotlib v3.9.2, https://matplotlib.org/</dc:title>
     </cc:Agent>
    </dc:creator>
   </cc:Work>
  </rdf:RDF>
 </metadata>
 <defs>
  <style type="text/css">*{stroke-linejoin: round; stroke-linecap: butt}</style>
 </defs>
 <g id="figure_1">
  <g id="patch_1">
   <path d="M 0 504 
L 504 504 
L 504 0 
L 0 0 
L 0 504 
z
" style="fill: none; opacity: 0"/>
  </g>
  <g id="axes_1">
   <g id="patch_2">
    <path d="M 10.8 493.2 
L 493.2 493.2 
L 493.2 10.8 
L 10.8 10.8 
L 10.8 493.2 
z
" style="fill: none; opacity: 0"/>
   </g>
   <g id="LineCollection_1">
    <path d="M 293.9688 37.332 
L 35.8848 183.4992 
" clip-path="url(#p33a3d894ac)" style="fill: none; stroke: #000000"/>
    <path d="M 293.9688 37.332 
L 249.1056 341.7264 
" clip-path="url(#p33a3d894ac)" style="fill: none; stroke: #000000"/>
    <path d="M 293.9688 37.332 
L 344.1384 251.0352 
" clip-path="url(#p33a3d894ac)" style="fill: none; stroke: #000000"/>
    <path d="M 293.9688 37.332 
L 420.84 418.9104 
" clip-path="url(#p33a3d894ac)" style="fill: none; stroke: #000000"/>
    <path d="M 212.4432 164.6856 
L 35.8848 183.4992 
" clip-path="url(#p33a3d894ac)" style="fill: none; stroke: #000000"/>
    <path d="M 212.4432 164.6856 
L 490.3056 226.4328 
" clip-path="url(#p33a3d894ac)" style="fill: none; stroke: #000000"/>
    <path d="M 212.4432 164.6856 
L 342.2088 420.84 
" clip-path="url(#p33a3d894ac)" style="fill: none; stroke: #000000"/>
    <path d="M 212.4432 164.6856 
L 344.1384 251.0352 
" clip-path="url(#p33a3d894ac)" style="fill: none; stroke: #000000"/>
    <path d="M 489.8232 333.5256 
L 224.9856 335.9376 
" clip-path="url(#p33a3d894ac)" style="fill: none; stroke: #000000"/>
    <path d="M 489.8232 333.5256 
L 490.3056 226.4328 
" clip-path="url(#p33a3d894ac)" style="fill: none; stroke: #000000"/>
    <path d="M 351.3744 313.7472 
L 486.9288 356.6808 
" clip-path="url(#p33a3d894ac)" style="fill: none; stroke: #000000"/>
    <path d="M 351.3744 313.7472 
L 142.0128 289.6272 
" clip-path="url(#p33a3d894ac)" style="fill: none; stroke: #000000"/>
    <path d="M 351.3744 313.7472 
L 224.9856 335.9376 
" clip-path="url(#p33a3d894ac)" style="fill: none; stroke: #000000"/>
    <path d="M 300.24 239.4576 
L 486.9288 356.6808 
" clip-path="url(#p33a3d894ac)" style="fill: none; stroke: #000000"/>
    <path d="M 300.24 239.4576 
L 41.6736 115.4808 
" clip-path="url(#p33a3d894ac)" style="fill: none; stroke: #000000"/>
    <path d="M 41.6736 115.4808 
L 490.3056 226.4328 
" clip-path="url(#p33a3d894ac)" style="fill: none; stroke: #000000"/>
    <path d="M 41.6736 115.4808 
L 63.3816 483.552 
" clip-path="url(#p33a3d894ac)" style="fill: none; stroke: #000000"/>
    <path d="M 41.6736 115.4808 
L 224.9856 335.9376 
" clip-path="url(#p33a3d894ac)" style="fill: none; stroke: #000000"/>
    <path d="M 41.6736 115.4808 
L 258.7536 46.4976 
" clip-path="url(#p33a3d894ac)" style="fill: none; stroke: #000000"/>
    <path d="M 71.5824 216.7848 
L 35.8848 183.4992 
" clip-path="url(#p33a3d894ac)" style="fill: none; stroke: #000000"/>
    <path d="M 128.0232 352.8216 
L 258.7536 46.4976 
" clip-path="url(#p33a3d894ac)" style="fill: none; stroke: #000000"/>
    <path d="M 63.3816 483.552 
L 344.1384 251.0352 
" clip-path="url(#p33a3d894ac)" style="fill: none; stroke: #000000"/>
    <path d="M 228.8448 223.5384 
L 249.1056 341.7264 
" clip-path="url(#p33a3d894ac)" style="fill: none; stroke: #000000"/>
    <path d="M 224.9856 335.9376 
L 342.2088 420.84 
" clip-path="url(#p33a3d894ac)" style="fill: none; stroke: #000000"/>
    <path d="M 142.0128 289.6272 
L 258.7536 46.4976 
" clip-path="url(#p33a3d894ac)" style="fill: none; stroke: #000000"/>
    <path d="M 118.3752 243.7992 
L 258.7536 46.4976 
" clip-path="url(#p33a3d894ac)" style="fill: none; stroke: #000000"/>
   </g>
   <g id="text_1">
    <g id="patch_3">
     <path d="M 163.25461 120.371636 
L 174.327122 114.100663 
Q 176.937537 112.62224 175.459115 110.011825 
L 170.689664 101.590517 
Q 169.211242 98.980101 166.600826 100.458523 
L 155.528315 106.729497 
Q 152.917899 108.207919 154.396322 110.818335 
L 159.165773 119.239643 
Q 160.644195 121.850059 163.25461 120.371636 
z
" clip-path="url(#p33a3d894ac)" style="fill: #ffffff; stroke: #ffffff; stroke-linejoin: miter"/>
    </g>
    <g clip-path="url(#p33a3d894ac)">
     <!-- 14 -->
     <g transform="translate(160.751303 115.951605) rotate(-29.52527) scale(0.1 -0.1)">
      <defs>
       <path id="DejaVuSans-31" d="M 794 531 
L 1825 531 
L 1825 4091 
L 703 3866 
L 703 4441 
L 1819 4666 
L 2450 4666 
L 2450 531 
L 3481 531 
L 3481 0 
L 794 0 
L 794 531 
z
" transform="scale(0.015625)"/>
       <path id="DejaVuSans-34" d="M 2419 4116 
L 825 1625 
L 2419 1625 
L 2419 4116 
z
M 2253 4666 
L 3047 4666 
L 3047 1625 
L 3713 1625 
L 3713 1100 
L 3047 1100 
L 3047 0 
L 2419 0 
L 2419 1100 
L 313 1100 
L 313 1709 
L 2253 4666 
z
" transform="scale(0.015625)"/>
      </defs>
      <use xlink:href="#DejaVuSans-31"/>
      <use xlink:href="#DejaVuSans-34" x="63.623047"/>
     </g>
    </g>
   </g>
   <g id="text_2">
    <g id="patch_4">
     <path d="M 278.364952 196.965464 
L 280.220384 184.376461 
Q 280.657813 181.408523 277.689875 180.971094 
L 268.115184 179.559927 
Q 265.147246 179.122497 264.709817 182.090435 
L 262.854385 194.679438 
Q 262.416955 197.647376 265.384893 198.084805 
L 274.959584 199.495972 
Q 277.927522 199.933402 278.364952 196.965464 
z
" clip-path="url(#p33a3d894ac)" style="fill: #ffffff; stroke: #ffffff; stroke-linejoin: miter"/>
    </g>
    <g clip-path="url(#p33a3d894ac)">
     <!-- 18 -->
     <g transform="translate(273.339553 196.224795) rotate(-81.615816) scale(0.1 -0.1)">
      <defs>
       <path id="DejaVuSans-38" d="M 2034 2216 
Q 1584 2216 1326 1975 
Q 1069 1734 1069 1313 
Q 1069 891 1326 650 
Q 1584 409 2034 409 
Q 2484 409 2743 651 
Q 3003 894 3003 1313 
Q 3003 1734 2745 1975 
Q 2488 2216 2034 2216 
z
M 1403 2484 
Q 997 2584 770 2862 
Q 544 3141 544 3541 
Q 544 4100 942 4425 
Q 1341 4750 2034 4750 
Q 2731 4750 3128 4425 
Q 3525 4100 3525 3541 
Q 3525 3141 3298 2862 
Q 3072 2584 2669 2484 
Q 3125 2378 3379 2068 
Q 3634 1759 3634 1313 
Q 3634 634 3220 271 
Q 2806 -91 2034 -91 
Q 1263 -91 848 271 
Q 434 634 434 1313 
Q 434 1759 690 2068 
Q 947 2378 1403 2484 
z
M 1172 3481 
Q 1172 3119 1398 2916 
Q 1625 2713 2034 2713 
Q 2441 2713 2670 2916 
Q 2900 3119 2900 3481 
Q 2900 3844 2670 4047 
Q 2441 4250 2034 4250 
Q 1625 4250 1398 4047 
Q 1172 3844 1172 3481 
z
" transform="scale(0.015625)"/>
      </defs>
      <use xlink:href="#DejaVuSans-31"/>
      <use xlink:href="#DejaVuSans-38" x="63.623047"/>
     </g>
    </g>
   </g>
   <g id="text_3">
    <g id="patch_5">
     <path d="M 310.695002 142.878397 
L 312.149147 149.072497 
Q 312.834795 151.993094 315.755392 151.307446 
L 325.177359 149.095516 
Q 328.097956 148.409868 327.412308 145.489271 
L 325.958163 139.295172 
Q 325.272515 136.374575 322.351918 137.060223 
L 312.929951 139.272152 
Q 310.009354 139.9578 310.695002 142.878397 
z
" clip-path="url(#p33a3d894ac)" style="fill: #ffffff; stroke: #ffffff; stroke-linejoin: miter"/>
    </g>
    <g clip-path="url(#p33a3d894ac)">
     <!-- 6 -->
     <g transform="translate(315.640242 141.717438) rotate(-283.211681) scale(0.1 -0.1)">
      <defs>
       <path id="DejaVuSans-36" d="M 2113 2584 
Q 1688 2584 1439 2293 
Q 1191 2003 1191 1497 
Q 1191 994 1439 701 
Q 1688 409 2113 409 
Q 2538 409 2786 701 
Q 3034 994 3034 1497 
Q 3034 2003 2786 2293 
Q 2538 2584 2113 2584 
z
M 3366 4563 
L 3366 3988 
Q 3128 4100 2886 4159 
Q 2644 4219 2406 4219 
Q 1781 4219 1451 3797 
Q 1122 3375 1075 2522 
Q 1259 2794 1537 2939 
Q 1816 3084 2150 3084 
Q 2853 3084 3261 2657 
Q 3669 2231 3669 1497 
Q 3669 778 3244 343 
Q 2819 -91 2113 -91 
Q 1303 -91 875 529 
Q 447 1150 447 2328 
Q 447 3434 972 4092 
Q 1497 4750 2381 4750 
Q 2619 4750 2861 4703 
Q 3103 4656 3366 4563 
z
" transform="scale(0.015625)"/>
      </defs>
      <use xlink:href="#DejaVuSans-36"/>
     </g>
    </g>
   </g>
   <g id="text_4">
    <g id="patch_6">
     <path d="M 347.958381 224.557162 
L 351.973219 236.632207 
Q 352.919742 239.478976 355.766511 238.532452 
L 364.950306 235.478927 
Q 367.797075 234.532404 366.850551 231.685635 
L 362.835713 219.61059 
Q 361.88919 216.763821 359.042421 217.710345 
L 349.858626 220.76387 
Q 347.011857 221.710394 347.958381 224.557162 
z
" clip-path="url(#p33a3d894ac)" style="fill: #ffffff; stroke: #ffffff; stroke-linejoin: miter"/>
    </g>
    <g clip-path="url(#p33a3d894ac)">
     <!-- 10 -->
     <g transform="translate(352.778613 222.954481) rotate(-288.391477) scale(0.1 -0.1)">
      <defs>
       <path id="DejaVuSans-30" d="M 2034 4250 
Q 1547 4250 1301 3770 
Q 1056 3291 1056 2328 
Q 1056 1369 1301 889 
Q 1547 409 2034 409 
Q 2525 409 2770 889 
Q 3016 1369 3016 2328 
Q 3016 3291 2770 3770 
Q 2525 4250 2034 4250 
z
M 2034 4750 
Q 2819 4750 3233 4129 
Q 3647 3509 3647 2328 
Q 3647 1150 3233 529 
Q 2819 -91 2034 -91 
Q 1250 -91 836 529 
Q 422 1150 422 2328 
Q 422 3509 836 4129 
Q 1250 4750 2034 4750 
z
" transform="scale(0.015625)"/>
      </defs>
      <use xlink:href="#DejaVuSans-31"/>
      <use xlink:href="#DejaVuSans-30" x="63.623047"/>
     </g>
    </g>
   </g>
   <g id="text_5">
    <g id="patch_7">
     <path d="M 118.667982 182.561482 
L 131.321348 181.213173 
Q 134.30446 180.8953 133.986588 177.912188 
L 132.961117 168.288545 
Q 132.643245 165.305433 129.660133 165.623305 
L 117.006766 166.971615 
Q 114.023654 167.289488 114.341527 170.2726 
L 115.366997 179.896243 
Q 115.68487 182.879355 118.667982 182.561482 
z
" clip-path="url(#p33a3d894ac)" style="fill: #ffffff; stroke: #ffffff; stroke-linejoin: miter"/>
    </g>
    <g clip-path="url(#p33a3d894ac)">
     <!-- 16 -->
     <g transform="translate(118.129751 177.51039) rotate(-6.082337) scale(0.1 -0.1)">
      <use xlink:href="#DejaVuSans-31"/>
      <use xlink:href="#DejaVuSans-36" x="63.623047"/>
     </g>
    </g>
   </g>
   <g id="text_6">
    <g id="patch_8">
     <path d="M 346.56531 202.520801 
L 352.7763 203.901021 
Q 355.704861 204.551812 356.355653 201.623251 
L 358.455133 192.17559 
Q 359.105924 189.247029 356.177363 188.596238 
L 349.966373 187.216018 
Q 347.037812 186.565226 346.38702 189.493788 
L 344.28754 198.941448 
Q 343.636749 201.870009 346.56531 202.520801 
z
" clip-path="url(#p33a3d894ac)" style="fill: #ffffff; stroke: #ffffff; stroke-linejoin: miter"/>
    </g>
    <g clip-path="url(#p33a3d894ac)">
     <!-- 1 -->
     <g transform="translate(347.667249 197.562075) rotate(-347.471192) scale(0.1 -0.1)">
      <use xlink:href="#DejaVuSans-31"/>
     </g>
    </g>
   </g>
   <g id="text_7">
    <g id="patch_9">
     <path d="M 267.457292 290.628653 
L 273.207864 301.980153 
Q 274.563598 304.656342 277.239786 303.300608 
L 285.873282 298.926953 
Q 288.549471 297.571219 287.193737 294.895031 
L 281.443165 283.543531 
Q 280.087431 280.867342 277.411243 282.223076 
L 268.777747 286.59673 
Q 266.101558 287.952464 267.457292 290.628653 
z
" clip-path="url(#p33a3d894ac)" style="fill: #ffffff; stroke: #ffffff; stroke-linejoin: miter"/>
    </g>
    <g clip-path="url(#p33a3d894ac)">
     <!-- 12 -->
     <g transform="translate(271.988693 288.333085) rotate(-296.866379) scale(0.1 -0.1)">
      <defs>
       <path id="DejaVuSans-32" d="M 1228 531 
L 3431 531 
L 3431 0 
L 469 0 
L 469 531 
Q 828 903 1448 1529 
Q 2069 2156 2228 2338 
Q 2531 2678 2651 2914 
Q 2772 3150 2772 3378 
Q 2772 3750 2511 3984 
Q 2250 4219 1831 4219 
Q 1534 4219 1204 4116 
Q 875 4013 500 3803 
L 500 4441 
Q 881 4594 1212 4672 
Q 1544 4750 1819 4750 
Q 2544 4750 2975 4387 
Q 3406 4025 3406 3419 
Q 3406 3131 3298 2873 
Q 3191 2616 2906 2266 
Q 2828 2175 2409 1742 
Q 1991 1309 1228 531 
z
" transform="scale(0.015625)"/>
      </defs>
      <use xlink:href="#DejaVuSans-31"/>
      <use xlink:href="#DejaVuSans-32" x="63.623047"/>
     </g>
    </g>
   </g>
   <g id="text_8">
    <g id="patch_10">
     <path d="M 271.333962 212.672828 
L 276.654714 216.161526 
Q 279.163516 217.806491 280.808481 215.297689 
L 286.115209 207.204189 
Q 287.760174 204.695386 285.251372 203.050421 
L 279.930621 199.561723 
Q 277.421819 197.916758 275.776853 200.42556 
L 270.470126 208.51906 
Q 268.82516 211.027862 271.333962 212.672828 
z
" clip-path="url(#p33a3d894ac)" style="fill: #ffffff; stroke: #ffffff; stroke-linejoin: miter"/>
    </g>
    <g clip-path="url(#p33a3d894ac)">
     <!-- 7 -->
     <g transform="translate(274.119266 208.424851) rotate(-326.748039) scale(0.1 -0.1)">
      <defs>
       <path id="DejaVuSans-37" d="M 525 4666 
L 3525 4666 
L 3525 4397 
L 1831 0 
L 1172 0 
L 2766 4134 
L 525 4134 
L 525 4666 
z
" transform="scale(0.015625)"/>
      </defs>
      <use xlink:href="#DejaVuSans-37"/>
     </g>
    </g>
   </g>
   <g id="text_9">
    <g id="patch_11">
     <path d="M 354.293805 342.599317 
L 360.656041 342.541373 
Q 363.655917 342.514052 363.628595 339.514177 
L 363.540456 329.836453 
Q 363.513135 326.836577 360.513259 326.863899 
L 354.151023 326.921842 
Q 351.151147 326.949164 351.178469 329.949039 
L 351.266608 339.626763 
Q 351.293929 342.626639 354.293805 342.599317 
z
" clip-path="url(#p33a3d894ac)" style="fill: #ffffff; stroke: #ffffff; stroke-linejoin: miter"/>
    </g>
    <g clip-path="url(#p33a3d894ac)">
     <!-- 7 -->
     <g transform="translate(354.247544 337.51984) rotate(-0.521805) scale(0.1 -0.1)">
      <use xlink:href="#DejaVuSans-37"/>
     </g>
    </g>
   </g>
   <g id="text_10">
    <g id="patch_12">
     <path d="M 497.889046 283.197257 
L 497.917706 276.834821 
Q 497.931219 273.834852 494.93125 273.821338 
L 485.253223 273.777744 
Q 482.253253 273.76423 482.23974 276.7642 
L 482.21108 283.126635 
Q 482.197567 286.126605 485.197537 286.140118 
L 494.875563 286.183713 
Q 497.875533 286.197226 497.889046 283.197257 
z
" clip-path="url(#p33a3d894ac)" style="fill: #ffffff; stroke: #ffffff; stroke-linejoin: miter"/>
    </g>
    <g clip-path="url(#p33a3d894ac)">
     <!-- 3 -->
     <g transform="translate(492.80941 283.174375) rotate(-89.741913) scale(0.1 -0.1)">
      <defs>
       <path id="DejaVuSans-33" d="M 2597 2516 
Q 3050 2419 3304 2112 
Q 3559 1806 3559 1356 
Q 3559 666 3084 287 
Q 2609 -91 1734 -91 
Q 1441 -91 1130 -33 
Q 819 25 488 141 
L 488 750 
Q 750 597 1062 519 
Q 1375 441 1716 441 
Q 2309 441 2620 675 
Q 2931 909 2931 1356 
Q 2931 1769 2642 2001 
Q 2353 2234 1838 2234 
L 1294 2234 
L 1294 2753 
L 1863 2753 
Q 2328 2753 2575 2939 
Q 2822 3125 2822 3475 
Q 2822 3834 2567 4026 
Q 2313 4219 1838 4219 
Q 1578 4219 1281 4162 
Q 984 4106 628 3988 
L 628 4550 
Q 988 4650 1302 4700 
Q 1616 4750 1894 4750 
Q 2613 4750 3031 4423 
Q 3450 4097 3450 3541 
Q 3450 3153 3228 2886 
Q 3006 2619 2597 2516 
z
" transform="scale(0.015625)"/>
      </defs>
      <use xlink:href="#DejaVuSans-33"/>
     </g>
    </g>
   </g>
   <g id="text_11">
    <g id="patch_13">
     <path d="M 410.717821 340.76566 
L 422.848894 344.607886 
Q 425.708872 345.513715 426.614701 342.653737 
L 429.536944 333.427329 
Q 430.442773 330.567351 427.582795 329.661522 
L 415.451723 325.819296 
Q 412.591745 324.913467 411.685915 327.773445 
L 408.763672 336.999852 
Q 407.857843 339.85983 410.717821 340.76566 
z
" clip-path="url(#p33a3d894ac)" style="fill: #ffffff; stroke: #ffffff; stroke-linejoin: miter"/>
    </g>
    <g clip-path="url(#p33a3d894ac)">
     <!-- 10 -->
     <g transform="translate(412.251598 335.923062) rotate(-342.425653) scale(0.1 -0.1)">
      <use xlink:href="#DejaVuSans-31"/>
      <use xlink:href="#DejaVuSans-30" x="63.623047"/>
     </g>
    </g>
   </g>
   <g id="text_12">
    <g id="patch_14">
     <path d="M 239.47664 308.746667 
L 252.118023 310.203047 
Q 255.09831 310.546399 255.441661 307.566112 
L 256.549326 297.951582 
Q 256.892677 294.971295 253.91239 294.627944 
L 241.271006 293.171563 
Q 238.29072 292.828212 237.947369 295.808499 
L 236.839704 305.423029 
Q 236.496353 308.403316 239.47664 308.746667 
z
" clip-path="url(#p33a3d894ac)" style="fill: #ffffff; stroke: #ffffff; stroke-linejoin: miter"/>
    </g>
    <g clip-path="url(#p33a3d894ac)">
     <!-- 19 -->
     <g transform="translate(240.058012 303.700358) rotate(-353.428077) scale(0.1 -0.1)">
      <defs>
       <path id="DejaVuSans-39" d="M 703 97 
L 703 672 
Q 941 559 1184 500 
Q 1428 441 1663 441 
Q 2288 441 2617 861 
Q 2947 1281 2994 2138 
Q 2813 1869 2534 1725 
Q 2256 1581 1919 1581 
Q 1219 1581 811 2004 
Q 403 2428 403 3163 
Q 403 3881 828 4315 
Q 1253 4750 1959 4750 
Q 2769 4750 3195 4129 
Q 3622 3509 3622 2328 
Q 3622 1225 3098 567 
Q 2575 -91 1691 -91 
Q 1453 -91 1209 -44 
Q 966 3 703 97 
z
M 1959 2075 
Q 2384 2075 2632 2365 
Q 2881 2656 2881 3163 
Q 2881 3666 2632 3958 
Q 2384 4250 1959 4250 
Q 1534 4250 1286 3958 
Q 1038 3666 1038 3163 
Q 1038 2656 1286 2365 
Q 1534 2075 1959 2075 
z
" transform="scale(0.015625)"/>
      </defs>
      <use xlink:href="#DejaVuSans-31"/>
      <use xlink:href="#DejaVuSans-39" x="63.623047"/>
     </g>
    </g>
   </g>
   <g id="text_13">
    <g id="patch_15">
     <path d="M 283.268978 333.663608 
L 295.80227 331.463107 
Q 298.757074 330.944324 298.238292 327.989521 
L 296.564678 318.457201 
Q 296.045896 315.502397 293.091092 316.021179 
L 280.5578 318.221681 
Q 277.602996 318.740463 278.121779 321.695267 
L 279.795392 331.227587 
Q 280.314174 334.182391 283.268978 333.663608 
z
" clip-path="url(#p33a3d894ac)" style="fill: #ffffff; stroke: #ffffff; stroke-linejoin: miter"/>
    </g>
    <g clip-path="url(#p33a3d894ac)">
     <!-- 19 -->
     <g transform="translate(282.390561 328.660448) rotate(-9.958071) scale(0.1 -0.1)">
      <use xlink:href="#DejaVuSans-31"/>
      <use xlink:href="#DejaVuSans-39" x="63.623047"/>
     </g>
    </g>
   </g>
   <g id="text_14">
    <g id="patch_16">
     <path d="M 384.029296 301.325777 
L 394.805971 308.092527 
Q 397.346641 309.687831 398.941945 307.147161 
L 404.088464 298.950854 
Q 405.683768 296.410184 403.143098 294.81488 
L 392.366423 288.04813 
Q 389.825753 286.452826 388.230449 288.993496 
L 383.08393 297.189803 
Q 381.488626 299.730473 384.029296 301.325777 
z
" clip-path="url(#p33a3d894ac)" style="fill: #ffffff; stroke: #ffffff; stroke-linejoin: miter"/>
    </g>
    <g clip-path="url(#p33a3d894ac)">
     <!-- 13 -->
     <g transform="translate(386.730512 297.023841) rotate(-327.875002) scale(0.1 -0.1)">
      <use xlink:href="#DejaVuSans-31"/>
      <use xlink:href="#DejaVuSans-33" x="63.623047"/>
     </g>
    </g>
   </g>
   <g id="text_15">
    <g id="patch_17">
     <path d="M 161.831212 181.787268 
L 173.30543 187.288899 
Q 176.01055 188.585943 177.307595 185.880823 
L 181.491914 177.153992 
Q 182.788959 174.448872 180.083839 173.151828 
L 168.609621 167.650197 
Q 165.9045 166.353152 164.607456 169.058273 
L 160.423136 177.785103 
Q 159.126091 180.490223 161.831212 181.787268 
z
" clip-path="url(#p33a3d894ac)" style="fill: #ffffff; stroke: #ffffff; stroke-linejoin: miter"/>
    </g>
    <g clip-path="url(#p33a3d894ac)">
     <!-- 20 -->
     <g transform="translate(164.027405 177.206879) rotate(-334.383325) scale(0.1 -0.1)">
      <use xlink:href="#DejaVuSans-32"/>
      <use xlink:href="#DejaVuSans-30" x="63.623047"/>
     </g>
    </g>
   </g>
   <g id="text_16">
    <g id="patch_18">
     <path d="M 257.932763 177.039485 
L 270.2856 180.094487 
Q 273.19786 180.814724 273.918097 177.902463 
L 276.241609 168.507391 
Q 276.961846 165.59513 274.049585 164.874894 
L 261.696748 161.819891 
Q 258.784488 161.099655 258.064252 164.011915 
L 255.740739 173.406988 
Q 255.020503 176.319248 257.932763 177.039485 
z
" clip-path="url(#p33a3d894ac)" style="fill: #ffffff; stroke: #ffffff; stroke-linejoin: miter"/>
    </g>
    <g clip-path="url(#p33a3d894ac)">
     <!-- 20 -->
     <g transform="translate(259.152288 172.108361) rotate(-346.108809) scale(0.1 -0.1)">
      <use xlink:href="#DejaVuSans-32"/>
      <use xlink:href="#DejaVuSans-30" x="63.623047"/>
     </g>
    </g>
   </g>
   <g id="text_17">
    <g id="patch_19">
     <path d="M 44.514844 296.80229 
L 44.889439 303.153753 
Q 45.066065 306.148549 48.060861 305.971923 
L 57.722198 305.40212 
Q 60.716994 305.225493 60.540367 302.230697 
L 60.165773 295.879234 
Q 59.989146 292.884438 56.99435 293.061064 
L 47.333014 293.630868 
Q 44.338218 293.807494 44.514844 296.80229 
z
" clip-path="url(#p33a3d894ac)" style="fill: #ffffff; stroke: #ffffff; stroke-linejoin: miter"/>
    </g>
    <g clip-path="url(#p33a3d894ac)">
     <!-- 6 -->
     <g transform="translate(49.58572 296.503222) rotate(-273.375265) scale(0.1 -0.1)">
      <use xlink:href="#DejaVuSans-36"/>
     </g>
    </g>
   </g>
   <g id="text_18">
    <g id="patch_20">
     <path d="M 123.233643 225.828345 
L 131.369455 235.61273 
Q 133.287525 237.919461 135.594256 236.001392 
L 143.035867 229.813619 
Q 145.342598 227.895549 143.424529 225.588818 
L 135.288716 215.804433 
Q 133.370647 213.497702 131.063915 215.415772 
L 123.622305 221.603544 
Q 121.315573 223.521614 123.233643 225.828345 
z
" clip-path="url(#p33a3d894ac)" style="fill: #ffffff; stroke: #ffffff; stroke-linejoin: miter"/>
    </g>
    <g clip-path="url(#p33a3d894ac)">
     <!-- 19 -->
     <g transform="translate(127.139468 222.580614) rotate(-309.743857) scale(0.1 -0.1)">
      <use xlink:href="#DejaVuSans-31"/>
      <use xlink:href="#DejaVuSans-39" x="63.623047"/>
     </g>
    </g>
   </g>
   <g id="text_19">
    <g id="patch_21">
     <path d="M 146.521481 90.387823 
L 158.648876 86.534006 
Q 161.507987 85.625444 160.599425 82.766334 
L 157.668367 73.542723 
Q 156.759805 70.683612 153.900694 71.592174 
L 141.773299 75.44599 
Q 138.914188 76.354552 139.82275 79.213663 
L 142.753808 88.437274 
Q 143.66237 91.296385 146.521481 90.387823 
z
" clip-path="url(#p33a3d894ac)" style="fill: #ffffff; stroke: #ffffff; stroke-linejoin: miter"/>
    </g>
    <g clip-path="url(#p33a3d894ac)">
     <!-- 17 -->
     <g transform="translate(144.983077 85.546693) rotate(-17.6291) scale(0.1 -0.1)">
      <use xlink:href="#DejaVuSans-31"/>
      <use xlink:href="#DejaVuSans-37" x="63.623047"/>
     </g>
    </g>
   </g>
   <g id="text_20">
    <g id="patch_22">
     <path d="M 43.734158 201.53632 
L 53.041018 210.214337 
Q 55.235169 212.260235 57.281067 210.066084 
L 63.88122 202.987659 
Q 65.927118 200.793508 63.732966 198.74761 
L 54.426107 190.069592 
Q 52.231955 188.023694 50.186057 190.217846 
L 43.585905 197.29627 
Q 41.540006 199.490421 43.734158 201.53632 
z
" clip-path="url(#p33a3d894ac)" style="fill: #ffffff; stroke: #ffffff; stroke-linejoin: miter"/>
    </g>
    <g clip-path="url(#p33a3d894ac)">
     <!-- 12 -->
     <g transform="translate(47.198332 197.821118) rotate(-317.002533) scale(0.1 -0.1)">
      <use xlink:href="#DejaVuSans-31"/>
      <use xlink:href="#DejaVuSans-32" x="63.623047"/>
     </g>
    </g>
   </g>
   <g id="text_21">
    <g id="patch_23">
     <path d="M 198.101901 208.586147 
L 203.096723 196.882413 
Q 204.274284 194.123184 201.515054 192.945622 
L 192.613663 189.146761 
Q 189.854433 187.9692 188.676872 190.72843 
L 183.68205 202.432164 
Q 182.504489 205.191394 185.263719 206.368955 
L 194.16511 210.167816 
Q 196.92434 211.345377 198.101901 208.586147 
z
" clip-path="url(#p33a3d894ac)" style="fill: #ffffff; stroke: #ffffff; stroke-linejoin: miter"/>
    </g>
    <g clip-path="url(#p33a3d894ac)">
     <!-- 13 -->
     <g transform="translate(193.429892 206.592266) rotate(-66.888584) scale(0.1 -0.1)">
      <use xlink:href="#DejaVuSans-31"/>
      <use xlink:href="#DejaVuSans-33" x="63.623047"/>
     </g>
    </g>
   </g>
   <g id="text_22">
    <g id="patch_24">
     <path d="M 203.85957 377.38949 
L 213.659985 369.272995 
Q 215.970495 367.35948 214.05698 365.048969 
L 207.883899 357.595166 
Q 205.970383 355.284656 203.659873 357.198172 
L 193.859458 365.314666 
Q 191.548947 367.228182 193.462463 369.538692 
L 199.635544 376.992495 
Q 201.549059 379.303006 203.85957 377.38949 
z
" clip-path="url(#p33a3d894ac)" style="fill: #ffffff; stroke: #ffffff; stroke-linejoin: miter"/>
    </g>
    <g clip-path="url(#p33a3d894ac)">
     <!-- 10 -->
     <g transform="translate(200.619549 373.477267) rotate(-39.63083) scale(0.1 -0.1)">
      <use xlink:href="#DejaVuSans-31"/>
      <use xlink:href="#DejaVuSans-30" x="63.623047"/>
     </g>
    </g>
   </g>
   <g id="text_23">
    <g id="patch_25">
     <path d="M 230.173897 277.686386 
L 232.323962 290.22843 
Q 232.830853 293.185296 235.78772 292.678405 
L 245.326695 291.043152 
Q 248.283562 290.536261 247.776671 287.579394 
L 245.626606 275.037351 
Q 245.119715 272.080484 242.162848 272.587375 
L 232.623873 274.222628 
Q 229.667006 274.72952 230.173897 277.686386 
z
" clip-path="url(#p33a3d894ac)" style="fill: #ffffff; stroke: #ffffff; stroke-linejoin: miter"/>
    </g>
    <g clip-path="url(#p33a3d894ac)">
     <!-- 17 -->
     <g transform="translate(235.18055 276.828103) rotate(-279.727579) scale(0.1 -0.1)">
      <use xlink:href="#DejaVuSans-31"/>
      <use xlink:href="#DejaVuSans-37" x="63.623047"/>
     </g>
    </g>
   </g>
   <g id="text_24">
    <g id="patch_26">
     <path d="M 273.847402 381.006417 
L 284.153221 388.470714 
Q 286.582883 390.230469 288.342639 387.800807 
L 294.019684 379.962614 
Q 295.779439 377.532951 293.349777 375.773196 
L 283.043958 368.308899 
Q 280.614296 366.549143 278.85454 368.978806 
L 273.177495 376.816999 
Q 271.417739 379.246661 273.847402 381.006417 
z
" clip-path="url(#p33a3d894ac)" style="fill: #ffffff; stroke: #ffffff; stroke-linejoin: miter"/>
    </g>
    <g clip-path="url(#p33a3d894ac)">
     <!-- 20 -->
     <g transform="translate(276.827071 376.892441) rotate(-324.084944) scale(0.1 -0.1)">
      <use xlink:href="#DejaVuSans-32"/>
      <use xlink:href="#DejaVuSans-30" x="63.623047"/>
     </g>
    </g>
   </g>
   <g id="text_25">
    <g id="patch_27">
     <path d="M 206.072738 174.323569 
L 208.826729 168.587984 
Q 210.125271 165.883582 207.42087 164.58504 
L 198.696357 160.395889 
Q 195.991956 159.097347 194.693413 161.801749 
L 191.939422 167.537334 
Q 190.64088 170.241736 193.345282 171.540278 
L 202.069794 175.729429 
Q 204.774196 177.027971 206.072738 174.323569 
z
" clip-path="url(#p33a3d894ac)" style="fill: #ffffff; stroke: #ffffff; stroke-linejoin: miter"/>
    </g>
    <g clip-path="url(#p33a3d894ac)">
     <!-- 1 -->
     <g transform="translate(201.493566 172.12484) rotate(-64.351603) scale(0.1 -0.1)">
      <use xlink:href="#DejaVuSans-31"/>
     </g>
    </g>
   </g>
   <g id="text_26">
    <g id="patch_28">
     <path d="M 193.106308 152.286686 
L 196.794837 147.102464 
Q 198.534026 144.658037 196.089599 142.918848 
L 188.203776 137.308153 
Q 185.75935 135.568964 184.020161 138.013391 
L 180.331631 143.197613 
Q 178.592443 145.64204 181.036869 147.381229 
L 188.922692 152.991924 
Q 191.367119 154.731113 193.106308 152.286686 
z
" clip-path="url(#p33a3d894ac)" style="fill: #ffffff; stroke: #ffffff; stroke-linejoin: miter"/>
    </g>
    <g clip-path="url(#p33a3d894ac)">
     <!-- 9 -->
     <g transform="translate(188.967333 149.341841) rotate(-54.568475) scale(0.1 -0.1)">
      <use xlink:href="#DejaVuSans-39"/>
     </g>
    </g>
   </g>
   <g id="matplotlib.axis_1">
    <g id="xtick_1">
     <g id="line2d_1">
      <path d="M 10.8 493.2 
L 10.8 10.8 
" clip-path="url(#p33a3d894ac)" style="fill: none; stroke: #b0b0b0; stroke-opacity: 0.3; stroke-width: 0.8; stroke-linecap: square"/>
     </g>
    </g>
    <g id="xtick_2">
     <g id="line2d_2">
      <path d="M 59.04 493.2 
L 59.04 10.8 
" clip-path="url(#p33a3d894ac)" style="fill: none; stroke: #b0b0b0; stroke-opacity: 0.3; stroke-width: 0.8; stroke-linecap: square"/>
     </g>
    </g>
    <g id="xtick_3">
     <g id="line2d_3">
      <path d="M 107.28 493.2 
L 107.28 10.8 
" clip-path="url(#p33a3d894ac)" style="fill: none; stroke: #b0b0b0; stroke-opacity: 0.3; stroke-width: 0.8; stroke-linecap: square"/>
     </g>
    </g>
    <g id="xtick_4">
     <g id="line2d_4">
      <path d="M 155.52 493.2 
L 155.52 10.8 
" clip-path="url(#p33a3d894ac)" style="fill: none; stroke: #b0b0b0; stroke-opacity: 0.3; stroke-width: 0.8; stroke-linecap: square"/>
     </g>
    </g>
    <g id="xtick_5">
     <g id="line2d_5">
      <path d="M 203.76 493.2 
L 203.76 10.8 
" clip-path="url(#p33a3d894ac)" style="fill: none; stroke: #b0b0b0; stroke-opacity: 0.3; stroke-width: 0.8; stroke-linecap: square"/>
     </g>
    </g>
    <g id="xtick_6">
     <g id="line2d_6">
      <path d="M 252 493.2 
L 252 10.8 
" clip-path="url(#p33a3d894ac)" style="fill: none; stroke: #b0b0b0; stroke-opacity: 0.3; stroke-width: 0.8; stroke-linecap: square"/>
     </g>
    </g>
    <g id="xtick_7">
     <g id="line2d_7">
      <path d="M 300.24 493.2 
L 300.24 10.8 
" clip-path="url(#p33a3d894ac)" style="fill: none; stroke: #b0b0b0; stroke-opacity: 0.3; stroke-width: 0.8; stroke-linecap: square"/>
     </g>
    </g>
    <g id="xtick_8">
     <g id="line2d_8">
      <path d="M 348.48 493.2 
L 348.48 10.8 
" clip-path="url(#p33a3d894ac)" style="fill: none; stroke: #b0b0b0; stroke-opacity: 0.3; stroke-width: 0.8; stroke-linecap: square"/>
     </g>
    </g>
    <g id="xtick_9">
     <g id="line2d_9">
      <path d="M 396.72 493.2 
L 396.72 10.8 
" clip-path="url(#p33a3d894ac)" style="fill: none; stroke: #b0b0b0; stroke-opacity: 0.3; stroke-width: 0.8; stroke-linecap: square"/>
     </g>
    </g>
    <g id="xtick_10">
     <g id="line2d_10">
      <path d="M 444.96 493.2 
L 444.96 10.8 
" clip-path="url(#p33a3d894ac)" style="fill: none; stroke: #b0b0b0; stroke-opacity: 0.3; stroke-width: 0.8; stroke-linecap: square"/>
     </g>
    </g>
    <g id="xtick_11">
     <g id="line2d_11">
      <path d="M 493.2 493.2 
L 493.2 10.8 
" clip-path="url(#p33a3d894ac)" style="fill: none; stroke: #b0b0b0; stroke-opacity: 0.3; stroke-width: 0.8; stroke-linecap: square"/>
     </g>
    </g>
   </g>
   <g id="matplotlib.axis_2">
    <g id="ytick_1">
     <g id="line2d_12">
      <path d="M 10.8 493.2 
L 493.2 493.2 
" clip-path="url(#p33a3d894ac)" style="fill: none; stroke: #b0b0b0; stroke-opacity: 0.3; stroke-width: 0.8; stroke-linecap: square"/>
     </g>
    </g>
    <g id="ytick_2">
     <g id="line2d_13">
      <path d="M 10.8 444.96 
L 493.2 444.96 
" clip-path="url(#p33a3d894ac)" style="fill: none; stroke: #b0b0b0; stroke-opacity: 0.3; stroke-width: 0.8; stroke-linecap: square"/>
     </g>
    </g>
    <g id="ytick_3">
     <g id="line2d_14">
      <path d="M 10.8 396.72 
L 493.2 396.72 
" clip-path="url(#p33a3d894ac)" style="fill: none; stroke: #b0b0b0; stroke-opacity: 0.3; stroke-width: 0.8; stroke-linecap: square"/>
     </g>
    </g>
    <g id="ytick_4">
     <g id="line2d_15">
      <path d="M 10.8 348.48 
L 493.2 348.48 
" clip-path="url(#p33a3d894ac)" style="fill: none; stroke: #b0b0b0; stroke-opacity: 0.3; stroke-width: 0.8; stroke-linecap: square"/>
     </g>
    </g>
    <g id="ytick_5">
     <g id="line2d_16">
      <path d="M 10.8 300.24 
L 493.2 300.24 
" clip-path="url(#p33a3d894ac)" style="fill: none; stroke: #b0b0b0; stroke-opacity: 0.3; stroke-width: 0.8; stroke-linecap: square"/>
     </g>
    </g>
    <g id="ytick_6">
     <g id="line2d_17">
      <path d="M 10.8 252 
L 493.2 252 
" clip-path="url(#p33a3d894ac)" style="fill: none; stroke: #b0b0b0; stroke-opacity: 0.3; stroke-width: 0.8; stroke-linecap: square"/>
     </g>
    </g>
    <g id="ytick_7">
     <g id="line2d_18">
      <path d="M 10.8 203.76 
L 493.2 203.76 
" clip-path="url(#p33a3d894ac)" style="fill: none; stroke: #b0b0b0; stroke-opacity: 0.3; stroke-width: 0.8; stroke-linecap: square"/>
     </g>
    </g>
    <g id="ytick_8">
     <g id="line2d_19">
      <path d="M 10.8 155.52 
L 493.2 155.52 
" clip-path="url(#p33a3d894ac)" style="fill: none; stroke: #b0b0b0; stroke-opacity: 0.3; stroke-width: 0.8; stroke-linecap: square"/>
     </g>
    </g>
    <g id="ytick_9">
     <g id="line2d_20">
      <path d="M 10.8 107.28 
L 493.2 107.28 
" clip-path="url(#p33a3d894ac)" style="fill: none; stroke: #b0b0b0; stroke-opacity: 0.3; stroke-width: 0.8; stroke-linecap: square"/>
     </g>
    </g>
    <g id="ytick_10">
     <g id="line2d_21">
      <path d="M 10.8 59.04 
L 493.2 59.04 
" clip-path="url(#p33a3d894ac)" style="fill: none; stroke: #b0b0b0; stroke-opacity: 0.3; stroke-width: 0.8; stroke-linecap: square"/>
     </g>
    </g>
    <g id="ytick_11">
     <g id="line2d_22">
      <path d="M 10.8 10.8 
L 493.2 10.8 
" clip-path="url(#p33a3d894ac)" style="fill: none; stroke: #b0b0b0; stroke-opacity: 0.3; stroke-width: 0.8; stroke-linecap: square"/>
     </g>
    </g>
   </g>
   <g id="PathCollection_1">
    <defs>
     <path id="m0bcaf66ee0" d="M 0 8.660254 
C 2.296726 8.660254 4.499694 7.747755 6.123724 6.123724 
C 7.747755 4.499694 8.660254 2.296726 8.660254 0 
C 8.660254 -2.296726 7.747755 -4.499694 6.123724 -6.123724 
C 4.499694 -7.747755 2.296726 -8.660254 0 -8.660254 
C -2.296726 -8.660254 -4.499694 -7.747755 -6.123724 -6.123724 
C -7.747755 -4.499694 -8.660254 -2.296726 -8.660254 0 
C -8.660254 2.296726 -7.747755 4.499694 -6.123724 6.123724 
C -4.499694 7.747755 -2.296726 8.660254 0 8.660254 
z
" style="stroke: #1f78b4"/>
    </defs>
    <g clip-path="url(#p33a3d894ac)">
     <use xlink:href="#m0bcaf66ee0" x="293.9688" y="37.332" style="fill: #1f78b4; stroke: #1f78b4"/>
     <use xlink:href="#m0bcaf66ee0" x="212.4432" y="164.6856" style="fill: #1f78b4; stroke: #1f78b4"/>
     <use xlink:href="#m0bcaf66ee0" x="489.8232" y="333.5256" style="fill: #1f78b4; stroke: #1f78b4"/>
     <use xlink:href="#m0bcaf66ee0" x="351.3744" y="313.7472" style="fill: #1f78b4; stroke: #1f78b4"/>
     <use xlink:href="#m0bcaf66ee0" x="300.24" y="239.4576" style="fill: #1f78b4; stroke: #1f78b4"/>
     <use xlink:href="#m0bcaf66ee0" x="486.9288" y="356.6808" style="fill: #1f78b4; stroke: #1f78b4"/>
     <use xlink:href="#m0bcaf66ee0" x="41.6736" y="115.4808" style="fill: #1f78b4; stroke: #1f78b4"/>
     <use xlink:href="#m0bcaf66ee0" x="71.5824" y="216.7848" style="fill: #1f78b4; stroke: #1f78b4"/>
     <use xlink:href="#m0bcaf66ee0" x="128.0232" y="352.8216" style="fill: #1f78b4; stroke: #1f78b4"/>
     <use xlink:href="#m0bcaf66ee0" x="63.3816" y="483.552" style="fill: #1f78b4; stroke: #1f78b4"/>
     <use xlink:href="#m0bcaf66ee0" x="228.8448" y="223.5384" style="fill: #1f78b4; stroke: #1f78b4"/>
     <use xlink:href="#m0bcaf66ee0" x="344.1384" y="251.0352" style="fill: #1f78b4; stroke: #1f78b4"/>
     <use xlink:href="#m0bcaf66ee0" x="490.3056" y="226.4328" style="fill: #1f78b4; stroke: #1f78b4"/>
     <use xlink:href="#m0bcaf66ee0" x="249.1056" y="341.7264" style="fill: #1f78b4; stroke: #1f78b4"/>
     <use xlink:href="#m0bcaf66ee0" x="224.9856" y="335.9376" style="fill: #1f78b4; stroke: #1f78b4"/>
     <use xlink:href="#m0bcaf66ee0" x="142.0128" y="289.6272" style="fill: #1f78b4; stroke: #1f78b4"/>
     <use xlink:href="#m0bcaf66ee0" x="118.3752" y="243.7992" style="fill: #1f78b4; stroke: #1f78b4"/>
     <use xlink:href="#m0bcaf66ee0" x="258.7536" y="46.4976" style="fill: #1f78b4; stroke: #1f78b4"/>
     <use xlink:href="#m0bcaf66ee0" x="420.84" y="418.9104" style="fill: #1f78b4; stroke: #1f78b4"/>
     <use xlink:href="#m0bcaf66ee0" x="35.8848" y="183.4992" style="fill: #1f78b4; stroke: #1f78b4"/>
     <use xlink:href="#m0bcaf66ee0" x="342.2088" y="420.84" style="fill: #1f78b4; stroke: #1f78b4"/>
    </g>
   </g>
   <g id="patch_29">
    <path d="M 10.8 493.2 
L 10.8 10.8 
" style="fill: none; stroke: #000000; stroke-width: 0.8; stroke-linejoin: miter; stroke-linecap: square"/>
   </g>
   <g id="patch_30">
    <path d="M 493.2 493.2 
L 493.2 10.8 
" style="fill: none; stroke: #000000; stroke-width: 0.8; stroke-linejoin: miter; stroke-linecap: square"/>
   </g>
   <g id="patch_31">
    <path d="M 10.8 493.2 
L 493.2 493.2 
" style="fill: none; stroke: #000000; stroke-width: 0.8; stroke-linejoin: miter; stroke-linecap: square"/>
   </g>
   <g id="patch_32">
    <path d="M 10.8 10.8 
L 493.2 10.8 
" style="fill: none; stroke: #000000; stroke-width: 0.8; stroke-linejoin: miter; stroke-linecap: square"/>
   </g>
   <g id="text_27">
    <g clip-path="url(#p33a3d894ac)">
     <!-- 0 -->
     <g transform="translate(290.1513 40.64325) scale(0.12 -0.12)">
      <use xlink:href="#DejaVuSans-30"/>
     </g>
    </g>
   </g>
   <g id="text_28">
    <g clip-path="url(#p33a3d894ac)">
     <!-- 1 -->
     <g transform="translate(208.6257 167.99685) scale(0.12 -0.12)">
      <use xlink:href="#DejaVuSans-31"/>
     </g>
    </g>
   </g>
   <g id="text_29">
    <g clip-path="url(#p33a3d894ac)">
     <!-- 2 -->
     <g transform="translate(486.0057 336.83685) scale(0.12 -0.12)">
      <use xlink:href="#DejaVuSans-32"/>
     </g>
    </g>
   </g>
   <g id="text_30">
    <g clip-path="url(#p33a3d894ac)">
     <!-- 3 -->
     <g transform="translate(347.5569 317.05845) scale(0.12 -0.12)">
      <use xlink:href="#DejaVuSans-33"/>
     </g>
    </g>
   </g>
   <g id="text_31">
    <g clip-path="url(#p33a3d894ac)">
     <!-- 4 -->
     <g transform="translate(296.4225 242.76885) scale(0.12 -0.12)">
      <use xlink:href="#DejaVuSans-34"/>
     </g>
    </g>
   </g>
   <g id="text_32">
    <g clip-path="url(#p33a3d894ac)">
     <!-- 5 -->
     <g transform="translate(483.1113 359.99205) scale(0.12 -0.12)">
      <defs>
       <path id="DejaVuSans-35" d="M 691 4666 
L 3169 4666 
L 3169 4134 
L 1269 4134 
L 1269 2991 
Q 1406 3038 1543 3061 
Q 1681 3084 1819 3084 
Q 2600 3084 3056 2656 
Q 3513 2228 3513 1497 
Q 3513 744 3044 326 
Q 2575 -91 1722 -91 
Q 1428 -91 1123 -41 
Q 819 9 494 109 
L 494 744 
Q 775 591 1075 516 
Q 1375 441 1709 441 
Q 2250 441 2565 725 
Q 2881 1009 2881 1497 
Q 2881 1984 2565 2268 
Q 2250 2553 1709 2553 
Q 1456 2553 1204 2497 
Q 953 2441 691 2322 
L 691 4666 
z
" transform="scale(0.015625)"/>
      </defs>
      <use xlink:href="#DejaVuSans-35"/>
     </g>
    </g>
   </g>
   <g id="text_33">
    <g clip-path="url(#p33a3d894ac)">
     <!-- 6 -->
     <g transform="translate(37.8561 118.79205) scale(0.12 -0.12)">
      <use xlink:href="#DejaVuSans-36"/>
     </g>
    </g>
   </g>
   <g id="text_34">
    <g clip-path="url(#p33a3d894ac)">
     <!-- 7 -->
     <g transform="translate(67.7649 220.09605) scale(0.12 -0.12)">
      <use xlink:href="#DejaVuSans-37"/>
     </g>
    </g>
   </g>
   <g id="text_35">
    <g clip-path="url(#p33a3d894ac)">
     <!-- 8 -->
     <g transform="translate(124.2057 356.13285) scale(0.12 -0.12)">
      <use xlink:href="#DejaVuSans-38"/>
     </g>
    </g>
   </g>
   <g id="text_36">
    <g clip-path="url(#p33a3d894ac)">
     <!-- 9 -->
     <g transform="translate(59.5641 486.86325) scale(0.12 -0.12)">
      <use xlink:href="#DejaVuSans-39"/>
     </g>
    </g>
   </g>
   <g id="text_37">
    <g clip-path="url(#p33a3d894ac)">
     <!-- 10 -->
     <g transform="translate(221.2098 226.84965) scale(0.12 -0.12)">
      <use xlink:href="#DejaVuSans-31"/>
      <use xlink:href="#DejaVuSans-30" x="63.623047"/>
     </g>
    </g>
   </g>
   <g id="text_38">
    <g clip-path="url(#p33a3d894ac)">
     <!-- 11 -->
     <g transform="translate(336.5034 254.34645) scale(0.12 -0.12)">
      <use xlink:href="#DejaVuSans-31"/>
      <use xlink:href="#DejaVuSans-31" x="63.623047"/>
     </g>
    </g>
   </g>
   <g id="text_39">
    <g clip-path="url(#p33a3d894ac)">
     <!-- 12 -->
     <g transform="translate(482.6706 229.74405) scale(0.12 -0.12)">
      <use xlink:href="#DejaVuSans-31"/>
      <use xlink:href="#DejaVuSans-32" x="63.623047"/>
     </g>
    </g>
   </g>
   <g id="text_40">
    <g clip-path="url(#p33a3d894ac)">
     <!-- 13 -->
     <g transform="translate(241.4706 345.03765) scale(0.12 -0.12)">
      <use xlink:href="#DejaVuSans-31"/>
      <use xlink:href="#DejaVuSans-33" x="63.623047"/>
     </g>
    </g>
   </g>
   <g id="text_41">
    <g clip-path="url(#p33a3d894ac)">
     <!-- 14 -->
     <g transform="translate(217.3506 339.24885) scale(0.12 -0.12)">
      <use xlink:href="#DejaVuSans-31"/>
      <use xlink:href="#DejaVuSans-34" x="63.623047"/>
     </g>
    </g>
   </g>
   <g id="text_42">
    <g clip-path="url(#p33a3d894ac)">
     <!-- 15 -->
     <g transform="translate(134.3778 292.93845) scale(0.12 -0.12)">
      <use xlink:href="#DejaVuSans-31"/>
      <use xlink:href="#DejaVuSans-35" x="63.623047"/>
     </g>
    </g>
   </g>
   <g id="text_43">
    <g clip-path="url(#p33a3d894ac)">
     <!-- 16 -->
     <g transform="translate(110.7402 247.11045) scale(0.12 -0.12)">
      <use xlink:href="#DejaVuSans-31"/>
      <use xlink:href="#DejaVuSans-36" x="63.623047"/>
     </g>
    </g>
   </g>
   <g id="text_44">
    <g clip-path="url(#p33a3d894ac)">
     <!-- 17 -->
     <g transform="translate(251.1186 49.80885) scale(0.12 -0.12)">
      <use xlink:href="#DejaVuSans-31"/>
      <use xlink:href="#DejaVuSans-37" x="63.623047"/>
     </g>
    </g>
   </g>
   <g id="text_45">
    <g clip-path="url(#p33a3d894ac)">
     <!-- 18 -->
     <g transform="translate(413.205 422.22165) scale(0.12 -0.12)">
      <use xlink:href="#DejaVuSans-31"/>
      <use xlink:href="#DejaVuSans-38" x="63.623047"/>
     </g>
    </g>
   </g>
   <g id="text_46">
    <g clip-path="url(#p33a3d894ac)">
     <!-- 19 -->
     <g transform="translate(28.2498 186.81045) scale(0.12 -0.12)">
      <use xlink:href="#DejaVuSans-31"/>
      <use xlink:href="#DejaVuSans-39" x="63.623047"/>
     </g>
    </g>
   </g>
   <g id="text_47">
    <g clip-path="url(#p33a3d894ac)">
     <!-- 20 -->
     <g transform="translate(334.5738 424.15125) scale(0.12 -0.12)">
      <use xlink:href="#DejaVuSans-32"/>
      <use xlink:href="#DejaVuSans-30" x="63.623047"/>
     </g>
    </g>
   </g>
  </g>
 </g>
 <defs>
  <clipPath id="p33a3d894ac">
   <rect x="10.8" y="10.8" width="482.4" height="482.4"/>
  </clipPath>
 </defs>
</svg>
