<?xml version="1.0" encoding="utf-8" standalone="no"?>
<!DOCTYPE svg PUBLIC "-//W3C//DTD SVG 1.1//EN"
  "http://www.w3.org/Graphics/SVG/1.1/DTD/svg11.dtd">
<svg xmlns:xlink="http://www.w3.org/1999/xlink" width="504pt" height="504pt" viewBox="0 0 504 504" xmlns="http://www.w3.org/2000/svg" version="1.1">
 <metadata>
  <rdf:RDF xmlns:dc="http://purl.org/dc/elements/1.1/" xmlns:cc="http://creativecommons.org/ns#" xmlns:rdf="http://www.w3.org/1999/02/22-rdf-syntax-ns#">
   <cc:Work>
    <dc:type rdf:resource="http://purl.org/dc/dcmitype/StillImage"/>
    <dc:date>2024-10-29T14:59:42.497495</dc:date>
    <dc:format>image/svg+xml</dc:format>
    <dc:creator>
     <cc:Agent>
      <dc:title>Matplotlib v3.9.2, https://matplotlib.org/</dc:title>
     </cc:Agent>
    </dc:creator>
   </cc:Work>
  </rdf:RDF>
 </metadata>
 <defs>
  <style type="text/css">*{stroke-linejoin: round; stroke-linecap: butt}</style>
 </defs>
 <g id="figure_1">
  <g id="patch_1">
   <path d="M 0 504 
L 504 504 
L 504 0 
L 0 0 
L 0 504 
z
" style="fill: none; opacity: 0"/>
  </g>
  <g id="axes_1">
   <g id="patch_2">
    <path d="M 10.8 493.2 
L 493.2 493.2 
L 493.2 10.8 
L 10.8 10.8 
L 10.8 493.2 
z
" style="fill: none; opacity: 0"/>
   </g>
   <g id="LineCollection_1">
    <path d="M 431.9352 168.0624 
L 251.0352 438.6888 
" clip-path="url(#p00571f8c94)" style="fill: none; stroke: #000000"/>
    <path d="M 431.9352 168.0624 
L 326.772 82.6776 
" clip-path="url(#p00571f8c94)" style="fill: none; stroke: #000000"/>
    <path d="M 431.9352 168.0624 
L 360.54 394.308 
" clip-path="url(#p00571f8c94)" style="fill: none; stroke: #000000"/>
    <path d="M 431.9352 168.0624 
L 304.0992 124.6464 
" clip-path="url(#p00571f8c94)" style="fill: none; stroke: #000000"/>
    <path d="M 431.9352 168.0624 
L 239.4576 23.3424 
" clip-path="url(#p00571f8c94)" style="fill: none; stroke: #000000"/>
    <path d="M 431.9352 168.0624 
L 58.0752 142.4952 
" clip-path="url(#p00571f8c94)" style="fill: none; stroke: #000000"/>
    <path d="M 474.8688 412.6392 
L 251.0352 438.6888 
" clip-path="url(#p00571f8c94)" style="fill: none; stroke: #000000"/>
    <path d="M 474.8688 412.6392 
L 322.4304 128.0232 
" clip-path="url(#p00571f8c94)" style="fill: none; stroke: #000000"/>
    <path d="M 474.8688 412.6392 
L 316.1592 219.6792 
" clip-path="url(#p00571f8c94)" style="fill: none; stroke: #000000"/>
    <path d="M 474.8688 412.6392 
L 360.54 394.308 
" clip-path="url(#p00571f8c94)" style="fill: none; stroke: #000000"/>
    <path d="M 269.3664 155.52 
L 380.3184 261.1656 
" clip-path="url(#p00571f8c94)" style="fill: none; stroke: #000000"/>
    <path d="M 269.3664 155.52 
L 322.4304 128.0232 
" clip-path="url(#p00571f8c94)" style="fill: none; stroke: #000000"/>
    <path d="M 269.3664 155.52 
L 316.1592 219.6792 
" clip-path="url(#p00571f8c94)" style="fill: none; stroke: #000000"/>
    <path d="M 269.3664 155.52 
L 239.4576 23.3424 
" clip-path="url(#p00571f8c94)" style="fill: none; stroke: #000000"/>
    <path d="M 58.0752 142.4952 
L 42.156 394.308 
" clip-path="url(#p00571f8c94)" style="fill: none; stroke: #000000"/>
    <path d="M 58.0752 142.4952 
L 135.2592 140.5656 
" clip-path="url(#p00571f8c94)" style="fill: none; stroke: #000000"/>
    <path d="M 58.0752 142.4952 
L 380.3184 261.1656 
" clip-path="url(#p00571f8c94)" style="fill: none; stroke: #000000"/>
    <path d="M 58.0752 142.4952 
L 363.4344 379.3536 
" clip-path="url(#p00571f8c94)" style="fill: none; stroke: #000000"/>
    <path d="M 87.0192 467.6328 
L 42.156 394.308 
" clip-path="url(#p00571f8c94)" style="fill: none; stroke: #000000"/>
    <path d="M 87.0192 467.6328 
L 221.6088 23.3424 
" clip-path="url(#p00571f8c94)" style="fill: none; stroke: #000000"/>
    <path d="M 87.0192 467.6328 
L 415.5336 364.8816 
" clip-path="url(#p00571f8c94)" style="fill: none; stroke: #000000"/>
    <path d="M 87.0192 467.6328 
L 360.54 394.308 
" clip-path="url(#p00571f8c94)" style="fill: none; stroke: #000000"/>
    <path d="M 87.0192 467.6328 
L 251.0352 438.6888 
" clip-path="url(#p00571f8c94)" style="fill: none; stroke: #000000"/>
    <path d="M 42.156 394.308 
L 68.2056 87.5016 
" clip-path="url(#p00571f8c94)" style="fill: none; stroke: #000000"/>
    <path d="M 42.156 394.308 
L 304.0992 124.6464 
" clip-path="url(#p00571f8c94)" style="fill: none; stroke: #000000"/>
    <path d="M 221.6088 23.3424 
L 322.4304 128.0232 
" clip-path="url(#p00571f8c94)" style="fill: none; stroke: #000000"/>
    <path d="M 221.6088 23.3424 
L 68.2056 87.5016 
" clip-path="url(#p00571f8c94)" style="fill: none; stroke: #000000"/>
    <path d="M 221.6088 23.3424 
L 380.3184 261.1656 
" clip-path="url(#p00571f8c94)" style="fill: none; stroke: #000000"/>
    <path d="M 221.6088 23.3424 
L 363.4344 379.3536 
" clip-path="url(#p00571f8c94)" style="fill: none; stroke: #000000"/>
    <path d="M 221.6088 23.3424 
L 415.5336 364.8816 
" clip-path="url(#p00571f8c94)" style="fill: none; stroke: #000000"/>
    <path d="M 61.9344 427.1112 
L 251.0352 438.6888 
" clip-path="url(#p00571f8c94)" style="fill: none; stroke: #000000"/>
    <path d="M 61.9344 427.1112 
L 68.2056 87.5016 
" clip-path="url(#p00571f8c94)" style="fill: none; stroke: #000000"/>
    <path d="M 239.4576 23.3424 
L 363.4344 379.3536 
" clip-path="url(#p00571f8c94)" style="fill: none; stroke: #000000"/>
    <path d="M 239.4576 23.3424 
L 326.772 82.6776 
" clip-path="url(#p00571f8c94)" style="fill: none; stroke: #000000"/>
    <path d="M 68.2056 87.5016 
L 360.54 394.308 
" clip-path="url(#p00571f8c94)" style="fill: none; stroke: #000000"/>
    <path d="M 68.2056 87.5016 
L 304.0992 124.6464 
" clip-path="url(#p00571f8c94)" style="fill: none; stroke: #000000"/>
    <path d="M 68.2056 87.5016 
L 322.4304 128.0232 
" clip-path="url(#p00571f8c94)" style="fill: none; stroke: #000000"/>
    <path d="M 68.2056 87.5016 
L 135.2592 140.5656 
" clip-path="url(#p00571f8c94)" style="fill: none; stroke: #000000"/>
    <path d="M 179.1576 74.9592 
L 326.772 82.6776 
" clip-path="url(#p00571f8c94)" style="fill: none; stroke: #000000"/>
    <path d="M 179.1576 74.9592 
L 360.54 394.308 
" clip-path="url(#p00571f8c94)" style="fill: none; stroke: #000000"/>
    <path d="M 360.54 394.308 
L 415.5336 364.8816 
" clip-path="url(#p00571f8c94)" style="fill: none; stroke: #000000"/>
    <path d="M 360.54 394.308 
L 316.1592 219.6792 
" clip-path="url(#p00571f8c94)" style="fill: none; stroke: #000000"/>
    <path d="M 322.4304 128.0232 
L 304.0992 124.6464 
" clip-path="url(#p00571f8c94)" style="fill: none; stroke: #000000"/>
    <path d="M 326.772 82.6776 
L 363.4344 379.3536 
" clip-path="url(#p00571f8c94)" style="fill: none; stroke: #000000"/>
    <path d="M 326.772 82.6776 
L 304.0992 124.6464 
" clip-path="url(#p00571f8c94)" style="fill: none; stroke: #000000"/>
    <path d="M 380.3184 261.1656 
L 316.1592 219.6792 
" clip-path="url(#p00571f8c94)" style="fill: none; stroke: #000000"/>
    <path d="M 380.3184 261.1656 
L 363.4344 379.3536 
" clip-path="url(#p00571f8c94)" style="fill: none; stroke: #000000"/>
    <path d="M 135.2592 140.5656 
L 363.4344 379.3536 
" clip-path="url(#p00571f8c94)" style="fill: none; stroke: #000000"/>
    <path d="M 135.2592 140.5656 
L 316.1592 219.6792 
" clip-path="url(#p00571f8c94)" style="fill: none; stroke: #000000"/>
    <path d="M 415.5336 364.8816 
L 363.4344 379.3536 
" clip-path="url(#p00571f8c94)" style="fill: none; stroke: #000000"/>
    <path d="M 415.5336 364.8816 
L 251.0352 438.6888 
" clip-path="url(#p00571f8c94)" style="fill: none; stroke: #000000"/>
    <path d="M 415.5336 364.8816 
L 304.0992 124.6464 
" clip-path="url(#p00571f8c94)" style="fill: none; stroke: #000000"/>
   </g>
   <g id="text_1">
    <g id="patch_3">
     <path d="M 346.234931 310.375994 
L 349.770736 305.08643 
Q 351.437913 302.592333 348.943816 300.925156 
L 340.897755 295.546773 
Q 338.403658 293.879595 336.736481 296.373693 
L 333.200676 301.663257 
Q 331.533498 304.157354 334.027596 305.824531 
L 342.073657 311.202914 
Q 344.567754 312.870091 346.234931 310.375994 
z
" clip-path="url(#p00571f8c94)" style="fill: #ffffff; stroke: #ffffff; stroke-linejoin: miter"/>
    </g>
    <g clip-path="url(#p00571f8c94)">
     <!-- 8 -->
     <g transform="translate(342.011853 307.553081) rotate(-56.239284) scale(0.1 -0.1)">
      <defs>
       <path id="DejaVuSans-38" d="M 2034 2216 
Q 1584 2216 1326 1975 
Q 1069 1734 1069 1313 
Q 1069 891 1326 650 
Q 1584 409 2034 409 
Q 2484 409 2743 651 
Q 3003 894 3003 1313 
Q 3003 1734 2745 1975 
Q 2488 2216 2034 2216 
z
M 1403 2484 
Q 997 2584 770 2862 
Q 544 3141 544 3541 
Q 544 4100 942 4425 
Q 1341 4750 2034 4750 
Q 2731 4750 3128 4425 
Q 3525 4100 3525 3541 
Q 3525 3141 3298 2862 
Q 3072 2584 2669 2484 
Q 3125 2378 3379 2068 
Q 3634 1759 3634 1313 
Q 3634 634 3220 271 
Q 2806 -91 2034 -91 
Q 1263 -91 848 271 
Q 434 634 434 1313 
Q 434 1759 690 2068 
Q 947 2378 1403 2484 
z
M 1172 3481 
Q 1172 3119 1398 2916 
Q 1625 2713 2034 2713 
Q 2441 2713 2670 2916 
Q 2900 3119 2900 3481 
Q 2900 3844 2670 4047 
Q 2441 4250 2034 4250 
Q 1625 4250 1398 4047 
Q 1172 3844 1172 3481 
z
" transform="scale(0.015625)"/>
      </defs>
      <use xlink:href="#DejaVuSans-38"/>
     </g>
    </g>
   </g>
   <g id="text_2">
    <g id="patch_4">
     <path d="M 371.941103 129.449164 
L 376.880514 133.459603 
Q 379.20951 135.350576 381.100483 133.021581 
L 387.200842 125.508145 
Q 389.091815 123.179149 386.76282 121.288176 
L 381.823409 117.277736 
Q 379.494413 115.386763 377.60344 117.715758 
L 371.503081 125.229195 
Q 369.612108 127.55819 371.941103 129.449164 
z
" clip-path="url(#p00571f8c94)" style="fill: #ffffff; stroke: #ffffff; stroke-linejoin: miter"/>
    </g>
    <g clip-path="url(#p00571f8c94)">
     <!-- 4 -->
     <g transform="translate(375.142954 125.505641) rotate(-320.925936) scale(0.1 -0.1)">
      <defs>
       <path id="DejaVuSans-34" d="M 2419 4116 
L 825 1625 
L 2419 1625 
L 2419 4116 
z
M 2253 4666 
L 3047 4666 
L 3047 1625 
L 3713 1625 
L 3713 1100 
L 3047 1100 
L 3047 0 
L 2419 0 
L 2419 1100 
L 313 1100 
L 313 1709 
L 2253 4666 
z
" transform="scale(0.015625)"/>
      </defs>
      <use xlink:href="#DejaVuSans-34"/>
     </g>
    </g>
   </g>
   <g id="text_3">
    <g id="patch_5">
     <path d="M 402.755559 286.57919 
L 404.670269 280.511629 
Q 405.573079 277.650697 402.712146 276.747887 
L 393.48266 273.835384 
Q 390.621727 272.932573 389.718917 275.793506 
L 387.804207 281.861066 
Q 386.901397 284.721999 389.762329 285.624809 
L 398.991816 288.537312 
Q 401.852748 289.440122 402.755559 286.57919 
z
" clip-path="url(#p00571f8c94)" style="fill: #ffffff; stroke: #ffffff; stroke-linejoin: miter"/>
    </g>
    <g clip-path="url(#p00571f8c94)">
     <!-- 1 -->
     <g transform="translate(397.911345 285.050525) rotate(-72.486126) scale(0.1 -0.1)">
      <defs>
       <path id="DejaVuSans-31" d="M 794 531 
L 1825 531 
L 1825 4091 
L 703 3866 
L 703 4441 
L 1819 4666 
L 2450 4666 
L 2450 531 
L 3481 531 
L 3481 0 
L 794 0 
L 794 531 
z
" transform="scale(0.015625)"/>
      </defs>
      <use xlink:href="#DejaVuSans-31"/>
     </g>
    </g>
   </g>
   <g id="text_4">
    <g id="patch_6">
     <path d="M 362.484138 152.754067 
L 368.508672 154.800135 
Q 371.349317 155.764883 372.314064 152.924238 
L 375.426379 143.7602 
Q 376.391127 140.919555 373.550482 139.954807 
L 367.525948 137.908739 
Q 364.685303 136.943992 363.720556 139.784637 
L 360.608241 148.948675 
Q 359.643493 151.78932 362.484138 152.754067 
z
" clip-path="url(#p00571f8c94)" style="fill: #ffffff; stroke: #ffffff; stroke-linejoin: miter"/>
    </g>
    <g clip-path="url(#p00571f8c94)">
     <!-- 9 -->
     <g transform="translate(364.117676 147.944205) rotate(-341.24135) scale(0.1 -0.1)">
      <defs>
       <path id="DejaVuSans-39" d="M 703 97 
L 703 672 
Q 941 559 1184 500 
Q 1428 441 1663 441 
Q 2288 441 2617 861 
Q 2947 1281 2994 2138 
Q 2813 1869 2534 1725 
Q 2256 1581 1919 1581 
Q 1219 1581 811 2004 
Q 403 2428 403 3163 
Q 403 3881 828 4315 
Q 1253 4750 1959 4750 
Q 2769 4750 3195 4129 
Q 3622 3509 3622 2328 
Q 3622 1225 3098 567 
Q 2575 -91 1691 -91 
Q 1453 -91 1209 -44 
Q 966 3 703 97 
z
M 1959 2075 
Q 2384 2075 2632 2365 
Q 2881 2656 2881 3163 
Q 2881 3666 2632 3958 
Q 2384 4250 1959 4250 
Q 1534 4250 1286 3958 
Q 1038 3666 1038 3163 
Q 1038 2656 1286 2365 
Q 1534 2075 1959 2075 
z
" transform="scale(0.015625)"/>
      </defs>
      <use xlink:href="#DejaVuSans-39"/>
     </g>
    </g>
   </g>
   <g id="text_5">
    <g id="patch_7">
     <path d="M 325.900117 98.14445 
L 336.070933 105.79168 
Q 338.468768 107.594563 340.271651 105.196728 
L 346.087828 97.461213 
Q 347.890711 95.063379 345.492876 93.260495 
L 335.32206 85.613265 
Q 332.924225 83.810382 331.121342 86.208217 
L 325.305165 93.943732 
Q 323.502282 96.341566 325.900117 98.14445 
z
" clip-path="url(#p00571f8c94)" style="fill: #ffffff; stroke: #ffffff; stroke-linejoin: miter"/>
    </g>
    <g clip-path="url(#p00571f8c94)">
     <!-- 14 -->
     <g transform="translate(328.952811 94.084366) rotate(-323.061237) scale(0.1 -0.1)">
      <use xlink:href="#DejaVuSans-31"/>
      <use xlink:href="#DejaVuSans-34" x="63.623047"/>
     </g>
    </g>
   </g>
   <g id="text_6">
    <g id="patch_8">
     <path d="M 241.297003 162.882579 
L 247.644677 163.316678 
Q 250.637686 163.521361 250.84237 160.528352 
L 251.502686 150.872779 
Q 251.707369 147.87977 248.71436 147.675087 
L 242.366686 147.240988 
Q 239.373677 147.036305 239.168994 150.029314 
L 238.508677 159.684887 
Q 238.303994 162.677896 241.297003 162.882579 
z
" clip-path="url(#p00571f8c94)" style="fill: #ffffff; stroke: #ffffff; stroke-linejoin: miter"/>
    </g>
    <g clip-path="url(#p00571f8c94)">
     <!-- 7 -->
     <g transform="translate(241.643579 157.814728) rotate(-356.087799) scale(0.1 -0.1)">
      <defs>
       <path id="DejaVuSans-37" d="M 525 4666 
L 3525 4666 
L 3525 4397 
L 1831 0 
L 1172 0 
L 2766 4134 
L 525 4134 
L 525 4666 
z
" transform="scale(0.015625)"/>
      </defs>
      <use xlink:href="#DejaVuSans-37"/>
     </g>
    </g>
   </g>
   <g id="text_7">
    <g id="patch_9">
     <path d="M 357.537205 434.186141 
L 370.176896 432.715142 
Q 373.156784 432.368345 372.809987 429.388457 
L 371.691204 419.775215 
Q 371.344407 416.795327 368.364519 417.142124 
L 355.724828 418.613123 
Q 352.74494 418.95992 353.091738 421.939808 
L 354.21052 431.55305 
Q 354.557317 434.532938 357.537205 434.186141 
z
" clip-path="url(#p00571f8c94)" style="fill: #ffffff; stroke: #ffffff; stroke-linejoin: miter"/>
    </g>
    <g clip-path="url(#p00571f8c94)">
     <!-- 12 -->
     <g transform="translate(356.949998 429.140508) rotate(-6.638181) scale(0.1 -0.1)">
      <defs>
       <path id="DejaVuSans-32" d="M 1228 531 
L 3431 531 
L 3431 0 
L 469 0 
L 469 531 
Q 828 903 1448 1529 
Q 2069 2156 2228 2338 
Q 2531 2678 2651 2914 
Q 2772 3150 2772 3378 
Q 2772 3750 2511 3984 
Q 2250 4219 1831 4219 
Q 1534 4219 1204 4116 
Q 875 4013 500 3803 
L 500 4441 
Q 881 4594 1212 4672 
Q 1544 4750 1819 4750 
Q 2544 4750 2975 4387 
Q 3406 4025 3406 3419 
Q 3406 3131 3298 2873 
Q 3191 2616 2906 2266 
Q 2828 2175 2409 1742 
Q 1991 1309 1228 531 
z
" transform="scale(0.015625)"/>
      </defs>
      <use xlink:href="#DejaVuSans-31"/>
      <use xlink:href="#DejaVuSans-32" x="63.623047"/>
     </g>
    </g>
   </g>
   <g id="text_8">
    <g id="patch_10">
     <path d="M 388.737102 268.427001 
L 394.745065 279.644398 
Q 396.16148 282.288972 398.806053 280.872556 
L 407.337557 276.303141 
Q 409.98213 274.886725 408.565714 272.242152 
L 402.557752 261.024754 
Q 401.141337 258.380181 398.496763 259.796597 
L 389.96526 264.366012 
Q 387.320687 265.782427 388.737102 268.427001 
z
" clip-path="url(#p00571f8c94)" style="fill: #ffffff; stroke: #ffffff; stroke-linejoin: miter"/>
    </g>
    <g clip-path="url(#p00571f8c94)">
     <!-- 20 -->
     <g transform="translate(393.214971 266.028685) rotate(-298.1732) scale(0.1 -0.1)">
      <defs>
       <path id="DejaVuSans-30" d="M 2034 4250 
Q 1547 4250 1301 3770 
Q 1056 3291 1056 2328 
Q 1056 1369 1301 889 
Q 1547 409 2034 409 
Q 2525 409 2770 889 
Q 3016 1369 3016 2328 
Q 3016 3291 2770 3770 
Q 2525 4250 2034 4250 
z
M 2034 4750 
Q 2819 4750 3233 4129 
Q 3647 3509 3647 2328 
Q 3647 1150 3233 529 
Q 2819 -91 2034 -91 
Q 1250 -91 836 529 
Q 422 1150 422 2328 
Q 422 3509 836 4129 
Q 1250 4750 2034 4750 
z
" transform="scale(0.015625)"/>
      </defs>
      <use xlink:href="#DejaVuSans-32"/>
      <use xlink:href="#DejaVuSans-30" x="63.623047"/>
     </g>
    </g>
   </g>
   <g id="text_9">
    <g id="patch_11">
     <path d="M 385.418621 316.225627 
L 393.501966 326.053402 
Q 395.407666 328.370363 397.724626 326.464663 
L 405.199238 320.316794 
Q 407.516199 318.411094 405.610499 316.094134 
L 397.527154 306.266359 
Q 395.621454 303.949398 393.304493 305.855098 
L 385.829881 312.002966 
Q 383.51292 313.908666 385.418621 316.225627 
z
" clip-path="url(#p00571f8c94)" style="fill: #ffffff; stroke: #ffffff; stroke-linejoin: miter"/>
    </g>
    <g clip-path="url(#p00571f8c94)">
     <!-- 13 -->
     <g transform="translate(389.341766 312.99884) rotate(-309.437297) scale(0.1 -0.1)">
      <defs>
       <path id="DejaVuSans-33" d="M 2597 2516 
Q 3050 2419 3304 2112 
Q 3559 1806 3559 1356 
Q 3559 666 3084 287 
Q 2609 -91 1734 -91 
Q 1441 -91 1130 -33 
Q 819 25 488 141 
L 488 750 
Q 750 597 1062 519 
Q 1375 441 1716 441 
Q 2309 441 2620 675 
Q 2931 909 2931 1356 
Q 2931 1769 2642 2001 
Q 2353 2234 1838 2234 
L 1294 2234 
L 1294 2753 
L 1863 2753 
Q 2328 2753 2575 2939 
Q 2822 3125 2822 3475 
Q 2822 3834 2567 4026 
Q 2313 4219 1838 4219 
Q 1578 4219 1281 4162 
Q 984 4106 628 3988 
L 628 4550 
Q 988 4650 1302 4700 
Q 1616 4750 1894 4750 
Q 2613 4750 3031 4423 
Q 3450 4097 3450 3541 
Q 3450 3153 3228 2886 
Q 3006 2619 2597 2516 
z
" transform="scale(0.015625)"/>
      </defs>
      <use xlink:href="#DejaVuSans-31"/>
      <use xlink:href="#DejaVuSans-33" x="63.623047"/>
     </g>
    </g>
   </g>
   <g id="text_10">
    <g id="patch_12">
     <path d="M 413.321978 410.71012 
L 419.604238 411.717402 
Q 422.566404 412.192349 423.04135 409.230183 
L 424.573547 399.674113 
Q 425.048494 396.711947 422.086328 396.237001 
L 415.804068 395.229719 
Q 412.841902 394.754772 412.366956 397.716938 
L 410.834759 407.273008 
Q 410.359813 410.235174 413.321978 410.71012 
z
" clip-path="url(#p00571f8c94)" style="fill: #ffffff; stroke: #ffffff; stroke-linejoin: miter"/>
    </g>
    <g clip-path="url(#p00571f8c94)">
     <!-- 6 -->
     <g transform="translate(414.126172 405.694495) rotate(-350.890866) scale(0.1 -0.1)">
      <defs>
       <path id="DejaVuSans-36" d="M 2113 2584 
Q 1688 2584 1439 2293 
Q 1191 2003 1191 1497 
Q 1191 994 1439 701 
Q 1688 409 2113 409 
Q 2538 409 2786 701 
Q 3034 994 3034 1497 
Q 3034 2003 2786 2293 
Q 2538 2584 2113 2584 
z
M 3366 4563 
L 3366 3988 
Q 3128 4100 2886 4159 
Q 2644 4219 2406 4219 
Q 1781 4219 1451 3797 
Q 1122 3375 1075 2522 
Q 1259 2794 1537 2939 
Q 1816 3084 2150 3084 
Q 2853 3084 3261 2657 
Q 3669 2231 3669 1497 
Q 3669 778 3244 343 
Q 2819 -91 2113 -91 
Q 1303 -91 875 529 
Q 447 1150 447 2328 
Q 447 3434 972 4092 
Q 1497 4750 2381 4750 
Q 2619 4750 2861 4703 
Q 3103 4656 3366 4563 
z
" transform="scale(0.015625)"/>
      </defs>
      <use xlink:href="#DejaVuSans-36"/>
     </g>
    </g>
   </g>
   <g id="text_11">
    <g id="patch_13">
     <path d="M 314.830665 209.63414 
L 324.046273 218.409002 
Q 326.218912 220.477731 328.287641 218.305093 
L 334.961449 211.296071 
Q 337.030179 209.123432 334.85754 207.054703 
L 325.641932 198.279841 
Q 323.469294 196.211112 321.400564 198.38375 
L 314.726756 205.392772 
Q 312.658027 207.56541 314.830665 209.63414 
z
" clip-path="url(#p00571f8c94)" style="fill: #ffffff; stroke: #ffffff; stroke-linejoin: miter"/>
    </g>
    <g clip-path="url(#p00571f8c94)">
     <!-- 15 -->
     <g transform="translate(318.333499 205.955365) rotate(-316.403402) scale(0.1 -0.1)">
      <defs>
       <path id="DejaVuSans-35" d="M 691 4666 
L 3169 4666 
L 3169 4134 
L 1269 4134 
L 1269 2991 
Q 1406 3038 1543 3061 
Q 1681 3084 1819 3084 
Q 2600 3084 3056 2656 
Q 3513 2228 3513 1497 
Q 3513 744 3044 326 
Q 2575 -91 1722 -91 
Q 1428 -91 1123 -41 
Q 819 9 494 109 
L 494 744 
Q 775 591 1075 516 
Q 1375 441 1709 441 
Q 2250 441 2565 725 
Q 2881 1009 2881 1497 
Q 2881 1984 2565 2268 
Q 2250 2553 1709 2553 
Q 1456 2553 1204 2497 
Q 953 2441 691 2322 
L 691 4666 
z
" transform="scale(0.015625)"/>
      </defs>
      <use xlink:href="#DejaVuSans-31"/>
      <use xlink:href="#DejaVuSans-35" x="63.623047"/>
     </g>
    </g>
   </g>
   <g id="text_12">
    <g id="patch_14">
     <path d="M 293.856783 151.658528 
L 305.155014 145.803991 
Q 307.818644 144.423746 306.438399 141.760116 
L 301.985672 133.167135 
Q 300.605428 130.503505 297.941798 131.883749 
L 286.643567 137.738287 
Q 283.979937 139.118531 285.360182 141.782161 
L 289.812908 150.375143 
Q 291.193153 153.038773 293.856783 151.658528 
z
" clip-path="url(#p00571f8c94)" style="fill: #ffffff; stroke: #ffffff; stroke-linejoin: miter"/>
    </g>
    <g clip-path="url(#p00571f8c94)">
     <!-- 19 -->
     <g transform="translate(291.519712 147.148392) rotate(-27.39237) scale(0.1 -0.1)">
      <use xlink:href="#DejaVuSans-31"/>
      <use xlink:href="#DejaVuSans-39" x="63.623047"/>
     </g>
    </g>
   </g>
   <g id="text_13">
    <g id="patch_15">
     <path d="M 282.681095 187.079582 
L 290.179363 197.360711 
Q 291.947127 199.784553 294.370969 198.016788 
L 302.190383 192.313907 
Q 304.614225 190.546143 302.846461 188.122301 
L 295.348194 177.841172 
Q 293.580429 175.41733 291.156588 177.185094 
L 283.337173 182.887976 
Q 280.913331 184.65574 282.681095 187.079582 
z
" clip-path="url(#p00571f8c94)" style="fill: #ffffff; stroke: #ffffff; stroke-linejoin: miter"/>
    </g>
    <g clip-path="url(#p00571f8c94)">
     <!-- 12 -->
     <g transform="translate(286.785215 184.086352) rotate(-306.104143) scale(0.1 -0.1)">
      <use xlink:href="#DejaVuSans-31"/>
      <use xlink:href="#DejaVuSans-32" x="63.623047"/>
     </g>
    </g>
   </g>
   <g id="text_14">
    <g id="patch_16">
     <path d="M 245.361575 84.95359 
L 248.169956 97.36482 
Q 248.832049 100.290847 251.758076 99.628753 
L 261.19756 97.492811 
Q 264.123586 96.830718 263.461493 93.904691 
L 260.653112 81.493461 
Q 259.991019 78.567435 257.064992 79.229528 
L 247.625508 81.36547 
Q 244.699482 82.027563 245.361575 84.95359 
z
" clip-path="url(#p00571f8c94)" style="fill: #ffffff; stroke: #ffffff; stroke-linejoin: miter"/>
    </g>
    <g clip-path="url(#p00571f8c94)">
     <!-- 12 -->
     <g transform="translate(250.316009 83.832514) rotate(-282.750026) scale(0.1 -0.1)">
      <use xlink:href="#DejaVuSans-31"/>
      <use xlink:href="#DejaVuSans-32" x="63.623047"/>
     </g>
    </g>
   </g>
   <g id="text_15">
    <g id="patch_17">
     <path d="M 57.537628 275.245864 
L 58.340479 262.546216 
Q 58.529757 259.552193 55.535734 259.362916 
L 45.876891 258.752299 
Q 42.882868 258.563022 42.69359 261.557045 
L 41.890739 274.256693 
Q 41.701462 277.250716 44.695485 277.439993 
L 54.354328 278.05061 
Q 57.348351 278.239887 57.537628 275.245864 
z
" clip-path="url(#p00571f8c94)" style="fill: #ffffff; stroke: #ffffff; stroke-linejoin: miter"/>
    </g>
    <g clip-path="url(#p00571f8c94)">
     <!-- 12 -->
     <g transform="translate(52.468061 274.925374) rotate(-86.382667) scale(0.1 -0.1)">
      <use xlink:href="#DejaVuSans-31"/>
      <use xlink:href="#DejaVuSans-32" x="63.623047"/>
     </g>
    </g>
   </g>
   <g id="text_16">
    <g id="patch_18">
     <path d="M 93.682811 149.446522 
L 100.043324 149.287509 
Q 103.042386 149.212532 102.96741 146.213469 
L 102.725532 136.538367 
Q 102.650556 133.539304 99.651493 133.614281 
L 93.29098 133.773294 
Q 90.291917 133.84827 90.366894 136.847333 
L 90.608771 146.522435 
Q 90.683748 149.521498 93.682811 149.446522 
z
" clip-path="url(#p00571f8c94)" style="fill: #ffffff; stroke: #ffffff; stroke-linejoin: miter"/>
    </g>
    <g clip-path="url(#p00571f8c94)">
     <!-- 1 -->
     <g transform="translate(93.555858 144.368421) rotate(-1.432096) scale(0.1 -0.1)">
      <use xlink:href="#DejaVuSans-31"/>
     </g>
    </g>
   </g>
   <g id="text_17">
    <g id="patch_19">
     <path d="M 213.501949 208.086921 
L 219.472462 210.285643 
Q 222.287636 211.322368 223.324361 208.507195 
L 226.668881 199.425329 
Q 227.705606 196.610156 224.890433 195.57343 
L 218.91992 193.374708 
Q 216.104746 192.337983 215.068021 195.153156 
L 211.723501 204.235022 
Q 210.686776 207.050196 213.501949 208.086921 
z
" clip-path="url(#p00571f8c94)" style="fill: #ffffff; stroke: #ffffff; stroke-linejoin: miter"/>
    </g>
    <g clip-path="url(#p00571f8c94)">
     <!-- 1 -->
     <g transform="translate(215.257363 203.320188) rotate(-339.783091) scale(0.1 -0.1)">
      <use xlink:href="#DejaVuSans-31"/>
     </g>
    </g>
   </g>
   <g id="text_18">
    <g id="patch_20">
     <path d="M 203.435749 265.1681 
L 208.46313 269.067695 
Q 210.833604 270.906405 212.672314 268.53593 
L 218.604066 260.888681 
Q 220.442775 258.518207 218.072301 256.679498 
L 213.04492 252.779902 
Q 210.674445 250.941193 208.835736 253.311667 
L 202.903984 260.958916 
Q 201.065275 263.329391 203.435749 265.1681 
z
" clip-path="url(#p00571f8c94)" style="fill: #ffffff; stroke: #ffffff; stroke-linejoin: miter"/>
    </g>
    <g clip-path="url(#p00571f8c94)">
     <!-- 7 -->
     <g transform="translate(206.549105 261.154344) rotate(-322.20029) scale(0.1 -0.1)">
      <use xlink:href="#DejaVuSans-37"/>
     </g>
    </g>
   </g>
   <g id="text_19">
    <g id="patch_21">
     <path d="M 54.579746 429.633603 
L 61.220974 440.488082 
Q 62.786685 443.047095 65.345698 441.481383 
L 73.60118 436.430332 
Q 76.160193 434.86462 74.594481 432.305607 
L 67.953254 421.451128 
Q 66.387542 418.892115 63.828529 420.457827 
L 55.573047 425.508878 
Q 53.014034 427.07459 54.579746 429.633603 
z
" clip-path="url(#p00571f8c94)" style="fill: #ffffff; stroke: #ffffff; stroke-linejoin: miter"/>
    </g>
    <g clip-path="url(#p00571f8c94)">
     <!-- 18 -->
     <g transform="translate(58.912741 426.982494) rotate(-301.46005) scale(0.1 -0.1)">
      <use xlink:href="#DejaVuSans-31"/>
      <use xlink:href="#DejaVuSans-38" x="63.623047"/>
     </g>
    </g>
   </g>
   <g id="text_20">
    <g id="patch_22">
     <path d="M 160.894309 250.804134 
L 162.73893 244.714899 
Q 163.608693 241.843748 160.737541 240.973985 
L 151.475085 238.168095 
Q 148.603933 237.298332 147.734171 240.169484 
L 145.889549 246.258718 
Q 145.019787 249.12987 147.890939 249.999633 
L 157.153394 252.805523 
Q 160.024546 253.675286 160.894309 250.804134 
z
" clip-path="url(#p00571f8c94)" style="fill: #ffffff; stroke: #ffffff; stroke-linejoin: miter"/>
    </g>
    <g clip-path="url(#p00571f8c94)">
     <!-- 1 -->
     <g transform="translate(156.03279 249.331427) rotate(-73.146781) scale(0.1 -0.1)">
      <use xlink:href="#DejaVuSans-31"/>
     </g>
    </g>
   </g>
   <g id="text_21">
    <g id="patch_23">
     <path d="M 247.542938 425.638493 
L 259.687743 421.839898 
Q 262.550959 420.944355 261.655415 418.081139 
L 258.766356 408.844287 
Q 257.870813 405.981072 255.007597 406.876615 
L 242.862792 410.67521 
Q 239.999577 411.570754 240.89512 414.433969 
L 243.784179 423.670821 
Q 244.679722 426.534037 247.542938 425.638493 
z
" clip-path="url(#p00571f8c94)" style="fill: #ffffff; stroke: #ffffff; stroke-linejoin: miter"/>
    </g>
    <g clip-path="url(#p00571f8c94)">
     <!-- 19 -->
     <g transform="translate(246.026578 420.790414) rotate(-17.368395) scale(0.1 -0.1)">
      <use xlink:href="#DejaVuSans-31"/>
      <use xlink:href="#DejaVuSans-39" x="63.623047"/>
     </g>
    </g>
   </g>
   <g id="text_22">
    <g id="patch_24">
     <path d="M 219.666483 440.18889 
L 231.957494 436.893945 
Q 234.855178 436.117141 234.078374 433.219456 
L 231.572371 423.871406 
Q 230.795567 420.973721 227.897882 421.750525 
L 215.606871 425.04547 
Q 212.709187 425.822275 213.485991 428.719959 
L 215.991994 438.06801 
Q 216.768798 440.965694 219.666483 440.18889 
z
" clip-path="url(#p00571f8c94)" style="fill: #ffffff; stroke: #ffffff; stroke-linejoin: miter"/>
    </g>
    <g clip-path="url(#p00571f8c94)">
     <!-- 12 -->
     <g transform="translate(218.351175 435.282446) rotate(-15.006864) scale(0.1 -0.1)">
      <use xlink:href="#DejaVuSans-31"/>
      <use xlink:href="#DejaVuSans-32" x="63.623047"/>
     </g>
    </g>
   </g>
   <g id="text_23">
    <g id="patch_25">
     <path d="M 164.123629 461.986324 
L 176.654999 459.774906 
Q 179.60935 459.25355 179.087994 456.299199 
L 177.406078 446.768341 
Q 176.884722 443.81399 173.930371 444.335346 
L 161.399001 446.546765 
Q 158.44465 447.068121 158.966006 450.022471 
L 160.647922 459.55333 
Q 161.169278 462.50768 164.123629 461.986324 
z
" clip-path="url(#p00571f8c94)" style="fill: #ffffff; stroke: #ffffff; stroke-linejoin: miter"/>
    </g>
    <g clip-path="url(#p00571f8c94)">
     <!-- 17 -->
     <g transform="translate(163.240854 456.983932) rotate(-10.00798) scale(0.1 -0.1)">
      <use xlink:href="#DejaVuSans-31"/>
      <use xlink:href="#DejaVuSans-37" x="63.623047"/>
     </g>
    </g>
   </g>
   <g id="text_24">
    <g id="patch_26">
     <path d="M 62.453353 247.909212 
L 63.529904 235.229833 
Q 63.783708 232.240588 60.794464 231.986784 
L 51.151036 231.168003 
Q 48.161791 230.914199 47.907987 233.903443 
L 46.831436 246.582823 
Q 46.577632 249.572068 49.566877 249.825871 
L 59.210305 250.644653 
Q 62.19955 250.898457 62.453353 247.909212 
z
" clip-path="url(#p00571f8c94)" style="fill: #ffffff; stroke: #ffffff; stroke-linejoin: miter"/>
    </g>
    <g clip-path="url(#p00571f8c94)">
     <!-- 14 -->
     <g transform="translate(57.391877 247.479464) rotate(-85.146904) scale(0.1 -0.1)">
      <use xlink:href="#DejaVuSans-31"/>
      <use xlink:href="#DejaVuSans-34" x="63.623047"/>
     </g>
    </g>
   </g>
   <g id="text_25">
    <g id="patch_27">
     <path d="M 174.316559 269.503833 
L 183.182916 260.37622 
Q 185.273217 258.224327 183.121324 256.134026 
L 176.179227 249.39063 
Q 174.027334 247.300329 171.937033 249.452222 
L 163.070676 258.579836 
Q 160.980375 260.731729 163.132268 262.822029 
L 170.074365 269.565426 
Q 172.226258 271.655726 174.316559 269.503833 
z
" clip-path="url(#p00571f8c94)" style="fill: #ffffff; stroke: #ffffff; stroke-linejoin: miter"/>
    </g>
    <g clip-path="url(#p00571f8c94)">
     <!-- 10 -->
     <g transform="translate(170.672911 265.964475) rotate(-45.831822) scale(0.1 -0.1)">
      <use xlink:href="#DejaVuSans-31"/>
      <use xlink:href="#DejaVuSans-30" x="63.623047"/>
     </g>
    </g>
   </g>
   <g id="text_26">
    <g id="patch_28">
     <path d="M 261.959424 76.53782 
L 270.786826 85.703113 
Q 272.867942 87.863889 275.028719 85.782773 
L 281.999473 79.069005 
Q 284.160249 76.987888 282.079133 74.827112 
L 273.251731 65.661819 
Q 271.170615 63.501043 269.009838 65.582159 
L 262.039084 72.295927 
Q 259.878307 74.377044 261.959424 76.53782 
z
" clip-path="url(#p00571f8c94)" style="fill: #ffffff; stroke: #ffffff; stroke-linejoin: miter"/>
    </g>
    <g clip-path="url(#p00571f8c94)">
     <!-- 13 -->
     <g transform="translate(265.618113 73.014013) rotate(-313.924149) scale(0.1 -0.1)">
      <use xlink:href="#DejaVuSans-31"/>
      <use xlink:href="#DejaVuSans-33" x="63.623047"/>
     </g>
    </g>
   </g>
   <g id="text_27">
    <g id="patch_29">
     <path d="M 142.06377 65.108299 
L 153.80336 60.198345 
Q 156.571044 59.040792 155.413491 56.273108 
L 151.679176 47.344447 
Q 150.521623 44.576763 147.75394 45.734316 
L 136.01435 50.644271 
Q 133.246666 51.801824 134.40422 54.569507 
L 138.138534 63.498169 
Q 139.296087 66.265852 142.06377 65.108299 
z
" clip-path="url(#p00571f8c94)" style="fill: #ffffff; stroke: #ffffff; stroke-linejoin: miter"/>
    </g>
    <g clip-path="url(#p00571f8c94)">
     <!-- 18 -->
     <g transform="translate(140.103768 60.421977) rotate(-22.696583) scale(0.1 -0.1)">
      <use xlink:href="#DejaVuSans-31"/>
      <use xlink:href="#DejaVuSans-38" x="63.623047"/>
     </g>
    </g>
   </g>
   <g id="text_28">
    <g id="patch_30">
     <path d="M 290.911386 141.313115 
L 297.974899 151.897651 
Q 299.640168 154.393023 302.13554 152.727754 
L 310.185713 147.355529 
Q 312.681085 145.69026 311.015817 143.194888 
L 303.952303 132.610353 
Q 302.287035 130.114981 299.791663 131.780249 
L 291.741489 137.152475 
Q 289.246117 138.817743 290.911386 141.313115 
z
" clip-path="url(#p00571f8c94)" style="fill: #ffffff; stroke: #ffffff; stroke-linejoin: miter"/>
    </g>
    <g clip-path="url(#p00571f8c94)">
     <!-- 12 -->
     <g transform="translate(295.136622 138.493434) rotate(-303.716879) scale(0.1 -0.1)">
      <use xlink:href="#DejaVuSans-31"/>
      <use xlink:href="#DejaVuSans-32" x="63.623047"/>
     </g>
    </g>
   </g>
   <g id="text_29">
    <g id="patch_31">
     <path d="M 284.062075 201.294477 
L 286.41676 207.205219 
Q 287.527025 209.992208 290.314015 208.881944 
L 299.30496 205.300185 
Q 302.09195 204.189921 300.981686 201.402931 
L 298.627001 195.49219 
Q 297.516736 192.7052 294.729746 193.815464 
L 285.738801 197.397223 
Q 282.951811 198.507487 284.062075 201.294477 
z
" clip-path="url(#p00571f8c94)" style="fill: #ffffff; stroke: #ffffff; stroke-linejoin: miter"/>
    </g>
    <g clip-path="url(#p00571f8c94)">
     <!-- 9 -->
     <g transform="translate(288.781088 199.414545) rotate(-291.721051) scale(0.1 -0.1)">
      <use xlink:href="#DejaVuSans-39"/>
     </g>
    </g>
   </g>
   <g id="text_30">
    <g id="patch_32">
     <path d="M 310.184457 195.217703 
L 313.325981 200.750535 
Q 314.807249 203.359337 317.41605 201.878068 
L 325.832152 197.099434 
Q 328.440953 195.618166 326.959685 193.009365 
L 323.818161 187.476532 
Q 322.336892 184.867731 319.728091 186.348999 
L 311.31199 191.127633 
Q 308.703189 192.608902 310.184457 195.217703 
z
" clip-path="url(#p00571f8c94)" style="fill: #ffffff; stroke: #ffffff; stroke-linejoin: miter"/>
    </g>
    <g clip-path="url(#p00571f8c94)">
     <!-- 6 -->
     <g transform="translate(314.601755 192.709576) rotate(-299.587763) scale(0.1 -0.1)">
      <use xlink:href="#DejaVuSans-36"/>
     </g>
    </g>
   </g>
   <g id="text_31">
    <g id="patch_33">
     <path d="M 149.654356 440.33555 
L 162.355573 441.113176 
Q 165.349966 441.296506 165.533297 438.302113 
L 166.124727 428.642076 
Q 166.308058 425.647683 163.313664 425.464353 
L 150.612447 424.686727 
Q 147.618054 424.503397 147.434724 427.49779 
L 146.843293 437.157827 
Q 146.659963 440.15222 149.654356 440.33555 
z
" clip-path="url(#p00571f8c94)" style="fill: #ffffff; stroke: #ffffff; stroke-linejoin: miter"/>
    </g>
    <g clip-path="url(#p00571f8c94)">
     <!-- 15 -->
     <g transform="translate(149.964776 435.265357) rotate(-356.496468) scale(0.1 -0.1)">
      <use xlink:href="#DejaVuSans-31"/>
      <use xlink:href="#DejaVuSans-35" x="63.623047"/>
     </g>
    </g>
   </g>
   <g id="text_32">
    <g id="patch_34">
     <path d="M 72.848977 260.63261 
L 72.966447 254.271194 
Q 73.021835 251.271706 70.022346 251.216317 
L 60.345871 251.037633 
Q 57.346382 250.982244 57.290994 253.981733 
L 57.173525 260.343148 
Q 57.118136 263.342637 60.117625 263.398025 
L 69.7941 263.57671 
Q 72.793589 263.632099 72.848977 260.63261 
z
" clip-path="url(#p00571f8c94)" style="fill: #ffffff; stroke: #ffffff; stroke-linejoin: miter"/>
    </g>
    <g clip-path="url(#p00571f8c94)">
     <!-- 2 -->
     <g transform="translate(67.770156 260.538825) rotate(-88.942102) scale(0.1 -0.1)">
      <use xlink:href="#DejaVuSans-32"/>
     </g>
    </g>
   </g>
   <g id="text_33">
    <g id="patch_35">
     <path d="M 291.950923 197.918481 
L 296.135769 209.935664 
Q 297.122373 212.768792 299.9555 211.782188 
L 309.095288 208.599362 
Q 311.928416 207.612758 310.941812 204.77963 
L 306.756966 192.762447 
Q 305.770362 189.929319 302.937235 190.915923 
L 293.797447 194.098749 
Q 290.964319 195.085353 291.950923 197.918481 
z
" clip-path="url(#p00571f8c94)" style="fill: #ffffff; stroke: #ffffff; stroke-linejoin: miter"/>
    </g>
    <g clip-path="url(#p00571f8c94)">
     <!-- 10 -->
     <g transform="translate(296.748057 196.247934) rotate(-289.200084) scale(0.1 -0.1)">
      <use xlink:href="#DejaVuSans-31"/>
      <use xlink:href="#DejaVuSans-30" x="63.623047"/>
     </g>
    </g>
   </g>
   <g id="text_34">
    <g id="patch_36">
     <path d="M 276.078054 57.705932 
L 281.340455 61.282039 
Q 283.821745 62.968219 285.507925 60.48693 
L 290.947612 52.482187 
Q 292.633792 50.000898 290.152502 48.314718 
L 284.890101 44.738611 
Q 282.408812 43.052431 280.722632 45.53372 
L 275.282945 53.538463 
Q 273.596765 56.019752 276.078054 57.705932 
z
" clip-path="url(#p00571f8c94)" style="fill: #ffffff; stroke: #ffffff; stroke-linejoin: miter"/>
    </g>
    <g clip-path="url(#p00571f8c94)">
     <!-- 9 -->
     <g transform="translate(278.933143 53.504541) rotate(-325.801618) scale(0.1 -0.1)">
      <use xlink:href="#DejaVuSans-39"/>
     </g>
    </g>
   </g>
   <g id="text_35">
    <g id="patch_37">
     <path d="M 206.502893 244.009124 
L 210.891909 248.615418 
Q 212.961386 250.787344 215.133312 248.717867 
L 222.140037 242.041648 
Q 224.311964 239.972171 222.242487 237.800244 
L 217.853471 233.19395 
Q 215.783994 231.022024 213.612067 233.091501 
L 206.605342 239.76772 
Q 204.433415 241.837198 206.502893 244.009124 
z
" clip-path="url(#p00571f8c94)" style="fill: #ffffff; stroke: #ffffff; stroke-linejoin: miter"/>
    </g>
    <g clip-path="url(#p00571f8c94)">
     <!-- 6 -->
     <g transform="translate(210.180462 240.505025) rotate(-313.616313) scale(0.1 -0.1)">
      <use xlink:href="#DejaVuSans-36"/>
     </g>
    </g>
   </g>
   <g id="text_36">
    <g id="patch_38">
     <path d="M 181.789585 113.322665 
L 188.074643 114.312337 
Q 191.038128 114.778979 191.504771 111.815494 
L 193.01018 102.255168 
Q 193.476823 99.291682 190.513338 98.82504 
L 184.22828 97.835368 
Q 181.264795 97.368725 180.798152 100.33221 
L 179.292742 109.892537 
Q 178.8261 112.856022 181.789585 113.322665 
z
" clip-path="url(#p00571f8c94)" style="fill: #ffffff; stroke: #ffffff; stroke-linejoin: miter"/>
    </g>
    <g clip-path="url(#p00571f8c94)">
     <!-- 3 -->
     <g transform="translate(182.579718 108.304805) rotate(-351.051442) scale(0.1 -0.1)">
      <use xlink:href="#DejaVuSans-33"/>
     </g>
    </g>
   </g>
   <g id="text_37">
    <g id="patch_39">
     <path d="M 190.94394 115.003224 
L 197.227125 116.004719 
Q 200.189727 116.476936 200.661944 113.514334 
L 202.185337 103.956856 
Q 202.657555 100.994254 199.694953 100.522037 
L 193.411768 99.520543 
Q 190.449166 99.048325 189.976948 102.010927 
L 188.453555 111.568405 
Q 187.981338 114.531007 190.94394 115.003224 
z
" clip-path="url(#p00571f8c94)" style="fill: #ffffff; stroke: #ffffff; stroke-linejoin: miter"/>
    </g>
    <g clip-path="url(#p00571f8c94)">
     <!-- 4 -->
     <g transform="translate(191.743512 109.98686) rotate(-350.943648) scale(0.1 -0.1)">
      <use xlink:href="#DejaVuSans-34"/>
     </g>
    </g>
   </g>
   <g id="text_38">
    <g id="patch_40">
     <path d="M 94.372332 118.205847 
L 99.361551 122.15415 
Q 101.714032 124.015825 103.575707 121.663345 
L 109.581549 114.074144 
Q 111.443224 111.721664 109.090744 109.859988 
L 104.101524 105.911685 
Q 101.749044 104.05001 99.887369 106.402491 
L 93.881526 113.991691 
Q 92.019851 116.344172 94.372332 118.205847 
z
" clip-path="url(#p00571f8c94)" style="fill: #ffffff; stroke: #ffffff; stroke-linejoin: miter"/>
    </g>
    <g clip-path="url(#p00571f8c94)">
     <!-- 9 -->
     <g transform="translate(97.524575 114.222558) rotate(-321.643074) scale(0.1 -0.1)">
      <use xlink:href="#DejaVuSans-39"/>
     </g>
    </g>
   </g>
   <g id="text_39">
    <g id="patch_41">
     <path d="M 246.200325 86.314473 
L 258.907966 86.978925 
Q 261.903873 87.135574 262.060522 84.139666 
L 262.565877 74.474744 
Q 262.722526 71.478837 259.726619 71.322188 
L 247.018978 70.657736 
Q 244.023071 70.501087 243.866422 73.496995 
L 243.361067 83.161917 
Q 243.204418 86.157824 246.200325 86.314473 
z
" clip-path="url(#p00571f8c94)" style="fill: #ffffff; stroke: #ffffff; stroke-linejoin: miter"/>
    </g>
    <g clip-path="url(#p00571f8c94)">
     <!-- 18 -->
     <g transform="translate(246.465568 81.241715) rotate(-357.006868) scale(0.1 -0.1)">
      <use xlink:href="#DejaVuSans-31"/>
      <use xlink:href="#DejaVuSans-38" x="63.623047"/>
     </g>
    </g>
   </g>
   <g id="text_40">
    <g id="patch_42">
     <path d="M 259.890641 232.97348 
L 266.175188 244.038294 
Q 267.65681 246.646894 270.26541 245.165272 
L 278.680864 240.385498 
Q 281.289464 238.903876 279.807842 236.295275 
L 273.523296 225.230462 
Q 272.041674 222.621861 269.433073 224.103483 
L 261.01762 228.883258 
Q 258.409019 230.36488 259.890641 232.97348 
z
" clip-path="url(#p00571f8c94)" style="fill: #ffffff; stroke: #ffffff; stroke-linejoin: miter"/>
    </g>
    <g clip-path="url(#p00571f8c94)">
     <!-- 12 -->
     <g transform="translate(264.3076 230.464755) rotate(-299.595528) scale(0.1 -0.1)">
      <use xlink:href="#DejaVuSans-31"/>
      <use xlink:href="#DejaVuSans-32" x="63.623047"/>
     </g>
    </g>
   </g>
   <g id="text_41">
    <g id="patch_43">
     <path d="M 388.93147 388.006824 
L 394.541349 385.005047 
Q 397.186478 383.589671 395.771102 380.944541 
L 391.205039 372.411243 
Q 389.789663 369.766114 387.144533 371.18149 
L 381.534655 374.183267 
Q 378.889525 375.598644 380.304901 378.243773 
L 384.870964 386.777071 
Q 386.286341 389.4222 388.93147 388.006824 
z
" clip-path="url(#p00571f8c94)" style="fill: #ffffff; stroke: #ffffff; stroke-linejoin: miter"/>
    </g>
    <g clip-path="url(#p00571f8c94)">
     <!-- 5 -->
     <g transform="translate(386.534914 383.528014) rotate(-28.150689) scale(0.1 -0.1)">
      <use xlink:href="#DejaVuSans-35"/>
     </g>
    </g>
   </g>
   <g id="text_42">
    <g id="patch_44">
     <path d="M 329.185227 302.759331 
L 332.319567 315.092276 
Q 333.058507 317.999846 335.966078 317.260906 
L 345.346022 314.877053 
Q 348.253593 314.138112 347.514652 311.230542 
L 344.380312 298.897596 
Q 343.641372 295.990026 340.733801 296.728966 
L 331.353857 299.112819 
Q 328.446287 299.85176 329.185227 302.759331 
z
" clip-path="url(#p00571f8c94)" style="fill: #ffffff; stroke: #ffffff; stroke-linejoin: miter"/>
    </g>
    <g clip-path="url(#p00571f8c94)">
     <!-- 19 -->
     <g transform="translate(334.10841 301.508135) rotate(-284.259473) scale(0.1 -0.1)">
      <use xlink:href="#DejaVuSans-31"/>
      <use xlink:href="#DejaVuSans-39" x="63.623047"/>
     </g>
    </g>
   </g>
   <g id="text_43">
    <g id="patch_45">
     <path d="M 305.587017 132.891428 
L 318.101459 135.19672 
Q 321.051818 135.740207 321.595306 132.789848 
L 323.348618 123.271865 
Q 323.892106 120.321505 320.941746 119.778018 
L 308.427304 117.472726 
Q 305.476945 116.929239 304.933457 119.879598 
L 303.180145 129.397581 
Q 302.636657 132.347941 305.587017 132.891428 
z
" clip-path="url(#p00571f8c94)" style="fill: #ffffff; stroke: #ffffff; stroke-linejoin: miter"/>
    </g>
    <g clip-path="url(#p00571f8c94)">
     <!-- 13 -->
     <g transform="translate(306.507266 127.895793) rotate(-349.562525) scale(0.1 -0.1)">
      <use xlink:href="#DejaVuSans-31"/>
      <use xlink:href="#DejaVuSans-33" x="63.623047"/>
     </g>
    </g>
   </g>
   <g id="text_44">
    <g id="patch_46">
     <path d="M 336.933336 228.821252 
L 337.713661 235.135719 
Q 338.081594 238.113071 341.058946 237.745138 
L 350.664008 236.558171 
Q 353.64136 236.190238 353.273427 233.212886 
L 352.493102 226.898419 
Q 352.125169 223.921067 349.147817 224.289 
L 339.542755 225.475967 
Q 336.565403 225.843899 336.933336 228.821252 
z
" clip-path="url(#p00571f8c94)" style="fill: #ffffff; stroke: #ffffff; stroke-linejoin: miter"/>
    </g>
    <g clip-path="url(#p00571f8c94)">
     <!-- 6 -->
     <g transform="translate(341.974676 228.198257) rotate(-277.044738) scale(0.1 -0.1)">
      <use xlink:href="#DejaVuSans-36"/>
     </g>
    </g>
   </g>
   <g id="text_45">
    <g id="patch_47">
     <path d="M 320.81991 110.187981 
L 323.844041 104.590121 
Q 325.269957 101.950659 322.630495 100.524742 
L 314.115479 95.924676 
Q 311.476017 94.49876 310.0501 97.138222 
L 307.025969 102.736082 
Q 305.600052 105.375545 308.239515 106.801461 
L 316.754531 111.401527 
Q 319.393993 112.827444 320.81991 110.187981 
z
" clip-path="url(#p00571f8c94)" style="fill: #ffffff; stroke: #ffffff; stroke-linejoin: miter"/>
    </g>
    <g clip-path="url(#p00571f8c94)">
     <!-- 4 -->
     <g transform="translate(316.350695 107.773578) rotate(-61.620757) scale(0.1 -0.1)">
      <use xlink:href="#DejaVuSans-34"/>
     </g>
    </g>
   </g>
   <g id="text_46">
    <g id="patch_48">
     <path d="M 341.311923 245.278479 
L 346.654766 248.733249 
Q 349.173984 250.362218 350.802953 247.842999 
L 356.058073 239.715895 
Q 357.687041 237.196677 355.167822 235.567708 
L 349.82498 232.112938 
Q 347.305761 230.48397 345.676793 233.003188 
L 340.421673 241.130292 
Q 338.792705 243.649511 341.311923 245.278479 
z
" clip-path="url(#p00571f8c94)" style="fill: #ffffff; stroke: #ffffff; stroke-linejoin: miter"/>
    </g>
    <g clip-path="url(#p00571f8c94)">
     <!-- 1 -->
     <g transform="translate(344.07014 241.012865) rotate(-327.112623) scale(0.1 -0.1)">
      <use xlink:href="#DejaVuSans-31"/>
     </g>
    </g>
   </g>
   <g id="text_47">
    <g id="patch_49">
     <path d="M 379.1868 324.517345 
L 380.086593 318.218791 
Q 380.510857 315.248943 377.541009 314.824679 
L 367.960154 313.455985 
Q 364.990305 313.031721 364.566041 316.001569 
L 363.666248 322.300123 
Q 363.241984 325.269972 366.211832 325.694236 
L 375.792687 327.062929 
Q 378.762536 327.487193 379.1868 324.517345 
z
" clip-path="url(#p00571f8c94)" style="fill: #ffffff; stroke: #ffffff; stroke-linejoin: miter"/>
    </g>
    <g clip-path="url(#p00571f8c94)">
     <!-- 6 -->
     <g transform="translate(374.158166 323.798968) rotate(-81.869898) scale(0.1 -0.1)">
      <use xlink:href="#DejaVuSans-36"/>
     </g>
    </g>
   </g>
   <g id="text_48">
    <g id="patch_50">
     <path d="M 239.283269 260.774852 
L 248.074434 269.974909 
Q 250.147008 272.143881 252.31598 270.071308 
L 259.313174 263.3851 
Q 261.482146 261.312526 259.409573 259.143554 
L 250.618408 249.943498 
Q 248.545834 247.774526 246.376862 249.847099 
L 239.379668 256.533307 
Q 237.210696 258.60588 239.283269 260.774852 
z
" clip-path="url(#p00571f8c94)" style="fill: #ffffff; stroke: #ffffff; stroke-linejoin: miter"/>
    </g>
    <g clip-path="url(#p00571f8c94)">
     <!-- 14 -->
     <g transform="translate(242.955836 257.265511) rotate(-313.698047) scale(0.1 -0.1)">
      <use xlink:href="#DejaVuSans-31"/>
      <use xlink:href="#DejaVuSans-34" x="63.623047"/>
     </g>
    </g>
   </g>
   <g id="text_49">
    <g id="patch_51">
     <path d="M 216.738635 184.755208 
L 228.39745 189.853997 
Q 231.14609 191.056069 232.348162 188.307428 
L 236.226097 179.440201 
Q 237.428169 176.69156 234.679528 175.489488 
L 223.020713 170.3907 
Q 220.272073 169.188628 219.070001 171.937268 
L 215.192066 180.804496 
Q 213.989994 183.553136 216.738635 184.755208 
z
" clip-path="url(#p00571f8c94)" style="fill: #ffffff; stroke: #ffffff; stroke-linejoin: miter"/>
    </g>
    <g clip-path="url(#p00571f8c94)">
     <!-- 15 -->
     <g transform="translate(218.774018 180.10113) rotate(-336.378638) scale(0.1 -0.1)">
      <use xlink:href="#DejaVuSans-31"/>
      <use xlink:href="#DejaVuSans-35" x="63.623047"/>
     </g>
    </g>
   </g>
   <g id="text_50">
    <g id="patch_52">
     <path d="M 385.450615 381.373861 
L 397.71138 377.968093 
Q 400.601934 377.165161 399.799002 374.274608 
L 397.208711 364.949561 
Q 396.40578 362.059007 393.515226 362.861939 
L 381.254461 366.267707 
Q 378.363907 367.070638 379.166839 369.961192 
L 381.757129 379.286239 
Q 382.560061 382.176793 385.450615 381.373861 
z
" clip-path="url(#p00571f8c94)" style="fill: #ffffff; stroke: #ffffff; stroke-linejoin: miter"/>
    </g>
    <g clip-path="url(#p00571f8c94)">
     <!-- 13 -->
     <g transform="translate(384.091067 376.479491) rotate(-15.524111) scale(0.1 -0.1)">
      <use xlink:href="#DejaVuSans-31"/>
      <use xlink:href="#DejaVuSans-33" x="63.623047"/>
     </g>
    </g>
   </g>
   <g id="text_51">
    <g id="patch_53">
     <path d="M 330.689966 411.541235 
L 342.299893 406.332089 
Q 345.037008 405.103999 343.808918 402.366884 
L 339.84705 393.536839 
Q 338.618961 390.799724 335.881846 392.027814 
L 324.271918 397.23696 
Q 321.534804 398.46505 322.762893 401.202164 
L 326.724761 410.03221 
Q 327.952851 412.769324 330.689966 411.541235 
z
" clip-path="url(#p00571f8c94)" style="fill: #ffffff; stroke: #ffffff; stroke-linejoin: miter"/>
    </g>
    <g clip-path="url(#p00571f8c94)">
     <!-- 11 -->
     <g transform="translate(328.610529 406.906673) rotate(-24.164837) scale(0.1 -0.1)">
      <use xlink:href="#DejaVuSans-31"/>
      <use xlink:href="#DejaVuSans-31" x="63.623047"/>
     </g>
    </g>
   </g>
   <g id="text_52">
    <g id="patch_54">
     <path d="M 350.027489 242.29002 
L 355.382044 253.833606 
Q 356.644414 256.55508 359.365888 255.292709 
L 368.145477 251.22025 
Q 370.866951 249.957879 369.60458 247.236405 
L 364.250026 235.692819 
Q 362.987655 232.971345 360.266181 234.233716 
L 351.486593 238.306176 
Q 348.765119 239.568546 350.027489 242.29002 
z
" clip-path="url(#p00571f8c94)" style="fill: #ffffff; stroke: #ffffff; stroke-linejoin: miter"/>
    </g>
    <g clip-path="url(#p00571f8c94)">
     <!-- 11 -->
     <g transform="translate(354.635568 240.152538) rotate(-294.884484) scale(0.1 -0.1)">
      <use xlink:href="#DejaVuSans-31"/>
      <use xlink:href="#DejaVuSans-31" x="63.623047"/>
     </g>
    </g>
   </g>
   <g id="matplotlib.axis_1">
    <g id="xtick_1">
     <g id="line2d_1">
      <path d="M 10.8 493.2 
L 10.8 10.8 
" clip-path="url(#p00571f8c94)" style="fill: none; stroke: #b0b0b0; stroke-opacity: 0.3; stroke-width: 0.8; stroke-linecap: square"/>
     </g>
    </g>
    <g id="xtick_2">
     <g id="line2d_2">
      <path d="M 59.04 493.2 
L 59.04 10.8 
" clip-path="url(#p00571f8c94)" style="fill: none; stroke: #b0b0b0; stroke-opacity: 0.3; stroke-width: 0.8; stroke-linecap: square"/>
     </g>
    </g>
    <g id="xtick_3">
     <g id="line2d_3">
      <path d="M 107.28 493.2 
L 107.28 10.8 
" clip-path="url(#p00571f8c94)" style="fill: none; stroke: #b0b0b0; stroke-opacity: 0.3; stroke-width: 0.8; stroke-linecap: square"/>
     </g>
    </g>
    <g id="xtick_4">
     <g id="line2d_4">
      <path d="M 155.52 493.2 
L 155.52 10.8 
" clip-path="url(#p00571f8c94)" style="fill: none; stroke: #b0b0b0; stroke-opacity: 0.3; stroke-width: 0.8; stroke-linecap: square"/>
     </g>
    </g>
    <g id="xtick_5">
     <g id="line2d_5">
      <path d="M 203.76 493.2 
L 203.76 10.8 
" clip-path="url(#p00571f8c94)" style="fill: none; stroke: #b0b0b0; stroke-opacity: 0.3; stroke-width: 0.8; stroke-linecap: square"/>
     </g>
    </g>
    <g id="xtick_6">
     <g id="line2d_6">
      <path d="M 252 493.2 
L 252 10.8 
" clip-path="url(#p00571f8c94)" style="fill: none; stroke: #b0b0b0; stroke-opacity: 0.3; stroke-width: 0.8; stroke-linecap: square"/>
     </g>
    </g>
    <g id="xtick_7">
     <g id="line2d_7">
      <path d="M 300.24 493.2 
L 300.24 10.8 
" clip-path="url(#p00571f8c94)" style="fill: none; stroke: #b0b0b0; stroke-opacity: 0.3; stroke-width: 0.8; stroke-linecap: square"/>
     </g>
    </g>
    <g id="xtick_8">
     <g id="line2d_8">
      <path d="M 348.48 493.2 
L 348.48 10.8 
" clip-path="url(#p00571f8c94)" style="fill: none; stroke: #b0b0b0; stroke-opacity: 0.3; stroke-width: 0.8; stroke-linecap: square"/>
     </g>
    </g>
    <g id="xtick_9">
     <g id="line2d_9">
      <path d="M 396.72 493.2 
L 396.72 10.8 
" clip-path="url(#p00571f8c94)" style="fill: none; stroke: #b0b0b0; stroke-opacity: 0.3; stroke-width: 0.8; stroke-linecap: square"/>
     </g>
    </g>
    <g id="xtick_10">
     <g id="line2d_10">
      <path d="M 444.96 493.2 
L 444.96 10.8 
" clip-path="url(#p00571f8c94)" style="fill: none; stroke: #b0b0b0; stroke-opacity: 0.3; stroke-width: 0.8; stroke-linecap: square"/>
     </g>
    </g>
    <g id="xtick_11">
     <g id="line2d_11">
      <path d="M 493.2 493.2 
L 493.2 10.8 
" clip-path="url(#p00571f8c94)" style="fill: none; stroke: #b0b0b0; stroke-opacity: 0.3; stroke-width: 0.8; stroke-linecap: square"/>
     </g>
    </g>
   </g>
   <g id="matplotlib.axis_2">
    <g id="ytick_1">
     <g id="line2d_12">
      <path d="M 10.8 493.2 
L 493.2 493.2 
" clip-path="url(#p00571f8c94)" style="fill: none; stroke: #b0b0b0; stroke-opacity: 0.3; stroke-width: 0.8; stroke-linecap: square"/>
     </g>
    </g>
    <g id="ytick_2">
     <g id="line2d_13">
      <path d="M 10.8 444.96 
L 493.2 444.96 
" clip-path="url(#p00571f8c94)" style="fill: none; stroke: #b0b0b0; stroke-opacity: 0.3; stroke-width: 0.8; stroke-linecap: square"/>
     </g>
    </g>
    <g id="ytick_3">
     <g id="line2d_14">
      <path d="M 10.8 396.72 
L 493.2 396.72 
" clip-path="url(#p00571f8c94)" style="fill: none; stroke: #b0b0b0; stroke-opacity: 0.3; stroke-width: 0.8; stroke-linecap: square"/>
     </g>
    </g>
    <g id="ytick_4">
     <g id="line2d_15">
      <path d="M 10.8 348.48 
L 493.2 348.48 
" clip-path="url(#p00571f8c94)" style="fill: none; stroke: #b0b0b0; stroke-opacity: 0.3; stroke-width: 0.8; stroke-linecap: square"/>
     </g>
    </g>
    <g id="ytick_5">
     <g id="line2d_16">
      <path d="M 10.8 300.24 
L 493.2 300.24 
" clip-path="url(#p00571f8c94)" style="fill: none; stroke: #b0b0b0; stroke-opacity: 0.3; stroke-width: 0.8; stroke-linecap: square"/>
     </g>
    </g>
    <g id="ytick_6">
     <g id="line2d_17">
      <path d="M 10.8 252 
L 493.2 252 
" clip-path="url(#p00571f8c94)" style="fill: none; stroke: #b0b0b0; stroke-opacity: 0.3; stroke-width: 0.8; stroke-linecap: square"/>
     </g>
    </g>
    <g id="ytick_7">
     <g id="line2d_18">
      <path d="M 10.8 203.76 
L 493.2 203.76 
" clip-path="url(#p00571f8c94)" style="fill: none; stroke: #b0b0b0; stroke-opacity: 0.3; stroke-width: 0.8; stroke-linecap: square"/>
     </g>
    </g>
    <g id="ytick_8">
     <g id="line2d_19">
      <path d="M 10.8 155.52 
L 493.2 155.52 
" clip-path="url(#p00571f8c94)" style="fill: none; stroke: #b0b0b0; stroke-opacity: 0.3; stroke-width: 0.8; stroke-linecap: square"/>
     </g>
    </g>
    <g id="ytick_9">
     <g id="line2d_20">
      <path d="M 10.8 107.28 
L 493.2 107.28 
" clip-path="url(#p00571f8c94)" style="fill: none; stroke: #b0b0b0; stroke-opacity: 0.3; stroke-width: 0.8; stroke-linecap: square"/>
     </g>
    </g>
    <g id="ytick_10">
     <g id="line2d_21">
      <path d="M 10.8 59.04 
L 493.2 59.04 
" clip-path="url(#p00571f8c94)" style="fill: none; stroke: #b0b0b0; stroke-opacity: 0.3; stroke-width: 0.8; stroke-linecap: square"/>
     </g>
    </g>
    <g id="ytick_11">
     <g id="line2d_22">
      <path d="M 10.8 10.8 
L 493.2 10.8 
" clip-path="url(#p00571f8c94)" style="fill: none; stroke: #b0b0b0; stroke-opacity: 0.3; stroke-width: 0.8; stroke-linecap: square"/>
     </g>
    </g>
   </g>
   <g id="PathCollection_1">
    <defs>
     <path id="mb1436293fa" d="M 0 8.660254 
C 2.296726 8.660254 4.499694 7.747755 6.123724 6.123724 
C 7.747755 4.499694 8.660254 2.296726 8.660254 0 
C 8.660254 -2.296726 7.747755 -4.499694 6.123724 -6.123724 
C 4.499694 -7.747755 2.296726 -8.660254 0 -8.660254 
C -2.296726 -8.660254 -4.499694 -7.747755 -6.123724 -6.123724 
C -7.747755 -4.499694 -8.660254 -2.296726 -8.660254 0 
C -8.660254 2.296726 -7.747755 4.499694 -6.123724 6.123724 
C -4.499694 7.747755 -2.296726 8.660254 0 8.660254 
z
" style="stroke: #1f78b4"/>
    </defs>
    <g clip-path="url(#p00571f8c94)">
     <use xlink:href="#mb1436293fa" x="431.9352" y="168.0624" style="fill: #1f78b4; stroke: #1f78b4"/>
     <use xlink:href="#mb1436293fa" x="474.8688" y="412.6392" style="fill: #1f78b4; stroke: #1f78b4"/>
     <use xlink:href="#mb1436293fa" x="269.3664" y="155.52" style="fill: #1f78b4; stroke: #1f78b4"/>
     <use xlink:href="#mb1436293fa" x="58.0752" y="142.4952" style="fill: #1f78b4; stroke: #1f78b4"/>
     <use xlink:href="#mb1436293fa" x="87.0192" y="467.6328" style="fill: #1f78b4; stroke: #1f78b4"/>
     <use xlink:href="#mb1436293fa" x="42.156" y="394.308" style="fill: #1f78b4; stroke: #1f78b4"/>
     <use xlink:href="#mb1436293fa" x="221.6088" y="23.3424" style="fill: #1f78b4; stroke: #1f78b4"/>
     <use xlink:href="#mb1436293fa" x="61.9344" y="427.1112" style="fill: #1f78b4; stroke: #1f78b4"/>
     <use xlink:href="#mb1436293fa" x="239.4576" y="23.3424" style="fill: #1f78b4; stroke: #1f78b4"/>
     <use xlink:href="#mb1436293fa" x="68.2056" y="87.5016" style="fill: #1f78b4; stroke: #1f78b4"/>
     <use xlink:href="#mb1436293fa" x="179.1576" y="74.9592" style="fill: #1f78b4; stroke: #1f78b4"/>
     <use xlink:href="#mb1436293fa" x="360.54" y="394.308" style="fill: #1f78b4; stroke: #1f78b4"/>
     <use xlink:href="#mb1436293fa" x="322.4304" y="128.0232" style="fill: #1f78b4; stroke: #1f78b4"/>
     <use xlink:href="#mb1436293fa" x="326.772" y="82.6776" style="fill: #1f78b4; stroke: #1f78b4"/>
     <use xlink:href="#mb1436293fa" x="380.3184" y="261.1656" style="fill: #1f78b4; stroke: #1f78b4"/>
     <use xlink:href="#mb1436293fa" x="135.2592" y="140.5656" style="fill: #1f78b4; stroke: #1f78b4"/>
     <use xlink:href="#mb1436293fa" x="415.5336" y="364.8816" style="fill: #1f78b4; stroke: #1f78b4"/>
     <use xlink:href="#mb1436293fa" x="363.4344" y="379.3536" style="fill: #1f78b4; stroke: #1f78b4"/>
     <use xlink:href="#mb1436293fa" x="304.0992" y="124.6464" style="fill: #1f78b4; stroke: #1f78b4"/>
     <use xlink:href="#mb1436293fa" x="251.0352" y="438.6888" style="fill: #1f78b4; stroke: #1f78b4"/>
     <use xlink:href="#mb1436293fa" x="316.1592" y="219.6792" style="fill: #1f78b4; stroke: #1f78b4"/>
    </g>
   </g>
   <g id="patch_55">
    <path d="M 10.8 493.2 
L 10.8 10.8 
" style="fill: none; stroke: #000000; stroke-width: 0.8; stroke-linejoin: miter; stroke-linecap: square"/>
   </g>
   <g id="patch_56">
    <path d="M 493.2 493.2 
L 493.2 10.8 
" style="fill: none; stroke: #000000; stroke-width: 0.8; stroke-linejoin: miter; stroke-linecap: square"/>
   </g>
   <g id="patch_57">
    <path d="M 10.8 493.2 
L 493.2 493.2 
" style="fill: none; stroke: #000000; stroke-width: 0.8; stroke-linejoin: miter; stroke-linecap: square"/>
   </g>
   <g id="patch_58">
    <path d="M 10.8 10.8 
L 493.2 10.8 
" style="fill: none; stroke: #000000; stroke-width: 0.8; stroke-linejoin: miter; stroke-linecap: square"/>
   </g>
   <g id="text_53">
    <g clip-path="url(#p00571f8c94)">
     <!-- 0 -->
     <g transform="translate(428.1177 171.37365) scale(0.12 -0.12)">
      <use xlink:href="#DejaVuSans-30"/>
     </g>
    </g>
   </g>
   <g id="text_54">
    <g clip-path="url(#p00571f8c94)">
     <!-- 1 -->
     <g transform="translate(471.0513 415.95045) scale(0.12 -0.12)">
      <use xlink:href="#DejaVuSans-31"/>
     </g>
    </g>
   </g>
   <g id="text_55">
    <g clip-path="url(#p00571f8c94)">
     <!-- 2 -->
     <g transform="translate(265.5489 158.83125) scale(0.12 -0.12)">
      <use xlink:href="#DejaVuSans-32"/>
     </g>
    </g>
   </g>
   <g id="text_56">
    <g clip-path="url(#p00571f8c94)">
     <!-- 3 -->
     <g transform="translate(54.2577 145.80645) scale(0.12 -0.12)">
      <use xlink:href="#DejaVuSans-33"/>
     </g>
    </g>
   </g>
   <g id="text_57">
    <g clip-path="url(#p00571f8c94)">
     <!-- 4 -->
     <g transform="translate(83.2017 470.94405) scale(0.12 -0.12)">
      <use xlink:href="#DejaVuSans-34"/>
     </g>
    </g>
   </g>
   <g id="text_58">
    <g clip-path="url(#p00571f8c94)">
     <!-- 5 -->
     <g transform="translate(38.3385 397.61925) scale(0.12 -0.12)">
      <use xlink:href="#DejaVuSans-35"/>
     </g>
    </g>
   </g>
   <g id="text_59">
    <g clip-path="url(#p00571f8c94)">
     <!-- 6 -->
     <g transform="translate(217.7913 26.65365) scale(0.12 -0.12)">
      <use xlink:href="#DejaVuSans-36"/>
     </g>
    </g>
   </g>
   <g id="text_60">
    <g clip-path="url(#p00571f8c94)">
     <!-- 7 -->
     <g transform="translate(58.1169 430.42245) scale(0.12 -0.12)">
      <use xlink:href="#DejaVuSans-37"/>
     </g>
    </g>
   </g>
   <g id="text_61">
    <g clip-path="url(#p00571f8c94)">
     <!-- 8 -->
     <g transform="translate(235.6401 26.65365) scale(0.12 -0.12)">
      <use xlink:href="#DejaVuSans-38"/>
     </g>
    </g>
   </g>
   <g id="text_62">
    <g clip-path="url(#p00571f8c94)">
     <!-- 9 -->
     <g transform="translate(64.3881 90.81285) scale(0.12 -0.12)">
      <use xlink:href="#DejaVuSans-39"/>
     </g>
    </g>
   </g>
   <g id="text_63">
    <g clip-path="url(#p00571f8c94)">
     <!-- 10 -->
     <g transform="translate(171.5226 78.27045) scale(0.12 -0.12)">
      <use xlink:href="#DejaVuSans-31"/>
      <use xlink:href="#DejaVuSans-30" x="63.623047"/>
     </g>
    </g>
   </g>
   <g id="text_64">
    <g clip-path="url(#p00571f8c94)">
     <!-- 11 -->
     <g transform="translate(352.905 397.61925) scale(0.12 -0.12)">
      <use xlink:href="#DejaVuSans-31"/>
      <use xlink:href="#DejaVuSans-31" x="63.623047"/>
     </g>
    </g>
   </g>
   <g id="text_65">
    <g clip-path="url(#p00571f8c94)">
     <!-- 12 -->
     <g transform="translate(314.7954 131.33445) scale(0.12 -0.12)">
      <use xlink:href="#DejaVuSans-31"/>
      <use xlink:href="#DejaVuSans-32" x="63.623047"/>
     </g>
    </g>
   </g>
   <g id="text_66">
    <g clip-path="url(#p00571f8c94)">
     <!-- 13 -->
     <g transform="translate(319.137 85.98885) scale(0.12 -0.12)">
      <use xlink:href="#DejaVuSans-31"/>
      <use xlink:href="#DejaVuSans-33" x="63.623047"/>
     </g>
    </g>
   </g>
   <g id="text_67">
    <g clip-path="url(#p00571f8c94)">
     <!-- 14 -->
     <g transform="translate(372.6834 264.47685) scale(0.12 -0.12)">
      <use xlink:href="#DejaVuSans-31"/>
      <use xlink:href="#DejaVuSans-34" x="63.623047"/>
     </g>
    </g>
   </g>
   <g id="text_68">
    <g clip-path="url(#p00571f8c94)">
     <!-- 15 -->
     <g transform="translate(127.6242 143.87685) scale(0.12 -0.12)">
      <use xlink:href="#DejaVuSans-31"/>
      <use xlink:href="#DejaVuSans-35" x="63.623047"/>
     </g>
    </g>
   </g>
   <g id="text_69">
    <g clip-path="url(#p00571f8c94)">
     <!-- 16 -->
     <g transform="translate(407.8986 368.19285) scale(0.12 -0.12)">
      <use xlink:href="#DejaVuSans-31"/>
      <use xlink:href="#DejaVuSans-36" x="63.623047"/>
     </g>
    </g>
   </g>
   <g id="text_70">
    <g clip-path="url(#p00571f8c94)">
     <!-- 17 -->
     <g transform="translate(355.7994 382.66485) scale(0.12 -0.12)">
      <use xlink:href="#DejaVuSans-31"/>
      <use xlink:href="#DejaVuSans-37" x="63.623047"/>
     </g>
    </g>
   </g>
   <g id="text_71">
    <g clip-path="url(#p00571f8c94)">
     <!-- 18 -->
     <g transform="translate(296.4642 127.95765) scale(0.12 -0.12)">
      <use xlink:href="#DejaVuSans-31"/>
      <use xlink:href="#DejaVuSans-38" x="63.623047"/>
     </g>
    </g>
   </g>
   <g id="text_72">
    <g clip-path="url(#p00571f8c94)">
     <!-- 19 -->
     <g transform="translate(243.4002 442.00005) scale(0.12 -0.12)">
      <use xlink:href="#DejaVuSans-31"/>
      <use xlink:href="#DejaVuSans-39" x="63.623047"/>
     </g>
    </g>
   </g>
   <g id="text_73">
    <g clip-path="url(#p00571f8c94)">
     <!-- 20 -->
     <g transform="translate(308.5242 222.99045) scale(0.12 -0.12)">
      <use xlink:href="#DejaVuSans-32"/>
      <use xlink:href="#DejaVuSans-30" x="63.623047"/>
     </g>
    </g>
   </g>
  </g>
 </g>
 <defs>
  <clipPath id="p00571f8c94">
   <rect x="10.8" y="10.8" width="482.4" height="482.4"/>
  </clipPath>
 </defs>
</svg>
