<?xml version="1.0" encoding="utf-8" standalone="no"?>
<!DOCTYPE svg PUBLIC "-//W3C//DTD SVG 1.1//EN"
  "http://www.w3.org/Graphics/SVG/1.1/DTD/svg11.dtd">
<svg xmlns:xlink="http://www.w3.org/1999/xlink" width="504pt" height="504pt" viewBox="0 0 504 504" xmlns="http://www.w3.org/2000/svg" version="1.1">
 <metadata>
  <rdf:RDF xmlns:dc="http://purl.org/dc/elements/1.1/" xmlns:cc="http://creativecommons.org/ns#" xmlns:rdf="http://www.w3.org/1999/02/22-rdf-syntax-ns#">
   <cc:Work>
    <dc:type rdf:resource="http://purl.org/dc/dcmitype/StillImage"/>
    <dc:date>2024-10-29T14:59:43.246044</dc:date>
    <dc:format>image/svg+xml</dc:format>
    <dc:creator>
     <cc:Agent>
      <dc:title>Matplotlib v3.9.2, https://matplotlib.org/</dc:title>
     </cc:Agent>
    </dc:creator>
   </cc:Work>
  </rdf:RDF>
 </metadata>
 <defs>
  <style type="text/css">*{stroke-linejoin: round; stroke-linecap: butt}</style>
 </defs>
 <g id="figure_1">
  <g id="patch_1">
   <path d="M 0 504 
L 504 504 
L 504 0 
L 0 0 
L 0 504 
z
" style="fill: none; opacity: 0"/>
  </g>
  <g id="axes_1">
   <g id="patch_2">
    <path d="M 10.8 493.2 
L 493.2 493.2 
L 493.2 10.8 
L 10.8 10.8 
L 10.8 493.2 
z
" style="fill: none; opacity: 0"/>
   </g>
   <g id="LineCollection_1">
    <path d="M 239.4576 23.3424 
L 376.4592 172.404 
" clip-path="url(#p38d50764e1)" style="fill: none; stroke: #000000"/>
    <path d="M 239.4576 23.3424 
L 177.228 111.6216 
" clip-path="url(#p38d50764e1)" style="fill: none; stroke: #000000"/>
    <path d="M 239.4576 23.3424 
L 82.1952 105.8328 
" clip-path="url(#p38d50764e1)" style="fill: none; stroke: #000000"/>
    <path d="M 239.4576 23.3424 
L 442.548 431.4528 
" clip-path="url(#p38d50764e1)" style="fill: none; stroke: #000000"/>
    <path d="M 239.4576 23.3424 
L 360.54 394.308 
" clip-path="url(#p38d50764e1)" style="fill: none; stroke: #000000"/>
    <path d="M 239.4576 23.3424 
L 415.5336 364.8816 
" clip-path="url(#p38d50764e1)" style="fill: none; stroke: #000000"/>
    <path d="M 68.2056 87.5016 
L 251.0352 438.6888 
" clip-path="url(#p38d50764e1)" style="fill: none; stroke: #000000"/>
    <path d="M 68.2056 87.5016 
L 82.1952 105.8328 
" clip-path="url(#p38d50764e1)" style="fill: none; stroke: #000000"/>
    <path d="M 68.2056 87.5016 
L 452.6784 189.7704 
" clip-path="url(#p38d50764e1)" style="fill: none; stroke: #000000"/>
    <path d="M 68.2056 87.5016 
L 316.1592 219.6792 
" clip-path="url(#p38d50764e1)" style="fill: none; stroke: #000000"/>
    <path d="M 68.2056 87.5016 
L 322.4304 128.0232 
" clip-path="url(#p38d50764e1)" style="fill: none; stroke: #000000"/>
    <path d="M 179.1576 74.9592 
L 177.228 111.6216 
" clip-path="url(#p38d50764e1)" style="fill: none; stroke: #000000"/>
    <path d="M 179.1576 74.9592 
L 363.4344 379.3536 
" clip-path="url(#p38d50764e1)" style="fill: none; stroke: #000000"/>
    <path d="M 179.1576 74.9592 
L 415.5336 364.8816 
" clip-path="url(#p38d50764e1)" style="fill: none; stroke: #000000"/>
    <path d="M 360.54 394.308 
L 363.4344 379.3536 
" clip-path="url(#p38d50764e1)" style="fill: none; stroke: #000000"/>
    <path d="M 360.54 394.308 
L 85.572 183.4992 
" clip-path="url(#p38d50764e1)" style="fill: none; stroke: #000000"/>
    <path d="M 360.54 394.308 
L 380.3184 261.1656 
" clip-path="url(#p38d50764e1)" style="fill: none; stroke: #000000"/>
    <path d="M 360.54 394.308 
L 228.8448 353.304 
" clip-path="url(#p38d50764e1)" style="fill: none; stroke: #000000"/>
    <path d="M 360.54 394.308 
L 135.2592 140.5656 
" clip-path="url(#p38d50764e1)" style="fill: none; stroke: #000000"/>
    <path d="M 322.4304 128.0232 
L 82.1952 105.8328 
" clip-path="url(#p38d50764e1)" style="fill: none; stroke: #000000"/>
    <path d="M 322.4304 128.0232 
L 380.3184 261.1656 
" clip-path="url(#p38d50764e1)" style="fill: none; stroke: #000000"/>
    <path d="M 322.4304 128.0232 
L 251.0352 438.6888 
" clip-path="url(#p38d50764e1)" style="fill: none; stroke: #000000"/>
    <path d="M 322.4304 128.0232 
L 376.4592 172.404 
" clip-path="url(#p38d50764e1)" style="fill: none; stroke: #000000"/>
    <path d="M 326.772 82.6776 
L 380.3184 261.1656 
" clip-path="url(#p38d50764e1)" style="fill: none; stroke: #000000"/>
    <path d="M 326.772 82.6776 
L 316.1592 219.6792 
" clip-path="url(#p38d50764e1)" style="fill: none; stroke: #000000"/>
    <path d="M 326.772 82.6776 
L 228.8448 353.304 
" clip-path="url(#p38d50764e1)" style="fill: none; stroke: #000000"/>
    <path d="M 326.772 82.6776 
L 455.5728 136.7064 
" clip-path="url(#p38d50764e1)" style="fill: none; stroke: #000000"/>
    <path d="M 380.3184 261.1656 
L 304.0992 124.6464 
" clip-path="url(#p38d50764e1)" style="fill: none; stroke: #000000"/>
    <path d="M 380.3184 261.1656 
L 85.572 183.4992 
" clip-path="url(#p38d50764e1)" style="fill: none; stroke: #000000"/>
    <path d="M 380.3184 261.1656 
L 251.0352 438.6888 
" clip-path="url(#p38d50764e1)" style="fill: none; stroke: #000000"/>
    <path d="M 380.3184 261.1656 
L 177.228 111.6216 
" clip-path="url(#p38d50764e1)" style="fill: none; stroke: #000000"/>
    <path d="M 135.2592 140.5656 
L 442.548 431.4528 
" clip-path="url(#p38d50764e1)" style="fill: none; stroke: #000000"/>
    <path d="M 135.2592 140.5656 
L 363.4344 379.3536 
" clip-path="url(#p38d50764e1)" style="fill: none; stroke: #000000"/>
    <path d="M 415.5336 364.8816 
L 228.8448 353.304 
" clip-path="url(#p38d50764e1)" style="fill: none; stroke: #000000"/>
    <path d="M 415.5336 364.8816 
L 455.5728 136.7064 
" clip-path="url(#p38d50764e1)" style="fill: none; stroke: #000000"/>
    <path d="M 415.5336 364.8816 
L 304.0992 124.6464 
" clip-path="url(#p38d50764e1)" style="fill: none; stroke: #000000"/>
    <path d="M 363.4344 379.3536 
L 177.228 111.6216 
" clip-path="url(#p38d50764e1)" style="fill: none; stroke: #000000"/>
    <path d="M 363.4344 379.3536 
L 452.6784 189.7704 
" clip-path="url(#p38d50764e1)" style="fill: none; stroke: #000000"/>
    <path d="M 363.4344 379.3536 
L 85.572 183.4992 
" clip-path="url(#p38d50764e1)" style="fill: none; stroke: #000000"/>
    <path d="M 304.0992 124.6464 
L 251.0352 438.6888 
" clip-path="url(#p38d50764e1)" style="fill: none; stroke: #000000"/>
    <path d="M 251.0352 438.6888 
L 442.548 431.4528 
" clip-path="url(#p38d50764e1)" style="fill: none; stroke: #000000"/>
    <path d="M 251.0352 438.6888 
L 85.572 183.4992 
" clip-path="url(#p38d50764e1)" style="fill: none; stroke: #000000"/>
    <path d="M 251.0352 438.6888 
L 316.1592 219.6792 
" clip-path="url(#p38d50764e1)" style="fill: none; stroke: #000000"/>
    <path d="M 251.0352 438.6888 
L 177.228 111.6216 
" clip-path="url(#p38d50764e1)" style="fill: none; stroke: #000000"/>
    <path d="M 316.1592 219.6792 
L 62.4168 436.7592 
" clip-path="url(#p38d50764e1)" style="fill: none; stroke: #000000"/>
    <path d="M 316.1592 219.6792 
L 455.5728 136.7064 
" clip-path="url(#p38d50764e1)" style="fill: none; stroke: #000000"/>
    <path d="M 85.572 183.4992 
L 62.4168 436.7592 
" clip-path="url(#p38d50764e1)" style="fill: none; stroke: #000000"/>
    <path d="M 85.572 183.4992 
L 177.228 111.6216 
" clip-path="url(#p38d50764e1)" style="fill: none; stroke: #000000"/>
    <path d="M 82.1952 105.8328 
L 228.8448 353.304 
" clip-path="url(#p38d50764e1)" style="fill: none; stroke: #000000"/>
    <path d="M 442.548 431.4528 
L 62.4168 436.7592 
" clip-path="url(#p38d50764e1)" style="fill: none; stroke: #000000"/>
    <path d="M 442.548 431.4528 
L 228.8448 353.304 
" clip-path="url(#p38d50764e1)" style="fill: none; stroke: #000000"/>
    <path d="M 452.6784 189.7704 
L 62.4168 436.7592 
" clip-path="url(#p38d50764e1)" style="fill: none; stroke: #000000"/>
    <path d="M 452.6784 189.7704 
L 455.5728 136.7064 
" clip-path="url(#p38d50764e1)" style="fill: none; stroke: #000000"/>
    <path d="M 228.8448 353.304 
L 376.4592 172.404 
" clip-path="url(#p38d50764e1)" style="fill: none; stroke: #000000"/>
    <path d="M 228.8448 353.304 
L 455.5728 136.7064 
" clip-path="url(#p38d50764e1)" style="fill: none; stroke: #000000"/>
    <path d="M 455.5728 136.7064 
L 62.4168 436.7592 
" clip-path="url(#p38d50764e1)" style="fill: none; stroke: #000000"/>
    <path d="M 177.228 111.6216 
L 62.4168 436.7592 
" clip-path="url(#p38d50764e1)" style="fill: none; stroke: #000000"/>
   </g>
   <g id="text_1">
    <g id="patch_3">
     <path d="M 300.033291 100.834792 
L 304.338764 105.519268 
Q 306.368849 107.728058 308.577639 105.697973 
L 315.703288 99.148833 
Q 317.912078 97.118747 315.881992 94.909957 
L 311.57652 90.225482 
Q 309.546434 88.016692 307.337644 90.046777 
L 300.211996 96.595917 
Q 298.003206 98.626002 300.033291 100.834792 
z
" clip-path="url(#p38d50764e1)" style="fill: #ffffff; stroke: #ffffff; stroke-linejoin: miter"/>
    </g>
    <g clip-path="url(#p38d50764e1)">
     <!-- 7 -->
     <g transform="translate(303.773279 97.397393) rotate(-312.585924) scale(0.1 -0.1)">
      <defs>
       <path id="DejaVuSans-37" d="M 525 4666 
L 3525 4666 
L 3525 4397 
L 1831 0 
L 1172 0 
L 2766 4134 
L 525 4134 
L 525 4666 
z
" transform="scale(0.015625)"/>
      </defs>
      <use xlink:href="#DejaVuSans-37"/>
     </g>
    </g>
   </g>
   <g id="text_2">
    <g id="patch_4">
     <path d="M 211.08508 77.197564 
L 218.416678 66.796925 
Q 220.145149 64.344908 217.693132 62.616436 
L 209.782822 57.040317 
Q 207.330805 55.311846 205.602334 57.763863 
L 198.270736 68.164502 
Q 196.542265 70.616519 198.994282 72.34499 
L 206.904592 77.92111 
Q 209.356609 79.649581 211.08508 77.197564 
z
" clip-path="url(#p38d50764e1)" style="fill: #ffffff; stroke: #ffffff; stroke-linejoin: miter"/>
    </g>
    <g clip-path="url(#p38d50764e1)">
     <!-- 12 -->
     <g transform="translate(206.933253 74.270866) rotate(-54.819301) scale(0.1 -0.1)">
      <defs>
       <path id="DejaVuSans-31" d="M 794 531 
L 1825 531 
L 1825 4091 
L 703 3866 
L 703 4441 
L 1819 4666 
L 2450 4666 
L 2450 531 
L 3481 531 
L 3481 0 
L 794 0 
L 794 531 
z
" transform="scale(0.015625)"/>
       <path id="DejaVuSans-32" d="M 1228 531 
L 3431 531 
L 3431 0 
L 469 0 
L 469 531 
Q 828 903 1448 1529 
Q 2069 2156 2228 2338 
Q 2531 2678 2651 2914 
Q 2772 3150 2772 3378 
Q 2772 3750 2511 3984 
Q 2250 4219 1831 4219 
Q 1534 4219 1204 4116 
Q 875 4013 500 3803 
L 500 4441 
Q 881 4594 1212 4672 
Q 1544 4750 1819 4750 
Q 2544 4750 2975 4387 
Q 3406 4025 3406 3419 
Q 3406 3131 3298 2873 
Q 3191 2616 2906 2266 
Q 2828 2175 2409 1742 
Q 1991 1309 1228 531 
z
" transform="scale(0.015625)"/>
      </defs>
      <use xlink:href="#DejaVuSans-31"/>
      <use xlink:href="#DejaVuSans-32" x="63.623047"/>
     </g>
    </g>
   </g>
   <g id="text_3">
    <g id="patch_5">
     <path d="M 158.833638 74.484924 
L 170.10246 68.573978 
Q 172.759156 67.180435 171.365613 64.523738 
L 166.869984 55.953124 
Q 165.476441 53.296427 162.819744 54.689971 
L 151.550923 60.600917 
Q 148.894226 61.99446 150.287769 64.651157 
L 154.783398 73.221771 
Q 156.176941 75.878467 158.833638 74.484924 
z
" clip-path="url(#p38d50764e1)" style="fill: #ffffff; stroke: #ffffff; stroke-linejoin: miter"/>
    </g>
    <g clip-path="url(#p38d50764e1)">
     <!-- 20 -->
     <g transform="translate(156.47405 69.986528) rotate(-27.678802) scale(0.1 -0.1)">
      <defs>
       <path id="DejaVuSans-30" d="M 2034 4250 
Q 1547 4250 1301 3770 
Q 1056 3291 1056 2328 
Q 1056 1369 1301 889 
Q 1547 409 2034 409 
Q 2525 409 2770 889 
Q 3016 1369 3016 2328 
Q 3016 3291 2770 3770 
Q 2525 4250 2034 4250 
z
M 2034 4750 
Q 2819 4750 3233 4129 
Q 3647 3509 3647 2328 
Q 3647 1150 3233 529 
Q 2819 -91 2034 -91 
Q 1250 -91 836 529 
Q 422 1150 422 2328 
Q 422 3509 836 4129 
Q 1250 4750 2034 4750 
z
" transform="scale(0.015625)"/>
      </defs>
      <use xlink:href="#DejaVuSans-32"/>
      <use xlink:href="#DejaVuSans-30" x="63.623047"/>
     </g>
    </g>
   </g>
   <g id="text_4">
    <g id="patch_6">
     <path d="M 331.150283 225.194281 
L 336.81952 236.58662 
Q 338.156079 239.272436 340.841895 237.935877 
L 349.506452 233.624083 
Q 352.192268 232.287524 350.855709 229.601707 
L 345.186472 218.209369 
Q 343.849913 215.523552 341.164097 216.860111 
L 332.499541 221.171906 
Q 329.813724 222.508465 331.150283 225.194281 
z
" clip-path="url(#p38d50764e1)" style="fill: #ffffff; stroke: #ffffff; stroke-linejoin: miter"/>
    </g>
    <g clip-path="url(#p38d50764e1)">
     <!-- 13 -->
     <g transform="translate(335.697986 222.931181) rotate(-296.456588) scale(0.1 -0.1)">
      <defs>
       <path id="DejaVuSans-33" d="M 2597 2516 
Q 3050 2419 3304 2112 
Q 3559 1806 3559 1356 
Q 3559 666 3084 287 
Q 2609 -91 1734 -91 
Q 1441 -91 1130 -33 
Q 819 25 488 141 
L 488 750 
Q 750 597 1062 519 
Q 1375 441 1716 441 
Q 2309 441 2620 675 
Q 2931 909 2931 1356 
Q 2931 1769 2642 2001 
Q 2353 2234 1838 2234 
L 1294 2234 
L 1294 2753 
L 1863 2753 
Q 2328 2753 2575 2939 
Q 2822 3125 2822 3475 
Q 2822 3834 2567 4026 
Q 2313 4219 1838 4219 
Q 1578 4219 1281 4162 
Q 984 4106 628 3988 
L 628 4550 
Q 988 4650 1302 4700 
Q 1616 4750 1894 4750 
Q 2613 4750 3031 4423 
Q 3450 4097 3450 3541 
Q 3450 3153 3228 2886 
Q 3006 2619 2597 2516 
z
" transform="scale(0.015625)"/>
      </defs>
      <use xlink:href="#DejaVuSans-31"/>
      <use xlink:href="#DejaVuSans-33" x="63.623047"/>
     </g>
    </g>
   </g>
   <g id="text_5">
    <g id="patch_7">
     <path d="M 291.559562 208.233371 
L 293.533768 214.281835 
Q 294.464632 217.133763 297.31656 216.2029 
L 306.516998 213.199896 
Q 309.368926 212.269033 308.438063 209.417105 
L 306.463857 203.368641 
Q 305.532993 200.516713 302.681065 201.447576 
L 293.480627 204.45058 
Q 290.628699 205.381443 291.559562 208.233371 
z
" clip-path="url(#p38d50764e1)" style="fill: #ffffff; stroke: #ffffff; stroke-linejoin: miter"/>
    </g>
    <g clip-path="url(#p38d50764e1)">
     <!-- 6 -->
     <g transform="translate(296.38853 206.657206) rotate(-288.076575) scale(0.1 -0.1)">
      <defs>
       <path id="DejaVuSans-36" d="M 2113 2584 
Q 1688 2584 1439 2293 
Q 1191 2003 1191 1497 
Q 1191 994 1439 701 
Q 1688 409 2113 409 
Q 2538 409 2786 701 
Q 3034 994 3034 1497 
Q 3034 2003 2786 2293 
Q 2538 2584 2113 2584 
z
M 3366 4563 
L 3366 3988 
Q 3128 4100 2886 4159 
Q 2644 4219 2406 4219 
Q 1781 4219 1451 3797 
Q 1122 3375 1075 2522 
Q 1259 2794 1537 2939 
Q 1816 3084 2150 3084 
Q 2853 3084 3261 2657 
Q 3669 2231 3669 1497 
Q 3669 778 3244 343 
Q 2819 -91 2113 -91 
Q 1303 -91 875 529 
Q 447 1150 447 2328 
Q 447 3434 972 4092 
Q 1497 4750 2381 4750 
Q 2619 4750 2861 4703 
Q 3103 4656 3366 4563 
z
" transform="scale(0.015625)"/>
      </defs>
      <use xlink:href="#DejaVuSans-36"/>
     </g>
    </g>
   </g>
   <g id="text_6">
    <g id="patch_8">
     <path d="M 317.612599 192.049057 
L 323.443539 203.359484 
Q 324.81822 206.02599 327.484726 204.651308 
L 336.086983 200.216529 
Q 338.753489 198.841847 337.378807 196.175342 
L 331.547867 184.864915 
Q 330.173185 182.198409 327.50668 183.573091 
L 318.904422 188.00787 
Q 316.237917 189.382552 317.612599 192.049057 
z
" clip-path="url(#p38d50764e1)" style="fill: #ffffff; stroke: #ffffff; stroke-linejoin: miter"/>
    </g>
    <g clip-path="url(#p38d50764e1)">
     <!-- 15 -->
     <g transform="translate(322.127603 189.721407) rotate(-297.272768) scale(0.1 -0.1)">
      <defs>
       <path id="DejaVuSans-35" d="M 691 4666 
L 3169 4666 
L 3169 4134 
L 1269 4134 
L 1269 2991 
Q 1406 3038 1543 3061 
Q 1681 3084 1819 3084 
Q 2600 3084 3056 2656 
Q 3513 2228 3513 1497 
Q 3513 744 3044 326 
Q 2575 -91 1722 -91 
Q 1428 -91 1123 -41 
Q 819 9 494 109 
L 494 744 
Q 775 591 1075 516 
Q 1375 441 1709 441 
Q 2250 441 2565 725 
Q 2881 1009 2881 1497 
Q 2881 1984 2565 2268 
Q 2250 2553 1709 2553 
Q 1456 2553 1204 2497 
Q 953 2441 691 2322 
L 691 4666 
z
" transform="scale(0.015625)"/>
      </defs>
      <use xlink:href="#DejaVuSans-31"/>
      <use xlink:href="#DejaVuSans-35" x="63.623047"/>
     </g>
    </g>
   </g>
   <g id="text_7">
    <g id="patch_9">
     <path d="M 149.729209 261.071709 
L 155.605292 272.35875 
Q 156.990616 275.019741 159.651608 273.634417 
L 168.236078 269.165304 
Q 170.89707 267.77998 169.511746 265.118988 
L 163.635663 253.831948 
Q 162.250339 251.170956 159.589347 252.55628 
L 151.004877 257.025394 
Q 148.343885 258.410718 149.729209 261.071709 
z
" clip-path="url(#p38d50764e1)" style="fill: #ffffff; stroke: #ffffff; stroke-linejoin: miter"/>
    </g>
    <g clip-path="url(#p38d50764e1)">
     <!-- 19 -->
     <g transform="translate(154.234878 258.726038) rotate(-297.501683) scale(0.1 -0.1)">
      <defs>
       <path id="DejaVuSans-39" d="M 703 97 
L 703 672 
Q 941 559 1184 500 
Q 1428 441 1663 441 
Q 2288 441 2617 861 
Q 2947 1281 2994 2138 
Q 2813 1869 2534 1725 
Q 2256 1581 1919 1581 
Q 1219 1581 811 2004 
Q 403 2428 403 3163 
Q 403 3881 828 4315 
Q 1253 4750 1959 4750 
Q 2769 4750 3195 4129 
Q 3622 3509 3622 2328 
Q 3622 1225 3098 567 
Q 2575 -91 1691 -91 
Q 1453 -91 1209 -44 
Q 966 3 703 97 
z
M 1959 2075 
Q 2384 2075 2632 2365 
Q 2881 2656 2881 3163 
Q 2881 3666 2632 3958 
Q 2384 4250 1959 4250 
Q 1534 4250 1286 3958 
Q 1038 3666 1038 3163 
Q 1038 2656 1286 2365 
Q 1534 2075 1959 2075 
z
" transform="scale(0.015625)"/>
      </defs>
      <use xlink:href="#DejaVuSans-31"/>
      <use xlink:href="#DejaVuSans-39" x="63.623047"/>
     </g>
    </g>
   </g>
   <g id="text_8">
    <g id="patch_10">
     <path d="M 65.109841 96.366479 
L 72.829759 106.482233 
Q 74.649779 108.867087 77.034633 107.047067 
L 84.728271 101.175607 
Q 87.113124 99.355587 85.293104 96.970733 
L 77.573186 86.854979 
Q 75.753167 84.470125 73.368313 86.290145 
L 65.674675 92.161605 
Q 63.289821 93.981625 65.109841 96.366479 
z
" clip-path="url(#p38d50764e1)" style="fill: #ffffff; stroke: #ffffff; stroke-linejoin: miter"/>
    </g>
    <g clip-path="url(#p38d50764e1)">
     <!-- 12 -->
     <g transform="translate(69.147945 93.284768) rotate(-307.349349) scale(0.1 -0.1)">
      <use xlink:href="#DejaVuSans-31"/>
      <use xlink:href="#DejaVuSans-32" x="63.623047"/>
     </g>
    </g>
   </g>
   <g id="text_9">
    <g id="patch_11">
     <path d="M 252.277464 144.575902 
L 264.57485 147.846976 
Q 267.474037 148.618152 268.245213 145.718965 
L 270.733061 136.366066 
Q 271.504238 133.466879 268.60505 132.695703 
L 256.307664 129.424629 
Q 253.408477 128.653452 252.637301 131.552639 
L 250.149453 140.905538 
Q 249.378276 143.804726 252.277464 144.575902 
z
" clip-path="url(#p38d50764e1)" style="fill: #ffffff; stroke: #ffffff; stroke-linejoin: miter"/>
    </g>
    <g clip-path="url(#p38d50764e1)">
     <!-- 12 -->
     <g transform="translate(253.583242 139.666914) rotate(-345.104384) scale(0.1 -0.1)">
      <use xlink:href="#DejaVuSans-31"/>
      <use xlink:href="#DejaVuSans-32" x="63.623047"/>
     </g>
    </g>
   </g>
   <g id="text_10">
    <g id="patch_12">
     <path d="M 182.87691 157.5132 
L 194.10606 163.499167 
Q 196.753404 164.910397 198.164634 162.263053 
L 202.717321 153.722612 
Q 204.128551 151.075268 201.481207 149.664038 
L 190.252057 143.67807 
Q 187.604713 142.26684 186.193483 144.914184 
L 181.640796 153.454626 
Q 180.229566 156.10197 182.87691 157.5132 
z
" clip-path="url(#p38d50764e1)" style="fill: #ffffff; stroke: #ffffff; stroke-linejoin: miter"/>
    </g>
    <g clip-path="url(#p38d50764e1)">
     <!-- 12 -->
     <g transform="translate(185.266446 153.03064) rotate(-331.939086) scale(0.1 -0.1)">
      <use xlink:href="#DejaVuSans-31"/>
      <use xlink:href="#DejaVuSans-32" x="63.623047"/>
     </g>
    </g>
   </g>
   <g id="text_11">
    <g id="patch_13">
     <path d="M 190.94394 115.003224 
L 197.227125 116.004719 
Q 200.189727 116.476936 200.661944 113.514334 
L 202.185337 103.956856 
Q 202.657555 100.994254 199.694953 100.522037 
L 193.411768 99.520543 
Q 190.449166 99.048325 189.976948 102.010927 
L 188.453555 111.568405 
Q 187.981338 114.531007 190.94394 115.003224 
z
" clip-path="url(#p38d50764e1)" style="fill: #ffffff; stroke: #ffffff; stroke-linejoin: miter"/>
    </g>
    <g clip-path="url(#p38d50764e1)">
     <!-- 1 -->
     <g transform="translate(191.743512 109.98686) rotate(-350.943648) scale(0.1 -0.1)">
      <use xlink:href="#DejaVuSans-31"/>
     </g>
    </g>
   </g>
   <g id="text_12">
    <g id="patch_14">
     <path d="M 185.853737 96.880938 
L 186.188142 90.527232 
Q 186.345819 87.531379 183.349965 87.373702 
L 173.685217 86.865031 
Q 170.689364 86.707355 170.531687 89.703208 
L 170.197282 96.056914 
Q 170.039605 99.052768 173.035459 99.210444 
L 182.700207 99.719115 
Q 185.69606 99.876792 185.853737 96.880938 
z
" clip-path="url(#p38d50764e1)" style="fill: #ffffff; stroke: #ffffff; stroke-linejoin: miter"/>
    </g>
    <g clip-path="url(#p38d50764e1)">
     <!-- 1 -->
     <g transform="translate(180.78107 96.613956) rotate(-86.987212) scale(0.1 -0.1)">
      <use xlink:href="#DejaVuSans-31"/>
     </g>
    </g>
   </g>
   <g id="text_13">
    <g id="patch_15">
     <path d="M 262.943658 228.496533 
L 266.238676 233.939351 
Q 267.792319 236.505709 270.358677 234.952066 
L 278.637855 229.939949 
Q 281.204213 228.386306 279.65057 225.819948 
L 276.355552 220.37713 
Q 274.801909 217.810772 272.235551 219.364415 
L 263.956373 224.376532 
Q 261.390015 225.930175 262.943658 228.496533 
z
" clip-path="url(#p38d50764e1)" style="fill: #ffffff; stroke: #ffffff; stroke-linejoin: miter"/>
    </g>
    <g clip-path="url(#p38d50764e1)">
     <!-- 7 -->
     <g transform="translate(267.289091 225.86586) rotate(-301.190221) scale(0.1 -0.1)">
      <use xlink:href="#DejaVuSans-37"/>
     </g>
    </g>
   </g>
   <g id="text_14">
    <g id="patch_16">
     <path d="M 287.24942 219.942619 
L 295.29038 229.805103 
Q 297.186088 232.130246 299.511232 230.234539 
L 307.012241 224.118907 
Q 309.337385 222.223199 307.441677 219.898055 
L 299.400717 210.035572 
Q 297.50501 207.710428 295.179866 209.606136 
L 287.678856 215.721768 
Q 285.353713 217.617476 287.24942 219.942619 
z
" clip-path="url(#p38d50764e1)" style="fill: #ffffff; stroke: #ffffff; stroke-linejoin: miter"/>
    </g>
    <g clip-path="url(#p38d50764e1)">
     <!-- 18 -->
     <g transform="translate(291.186421 216.732751) rotate(-309.19063) scale(0.1 -0.1)">
      <defs>
       <path id="DejaVuSans-38" d="M 2034 2216 
Q 1584 2216 1326 1975 
Q 1069 1734 1069 1313 
Q 1069 891 1326 650 
Q 1584 409 2034 409 
Q 2484 409 2743 651 
Q 3003 894 3003 1313 
Q 3003 1734 2745 1975 
Q 2488 2216 2034 2216 
z
M 1403 2484 
Q 997 2584 770 2862 
Q 544 3141 544 3541 
Q 544 4100 942 4425 
Q 1341 4750 2034 4750 
Q 2731 4750 3128 4425 
Q 3525 4100 3525 3541 
Q 3525 3141 3298 2862 
Q 3072 2584 2669 2484 
Q 3125 2378 3379 2068 
Q 3634 1759 3634 1313 
Q 3634 634 3220 271 
Q 2806 -91 2034 -91 
Q 1263 -91 848 271 
Q 434 634 434 1313 
Q 434 1759 690 2068 
Q 947 2378 1403 2484 
z
M 1172 3481 
Q 1172 3119 1398 2916 
Q 1625 2713 2034 2713 
Q 2441 2713 2670 2916 
Q 2900 3119 2900 3481 
Q 2900 3844 2670 4047 
Q 2441 4250 2034 4250 
Q 1625 4250 1398 4047 
Q 1172 3844 1172 3481 
z
" transform="scale(0.015625)"/>
      </defs>
      <use xlink:href="#DejaVuSans-31"/>
      <use xlink:href="#DejaVuSans-38" x="63.623047"/>
     </g>
    </g>
   </g>
   <g id="text_15">
    <g id="patch_17">
     <path d="M 369.901809 387.192119 
L 371.110824 380.945544 
Q 371.68089 378.000205 368.73555 377.430139 
L 359.233762 375.591083 
Q 356.288422 375.021017 355.718357 377.966357 
L 354.509342 384.212931 
Q 353.939276 387.158271 356.884616 387.728337 
L 366.386404 389.567392 
Q 369.331744 390.137458 369.901809 387.192119 
z
" clip-path="url(#p38d50764e1)" style="fill: #ffffff; stroke: #ffffff; stroke-linejoin: miter"/>
    </g>
    <g clip-path="url(#p38d50764e1)">
     <!-- 1 -->
     <g transform="translate(364.914675 386.226867) rotate(-79.045937) scale(0.1 -0.1)">
      <use xlink:href="#DejaVuSans-31"/>
     </g>
    </g>
   </g>
   <g id="text_16">
    <g id="patch_18">
     <path d="M 213.237115 291.25356 
L 223.335756 298.995851 
Q 225.716575 300.821146 227.54187 298.440327 
L 233.430346 290.759705 
Q 235.255641 288.378886 232.874822 286.553592 
L 222.776181 278.8113 
Q 220.395362 276.986006 218.570067 279.366825 
L 212.681591 287.047446 
Q 210.856296 289.428265 213.237115 291.25356 
z
" clip-path="url(#p38d50764e1)" style="fill: #ffffff; stroke: #ffffff; stroke-linejoin: miter"/>
    </g>
    <g clip-path="url(#p38d50764e1)">
     <!-- 19 -->
     <g transform="translate(216.327757 287.222288) rotate(-322.52382) scale(0.1 -0.1)">
      <use xlink:href="#DejaVuSans-31"/>
      <use xlink:href="#DejaVuSans-39" x="63.623047"/>
     </g>
    </g>
   </g>
   <g id="text_17">
    <g id="patch_19">
     <path d="M 377.248583 335.180053 
L 379.118373 322.593174 
Q 379.559188 319.625737 376.591751 319.184922 
L 367.018676 317.762835 
Q 364.051239 317.32202 363.610424 320.289457 
L 361.740634 332.876336 
Q 361.299819 335.843773 364.267256 336.284588 
L 373.840332 337.706675 
Q 376.807769 338.14749 377.248583 335.180053 
z
" clip-path="url(#p38d50764e1)" style="fill: #ffffff; stroke: #ffffff; stroke-linejoin: miter"/>
    </g>
    <g clip-path="url(#p38d50764e1)">
     <!-- 12 -->
     <g transform="translate(372.224033 334.433652) rotate(-81.550462) scale(0.1 -0.1)">
      <use xlink:href="#DejaVuSans-31"/>
      <use xlink:href="#DejaVuSans-32" x="63.623047"/>
     </g>
    </g>
   </g>
   <g id="text_18">
    <g id="patch_20">
     <path d="M 286.287576 379.399356 
L 298.437287 383.182233 
Q 301.301659 384.07407 302.193496 381.209698 
L 305.070601 371.969116 
Q 305.962438 369.104744 303.098066 368.212906 
L 290.948356 364.430029 
Q 288.083984 363.538192 287.192146 366.402564 
L 284.315042 375.643147 
Q 283.423204 378.507519 286.287576 379.399356 
z
" clip-path="url(#p38d50764e1)" style="fill: #ffffff; stroke: #ffffff; stroke-linejoin: miter"/>
    </g>
    <g clip-path="url(#p38d50764e1)">
     <!-- 17 -->
     <g transform="translate(287.797661 374.549318) rotate(-342.705746) scale(0.1 -0.1)">
      <use xlink:href="#DejaVuSans-31"/>
      <use xlink:href="#DejaVuSans-37" x="63.623047"/>
     </g>
    </g>
   </g>
   <g id="text_19">
    <g id="patch_21">
     <path d="M 237.813665 267.88382 
L 246.262079 277.399593 
Q 248.253847 279.642997 250.497251 277.651229 
L 257.734566 271.225704 
Q 259.97797 269.233937 257.986203 266.990532 
L 249.537789 257.47476 
Q 247.546021 255.231356 245.302617 257.223123 
L 238.065302 263.648648 
Q 235.821898 265.640416 237.813665 267.88382 
z
" clip-path="url(#p38d50764e1)" style="fill: #ffffff; stroke: #ffffff; stroke-linejoin: miter"/>
    </g>
    <g clip-path="url(#p38d50764e1)">
     <!-- 14 -->
     <g transform="translate(241.612263 264.511301) rotate(-311.599717) scale(0.1 -0.1)">
      <defs>
       <path id="DejaVuSans-34" d="M 2419 4116 
L 825 1625 
L 2419 1625 
L 2419 4116 
z
M 2253 4666 
L 3047 4666 
L 3047 1625 
L 3713 1625 
L 3713 1100 
L 3047 1100 
L 3047 0 
L 2419 0 
L 2419 1100 
L 313 1100 
L 313 1709 
L 2253 4666 
z
" transform="scale(0.015625)"/>
      </defs>
      <use xlink:href="#DejaVuSans-31"/>
      <use xlink:href="#DejaVuSans-34" x="63.623047"/>
     </g>
    </g>
   </g>
   <g id="text_20">
    <g id="patch_22">
     <path d="M 195.256907 124.148684 
L 207.927966 125.319103 
Q 210.915249 125.595037 211.191183 122.607754 
L 212.081357 112.970654 
Q 212.357291 109.983371 209.370007 109.707437 
L 196.698948 108.537018 
Q 193.711665 108.261084 193.435731 111.248367 
L 192.545557 120.885467 
Q 192.269624 123.87275 195.256907 124.148684 
z
" clip-path="url(#p38d50764e1)" style="fill: #ffffff; stroke: #ffffff; stroke-linejoin: miter"/>
    </g>
    <g clip-path="url(#p38d50764e1)">
     <!-- 10 -->
     <g transform="translate(195.724126 119.090529) rotate(-354.722594) scale(0.1 -0.1)">
      <use xlink:href="#DejaVuSans-31"/>
      <use xlink:href="#DejaVuSans-30" x="63.623047"/>
     </g>
    </g>
   </g>
   <g id="text_21">
    <g id="patch_23">
     <path d="M 341.648568 191.885256 
L 346.722358 203.554972 
Q 347.918536 206.306183 350.669747 205.110004 
L 359.545265 201.251083 
Q 362.296475 200.054905 361.100297 197.303695 
L 356.026507 185.633978 
Q 354.830329 182.882768 352.079119 184.078946 
L 343.2036 187.937867 
Q 340.45239 189.134046 341.648568 191.885256 
z
" clip-path="url(#p38d50764e1)" style="fill: #ffffff; stroke: #ffffff; stroke-linejoin: miter"/>
    </g>
    <g clip-path="url(#p38d50764e1)">
     <!-- 13 -->
     <g transform="translate(346.306998 189.859852) rotate(-293.498566) scale(0.1 -0.1)">
      <use xlink:href="#DejaVuSans-31"/>
      <use xlink:href="#DejaVuSans-33" x="63.623047"/>
     </g>
    </g>
   </g>
   <g id="text_22">
    <g id="patch_24">
     <path d="M 292.947799 291.312044 
L 295.797883 278.910325 
Q 296.469809 275.98654 293.546025 275.314615 
L 284.113774 273.146955 
Q 281.189989 272.475029 280.518064 275.398814 
L 277.667979 287.800533 
Q 276.996053 290.724317 279.919838 291.396243 
L 289.352089 293.563903 
Q 292.275873 294.235829 292.947799 291.312044 
z
" clip-path="url(#p38d50764e1)" style="fill: #ffffff; stroke: #ffffff; stroke-linejoin: miter"/>
    </g>
    <g clip-path="url(#p38d50764e1)">
     <!-- 18 -->
     <g transform="translate(287.997162 290.17432) rotate(-77.057376) scale(0.1 -0.1)">
      <use xlink:href="#DejaVuSans-31"/>
      <use xlink:href="#DejaVuSans-38" x="63.623047"/>
     </g>
    </g>
   </g>
   <g id="text_23">
    <g id="patch_25">
     <path d="M 339.550816 152.231082 
L 349.383758 160.308141 
Q 351.701937 162.212359 353.606155 159.89418 
L 359.749242 152.415639 
Q 361.653461 150.09746 359.335282 148.193242 
L 349.50234 140.116183 
Q 347.184161 138.211964 345.279943 140.530143 
L 339.136856 148.008684 
Q 337.232637 150.326863 339.550816 152.231082 
z
" clip-path="url(#p38d50764e1)" style="fill: #ffffff; stroke: #ffffff; stroke-linejoin: miter"/>
    </g>
    <g clip-path="url(#p38d50764e1)">
     <!-- 12 -->
     <g transform="translate(342.775094 148.305874) rotate(-320.599339) scale(0.1 -0.1)">
      <use xlink:href="#DejaVuSans-31"/>
      <use xlink:href="#DejaVuSans-32" x="63.623047"/>
     </g>
    </g>
   </g>
   <g id="text_24">
    <g id="patch_26">
     <path d="M 345.121981 171.124942 
L 346.950232 177.219111 
Q 347.812276 180.09259 350.685754 179.230546 
L 359.955717 176.449558 
Q 362.829196 175.587514 361.967152 172.714035 
L 360.138901 166.619865 
Q 359.276858 163.746387 356.403379 164.60843 
L 347.133416 167.389419 
Q 344.259937 168.251463 345.121981 171.124942 
z
" clip-path="url(#p38d50764e1)" style="fill: #ffffff; stroke: #ffffff; stroke-linejoin: miter"/>
    </g>
    <g clip-path="url(#p38d50764e1)">
     <!-- 9 -->
     <g transform="translate(349.987439 169.665304) rotate(-286.699244) scale(0.1 -0.1)">
      <use xlink:href="#DejaVuSans-39"/>
     </g>
    </g>
   </g>
   <g id="text_25">
    <g id="patch_27">
     <path d="M 329.035718 154.953404 
L 329.527115 148.609908 
Q 329.758816 145.618869 326.767776 145.387169 
L 317.11856 144.639694 
Q 314.12752 144.407994 313.89582 147.399033 
L 313.404423 153.742529 
Q 313.172722 156.733568 316.163762 156.965268 
L 325.812978 157.712743 
Q 328.804018 157.944443 329.035718 154.953404 
z
" clip-path="url(#p38d50764e1)" style="fill: #ffffff; stroke: #ffffff; stroke-linejoin: miter"/>
    </g>
    <g clip-path="url(#p38d50764e1)">
     <!-- 6 -->
     <g transform="translate(323.971203 154.561082) rotate(-85.570441) scale(0.1 -0.1)">
      <use xlink:href="#DejaVuSans-36"/>
     </g>
    </g>
   </g>
   <g id="text_26">
    <g id="patch_28">
     <path d="M 283.013892 226.643478 
L 287.343729 214.677771 
Q 288.364515 211.856779 285.543524 210.835992 
L 276.442887 207.542892 
Q 273.621895 206.522105 272.601108 209.343097 
L 268.271271 221.308804 
Q 267.250485 224.129796 270.071476 225.150582 
L 279.172113 228.443683 
Q 281.993105 229.464469 283.013892 226.643478 
z
" clip-path="url(#p38d50764e1)" style="fill: #ffffff; stroke: #ffffff; stroke-linejoin: miter"/>
    </g>
    <g clip-path="url(#p38d50764e1)">
     <!-- 15 -->
     <g transform="translate(278.237306 224.915052) rotate(-70.107149) scale(0.1 -0.1)">
      <use xlink:href="#DejaVuSans-31"/>
      <use xlink:href="#DejaVuSans-35" x="63.623047"/>
     </g>
    </g>
   </g>
   <g id="text_27">
    <g id="patch_29">
     <path d="M 385.20685 115.690408 
L 391.074059 118.15156 
Q 393.840523 119.312024 395.000987 116.54556 
L 398.744693 107.620832 
Q 399.905158 104.854368 397.138694 103.693904 
L 391.271485 101.232753 
Q 388.505021 100.072288 387.344557 102.838752 
L 383.600851 111.76348 
Q 382.440386 114.529944 385.20685 115.690408 
z
" clip-path="url(#p38d50764e1)" style="fill: #ffffff; stroke: #ffffff; stroke-linejoin: miter"/>
    </g>
    <g clip-path="url(#p38d50764e1)">
     <!-- 2 -->
     <g transform="translate(387.171782 111.006151) rotate(-337.243137) scale(0.1 -0.1)">
      <use xlink:href="#DejaVuSans-32"/>
     </g>
    </g>
   </g>
   <g id="text_28">
    <g id="patch_30">
     <path d="M 332.262195 191.17118 
L 338.465322 202.281844 
Q 339.927749 204.901254 342.547159 203.438827 
L 350.997484 198.720977 
Q 353.616894 197.258551 352.154467 194.639141 
L 345.951341 183.528477 
Q 344.488914 180.909067 341.869504 182.371494 
L 333.419179 187.089344 
Q 330.799769 188.55177 332.262195 191.17118 
z
" clip-path="url(#p38d50764e1)" style="fill: #ffffff; stroke: #ffffff; stroke-linejoin: miter"/>
    </g>
    <g clip-path="url(#p38d50764e1)">
     <!-- 10 -->
     <g transform="translate(336.697457 188.694957) rotate(-299.174793) scale(0.1 -0.1)">
      <use xlink:href="#DejaVuSans-31"/>
      <use xlink:href="#DejaVuSans-30" x="63.623047"/>
     </g>
    </g>
   </g>
   <g id="text_29">
    <g id="patch_31">
     <path d="M 227.870411 229.101823 
L 234.022901 230.723019 
Q 236.923878 231.487434 237.688293 228.586457 
L 240.154326 219.227782 
Q 240.918741 216.326805 238.017764 215.56239 
L 231.865274 213.941194 
Q 228.964297 213.17678 228.199882 216.077757 
L 225.733848 225.436431 
Q 224.969434 228.337409 227.870411 229.101823 
z
" clip-path="url(#p38d50764e1)" style="fill: #ffffff; stroke: #ffffff; stroke-linejoin: miter"/>
    </g>
    <g clip-path="url(#p38d50764e1)">
     <!-- 9 -->
     <g transform="translate(229.16474 224.189804) rotate(-345.237975) scale(0.1 -0.1)">
      <use xlink:href="#DejaVuSans-39"/>
     </g>
    </g>
   </g>
   <g id="text_30">
    <g id="patch_32">
     <path d="M 320.140628 357.113786 
L 323.886194 351.970621 
Q 325.652276 349.545554 323.227208 347.779472 
L 315.403838 342.082017 
Q 312.97877 340.315935 311.212688 342.741003 
L 307.467123 347.884168 
Q 305.70104 350.309236 308.126108 352.075318 
L 315.949478 357.772772 
Q 318.374546 359.538854 320.140628 357.113786 
z
" clip-path="url(#p38d50764e1)" style="fill: #ffffff; stroke: #ffffff; stroke-linejoin: miter"/>
    </g>
    <g clip-path="url(#p38d50764e1)">
     <!-- 6 -->
     <g transform="translate(316.034433 354.123405) rotate(-53.935614) scale(0.1 -0.1)">
      <use xlink:href="#DejaVuSans-36"/>
     </g>
    </g>
   </g>
   <g id="text_31">
    <g id="patch_33">
     <path d="M 271.563327 190.819633 
L 276.686718 194.592201 
Q 279.102462 196.371015 280.881276 193.955271 
L 286.619805 186.161979 
Q 288.398619 183.746235 285.982874 181.967421 
L 280.859483 178.194853 
Q 278.443739 176.416039 276.664925 178.831783 
L 270.926397 186.625075 
Q 269.147583 189.040819 271.563327 190.819633 
z
" clip-path="url(#p38d50764e1)" style="fill: #ffffff; stroke: #ffffff; stroke-linejoin: miter"/>
    </g>
    <g clip-path="url(#p38d50764e1)">
     <!-- 3 -->
     <g transform="translate(274.575267 186.729224) rotate(-323.634222) scale(0.1 -0.1)">
      <use xlink:href="#DejaVuSans-33"/>
     </g>
    </g>
   </g>
   <g id="text_32">
    <g id="patch_34">
     <path d="M 281.204341 289.515193 
L 285.824931 293.889157 
Q 288.003597 295.951537 290.065977 293.772871 
L 296.719301 286.744401 
Q 298.781681 284.565734 296.603014 282.503354 
L 291.982425 278.12939 
Q 289.803758 276.06701 287.741378 278.245677 
L 281.088055 285.274146 
Q 279.025675 287.452813 281.204341 289.515193 
z
" clip-path="url(#p38d50764e1)" style="fill: #ffffff; stroke: #ffffff; stroke-linejoin: miter"/>
    </g>
    <g clip-path="url(#p38d50764e1)">
     <!-- 4 -->
     <g transform="translate(284.696423 285.826211) rotate(-316.57062) scale(0.1 -0.1)">
      <use xlink:href="#DejaVuSans-34"/>
     </g>
    </g>
   </g>
   <g id="text_33">
    <g id="patch_35">
     <path d="M 241.48106 263.074866 
L 245.876643 267.674895 
Q 247.949216 269.843867 250.118188 267.771293 
L 257.115383 261.085086 
Q 259.284355 259.012512 257.211781 256.84354 
L 252.816199 252.243512 
Q 250.743626 250.07454 248.574653 252.147113 
L 241.577459 258.833321 
Q 239.408487 260.905894 241.48106 263.074866 
z
" clip-path="url(#p38d50764e1)" style="fill: #ffffff; stroke: #ffffff; stroke-linejoin: miter"/>
    </g>
    <g clip-path="url(#p38d50764e1)">
     <!-- 9 -->
     <g transform="translate(245.153627 259.565525) rotate(-313.698047) scale(0.1 -0.1)">
      <use xlink:href="#DejaVuSans-39"/>
     </g>
    </g>
   </g>
   <g id="text_34">
    <g id="patch_36">
     <path d="M 315.351818 366.522899 
L 328.052418 367.310533 
Q 331.046666 367.496222 331.232356 364.501975 
L 331.831399 354.842407 
Q 332.017089 351.848159 329.022841 351.662469 
L 316.32224 350.874835 
Q 313.327992 350.689145 313.142303 353.683393 
L 312.54326 363.342961 
Q 312.35757 366.337209 315.351818 366.522899 
z
" clip-path="url(#p38d50764e1)" style="fill: #ffffff; stroke: #ffffff; stroke-linejoin: miter"/>
    </g>
    <g clip-path="url(#p38d50764e1)">
     <!-- 18 -->
     <g transform="translate(315.666233 361.452951) rotate(-356.451318) scale(0.1 -0.1)">
      <use xlink:href="#DejaVuSans-31"/>
      <use xlink:href="#DejaVuSans-38" x="63.623047"/>
     </g>
    </g>
   </g>
   <g id="text_35">
    <g id="patch_37">
     <path d="M 442.174355 258.417174 
L 444.373679 245.883675 
Q 444.892184 242.928822 441.937332 242.410318 
L 432.404855 240.7376 
Q 429.450002 240.219095 428.931497 243.173947 
L 426.732173 255.707446 
Q 426.213668 258.662299 429.168521 259.180804 
L 438.700998 260.853522 
Q 441.65585 261.372026 442.174355 258.417174 
z
" clip-path="url(#p38d50764e1)" style="fill: #ffffff; stroke: #ffffff; stroke-linejoin: miter"/>
    </g>
    <g clip-path="url(#p38d50764e1)">
     <!-- 12 -->
     <g transform="translate(437.171113 257.539226) rotate(-80.047312) scale(0.1 -0.1)">
      <use xlink:href="#DejaVuSans-31"/>
      <use xlink:href="#DejaVuSans-32" x="63.623047"/>
     </g>
    </g>
   </g>
   <g id="text_36">
    <g id="patch_38">
     <path d="M 351.366128 245.175917 
L 354.043405 250.947709 
Q 355.305776 253.669183 358.02725 252.406813 
L 366.806838 248.334353 
Q 369.528312 247.071983 368.265942 244.350509 
L 365.588664 238.578716 
Q 364.326294 235.857242 361.60482 237.119612 
L 352.825231 241.192072 
Q 350.103757 242.454443 351.366128 245.175917 
z
" clip-path="url(#p38d50764e1)" style="fill: #ffffff; stroke: #ffffff; stroke-linejoin: miter"/>
    </g>
    <g clip-path="url(#p38d50764e1)">
     <!-- 5 -->
     <g transform="translate(355.974207 243.038434) rotate(-294.884484) scale(0.1 -0.1)">
      <use xlink:href="#DejaVuSans-35"/>
     </g>
    </g>
   </g>
   <g id="text_37">
    <g id="patch_39">
     <path d="M 260.260662 244.73713 
L 267.526354 255.183916 
Q 269.239288 257.646812 271.702184 255.933879 
L 279.647591 250.407884 
Q 282.110487 248.694951 280.397554 246.232054 
L 273.131861 235.785268 
Q 271.418928 233.322372 268.956032 235.035305 
L 261.010625 240.5613 
Q 258.547728 242.274233 260.260662 244.73713 
z
" clip-path="url(#p38d50764e1)" style="fill: #ffffff; stroke: #ffffff; stroke-linejoin: miter"/>
    </g>
    <g clip-path="url(#p38d50764e1)">
     <!-- 19 -->
     <g transform="translate(264.43091 241.836741) rotate(-304.818439) scale(0.1 -0.1)">
      <use xlink:href="#DejaVuSans-31"/>
      <use xlink:href="#DejaVuSans-39" x="63.623047"/>
     </g>
    </g>
   </g>
   <g id="text_38">
    <g id="patch_40">
     <path d="M 412.43961 293.656176 
L 417.859288 282.143022 
Q 419.137011 279.428722 416.422712 278.150998 
L 407.666268 274.029008 
Q 404.951969 272.751285 403.674245 275.465584 
L 398.254567 286.978738 
Q 396.976843 289.693038 399.691143 290.970762 
L 408.447586 295.092751 
Q 411.161886 296.370475 412.43961 293.656176 
z
" clip-path="url(#p38d50764e1)" style="fill: #ffffff; stroke: #ffffff; stroke-linejoin: miter"/>
    </g>
    <g clip-path="url(#p38d50764e1)">
     <!-- 13 -->
     <g transform="translate(407.843678 291.492697) rotate(-64.791856) scale(0.1 -0.1)">
      <use xlink:href="#DejaVuSans-31"/>
      <use xlink:href="#DejaVuSans-33" x="63.623047"/>
     </g>
    </g>
   </g>
   <g id="text_39">
    <g id="patch_41">
     <path d="M 217.387424 286.001465 
L 222.587883 289.667066 
Q 225.039966 291.395444 226.768343 288.943361 
L 232.344162 281.03284 
Q 234.07254 278.580757 231.620457 276.852379 
L 226.419998 273.186778 
Q 223.967916 271.4584 222.239538 273.910483 
L 216.663719 281.821004 
Q 214.935341 284.273087 217.387424 286.001465 
z
" clip-path="url(#p38d50764e1)" style="fill: #ffffff; stroke: #ffffff; stroke-linejoin: miter"/>
    </g>
    <g clip-path="url(#p38d50764e1)">
     <!-- 6 -->
     <g transform="translate(220.313964 281.849527) rotate(-324.821479) scale(0.1 -0.1)">
      <use xlink:href="#DejaVuSans-36"/>
     </g>
    </g>
   </g>
   <g id="text_40">
    <g id="patch_42">
     <path d="M 284.765936 286.114794 
L 285.825987 279.841222 
Q 286.325814 276.883153 283.367745 276.383326 
L 273.824891 274.770862 
Q 270.866822 274.271034 270.366994 277.229104 
L 269.306944 283.502675 
Q 268.807117 286.460744 271.765186 286.960571 
L 281.30804 288.573035 
Q 284.266109 289.072863 284.765936 286.114794 
z
" clip-path="url(#p38d50764e1)" style="fill: #ffffff; stroke: #ffffff; stroke-linejoin: miter"/>
    </g>
    <g clip-path="url(#p38d50764e1)">
     <!-- 4 -->
     <g transform="translate(279.757247 285.268471) rotate(-80.409276) scale(0.1 -0.1)">
      <use xlink:href="#DejaVuSans-34"/>
     </g>
    </g>
   </g>
   <g id="text_41">
    <g id="patch_43">
     <path d="M 343.90875 443.02438 
L 350.266713 442.784154 
Q 353.264574 442.670885 353.151305 439.673024 
L 352.785893 430.0018 
Q 352.672624 427.003939 349.674763 427.117208 
L 343.3168 427.357434 
Q 340.318939 427.470703 340.432208 430.468564 
L 340.79762 440.139788 
Q 340.910889 443.137649 343.90875 443.02438 
z
" clip-path="url(#p38d50764e1)" style="fill: #ffffff; stroke: #ffffff; stroke-linejoin: miter"/>
    </g>
    <g clip-path="url(#p38d50764e1)">
     <!-- 1 -->
     <g transform="translate(343.716959 437.948314) rotate(-2.163799) scale(0.1 -0.1)">
      <use xlink:href="#DejaVuSans-31"/>
     </g>
    </g>
   </g>
   <g id="text_42">
    <g id="patch_44">
     <path d="M 159.994519 312.688096 
L 163.455975 318.026609 
Q 165.088096 320.543787 167.605273 318.911666 
L 175.725792 313.646377 
Q 178.242969 312.014256 176.610849 309.497078 
L 173.149393 304.158565 
Q 171.517272 301.641387 169.000095 303.273508 
L 160.879576 308.538797 
Q 158.362398 310.170918 159.994519 312.688096 
z
" clip-path="url(#p38d50764e1)" style="fill: #ffffff; stroke: #ffffff; stroke-linejoin: miter"/>
    </g>
    <g clip-path="url(#p38d50764e1)">
     <!-- 6 -->
     <g transform="translate(164.256677 309.924541) rotate(-302.959101) scale(0.1 -0.1)">
      <use xlink:href="#DejaVuSans-36"/>
     </g>
    </g>
   </g>
   <g id="text_43">
    <g id="patch_45">
     <path d="M 289.297542 337.517254 
L 292.924456 325.320077 
Q 293.779524 322.444515 290.903961 321.589446 
L 281.627278 318.830961 
Q 278.751715 317.975893 277.896647 320.851455 
L 274.269733 333.048632 
Q 273.414665 335.924194 276.290228 336.779263 
L 285.566911 339.537748 
Q 288.442474 340.392816 289.297542 337.517254 
z
" clip-path="url(#p38d50764e1)" style="fill: #ffffff; stroke: #ffffff; stroke-linejoin: miter"/>
    </g>
    <g clip-path="url(#p38d50764e1)">
     <!-- 14 -->
     <g transform="translate(284.428556 336.069427) rotate(-73.439795) scale(0.1 -0.1)">
      <use xlink:href="#DejaVuSans-31"/>
      <use xlink:href="#DejaVuSans-34" x="63.623047"/>
     </g>
    </g>
   </g>
   <g id="text_44">
    <g id="patch_46">
     <path d="M 205.084054 270.673471 
L 207.885187 283.086338 
Q 208.545573 286.012751 211.471985 285.352366 
L 220.912715 283.221936 
Q 223.839127 282.561551 223.178742 279.635138 
L 220.377608 267.222271 
Q 219.717223 264.295858 216.790811 264.956243 
L 207.350081 267.086673 
Q 204.423668 267.747058 205.084054 270.673471 
z
" clip-path="url(#p38d50764e1)" style="fill: #ffffff; stroke: #ffffff; stroke-linejoin: miter"/>
    </g>
    <g clip-path="url(#p38d50764e1)">
     <!-- 15 -->
     <g transform="translate(210.039141 269.555288) rotate(-282.716574) scale(0.1 -0.1)">
      <use xlink:href="#DejaVuSans-31"/>
      <use xlink:href="#DejaVuSans-35" x="63.623047"/>
     </g>
    </g>
   </g>
   <g id="text_45">
    <g id="patch_47">
     <path d="M 189.549816 338.311559 
L 199.219138 330.039326 
Q 201.498742 328.089094 199.54851 325.80949 
L 193.256981 318.455391 
Q 191.306749 316.175787 189.027145 318.126019 
L 179.357823 326.398252 
Q 177.078219 328.348484 179.028451 330.628088 
L 185.31998 337.982187 
Q 187.270212 340.261791 189.549816 338.311559 
z
" clip-path="url(#p38d50764e1)" style="fill: #ffffff; stroke: #ffffff; stroke-linejoin: miter"/>
    </g>
    <g clip-path="url(#p38d50764e1)">
     <!-- 13 -->
     <g transform="translate(186.247626 334.451667) rotate(-40.547428) scale(0.1 -0.1)">
      <use xlink:href="#DejaVuSans-31"/>
      <use xlink:href="#DejaVuSans-33" x="63.623047"/>
     </g>
    </g>
   </g>
   <g id="text_46">
    <g id="patch_48">
     <path d="M 384.408938 188.182339 
L 395.343836 181.674372 
Q 397.921808 180.140077 396.387513 177.562105 
L 391.437814 169.24546 
Q 389.903519 166.667488 387.325547 168.201783 
L 376.390649 174.709749 
Q 373.812677 176.244044 375.346972 178.822016 
L 380.296671 187.138661 
Q 381.830966 189.716633 384.408938 188.182339 
z
" clip-path="url(#p38d50764e1)" style="fill: #ffffff; stroke: #ffffff; stroke-linejoin: miter"/>
    </g>
    <g clip-path="url(#p38d50764e1)">
     <!-- 11 -->
     <g transform="translate(381.811025 183.817241) rotate(-30.759234) scale(0.1 -0.1)">
      <use xlink:href="#DejaVuSans-31"/>
      <use xlink:href="#DejaVuSans-31" x="63.623047"/>
     </g>
    </g>
   </g>
   <g id="text_47">
    <g id="patch_49">
     <path d="M 81.221839 317.176444 
L 82.380435 304.504298 
Q 82.653582 301.516759 79.666042 301.243613 
L 70.028116 300.362431 
Q 67.040577 300.089284 66.76743 303.076824 
L 65.608834 315.748969 
Q 65.335688 318.736509 68.323227 319.009655 
L 77.961153 319.890837 
Q 80.948692 320.163983 81.221839 317.176444 
z
" clip-path="url(#p38d50764e1)" style="fill: #ffffff; stroke: #ffffff; stroke-linejoin: miter"/>
    </g>
    <g clip-path="url(#p38d50764e1)">
     <!-- 11 -->
     <g transform="translate(76.16325 316.713945) rotate(-84.776052) scale(0.1 -0.1)">
      <use xlink:href="#DejaVuSans-31"/>
      <use xlink:href="#DejaVuSans-31" x="63.623047"/>
     </g>
    </g>
   </g>
   <g id="text_48">
    <g id="patch_50">
     <path d="M 133.733849 155.692216 
L 138.740455 151.765983 
Q 141.101134 149.914715 139.249865 147.554036 
L 133.277594 139.938389 
Q 131.426325 137.57771 129.065646 139.428979 
L 124.059041 143.355212 
Q 121.698362 145.206481 123.549631 147.567159 
L 129.521902 155.182807 
Q 131.373171 157.543485 133.733849 155.692216 
z
" clip-path="url(#p38d50764e1)" style="fill: #ffffff; stroke: #ffffff; stroke-linejoin: miter"/>
    </g>
    <g clip-path="url(#p38d50764e1)">
     <!-- 6 -->
     <g transform="translate(130.599227 151.695047) rotate(-38.103916) scale(0.1 -0.1)">
      <use xlink:href="#DejaVuSans-36"/>
     </g>
    </g>
   </g>
   <g id="text_49">
    <g id="patch_51">
     <path d="M 145.531681 228.08978 
L 152.018916 239.03699 
Q 153.548323 241.617864 156.129198 240.088457 
L 164.455207 235.154526 
Q 167.036081 233.625119 165.506674 231.044244 
L 159.019439 220.097034 
Q 157.490032 217.51616 154.909157 219.045567 
L 146.583148 223.979498 
Q 144.002274 225.508905 145.531681 228.08978 
z
" clip-path="url(#p38d50764e1)" style="fill: #ffffff; stroke: #ffffff; stroke-linejoin: miter"/>
    </g>
    <g clip-path="url(#p38d50764e1)">
     <!-- 17 -->
     <g transform="translate(149.901693 225.500143) rotate(-300.650668) scale(0.1 -0.1)">
      <use xlink:href="#DejaVuSans-31"/>
      <use xlink:href="#DejaVuSans-37" x="63.623047"/>
     </g>
    </g>
   </g>
   <g id="text_50">
    <g id="patch_52">
     <path d="M 249.411496 441.988694 
L 255.773376 441.899886 
Q 258.773084 441.858012 258.73121 438.858304 
L 258.596122 429.181122 
Q 258.554248 426.181414 255.55454 426.223289 
L 249.19266 426.312097 
Q 246.192952 426.353971 246.234826 429.353678 
L 246.369914 439.030861 
Q 246.411788 442.030568 249.411496 441.988694 
z
" clip-path="url(#p38d50764e1)" style="fill: #ffffff; stroke: #ffffff; stroke-linejoin: miter"/>
    </g>
    <g clip-path="url(#p38d50764e1)">
     <!-- 4 -->
     <g transform="translate(249.340593 436.909502) rotate(-0.799762) scale(0.1 -0.1)">
      <use xlink:href="#DejaVuSans-34"/>
     </g>
    </g>
   </g>
   <g id="text_51">
    <g id="patch_53">
     <path d="M 330.015202 398.647624 
L 335.99069 400.832791 
Q 338.808208 401.863125 339.838543 399.045606 
L 343.162443 389.956174 
Q 344.192778 387.138655 341.375259 386.108321 
L 335.399771 383.923154 
Q 332.582253 382.89282 331.551919 385.710338 
L 328.228018 394.799771 
Q 327.197683 397.61729 330.015202 398.647624 
z
" clip-path="url(#p38d50764e1)" style="fill: #ffffff; stroke: #ffffff; stroke-linejoin: miter"/>
    </g>
    <g clip-path="url(#p38d50764e1)">
     <!-- 5 -->
     <g transform="translate(331.759794 393.876919) rotate(-339.913116) scale(0.1 -0.1)">
      <use xlink:href="#DejaVuSans-35"/>
     </g>
    </g>
   </g>
   <g id="text_52">
    <g id="patch_54">
     <path d="M 259.053185 321.589029 
L 264.429447 318.186499 
Q 266.964424 316.582163 265.360088 314.047186 
L 260.184432 305.869247 
Q 258.580096 303.33427 256.04512 304.938607 
L 250.668857 308.341136 
Q 248.133881 309.945472 249.738217 312.480449 
L 254.913872 320.658388 
Q 256.518208 323.193365 259.053185 321.589029 
z
" clip-path="url(#p38d50764e1)" style="fill: #ffffff; stroke: #ffffff; stroke-linejoin: miter"/>
    </g>
    <g clip-path="url(#p38d50764e1)">
     <!-- 2 -->
     <g transform="translate(256.336676 317.296733) rotate(-32.328906) scale(0.1 -0.1)">
      <use xlink:href="#DejaVuSans-32"/>
     </g>
    </g>
   </g>
   <g id="text_53">
    <g id="patch_55">
     <path d="M 461.779717 166.842693 
L 462.126248 160.489637 
Q 462.289641 157.49409 459.294094 157.330696 
L 449.630334 156.803582 
Q 446.634787 156.640189 446.471394 159.635736 
L 446.124863 165.988792 
Q 445.96147 168.984339 448.957017 169.147732 
L 458.620777 169.674847 
Q 461.616324 169.83824 461.779717 166.842693 
z
" clip-path="url(#p38d50764e1)" style="fill: #ffffff; stroke: #ffffff; stroke-linejoin: miter"/>
    </g>
    <g clip-path="url(#p38d50764e1)">
     <!-- 3 -->
     <g transform="translate(456.70757 166.56603) rotate(-86.87787) scale(0.1 -0.1)">
      <use xlink:href="#DejaVuSans-33"/>
     </g>
    </g>
   </g>
   <g id="text_54">
    <g id="patch_56">
     <path d="M 306.713944 270.275299 
L 310.736474 265.345729 
Q 312.633148 263.021374 310.308792 261.1247 
L 302.810325 255.00595 
Q 300.48597 253.109276 298.589296 255.433632 
L 294.566766 260.363202 
Q 292.670092 262.687558 294.994448 264.584231 
L 302.492915 270.702981 
Q 304.81727 272.599655 306.713944 270.275299 
z
" clip-path="url(#p38d50764e1)" style="fill: #ffffff; stroke: #ffffff; stroke-linejoin: miter"/>
    </g>
    <g clip-path="url(#p38d50764e1)">
     <!-- 7 -->
     <g transform="translate(302.778278 267.063796) rotate(-50.785555) scale(0.1 -0.1)">
      <use xlink:href="#DejaVuSans-37"/>
     </g>
    </g>
   </g>
   <g id="text_55">
    <g id="patch_57">
     <path d="M 343.025672 255.066096 
L 352.226815 246.276068 
Q 354.396044 244.203762 352.323738 242.034534 
L 345.638395 235.036514 
Q 343.56609 232.867285 341.396862 234.939591 
L 332.195719 243.729619 
Q 330.026491 245.801924 332.098796 247.971152 
L 338.784139 254.969173 
Q 340.856444 257.138401 343.025672 255.066096 
z
" clip-path="url(#p38d50764e1)" style="fill: #ffffff; stroke: #ffffff; stroke-linejoin: miter"/>
    </g>
    <g clip-path="url(#p38d50764e1)">
     <!-- 14 -->
     <g transform="translate(339.516785 251.393095) rotate(-43.690966) scale(0.1 -0.1)">
      <use xlink:href="#DejaVuSans-31"/>
      <use xlink:href="#DejaVuSans-34" x="63.623047"/>
     </g>
    </g>
   </g>
   <g id="text_56">
    <g id="patch_58">
     <path d="M 261.223398 294.89317 
L 266.281197 291.033108 
Q 268.666013 289.213039 266.845945 286.828223 
L 260.974328 279.134705 
Q 259.154259 276.749888 256.769442 278.569957 
L 251.711644 282.430019 
Q 249.326827 284.250088 251.146896 286.634904 
L 257.018513 294.328422 
Q 258.838582 296.713239 261.223398 294.89317 
z
" clip-path="url(#p38d50764e1)" style="fill: #ffffff; stroke: #ffffff; stroke-linejoin: miter"/>
    </g>
    <g clip-path="url(#p38d50764e1)">
     <!-- 4 -->
     <g transform="translate(258.141605 290.855129) rotate(-37.350518) scale(0.1 -0.1)">
      <use xlink:href="#DejaVuSans-34"/>
     </g>
    </g>
   </g>
   <g id="text_57">
    <g id="patch_59">
     <path d="M 126.155435 279.798769 
L 128.273934 273.799322 
Q 129.272834 270.970506 126.444018 269.971606 
L 117.318139 266.749115 
Q 114.489323 265.750216 113.490424 268.579032 
L 111.371925 274.578479 
Q 110.373025 277.407295 113.201841 278.406194 
L 122.32772 281.628685 
Q 125.156536 282.627585 126.155435 279.798769 
z
" clip-path="url(#p38d50764e1)" style="fill: #ffffff; stroke: #ffffff; stroke-linejoin: miter"/>
    </g>
    <g clip-path="url(#p38d50764e1)">
     <!-- 5 -->
     <g transform="translate(121.365601 278.107403) rotate(-70.551072) scale(0.1 -0.1)">
      <use xlink:href="#DejaVuSans-35"/>
     </g>
    </g>
   </g>
   <g id="matplotlib.axis_1">
    <g id="xtick_1">
     <g id="line2d_1">
      <path d="M 10.8 493.2 
L 10.8 10.8 
" clip-path="url(#p38d50764e1)" style="fill: none; stroke: #b0b0b0; stroke-opacity: 0.3; stroke-width: 0.8; stroke-linecap: square"/>
     </g>
    </g>
    <g id="xtick_2">
     <g id="line2d_2">
      <path d="M 59.04 493.2 
L 59.04 10.8 
" clip-path="url(#p38d50764e1)" style="fill: none; stroke: #b0b0b0; stroke-opacity: 0.3; stroke-width: 0.8; stroke-linecap: square"/>
     </g>
    </g>
    <g id="xtick_3">
     <g id="line2d_3">
      <path d="M 107.28 493.2 
L 107.28 10.8 
" clip-path="url(#p38d50764e1)" style="fill: none; stroke: #b0b0b0; stroke-opacity: 0.3; stroke-width: 0.8; stroke-linecap: square"/>
     </g>
    </g>
    <g id="xtick_4">
     <g id="line2d_4">
      <path d="M 155.52 493.2 
L 155.52 10.8 
" clip-path="url(#p38d50764e1)" style="fill: none; stroke: #b0b0b0; stroke-opacity: 0.3; stroke-width: 0.8; stroke-linecap: square"/>
     </g>
    </g>
    <g id="xtick_5">
     <g id="line2d_5">
      <path d="M 203.76 493.2 
L 203.76 10.8 
" clip-path="url(#p38d50764e1)" style="fill: none; stroke: #b0b0b0; stroke-opacity: 0.3; stroke-width: 0.8; stroke-linecap: square"/>
     </g>
    </g>
    <g id="xtick_6">
     <g id="line2d_6">
      <path d="M 252 493.2 
L 252 10.8 
" clip-path="url(#p38d50764e1)" style="fill: none; stroke: #b0b0b0; stroke-opacity: 0.3; stroke-width: 0.8; stroke-linecap: square"/>
     </g>
    </g>
    <g id="xtick_7">
     <g id="line2d_7">
      <path d="M 300.24 493.2 
L 300.24 10.8 
" clip-path="url(#p38d50764e1)" style="fill: none; stroke: #b0b0b0; stroke-opacity: 0.3; stroke-width: 0.8; stroke-linecap: square"/>
     </g>
    </g>
    <g id="xtick_8">
     <g id="line2d_8">
      <path d="M 348.48 493.2 
L 348.48 10.8 
" clip-path="url(#p38d50764e1)" style="fill: none; stroke: #b0b0b0; stroke-opacity: 0.3; stroke-width: 0.8; stroke-linecap: square"/>
     </g>
    </g>
    <g id="xtick_9">
     <g id="line2d_9">
      <path d="M 396.72 493.2 
L 396.72 10.8 
" clip-path="url(#p38d50764e1)" style="fill: none; stroke: #b0b0b0; stroke-opacity: 0.3; stroke-width: 0.8; stroke-linecap: square"/>
     </g>
    </g>
    <g id="xtick_10">
     <g id="line2d_10">
      <path d="M 444.96 493.2 
L 444.96 10.8 
" clip-path="url(#p38d50764e1)" style="fill: none; stroke: #b0b0b0; stroke-opacity: 0.3; stroke-width: 0.8; stroke-linecap: square"/>
     </g>
    </g>
    <g id="xtick_11">
     <g id="line2d_11">
      <path d="M 493.2 493.2 
L 493.2 10.8 
" clip-path="url(#p38d50764e1)" style="fill: none; stroke: #b0b0b0; stroke-opacity: 0.3; stroke-width: 0.8; stroke-linecap: square"/>
     </g>
    </g>
   </g>
   <g id="matplotlib.axis_2">
    <g id="ytick_1">
     <g id="line2d_12">
      <path d="M 10.8 493.2 
L 493.2 493.2 
" clip-path="url(#p38d50764e1)" style="fill: none; stroke: #b0b0b0; stroke-opacity: 0.3; stroke-width: 0.8; stroke-linecap: square"/>
     </g>
    </g>
    <g id="ytick_2">
     <g id="line2d_13">
      <path d="M 10.8 444.96 
L 493.2 444.96 
" clip-path="url(#p38d50764e1)" style="fill: none; stroke: #b0b0b0; stroke-opacity: 0.3; stroke-width: 0.8; stroke-linecap: square"/>
     </g>
    </g>
    <g id="ytick_3">
     <g id="line2d_14">
      <path d="M 10.8 396.72 
L 493.2 396.72 
" clip-path="url(#p38d50764e1)" style="fill: none; stroke: #b0b0b0; stroke-opacity: 0.3; stroke-width: 0.8; stroke-linecap: square"/>
     </g>
    </g>
    <g id="ytick_4">
     <g id="line2d_15">
      <path d="M 10.8 348.48 
L 493.2 348.48 
" clip-path="url(#p38d50764e1)" style="fill: none; stroke: #b0b0b0; stroke-opacity: 0.3; stroke-width: 0.8; stroke-linecap: square"/>
     </g>
    </g>
    <g id="ytick_5">
     <g id="line2d_16">
      <path d="M 10.8 300.24 
L 493.2 300.24 
" clip-path="url(#p38d50764e1)" style="fill: none; stroke: #b0b0b0; stroke-opacity: 0.3; stroke-width: 0.8; stroke-linecap: square"/>
     </g>
    </g>
    <g id="ytick_6">
     <g id="line2d_17">
      <path d="M 10.8 252 
L 493.2 252 
" clip-path="url(#p38d50764e1)" style="fill: none; stroke: #b0b0b0; stroke-opacity: 0.3; stroke-width: 0.8; stroke-linecap: square"/>
     </g>
    </g>
    <g id="ytick_7">
     <g id="line2d_18">
      <path d="M 10.8 203.76 
L 493.2 203.76 
" clip-path="url(#p38d50764e1)" style="fill: none; stroke: #b0b0b0; stroke-opacity: 0.3; stroke-width: 0.8; stroke-linecap: square"/>
     </g>
    </g>
    <g id="ytick_8">
     <g id="line2d_19">
      <path d="M 10.8 155.52 
L 493.2 155.52 
" clip-path="url(#p38d50764e1)" style="fill: none; stroke: #b0b0b0; stroke-opacity: 0.3; stroke-width: 0.8; stroke-linecap: square"/>
     </g>
    </g>
    <g id="ytick_9">
     <g id="line2d_20">
      <path d="M 10.8 107.28 
L 493.2 107.28 
" clip-path="url(#p38d50764e1)" style="fill: none; stroke: #b0b0b0; stroke-opacity: 0.3; stroke-width: 0.8; stroke-linecap: square"/>
     </g>
    </g>
    <g id="ytick_10">
     <g id="line2d_21">
      <path d="M 10.8 59.04 
L 493.2 59.04 
" clip-path="url(#p38d50764e1)" style="fill: none; stroke: #b0b0b0; stroke-opacity: 0.3; stroke-width: 0.8; stroke-linecap: square"/>
     </g>
    </g>
    <g id="ytick_11">
     <g id="line2d_22">
      <path d="M 10.8 10.8 
L 493.2 10.8 
" clip-path="url(#p38d50764e1)" style="fill: none; stroke: #b0b0b0; stroke-opacity: 0.3; stroke-width: 0.8; stroke-linecap: square"/>
     </g>
    </g>
   </g>
   <g id="PathCollection_1">
    <defs>
     <path id="m0c7d697053" d="M 0 8.660254 
C 2.296726 8.660254 4.499694 7.747755 6.123724 6.123724 
C 7.747755 4.499694 8.660254 2.296726 8.660254 0 
C 8.660254 -2.296726 7.747755 -4.499694 6.123724 -6.123724 
C 4.499694 -7.747755 2.296726 -8.660254 0 -8.660254 
C -2.296726 -8.660254 -4.499694 -7.747755 -6.123724 -6.123724 
C -7.747755 -4.499694 -8.660254 -2.296726 -8.660254 0 
C -8.660254 2.296726 -7.747755 4.499694 -6.123724 6.123724 
C -4.499694 7.747755 -2.296726 8.660254 0 8.660254 
z
" style="stroke: #1f78b4"/>
    </defs>
    <g clip-path="url(#p38d50764e1)">
     <use xlink:href="#m0c7d697053" x="239.4576" y="23.3424" style="fill: #1f78b4; stroke: #1f78b4"/>
     <use xlink:href="#m0c7d697053" x="68.2056" y="87.5016" style="fill: #1f78b4; stroke: #1f78b4"/>
     <use xlink:href="#m0c7d697053" x="179.1576" y="74.9592" style="fill: #1f78b4; stroke: #1f78b4"/>
     <use xlink:href="#m0c7d697053" x="360.54" y="394.308" style="fill: #1f78b4; stroke: #1f78b4"/>
     <use xlink:href="#m0c7d697053" x="322.4304" y="128.0232" style="fill: #1f78b4; stroke: #1f78b4"/>
     <use xlink:href="#m0c7d697053" x="326.772" y="82.6776" style="fill: #1f78b4; stroke: #1f78b4"/>
     <use xlink:href="#m0c7d697053" x="380.3184" y="261.1656" style="fill: #1f78b4; stroke: #1f78b4"/>
     <use xlink:href="#m0c7d697053" x="135.2592" y="140.5656" style="fill: #1f78b4; stroke: #1f78b4"/>
     <use xlink:href="#m0c7d697053" x="415.5336" y="364.8816" style="fill: #1f78b4; stroke: #1f78b4"/>
     <use xlink:href="#m0c7d697053" x="363.4344" y="379.3536" style="fill: #1f78b4; stroke: #1f78b4"/>
     <use xlink:href="#m0c7d697053" x="304.0992" y="124.6464" style="fill: #1f78b4; stroke: #1f78b4"/>
     <use xlink:href="#m0c7d697053" x="251.0352" y="438.6888" style="fill: #1f78b4; stroke: #1f78b4"/>
     <use xlink:href="#m0c7d697053" x="316.1592" y="219.6792" style="fill: #1f78b4; stroke: #1f78b4"/>
     <use xlink:href="#m0c7d697053" x="85.572" y="183.4992" style="fill: #1f78b4; stroke: #1f78b4"/>
     <use xlink:href="#m0c7d697053" x="82.1952" y="105.8328" style="fill: #1f78b4; stroke: #1f78b4"/>
     <use xlink:href="#m0c7d697053" x="442.548" y="431.4528" style="fill: #1f78b4; stroke: #1f78b4"/>
     <use xlink:href="#m0c7d697053" x="452.6784" y="189.7704" style="fill: #1f78b4; stroke: #1f78b4"/>
     <use xlink:href="#m0c7d697053" x="228.8448" y="353.304" style="fill: #1f78b4; stroke: #1f78b4"/>
     <use xlink:href="#m0c7d697053" x="455.5728" y="136.7064" style="fill: #1f78b4; stroke: #1f78b4"/>
     <use xlink:href="#m0c7d697053" x="376.4592" y="172.404" style="fill: #1f78b4; stroke: #1f78b4"/>
     <use xlink:href="#m0c7d697053" x="177.228" y="111.6216" style="fill: #1f78b4; stroke: #1f78b4"/>
     <use xlink:href="#m0c7d697053" x="62.4168" y="436.7592" style="fill: #1f78b4; stroke: #1f78b4"/>
    </g>
   </g>
   <g id="patch_60">
    <path d="M 10.8 493.2 
L 10.8 10.8 
" style="fill: none; stroke: #000000; stroke-width: 0.8; stroke-linejoin: miter; stroke-linecap: square"/>
   </g>
   <g id="patch_61">
    <path d="M 493.2 493.2 
L 493.2 10.8 
" style="fill: none; stroke: #000000; stroke-width: 0.8; stroke-linejoin: miter; stroke-linecap: square"/>
   </g>
   <g id="patch_62">
    <path d="M 10.8 493.2 
L 493.2 493.2 
" style="fill: none; stroke: #000000; stroke-width: 0.8; stroke-linejoin: miter; stroke-linecap: square"/>
   </g>
   <g id="patch_63">
    <path d="M 10.8 10.8 
L 493.2 10.8 
" style="fill: none; stroke: #000000; stroke-width: 0.8; stroke-linejoin: miter; stroke-linecap: square"/>
   </g>
   <g id="text_58">
    <g clip-path="url(#p38d50764e1)">
     <!-- 0 -->
     <g transform="translate(235.6401 26.65365) scale(0.12 -0.12)">
      <use xlink:href="#DejaVuSans-30"/>
     </g>
    </g>
   </g>
   <g id="text_59">
    <g clip-path="url(#p38d50764e1)">
     <!-- 1 -->
     <g transform="translate(64.3881 90.81285) scale(0.12 -0.12)">
      <use xlink:href="#DejaVuSans-31"/>
     </g>
    </g>
   </g>
   <g id="text_60">
    <g clip-path="url(#p38d50764e1)">
     <!-- 2 -->
     <g transform="translate(175.3401 78.27045) scale(0.12 -0.12)">
      <use xlink:href="#DejaVuSans-32"/>
     </g>
    </g>
   </g>
   <g id="text_61">
    <g clip-path="url(#p38d50764e1)">
     <!-- 3 -->
     <g transform="translate(356.7225 397.61925) scale(0.12 -0.12)">
      <use xlink:href="#DejaVuSans-33"/>
     </g>
    </g>
   </g>
   <g id="text_62">
    <g clip-path="url(#p38d50764e1)">
     <!-- 4 -->
     <g transform="translate(318.6129 131.33445) scale(0.12 -0.12)">
      <use xlink:href="#DejaVuSans-34"/>
     </g>
    </g>
   </g>
   <g id="text_63">
    <g clip-path="url(#p38d50764e1)">
     <!-- 5 -->
     <g transform="translate(322.9545 85.98885) scale(0.12 -0.12)">
      <use xlink:href="#DejaVuSans-35"/>
     </g>
    </g>
   </g>
   <g id="text_64">
    <g clip-path="url(#p38d50764e1)">
     <!-- 6 -->
     <g transform="translate(376.5009 264.47685) scale(0.12 -0.12)">
      <use xlink:href="#DejaVuSans-36"/>
     </g>
    </g>
   </g>
   <g id="text_65">
    <g clip-path="url(#p38d50764e1)">
     <!-- 7 -->
     <g transform="translate(131.4417 143.87685) scale(0.12 -0.12)">
      <use xlink:href="#DejaVuSans-37"/>
     </g>
    </g>
   </g>
   <g id="text_66">
    <g clip-path="url(#p38d50764e1)">
     <!-- 8 -->
     <g transform="translate(411.7161 368.19285) scale(0.12 -0.12)">
      <use xlink:href="#DejaVuSans-38"/>
     </g>
    </g>
   </g>
   <g id="text_67">
    <g clip-path="url(#p38d50764e1)">
     <!-- 9 -->
     <g transform="translate(359.6169 382.66485) scale(0.12 -0.12)">
      <use xlink:href="#DejaVuSans-39"/>
     </g>
    </g>
   </g>
   <g id="text_68">
    <g clip-path="url(#p38d50764e1)">
     <!-- 10 -->
     <g transform="translate(296.4642 127.95765) scale(0.12 -0.12)">
      <use xlink:href="#DejaVuSans-31"/>
      <use xlink:href="#DejaVuSans-30" x="63.623047"/>
     </g>
    </g>
   </g>
   <g id="text_69">
    <g clip-path="url(#p38d50764e1)">
     <!-- 11 -->
     <g transform="translate(243.4002 442.00005) scale(0.12 -0.12)">
      <use xlink:href="#DejaVuSans-31"/>
      <use xlink:href="#DejaVuSans-31" x="63.623047"/>
     </g>
    </g>
   </g>
   <g id="text_70">
    <g clip-path="url(#p38d50764e1)">
     <!-- 12 -->
     <g transform="translate(308.5242 222.99045) scale(0.12 -0.12)">
      <use xlink:href="#DejaVuSans-31"/>
      <use xlink:href="#DejaVuSans-32" x="63.623047"/>
     </g>
    </g>
   </g>
   <g id="text_71">
    <g clip-path="url(#p38d50764e1)">
     <!-- 13 -->
     <g transform="translate(77.937 186.81045) scale(0.12 -0.12)">
      <use xlink:href="#DejaVuSans-31"/>
      <use xlink:href="#DejaVuSans-33" x="63.623047"/>
     </g>
    </g>
   </g>
   <g id="text_72">
    <g clip-path="url(#p38d50764e1)">
     <!-- 14 -->
     <g transform="translate(74.5602 109.14405) scale(0.12 -0.12)">
      <use xlink:href="#DejaVuSans-31"/>
      <use xlink:href="#DejaVuSans-34" x="63.623047"/>
     </g>
    </g>
   </g>
   <g id="text_73">
    <g clip-path="url(#p38d50764e1)">
     <!-- 15 -->
     <g transform="translate(434.913 434.76405) scale(0.12 -0.12)">
      <use xlink:href="#DejaVuSans-31"/>
      <use xlink:href="#DejaVuSans-35" x="63.623047"/>
     </g>
    </g>
   </g>
   <g id="text_74">
    <g clip-path="url(#p38d50764e1)">
     <!-- 16 -->
     <g transform="translate(445.0434 193.08165) scale(0.12 -0.12)">
      <use xlink:href="#DejaVuSans-31"/>
      <use xlink:href="#DejaVuSans-36" x="63.623047"/>
     </g>
    </g>
   </g>
   <g id="text_75">
    <g clip-path="url(#p38d50764e1)">
     <!-- 17 -->
     <g transform="translate(221.2098 356.61525) scale(0.12 -0.12)">
      <use xlink:href="#DejaVuSans-31"/>
      <use xlink:href="#DejaVuSans-37" x="63.623047"/>
     </g>
    </g>
   </g>
   <g id="text_76">
    <g clip-path="url(#p38d50764e1)">
     <!-- 18 -->
     <g transform="translate(447.9378 140.01765) scale(0.12 -0.12)">
      <use xlink:href="#DejaVuSans-31"/>
      <use xlink:href="#DejaVuSans-38" x="63.623047"/>
     </g>
    </g>
   </g>
   <g id="text_77">
    <g clip-path="url(#p38d50764e1)">
     <!-- 19 -->
     <g transform="translate(368.8242 175.71525) scale(0.12 -0.12)">
      <use xlink:href="#DejaVuSans-31"/>
      <use xlink:href="#DejaVuSans-39" x="63.623047"/>
     </g>
    </g>
   </g>
   <g id="text_78">
    <g clip-path="url(#p38d50764e1)">
     <!-- 20 -->
     <g transform="translate(169.593 114.93285) scale(0.12 -0.12)">
      <use xlink:href="#DejaVuSans-32"/>
      <use xlink:href="#DejaVuSans-30" x="63.623047"/>
     </g>
    </g>
   </g>
   <g id="text_79">
    <g clip-path="url(#p38d50764e1)">
     <!-- 21 -->
     <g transform="translate(54.7818 440.07045) scale(0.12 -0.12)">
      <use xlink:href="#DejaVuSans-32"/>
      <use xlink:href="#DejaVuSans-31" x="63.623047"/>
     </g>
    </g>
   </g>
  </g>
 </g>
 <defs>
  <clipPath id="p38d50764e1">
   <rect x="10.8" y="10.8" width="482.4" height="482.4"/>
  </clipPath>
 </defs>
</svg>
