<?xml version="1.0" encoding="utf-8" standalone="no"?>
<!DOCTYPE svg PUBLIC "-//W3C//DTD SVG 1.1//EN"
  "http://www.w3.org/Graphics/SVG/1.1/DTD/svg11.dtd">
<svg xmlns:xlink="http://www.w3.org/1999/xlink" width="504pt" height="504pt" viewBox="0 0 504 504" xmlns="http://www.w3.org/2000/svg" version="1.1">
 <metadata>
  <rdf:RDF xmlns:dc="http://purl.org/dc/elements/1.1/" xmlns:cc="http://creativecommons.org/ns#" xmlns:rdf="http://www.w3.org/1999/02/22-rdf-syntax-ns#">
   <cc:Work>
    <dc:type rdf:resource="http://purl.org/dc/dcmitype/StillImage"/>
    <dc:date>2024-10-29T14:59:45.938469</dc:date>
    <dc:format>image/svg+xml</dc:format>
    <dc:creator>
     <cc:Agent>
      <dc:title>Matplotlib v3.9.2, https://matplotlib.org/</dc:title>
     </cc:Agent>
    </dc:creator>
   </cc:Work>
  </rdf:RDF>
 </metadata>
 <defs>
  <style type="text/css">*{stroke-linejoin: round; stroke-linecap: butt}</style>
 </defs>
 <g id="figure_1">
  <g id="patch_1">
   <path d="M 0 504 
L 504 504 
L 504 0 
L 0 0 
L 0 504 
z
" style="fill: none; opacity: 0"/>
  </g>
  <g id="axes_1">
   <g id="patch_2">
    <path d="M 10.8 493.2 
L 493.2 493.2 
L 493.2 10.8 
L 10.8 10.8 
L 10.8 493.2 
z
" style="fill: none; opacity: 0"/>
   </g>
   <g id="LineCollection_1">
    <path d="M 180.1224 392.3784 
L 334.008 370.6704 
" clip-path="url(#p53b9195f74)" style="fill: none; stroke: #000000"/>
    <path d="M 180.1224 392.3784 
L 241.8696 252.9648 
" clip-path="url(#p53b9195f74)" style="fill: none; stroke: #000000"/>
    <path d="M 180.1224 392.3784 
L 341.7264 272.2608 
" clip-path="url(#p53b9195f74)" style="fill: none; stroke: #000000"/>
    <path d="M 180.1224 392.3784 
L 132.8472 61.9344 
" clip-path="url(#p53b9195f74)" style="fill: none; stroke: #000000"/>
    <path d="M 180.1224 392.3784 
L 427.1112 450.7488 
" clip-path="url(#p53b9195f74)" style="fill: none; stroke: #000000"/>
    <path d="M 180.1224 392.3784 
L 336.42 445.4424 
" clip-path="url(#p53b9195f74)" style="fill: none; stroke: #000000"/>
    <path d="M 177.7104 378.8712 
L 107.28 419.3928 
" clip-path="url(#p53b9195f74)" style="fill: none; stroke: #000000"/>
    <path d="M 177.7104 378.8712 
L 380.3184 89.4312 
" clip-path="url(#p53b9195f74)" style="fill: none; stroke: #000000"/>
    <path d="M 177.7104 378.8712 
L 50.3568 384.66 
" clip-path="url(#p53b9195f74)" style="fill: none; stroke: #000000"/>
    <path d="M 177.7104 378.8712 
L 440.136 443.9952 
" clip-path="url(#p53b9195f74)" style="fill: none; stroke: #000000"/>
    <path d="M 177.7104 378.8712 
L 426.6288 386.1072 
" clip-path="url(#p53b9195f74)" style="fill: none; stroke: #000000"/>
    <path d="M 265.9896 411.6744 
L 241.8696 252.9648 
" clip-path="url(#p53b9195f74)" style="fill: none; stroke: #000000"/>
    <path d="M 265.9896 411.6744 
L 231.2568 146.3544 
" clip-path="url(#p53b9195f74)" style="fill: none; stroke: #000000"/>
    <path d="M 265.9896 411.6744 
L 278.532 253.9296 
" clip-path="url(#p53b9195f74)" style="fill: none; stroke: #000000"/>
    <path d="M 265.9896 411.6744 
L 251.0352 227.88 
" clip-path="url(#p53b9195f74)" style="fill: none; stroke: #000000"/>
    <path d="M 427.1112 450.7488 
L 251.0352 227.88 
" clip-path="url(#p53b9195f74)" style="fill: none; stroke: #000000"/>
    <path d="M 427.1112 450.7488 
L 456.5376 372.6 
" clip-path="url(#p53b9195f74)" style="fill: none; stroke: #000000"/>
    <path d="M 427.1112 450.7488 
L 243.3168 262.1304 
" clip-path="url(#p53b9195f74)" style="fill: none; stroke: #000000"/>
    <path d="M 427.1112 450.7488 
L 336.42 445.4424 
" clip-path="url(#p53b9195f74)" style="fill: none; stroke: #000000"/>
    <path d="M 427.1112 450.7488 
L 241.8696 252.9648 
" clip-path="url(#p53b9195f74)" style="fill: none; stroke: #000000"/>
    <path d="M 440.136 443.9952 
L 251.0352 227.88 
" clip-path="url(#p53b9195f74)" style="fill: none; stroke: #000000"/>
    <path d="M 440.136 443.9952 
L 243.3168 262.1304 
" clip-path="url(#p53b9195f74)" style="fill: none; stroke: #000000"/>
    <path d="M 440.136 443.9952 
L 107.28 419.3928 
" clip-path="url(#p53b9195f74)" style="fill: none; stroke: #000000"/>
    <path d="M 440.136 443.9952 
L 334.008 370.6704 
" clip-path="url(#p53b9195f74)" style="fill: none; stroke: #000000"/>
    <path d="M 251.0352 227.88 
L 336.42 445.4424 
" clip-path="url(#p53b9195f74)" style="fill: none; stroke: #000000"/>
    <path d="M 251.0352 227.88 
L 281.4264 400.5792 
" clip-path="url(#p53b9195f74)" style="fill: none; stroke: #000000"/>
    <path d="M 251.0352 227.88 
L 341.7264 272.2608 
" clip-path="url(#p53b9195f74)" style="fill: none; stroke: #000000"/>
    <path d="M 251.0352 227.88 
L 277.0848 328.2192 
" clip-path="url(#p53b9195f74)" style="fill: none; stroke: #000000"/>
    <path d="M 243.3168 262.1304 
L 426.6288 386.1072 
" clip-path="url(#p53b9195f74)" style="fill: none; stroke: #000000"/>
    <path d="M 243.3168 262.1304 
L 197.0064 117.8928 
" clip-path="url(#p53b9195f74)" style="fill: none; stroke: #000000"/>
    <path d="M 243.3168 262.1304 
L 456.5376 372.6 
" clip-path="url(#p53b9195f74)" style="fill: none; stroke: #000000"/>
    <path d="M 243.3168 262.1304 
L 107.28 419.3928 
" clip-path="url(#p53b9195f74)" style="fill: none; stroke: #000000"/>
    <path d="M 166.1328 97.632 
L 132.8472 61.9344 
" clip-path="url(#p53b9195f74)" style="fill: none; stroke: #000000"/>
    <path d="M 166.1328 97.632 
L 231.2568 146.3544 
" clip-path="url(#p53b9195f74)" style="fill: none; stroke: #000000"/>
    <path d="M 166.1328 97.632 
L 426.6288 386.1072 
" clip-path="url(#p53b9195f74)" style="fill: none; stroke: #000000"/>
    <path d="M 277.0848 328.2192 
L 336.42 445.4424 
" clip-path="url(#p53b9195f74)" style="fill: none; stroke: #000000"/>
    <path d="M 277.0848 328.2192 
L 281.4264 400.5792 
" clip-path="url(#p53b9195f74)" style="fill: none; stroke: #000000"/>
    <path d="M 277.0848 328.2192 
L 50.3568 384.66 
" clip-path="url(#p53b9195f74)" style="fill: none; stroke: #000000"/>
    <path d="M 277.0848 328.2192 
L 197.0064 117.8928 
" clip-path="url(#p53b9195f74)" style="fill: none; stroke: #000000"/>
    <path d="M 277.0848 328.2192 
L 278.532 253.9296 
" clip-path="url(#p53b9195f74)" style="fill: none; stroke: #000000"/>
    <path d="M 277.0848 328.2192 
L 231.2568 146.3544 
" clip-path="url(#p53b9195f74)" style="fill: none; stroke: #000000"/>
    <path d="M 277.0848 328.2192 
L 190.2528 286.7328 
" clip-path="url(#p53b9195f74)" style="fill: none; stroke: #000000"/>
    <path d="M 231.2568 146.3544 
L 107.28 419.3928 
" clip-path="url(#p53b9195f74)" style="fill: none; stroke: #000000"/>
    <path d="M 231.2568 146.3544 
L 241.8696 252.9648 
" clip-path="url(#p53b9195f74)" style="fill: none; stroke: #000000"/>
    <path d="M 231.2568 146.3544 
L 281.4264 400.5792 
" clip-path="url(#p53b9195f74)" style="fill: none; stroke: #000000"/>
    <path d="M 231.2568 146.3544 
L 380.3184 89.4312 
" clip-path="url(#p53b9195f74)" style="fill: none; stroke: #000000"/>
    <path d="M 231.2568 146.3544 
L 456.5376 372.6 
" clip-path="url(#p53b9195f74)" style="fill: none; stroke: #000000"/>
    <path d="M 197.0064 117.8928 
L 190.2528 286.7328 
" clip-path="url(#p53b9195f74)" style="fill: none; stroke: #000000"/>
    <path d="M 107.28 419.3928 
L 456.5376 372.6 
" clip-path="url(#p53b9195f74)" style="fill: none; stroke: #000000"/>
    <path d="M 107.28 419.3928 
L 190.2528 286.7328 
" clip-path="url(#p53b9195f74)" style="fill: none; stroke: #000000"/>
    <path d="M 107.28 419.3928 
L 426.6288 386.1072 
" clip-path="url(#p53b9195f74)" style="fill: none; stroke: #000000"/>
    <path d="M 107.28 419.3928 
L 281.4264 400.5792 
" clip-path="url(#p53b9195f74)" style="fill: none; stroke: #000000"/>
    <path d="M 107.28 419.3928 
L 241.8696 252.9648 
" clip-path="url(#p53b9195f74)" style="fill: none; stroke: #000000"/>
    <path d="M 107.28 419.3928 
L 336.42 445.4424 
" clip-path="url(#p53b9195f74)" style="fill: none; stroke: #000000"/>
    <path d="M 380.3184 89.4312 
L 354.7512 83.16 
" clip-path="url(#p53b9195f74)" style="fill: none; stroke: #000000"/>
    <path d="M 380.3184 89.4312 
L 334.008 370.6704 
" clip-path="url(#p53b9195f74)" style="fill: none; stroke: #000000"/>
    <path d="M 380.3184 89.4312 
L 241.8696 252.9648 
" clip-path="url(#p53b9195f74)" style="fill: none; stroke: #000000"/>
    <path d="M 456.5376 372.6 
L 354.7512 83.16 
" clip-path="url(#p53b9195f74)" style="fill: none; stroke: #000000"/>
    <path d="M 456.5376 372.6 
L 241.8696 252.9648 
" clip-path="url(#p53b9195f74)" style="fill: none; stroke: #000000"/>
    <path d="M 456.5376 372.6 
L 50.3568 384.66 
" clip-path="url(#p53b9195f74)" style="fill: none; stroke: #000000"/>
    <path d="M 341.7264 272.2608 
L 426.6288 386.1072 
" clip-path="url(#p53b9195f74)" style="fill: none; stroke: #000000"/>
    <path d="M 341.7264 272.2608 
L 336.42 445.4424 
" clip-path="url(#p53b9195f74)" style="fill: none; stroke: #000000"/>
    <path d="M 341.7264 272.2608 
L 278.532 253.9296 
" clip-path="url(#p53b9195f74)" style="fill: none; stroke: #000000"/>
    <path d="M 132.8472 61.9344 
L 190.2528 286.7328 
" clip-path="url(#p53b9195f74)" style="fill: none; stroke: #000000"/>
    <path d="M 132.8472 61.9344 
L 354.7512 83.16 
" clip-path="url(#p53b9195f74)" style="fill: none; stroke: #000000"/>
    <path d="M 132.8472 61.9344 
L 336.42 445.4424 
" clip-path="url(#p53b9195f74)" style="fill: none; stroke: #000000"/>
    <path d="M 50.3568 384.66 
L 354.7512 83.16 
" clip-path="url(#p53b9195f74)" style="fill: none; stroke: #000000"/>
    <path d="M 50.3568 384.66 
L 190.2528 286.7328 
" clip-path="url(#p53b9195f74)" style="fill: none; stroke: #000000"/>
    <path d="M 336.42 445.4424 
L 334.008 370.6704 
" clip-path="url(#p53b9195f74)" style="fill: none; stroke: #000000"/>
    <path d="M 336.42 445.4424 
L 281.4264 400.5792 
" clip-path="url(#p53b9195f74)" style="fill: none; stroke: #000000"/>
    <path d="M 281.4264 400.5792 
L 354.7512 83.16 
" clip-path="url(#p53b9195f74)" style="fill: none; stroke: #000000"/>
    <path d="M 334.008 370.6704 
L 278.532 253.9296 
" clip-path="url(#p53b9195f74)" style="fill: none; stroke: #000000"/>
    <path d="M 334.008 370.6704 
L 241.8696 252.9648 
" clip-path="url(#p53b9195f74)" style="fill: none; stroke: #000000"/>
    <path d="M 241.8696 252.9648 
L 354.7512 83.16 
" clip-path="url(#p53b9195f74)" style="fill: none; stroke: #000000"/>
    <path d="M 190.2528 286.7328 
L 426.6288 386.1072 
" clip-path="url(#p53b9195f74)" style="fill: none; stroke: #000000"/>
   </g>
   <g id="text_1">
    <g id="patch_3">
     <path d="M 251.864228 390.174755 
L 264.464476 388.39729 
Q 267.435065 387.978242 267.016016 385.007653 
L 265.664148 375.424409 
Q 265.245099 372.45382 262.274511 372.872869 
L 249.674263 374.650333 
Q 246.703674 375.069382 247.122722 378.039971 
L 248.474591 387.623214 
Q 248.893639 390.593803 251.864228 390.174755 
z
" clip-path="url(#p53b9195f74)" style="fill: #ffffff; stroke: #ffffff; stroke-linejoin: miter"/>
    </g>
    <g clip-path="url(#p53b9195f74)">
     <!-- 18 -->
     <g transform="translate(251.154683 385.144867) rotate(-8.029495) scale(0.1 -0.1)">
      <defs>
       <path id="DejaVuSans-31" d="M 794 531 
L 1825 531 
L 1825 4091 
L 703 3866 
L 703 4441 
L 1819 4666 
L 2450 4666 
L 2450 531 
L 3481 531 
L 3481 0 
L 794 0 
L 794 531 
z
" transform="scale(0.015625)"/>
       <path id="DejaVuSans-38" d="M 2034 2216 
Q 1584 2216 1326 1975 
Q 1069 1734 1069 1313 
Q 1069 891 1326 650 
Q 1584 409 2034 409 
Q 2484 409 2743 651 
Q 3003 894 3003 1313 
Q 3003 1734 2745 1975 
Q 2488 2216 2034 2216 
z
M 1403 2484 
Q 997 2584 770 2862 
Q 544 3141 544 3541 
Q 544 4100 942 4425 
Q 1341 4750 2034 4750 
Q 2731 4750 3128 4425 
Q 3525 4100 3525 3541 
Q 3525 3141 3298 2862 
Q 3072 2584 2669 2484 
Q 3125 2378 3379 2068 
Q 3634 1759 3634 1313 
Q 3634 634 3220 271 
Q 2806 -91 2034 -91 
Q 1263 -91 848 271 
Q 434 634 434 1313 
Q 434 1759 690 2068 
Q 947 2378 1403 2484 
z
M 1172 3481 
Q 1172 3119 1398 2916 
Q 1625 2713 2034 2713 
Q 2441 2713 2670 2916 
Q 2900 3119 2900 3481 
Q 2900 3844 2670 4047 
Q 2441 4250 2034 4250 
Q 1625 4250 1398 4047 
Q 1172 3844 1172 3481 
z
" transform="scale(0.015625)"/>
      </defs>
      <use xlink:href="#DejaVuSans-31"/>
      <use xlink:href="#DejaVuSans-38" x="63.623047"/>
     </g>
    </g>
   </g>
   <g id="text_2">
    <g id="patch_4">
     <path d="M 215.586978 331.663466 
L 220.740144 320.028583 
Q 221.955036 317.285585 219.212038 316.070694 
L 210.363012 312.151402 
Q 207.620014 310.93651 206.405122 313.679508 
L 201.251956 325.314391 
Q 200.037064 328.057389 202.780062 329.272281 
L 211.629088 333.191573 
Q 214.372086 334.406464 215.586978 331.663466 
z
" clip-path="url(#p53b9195f74)" style="fill: #ffffff; stroke: #ffffff; stroke-linejoin: miter"/>
    </g>
    <g clip-path="url(#p53b9195f74)">
     <!-- 12 -->
     <g transform="translate(210.942454 329.606376) rotate(-66.111132) scale(0.1 -0.1)">
      <defs>
       <path id="DejaVuSans-32" d="M 1228 531 
L 3431 531 
L 3431 0 
L 469 0 
L 469 531 
Q 828 903 1448 1529 
Q 2069 2156 2228 2338 
Q 2531 2678 2651 2914 
Q 2772 3150 2772 3378 
Q 2772 3750 2511 3984 
Q 2250 4219 1831 4219 
Q 1534 4219 1204 4116 
Q 875 4013 500 3803 
L 500 4441 
Q 881 4594 1212 4672 
Q 1544 4750 1819 4750 
Q 2544 4750 2975 4387 
Q 3406 4025 3406 3419 
Q 3406 3131 3298 2873 
Q 3191 2616 2906 2266 
Q 2828 2175 2409 1742 
Q 1991 1309 1228 531 
z
" transform="scale(0.015625)"/>
      </defs>
      <use xlink:href="#DejaVuSans-31"/>
      <use xlink:href="#DejaVuSans-32" x="63.623047"/>
     </g>
    </g>
   </g>
   <g id="text_3">
    <g id="patch_5">
     <path d="M 263.048378 340.508211 
L 268.154793 336.712696 
Q 270.562533 334.923063 268.772899 332.515323 
L 262.999467 324.747853 
Q 261.209833 322.340113 258.802093 324.129747 
L 253.695678 327.925261 
Q 251.287938 329.714895 253.077572 332.122635 
L 258.851004 339.890104 
Q 260.640638 342.297844 263.048378 340.508211 
z
" clip-path="url(#p53b9195f74)" style="fill: #ffffff; stroke: #ffffff; stroke-linejoin: miter"/>
    </g>
    <g clip-path="url(#p53b9195f74)">
     <!-- 5 -->
     <g transform="translate(260.018118 336.431355) rotate(-36.622816) scale(0.1 -0.1)">
      <defs>
       <path id="DejaVuSans-35" d="M 691 4666 
L 3169 4666 
L 3169 4134 
L 1269 4134 
L 1269 2991 
Q 1406 3038 1543 3061 
Q 1681 3084 1819 3084 
Q 2600 3084 3056 2656 
Q 3513 2228 3513 1497 
Q 3513 744 3044 326 
Q 2575 -91 1722 -91 
Q 1428 -91 1123 -41 
Q 819 9 494 109 
L 494 744 
Q 775 591 1075 516 
Q 1375 441 1709 441 
Q 2250 441 2565 725 
Q 2881 1009 2881 1497 
Q 2881 1984 2565 2268 
Q 2250 2553 1709 2553 
Q 1456 2553 1204 2497 
Q 953 2441 691 2322 
L 691 4666 
z
" transform="scale(0.015625)"/>
      </defs>
      <use xlink:href="#DejaVuSans-35"/>
     </g>
    </g>
   </g>
   <g id="text_4">
    <g id="patch_6">
     <path d="M 147.823389 221.966265 
L 149.625551 234.563004 
Q 150.050422 237.532765 153.020183 237.107894 
L 162.600758 235.737243 
Q 165.57052 235.312372 165.145649 232.34261 
L 163.343488 219.745871 
Q 162.918617 216.776109 159.948855 217.20098 
L 150.36828 218.571632 
Q 147.398518 218.996503 147.823389 221.966265 
z
" clip-path="url(#p53b9195f74)" style="fill: #ffffff; stroke: #ffffff; stroke-linejoin: miter"/>
    </g>
    <g clip-path="url(#p53b9195f74)">
     <!-- 19 -->
     <g transform="translate(152.851877 221.24686) rotate(-278.141812) scale(0.1 -0.1)">
      <defs>
       <path id="DejaVuSans-39" d="M 703 97 
L 703 672 
Q 941 559 1184 500 
Q 1428 441 1663 441 
Q 2288 441 2617 861 
Q 2947 1281 2994 2138 
Q 2813 1869 2534 1725 
Q 2256 1581 1919 1581 
Q 1219 1581 811 2004 
Q 403 2428 403 3163 
Q 403 3881 828 4315 
Q 1253 4750 1959 4750 
Q 2769 4750 3195 4129 
Q 3622 3509 3622 2328 
Q 3622 1225 3098 567 
Q 2575 -91 1691 -91 
Q 1453 -91 1209 -44 
Q 966 3 703 97 
z
M 1959 2075 
Q 2384 2075 2632 2365 
Q 2881 2656 2881 3163 
Q 2881 3666 2632 3958 
Q 2384 4250 1959 4250 
Q 1534 4250 1286 3958 
Q 1038 3666 1038 3163 
Q 1038 2656 1286 2365 
Q 1534 2075 1959 2075 
z
" transform="scale(0.015625)"/>
      </defs>
      <use xlink:href="#DejaVuSans-31"/>
      <use xlink:href="#DejaVuSans-39" x="63.623047"/>
     </g>
    </g>
   </g>
   <g id="text_5">
    <g id="patch_7">
     <path d="M 295.623858 427.729641 
L 308.007731 430.656299 
Q 310.927308 431.346277 311.617286 428.4267 
L 313.843185 419.008023 
Q 314.533163 416.088445 311.613586 415.398467 
L 299.229713 412.47181 
Q 296.310136 411.781832 295.620158 414.701409 
L 293.39426 424.120086 
Q 292.704281 427.039663 295.623858 427.729641 
z
" clip-path="url(#p53b9195f74)" style="fill: #ffffff; stroke: #ffffff; stroke-linejoin: miter"/>
    </g>
    <g clip-path="url(#p53b9195f74)">
     <!-- 13 -->
     <g transform="translate(296.79215 422.786128) rotate(-346.703357) scale(0.1 -0.1)">
      <defs>
       <path id="DejaVuSans-33" d="M 2597 2516 
Q 3050 2419 3304 2112 
Q 3559 1806 3559 1356 
Q 3559 666 3084 287 
Q 2609 -91 1734 -91 
Q 1441 -91 1130 -33 
Q 819 25 488 141 
L 488 750 
Q 750 597 1062 519 
Q 1375 441 1716 441 
Q 2309 441 2620 675 
Q 2931 909 2931 1356 
Q 2931 1769 2642 2001 
Q 2353 2234 1838 2234 
L 1294 2234 
L 1294 2753 
L 1863 2753 
Q 2328 2753 2575 2939 
Q 2822 3125 2822 3475 
Q 2822 3834 2567 4026 
Q 2313 4219 1838 4219 
Q 1578 4219 1281 4162 
Q 984 4106 628 3988 
L 628 4550 
Q 988 4650 1302 4700 
Q 1616 4750 1894 4750 
Q 2613 4750 3031 4423 
Q 3450 4097 3450 3541 
Q 3450 3153 3228 2886 
Q 3006 2619 2597 2516 
z
" transform="scale(0.015625)"/>
      </defs>
      <use xlink:href="#DejaVuSans-31"/>
      <use xlink:href="#DejaVuSans-33" x="63.623047"/>
     </g>
    </g>
   </g>
   <g id="text_6">
    <g id="patch_8">
     <path d="M 252.738081 425.310399 
L 258.762829 427.355838 
Q 261.603575 428.320288 262.568025 425.479543 
L 265.679383 416.31518 
Q 266.643834 413.474434 263.803088 412.509984 
L 257.778341 410.464544 
Q 254.937595 409.500094 253.973144 412.340839 
L 250.861787 421.505203 
Q 249.897336 424.345948 252.738081 425.310399 
z
" clip-path="url(#p53b9195f74)" style="fill: #ffffff; stroke: #ffffff; stroke-linejoin: miter"/>
    </g>
    <g clip-path="url(#p53b9195f74)">
     <!-- 6 -->
     <g transform="translate(254.371117 420.500366) rotate(-341.247333) scale(0.1 -0.1)">
      <defs>
       <path id="DejaVuSans-36" d="M 2113 2584 
Q 1688 2584 1439 2293 
Q 1191 2003 1191 1497 
Q 1191 994 1439 701 
Q 1688 409 2113 409 
Q 2538 409 2786 701 
Q 3034 994 3034 1497 
Q 3034 2003 2786 2293 
Q 2538 2584 2113 2584 
z
M 3366 4563 
L 3366 3988 
Q 3128 4100 2886 4159 
Q 2644 4219 2406 4219 
Q 1781 4219 1451 3797 
Q 1122 3375 1075 2522 
Q 1259 2794 1537 2939 
Q 1816 3084 2150 3084 
Q 2853 3084 3261 2657 
Q 3669 2231 3669 1497 
Q 3669 778 3244 343 
Q 2819 -91 2113 -91 
Q 1303 -91 875 529 
Q 447 1150 447 2328 
Q 447 3434 972 4092 
Q 1497 4750 2381 4750 
Q 2619 4750 2861 4703 
Q 3103 4656 3366 4563 
z
" transform="scale(0.015625)"/>
      </defs>
      <use xlink:href="#DejaVuSans-36"/>
     </g>
    </g>
   </g>
   <g id="text_7">
    <g id="patch_9">
     <path d="M 143.646072 407.513765 
L 149.160947 404.340823 
Q 151.761281 402.844741 150.265198 400.244407 
L 145.438774 391.855621 
Q 143.942691 389.255287 141.342357 390.751369 
L 135.827482 393.924311 
Q 133.227148 395.420394 134.723231 398.020728 
L 139.549655 406.409513 
Q 141.045738 409.009847 143.646072 407.513765 
z
" clip-path="url(#p53b9195f74)" style="fill: #ffffff; stroke: #ffffff; stroke-linejoin: miter"/>
    </g>
    <g clip-path="url(#p53b9195f74)">
     <!-- 4 -->
     <g transform="translate(141.112861 403.110804) rotate(-29.913646) scale(0.1 -0.1)">
      <defs>
       <path id="DejaVuSans-34" d="M 2419 4116 
L 825 1625 
L 2419 1625 
L 2419 4116 
z
M 2253 4666 
L 3047 4666 
L 3047 1625 
L 3713 1625 
L 3713 1100 
L 3047 1100 
L 3047 0 
L 2419 0 
L 2419 1100 
L 313 1100 
L 313 1709 
L 2253 4666 
z
" transform="scale(0.015625)"/>
      </defs>
      <use xlink:href="#DejaVuSans-34"/>
     </g>
    </g>
   </g>
   <g id="text_8">
    <g id="patch_10">
     <path d="M 283.612641 241.251991 
L 287.261295 236.039628 
Q 288.981682 233.581933 286.523987 231.861546 
L 278.595358 226.311505 
Q 276.137662 224.591118 274.417275 227.048814 
L 270.768621 232.261177 
Q 269.048234 234.718873 271.50593 236.43926 
L 279.434558 241.9893 
Q 281.892254 243.709687 283.612641 241.251991 
z
" clip-path="url(#p53b9195f74)" style="fill: #ffffff; stroke: #ffffff; stroke-linejoin: miter"/>
    </g>
    <g clip-path="url(#p53b9195f74)">
     <!-- 1 -->
     <g transform="translate(279.451199 238.338982) rotate(-55.00798) scale(0.1 -0.1)">
      <use xlink:href="#DejaVuSans-31"/>
     </g>
    </g>
   </g>
   <g id="text_9">
    <g id="patch_11">
     <path d="M 111.21505 389.740872 
L 117.570987 389.451966 
Q 120.567893 389.315743 120.43167 386.318838 
L 119.992209 376.650695 
Q 119.855986 373.65379 116.85908 373.790013 
L 110.503143 374.078919 
Q 107.506237 374.215142 107.64246 377.212047 
L 108.081921 386.88019 
Q 108.218144 389.877095 111.21505 389.740872 
z
" clip-path="url(#p53b9195f74)" style="fill: #ffffff; stroke: #ffffff; stroke-linejoin: miter"/>
    </g>
    <g clip-path="url(#p53b9195f74)">
     <!-- 6 -->
     <g transform="translate(110.984393 384.666424) rotate(-2.602562) scale(0.1 -0.1)">
      <use xlink:href="#DejaVuSans-36"/>
     </g>
    </g>
   </g>
   <g id="text_10">
    <g id="patch_12">
     <path d="M 300.858858 417.508776 
L 313.209245 420.57367 
Q 316.120927 421.296238 316.843495 418.384556 
L 319.174531 408.991347 
Q 319.897099 406.079664 316.985416 405.357096 
L 304.63503 402.292202 
Q 301.723347 401.569634 301.000779 404.481317 
L 298.669744 413.874526 
Q 297.947175 416.786208 300.858858 417.508776 
z
" clip-path="url(#p53b9195f74)" style="fill: #ffffff; stroke: #ffffff; stroke-linejoin: miter"/>
    </g>
    <g clip-path="url(#p53b9195f74)">
     <!-- 14 -->
     <g transform="translate(302.082332 412.578631) rotate(-346.062927) scale(0.1 -0.1)">
      <use xlink:href="#DejaVuSans-31"/>
      <use xlink:href="#DejaVuSans-34" x="63.623047"/>
     </g>
    </g>
   </g>
   <g id="text_11">
    <g id="patch_13">
     <path d="M 295.582199 390.14008 
L 308.301826 390.509836 
Q 311.300559 390.597009 311.387732 387.598276 
L 311.668954 377.924237 
Q 311.756126 374.925504 308.757393 374.838332 
L 296.037766 374.468575 
Q 293.039033 374.381403 292.951861 377.380136 
L 292.670638 387.054174 
Q 292.583466 390.052907 295.582199 390.14008 
z
" clip-path="url(#p53b9195f74)" style="fill: #ffffff; stroke: #ffffff; stroke-linejoin: miter"/>
    </g>
    <g clip-path="url(#p53b9195f74)">
     <!-- 15 -->
     <g transform="translate(295.729802 385.062537) rotate(-358.334894) scale(0.1 -0.1)">
      <use xlink:href="#DejaVuSans-31"/>
      <use xlink:href="#DejaVuSans-35" x="63.623047"/>
     </g>
    </g>
   </g>
   <g id="text_12">
    <g id="patch_14">
     <path d="M 245.224005 327.210092 
L 247.135942 339.790638 
Q 247.586694 342.756582 250.552638 342.30583 
L 260.120896 340.851688 
Q 263.08684 340.400936 262.636089 337.434992 
L 260.724152 324.854447 
Q 260.273401 321.888503 257.307457 322.339254 
L 247.739198 323.793397 
Q 244.773254 324.244148 245.224005 327.210092 
z
" clip-path="url(#p53b9195f74)" style="fill: #ffffff; stroke: #ffffff; stroke-linejoin: miter"/>
    </g>
    <g clip-path="url(#p53b9195f74)">
     <!-- 13 -->
     <g transform="translate(250.246028 326.446867) rotate(-278.641441) scale(0.1 -0.1)">
      <use xlink:href="#DejaVuSans-31"/>
      <use xlink:href="#DejaVuSans-33" x="63.623047"/>
     </g>
    </g>
   </g>
   <g id="text_13">
    <g id="patch_15">
     <path d="M 240.024352 273.721409 
L 241.676078 286.338755 
Q 242.065483 289.313375 245.040103 288.923971 
L 254.63635 287.667734 
Q 257.61097 287.27833 257.221566 284.30371 
L 255.56984 271.686363 
Q 255.180436 268.711743 252.205816 269.101148 
L 242.609568 270.357384 
Q 239.634948 270.746789 240.024352 273.721409 
z
" clip-path="url(#p53b9195f74)" style="fill: #ffffff; stroke: #ffffff; stroke-linejoin: miter"/>
    </g>
    <g clip-path="url(#p53b9195f74)">
     <!-- 11 -->
     <g transform="translate(245.061066 273.062058) rotate(-277.458128) scale(0.1 -0.1)">
      <use xlink:href="#DejaVuSans-31"/>
      <use xlink:href="#DejaVuSans-31" x="63.623047"/>
     </g>
    </g>
   </g>
   <g id="text_14">
    <g id="patch_16">
     <path d="M 279.570867 339.766293 
L 280.579457 327.081327 
Q 280.817239 324.090765 277.826677 323.852983 
L 268.179 323.085889 
Q 265.188438 322.848108 264.950657 325.83867 
L 263.942066 338.523636 
Q 263.704284 341.514198 266.694846 341.751979 
L 276.342523 342.519073 
Q 279.333085 342.756855 279.570867 339.766293 
z
" clip-path="url(#p53b9195f74)" style="fill: #ffffff; stroke: #ffffff; stroke-linejoin: miter"/>
    </g>
    <g clip-path="url(#p53b9195f74)">
     <!-- 11 -->
     <g transform="translate(274.50716 339.363674) rotate(-85.453936) scale(0.1 -0.1)">
      <use xlink:href="#DejaVuSans-31"/>
      <use xlink:href="#DejaVuSans-31" x="63.623047"/>
     </g>
    </g>
   </g>
   <g id="text_15">
    <g id="patch_17">
     <path d="M 250.441213 317.242704 
L 250.957192 323.584248 
Q 251.200482 326.574366 254.190601 326.331076 
L 263.836849 325.546211 
Q 266.826967 325.30292 266.583677 322.312801 
L 266.067698 315.971258 
Q 265.824408 312.981139 262.834289 313.22443 
L 253.188041 314.009295 
Q 250.197923 314.252586 250.441213 317.242704 
z
" clip-path="url(#p53b9195f74)" style="fill: #ffffff; stroke: #ffffff; stroke-linejoin: miter"/>
    </g>
    <g clip-path="url(#p53b9195f74)">
     <!-- 6 -->
     <g transform="translate(255.504169 316.830758) rotate(-274.651614) scale(0.1 -0.1)">
      <use xlink:href="#DejaVuSans-36"/>
     </g>
    </g>
   </g>
   <g id="text_16">
    <g id="patch_18">
     <path d="M 328.976759 339.180084 
L 336.865235 349.16495 
Q 338.724994 351.518946 341.07899 349.659188 
L 348.673079 343.659528 
Q 351.027075 341.79977 349.167317 339.445774 
L 341.27884 329.460907 
Q 339.419081 327.106911 337.065085 328.96667 
L 329.470996 334.966329 
Q 327.117 336.826088 328.976759 339.180084 
z
" clip-path="url(#p53b9195f74)" style="fill: #ffffff; stroke: #ffffff; stroke-linejoin: miter"/>
    </g>
    <g clip-path="url(#p53b9195f74)">
     <!-- 17 -->
     <g transform="translate(332.962613 336.031086) rotate(-308.310263) scale(0.1 -0.1)">
      <defs>
       <path id="DejaVuSans-37" d="M 525 4666 
L 3525 4666 
L 3525 4397 
L 1831 0 
L 1172 0 
L 2766 4134 
L 525 4134 
L 525 4666 
z
" transform="scale(0.015625)"/>
      </defs>
      <use xlink:href="#DejaVuSans-31"/>
      <use xlink:href="#DejaVuSans-37" x="63.623047"/>
     </g>
    </g>
   </g>
   <g id="text_17">
    <g id="patch_19">
     <path d="M 448.040534 417.411441 
L 450.282611 411.457073 
Q 451.339779 408.649513 448.532218 407.592345 
L 439.474911 404.181877 
Q 436.66735 403.124709 435.610182 405.93227 
L 433.368106 411.886638 
Q 432.310938 414.694198 435.118498 415.751366 
L 444.175805 419.161834 
Q 446.983366 420.219002 448.040534 417.411441 
z
" clip-path="url(#p53b9195f74)" style="fill: #ffffff; stroke: #ffffff; stroke-linejoin: miter"/>
    </g>
    <g clip-path="url(#p53b9195f74)">
     <!-- 4 -->
     <g transform="translate(443.28669 415.621414) rotate(-69.366476) scale(0.1 -0.1)">
      <use xlink:href="#DejaVuSans-34"/>
     </g>
    </g>
   </g>
   <g id="text_18">
    <g id="patch_20">
     <path d="M 327.380445 359.632977 
L 331.820762 364.189839 
Q 333.914429 366.338457 336.063047 364.24479 
L 342.994579 357.490535 
Q 345.143198 355.396869 343.049531 353.24825 
L 338.609214 348.691389 
Q 336.515547 346.542771 334.366929 348.636437 
L 327.435396 355.390692 
Q 325.286778 357.484359 327.380445 359.632977 
z
" clip-path="url(#p53b9195f74)" style="fill: #ffffff; stroke: #ffffff; stroke-linejoin: miter"/>
    </g>
    <g clip-path="url(#p53b9195f74)">
     <!-- 5 -->
     <g transform="translate(331.018548 356.08792) rotate(-314.257868) scale(0.1 -0.1)">
      <use xlink:href="#DejaVuSans-35"/>
     </g>
    </g>
   </g>
   <g id="text_19">
    <g id="patch_21">
     <path d="M 378.133151 455.735533 
L 384.484788 456.107171 
Q 387.479666 456.282403 387.654898 453.287525 
L 388.220205 443.625924 
Q 388.395437 440.631046 385.400559 440.455814 
L 379.048922 440.084176 
Q 376.054044 439.908944 375.878812 442.903822 
L 375.313506 452.565423 
Q 375.138273 455.5603 378.133151 455.735533 
z
" clip-path="url(#p53b9195f74)" style="fill: #ffffff; stroke: #ffffff; stroke-linejoin: miter"/>
    </g>
    <g clip-path="url(#p53b9195f74)">
     <!-- 2 -->
     <g transform="translate(378.42986 450.664518) rotate(-356.651405) scale(0.1 -0.1)">
      <use xlink:href="#DejaVuSans-32"/>
     </g>
    </g>
   </g>
   <g id="text_20">
    <g id="patch_22">
     <path d="M 326.592626 354.891844 
L 330.941941 359.535643 
Q 332.992698 361.725254 335.182309 359.674497 
L 342.246084 353.058668 
Q 344.435694 351.007911 342.384937 348.8183 
L 338.035623 344.174501 
Q 335.984866 341.984891 333.795255 344.035648 
L 326.73148 350.651476 
Q 324.541869 352.702234 326.592626 354.891844 
z
" clip-path="url(#p53b9195f74)" style="fill: #ffffff; stroke: #ffffff; stroke-linejoin: miter"/>
    </g>
    <g clip-path="url(#p53b9195f74)">
     <!-- 3 -->
     <g transform="translate(330.300139 351.419442) rotate(-313.124486) scale(0.1 -0.1)">
      <use xlink:href="#DejaVuSans-33"/>
     </g>
    </g>
   </g>
   <g id="text_21">
    <g id="patch_23">
     <path d="M 337.589145 338.703134 
L 341.778881 343.491404 
Q 343.754395 345.749134 346.012125 343.77362 
L 353.295656 337.40053 
Q 355.553386 335.425016 353.577872 333.167286 
L 349.388137 328.379017 
Q 347.412623 326.121287 345.154893 328.096801 
L 337.871362 334.46989 
Q 335.613632 336.445404 337.589145 338.703134 
z
" clip-path="url(#p53b9195f74)" style="fill: #ffffff; stroke: #ffffff; stroke-linejoin: miter"/>
    </g>
    <g clip-path="url(#p53b9195f74)">
     <!-- 7 -->
     <g transform="translate(341.412 335.358137) rotate(-311.185925) scale(0.1 -0.1)">
      <use xlink:href="#DejaVuSans-37"/>
     </g>
    </g>
   </g>
   <g id="text_22">
    <g id="patch_24">
     <path d="M 331.735335 354.504118 
L 341.081316 363.139988 
Q 343.284691 365.17595 345.320653 362.972575 
L 351.88875 355.864396 
Q 353.924711 353.661021 351.721336 351.625059 
L 342.375355 342.989189 
Q 340.17198 340.953228 338.136018 343.156602 
L 331.567922 350.264781 
Q 329.53196 352.468156 331.735335 354.504118 
z
" clip-path="url(#p53b9195f74)" style="fill: #ffffff; stroke: #ffffff; stroke-linejoin: miter"/>
    </g>
    <g clip-path="url(#p53b9195f74)">
     <!-- 14 -->
     <g transform="translate(335.182684 350.773299) rotate(-317.261461) scale(0.1 -0.1)">
      <use xlink:href="#DejaVuSans-31"/>
      <use xlink:href="#DejaVuSans-34" x="63.623047"/>
     </g>
    </g>
   </g>
   <g id="text_23">
    <g id="patch_25">
     <path d="M 269.955595 439.277095 
L 276.300786 439.746087 
Q 279.292625 439.967223 279.513761 436.975384 
L 280.227154 427.323588 
Q 280.44829 424.331749 277.456451 424.110613 
L 271.11126 423.641621 
Q 268.119421 423.420485 267.898285 426.412324 
L 267.184892 436.06412 
Q 266.963756 439.055959 269.955595 439.277095 
z
" clip-path="url(#p53b9195f74)" style="fill: #ffffff; stroke: #ffffff; stroke-linejoin: miter"/>
    </g>
    <g clip-path="url(#p53b9195f74)">
     <!-- 4 -->
     <g transform="translate(270.330028 434.211226) rotate(-355.772781) scale(0.1 -0.1)">
      <use xlink:href="#DejaVuSans-34"/>
     </g>
    </g>
   </g>
   <g id="text_24">
    <g id="patch_26">
     <path d="M 380.001456 411.975804 
L 385.236078 415.592451 
Q 387.704269 417.297747 389.409564 414.829556 
L 394.910919 406.867069 
Q 396.616215 404.398878 394.148024 402.693582 
L 388.913402 399.076935 
Q 386.445211 397.371639 384.739915 399.83983 
L 379.238561 407.802317 
Q 377.533265 410.270508 380.001456 411.975804 
z
" clip-path="url(#p53b9195f74)" style="fill: #ffffff; stroke: #ffffff; stroke-linejoin: miter"/>
    </g>
    <g clip-path="url(#p53b9195f74)">
     <!-- 5 -->
     <g transform="translate(382.888912 407.796591) rotate(-325.359052) scale(0.1 -0.1)">
      <use xlink:href="#DejaVuSans-35"/>
     </g>
    </g>
   </g>
   <g id="text_25">
    <g id="patch_27">
     <path d="M 284.106903 333.60475 
L 288.755766 345.450159 
Q 289.851765 348.242789 292.644396 347.14679 
L 301.653538 343.611051 
Q 304.446169 342.515052 303.35017 339.722421 
L 298.701307 327.877013 
Q 297.605308 325.084382 294.812677 326.180382 
L 285.803534 329.716121 
Q 283.010904 330.81212 284.106903 333.60475 
z
" clip-path="url(#p53b9195f74)" style="fill: #ffffff; stroke: #ffffff; stroke-linejoin: miter"/>
    </g>
    <g clip-path="url(#p53b9195f74)">
     <!-- 15 -->
     <g transform="translate(288.835466 331.748973) rotate(-291.428081) scale(0.1 -0.1)">
      <use xlink:href="#DejaVuSans-31"/>
      <use xlink:href="#DejaVuSans-35" x="63.623047"/>
     </g>
    </g>
   </g>
   <g id="text_26">
    <g id="patch_28">
     <path d="M 257.959055 312.455357 
L 259.061769 318.72157 
Q 259.581712 321.676169 262.536312 321.156226 
L 272.067973 319.478867 
Q 275.022573 318.958923 274.502629 316.004323 
L 273.399916 309.73811 
Q 272.879972 306.783511 269.925373 307.303454 
L 260.393711 308.980813 
Q 257.439112 309.500757 257.959055 312.455357 
z
" clip-path="url(#p53b9195f74)" style="fill: #ffffff; stroke: #ffffff; stroke-linejoin: miter"/>
    </g>
    <g clip-path="url(#p53b9195f74)">
     <!-- 4 -->
     <g transform="translate(262.961869 311.574973) rotate(-279.980587) scale(0.1 -0.1)">
      <use xlink:href="#DejaVuSans-34"/>
     </g>
    </g>
   </g>
   <g id="text_27">
    <g id="patch_29">
     <path d="M 287.219921 254.314779 
L 298.649729 259.908089 
Q 301.344379 261.226748 302.663038 258.532097 
L 306.917085 249.839044 
Q 308.235744 247.144394 305.541094 245.825735 
L 294.111286 240.232425 
Q 291.416636 238.913766 290.097977 241.608416 
L 285.84393 250.30147 
Q 284.525271 252.99612 287.219921 254.314779 
z
" clip-path="url(#p53b9195f74)" style="fill: #ffffff; stroke: #ffffff; stroke-linejoin: miter"/>
    </g>
    <g clip-path="url(#p53b9195f74)">
     <!-- 11 -->
     <g transform="translate(289.452712 249.752119) rotate(-333.924644) scale(0.1 -0.1)">
      <use xlink:href="#DejaVuSans-31"/>
      <use xlink:href="#DejaVuSans-31" x="63.623047"/>
     </g>
    </g>
   </g>
   <g id="text_28">
    <g id="patch_30">
     <path d="M 255.672867 276.939492 
L 257.271668 283.097839 
Q 258.025524 286.001578 260.929263 285.247723 
L 270.296847 282.815754 
Q 273.200586 282.061898 272.446731 279.158159 
L 270.847929 272.999812 
Q 270.094074 270.096073 267.190335 270.849928 
L 257.822751 273.281897 
Q 254.919011 274.035752 255.672867 276.939492 
z
" clip-path="url(#p53b9195f74)" style="fill: #ffffff; stroke: #ffffff; stroke-linejoin: miter"/>
    </g>
    <g clip-path="url(#p53b9195f74)">
     <!-- 7 -->
     <g transform="translate(260.589563 275.663042) rotate(-284.553573) scale(0.1 -0.1)">
      <use xlink:href="#DejaVuSans-37"/>
     </g>
    </g>
   </g>
   <g id="text_29">
    <g id="patch_31">
     <path d="M 325.311503 327.04826 
L 335.852167 334.177077 
Q 338.337195 335.857741 340.01786 333.372712 
L 345.439752 325.355906 
Q 347.120416 322.870877 344.635388 321.190213 
L 334.094724 314.061396 
Q 331.609695 312.380732 329.929031 314.865761 
L 324.507138 322.882567 
Q 322.826474 325.367596 325.311503 327.04826 
z
" clip-path="url(#p53b9195f74)" style="fill: #ffffff; stroke: #ffffff; stroke-linejoin: miter"/>
    </g>
    <g clip-path="url(#p53b9195f74)">
     <!-- 16 -->
     <g transform="translate(328.157253 322.840537) rotate(-325.92889) scale(0.1 -0.1)">
      <use xlink:href="#DejaVuSans-31"/>
      <use xlink:href="#DejaVuSans-36" x="63.623047"/>
     </g>
    </g>
   </g>
   <g id="text_30">
    <g id="patch_32">
     <path d="M 211.725602 189.379978 
L 213.670618 195.437891 
Q 214.587717 198.294275 217.444101 197.377175 
L 226.658914 194.418573 
Q 229.515298 193.501473 228.598198 190.64509 
L 226.653182 184.587176 
Q 225.736082 181.730792 222.879699 182.647892 
L 213.664886 185.606494 
Q 210.808502 186.523594 211.725602 189.379978 
z
" clip-path="url(#p53b9195f74)" style="fill: #ffffff; stroke: #ffffff; stroke-linejoin: miter"/>
    </g>
    <g clip-path="url(#p53b9195f74)">
     <!-- 9 -->
     <g transform="translate(216.562114 187.827118) rotate(-287.800278) scale(0.1 -0.1)">
      <use xlink:href="#DejaVuSans-39"/>
     </g>
    </g>
   </g>
   <g id="text_31">
    <g id="patch_33">
     <path d="M 343.497 322.862419 
L 349.146305 325.789321 
Q 351.810025 327.169393 353.190097 324.505674 
L 357.642266 315.912404 
Q 359.022338 313.248684 356.358618 311.868612 
L 350.709313 308.94171 
Q 348.045594 307.561638 346.665522 310.225358 
L 342.213353 318.818628 
Q 340.833281 321.482347 343.497 322.862419 
z
" clip-path="url(#p53b9195f74)" style="fill: #ffffff; stroke: #ffffff; stroke-linejoin: miter"/>
    </g>
    <g clip-path="url(#p53b9195f74)">
     <!-- 9 -->
     <g transform="translate(345.833778 318.352131) rotate(-332.611347) scale(0.1 -0.1)">
      <use xlink:href="#DejaVuSans-39"/>
     </g>
    </g>
   </g>
   <g id="text_32">
    <g id="patch_34">
     <path d="M 179.147259 348.294446 
L 183.309757 343.482481 
Q 185.272428 341.213577 183.003524 339.250906 
L 175.683947 332.919248 
Q 173.415044 330.956577 171.452373 333.22548 
L 167.289875 338.037446 
Q 165.327204 340.306349 167.596107 342.26902 
L 174.915684 348.600679 
Q 177.184587 350.56335 179.147259 348.294446 
z
" clip-path="url(#p53b9195f74)" style="fill: #ffffff; stroke: #ffffff; stroke-linejoin: miter"/>
    </g>
    <g clip-path="url(#p53b9195f74)">
     <!-- 8 -->
     <g transform="translate(175.305485 344.971195) rotate(-49.139189) scale(0.1 -0.1)">
      <use xlink:href="#DejaVuSans-38"/>
     </g>
    </g>
   </g>
   <g id="text_33">
    <g id="patch_35">
     <path d="M 139.417592 80.475707 
L 148.09561 89.782566 
Q 150.141508 91.976718 152.335659 89.93082 
L 159.414084 83.330667 
Q 161.608235 81.284769 159.562337 79.090618 
L 150.88432 69.783758 
Q 148.838421 67.589606 146.64427 69.635505 
L 139.565846 76.235657 
Q 137.371694 78.281555 139.417592 80.475707 
z
" clip-path="url(#p53b9195f74)" style="fill: #ffffff; stroke: #ffffff; stroke-linejoin: miter"/>
    </g>
    <g clip-path="url(#p53b9195f74)">
     <!-- 20 -->
     <g transform="translate(143.132794 77.011532) rotate(-312.997467) scale(0.1 -0.1)">
      <defs>
       <path id="DejaVuSans-30" d="M 2034 4250 
Q 1547 4250 1301 3770 
Q 1056 3291 1056 2328 
Q 1056 1369 1301 889 
Q 1547 409 2034 409 
Q 2525 409 2770 889 
Q 3016 1369 3016 2328 
Q 3016 3291 2770 3770 
Q 2525 4250 2034 4250 
z
M 2034 4750 
Q 2819 4750 3233 4129 
Q 3647 3509 3647 2328 
Q 3647 1150 3233 529 
Q 2819 -91 2034 -91 
Q 1250 -91 836 529 
Q 422 1150 422 2328 
Q 422 3509 836 4129 
Q 1250 4750 2034 4750 
z
" transform="scale(0.015625)"/>
      </defs>
      <use xlink:href="#DejaVuSans-32"/>
      <use xlink:href="#DejaVuSans-30" x="63.623047"/>
     </g>
    </g>
   </g>
   <g id="text_34">
    <g id="patch_36">
     <path d="M 188.904294 124.458576 
L 199.093344 132.081495 
Q 201.495477 133.878646 203.292629 131.476513 
L 209.090315 123.72713 
Q 210.887467 121.324996 208.485334 119.527845 
L 198.296284 111.904926 
Q 195.89415 110.107774 194.096999 112.509908 
L 188.299312 120.259291 
Q 186.50216 122.661424 188.904294 124.458576 
z
" clip-path="url(#p53b9195f74)" style="fill: #ffffff; stroke: #ffffff; stroke-linejoin: miter"/>
    </g>
    <g clip-path="url(#p53b9195f74)">
     <!-- 16 -->
     <g transform="translate(191.947284 120.391213) rotate(-323.198069) scale(0.1 -0.1)">
      <use xlink:href="#DejaVuSans-31"/>
      <use xlink:href="#DejaVuSans-36" x="63.623047"/>
     </g>
    </g>
   </g>
   <g id="text_35">
    <g id="patch_37">
     <path d="M 288.431282 244.762881 
L 292.695417 249.485016 
Q 294.706011 251.711562 296.932558 249.700968 
L 304.115491 243.214708 
Q 306.342038 241.204113 304.331444 238.977567 
L 300.067309 234.255432 
Q 298.056715 232.028885 295.830168 234.039479 
L 288.647235 240.52574 
Q 286.420688 242.536334 288.431282 244.762881 
z
" clip-path="url(#p53b9195f74)" style="fill: #ffffff; stroke: #ffffff; stroke-linejoin: miter"/>
    </g>
    <g clip-path="url(#p53b9195f74)">
     <!-- 4 -->
     <g transform="translate(292.201336 241.358484) rotate(-312.082353) scale(0.1 -0.1)">
      <use xlink:href="#DejaVuSans-34"/>
     </g>
    </g>
   </g>
   <g id="text_36">
    <g id="patch_38">
     <path d="M 296.883438 384.691458 
L 302.630228 396.044873 
Q 303.985071 398.721513 306.661711 397.366671 
L 315.296663 392.995892 
Q 317.973303 391.64105 316.618461 388.96441 
L 310.87167 377.610995 
Q 309.516828 374.934355 306.840188 376.289197 
L 298.205236 380.659976 
Q 295.528596 382.014818 296.883438 384.691458 
z
" clip-path="url(#p53b9195f74)" style="fill: #ffffff; stroke: #ffffff; stroke-linejoin: miter"/>
    </g>
    <g clip-path="url(#p53b9195f74)">
     <!-- 20 -->
     <g transform="translate(301.415603 382.397399) rotate(-296.847294) scale(0.1 -0.1)">
      <use xlink:href="#DejaVuSans-32"/>
      <use xlink:href="#DejaVuSans-30" x="63.623047"/>
     </g>
    </g>
   </g>
   <g id="text_37">
    <g id="patch_39">
     <path d="M 271.049483 358.516579 
L 271.811612 371.218735 
Q 271.991289 374.21335 274.985903 374.033673 
L 284.646655 373.454028 
Q 287.641269 373.274351 287.461592 370.279737 
L 286.699463 357.57758 
Q 286.519786 354.582965 283.525172 354.762642 
L 273.86442 355.342287 
Q 270.869806 355.521964 271.049483 358.516579 
z
" clip-path="url(#p53b9195f74)" style="fill: #ffffff; stroke: #ffffff; stroke-linejoin: miter"/>
    </g>
    <g clip-path="url(#p53b9195f74)">
     <!-- 18 -->
     <g transform="translate(276.120051 358.212345) rotate(-273.43363) scale(0.1 -0.1)">
      <use xlink:href="#DejaVuSans-31"/>
      <use xlink:href="#DejaVuSans-38" x="63.623047"/>
     </g>
    </g>
   </g>
   <g id="text_38">
    <g id="patch_40">
     <path d="M 162.528243 364.814773 
L 168.702317 363.277822 
Q 171.613471 362.553131 170.88878 359.641976 
L 168.550894 350.25047 
Q 167.826202 347.339315 164.915048 348.064006 
L 158.740974 349.600957 
Q 155.829819 350.325649 156.554511 353.236803 
L 158.892396 362.62831 
Q 159.617088 365.539464 162.528243 364.814773 
z
" clip-path="url(#p53b9195f74)" style="fill: #ffffff; stroke: #ffffff; stroke-linejoin: miter"/>
    </g>
    <g clip-path="url(#p53b9195f74)">
     <!-- 5 -->
     <g transform="translate(161.301173 359.885521) rotate(-13.978862) scale(0.1 -0.1)">
      <use xlink:href="#DejaVuSans-35"/>
     </g>
    </g>
   </g>
   <g id="text_39">
    <g id="patch_41">
     <path d="M 228.588289 222.873982 
L 230.852175 228.820092 
Q 231.919626 231.623759 234.723293 230.556308 
L 243.768039 227.112666 
Q 246.571706 226.045215 245.504255 223.241548 
L 243.240369 217.295438 
Q 242.172918 214.491771 239.369251 215.559222 
L 230.324505 219.002864 
Q 227.520838 220.070315 228.588289 222.873982 
z
" clip-path="url(#p53b9195f74)" style="fill: #ffffff; stroke: #ffffff; stroke-linejoin: miter"/>
    </g>
    <g clip-path="url(#p53b9195f74)">
     <!-- 5 -->
     <g transform="translate(233.33554 221.066543) rotate(-290.843528) scale(0.1 -0.1)">
      <use xlink:href="#DejaVuSans-35"/>
     </g>
    </g>
   </g>
   <g id="text_40">
    <g id="patch_42">
     <path d="M 285.584006 294.4082 
L 285.707927 288.046907 
Q 285.766357 285.047476 282.766926 284.989045 
L 273.090637 284.800546 
Q 270.091206 284.742116 270.032776 287.741547 
L 269.908855 294.10284 
Q 269.850424 297.102271 272.849855 297.160701 
L 282.526144 297.3492 
Q 285.525575 297.407631 285.584006 294.4082 
z
" clip-path="url(#p53b9195f74)" style="fill: #ffffff; stroke: #ffffff; stroke-linejoin: miter"/>
    </g>
    <g clip-path="url(#p53b9195f74)">
     <!-- 5 -->
     <g transform="translate(280.505282 294.309264) rotate(-88.88399) scale(0.1 -0.1)">
      <use xlink:href="#DejaVuSans-35"/>
     </g>
    </g>
   </g>
   <g id="text_41">
    <g id="patch_43">
     <path d="M 245.014487 233.031877 
L 248.123852 245.371143 
Q 248.856904 248.280204 251.765965 247.547151 
L 261.150716 245.182294 
Q 264.059776 244.449241 263.326724 241.540181 
L 260.21736 229.200915 
Q 259.484307 226.291854 256.575247 227.024907 
L 247.190496 229.389764 
Q 244.281435 230.122817 245.014487 233.031877 
z
" clip-path="url(#p53b9195f74)" style="fill: #ffffff; stroke: #ffffff; stroke-linejoin: miter"/>
    </g>
    <g clip-path="url(#p53b9195f74)">
     <!-- 20 -->
     <g transform="translate(249.940194 231.790652) rotate(-284.143472) scale(0.1 -0.1)">
      <use xlink:href="#DejaVuSans-32"/>
      <use xlink:href="#DejaVuSans-30" x="63.623047"/>
     </g>
    </g>
   </g>
   <g id="text_42">
    <g id="patch_44">
     <path d="M 224.548893 311.806541 
L 236.030709 317.292298 
Q 238.737621 318.5856 240.030923 315.878689 
L 244.203169 307.14608 
Q 245.496471 304.439168 242.78956 303.145866 
L 231.307744 297.660109 
Q 228.600832 296.366807 227.30753 299.073719 
L 223.135284 307.806328 
Q 221.841982 310.513239 224.548893 311.806541 
z
" clip-path="url(#p53b9195f74)" style="fill: #ffffff; stroke: #ffffff; stroke-linejoin: miter"/>
    </g>
    <g clip-path="url(#p53b9195f74)">
     <!-- 15 -->
     <g transform="translate(226.73875 307.22312) rotate(-334.462566) scale(0.1 -0.1)">
      <use xlink:href="#DejaVuSans-31"/>
      <use xlink:href="#DejaVuSans-35" x="63.623047"/>
     </g>
    </g>
   </g>
   <g id="text_43">
    <g id="patch_45">
     <path d="M 173.775327 291.908452 
L 179.036342 280.321937 
Q 180.27666 277.590342 177.545065 276.350024 
L 168.732825 272.348706 
Q 166.00123 271.108389 164.760912 273.839984 
L 159.499897 285.426499 
Q 158.259579 288.158094 160.991174 289.398412 
L 169.803414 293.399729 
Q 172.535009 294.640047 173.775327 291.908452 
z
" clip-path="url(#p53b9195f74)" style="fill: #ffffff; stroke: #ffffff; stroke-linejoin: miter"/>
    </g>
    <g clip-path="url(#p53b9195f74)">
     <!-- 10 -->
     <g transform="translate(169.15011 289.80831) rotate(-65.57893) scale(0.1 -0.1)">
      <use xlink:href="#DejaVuSans-31"/>
      <use xlink:href="#DejaVuSans-30" x="63.623047"/>
     </g>
    </g>
   </g>
   <g id="text_44">
    <g id="patch_46">
     <path d="M 228.132583 194.106383 
L 229.393095 206.768797 
Q 229.690268 209.754042 232.675513 209.456869 
L 242.306038 208.498174 
Q 245.291283 208.201 244.99411 205.215755 
L 243.733598 192.553341 
Q 243.436424 189.568096 240.451179 189.86527 
L 230.820654 190.823964 
Q 227.835409 191.121138 228.132583 194.106383 
z
" clip-path="url(#p53b9195f74)" style="fill: #ffffff; stroke: #ffffff; stroke-linejoin: miter"/>
    </g>
    <g clip-path="url(#p53b9195f74)">
     <!-- 11 -->
     <g transform="translate(233.187287 193.6032) rotate(-275.684923) scale(0.1 -0.1)">
      <use xlink:href="#DejaVuSans-31"/>
      <use xlink:href="#DejaVuSans-31" x="63.623047"/>
     </g>
    </g>
   </g>
   <g id="text_45">
    <g id="patch_47">
     <path d="M 248.034863 271.863053 
L 249.266703 278.105167 
Q 249.847531 281.048403 252.790767 280.467574 
L 262.285769 278.593798 
Q 265.229005 278.012969 264.648177 275.069733 
L 263.416337 268.82762 
Q 262.835508 265.884384 259.892272 266.465213 
L 250.39727 268.338989 
Q 247.454034 268.919817 248.034863 271.863053 
z
" clip-path="url(#p53b9195f74)" style="fill: #ffffff; stroke: #ffffff; stroke-linejoin: miter"/>
    </g>
    <g clip-path="url(#p53b9195f74)">
     <!-- 4 -->
     <g transform="translate(253.018436 270.879578) rotate(-281.163503) scale(0.1 -0.1)">
      <use xlink:href="#DejaVuSans-34"/>
     </g>
    </g>
   </g>
   <g id="text_46">
    <g id="patch_48">
     <path d="M 305.612533 126.350857 
L 311.556381 124.081038 
Q 314.358981 123.01079 313.288733 120.208189 
L 309.836066 111.166884 
Q 308.765817 108.364284 305.963217 109.434533 
L 300.019369 111.704352 
Q 297.216769 112.7746 298.287018 115.577201 
L 301.739684 124.618506 
Q 302.809933 127.421106 305.612533 126.350857 
z
" clip-path="url(#p53b9195f74)" style="fill: #ffffff; stroke: #ffffff; stroke-linejoin: miter"/>
    </g>
    <g clip-path="url(#p53b9195f74)">
     <!-- 4 -->
     <g transform="translate(303.800357 121.605413) rotate(-20.900708) scale(0.1 -0.1)">
      <use xlink:href="#DejaVuSans-34"/>
     </g>
    </g>
   </g>
   <g id="text_47">
    <g id="patch_49">
     <path d="M 336.09685 262.753317 
L 340.586193 267.261886 
Q 342.702976 269.387735 344.828824 267.270952 
L 351.686899 260.442122 
Q 353.812748 258.32534 351.695965 256.199491 
L 347.206621 251.690922 
Q 345.089839 249.565073 342.96399 251.681856 
L 336.105915 258.510686 
Q 333.980067 260.627468 336.09685 262.753317 
z
" clip-path="url(#p53b9195f74)" style="fill: #ffffff; stroke: #ffffff; stroke-linejoin: miter"/>
    </g>
    <g clip-path="url(#p53b9195f74)">
     <!-- 5 -->
     <g transform="translate(339.696398 259.169118) rotate(-314.877573) scale(0.1 -0.1)">
      <use xlink:href="#DejaVuSans-35"/>
     </g>
    </g>
   </g>
   <g id="text_48">
    <g id="patch_50">
     <path d="M 201.335326 205.802943 
L 201.589622 199.445527 
Q 201.709526 196.447924 198.711923 196.32802 
L 189.041532 195.941204 
Q 186.043929 195.8213 185.924025 198.818903 
L 185.669728 205.176319 
Q 185.549824 208.173922 188.547427 208.293826 
L 198.217819 208.680641 
Q 201.215421 208.800546 201.335326 205.802943 
z
" clip-path="url(#p53b9195f74)" style="fill: #ffffff; stroke: #ffffff; stroke-linejoin: miter"/>
    </g>
    <g clip-path="url(#p53b9195f74)">
     <!-- 3 -->
     <g transform="translate(196.259697 205.599918) rotate(-87.70939) scale(0.1 -0.1)">
      <use xlink:href="#DejaVuSans-33"/>
     </g>
    </g>
   </g>
   <g id="text_49">
    <g id="patch_51">
     <path d="M 276.642499 404.611073 
L 289.254806 402.921303 
Q 292.228238 402.522929 291.829864 399.549497 
L 290.544693 389.957081 
Q 290.146318 386.983649 287.172886 387.382023 
L 274.560579 389.071794 
Q 271.587147 389.470168 271.985521 392.4436 
L 273.270693 402.036016 
Q 273.669067 405.009448 276.642499 404.611073 
z
" clip-path="url(#p53b9195f74)" style="fill: #ffffff; stroke: #ffffff; stroke-linejoin: miter"/>
    </g>
    <g clip-path="url(#p53b9195f74)">
     <!-- 11 -->
     <g transform="translate(275.96796 399.576372) rotate(-7.630926) scale(0.1 -0.1)">
      <use xlink:href="#DejaVuSans-31"/>
      <use xlink:href="#DejaVuSans-31" x="63.623047"/>
     </g>
    </g>
   </g>
   <g id="text_50">
    <g id="patch_52">
     <path d="M 153.725835 359.916456 
L 157.099716 354.522169 
Q 158.690544 351.978694 156.147069 350.387866 
L 147.941712 345.255788 
Q 145.398237 343.66496 143.807409 346.208435 
L 140.433527 351.602722 
Q 138.842699 354.146197 141.386175 355.737025 
L 149.591531 360.869103 
Q 152.135007 362.459931 153.725835 359.916456 
z
" clip-path="url(#p53b9195f74)" style="fill: #ffffff; stroke: #ffffff; stroke-linejoin: miter"/>
    </g>
    <g clip-path="url(#p53b9195f74)">
     <!-- 3 -->
     <g transform="translate(149.419148 357.222819) rotate(-57.975893) scale(0.1 -0.1)">
      <use xlink:href="#DejaVuSans-33"/>
     </g>
    </g>
   </g>
   <g id="text_51">
    <g id="patch_53">
     <path d="M 264.600491 410.876876 
L 270.92871 410.217288 
Q 273.912546 409.906284 273.601541 406.922448 
L 272.598229 397.296469 
Q 272.287225 394.312633 269.30339 394.623637 
L 262.975171 395.283225 
Q 259.991335 395.594229 260.302339 398.578065 
L 261.305651 408.204044 
Q 261.616655 411.18788 264.600491 410.876876 
z
" clip-path="url(#p53b9195f74)" style="fill: #ffffff; stroke: #ffffff; stroke-linejoin: miter"/>
    </g>
    <g clip-path="url(#p53b9195f74)">
     <!-- 2 -->
     <g transform="translate(264.07389 405.824558) rotate(-5.950431) scale(0.1 -0.1)">
      <use xlink:href="#DejaVuSans-32"/>
     </g>
    </g>
   </g>
   <g id="text_52">
    <g id="patch_54">
     <path d="M 192.033115 418.121322 
L 198.358808 417.437937 
Q 201.341453 417.115712 201.019228 414.133067 
L 199.979717 404.51093 
Q 199.657492 401.528285 196.674847 401.85051 
L 190.349154 402.533895 
Q 187.366509 402.856119 187.688734 405.838764 
L 188.728245 415.460902 
Q 189.05047 418.443547 192.033115 418.121322 
z
" clip-path="url(#p53b9195f74)" style="fill: #ffffff; stroke: #ffffff; stroke-linejoin: miter"/>
    </g>
    <g clip-path="url(#p53b9195f74)">
     <!-- 4 -->
     <g transform="translate(191.487514 413.07102) rotate(-6.165935) scale(0.1 -0.1)">
      <use xlink:href="#DejaVuSans-34"/>
     </g>
    </g>
   </g>
   <g id="text_53">
    <g id="patch_55">
     <path d="M 178.6695 343.581983 
L 182.670298 338.634759 
Q 184.556725 336.30208 182.224046 334.415653 
L 174.698727 328.329959 
Q 172.366047 326.443532 170.47962 328.776211 
L 166.478822 333.723434 
Q 164.592395 336.056113 166.925074 337.942541 
L 174.450393 344.028234 
Q 176.783072 345.914662 178.6695 343.581983 
z
" clip-path="url(#p53b9195f74)" style="fill: #ffffff; stroke: #ffffff; stroke-linejoin: miter"/>
    </g>
    <g clip-path="url(#p53b9195f74)">
     <!-- 7 -->
     <g transform="translate(174.71974 340.387829) rotate(-51.037683) scale(0.1 -0.1)">
      <use xlink:href="#DejaVuSans-37"/>
     </g>
    </g>
   </g>
   <g id="text_54">
    <g id="patch_56">
     <path d="M 214.642782 439.487809 
L 227.286341 440.925182 
Q 230.26714 441.264052 230.60601 438.283252 
L 231.699219 428.667068 
Q 232.038089 425.686269 229.057289 425.347399 
L 216.41373 423.910026 
Q 213.43293 423.571156 213.09406 426.551956 
L 212.000852 436.16814 
Q 211.661982 439.14894 214.642782 439.487809 
z
" clip-path="url(#p53b9195f74)" style="fill: #ffffff; stroke: #ffffff; stroke-linejoin: miter"/>
    </g>
    <g clip-path="url(#p53b9195f74)">
     <!-- 20 -->
     <g transform="translate(215.216566 434.440632) rotate(-353.51422) scale(0.1 -0.1)">
      <use xlink:href="#DejaVuSans-32"/>
      <use xlink:href="#DejaVuSans-30" x="63.623047"/>
     </g>
    </g>
   </g>
   <g id="text_55">
    <g id="patch_57">
     <path d="M 359.489848 92.393742 
L 371.848506 95.425111 
Q 374.762139 96.139776 375.476803 93.226143 
L 377.782341 83.826643 
Q 378.497006 80.913011 375.583373 80.198346 
L 363.224715 77.166977 
Q 360.311083 76.452313 359.596418 79.365945 
L 357.29088 88.765445 
Q 356.576216 91.679078 359.489848 92.393742 
z
" clip-path="url(#p53b9195f74)" style="fill: #ffffff; stroke: #ffffff; stroke-linejoin: miter"/>
    </g>
    <g clip-path="url(#p53b9195f74)">
     <!-- 12 -->
     <g transform="translate(360.699939 87.460295) rotate(-346.218403) scale(0.1 -0.1)">
      <use xlink:href="#DejaVuSans-31"/>
      <use xlink:href="#DejaVuSans-32" x="63.623047"/>
     </g>
    </g>
   </g>
   <g id="text_56">
    <g id="patch_58">
     <path d="M 364.381087 234.464245 
L 365.41485 228.186288 
Q 365.902282 225.226151 362.942145 224.738719 
L 353.392621 223.166241 
Q 350.432484 222.678809 349.945052 225.638946 
L 348.911289 231.916902 
Q 348.423856 234.877039 351.383993 235.364472 
L 360.933517 236.936949 
Q 363.893654 237.424382 364.381087 234.464245 
z
" clip-path="url(#p53b9195f74)" style="fill: #ffffff; stroke: #ffffff; stroke-linejoin: miter"/>
    </g>
    <g clip-path="url(#p53b9195f74)">
     <!-- 5 -->
     <g transform="translate(359.368897 233.63891) rotate(-80.649272) scale(0.1 -0.1)">
      <use xlink:href="#DejaVuSans-35"/>
     </g>
    </g>
   </g>
   <g id="text_57">
    <g id="patch_59">
     <path d="M 312.966223 181.118624 
L 321.188407 171.406708 
Q 323.126839 169.117061 320.837193 167.178629 
L 313.450698 160.925166 
Q 311.161051 158.986734 309.222619 161.27638 
L 301.000436 170.988297 
Q 299.062004 173.277943 301.35165 175.216376 
L 308.738145 181.469839 
Q 311.027791 183.408271 312.966223 181.118624 
z
" clip-path="url(#p53b9195f74)" style="fill: #ffffff; stroke: #ffffff; stroke-linejoin: miter"/>
    </g>
    <g clip-path="url(#p53b9195f74)">
     <!-- 13 -->
     <g transform="translate(309.089327 177.836414) rotate(-49.748492) scale(0.1 -0.1)">
      <use xlink:href="#DejaVuSans-31"/>
      <use xlink:href="#DejaVuSans-33" x="63.623047"/>
     </g>
    </g>
   </g>
   <g id="text_58">
    <g id="patch_60">
     <path d="M 396.138763 224.479126 
L 400.360291 236.483472 
Q 401.355543 239.313573 404.185645 238.318321 
L 413.315669 235.107596 
Q 416.14577 234.112343 415.150518 231.282242 
L 410.92899 219.277896 
Q 409.933738 216.447795 407.103636 217.443047 
L 397.973612 220.653772 
Q 395.143511 221.649025 396.138763 224.479126 
z
" clip-path="url(#p53b9195f74)" style="fill: #ffffff; stroke: #ffffff; stroke-linejoin: miter"/>
    </g>
    <g clip-path="url(#p53b9195f74)">
     <!-- 10 -->
     <g transform="translate(400.930773 222.793936) rotate(-289.375074) scale(0.1 -0.1)">
      <use xlink:href="#DejaVuSans-31"/>
      <use xlink:href="#DejaVuSans-30" x="63.623047"/>
     </g>
    </g>
   </g>
   <g id="text_59">
    <g id="patch_61">
     <path d="M 342.608114 318.080941 
L 348.165811 321.178264 
Q 350.786336 322.638691 352.246763 320.018166 
L 356.958163 311.564243 
Q 358.418591 308.943718 355.798066 307.483291 
L 350.240369 304.385967 
Q 347.619844 302.92554 346.159416 305.546065 
L 341.448016 313.999988 
Q 339.987589 316.620513 342.608114 318.080941 
z
" clip-path="url(#p53b9195f74)" style="fill: #ffffff; stroke: #ffffff; stroke-linejoin: miter"/>
    </g>
    <g clip-path="url(#p53b9195f74)">
     <!-- 7 -->
     <g transform="translate(345.080952 313.643791) rotate(-330.868929) scale(0.1 -0.1)">
      <use xlink:href="#DejaVuSans-37"/>
     </g>
    </g>
   </g>
   <g id="text_60">
    <g id="patch_62">
     <path d="M 250.501802 386.55997 
L 256.8615 386.371142 
Q 259.860178 386.282108 259.771144 383.283429 
L 259.483915 373.609568 
Q 259.394881 370.610889 256.396202 370.699923 
L 250.036505 370.888751 
Q 247.037826 370.977785 247.126861 373.976464 
L 247.414089 383.650325 
Q 247.503124 386.649004 250.501802 386.55997 
z
" clip-path="url(#p53b9195f74)" style="fill: #ffffff; stroke: #ffffff; stroke-linejoin: miter"/>
    </g>
    <g clip-path="url(#p53b9195f74)">
     <!-- 2 -->
     <g transform="translate(250.351047 381.48252) rotate(-1.700681) scale(0.1 -0.1)">
      <use xlink:href="#DejaVuSans-32"/>
     </g>
    </g>
   </g>
   <g id="text_61">
    <g id="patch_63">
     <path d="M 374.092214 328.773076 
L 381.699523 338.973786 
Q 383.492994 341.378668 385.897877 339.585196 
L 393.656128 333.799382 
Q 396.06101 332.00591 394.267538 329.601028 
L 386.660229 319.400318 
Q 384.866758 316.995436 382.461875 318.788908 
L 374.703625 324.574722 
Q 372.298742 326.368193 374.092214 328.773076 
z
" clip-path="url(#p53b9195f74)" style="fill: #ffffff; stroke: #ffffff; stroke-linejoin: miter"/>
    </g>
    <g clip-path="url(#p53b9195f74)">
     <!-- 16 -->
     <g transform="translate(378.164231 325.736317) rotate(-306.714203) scale(0.1 -0.1)">
      <use xlink:href="#DejaVuSans-31"/>
      <use xlink:href="#DejaVuSans-36" x="63.623047"/>
     </g>
    </g>
   </g>
   <g id="text_62">
    <g id="patch_64">
     <path d="M 346.713792 365.449024 
L 347.103512 352.729993 
Q 347.195391 349.7314 344.196798 349.639521 
L 334.523213 349.343116 
Q 331.52462 349.251237 331.432741 352.24983 
L 331.043022 364.968861 
Q 330.951143 367.967454 333.949735 368.059332 
L 343.62332 368.355738 
Q 346.621913 368.447616 346.713792 365.449024 
z
" clip-path="url(#p53b9195f74)" style="fill: #ffffff; stroke: #ffffff; stroke-linejoin: miter"/>
    </g>
    <g clip-path="url(#p53b9195f74)">
     <!-- 13 -->
     <g transform="translate(341.636487 365.293452) rotate(-88.244968) scale(0.1 -0.1)">
      <use xlink:href="#DejaVuSans-31"/>
      <use xlink:href="#DejaVuSans-33" x="63.623047"/>
     </g>
    </g>
   </g>
   <g id="text_63">
    <g id="patch_65">
     <path d="M 304.888272 269.737139 
L 310.998878 271.509681 
Q 313.880107 272.345457 314.715883 269.464229 
L 317.412132 260.169265 
Q 318.247908 257.288037 315.366679 256.452261 
L 309.256074 254.679719 
Q 306.374845 253.843942 305.539069 256.725171 
L 302.84282 266.020134 
Q 302.007044 268.901363 304.888272 269.737139 
z
" clip-path="url(#p53b9195f74)" style="fill: #ffffff; stroke: #ffffff; stroke-linejoin: miter"/>
    </g>
    <g clip-path="url(#p53b9195f74)">
     <!-- 6 -->
     <g transform="translate(306.303433 264.858559) rotate(-343.823807) scale(0.1 -0.1)">
      <use xlink:href="#DejaVuSans-36"/>
     </g>
    </g>
   </g>
   <g id="text_64">
    <g id="patch_66">
     <path d="M 152.38082 170.11001 
L 155.529301 182.439353 
Q 156.271575 185.346074 159.178296 184.6038 
L 168.5555 182.209192 
Q 171.462222 181.466918 170.719947 178.560196 
L 167.571467 166.230854 
Q 166.829193 163.324132 163.922471 164.066407 
L 154.545267 166.461014 
Q 151.638546 167.203289 152.38082 170.11001 
z
" clip-path="url(#p53b9195f74)" style="fill: #ffffff; stroke: #ffffff; stroke-linejoin: miter"/>
    </g>
    <g clip-path="url(#p53b9195f74)">
     <!-- 13 -->
     <g transform="translate(157.302566 168.85317) rotate(-284.325176) scale(0.1 -0.1)">
      <use xlink:href="#DejaVuSans-31"/>
      <use xlink:href="#DejaVuSans-33" x="63.623047"/>
     </g>
    </g>
   </g>
   <g id="text_65">
    <g id="patch_67">
     <path d="M 239.887598 80.047889 
L 246.22119 80.653711 
Q 249.207559 80.939363 249.493212 77.952994 
L 250.414739 68.318842 
Q 250.700392 65.332472 247.714023 65.046819 
L 241.380431 64.440998 
Q 238.394061 64.155345 238.108409 67.141714 
L 237.186881 76.775867 
Q 236.901228 79.762236 239.887598 80.047889 
z
" clip-path="url(#p53b9195f74)" style="fill: #ffffff; stroke: #ffffff; stroke-linejoin: miter"/>
    </g>
    <g clip-path="url(#p53b9195f74)">
     <!-- 6 -->
     <g transform="translate(240.371273 74.991281) rotate(-354.536157) scale(0.1 -0.1)">
      <use xlink:href="#DejaVuSans-36"/>
     </g>
    </g>
   </g>
   <g id="text_66">
    <g id="patch_68">
     <path d="M 226.218947 254.555656 
L 229.202052 260.175486 
Q 230.608624 262.825308 233.258446 261.418735 
L 241.806881 256.881076 
Q 244.456703 255.474503 243.050131 252.824682 
L 240.067026 247.204852 
Q 238.660454 244.55503 236.010632 245.961602 
L 227.462197 250.499262 
Q 224.812375 251.905834 226.218947 254.555656 
z
" clip-path="url(#p53b9195f74)" style="fill: #ffffff; stroke: #ffffff; stroke-linejoin: miter"/>
    </g>
    <g clip-path="url(#p53b9195f74)">
     <!-- 7 -->
     <g transform="translate(230.705702 252.174007) rotate(-297.96015) scale(0.1 -0.1)">
      <use xlink:href="#DejaVuSans-37"/>
     </g>
    </g>
   </g>
   <g id="text_67">
    <g id="patch_69">
     <path d="M 205.808762 241.719713 
L 210.32917 237.242289 
Q 212.460599 235.131127 210.349437 232.999697 
L 203.538738 226.123616 
Q 201.427576 223.992186 199.296146 226.103349 
L 194.775739 230.580773 
Q 192.644309 232.691935 194.755472 234.823365 
L 201.56617 241.699446 
Q 203.677333 243.830876 205.808762 241.719713 
z
" clip-path="url(#p53b9195f74)" style="fill: #ffffff; stroke: #ffffff; stroke-linejoin: miter"/>
    </g>
    <g clip-path="url(#p53b9195f74)">
     <!-- 6 -->
     <g transform="translate(202.23408 238.110714) rotate(-44.726296) scale(0.1 -0.1)">
      <use xlink:href="#DejaVuSans-36"/>
     </g>
    </g>
   </g>
   <g id="text_68">
    <g id="patch_70">
     <path d="M 122.192498 343.943807 
L 127.404861 340.295152 
Q 129.862557 338.574765 128.14217 336.11707 
L 122.59213 328.188441 
Q 120.871743 325.730745 118.414047 327.451132 
L 113.201684 331.099786 
Q 110.743988 332.820173 112.464375 335.277869 
L 118.014415 343.206498 
Q 119.734802 345.664194 122.192498 343.943807 
z
" clip-path="url(#p53b9195f74)" style="fill: #ffffff; stroke: #ffffff; stroke-linejoin: miter"/>
    </g>
    <g clip-path="url(#p53b9195f74)">
     <!-- 5 -->
     <g transform="translate(119.279489 339.782364) rotate(-34.99202) scale(0.1 -0.1)">
      <use xlink:href="#DejaVuSans-35"/>
     </g>
    </g>
   </g>
   <g id="text_69">
    <g id="patch_71">
     <path d="M 327.173851 401.949137 
L 327.584122 414.667521 
Q 327.680846 417.665962 330.679286 417.569238 
L 340.35238 417.257203 
Q 343.35082 417.160479 343.254096 414.162038 
L 342.843826 401.443654 
Q 342.747102 398.445214 339.748661 398.541937 
L 330.075568 398.853973 
Q 327.077128 398.950697 327.173851 401.949137 
z
" clip-path="url(#p53b9195f74)" style="fill: #ffffff; stroke: #ffffff; stroke-linejoin: miter"/>
    </g>
    <g clip-path="url(#p53b9195f74)">
     <!-- 10 -->
     <g transform="translate(332.250898 401.785361) rotate(-271.84761) scale(0.1 -0.1)">
      <use xlink:href="#DejaVuSans-31"/>
      <use xlink:href="#DejaVuSans-30" x="63.623047"/>
     </g>
    </g>
   </g>
   <g id="text_70">
    <g id="patch_72">
     <path d="M 301.50319 427.074315 
L 306.433269 431.096222 
Q 308.757864 432.992602 310.654244 430.668007 
L 316.772045 423.168766 
Q 318.668426 420.844171 316.343831 418.947791 
L 311.413752 414.925885 
Q 309.089157 413.029504 307.192777 415.3541 
L 301.074975 422.85334 
Q 299.178595 425.177935 301.50319 427.074315 
z
" clip-path="url(#p53b9195f74)" style="fill: #ffffff; stroke: #ffffff; stroke-linejoin: miter"/>
    </g>
    <g clip-path="url(#p53b9195f74)">
     <!-- 1 -->
     <g transform="translate(304.714196 423.138243) rotate(-320.792796) scale(0.1 -0.1)">
      <use xlink:href="#DejaVuSans-31"/>
     </g>
    </g>
   </g>
   <g id="text_71">
    <g id="patch_73">
     <path d="M 324.295561 249.829402 
L 327.159651 237.43091 
Q 327.834878 234.507886 324.911854 233.832659 
L 315.482058 231.654347 
Q 312.559034 230.97912 311.883807 233.902143 
L 309.019717 246.300636 
Q 308.34449 249.22366 311.267514 249.898887 
L 320.69731 252.077199 
Q 323.620334 252.752426 324.295561 249.829402 
z
" clip-path="url(#p53b9195f74)" style="fill: #ffffff; stroke: #ffffff; stroke-linejoin: miter"/>
    </g>
    <g clip-path="url(#p53b9195f74)">
     <!-- 15 -->
     <g transform="translate(319.346212 248.686088) rotate(-76.992665) scale(0.1 -0.1)">
      <use xlink:href="#DejaVuSans-31"/>
      <use xlink:href="#DejaVuSans-35" x="63.623047"/>
     </g>
    </g>
   </g>
   <g id="text_72">
    <g id="patch_74">
     <path d="M 297.82462 312.791955 
L 300.555463 318.538598 
Q 301.84309 321.248214 304.552705 319.960586 
L 313.294038 315.806647 
Q 316.003653 314.51902 314.716026 311.809405 
L 311.985184 306.062762 
Q 310.697556 303.353146 307.987941 304.640774 
L 299.246608 308.794713 
Q 296.536993 310.08234 297.82462 312.791955 
z
" clip-path="url(#p53b9195f74)" style="fill: #ffffff; stroke: #ffffff; stroke-linejoin: miter"/>
    </g>
    <g clip-path="url(#p53b9195f74)">
     <!-- 9 -->
     <g transform="translate(302.41262 310.611707) rotate(-295.417376) scale(0.1 -0.1)">
      <use xlink:href="#DejaVuSans-39"/>
     </g>
    </g>
   </g>
   <g id="text_73">
    <g id="patch_75">
     <path d="M 279.804036 314.143135 
L 283.725851 319.153203 
Q 285.575037 321.515513 287.937347 319.666328 
L 295.55826 313.700777 
Q 297.920571 311.851591 296.071385 309.489281 
L 292.14957 304.479213 
Q 290.300384 302.116903 287.938073 303.966088 
L 280.317161 309.931639 
Q 277.95485 311.780825 279.804036 314.143135 
z
" clip-path="url(#p53b9195f74)" style="fill: #ffffff; stroke: #ffffff; stroke-linejoin: miter"/>
    </g>
    <g clip-path="url(#p53b9195f74)">
     <!-- 9 -->
     <g transform="translate(283.803969 311.01204) rotate(-308.053374) scale(0.1 -0.1)">
      <use xlink:href="#DejaVuSans-39"/>
     </g>
    </g>
   </g>
   <g id="text_74">
    <g id="patch_76">
     <path d="M 301.315789 177.70143 
L 308.360448 167.104336 
Q 310.021271 164.606004 307.522939 162.94518 
L 299.463214 157.587295 
Q 296.964881 155.926472 295.304058 158.424804 
L 288.259399 169.021898 
Q 286.598575 171.520231 289.096908 173.181054 
L 297.156633 178.53894 
Q 299.654965 180.199763 301.315789 177.70143 
z
" clip-path="url(#p53b9195f74)" style="fill: #ffffff; stroke: #ffffff; stroke-linejoin: miter"/>
    </g>
    <g clip-path="url(#p53b9195f74)">
     <!-- 10 -->
     <g transform="translate(297.085539 174.889276) rotate(-56.385124) scale(0.1 -0.1)">
      <use xlink:href="#DejaVuSans-31"/>
      <use xlink:href="#DejaVuSans-30" x="63.623047"/>
     </g>
    </g>
   </g>
   <g id="text_75">
    <g id="patch_77">
     <path d="M 299.536346 341.180136 
L 311.266858 346.11174 
Q 314.032402 347.274396 315.195058 344.508853 
L 318.945838 335.587096 
Q 320.108495 332.821553 317.342952 331.658896 
L 305.61244 326.727293 
Q 302.846897 325.564636 301.68424 328.330179 
L 297.93346 337.251936 
Q 296.770803 340.01748 299.536346 341.180136 
z
" clip-path="url(#p53b9195f74)" style="fill: #ffffff; stroke: #ffffff; stroke-linejoin: miter"/>
    </g>
    <g clip-path="url(#p53b9195f74)">
     <!-- 17 -->
     <g transform="translate(301.504991 336.497438) rotate(-337.197718) scale(0.1 -0.1)">
      <use xlink:href="#DejaVuSans-31"/>
      <use xlink:href="#DejaVuSans-37" x="63.623047"/>
     </g>
    </g>
   </g>
   <g id="matplotlib.axis_1">
    <g id="xtick_1">
     <g id="line2d_1">
      <path d="M 10.8 493.2 
L 10.8 10.8 
" clip-path="url(#p53b9195f74)" style="fill: none; stroke: #b0b0b0; stroke-opacity: 0.3; stroke-width: 0.8; stroke-linecap: square"/>
     </g>
    </g>
    <g id="xtick_2">
     <g id="line2d_2">
      <path d="M 59.04 493.2 
L 59.04 10.8 
" clip-path="url(#p53b9195f74)" style="fill: none; stroke: #b0b0b0; stroke-opacity: 0.3; stroke-width: 0.8; stroke-linecap: square"/>
     </g>
    </g>
    <g id="xtick_3">
     <g id="line2d_3">
      <path d="M 107.28 493.2 
L 107.28 10.8 
" clip-path="url(#p53b9195f74)" style="fill: none; stroke: #b0b0b0; stroke-opacity: 0.3; stroke-width: 0.8; stroke-linecap: square"/>
     </g>
    </g>
    <g id="xtick_4">
     <g id="line2d_4">
      <path d="M 155.52 493.2 
L 155.52 10.8 
" clip-path="url(#p53b9195f74)" style="fill: none; stroke: #b0b0b0; stroke-opacity: 0.3; stroke-width: 0.8; stroke-linecap: square"/>
     </g>
    </g>
    <g id="xtick_5">
     <g id="line2d_5">
      <path d="M 203.76 493.2 
L 203.76 10.8 
" clip-path="url(#p53b9195f74)" style="fill: none; stroke: #b0b0b0; stroke-opacity: 0.3; stroke-width: 0.8; stroke-linecap: square"/>
     </g>
    </g>
    <g id="xtick_6">
     <g id="line2d_6">
      <path d="M 252 493.2 
L 252 10.8 
" clip-path="url(#p53b9195f74)" style="fill: none; stroke: #b0b0b0; stroke-opacity: 0.3; stroke-width: 0.8; stroke-linecap: square"/>
     </g>
    </g>
    <g id="xtick_7">
     <g id="line2d_7">
      <path d="M 300.24 493.2 
L 300.24 10.8 
" clip-path="url(#p53b9195f74)" style="fill: none; stroke: #b0b0b0; stroke-opacity: 0.3; stroke-width: 0.8; stroke-linecap: square"/>
     </g>
    </g>
    <g id="xtick_8">
     <g id="line2d_8">
      <path d="M 348.48 493.2 
L 348.48 10.8 
" clip-path="url(#p53b9195f74)" style="fill: none; stroke: #b0b0b0; stroke-opacity: 0.3; stroke-width: 0.8; stroke-linecap: square"/>
     </g>
    </g>
    <g id="xtick_9">
     <g id="line2d_9">
      <path d="M 396.72 493.2 
L 396.72 10.8 
" clip-path="url(#p53b9195f74)" style="fill: none; stroke: #b0b0b0; stroke-opacity: 0.3; stroke-width: 0.8; stroke-linecap: square"/>
     </g>
    </g>
    <g id="xtick_10">
     <g id="line2d_10">
      <path d="M 444.96 493.2 
L 444.96 10.8 
" clip-path="url(#p53b9195f74)" style="fill: none; stroke: #b0b0b0; stroke-opacity: 0.3; stroke-width: 0.8; stroke-linecap: square"/>
     </g>
    </g>
    <g id="xtick_11">
     <g id="line2d_11">
      <path d="M 493.2 493.2 
L 493.2 10.8 
" clip-path="url(#p53b9195f74)" style="fill: none; stroke: #b0b0b0; stroke-opacity: 0.3; stroke-width: 0.8; stroke-linecap: square"/>
     </g>
    </g>
   </g>
   <g id="matplotlib.axis_2">
    <g id="ytick_1">
     <g id="line2d_12">
      <path d="M 10.8 493.2 
L 493.2 493.2 
" clip-path="url(#p53b9195f74)" style="fill: none; stroke: #b0b0b0; stroke-opacity: 0.3; stroke-width: 0.8; stroke-linecap: square"/>
     </g>
    </g>
    <g id="ytick_2">
     <g id="line2d_13">
      <path d="M 10.8 444.96 
L 493.2 444.96 
" clip-path="url(#p53b9195f74)" style="fill: none; stroke: #b0b0b0; stroke-opacity: 0.3; stroke-width: 0.8; stroke-linecap: square"/>
     </g>
    </g>
    <g id="ytick_3">
     <g id="line2d_14">
      <path d="M 10.8 396.72 
L 493.2 396.72 
" clip-path="url(#p53b9195f74)" style="fill: none; stroke: #b0b0b0; stroke-opacity: 0.3; stroke-width: 0.8; stroke-linecap: square"/>
     </g>
    </g>
    <g id="ytick_4">
     <g id="line2d_15">
      <path d="M 10.8 348.48 
L 493.2 348.48 
" clip-path="url(#p53b9195f74)" style="fill: none; stroke: #b0b0b0; stroke-opacity: 0.3; stroke-width: 0.8; stroke-linecap: square"/>
     </g>
    </g>
    <g id="ytick_5">
     <g id="line2d_16">
      <path d="M 10.8 300.24 
L 493.2 300.24 
" clip-path="url(#p53b9195f74)" style="fill: none; stroke: #b0b0b0; stroke-opacity: 0.3; stroke-width: 0.8; stroke-linecap: square"/>
     </g>
    </g>
    <g id="ytick_6">
     <g id="line2d_17">
      <path d="M 10.8 252 
L 493.2 252 
" clip-path="url(#p53b9195f74)" style="fill: none; stroke: #b0b0b0; stroke-opacity: 0.3; stroke-width: 0.8; stroke-linecap: square"/>
     </g>
    </g>
    <g id="ytick_7">
     <g id="line2d_18">
      <path d="M 10.8 203.76 
L 493.2 203.76 
" clip-path="url(#p53b9195f74)" style="fill: none; stroke: #b0b0b0; stroke-opacity: 0.3; stroke-width: 0.8; stroke-linecap: square"/>
     </g>
    </g>
    <g id="ytick_8">
     <g id="line2d_19">
      <path d="M 10.8 155.52 
L 493.2 155.52 
" clip-path="url(#p53b9195f74)" style="fill: none; stroke: #b0b0b0; stroke-opacity: 0.3; stroke-width: 0.8; stroke-linecap: square"/>
     </g>
    </g>
    <g id="ytick_9">
     <g id="line2d_20">
      <path d="M 10.8 107.28 
L 493.2 107.28 
" clip-path="url(#p53b9195f74)" style="fill: none; stroke: #b0b0b0; stroke-opacity: 0.3; stroke-width: 0.8; stroke-linecap: square"/>
     </g>
    </g>
    <g id="ytick_10">
     <g id="line2d_21">
      <path d="M 10.8 59.04 
L 493.2 59.04 
" clip-path="url(#p53b9195f74)" style="fill: none; stroke: #b0b0b0; stroke-opacity: 0.3; stroke-width: 0.8; stroke-linecap: square"/>
     </g>
    </g>
    <g id="ytick_11">
     <g id="line2d_22">
      <path d="M 10.8 10.8 
L 493.2 10.8 
" clip-path="url(#p53b9195f74)" style="fill: none; stroke: #b0b0b0; stroke-opacity: 0.3; stroke-width: 0.8; stroke-linecap: square"/>
     </g>
    </g>
   </g>
   <g id="PathCollection_1">
    <defs>
     <path id="m0253f1d751" d="M 0 8.660254 
C 2.296726 8.660254 4.499694 7.747755 6.123724 6.123724 
C 7.747755 4.499694 8.660254 2.296726 8.660254 0 
C 8.660254 -2.296726 7.747755 -4.499694 6.123724 -6.123724 
C 4.499694 -7.747755 2.296726 -8.660254 0 -8.660254 
C -2.296726 -8.660254 -4.499694 -7.747755 -6.123724 -6.123724 
C -7.747755 -4.499694 -8.660254 -2.296726 -8.660254 0 
C -8.660254 2.296726 -7.747755 4.499694 -6.123724 6.123724 
C -4.499694 7.747755 -2.296726 8.660254 0 8.660254 
z
" style="stroke: #1f78b4"/>
    </defs>
    <g clip-path="url(#p53b9195f74)">
     <use xlink:href="#m0253f1d751" x="180.1224" y="392.3784" style="fill: #1f78b4; stroke: #1f78b4"/>
     <use xlink:href="#m0253f1d751" x="177.7104" y="378.8712" style="fill: #1f78b4; stroke: #1f78b4"/>
     <use xlink:href="#m0253f1d751" x="265.9896" y="411.6744" style="fill: #1f78b4; stroke: #1f78b4"/>
     <use xlink:href="#m0253f1d751" x="427.1112" y="450.7488" style="fill: #1f78b4; stroke: #1f78b4"/>
     <use xlink:href="#m0253f1d751" x="440.136" y="443.9952" style="fill: #1f78b4; stroke: #1f78b4"/>
     <use xlink:href="#m0253f1d751" x="251.0352" y="227.88" style="fill: #1f78b4; stroke: #1f78b4"/>
     <use xlink:href="#m0253f1d751" x="243.3168" y="262.1304" style="fill: #1f78b4; stroke: #1f78b4"/>
     <use xlink:href="#m0253f1d751" x="166.1328" y="97.632" style="fill: #1f78b4; stroke: #1f78b4"/>
     <use xlink:href="#m0253f1d751" x="277.0848" y="328.2192" style="fill: #1f78b4; stroke: #1f78b4"/>
     <use xlink:href="#m0253f1d751" x="231.2568" y="146.3544" style="fill: #1f78b4; stroke: #1f78b4"/>
     <use xlink:href="#m0253f1d751" x="197.0064" y="117.8928" style="fill: #1f78b4; stroke: #1f78b4"/>
     <use xlink:href="#m0253f1d751" x="107.28" y="419.3928" style="fill: #1f78b4; stroke: #1f78b4"/>
     <use xlink:href="#m0253f1d751" x="380.3184" y="89.4312" style="fill: #1f78b4; stroke: #1f78b4"/>
     <use xlink:href="#m0253f1d751" x="456.5376" y="372.6" style="fill: #1f78b4; stroke: #1f78b4"/>
     <use xlink:href="#m0253f1d751" x="341.7264" y="272.2608" style="fill: #1f78b4; stroke: #1f78b4"/>
     <use xlink:href="#m0253f1d751" x="132.8472" y="61.9344" style="fill: #1f78b4; stroke: #1f78b4"/>
     <use xlink:href="#m0253f1d751" x="50.3568" y="384.66" style="fill: #1f78b4; stroke: #1f78b4"/>
     <use xlink:href="#m0253f1d751" x="336.42" y="445.4424" style="fill: #1f78b4; stroke: #1f78b4"/>
     <use xlink:href="#m0253f1d751" x="281.4264" y="400.5792" style="fill: #1f78b4; stroke: #1f78b4"/>
     <use xlink:href="#m0253f1d751" x="334.008" y="370.6704" style="fill: #1f78b4; stroke: #1f78b4"/>
     <use xlink:href="#m0253f1d751" x="241.8696" y="252.9648" style="fill: #1f78b4; stroke: #1f78b4"/>
     <use xlink:href="#m0253f1d751" x="354.7512" y="83.16" style="fill: #1f78b4; stroke: #1f78b4"/>
     <use xlink:href="#m0253f1d751" x="190.2528" y="286.7328" style="fill: #1f78b4; stroke: #1f78b4"/>
     <use xlink:href="#m0253f1d751" x="426.6288" y="386.1072" style="fill: #1f78b4; stroke: #1f78b4"/>
     <use xlink:href="#m0253f1d751" x="278.532" y="253.9296" style="fill: #1f78b4; stroke: #1f78b4"/>
    </g>
   </g>
   <g id="patch_78">
    <path d="M 10.8 493.2 
L 10.8 10.8 
" style="fill: none; stroke: #000000; stroke-width: 0.8; stroke-linejoin: miter; stroke-linecap: square"/>
   </g>
   <g id="patch_79">
    <path d="M 493.2 493.2 
L 493.2 10.8 
" style="fill: none; stroke: #000000; stroke-width: 0.8; stroke-linejoin: miter; stroke-linecap: square"/>
   </g>
   <g id="patch_80">
    <path d="M 10.8 493.2 
L 493.2 493.2 
" style="fill: none; stroke: #000000; stroke-width: 0.8; stroke-linejoin: miter; stroke-linecap: square"/>
   </g>
   <g id="patch_81">
    <path d="M 10.8 10.8 
L 493.2 10.8 
" style="fill: none; stroke: #000000; stroke-width: 0.8; stroke-linejoin: miter; stroke-linecap: square"/>
   </g>
   <g id="text_76">
    <g clip-path="url(#p53b9195f74)">
     <!-- 0 -->
     <g transform="translate(176.3049 395.68965) scale(0.12 -0.12)">
      <use xlink:href="#DejaVuSans-30"/>
     </g>
    </g>
   </g>
   <g id="text_77">
    <g clip-path="url(#p53b9195f74)">
     <!-- 1 -->
     <g transform="translate(173.8929 382.18245) scale(0.12 -0.12)">
      <use xlink:href="#DejaVuSans-31"/>
     </g>
    </g>
   </g>
   <g id="text_78">
    <g clip-path="url(#p53b9195f74)">
     <!-- 2 -->
     <g transform="translate(262.1721 414.98565) scale(0.12 -0.12)">
      <use xlink:href="#DejaVuSans-32"/>
     </g>
    </g>
   </g>
   <g id="text_79">
    <g clip-path="url(#p53b9195f74)">
     <!-- 3 -->
     <g transform="translate(423.2937 454.06005) scale(0.12 -0.12)">
      <use xlink:href="#DejaVuSans-33"/>
     </g>
    </g>
   </g>
   <g id="text_80">
    <g clip-path="url(#p53b9195f74)">
     <!-- 4 -->
     <g transform="translate(436.3185 447.30645) scale(0.12 -0.12)">
      <use xlink:href="#DejaVuSans-34"/>
     </g>
    </g>
   </g>
   <g id="text_81">
    <g clip-path="url(#p53b9195f74)">
     <!-- 5 -->
     <g transform="translate(247.2177 231.19125) scale(0.12 -0.12)">
      <use xlink:href="#DejaVuSans-35"/>
     </g>
    </g>
   </g>
   <g id="text_82">
    <g clip-path="url(#p53b9195f74)">
     <!-- 6 -->
     <g transform="translate(239.4993 265.44165) scale(0.12 -0.12)">
      <use xlink:href="#DejaVuSans-36"/>
     </g>
    </g>
   </g>
   <g id="text_83">
    <g clip-path="url(#p53b9195f74)">
     <!-- 7 -->
     <g transform="translate(162.3153 100.94325) scale(0.12 -0.12)">
      <use xlink:href="#DejaVuSans-37"/>
     </g>
    </g>
   </g>
   <g id="text_84">
    <g clip-path="url(#p53b9195f74)">
     <!-- 8 -->
     <g transform="translate(273.2673 331.53045) scale(0.12 -0.12)">
      <use xlink:href="#DejaVuSans-38"/>
     </g>
    </g>
   </g>
   <g id="text_85">
    <g clip-path="url(#p53b9195f74)">
     <!-- 9 -->
     <g transform="translate(227.4393 149.66565) scale(0.12 -0.12)">
      <use xlink:href="#DejaVuSans-39"/>
     </g>
    </g>
   </g>
   <g id="text_86">
    <g clip-path="url(#p53b9195f74)">
     <!-- 10 -->
     <g transform="translate(189.3714 121.20405) scale(0.12 -0.12)">
      <use xlink:href="#DejaVuSans-31"/>
      <use xlink:href="#DejaVuSans-30" x="63.623047"/>
     </g>
    </g>
   </g>
   <g id="text_87">
    <g clip-path="url(#p53b9195f74)">
     <!-- 11 -->
     <g transform="translate(99.645 422.70405) scale(0.12 -0.12)">
      <use xlink:href="#DejaVuSans-31"/>
      <use xlink:href="#DejaVuSans-31" x="63.623047"/>
     </g>
    </g>
   </g>
   <g id="text_88">
    <g clip-path="url(#p53b9195f74)">
     <!-- 12 -->
     <g transform="translate(372.6834 92.74245) scale(0.12 -0.12)">
      <use xlink:href="#DejaVuSans-31"/>
      <use xlink:href="#DejaVuSans-32" x="63.623047"/>
     </g>
    </g>
   </g>
   <g id="text_89">
    <g clip-path="url(#p53b9195f74)">
     <!-- 13 -->
     <g transform="translate(448.9026 375.91125) scale(0.12 -0.12)">
      <use xlink:href="#DejaVuSans-31"/>
      <use xlink:href="#DejaVuSans-33" x="63.623047"/>
     </g>
    </g>
   </g>
   <g id="text_90">
    <g clip-path="url(#p53b9195f74)">
     <!-- 14 -->
     <g transform="translate(334.0914 275.57205) scale(0.12 -0.12)">
      <use xlink:href="#DejaVuSans-31"/>
      <use xlink:href="#DejaVuSans-34" x="63.623047"/>
     </g>
    </g>
   </g>
   <g id="text_91">
    <g clip-path="url(#p53b9195f74)">
     <!-- 15 -->
     <g transform="translate(125.2122 65.24565) scale(0.12 -0.12)">
      <use xlink:href="#DejaVuSans-31"/>
      <use xlink:href="#DejaVuSans-35" x="63.623047"/>
     </g>
    </g>
   </g>
   <g id="text_92">
    <g clip-path="url(#p53b9195f74)">
     <!-- 16 -->
     <g transform="translate(42.7218 387.97125) scale(0.12 -0.12)">
      <use xlink:href="#DejaVuSans-31"/>
      <use xlink:href="#DejaVuSans-36" x="63.623047"/>
     </g>
    </g>
   </g>
   <g id="text_93">
    <g clip-path="url(#p53b9195f74)">
     <!-- 17 -->
     <g transform="translate(328.785 448.75365) scale(0.12 -0.12)">
      <use xlink:href="#DejaVuSans-31"/>
      <use xlink:href="#DejaVuSans-37" x="63.623047"/>
     </g>
    </g>
   </g>
   <g id="text_94">
    <g clip-path="url(#p53b9195f74)">
     <!-- 18 -->
     <g transform="translate(273.7914 403.89045) scale(0.12 -0.12)">
      <use xlink:href="#DejaVuSans-31"/>
      <use xlink:href="#DejaVuSans-38" x="63.623047"/>
     </g>
    </g>
   </g>
   <g id="text_95">
    <g clip-path="url(#p53b9195f74)">
     <!-- 19 -->
     <g transform="translate(326.373 373.98165) scale(0.12 -0.12)">
      <use xlink:href="#DejaVuSans-31"/>
      <use xlink:href="#DejaVuSans-39" x="63.623047"/>
     </g>
    </g>
   </g>
   <g id="text_96">
    <g clip-path="url(#p53b9195f74)">
     <!-- 20 -->
     <g transform="translate(234.2346 256.27605) scale(0.12 -0.12)">
      <use xlink:href="#DejaVuSans-32"/>
      <use xlink:href="#DejaVuSans-30" x="63.623047"/>
     </g>
    </g>
   </g>
   <g id="text_97">
    <g clip-path="url(#p53b9195f74)">
     <!-- 21 -->
     <g transform="translate(347.1162 86.47125) scale(0.12 -0.12)">
      <use xlink:href="#DejaVuSans-32"/>
      <use xlink:href="#DejaVuSans-31" x="63.623047"/>
     </g>
    </g>
   </g>
   <g id="text_98">
    <g clip-path="url(#p53b9195f74)">
     <!-- 22 -->
     <g transform="translate(182.6178 290.04405) scale(0.12 -0.12)">
      <use xlink:href="#DejaVuSans-32"/>
      <use xlink:href="#DejaVuSans-32" x="63.623047"/>
     </g>
    </g>
   </g>
   <g id="text_99">
    <g clip-path="url(#p53b9195f74)">
     <!-- 23 -->
     <g transform="translate(418.9938 389.41845) scale(0.12 -0.12)">
      <use xlink:href="#DejaVuSans-32"/>
      <use xlink:href="#DejaVuSans-33" x="63.623047"/>
     </g>
    </g>
   </g>
   <g id="text_100">
    <g clip-path="url(#p53b9195f74)">
     <!-- 24 -->
     <g transform="translate(270.897 257.24085) scale(0.12 -0.12)">
      <use xlink:href="#DejaVuSans-32"/>
      <use xlink:href="#DejaVuSans-34" x="63.623047"/>
     </g>
    </g>
   </g>
  </g>
 </g>
 <defs>
  <clipPath id="p53b9195f74">
   <rect x="10.8" y="10.8" width="482.4" height="482.4"/>
  </clipPath>
 </defs>
</svg>
