<?xml version="1.0" encoding="utf-8" standalone="no"?>
<!DOCTYPE svg PUBLIC "-//W3C//DTD SVG 1.1//EN"
  "http://www.w3.org/Graphics/SVG/1.1/DTD/svg11.dtd">
<svg xmlns:xlink="http://www.w3.org/1999/xlink" width="504pt" height="504pt" viewBox="0 0 504 504" xmlns="http://www.w3.org/2000/svg" version="1.1">
 <metadata>
  <rdf:RDF xmlns:dc="http://purl.org/dc/elements/1.1/" xmlns:cc="http://creativecommons.org/ns#" xmlns:rdf="http://www.w3.org/1999/02/22-rdf-syntax-ns#">
   <cc:Work>
    <dc:type rdf:resource="http://purl.org/dc/dcmitype/StillImage"/>
    <dc:date>2024-10-29T14:59:46.807174</dc:date>
    <dc:format>image/svg+xml</dc:format>
    <dc:creator>
     <cc:Agent>
      <dc:title>Matplotlib v3.9.2, https://matplotlib.org/</dc:title>
     </cc:Agent>
    </dc:creator>
   </cc:Work>
  </rdf:RDF>
 </metadata>
 <defs>
  <style type="text/css">*{stroke-linejoin: round; stroke-linecap: butt}</style>
 </defs>
 <g id="figure_1">
  <g id="patch_1">
   <path d="M 0 504 
L 504 504 
L 504 0 
L 0 0 
L 0 504 
z
" style="fill: none; opacity: 0"/>
  </g>
  <g id="axes_1">
   <g id="patch_2">
    <path d="M 10.8 493.2 
L 493.2 493.2 
L 493.2 10.8 
L 10.8 10.8 
L 10.8 493.2 
z
" style="fill: none; opacity: 0"/>
   </g>
   <g id="LineCollection_1">
    <path d="M 461.844 364.3992 
L 206.6544 220.1616 
" clip-path="url(#p1f33c353c8)" style="fill: none; stroke: #000000"/>
    <path d="M 461.844 364.3992 
L 194.5944 368.2584 
" clip-path="url(#p1f33c353c8)" style="fill: none; stroke: #000000"/>
    <path d="M 461.844 364.3992 
L 226.4328 342.6912 
" clip-path="url(#p1f33c353c8)" style="fill: none; stroke: #000000"/>
    <path d="M 461.844 364.3992 
L 145.872 410.2272 
" clip-path="url(#p1f33c353c8)" style="fill: none; stroke: #000000"/>
    <path d="M 383.2128 284.8032 
L 190.7352 64.3464 
" clip-path="url(#p1f33c353c8)" style="fill: none; stroke: #000000"/>
    <path d="M 383.2128 284.8032 
L 183.0168 487.4112 
" clip-path="url(#p1f33c353c8)" style="fill: none; stroke: #000000"/>
    <path d="M 383.2128 284.8032 
L 194.5944 368.2584 
" clip-path="url(#p1f33c353c8)" style="fill: none; stroke: #000000"/>
    <path d="M 322.4304 386.5896 
L 479.6928 387.072 
" clip-path="url(#p1f33c353c8)" style="fill: none; stroke: #000000"/>
    <path d="M 322.4304 386.5896 
L 401.0616 315.1944 
" clip-path="url(#p1f33c353c8)" style="fill: none; stroke: #000000"/>
    <path d="M 185.9112 98.5968 
L 401.0616 315.1944 
" clip-path="url(#p1f33c353c8)" style="fill: none; stroke: #000000"/>
    <path d="M 185.9112 98.5968 
L 16.5888 124.164 
" clip-path="url(#p1f33c353c8)" style="fill: none; stroke: #000000"/>
    <path d="M 185.9112 98.5968 
L 90.396 95.22 
" clip-path="url(#p1f33c353c8)" style="fill: none; stroke: #000000"/>
    <path d="M 327.2544 189.7704 
L 228.3624 131.8824 
" clip-path="url(#p1f33c353c8)" style="fill: none; stroke: #000000"/>
    <path d="M 327.2544 189.7704 
L 90.396 95.22 
" clip-path="url(#p1f33c353c8)" style="fill: none; stroke: #000000"/>
    <path d="M 326.2896 299.2752 
L 145.872 410.2272 
" clip-path="url(#p1f33c353c8)" style="fill: none; stroke: #000000"/>
    <path d="M 326.2896 299.2752 
L 401.0616 315.1944 
" clip-path="url(#p1f33c353c8)" style="fill: none; stroke: #000000"/>
    <path d="M 326.2896 299.2752 
L 36.8496 343.1736 
" clip-path="url(#p1f33c353c8)" style="fill: none; stroke: #000000"/>
    <path d="M 90.396 95.22 
L 145.872 410.2272 
" clip-path="url(#p1f33c353c8)" style="fill: none; stroke: #000000"/>
    <path d="M 90.396 95.22 
L 368.7408 150.696 
" clip-path="url(#p1f33c353c8)" style="fill: none; stroke: #000000"/>
    <path d="M 90.396 95.22 
L 262.1304 72.5472 
" clip-path="url(#p1f33c353c8)" style="fill: none; stroke: #000000"/>
    <path d="M 90.396 95.22 
L 194.5944 368.2584 
" clip-path="url(#p1f33c353c8)" style="fill: none; stroke: #000000"/>
    <path d="M 239.4576 22.86 
L 206.6544 220.1616 
" clip-path="url(#p1f33c353c8)" style="fill: none; stroke: #000000"/>
    <path d="M 303.6168 94.7376 
L 262.1304 72.5472 
" clip-path="url(#p1f33c353c8)" style="fill: none; stroke: #000000"/>
    <path d="M 401.0616 315.1944 
L 303.6168 310.3704 
" clip-path="url(#p1f33c353c8)" style="fill: none; stroke: #000000"/>
    <path d="M 190.7352 64.3464 
L 277.5672 490.3056 
" clip-path="url(#p1f33c353c8)" style="fill: none; stroke: #000000"/>
    <path d="M 190.7352 64.3464 
L 16.5888 124.164 
" clip-path="url(#p1f33c353c8)" style="fill: none; stroke: #000000"/>
    <path d="M 190.7352 64.3464 
L 389.0016 66.7584 
" clip-path="url(#p1f33c353c8)" style="fill: none; stroke: #000000"/>
    <path d="M 190.7352 64.3464 
L 183.0168 487.4112 
" clip-path="url(#p1f33c353c8)" style="fill: none; stroke: #000000"/>
    <path d="M 183.0168 487.4112 
L 228.3624 131.8824 
" clip-path="url(#p1f33c353c8)" style="fill: none; stroke: #000000"/>
    <path d="M 183.0168 487.4112 
L 226.4328 342.6912 
" clip-path="url(#p1f33c353c8)" style="fill: none; stroke: #000000"/>
    <path d="M 16.5888 124.164 
L 262.1304 72.5472 
" clip-path="url(#p1f33c353c8)" style="fill: none; stroke: #000000"/>
    <path d="M 479.6928 387.072 
L 228.3624 131.8824 
" clip-path="url(#p1f33c353c8)" style="fill: none; stroke: #000000"/>
    <path d="M 479.6928 387.072 
L 145.872 410.2272 
" clip-path="url(#p1f33c353c8)" style="fill: none; stroke: #000000"/>
    <path d="M 277.5672 490.3056 
L 145.872 410.2272 
" clip-path="url(#p1f33c353c8)" style="fill: none; stroke: #000000"/>
    <path d="M 277.5672 490.3056 
L 194.5944 368.2584 
" clip-path="url(#p1f33c353c8)" style="fill: none; stroke: #000000"/>
    <path d="M 303.6168 310.3704 
L 262.1304 72.5472 
" clip-path="url(#p1f33c353c8)" style="fill: none; stroke: #000000"/>
    <path d="M 303.6168 310.3704 
L 228.3624 131.8824 
" clip-path="url(#p1f33c353c8)" style="fill: none; stroke: #000000"/>
    <path d="M 262.1304 72.5472 
L 389.0016 66.7584 
" clip-path="url(#p1f33c353c8)" style="fill: none; stroke: #000000"/>
    <path d="M 226.4328 342.6912 
L 91.8432 63.3816 
" clip-path="url(#p1f33c353c8)" style="fill: none; stroke: #000000"/>
    <path d="M 91.8432 63.3816 
L 145.872 410.2272 
" clip-path="url(#p1f33c353c8)" style="fill: none; stroke: #000000"/>
   </g>
   <g id="text_1">
    <g id="patch_3">
     <path d="M 324.851098 295.973021 
L 335.92901 302.234449 
Q 338.540699 303.710621 340.01687 301.098932 
L 344.779062 292.673516 
Q 346.255234 290.061828 343.643545 288.585656 
L 332.565633 282.324228 
Q 329.953945 280.848056 328.477773 283.459744 
L 323.715581 291.88516 
Q 322.239409 294.496849 324.851098 295.973021 
z
" clip-path="url(#p1f33c353c8)" style="fill: #ffffff; stroke: #ffffff; stroke-linejoin: miter"/>
    </g>
    <g clip-path="url(#p1f33c353c8)">
     <!-- 20 -->
     <g transform="translate(327.350595 291.550833) rotate(-330.524111) scale(0.1 -0.1)">
      <defs>
       <path id="DejaVuSans-32" d="M 1228 531 
L 3431 531 
L 3431 0 
L 469 0 
L 469 531 
Q 828 903 1448 1529 
Q 2069 2156 2228 2338 
Q 2531 2678 2651 2914 
Q 2772 3150 2772 3378 
Q 2772 3750 2511 3984 
Q 2250 4219 1831 4219 
Q 1534 4219 1204 4116 
Q 875 4013 500 3803 
L 500 4441 
Q 881 4594 1212 4672 
Q 1544 4750 1819 4750 
Q 2544 4750 2975 4387 
Q 3406 4025 3406 3419 
Q 3406 3131 3298 2873 
Q 3191 2616 2906 2266 
Q 2828 2175 2409 1742 
Q 1991 1309 1228 531 
z
" transform="scale(0.015625)"/>
       <path id="DejaVuSans-30" d="M 2034 4250 
Q 1547 4250 1301 3770 
Q 1056 3291 1056 2328 
Q 1056 1369 1301 889 
Q 1547 409 2034 409 
Q 2525 409 2770 889 
Q 3016 1369 3016 2328 
Q 3016 3291 2770 3770 
Q 2525 4250 2034 4250 
z
M 2034 4750 
Q 2819 4750 3233 4129 
Q 3647 3509 3647 2328 
Q 3647 1150 3233 529 
Q 2819 -91 2034 -91 
Q 1250 -91 836 529 
Q 422 1150 422 2328 
Q 422 3509 836 4129 
Q 1250 4750 2034 4750 
z
" transform="scale(0.015625)"/>
      </defs>
      <use xlink:href="#DejaVuSans-32"/>
      <use xlink:href="#DejaVuSans-30" x="63.623047"/>
     </g>
    </g>
   </g>
   <g id="text_2">
    <g id="patch_4">
     <path d="M 325.153293 374.212953 
L 331.515129 374.121085 
Q 334.514817 374.077768 334.4715 371.078081 
L 334.331758 361.400965 
Q 334.288441 358.401278 331.288754 358.444595 
L 324.926917 358.536462 
Q 321.92723 358.579779 321.970547 361.579466 
L 322.110289 371.256582 
Q 322.153605 374.25627 325.153293 374.212953 
z
" clip-path="url(#p1f33c353c8)" style="fill: #ffffff; stroke: #ffffff; stroke-linejoin: miter"/>
    </g>
    <g clip-path="url(#p1f33c353c8)">
     <!-- 1 -->
     <g transform="translate(325.079947 369.133795) rotate(-0.827318) scale(0.1 -0.1)">
      <defs>
       <path id="DejaVuSans-31" d="M 794 531 
L 1825 531 
L 1825 4091 
L 703 3866 
L 703 4441 
L 1819 4666 
L 2450 4666 
L 2450 531 
L 3481 531 
L 3481 0 
L 794 0 
L 794 531 
z
" transform="scale(0.015625)"/>
      </defs>
      <use xlink:href="#DejaVuSans-31"/>
     </g>
    </g>
   </g>
   <g id="text_3">
    <g id="patch_5">
     <path d="M 340.251975 361.059141 
L 346.587595 361.643369 
Q 349.574921 361.918839 349.850392 358.931513 
L 350.739071 349.294276 
Q 351.014542 346.30695 348.027216 346.031479 
L 341.691596 345.447252 
Q 338.70427 345.171781 338.428799 348.159107 
L 337.54012 357.796345 
Q 337.264649 360.783671 340.251975 361.059141 
z
" clip-path="url(#p1f33c353c8)" style="fill: #ffffff; stroke: #ffffff; stroke-linejoin: miter"/>
    </g>
    <g clip-path="url(#p1f33c353c8)">
     <!-- 9 -->
     <g transform="translate(340.71841 356.000914) rotate(-354.731477) scale(0.1 -0.1)">
      <defs>
       <path id="DejaVuSans-39" d="M 703 97 
L 703 672 
Q 941 559 1184 500 
Q 1428 441 1663 441 
Q 2288 441 2617 861 
Q 2947 1281 2994 2138 
Q 2813 1869 2534 1725 
Q 2256 1581 1919 1581 
Q 1219 1581 811 2004 
Q 403 2428 403 3163 
Q 403 3881 828 4315 
Q 1253 4750 1959 4750 
Q 2769 4750 3195 4129 
Q 3622 3509 3622 2328 
Q 3622 1225 3098 567 
Q 2575 -91 1691 -91 
Q 1453 -91 1209 -44 
Q 966 3 703 97 
z
M 1959 2075 
Q 2384 2075 2632 2365 
Q 2881 2656 2881 3163 
Q 2881 3666 2632 3958 
Q 2384 4250 1959 4250 
Q 1534 4250 1286 3958 
Q 1038 3666 1038 3163 
Q 1038 2656 1286 2365 
Q 1534 2075 1959 2075 
z
" transform="scale(0.015625)"/>
      </defs>
      <use xlink:href="#DejaVuSans-39"/>
     </g>
    </g>
   </g>
   <g id="text_4">
    <g id="patch_6">
     <path d="M 298.687685 395.984178 
L 311.280918 394.157678 
Q 314.249854 393.72707 313.819245 390.758134 
L 312.430082 381.180226 
Q 311.999473 378.211291 309.030538 378.6419 
L 296.437305 380.468399 
Q 293.46837 380.899008 293.898979 383.867943 
L 295.288141 393.445852 
Q 295.71875 396.414787 298.687685 395.984178 
z
" clip-path="url(#p1f33c353c8)" style="fill: #ffffff; stroke: #ffffff; stroke-linejoin: miter"/>
    </g>
    <g clip-path="url(#p1f33c353c8)">
     <!-- 19 -->
     <g transform="translate(297.958565 390.95709) rotate(-8.252529) scale(0.1 -0.1)">
      <use xlink:href="#DejaVuSans-31"/>
      <use xlink:href="#DejaVuSans-39" x="63.623047"/>
     </g>
    </g>
   </g>
   <g id="text_5">
    <g id="patch_7">
     <path d="M 276.885626 174.939078 
L 285.254697 184.524706 
Q 287.227759 186.784579 289.487632 184.811517 
L 296.778077 178.446337 
Q 299.03795 176.473275 297.064888 174.213402 
L 288.695817 164.627773 
Q 286.722755 162.3679 284.462882 164.340962 
L 277.172437 170.706143 
Q 274.912564 172.679205 276.885626 174.939078 
z
" clip-path="url(#p1f33c353c8)" style="fill: #ffffff; stroke: #ffffff; stroke-linejoin: miter"/>
    </g>
    <g clip-path="url(#p1f33c353c8)">
     <!-- 14 -->
     <g transform="translate(280.712109 171.598232) rotate(-311.123734) scale(0.1 -0.1)">
      <defs>
       <path id="DejaVuSans-34" d="M 2419 4116 
L 825 1625 
L 2419 1625 
L 2419 4116 
z
M 2253 4666 
L 3047 4666 
L 3047 1625 
L 3713 1625 
L 3713 1100 
L 3047 1100 
L 3047 0 
L 2419 0 
L 2419 1100 
L 313 1100 
L 313 1709 
L 2253 4666 
z
" transform="scale(0.015625)"/>
      </defs>
      <use xlink:href="#DejaVuSans-31"/>
      <use xlink:href="#DejaVuSans-34" x="63.623047"/>
     </g>
    </g>
   </g>
   <g id="text_6">
    <g id="patch_8">
     <path d="M 284.218245 396.143553 
L 293.162138 387.091902 
Q 295.270718 384.957917 293.136734 382.849337 
L 286.25241 376.04697 
Q 284.118426 373.93839 282.009846 376.072375 
L 273.065952 385.124026 
Q 270.957372 387.258011 273.091357 389.366591 
L 279.97568 396.168958 
Q 282.109665 398.277538 284.218245 396.143553 
z
" clip-path="url(#p1f33c353c8)" style="fill: #ffffff; stroke: #ffffff; stroke-linejoin: miter"/>
    </g>
    <g clip-path="url(#p1f33c353c8)">
     <!-- 11 -->
     <g transform="translate(280.60492 392.573244) rotate(-45.343084) scale(0.1 -0.1)">
      <use xlink:href="#DejaVuSans-31"/>
      <use xlink:href="#DejaVuSans-31" x="63.623047"/>
     </g>
    </g>
   </g>
   <g id="text_7">
    <g id="patch_9">
     <path d="M 286.259034 336.273004 
L 297.895861 331.124229 
Q 300.639317 329.910373 299.425461 327.166916 
L 295.509509 318.316412 
Q 294.295652 315.572956 291.552196 316.786813 
L 279.915369 321.935588 
Q 277.171913 323.149444 278.385769 325.8929 
L 282.301721 334.743405 
Q 283.515578 337.486861 286.259034 336.273004 
z
" clip-path="url(#p1f33c353c8)" style="fill: #ffffff; stroke: #ffffff; stroke-linejoin: miter"/>
    </g>
    <g clip-path="url(#p1f33c353c8)">
     <!-- 12 -->
     <g transform="translate(284.203697 331.627704) rotate(-23.867246) scale(0.1 -0.1)">
      <use xlink:href="#DejaVuSans-31"/>
      <use xlink:href="#DejaVuSans-32" x="63.623047"/>
     </g>
    </g>
   </g>
   <g id="text_8">
    <g id="patch_10">
     <path d="M 394.677857 394.650317 
L 407.402797 394.689351 
Q 410.402783 394.698553 410.411986 391.698567 
L 410.441673 382.020488 
Q 410.450876 379.020502 407.45089 379.0113 
L 394.72595 378.972266 
Q 391.725964 378.963064 391.716761 381.96305 
L 391.687074 391.641129 
Q 391.677871 394.641115 394.677857 394.650317 
z
" clip-path="url(#p1f33c353c8)" style="fill: #ffffff; stroke: #ffffff; stroke-linejoin: miter"/>
    </g>
    <g clip-path="url(#p1f33c353c8)">
     <!-- 19 -->
     <g transform="translate(394.693439 389.570654) rotate(-359.824247) scale(0.1 -0.1)">
      <use xlink:href="#DejaVuSans-31"/>
      <use xlink:href="#DejaVuSans-39" x="63.623047"/>
     </g>
    </g>
   </g>
   <g id="text_9">
    <g id="patch_11">
     <path d="M 362.304039 360.97362 
L 371.725006 352.419614 
Q 373.946059 350.402952 371.929397 348.181899 
L 365.423563 341.01669 
Q 363.406901 338.795637 361.185848 340.812298 
L 351.764882 349.366304 
Q 349.543829 351.382966 351.560491 353.604019 
L 358.066325 360.769228 
Q 360.082986 362.990281 362.304039 360.97362 
z
" clip-path="url(#p1f33c353c8)" style="fill: #ffffff; stroke: #ffffff; stroke-linejoin: miter"/>
    </g>
    <g clip-path="url(#p1f33c353c8)">
     <!-- 17 -->
     <g transform="translate(358.889369 357.212868) rotate(-42.238678) scale(0.1 -0.1)">
      <defs>
       <path id="DejaVuSans-37" d="M 525 4666 
L 3525 4666 
L 3525 4397 
L 1831 0 
L 1172 0 
L 2766 4134 
L 525 4134 
L 525 4666 
z
" transform="scale(0.015625)"/>
      </defs>
      <use xlink:href="#DejaVuSans-31"/>
      <use xlink:href="#DejaVuSans-37" x="63.623047"/>
     </g>
    </g>
   </g>
   <g id="text_10">
    <g id="patch_12">
     <path d="M 285.6833 210.163469 
L 290.167161 214.677491 
Q 292.281359 216.80591 294.409778 214.691712 
L 301.276147 207.871221 
Q 303.404566 205.757024 301.290368 203.628605 
L 296.806506 199.114583 
Q 294.692308 196.986164 292.563889 199.100362 
L 285.697521 205.920852 
Q 283.569102 208.03505 285.6833 210.163469 
z
" clip-path="url(#p1f33c353c8)" style="fill: #ffffff; stroke: #ffffff; stroke-linejoin: miter"/>
    </g>
    <g clip-path="url(#p1f33c353c8)">
     <!-- 9 -->
     <g transform="translate(289.287201 206.583647) rotate(-314.807948) scale(0.1 -0.1)">
      <use xlink:href="#DejaVuSans-39"/>
     </g>
    </g>
   </g>
   <g id="text_11">
    <g id="patch_13">
     <path d="M 99.272834 119.606871 
L 105.564019 118.65692 
Q 108.530392 118.209006 108.082478 115.242632 
L 106.637489 105.672987 
Q 106.189575 102.706614 103.223202 103.154527 
L 96.932017 104.104478 
Q 93.965644 104.552392 94.413558 107.518766 
L 95.858547 117.088411 
Q 96.306461 120.054785 99.272834 119.606871 
z
" clip-path="url(#p1f33c353c8)" style="fill: #ffffff; stroke: #ffffff; stroke-linejoin: miter"/>
    </g>
    <g clip-path="url(#p1f33c353c8)">
     <!-- 3 -->
     <g transform="translate(98.514413 114.584121) rotate(-8.586633) scale(0.1 -0.1)">
      <defs>
       <path id="DejaVuSans-33" d="M 2597 2516 
Q 3050 2419 3304 2112 
Q 3559 1806 3559 1356 
Q 3559 666 3084 287 
Q 2609 -91 1734 -91 
Q 1441 -91 1130 -33 
Q 819 25 488 141 
L 488 750 
Q 750 597 1062 519 
Q 1375 441 1716 441 
Q 2309 441 2620 675 
Q 2931 909 2931 1356 
Q 2931 1769 2642 2001 
Q 2353 2234 1838 2234 
L 1294 2234 
L 1294 2753 
L 1863 2753 
Q 2328 2753 2575 2939 
Q 2822 3125 2822 3475 
Q 2822 3834 2567 4026 
Q 2313 4219 1838 4219 
Q 1578 4219 1281 4162 
Q 984 4106 628 3988 
L 628 4550 
Q 988 4650 1302 4700 
Q 1616 4750 1894 4750 
Q 2613 4750 3031 4423 
Q 3450 4097 3450 3541 
Q 3450 3153 3228 2886 
Q 3006 2619 2597 2516 
z
" transform="scale(0.015625)"/>
      </defs>
      <use xlink:href="#DejaVuSans-33"/>
     </g>
    </g>
   </g>
   <g id="text_12">
    <g id="patch_14">
     <path d="M 134.697617 104.630179 
L 141.056145 104.854975 
Q 144.054272 104.960969 144.160266 101.962843 
L 144.502208 92.29076 
Q 144.608203 89.292633 141.610076 89.186639 
L 135.251548 88.961842 
Q 132.253421 88.855848 132.147427 91.853975 
L 131.805485 101.526057 
Q 131.69949 104.524184 134.697617 104.630179 
z
" clip-path="url(#p1f33c353c8)" style="fill: #ffffff; stroke: #ffffff; stroke-linejoin: miter"/>
    </g>
    <g clip-path="url(#p1f33c353c8)">
     <!-- 4 -->
     <g transform="translate(134.87709 99.553663) rotate(-357.975235) scale(0.1 -0.1)">
      <use xlink:href="#DejaVuSans-34"/>
     </g>
    </g>
   </g>
   <g id="text_13">
    <g id="patch_15">
     <path d="M 268.356568 164.37697 
L 279.338427 170.805376 
Q 281.92747 172.320913 283.443008 169.73187 
L 288.332195 161.379508 
Q 289.847733 158.790464 287.25869 157.274927 
L 276.276831 150.846522 
Q 273.687787 149.330984 272.17225 151.920027 
L 267.283062 160.272389 
Q 265.767524 162.861433 268.356568 164.37697 
z
" clip-path="url(#p1f33c353c8)" style="fill: #ffffff; stroke: #ffffff; stroke-linejoin: miter"/>
    </g>
    <g clip-path="url(#p1f33c353c8)">
     <!-- 18 -->
     <g transform="translate(270.92272 159.993126) rotate(-329.656751) scale(0.1 -0.1)">
      <defs>
       <path id="DejaVuSans-38" d="M 2034 2216 
Q 1584 2216 1326 1975 
Q 1069 1734 1069 1313 
Q 1069 891 1326 650 
Q 1584 409 2034 409 
Q 2484 409 2743 651 
Q 3003 894 3003 1313 
Q 3003 1734 2745 1975 
Q 2488 2216 2034 2216 
z
M 1403 2484 
Q 997 2584 770 2862 
Q 544 3141 544 3541 
Q 544 4100 942 4425 
Q 1341 4750 2034 4750 
Q 2731 4750 3128 4425 
Q 3525 4100 3525 3541 
Q 3525 3141 3298 2862 
Q 3072 2584 2669 2484 
Q 3125 2378 3379 2068 
Q 3634 1759 3634 1313 
Q 3634 634 3220 271 
Q 2806 -91 2034 -91 
Q 1263 -91 848 271 
Q 434 634 434 1313 
Q 434 1759 690 2068 
Q 947 2378 1403 2484 
z
M 1172 3481 
Q 1172 3119 1398 2916 
Q 1625 2713 2034 2713 
Q 2441 2713 2670 2916 
Q 2900 3119 2900 3481 
Q 2900 3844 2670 4047 
Q 2441 4250 2034 4250 
Q 1625 4250 1398 4047 
Q 1172 3844 1172 3481 
z
" transform="scale(0.015625)"/>
      </defs>
      <use xlink:href="#DejaVuSans-31"/>
      <use xlink:href="#DejaVuSans-38" x="63.623047"/>
     </g>
    </g>
   </g>
   <g id="text_14">
    <g id="patch_16">
     <path d="M 202.964072 148.596083 
L 208.873164 150.954905 
Q 211.659376 152.06712 212.771591 149.280908 
L 216.359643 140.292472 
Q 217.471858 137.50626 214.685646 136.394045 
L 208.776554 134.035222 
Q 205.990342 132.923007 204.878127 135.709219 
L 201.290075 144.697656 
Q 200.17786 147.483868 202.964072 148.596083 
z
" clip-path="url(#p1f33c353c8)" style="fill: #ffffff; stroke: #ffffff; stroke-linejoin: miter"/>
    </g>
    <g clip-path="url(#p1f33c353c8)">
     <!-- 8 -->
     <g transform="translate(204.847307 143.878387) rotate(-338.23884) scale(0.1 -0.1)">
      <use xlink:href="#DejaVuSans-38"/>
     </g>
    </g>
   </g>
   <g id="text_15">
    <g id="patch_17">
     <path d="M 234.767331 364.761728 
L 245.606673 358.095822 
Q 248.162117 356.524293 246.590587 353.968849 
L 241.520766 345.72488 
Q 239.949237 343.169436 237.393793 344.740965 
L 226.554451 351.406871 
Q 223.999007 352.9784 225.570537 355.533844 
L 230.640357 363.777813 
Q 232.211887 366.333257 234.767331 364.761728 
z
" clip-path="url(#p1f33c353c8)" style="fill: #ffffff; stroke: #ffffff; stroke-linejoin: miter"/>
    </g>
    <g clip-path="url(#p1f33c353c8)">
     <!-- 10 -->
     <g transform="translate(232.106371 360.434775) rotate(-31.590404) scale(0.1 -0.1)">
      <use xlink:href="#DejaVuSans-31"/>
      <use xlink:href="#DejaVuSans-30" x="63.623047"/>
     </g>
    </g>
   </g>
   <g id="text_16">
    <g id="patch_18">
     <path d="M 358.934508 314.240163 
L 365.157533 315.565066 
Q 368.091769 316.189774 368.716477 313.255538 
L 370.731812 303.789571 
Q 371.35652 300.855335 368.422284 300.230627 
L 362.199259 298.905725 
Q 359.265024 298.281017 358.640315 301.215253 
L 356.62498 310.681219 
Q 356.000272 313.615455 358.934508 314.240163 
z
" clip-path="url(#p1f33c353c8)" style="fill: #ffffff; stroke: #ffffff; stroke-linejoin: miter"/>
    </g>
    <g clip-path="url(#p1f33c353c8)">
     <!-- 4 -->
     <g transform="translate(359.992282 309.27183) rotate(-347.980998) scale(0.1 -0.1)">
      <use xlink:href="#DejaVuSans-34"/>
     </g>
    </g>
   </g>
   <g id="text_17">
    <g id="patch_19">
     <path d="M 179.597406 329.452226 
L 185.887967 328.498158 
Q 188.854047 328.048302 188.404191 325.082222 
L 186.952939 315.513525 
Q 186.503083 312.547445 183.537003 312.9973 
L 177.246442 313.951369 
Q 174.280362 314.401224 174.730218 317.367304 
L 176.18147 326.936002 
Q 176.631326 329.902082 179.597406 329.452226 
z
" clip-path="url(#p1f33c353c8)" style="fill: #ffffff; stroke: #ffffff; stroke-linejoin: miter"/>
    </g>
    <g clip-path="url(#p1f33c353c8)">
     <!-- 1 -->
     <g transform="translate(178.835697 324.429973) rotate(-8.624134) scale(0.1 -0.1)">
      <use xlink:href="#DejaVuSans-31"/>
     </g>
    </g>
   </g>
   <g id="text_18">
    <g id="patch_20">
     <path d="M 109.310807 247.820449 
L 111.517846 260.352592 
Q 112.038169 263.307124 114.992702 262.786801 
L 124.524148 261.108215 
Q 127.47868 260.587892 126.958357 257.633359 
L 124.751318 245.101216 
Q 124.230994 242.146684 121.276462 242.667007 
L 111.745016 244.345593 
Q 108.790483 244.865916 109.310807 247.820449 
z
" clip-path="url(#p1f33c353c8)" style="fill: #ffffff; stroke: #ffffff; stroke-linejoin: miter"/>
    </g>
    <g clip-path="url(#p1f33c353c8)">
     <!-- 15 -->
     <g transform="translate(114.313508 246.939422) rotate(-279.987957) scale(0.1 -0.1)">
      <defs>
       <path id="DejaVuSans-35" d="M 691 4666 
L 3169 4666 
L 3169 4134 
L 1269 4134 
L 1269 2991 
Q 1406 3038 1543 3061 
Q 1681 3084 1819 3084 
Q 2600 3084 3056 2656 
Q 3513 2228 3513 1497 
Q 3513 744 3044 326 
Q 2575 -91 1722 -91 
Q 1428 -91 1123 -41 
Q 819 9 494 109 
L 494 744 
Q 775 591 1075 516 
Q 1375 441 1709 441 
Q 2250 441 2565 725 
Q 2881 1009 2881 1497 
Q 2881 1984 2565 2268 
Q 2250 2553 1709 2553 
Q 1456 2553 1204 2497 
Q 953 2441 691 2322 
L 691 4666 
z
" transform="scale(0.015625)"/>
      </defs>
      <use xlink:href="#DejaVuSans-31"/>
      <use xlink:href="#DejaVuSans-35" x="63.623047"/>
     </g>
    </g>
   </g>
   <g id="text_19">
    <g id="patch_21">
     <path d="M 221.794103 129.401773 
L 234.273653 131.889031 
Q 237.215787 132.475418 237.802174 129.533285 
L 239.693883 120.041839 
Q 240.28027 117.099706 237.338137 116.513318 
L 224.858587 114.02606 
Q 221.916453 113.439673 221.330066 116.381806 
L 219.438357 125.873252 
Q 218.851969 128.815386 221.794103 129.401773 
z
" clip-path="url(#p1f33c353c8)" style="fill: #ffffff; stroke: #ffffff; stroke-linejoin: miter"/>
    </g>
    <g clip-path="url(#p1f33c353c8)">
     <!-- 18 -->
     <g transform="translate(222.786991 124.420066) rotate(-348.728265) scale(0.1 -0.1)">
      <use xlink:href="#DejaVuSans-31"/>
      <use xlink:href="#DejaVuSans-38" x="63.623047"/>
     </g>
    </g>
   </g>
   <g id="text_20">
    <g id="patch_22">
     <path d="M 170.982067 92.487913 
L 183.597598 90.822379 
Q 186.57179 90.429719 186.17913 87.455527 
L 184.912392 77.86066 
Q 184.519732 74.886468 181.54554 75.279128 
L 168.930009 76.944662 
Q 165.955817 77.337322 166.348477 80.311514 
L 167.615215 89.906381 
Q 168.007875 92.880573 170.982067 92.487913 
z
" clip-path="url(#p1f33c353c8)" style="fill: #ffffff; stroke: #ffffff; stroke-linejoin: miter"/>
    </g>
    <g clip-path="url(#p1f33c353c8)">
     <!-- 16 -->
     <g transform="translate(170.317203 87.451924) rotate(-7.520836) scale(0.1 -0.1)">
      <defs>
       <path id="DejaVuSans-36" d="M 2113 2584 
Q 1688 2584 1439 2293 
Q 1191 2003 1191 1497 
Q 1191 994 1439 701 
Q 1688 409 2113 409 
Q 2538 409 2786 701 
Q 3034 994 3034 1497 
Q 3034 2003 2786 2293 
Q 2538 2584 2113 2584 
z
M 3366 4563 
L 3366 3988 
Q 3128 4100 2886 4159 
Q 2644 4219 2406 4219 
Q 1781 4219 1451 3797 
Q 1122 3375 1075 2522 
Q 1259 2794 1537 2939 
Q 1816 3084 2150 3084 
Q 2853 3084 3261 2657 
Q 3669 2231 3669 1497 
Q 3669 778 3244 343 
Q 2819 -91 2113 -91 
Q 1303 -91 875 529 
Q 447 1150 447 2328 
Q 447 3434 972 4092 
Q 1497 4750 2381 4750 
Q 2619 4750 2861 4703 
Q 3103 4656 3366 4563 
z
" transform="scale(0.015625)"/>
      </defs>
      <use xlink:href="#DejaVuSans-31"/>
      <use xlink:href="#DejaVuSans-36" x="63.623047"/>
     </g>
    </g>
   </g>
   <g id="text_21">
    <g id="patch_23">
     <path d="M 132.903873 228.592588 
L 137.440901 240.481281 
Q 138.510534 243.284116 141.313369 242.214483 
L 150.355432 238.763801 
Q 153.158267 237.694168 152.088634 234.891333 
L 147.551606 223.002641 
Q 146.481973 220.199806 143.679138 221.269439 
L 134.637075 224.72012 
Q 131.83424 225.789753 132.903873 228.592588 
z
" clip-path="url(#p1f33c353c8)" style="fill: #ffffff; stroke: #ffffff; stroke-linejoin: miter"/>
    </g>
    <g clip-path="url(#p1f33c353c8)">
     <!-- 18 -->
     <g transform="translate(137.649715 226.781454) rotate(-290.888127) scale(0.1 -0.1)">
      <use xlink:href="#DejaVuSans-31"/>
      <use xlink:href="#DejaVuSans-38" x="63.623047"/>
     </g>
    </g>
   </g>
   <g id="text_22">
    <g id="patch_24">
     <path d="M 229.745805 129.070464 
L 231.832805 116.517773 
Q 232.324828 113.558395 229.365451 113.066372 
L 219.818377 111.479083 
Q 216.859 110.98706 216.366977 113.946437 
L 214.279977 126.499128 
Q 213.787953 129.458505 216.74733 129.950529 
L 226.294404 131.537817 
Q 229.253781 132.029841 229.745805 129.070464 
z
" clip-path="url(#p1f33c353c8)" style="fill: #ffffff; stroke: #ffffff; stroke-linejoin: miter"/>
    </g>
    <g clip-path="url(#p1f33c353c8)">
     <!-- 16 -->
     <g transform="translate(224.734901 128.237355) rotate(-80.560396) scale(0.1 -0.1)">
      <use xlink:href="#DejaVuSans-31"/>
      <use xlink:href="#DejaVuSans-36" x="63.623047"/>
     </g>
    </g>
   </g>
   <g id="text_23">
    <g id="patch_25">
     <path d="M 273.564954 87.553354 
L 284.785664 93.555129 
Q 287.431018 94.970085 288.845975 92.324731 
L 293.410684 83.790709 
Q 294.825641 81.145355 292.180287 79.730399 
L 280.959577 73.728624 
Q 278.314223 72.313667 276.899267 74.959021 
L 272.334557 83.493043 
Q 270.9196 86.138397 273.564954 87.553354 
z
" clip-path="url(#p1f33c353c8)" style="fill: #ffffff; stroke: #ffffff; stroke-linejoin: miter"/>
    </g>
    <g clip-path="url(#p1f33c353c8)">
     <!-- 10 -->
     <g transform="translate(275.9608 83.074163) rotate(-331.858399) scale(0.1 -0.1)">
      <use xlink:href="#DejaVuSans-31"/>
      <use xlink:href="#DejaVuSans-30" x="63.623047"/>
     </g>
    </g>
   </g>
   <g id="text_24">
    <g id="patch_26">
     <path d="M 345.597686 320.297324 
L 358.307122 320.926504 
Q 361.303453 321.074837 361.451786 318.078507 
L 361.930315 308.412219 
Q 362.078648 305.415889 359.082318 305.267555 
L 346.372882 304.638375 
Q 343.376551 304.490042 343.228218 307.486373 
L 342.749689 317.15266 
Q 342.601356 320.148991 345.597686 320.297324 
z
" clip-path="url(#p1f33c353c8)" style="fill: #ffffff; stroke: #ffffff; stroke-linejoin: miter"/>
    </g>
    <g clip-path="url(#p1f33c353c8)">
     <!-- 14 -->
     <g transform="translate(345.848849 315.22385) rotate(-357.165889) scale(0.1 -0.1)">
      <use xlink:href="#DejaVuSans-31"/>
      <use xlink:href="#DejaVuSans-34" x="63.623047"/>
     </g>
    </g>
   </g>
   <g id="text_25">
    <g id="patch_27">
     <path d="M 225.198943 272.656027 
L 227.740667 285.124598 
Q 228.339895 288.064143 231.27944 287.464915 
L 240.762536 285.531781 
Q 243.702081 284.932554 243.102853 281.993008 
L 240.561128 269.524437 
Q 239.961901 266.584892 237.022355 267.18412 
L 227.53926 269.117254 
Q 224.599715 269.716482 225.198943 272.656027 
z
" clip-path="url(#p1f33c353c8)" style="fill: #ffffff; stroke: #ffffff; stroke-linejoin: miter"/>
    </g>
    <g clip-path="url(#p1f33c353c8)">
     <!-- 11 -->
     <g transform="translate(230.176266 271.641397) rotate(-281.521907) scale(0.1 -0.1)">
      <use xlink:href="#DejaVuSans-31"/>
      <use xlink:href="#DejaVuSans-31" x="63.623047"/>
     </g>
    </g>
   </g>
   <g id="text_26">
    <g id="patch_28">
     <path d="M 103.199649 102.702633 
L 109.21706 100.635711 
Q 112.054347 99.66113 111.079766 96.823844 
L 107.93573 87.67064 
Q 106.961149 84.833354 104.123863 85.807935 
L 98.106452 87.874857 
Q 95.269166 88.849437 96.243746 91.686724 
L 99.387783 100.839927 
Q 100.362363 103.677213 103.199649 102.702633 
z
" clip-path="url(#p1f33c353c8)" style="fill: #ffffff; stroke: #ffffff; stroke-linejoin: miter"/>
    </g>
    <g clip-path="url(#p1f33c353c8)">
     <!-- 9 -->
     <g transform="translate(101.549461 97.898457) rotate(-18.9571) scale(0.1 -0.1)">
      <use xlink:href="#DejaVuSans-39"/>
     </g>
    </g>
   </g>
   <g id="text_27">
    <g id="patch_29">
     <path d="M 283.41215 73.313499 
L 296.136208 73.468293 
Q 299.135986 73.504787 299.17248 70.505009 
L 299.29021 60.8276 
Q 299.326703 57.827822 296.326925 57.791328 
L 283.602867 57.636534 
Q 280.603089 57.600041 280.566595 60.599819 
L 280.448865 70.277228 
Q 280.412371 73.277006 283.41215 73.313499 
z
" clip-path="url(#p1f33c353c8)" style="fill: #ffffff; stroke: #ffffff; stroke-linejoin: miter"/>
    </g>
    <g clip-path="url(#p1f33c353c8)">
     <!-- 14 -->
     <g transform="translate(283.473942 68.234188) rotate(-359.303005) scale(0.1 -0.1)">
      <use xlink:href="#DejaVuSans-31"/>
      <use xlink:href="#DejaVuSans-34" x="63.623047"/>
     </g>
    </g>
   </g>
   <g id="text_28">
    <g id="patch_30">
     <path d="M 194.655727 279.20262 
L 194.771785 272.841179 
Q 194.826508 269.841678 191.827007 269.786955 
L 182.150493 269.610416 
Q 179.150992 269.555693 179.096269 272.555194 
L 178.980211 278.916636 
Q 178.925488 281.916137 181.924989 281.97086 
L 191.601503 282.147398 
Q 194.601004 282.202121 194.655727 279.20262 
z
" clip-path="url(#p1f33c353c8)" style="fill: #ffffff; stroke: #ffffff; stroke-linejoin: miter"/>
    </g>
    <g clip-path="url(#p1f33c353c8)">
     <!-- 7 -->
     <g transform="translate(189.576885 279.109962) rotate(-88.954811) scale(0.1 -0.1)">
      <use xlink:href="#DejaVuSans-37"/>
     </g>
    </g>
   </g>
   <g id="text_29">
    <g id="patch_31">
     <path d="M 212.660761 316.949412 
L 214.270718 304.326668 
Q 214.650275 301.350776 211.674383 300.971218 
L 202.07403 299.74675 
Q 199.098137 299.367192 198.71858 302.343085 
L 197.108623 314.965829 
Q 196.729066 317.941721 199.704958 318.321279 
L 209.305311 319.545747 
Q 212.281204 319.925305 212.660761 316.949412 
z
" clip-path="url(#p1f33c353c8)" style="fill: #ffffff; stroke: #ffffff; stroke-linejoin: miter"/>
    </g>
    <g clip-path="url(#p1f33c353c8)">
     <!-- 17 -->
     <g transform="translate(207.621893 316.306734) rotate(-82.731505) scale(0.1 -0.1)">
      <use xlink:href="#DejaVuSans-31"/>
      <use xlink:href="#DejaVuSans-37" x="63.623047"/>
     </g>
    </g>
   </g>
   <g id="text_30">
    <g id="patch_32">
     <path d="M 210.405197 423.397281 
L 214.061699 411.208942 
Q 214.923743 408.335463 212.050264 407.473419 
L 202.780301 404.692431 
Q 199.906822 403.830387 199.044779 406.703866 
L 195.388277 418.892205 
Q 194.526233 421.765684 197.399712 422.627728 
L 206.669675 425.408717 
Q 209.543153 426.27076 210.405197 423.397281 
z
" clip-path="url(#p1f33c353c8)" style="fill: #ffffff; stroke: #ffffff; stroke-linejoin: miter"/>
    </g>
    <g clip-path="url(#p1f33c353c8)">
     <!-- 17 -->
     <g transform="translate(205.539739 421.937644) rotate(-73.300756) scale(0.1 -0.1)">
      <use xlink:href="#DejaVuSans-31"/>
      <use xlink:href="#DejaVuSans-37" x="63.623047"/>
     </g>
    </g>
   </g>
   <g id="text_31">
    <g id="patch_33">
     <path d="M 137.86074 106.681082 
L 144.087152 105.37219 
Q 147.022985 104.75503 146.405826 101.819198 
L 144.414844 92.348079 
Q 143.797685 89.412246 140.861852 90.029405 
L 134.63544 91.338297 
Q 131.699607 91.955457 132.316766 94.891289 
L 134.307748 104.362408 
Q 134.924907 107.298241 137.86074 106.681082 
z
" clip-path="url(#p1f33c353c8)" style="fill: #ffffff; stroke: #ffffff; stroke-linejoin: miter"/>
    </g>
    <g clip-path="url(#p1f33c353c8)">
     <!-- 5 -->
     <g transform="translate(136.815748 101.710044) rotate(-11.871638) scale(0.1 -0.1)">
      <use xlink:href="#DejaVuSans-35"/>
     </g>
    </g>
   </g>
   <g id="text_32">
    <g id="patch_34">
     <path d="M 346.209712 262.710814 
L 350.674271 267.243927 
Q 352.779368 269.381348 354.916789 267.276251 
L 361.812197 260.485121 
Q 363.949618 258.380024 361.844521 256.242604 
L 357.379962 251.70949 
Q 355.274865 249.57207 353.137444 251.677167 
L 346.242036 258.468297 
Q 344.104615 260.573393 346.209712 262.710814 
z
" clip-path="url(#p1f33c353c8)" style="fill: #ffffff; stroke: #ffffff; stroke-linejoin: miter"/>
    </g>
    <g clip-path="url(#p1f33c353c8)">
     <!-- 2 -->
     <g transform="translate(349.828855 259.146403) rotate(-314.563469) scale(0.1 -0.1)">
      <use xlink:href="#DejaVuSans-32"/>
     </g>
    </g>
   </g>
   <g id="text_33">
    <g id="patch_35">
     <path d="M 310.149774 406.690108 
L 316.497023 406.249837 
Q 319.489832 406.042243 319.282238 403.049434 
L 318.612533 393.394508 
Q 318.404939 390.401699 315.41213 390.609293 
L 309.064881 391.049564 
Q 306.072072 391.257158 306.279666 394.249967 
L 306.949372 403.904893 
Q 307.156966 406.897702 310.149774 406.690108 
z
" clip-path="url(#p1f33c353c8)" style="fill: #ffffff; stroke: #ffffff; stroke-linejoin: miter"/>
    </g>
    <g clip-path="url(#p1f33c353c8)">
     <!-- 5 -->
     <g transform="translate(309.798271 401.622597) rotate(-3.967918) scale(0.1 -0.1)">
      <use xlink:href="#DejaVuSans-35"/>
     </g>
    </g>
   </g>
   <g id="text_34">
    <g id="patch_36">
     <path d="M 202.21122 453.659248 
L 213.083971 460.270519 
Q 215.647292 461.829168 217.205941 459.265847 
L 222.234208 450.996468 
Q 223.792857 448.433147 221.229537 446.874498 
L 210.356785 440.263228 
Q 207.793464 438.704579 206.234815 441.267899 
L 201.206548 449.537278 
Q 199.647899 452.100599 202.21122 453.659248 
z
" clip-path="url(#p1f33c353c8)" style="fill: #ffffff; stroke: #ffffff; stroke-linejoin: miter"/>
    </g>
    <g clip-path="url(#p1f33c353c8)">
     <!-- 12 -->
     <g transform="translate(204.85037 449.318959) rotate(-328.697947) scale(0.1 -0.1)">
      <use xlink:href="#DejaVuSans-31"/>
      <use xlink:href="#DejaVuSans-32" x="63.623047"/>
     </g>
    </g>
   </g>
   <g id="text_35">
    <g id="patch_37">
     <path d="M 226.021 428.427773 
L 233.175258 438.951186 
Q 234.861919 441.432148 237.342881 439.745486 
L 245.346568 434.304245 
Q 247.82753 432.617583 246.140868 430.136621 
L 238.986611 419.613208 
Q 237.299949 417.132246 234.818987 418.818908 
L 226.8153 424.260149 
Q 224.334339 425.946811 226.021 428.427773 
z
" clip-path="url(#p1f33c353c8)" style="fill: #ffffff; stroke: #ffffff; stroke-linejoin: miter"/>
    </g>
    <g clip-path="url(#p1f33c353c8)">
     <!-- 12 -->
     <g transform="translate(230.221837 425.571868) rotate(-304.209507) scale(0.1 -0.1)">
      <use xlink:href="#DejaVuSans-31"/>
      <use xlink:href="#DejaVuSans-32" x="63.623047"/>
     </g>
    </g>
   </g>
   <g id="text_36">
    <g id="patch_38">
     <path d="M 274.057937 186.538987 
L 276.244691 199.074685 
Q 276.760233 202.030056 279.715604 201.514515 
L 289.249753 199.851357 
Q 292.205124 199.335815 291.689583 196.380445 
L 289.502828 183.844746 
Q 288.987287 180.889376 286.031916 181.404917 
L 276.497766 183.068075 
Q 273.542395 183.583616 274.057937 186.538987 
z
" clip-path="url(#p1f33c353c8)" style="fill: #ffffff; stroke: #ffffff; stroke-linejoin: miter"/>
    </g>
    <g clip-path="url(#p1f33c353c8)">
     <!-- 20 -->
     <g transform="translate(279.062057 185.666057) rotate(-279.895232) scale(0.1 -0.1)">
      <use xlink:href="#DejaVuSans-32"/>
      <use xlink:href="#DejaVuSans-30" x="63.623047"/>
     </g>
    </g>
   </g>
   <g id="text_37">
    <g id="patch_39">
     <path d="M 257.52972 221.238949 
L 260.001566 227.10166 
Q 261.167073 229.866004 263.931417 228.700497 
L 272.849303 224.940523 
Q 275.613646 223.775016 274.448139 221.010673 
L 271.976294 215.147961 
Q 270.810787 212.383618 268.046443 213.549125 
L 259.128557 217.309099 
Q 256.364214 218.474606 257.52972 221.238949 
z
" clip-path="url(#p1f33c353c8)" style="fill: #ffffff; stroke: #ffffff; stroke-linejoin: miter"/>
    </g>
    <g clip-path="url(#p1f33c353c8)">
     <!-- 5 -->
     <g transform="translate(262.210387 219.265479) rotate(-292.86134) scale(0.1 -0.1)">
      <use xlink:href="#DejaVuSans-35"/>
     </g>
    </g>
   </g>
   <g id="text_38">
    <g id="patch_40">
     <path d="M 322.748248 77.628585 
L 329.104136 77.338582 
Q 332.101018 77.201842 331.964278 74.20496 
L 331.523149 64.536894 
Q 331.386409 61.540012 328.389527 61.676752 
L 322.03364 61.966754 
Q 319.036758 62.103494 319.173498 65.100376 
L 319.614626 74.768443 
Q 319.751366 77.765325 322.748248 77.628585 
z
" clip-path="url(#p1f33c353c8)" style="fill: #ffffff; stroke: #ffffff; stroke-linejoin: miter"/>
    </g>
    <g clip-path="url(#p1f33c353c8)">
     <!-- 8 -->
     <g transform="translate(322.516716 72.554177) rotate(-2.612444) scale(0.1 -0.1)">
      <use xlink:href="#DejaVuSans-38"/>
     </g>
    </g>
   </g>
   <g id="text_39">
    <g id="patch_41">
     <path d="M 150.694457 203.572129 
L 153.456395 209.303892 
Q 154.758684 212.006491 157.461283 210.704203 
L 166.179982 206.502964 
Q 168.882581 205.200676 167.580292 202.498076 
L 164.818355 196.766313 
Q 163.516066 194.063714 160.813466 195.366003 
L 152.094768 199.567241 
Q 149.392169 200.86953 150.694457 203.572129 
z
" clip-path="url(#p1f33c353c8)" style="fill: #ffffff; stroke: #ffffff; stroke-linejoin: miter"/>
    </g>
    <g clip-path="url(#p1f33c353c8)">
     <!-- 4 -->
     <g transform="translate(155.270578 201.367056) rotate(-295.727803) scale(0.1 -0.1)">
      <use xlink:href="#DejaVuSans-34"/>
     </g>
    </g>
   </g>
   <g id="text_40">
    <g id="patch_42">
     <path d="M 110.622256 234.867305 
L 111.601544 241.153989 
Q 112.063292 244.118241 115.027543 243.656494 
L 124.590344 242.166878 
Q 127.554596 241.705131 127.092848 238.740879 
L 126.11356 232.454195 
Q 125.651813 229.489943 122.687561 229.95169 
L 113.12476 231.441306 
Q 110.160508 231.903053 110.622256 234.867305 
z
" clip-path="url(#p1f33c353c8)" style="fill: #ffffff; stroke: #ffffff; stroke-linejoin: miter"/>
    </g>
    <g clip-path="url(#p1f33c353c8)">
     <!-- 1 -->
     <g transform="translate(115.641413 234.085461) rotate(-278.853917) scale(0.1 -0.1)">
      <use xlink:href="#DejaVuSans-31"/>
     </g>
    </g>
   </g>
   <g id="matplotlib.axis_1">
    <g id="xtick_1">
     <g id="line2d_1">
      <path d="M 10.8 493.2 
L 10.8 10.8 
" clip-path="url(#p1f33c353c8)" style="fill: none; stroke: #b0b0b0; stroke-opacity: 0.3; stroke-width: 0.8; stroke-linecap: square"/>
     </g>
    </g>
    <g id="xtick_2">
     <g id="line2d_2">
      <path d="M 59.04 493.2 
L 59.04 10.8 
" clip-path="url(#p1f33c353c8)" style="fill: none; stroke: #b0b0b0; stroke-opacity: 0.3; stroke-width: 0.8; stroke-linecap: square"/>
     </g>
    </g>
    <g id="xtick_3">
     <g id="line2d_3">
      <path d="M 107.28 493.2 
L 107.28 10.8 
" clip-path="url(#p1f33c353c8)" style="fill: none; stroke: #b0b0b0; stroke-opacity: 0.3; stroke-width: 0.8; stroke-linecap: square"/>
     </g>
    </g>
    <g id="xtick_4">
     <g id="line2d_4">
      <path d="M 155.52 493.2 
L 155.52 10.8 
" clip-path="url(#p1f33c353c8)" style="fill: none; stroke: #b0b0b0; stroke-opacity: 0.3; stroke-width: 0.8; stroke-linecap: square"/>
     </g>
    </g>
    <g id="xtick_5">
     <g id="line2d_5">
      <path d="M 203.76 493.2 
L 203.76 10.8 
" clip-path="url(#p1f33c353c8)" style="fill: none; stroke: #b0b0b0; stroke-opacity: 0.3; stroke-width: 0.8; stroke-linecap: square"/>
     </g>
    </g>
    <g id="xtick_6">
     <g id="line2d_6">
      <path d="M 252 493.2 
L 252 10.8 
" clip-path="url(#p1f33c353c8)" style="fill: none; stroke: #b0b0b0; stroke-opacity: 0.3; stroke-width: 0.8; stroke-linecap: square"/>
     </g>
    </g>
    <g id="xtick_7">
     <g id="line2d_7">
      <path d="M 300.24 493.2 
L 300.24 10.8 
" clip-path="url(#p1f33c353c8)" style="fill: none; stroke: #b0b0b0; stroke-opacity: 0.3; stroke-width: 0.8; stroke-linecap: square"/>
     </g>
    </g>
    <g id="xtick_8">
     <g id="line2d_8">
      <path d="M 348.48 493.2 
L 348.48 10.8 
" clip-path="url(#p1f33c353c8)" style="fill: none; stroke: #b0b0b0; stroke-opacity: 0.3; stroke-width: 0.8; stroke-linecap: square"/>
     </g>
    </g>
    <g id="xtick_9">
     <g id="line2d_9">
      <path d="M 396.72 493.2 
L 396.72 10.8 
" clip-path="url(#p1f33c353c8)" style="fill: none; stroke: #b0b0b0; stroke-opacity: 0.3; stroke-width: 0.8; stroke-linecap: square"/>
     </g>
    </g>
    <g id="xtick_10">
     <g id="line2d_10">
      <path d="M 444.96 493.2 
L 444.96 10.8 
" clip-path="url(#p1f33c353c8)" style="fill: none; stroke: #b0b0b0; stroke-opacity: 0.3; stroke-width: 0.8; stroke-linecap: square"/>
     </g>
    </g>
    <g id="xtick_11">
     <g id="line2d_11">
      <path d="M 493.2 493.2 
L 493.2 10.8 
" clip-path="url(#p1f33c353c8)" style="fill: none; stroke: #b0b0b0; stroke-opacity: 0.3; stroke-width: 0.8; stroke-linecap: square"/>
     </g>
    </g>
   </g>
   <g id="matplotlib.axis_2">
    <g id="ytick_1">
     <g id="line2d_12">
      <path d="M 10.8 493.2 
L 493.2 493.2 
" clip-path="url(#p1f33c353c8)" style="fill: none; stroke: #b0b0b0; stroke-opacity: 0.3; stroke-width: 0.8; stroke-linecap: square"/>
     </g>
    </g>
    <g id="ytick_2">
     <g id="line2d_13">
      <path d="M 10.8 444.96 
L 493.2 444.96 
" clip-path="url(#p1f33c353c8)" style="fill: none; stroke: #b0b0b0; stroke-opacity: 0.3; stroke-width: 0.8; stroke-linecap: square"/>
     </g>
    </g>
    <g id="ytick_3">
     <g id="line2d_14">
      <path d="M 10.8 396.72 
L 493.2 396.72 
" clip-path="url(#p1f33c353c8)" style="fill: none; stroke: #b0b0b0; stroke-opacity: 0.3; stroke-width: 0.8; stroke-linecap: square"/>
     </g>
    </g>
    <g id="ytick_4">
     <g id="line2d_15">
      <path d="M 10.8 348.48 
L 493.2 348.48 
" clip-path="url(#p1f33c353c8)" style="fill: none; stroke: #b0b0b0; stroke-opacity: 0.3; stroke-width: 0.8; stroke-linecap: square"/>
     </g>
    </g>
    <g id="ytick_5">
     <g id="line2d_16">
      <path d="M 10.8 300.24 
L 493.2 300.24 
" clip-path="url(#p1f33c353c8)" style="fill: none; stroke: #b0b0b0; stroke-opacity: 0.3; stroke-width: 0.8; stroke-linecap: square"/>
     </g>
    </g>
    <g id="ytick_6">
     <g id="line2d_17">
      <path d="M 10.8 252 
L 493.2 252 
" clip-path="url(#p1f33c353c8)" style="fill: none; stroke: #b0b0b0; stroke-opacity: 0.3; stroke-width: 0.8; stroke-linecap: square"/>
     </g>
    </g>
    <g id="ytick_7">
     <g id="line2d_18">
      <path d="M 10.8 203.76 
L 493.2 203.76 
" clip-path="url(#p1f33c353c8)" style="fill: none; stroke: #b0b0b0; stroke-opacity: 0.3; stroke-width: 0.8; stroke-linecap: square"/>
     </g>
    </g>
    <g id="ytick_8">
     <g id="line2d_19">
      <path d="M 10.8 155.52 
L 493.2 155.52 
" clip-path="url(#p1f33c353c8)" style="fill: none; stroke: #b0b0b0; stroke-opacity: 0.3; stroke-width: 0.8; stroke-linecap: square"/>
     </g>
    </g>
    <g id="ytick_9">
     <g id="line2d_20">
      <path d="M 10.8 107.28 
L 493.2 107.28 
" clip-path="url(#p1f33c353c8)" style="fill: none; stroke: #b0b0b0; stroke-opacity: 0.3; stroke-width: 0.8; stroke-linecap: square"/>
     </g>
    </g>
    <g id="ytick_10">
     <g id="line2d_21">
      <path d="M 10.8 59.04 
L 493.2 59.04 
" clip-path="url(#p1f33c353c8)" style="fill: none; stroke: #b0b0b0; stroke-opacity: 0.3; stroke-width: 0.8; stroke-linecap: square"/>
     </g>
    </g>
    <g id="ytick_11">
     <g id="line2d_22">
      <path d="M 10.8 10.8 
L 493.2 10.8 
" clip-path="url(#p1f33c353c8)" style="fill: none; stroke: #b0b0b0; stroke-opacity: 0.3; stroke-width: 0.8; stroke-linecap: square"/>
     </g>
    </g>
   </g>
   <g id="PathCollection_1">
    <defs>
     <path id="mce1a680dff" d="M 0 8.660254 
C 2.296726 8.660254 4.499694 7.747755 6.123724 6.123724 
C 7.747755 4.499694 8.660254 2.296726 8.660254 0 
C 8.660254 -2.296726 7.747755 -4.499694 6.123724 -6.123724 
C 4.499694 -7.747755 2.296726 -8.660254 0 -8.660254 
C -2.296726 -8.660254 -4.499694 -7.747755 -6.123724 -6.123724 
C -7.747755 -4.499694 -8.660254 -2.296726 -8.660254 0 
C -8.660254 2.296726 -7.747755 4.499694 -6.123724 6.123724 
C -4.499694 7.747755 -2.296726 8.660254 0 8.660254 
z
" style="stroke: #1f78b4"/>
    </defs>
    <g clip-path="url(#p1f33c353c8)">
     <use xlink:href="#mce1a680dff" x="461.844" y="364.3992" style="fill: #1f78b4; stroke: #1f78b4"/>
     <use xlink:href="#mce1a680dff" x="383.2128" y="284.8032" style="fill: #1f78b4; stroke: #1f78b4"/>
     <use xlink:href="#mce1a680dff" x="322.4304" y="386.5896" style="fill: #1f78b4; stroke: #1f78b4"/>
     <use xlink:href="#mce1a680dff" x="185.9112" y="98.5968" style="fill: #1f78b4; stroke: #1f78b4"/>
     <use xlink:href="#mce1a680dff" x="327.2544" y="189.7704" style="fill: #1f78b4; stroke: #1f78b4"/>
     <use xlink:href="#mce1a680dff" x="326.2896" y="299.2752" style="fill: #1f78b4; stroke: #1f78b4"/>
     <use xlink:href="#mce1a680dff" x="90.396" y="95.22" style="fill: #1f78b4; stroke: #1f78b4"/>
     <use xlink:href="#mce1a680dff" x="239.4576" y="22.86" style="fill: #1f78b4; stroke: #1f78b4"/>
     <use xlink:href="#mce1a680dff" x="303.6168" y="94.7376" style="fill: #1f78b4; stroke: #1f78b4"/>
     <use xlink:href="#mce1a680dff" x="401.0616" y="315.1944" style="fill: #1f78b4; stroke: #1f78b4"/>
     <use xlink:href="#mce1a680dff" x="368.7408" y="150.696" style="fill: #1f78b4; stroke: #1f78b4"/>
     <use xlink:href="#mce1a680dff" x="190.7352" y="64.3464" style="fill: #1f78b4; stroke: #1f78b4"/>
     <use xlink:href="#mce1a680dff" x="183.0168" y="487.4112" style="fill: #1f78b4; stroke: #1f78b4"/>
     <use xlink:href="#mce1a680dff" x="16.5888" y="124.164" style="fill: #1f78b4; stroke: #1f78b4"/>
     <use xlink:href="#mce1a680dff" x="479.6928" y="387.072" style="fill: #1f78b4; stroke: #1f78b4"/>
     <use xlink:href="#mce1a680dff" x="277.5672" y="490.3056" style="fill: #1f78b4; stroke: #1f78b4"/>
     <use xlink:href="#mce1a680dff" x="303.6168" y="310.3704" style="fill: #1f78b4; stroke: #1f78b4"/>
     <use xlink:href="#mce1a680dff" x="262.1304" y="72.5472" style="fill: #1f78b4; stroke: #1f78b4"/>
     <use xlink:href="#mce1a680dff" x="226.4328" y="342.6912" style="fill: #1f78b4; stroke: #1f78b4"/>
     <use xlink:href="#mce1a680dff" x="206.6544" y="220.1616" style="fill: #1f78b4; stroke: #1f78b4"/>
     <use xlink:href="#mce1a680dff" x="194.5944" y="368.2584" style="fill: #1f78b4; stroke: #1f78b4"/>
     <use xlink:href="#mce1a680dff" x="91.8432" y="63.3816" style="fill: #1f78b4; stroke: #1f78b4"/>
     <use xlink:href="#mce1a680dff" x="389.0016" y="66.7584" style="fill: #1f78b4; stroke: #1f78b4"/>
     <use xlink:href="#mce1a680dff" x="228.3624" y="131.8824" style="fill: #1f78b4; stroke: #1f78b4"/>
     <use xlink:href="#mce1a680dff" x="36.8496" y="343.1736" style="fill: #1f78b4; stroke: #1f78b4"/>
     <use xlink:href="#mce1a680dff" x="145.872" y="410.2272" style="fill: #1f78b4; stroke: #1f78b4"/>
    </g>
   </g>
   <g id="patch_43">
    <path d="M 10.8 493.2 
L 10.8 10.8 
" style="fill: none; stroke: #000000; stroke-width: 0.8; stroke-linejoin: miter; stroke-linecap: square"/>
   </g>
   <g id="patch_44">
    <path d="M 493.2 493.2 
L 493.2 10.8 
" style="fill: none; stroke: #000000; stroke-width: 0.8; stroke-linejoin: miter; stroke-linecap: square"/>
   </g>
   <g id="patch_45">
    <path d="M 10.8 493.2 
L 493.2 493.2 
" style="fill: none; stroke: #000000; stroke-width: 0.8; stroke-linejoin: miter; stroke-linecap: square"/>
   </g>
   <g id="patch_46">
    <path d="M 10.8 10.8 
L 493.2 10.8 
" style="fill: none; stroke: #000000; stroke-width: 0.8; stroke-linejoin: miter; stroke-linecap: square"/>
   </g>
   <g id="text_41">
    <g clip-path="url(#p1f33c353c8)">
     <!-- 0 -->
     <g transform="translate(458.0265 367.71045) scale(0.12 -0.12)">
      <use xlink:href="#DejaVuSans-30"/>
     </g>
    </g>
   </g>
   <g id="text_42">
    <g clip-path="url(#p1f33c353c8)">
     <!-- 1 -->
     <g transform="translate(379.3953 288.11445) scale(0.12 -0.12)">
      <use xlink:href="#DejaVuSans-31"/>
     </g>
    </g>
   </g>
   <g id="text_43">
    <g clip-path="url(#p1f33c353c8)">
     <!-- 2 -->
     <g transform="translate(318.6129 389.90085) scale(0.12 -0.12)">
      <use xlink:href="#DejaVuSans-32"/>
     </g>
    </g>
   </g>
   <g id="text_44">
    <g clip-path="url(#p1f33c353c8)">
     <!-- 3 -->
     <g transform="translate(182.0937 101.90805) scale(0.12 -0.12)">
      <use xlink:href="#DejaVuSans-33"/>
     </g>
    </g>
   </g>
   <g id="text_45">
    <g clip-path="url(#p1f33c353c8)">
     <!-- 4 -->
     <g transform="translate(323.4369 193.08165) scale(0.12 -0.12)">
      <use xlink:href="#DejaVuSans-34"/>
     </g>
    </g>
   </g>
   <g id="text_46">
    <g clip-path="url(#p1f33c353c8)">
     <!-- 5 -->
     <g transform="translate(322.4721 302.58645) scale(0.12 -0.12)">
      <use xlink:href="#DejaVuSans-35"/>
     </g>
    </g>
   </g>
   <g id="text_47">
    <g clip-path="url(#p1f33c353c8)">
     <!-- 6 -->
     <g transform="translate(86.5785 98.53125) scale(0.12 -0.12)">
      <use xlink:href="#DejaVuSans-36"/>
     </g>
    </g>
   </g>
   <g id="text_48">
    <g clip-path="url(#p1f33c353c8)">
     <!-- 7 -->
     <g transform="translate(235.6401 26.17125) scale(0.12 -0.12)">
      <use xlink:href="#DejaVuSans-37"/>
     </g>
    </g>
   </g>
   <g id="text_49">
    <g clip-path="url(#p1f33c353c8)">
     <!-- 8 -->
     <g transform="translate(299.7993 98.04885) scale(0.12 -0.12)">
      <use xlink:href="#DejaVuSans-38"/>
     </g>
    </g>
   </g>
   <g id="text_50">
    <g clip-path="url(#p1f33c353c8)">
     <!-- 9 -->
     <g transform="translate(397.2441 318.50565) scale(0.12 -0.12)">
      <use xlink:href="#DejaVuSans-39"/>
     </g>
    </g>
   </g>
   <g id="text_51">
    <g clip-path="url(#p1f33c353c8)">
     <!-- 10 -->
     <g transform="translate(361.1058 154.00725) scale(0.12 -0.12)">
      <use xlink:href="#DejaVuSans-31"/>
      <use xlink:href="#DejaVuSans-30" x="63.623047"/>
     </g>
    </g>
   </g>
   <g id="text_52">
    <g clip-path="url(#p1f33c353c8)">
     <!-- 11 -->
     <g transform="translate(183.1002 67.65765) scale(0.12 -0.12)">
      <use xlink:href="#DejaVuSans-31"/>
      <use xlink:href="#DejaVuSans-31" x="63.623047"/>
     </g>
    </g>
   </g>
   <g id="text_53">
    <g clip-path="url(#p1f33c353c8)">
     <!-- 12 -->
     <g transform="translate(175.3818 490.72245) scale(0.12 -0.12)">
      <use xlink:href="#DejaVuSans-31"/>
      <use xlink:href="#DejaVuSans-32" x="63.623047"/>
     </g>
    </g>
   </g>
   <g id="text_54">
    <g clip-path="url(#p1f33c353c8)">
     <!-- 13 -->
     <g transform="translate(8.9538 127.47525) scale(0.12 -0.12)">
      <use xlink:href="#DejaVuSans-31"/>
      <use xlink:href="#DejaVuSans-33" x="63.623047"/>
     </g>
    </g>
   </g>
   <g id="text_55">
    <g clip-path="url(#p1f33c353c8)">
     <!-- 14 -->
     <g transform="translate(472.0578 390.38325) scale(0.12 -0.12)">
      <use xlink:href="#DejaVuSans-31"/>
      <use xlink:href="#DejaVuSans-34" x="63.623047"/>
     </g>
    </g>
   </g>
   <g id="text_56">
    <g clip-path="url(#p1f33c353c8)">
     <!-- 15 -->
     <g transform="translate(269.9322 493.61685) scale(0.12 -0.12)">
      <use xlink:href="#DejaVuSans-31"/>
      <use xlink:href="#DejaVuSans-35" x="63.623047"/>
     </g>
    </g>
   </g>
   <g id="text_57">
    <g clip-path="url(#p1f33c353c8)">
     <!-- 16 -->
     <g transform="translate(295.9818 313.68165) scale(0.12 -0.12)">
      <use xlink:href="#DejaVuSans-31"/>
      <use xlink:href="#DejaVuSans-36" x="63.623047"/>
     </g>
    </g>
   </g>
   <g id="text_58">
    <g clip-path="url(#p1f33c353c8)">
     <!-- 17 -->
     <g transform="translate(254.4954 75.85845) scale(0.12 -0.12)">
      <use xlink:href="#DejaVuSans-31"/>
      <use xlink:href="#DejaVuSans-37" x="63.623047"/>
     </g>
    </g>
   </g>
   <g id="text_59">
    <g clip-path="url(#p1f33c353c8)">
     <!-- 18 -->
     <g transform="translate(218.7978 346.00245) scale(0.12 -0.12)">
      <use xlink:href="#DejaVuSans-31"/>
      <use xlink:href="#DejaVuSans-38" x="63.623047"/>
     </g>
    </g>
   </g>
   <g id="text_60">
    <g clip-path="url(#p1f33c353c8)">
     <!-- 19 -->
     <g transform="translate(199.0194 223.47285) scale(0.12 -0.12)">
      <use xlink:href="#DejaVuSans-31"/>
      <use xlink:href="#DejaVuSans-39" x="63.623047"/>
     </g>
    </g>
   </g>
   <g id="text_61">
    <g clip-path="url(#p1f33c353c8)">
     <!-- 20 -->
     <g transform="translate(186.9594 371.56965) scale(0.12 -0.12)">
      <use xlink:href="#DejaVuSans-32"/>
      <use xlink:href="#DejaVuSans-30" x="63.623047"/>
     </g>
    </g>
   </g>
   <g id="text_62">
    <g clip-path="url(#p1f33c353c8)">
     <!-- 21 -->
     <g transform="translate(84.2082 66.69285) scale(0.12 -0.12)">
      <use xlink:href="#DejaVuSans-32"/>
      <use xlink:href="#DejaVuSans-31" x="63.623047"/>
     </g>
    </g>
   </g>
   <g id="text_63">
    <g clip-path="url(#p1f33c353c8)">
     <!-- 22 -->
     <g transform="translate(381.3666 70.06965) scale(0.12 -0.12)">
      <use xlink:href="#DejaVuSans-32"/>
      <use xlink:href="#DejaVuSans-32" x="63.623047"/>
     </g>
    </g>
   </g>
   <g id="text_64">
    <g clip-path="url(#p1f33c353c8)">
     <!-- 23 -->
     <g transform="translate(220.7274 135.19365) scale(0.12 -0.12)">
      <use xlink:href="#DejaVuSans-32"/>
      <use xlink:href="#DejaVuSans-33" x="63.623047"/>
     </g>
    </g>
   </g>
   <g id="text_65">
    <g clip-path="url(#p1f33c353c8)">
     <!-- 24 -->
     <g transform="translate(29.2146 346.48485) scale(0.12 -0.12)">
      <use xlink:href="#DejaVuSans-32"/>
      <use xlink:href="#DejaVuSans-34" x="63.623047"/>
     </g>
    </g>
   </g>
   <g id="text_66">
    <g clip-path="url(#p1f33c353c8)">
     <!-- 25 -->
     <g transform="translate(138.237 413.53845) scale(0.12 -0.12)">
      <use xlink:href="#DejaVuSans-32"/>
      <use xlink:href="#DejaVuSans-35" x="63.623047"/>
     </g>
    </g>
   </g>
  </g>
 </g>
 <defs>
  <clipPath id="p1f33c353c8">
   <rect x="10.8" y="10.8" width="482.4" height="482.4"/>
  </clipPath>
 </defs>
</svg>
