<?xml version="1.0" encoding="utf-8" standalone="no"?>
<!DOCTYPE svg PUBLIC "-//W3C//DTD SVG 1.1//EN"
  "http://www.w3.org/Graphics/SVG/1.1/DTD/svg11.dtd">
<svg xmlns:xlink="http://www.w3.org/1999/xlink" width="504pt" height="504pt" viewBox="0 0 504 504" xmlns="http://www.w3.org/2000/svg" version="1.1">
 <metadata>
  <rdf:RDF xmlns:dc="http://purl.org/dc/elements/1.1/" xmlns:cc="http://creativecommons.org/ns#" xmlns:rdf="http://www.w3.org/1999/02/22-rdf-syntax-ns#">
   <cc:Work>
    <dc:type rdf:resource="http://purl.org/dc/dcmitype/StillImage"/>
    <dc:date>2024-10-29T14:59:47.885922</dc:date>
    <dc:format>image/svg+xml</dc:format>
    <dc:creator>
     <cc:Agent>
      <dc:title>Matplotlib v3.9.2, https://matplotlib.org/</dc:title>
     </cc:Agent>
    </dc:creator>
   </cc:Work>
  </rdf:RDF>
 </metadata>
 <defs>
  <style type="text/css">*{stroke-linejoin: round; stroke-linecap: butt}</style>
 </defs>
 <g id="figure_1">
  <g id="patch_1">
   <path d="M 0 504 
L 504 504 
L 504 0 
L 0 0 
L 0 504 
z
" style="fill: none; opacity: 0"/>
  </g>
  <g id="axes_1">
   <g id="patch_2">
    <path d="M 10.8 493.2 
L 493.2 493.2 
L 493.2 10.8 
L 10.8 10.8 
L 10.8 493.2 
z
" style="fill: none; opacity: 0"/>
   </g>
   <g id="LineCollection_1">
    <path d="M 405.4032 176.7456 
L 437.2416 275.6376 
" clip-path="url(#p4b67b9cb5a)" style="fill: none; stroke: #000000"/>
    <path d="M 405.4032 176.7456 
L 372.1176 467.1504 
" clip-path="url(#p4b67b9cb5a)" style="fill: none; stroke: #000000"/>
    <path d="M 405.4032 176.7456 
L 440.6184 114.9984 
" clip-path="url(#p4b67b9cb5a)" style="fill: none; stroke: #000000"/>
    <path d="M 405.4032 176.7456 
L 430.488 221.6088 
" clip-path="url(#p4b67b9cb5a)" style="fill: none; stroke: #000000"/>
    <path d="M 314.2296 177.7104 
L 116.928 226.4328 
" clip-path="url(#p4b67b9cb5a)" style="fill: none; stroke: #000000"/>
    <path d="M 314.2296 177.7104 
L 13.6944 200.3832 
" clip-path="url(#p4b67b9cb5a)" style="fill: none; stroke: #000000"/>
    <path d="M 314.2296 177.7104 
L 372.1176 467.1504 
" clip-path="url(#p4b67b9cb5a)" style="fill: none; stroke: #000000"/>
    <path d="M 204.7248 413.604 
L 431.4528 277.5672 
" clip-path="url(#p4b67b9cb5a)" style="fill: none; stroke: #000000"/>
    <path d="M 204.7248 413.604 
L 16.5888 487.4112 
" clip-path="url(#p4b67b9cb5a)" style="fill: none; stroke: #000000"/>
    <path d="M 408.78 264.5424 
L 16.5888 487.4112 
" clip-path="url(#p4b67b9cb5a)" style="fill: none; stroke: #000000"/>
    <path d="M 408.78 264.5424 
L 193.6296 241.8696 
" clip-path="url(#p4b67b9cb5a)" style="fill: none; stroke: #000000"/>
    <path d="M 408.78 264.5424 
L 188.8056 135.2592 
" clip-path="url(#p4b67b9cb5a)" style="fill: none; stroke: #000000"/>
    <path d="M 481.14 200.3832 
L 325.8072 435.312 
" clip-path="url(#p4b67b9cb5a)" style="fill: none; stroke: #000000"/>
    <path d="M 481.14 200.3832 
L 188.8056 135.2592 
" clip-path="url(#p4b67b9cb5a)" style="fill: none; stroke: #000000"/>
    <path d="M 409.2624 102.9384 
L 430.488 221.6088 
" clip-path="url(#p4b67b9cb5a)" style="fill: none; stroke: #000000"/>
    <path d="M 409.2624 102.9384 
L 185.9112 11.7648 
" clip-path="url(#p4b67b9cb5a)" style="fill: none; stroke: #000000"/>
    <path d="M 409.2624 102.9384 
L 16.5888 487.4112 
" clip-path="url(#p4b67b9cb5a)" style="fill: none; stroke: #000000"/>
    <path d="M 409.2624 102.9384 
L 356.1984 355.2336 
" clip-path="url(#p4b67b9cb5a)" style="fill: none; stroke: #000000"/>
    <path d="M 188.8056 135.2592 
L 430.488 221.6088 
" clip-path="url(#p4b67b9cb5a)" style="fill: none; stroke: #000000"/>
    <path d="M 188.8056 135.2592 
L 379.836 24.3072 
" clip-path="url(#p4b67b9cb5a)" style="fill: none; stroke: #000000"/>
    <path d="M 188.8056 135.2592 
L 135.7416 412.1568 
" clip-path="url(#p4b67b9cb5a)" style="fill: none; stroke: #000000"/>
    <path d="M 188.8056 135.2592 
L 372.1176 467.1504 
" clip-path="url(#p4b67b9cb5a)" style="fill: none; stroke: #000000"/>
    <path d="M 353.304 313.2648 
L 437.2416 275.6376 
" clip-path="url(#p4b67b9cb5a)" style="fill: none; stroke: #000000"/>
    <path d="M 439.6536 320.9832 
L 135.7416 412.1568 
" clip-path="url(#p4b67b9cb5a)" style="fill: none; stroke: #000000"/>
    <path d="M 16.5888 487.4112 
L 283.8384 309.4056 
" clip-path="url(#p4b67b9cb5a)" style="fill: none; stroke: #000000"/>
    <path d="M 116.928 226.4328 
L 161.3088 297.3456 
" clip-path="url(#p4b67b9cb5a)" style="fill: none; stroke: #000000"/>
    <path d="M 116.928 226.4328 
L 193.6296 241.8696 
" clip-path="url(#p4b67b9cb5a)" style="fill: none; stroke: #000000"/>
    <path d="M 116.928 226.4328 
L 93.7728 453.6432 
" clip-path="url(#p4b67b9cb5a)" style="fill: none; stroke: #000000"/>
    <path d="M 116.928 226.4328 
L 13.6944 200.3832 
" clip-path="url(#p4b67b9cb5a)" style="fill: none; stroke: #000000"/>
    <path d="M 13.6944 200.3832 
L 325.8072 435.312 
" clip-path="url(#p4b67b9cb5a)" style="fill: none; stroke: #000000"/>
    <path d="M 13.6944 200.3832 
L 440.6184 114.9984 
" clip-path="url(#p4b67b9cb5a)" style="fill: none; stroke: #000000"/>
    <path d="M 193.6296 241.8696 
L 135.7416 412.1568 
" clip-path="url(#p4b67b9cb5a)" style="fill: none; stroke: #000000"/>
    <path d="M 431.4528 277.5672 
L 325.8072 435.312 
" clip-path="url(#p4b67b9cb5a)" style="fill: none; stroke: #000000"/>
    <path d="M 431.4528 277.5672 
L 430.488 221.6088 
" clip-path="url(#p4b67b9cb5a)" style="fill: none; stroke: #000000"/>
    <path d="M 161.3088 297.3456 
L 430.488 221.6088 
" clip-path="url(#p4b67b9cb5a)" style="fill: none; stroke: #000000"/>
    <path d="M 161.3088 297.3456 
L 372.1176 467.1504 
" clip-path="url(#p4b67b9cb5a)" style="fill: none; stroke: #000000"/>
    <path d="M 283.8384 309.4056 
L 135.7416 412.1568 
" clip-path="url(#p4b67b9cb5a)" style="fill: none; stroke: #000000"/>
    <path d="M 283.8384 309.4056 
L 325.8072 435.312 
" clip-path="url(#p4b67b9cb5a)" style="fill: none; stroke: #000000"/>
    <path d="M 135.7416 412.1568 
L 93.7728 453.6432 
" clip-path="url(#p4b67b9cb5a)" style="fill: none; stroke: #000000"/>
    <path d="M 440.6184 114.9984 
L 160.8264 358.128 
" clip-path="url(#p4b67b9cb5a)" style="fill: none; stroke: #000000"/>
    <path d="M 437.2416 275.6376 
L 93.7728 453.6432 
" clip-path="url(#p4b67b9cb5a)" style="fill: none; stroke: #000000"/>
    <path d="M 160.8264 358.128 
L 430.488 221.6088 
" clip-path="url(#p4b67b9cb5a)" style="fill: none; stroke: #000000"/>
    <path d="M 430.488 221.6088 
L 185.9112 11.7648 
" clip-path="url(#p4b67b9cb5a)" style="fill: none; stroke: #000000"/>
   </g>
   <g id="text_1">
    <g id="patch_3">
     <path d="M 412.885736 225.566203 
L 414.835588 231.622562 
Q 415.754968 234.478213 418.610619 233.558832 
L 427.823066 230.592874 
Q 430.678717 229.673493 429.759337 226.817843 
L 427.809485 220.761484 
Q 426.890104 217.905833 424.034454 218.825214 
L 414.822006 221.791172 
Q 411.966356 222.710553 412.885736 225.566203 
z
" clip-path="url(#p4b67b9cb5a)" style="fill: #ffffff; stroke: #ffffff; stroke-linejoin: miter"/>
    </g>
    <g clip-path="url(#p4b67b9cb5a)">
     <!-- 1 -->
     <g transform="translate(417.721007 224.009482) rotate(-287.846026) scale(0.1 -0.1)">
      <defs>
       <path id="DejaVuSans-31" d="M 794 531 
L 1825 531 
L 1825 4091 
L 703 3866 
L 703 4441 
L 1819 4666 
L 2450 4666 
L 2450 531 
L 3481 531 
L 3481 0 
L 794 0 
L 794 531 
z
" transform="scale(0.015625)"/>
      </defs>
      <use xlink:href="#DejaVuSans-31"/>
     </g>
    </g>
   </g>
   <g id="text_2">
    <g id="patch_4">
     <path d="M 396.186403 325.99958 
L 396.910916 319.678465 
Q 397.252533 316.697979 394.272047 316.356362 
L 384.656874 315.254291 
Q 381.676388 314.912674 381.334771 317.89316 
L 380.610258 324.214274 
Q 380.268641 327.19476 383.249127 327.536378 
L 392.864299 328.638449 
Q 395.844786 328.980066 396.186403 325.99958 
z
" clip-path="url(#p4b67b9cb5a)" style="fill: #ffffff; stroke: #ffffff; stroke-linejoin: miter"/>
    </g>
    <g clip-path="url(#p4b67b9cb5a)">
     <!-- 9 -->
     <g transform="translate(391.139757 325.421144) rotate(-83.461409) scale(0.1 -0.1)">
      <defs>
       <path id="DejaVuSans-39" d="M 703 97 
L 703 672 
Q 941 559 1184 500 
Q 1428 441 1663 441 
Q 2288 441 2617 861 
Q 2947 1281 2994 2138 
Q 2813 1869 2534 1725 
Q 2256 1581 1919 1581 
Q 1219 1581 811 2004 
Q 403 2428 403 3163 
Q 403 3881 828 4315 
Q 1253 4750 1959 4750 
Q 2769 4750 3195 4129 
Q 3622 3509 3622 2328 
Q 3622 1225 3098 567 
Q 2575 -91 1691 -91 
Q 1453 -91 1209 -44 
Q 966 3 703 97 
z
M 1959 2075 
Q 2384 2075 2632 2365 
Q 2881 2656 2881 3163 
Q 2881 3666 2632 3958 
Q 2384 4250 1959 4250 
Q 1534 4250 1286 3958 
Q 1038 3666 1038 3163 
Q 1038 2656 1286 2365 
Q 1534 2075 1959 2075 
z
" transform="scale(0.015625)"/>
      </defs>
      <use xlink:href="#DejaVuSans-39"/>
     </g>
    </g>
   </g>
   <g id="text_3">
    <g id="patch_5">
     <path d="M 426.669379 155.280408 
L 432.973445 144.226704 
Q 434.459668 141.620722 431.853687 140.134498 
L 423.446682 135.339879 
Q 420.840701 133.853655 419.354477 136.459636 
L 413.050411 147.513341 
Q 411.564188 150.119322 414.170169 151.605546 
L 422.577174 156.400166 
Q 425.183155 157.886389 426.669379 155.280408 
z
" clip-path="url(#p4b67b9cb5a)" style="fill: #ffffff; stroke: #ffffff; stroke-linejoin: miter"/>
    </g>
    <g clip-path="url(#p4b67b9cb5a)">
     <!-- 19 -->
     <g transform="translate(422.256855 152.763891) rotate(-60.303347) scale(0.1 -0.1)">
      <use xlink:href="#DejaVuSans-31"/>
      <use xlink:href="#DejaVuSans-39" x="63.623047"/>
     </g>
    </g>
   </g>
   <g id="text_4">
    <g id="patch_6">
     <path d="M 407.999365 197.451352 
L 414.209569 208.558061 
Q 415.673664 211.176539 418.292142 209.712444 
L 426.73946 204.989212 
Q 429.357938 203.525117 427.893842 200.906639 
L 421.683639 189.79993 
Q 420.219544 187.181452 417.601066 188.645547 
L 409.153748 193.368779 
Q 406.53527 194.832874 407.999365 197.451352 
z
" clip-path="url(#p4b67b9cb5a)" style="fill: #ffffff; stroke: #ffffff; stroke-linejoin: miter"/>
    </g>
    <g clip-path="url(#p4b67b9cb5a)">
     <!-- 14 -->
     <g transform="translate(412.433048 194.972303) rotate(-299.211292) scale(0.1 -0.1)">
      <defs>
       <path id="DejaVuSans-34" d="M 2419 4116 
L 825 1625 
L 2419 1625 
L 2419 4116 
z
M 2253 4666 
L 3047 4666 
L 3047 1625 
L 3713 1625 
L 3713 1100 
L 3047 1100 
L 3047 0 
L 2419 0 
L 2419 1100 
L 313 1100 
L 313 1709 
L 2253 4666 
z
" transform="scale(0.015625)"/>
      </defs>
      <use xlink:href="#DejaVuSans-31"/>
      <use xlink:href="#DejaVuSans-34" x="63.623047"/>
     </g>
    </g>
   </g>
   <g id="text_5">
    <g id="patch_7">
     <path d="M 211.280729 211.207525 
L 223.634625 208.156808 
Q 226.547135 207.437582 225.827909 204.525072 
L 223.507655 195.129193 
Q 222.788429 192.216684 219.875919 192.93591 
L 207.522023 195.986627 
Q 204.609513 196.705853 205.328739 199.618363 
L 207.648993 209.014242 
Q 208.368219 211.926751 211.280729 211.207525 
z
" clip-path="url(#p4b67b9cb5a)" style="fill: #ffffff; stroke: #ffffff; stroke-linejoin: miter"/>
    </g>
    <g clip-path="url(#p4b67b9cb5a)">
     <!-- 11 -->
     <g transform="translate(210.062914 206.275979) rotate(-13.871317) scale(0.1 -0.1)">
      <use xlink:href="#DejaVuSans-31"/>
      <use xlink:href="#DejaVuSans-31" x="63.623047"/>
     </g>
    </g>
   </g>
   <g id="text_6">
    <g id="patch_8">
     <path d="M 158.207904 197.342236 
L 170.896846 196.384964 
Q 173.888345 196.159281 173.662662 193.167782 
L 172.9346 183.517081 
Q 172.708917 180.525582 169.717417 180.751265 
L 157.028475 181.708536 
Q 154.036976 181.934219 154.262659 184.925718 
L 154.990721 194.576419 
Q 155.216404 197.567919 158.207904 197.342236 
z
" clip-path="url(#p4b67b9cb5a)" style="fill: #ffffff; stroke: #ffffff; stroke-linejoin: miter"/>
    </g>
    <g clip-path="url(#p4b67b9cb5a)">
     <!-- 12 -->
     <g transform="translate(157.825771 192.276942) rotate(-4.314302) scale(0.1 -0.1)">
      <defs>
       <path id="DejaVuSans-32" d="M 1228 531 
L 3431 531 
L 3431 0 
L 469 0 
L 469 531 
Q 828 903 1448 1529 
Q 2069 2156 2228 2338 
Q 2531 2678 2651 2914 
Q 2772 3150 2772 3378 
Q 2772 3750 2511 3984 
Q 2250 4219 1831 4219 
Q 1534 4219 1204 4116 
Q 875 4013 500 3803 
L 500 4441 
Q 881 4594 1212 4672 
Q 1544 4750 1819 4750 
Q 2544 4750 2975 4387 
Q 3406 4025 3406 3419 
Q 3406 3131 3298 2873 
Q 3191 2616 2906 2266 
Q 2828 2175 2409 1742 
Q 1991 1309 1228 531 
z
" transform="scale(0.015625)"/>
      </defs>
      <use xlink:href="#DejaVuSans-31"/>
      <use xlink:href="#DejaVuSans-32" x="63.623047"/>
     </g>
    </g>
   </g>
   <g id="text_7">
    <g id="patch_9">
     <path d="M 334.239034 317.729104 
L 336.734612 330.206993 
Q 337.322961 333.148735 340.264703 332.560387 
L 349.754885 330.662351 
Q 352.696627 330.074002 352.108279 327.13226 
L 349.612701 314.654371 
Q 349.024352 311.712629 346.08261 312.300977 
L 336.592428 314.199014 
Q 333.650686 314.787362 334.239034 317.729104 
z
" clip-path="url(#p4b67b9cb5a)" style="fill: #ffffff; stroke: #ffffff; stroke-linejoin: miter"/>
    </g>
    <g clip-path="url(#p4b67b9cb5a)">
     <!-- 19 -->
     <g transform="translate(339.220078 316.732896) rotate(-281.309932) scale(0.1 -0.1)">
      <use xlink:href="#DejaVuSans-31"/>
      <use xlink:href="#DejaVuSans-39" x="63.623047"/>
     </g>
    </g>
   </g>
   <g id="text_8">
    <g id="patch_10">
     <path d="M 316.667369 355.580298 
L 327.578967 349.033339 
Q 330.151446 347.489852 328.607958 344.917373 
L 323.628604 336.618449 
Q 322.085117 334.045971 319.512638 335.589458 
L 308.60104 342.136416 
Q 306.028562 343.679904 307.572049 346.252382 
L 312.551403 354.551306 
Q 314.09489 357.123785 316.667369 355.580298 
z
" clip-path="url(#p4b67b9cb5a)" style="fill: #ffffff; stroke: #ffffff; stroke-linejoin: miter"/>
    </g>
    <g clip-path="url(#p4b67b9cb5a)">
     <!-- 17 -->
     <g transform="translate(314.053892 351.224502) rotate(-30.963757) scale(0.1 -0.1)">
      <defs>
       <path id="DejaVuSans-37" d="M 525 4666 
L 3525 4666 
L 3525 4397 
L 1831 0 
L 1172 0 
L 2766 4134 
L 525 4134 
L 525 4666 
z
" transform="scale(0.015625)"/>
      </defs>
      <use xlink:href="#DejaVuSans-31"/>
      <use xlink:href="#DejaVuSans-37" x="63.623047"/>
     </g>
    </g>
   </g>
   <g id="text_9">
    <g id="patch_11">
     <path d="M 110.558479 458.966892 
L 116.481492 456.643248 
Q 119.274268 455.547621 118.178641 452.754844 
L 114.6441 443.745231 
Q 113.548473 440.952455 110.755696 442.048083 
L 104.832683 444.371726 
Q 102.039906 445.467354 103.135534 448.26013 
L 106.670075 457.269743 
Q 107.765702 460.06252 110.558479 458.966892 
z
" clip-path="url(#p4b67b9cb5a)" style="fill: #ffffff; stroke: #ffffff; stroke-linejoin: miter"/>
    </g>
    <g clip-path="url(#p4b67b9cb5a)">
     <!-- 9 -->
     <g transform="translate(108.70333 454.238082) rotate(-21.420459) scale(0.1 -0.1)">
      <use xlink:href="#DejaVuSans-39"/>
     </g>
    </g>
   </g>
   <g id="text_10">
    <g id="patch_12">
     <path d="M 213.789664 384.36509 
L 219.321382 381.221604 
Q 221.929658 379.73941 220.447465 377.131135 
L 215.665846 368.716729 
Q 214.183653 366.108453 211.575377 367.590646 
L 206.043659 370.734132 
Q 203.435383 372.216326 204.917577 374.824601 
L 209.699195 383.239007 
Q 211.181389 385.847283 213.789664 384.36509 
z
" clip-path="url(#p4b67b9cb5a)" style="fill: #ffffff; stroke: #ffffff; stroke-linejoin: miter"/>
    </g>
    <g clip-path="url(#p4b67b9cb5a)">
     <!-- 3 -->
     <g transform="translate(211.279971 379.948681) rotate(-29.608083) scale(0.1 -0.1)">
      <defs>
       <path id="DejaVuSans-33" d="M 2597 2516 
Q 3050 2419 3304 2112 
Q 3559 1806 3559 1356 
Q 3559 666 3084 287 
Q 2609 -91 1734 -91 
Q 1441 -91 1130 -33 
Q 819 25 488 141 
L 488 750 
Q 750 597 1062 519 
Q 1375 441 1716 441 
Q 2309 441 2620 675 
Q 2931 909 2931 1356 
Q 2931 1769 2642 2001 
Q 2353 2234 1838 2234 
L 1294 2234 
L 1294 2753 
L 1863 2753 
Q 2328 2753 2575 2939 
Q 2822 3125 2822 3475 
Q 2822 3834 2567 4026 
Q 2313 4219 1838 4219 
Q 1578 4219 1281 4162 
Q 984 4106 628 3988 
L 628 4550 
Q 988 4650 1302 4700 
Q 1616 4750 1894 4750 
Q 2613 4750 3031 4423 
Q 3450 4097 3450 3541 
Q 3450 3153 3228 2886 
Q 3006 2619 2597 2516 
z
" transform="scale(0.015625)"/>
      </defs>
      <use xlink:href="#DejaVuSans-33"/>
     </g>
    </g>
   </g>
   <g id="text_11">
    <g id="patch_13">
     <path d="M 297.220537 260.668603 
L 303.548001 261.335399 
Q 306.53148 261.649801 306.845883 258.666322 
L 307.860159 249.041492 
Q 308.174561 246.058012 305.191081 245.74361 
L 298.863618 245.076814 
Q 295.880139 244.762412 295.565736 247.745891 
L 294.55146 257.370721 
Q 294.237058 260.354201 297.220537 260.668603 
z
" clip-path="url(#p4b67b9cb5a)" style="fill: #ffffff; stroke: #ffffff; stroke-linejoin: miter"/>
    </g>
    <g clip-path="url(#p4b67b9cb5a)">
     <!-- 4 -->
     <g transform="translate(297.752893 255.616888) rotate(-353.984307) scale(0.1 -0.1)">
      <use xlink:href="#DejaVuSans-34"/>
     </g>
    </g>
   </g>
   <g id="text_12">
    <g id="patch_14">
     <path d="M 289.335219 203.435081 
L 300.305805 209.882706 
Q 302.892191 211.402775 304.412259 208.816389 
L 309.316065 200.472601 
Q 310.836133 197.886216 308.249748 196.366147 
L 297.279162 189.918522 
Q 294.692776 188.398453 293.172707 190.984839 
L 288.268902 199.328627 
Q 286.748833 201.915012 289.335219 203.435081 
z
" clip-path="url(#p4b67b9cb5a)" style="fill: #ffffff; stroke: #ffffff; stroke-linejoin: miter"/>
    </g>
    <g clip-path="url(#p4b67b9cb5a)">
     <!-- 18 -->
     <g transform="translate(291.909044 199.055737) rotate(-329.556424) scale(0.1 -0.1)">
      <defs>
       <path id="DejaVuSans-38" d="M 2034 2216 
Q 1584 2216 1326 1975 
Q 1069 1734 1069 1313 
Q 1069 891 1326 650 
Q 1584 409 2034 409 
Q 2484 409 2743 651 
Q 3003 894 3003 1313 
Q 3003 1734 2745 1975 
Q 2488 2216 2034 2216 
z
M 1403 2484 
Q 997 2584 770 2862 
Q 544 3141 544 3541 
Q 544 4100 942 4425 
Q 1341 4750 2034 4750 
Q 2731 4750 3128 4425 
Q 3525 4100 3525 3541 
Q 3525 3141 3298 2862 
Q 3072 2584 2669 2484 
Q 3125 2378 3379 2068 
Q 3634 1759 3634 1313 
Q 3634 634 3220 271 
Q 2806 -91 2034 -91 
Q 1263 -91 848 271 
Q 434 634 434 1313 
Q 434 1759 690 2068 
Q 947 2378 1403 2484 
z
M 1172 3481 
Q 1172 3119 1398 2916 
Q 1625 2713 2034 2713 
Q 2441 2713 2670 2916 
Q 2900 3119 2900 3481 
Q 2900 3844 2670 4047 
Q 2441 4250 2034 4250 
Q 1625 4250 1398 4047 
Q 1172 3844 1172 3481 
z
" transform="scale(0.015625)"/>
      </defs>
      <use xlink:href="#DejaVuSans-31"/>
      <use xlink:href="#DejaVuSans-38" x="63.623047"/>
     </g>
    </g>
   </g>
   <g id="text_13">
    <g id="patch_15">
     <path d="M 408.258098 324.824617 
L 411.767233 319.517322 
Q 413.421835 317.014865 410.919378 315.360263 
L 402.846347 310.022448 
Q 400.34389 308.367846 398.689287 310.870303 
L 395.180152 316.177598 
Q 393.52555 318.680055 396.028007 320.334657 
L 404.101038 325.672472 
Q 406.603496 327.327074 408.258098 324.824617 
z
" clip-path="url(#p4b67b9cb5a)" style="fill: #ffffff; stroke: #ffffff; stroke-linejoin: miter"/>
    </g>
    <g clip-path="url(#p4b67b9cb5a)">
     <!-- 8 -->
     <g transform="translate(404.020864 322.022997) rotate(-56.527683) scale(0.1 -0.1)">
      <use xlink:href="#DejaVuSans-38"/>
     </g>
    </g>
   </g>
   <g id="text_14">
    <g id="patch_16">
     <path d="M 327.057069 174.089018 
L 339.477601 176.855968 
Q 342.40582 177.508295 343.058147 174.580075 
L 345.162578 165.133516 
Q 345.814904 162.205297 342.886685 161.55297 
L 330.466153 158.78602 
Q 327.537933 158.133694 326.885607 161.061914 
L 324.781175 170.508472 
Q 324.128849 173.436692 327.057069 174.089018 
z
" clip-path="url(#p4b67b9cb5a)" style="fill: #ffffff; stroke: #ffffff; stroke-linejoin: miter"/>
    </g>
    <g clip-path="url(#p4b67b9cb5a)">
     <!-- 10 -->
     <g transform="translate(328.161607 169.130871) rotate(-347.441163) scale(0.1 -0.1)">
      <defs>
       <path id="DejaVuSans-30" d="M 2034 4250 
Q 1547 4250 1301 3770 
Q 1056 3291 1056 2328 
Q 1056 1369 1301 889 
Q 1547 409 2034 409 
Q 2525 409 2770 889 
Q 3016 1369 3016 2328 
Q 3016 3291 2770 3770 
Q 2525 4250 2034 4250 
z
M 2034 4750 
Q 2819 4750 3233 4129 
Q 3647 3509 3647 2328 
Q 3647 1150 3233 529 
Q 2819 -91 2034 -91 
Q 1250 -91 836 529 
Q 422 1150 422 2328 
Q 422 3509 836 4129 
Q 1250 4750 2034 4750 
z
" transform="scale(0.015625)"/>
      </defs>
      <use xlink:href="#DejaVuSans-31"/>
      <use xlink:href="#DejaVuSans-30" x="63.623047"/>
     </g>
    </g>
   </g>
   <g id="text_15">
    <g id="patch_17">
     <path d="M 411.597893 160.518951 
L 412.718123 166.782056 
Q 413.246326 169.73519 416.19946 169.206987 
L 425.726394 167.502983 
Q 428.679529 166.97478 428.151326 164.021646 
L 427.031096 157.75854 
Q 426.502893 154.805406 423.549758 155.333609 
L 414.022824 157.037613 
Q 411.06969 157.565816 411.597893 160.518951 
z
" clip-path="url(#p4b67b9cb5a)" style="fill: #ffffff; stroke: #ffffff; stroke-linejoin: miter"/>
    </g>
    <g clip-path="url(#p4b67b9cb5a)">
     <!-- 4 -->
     <g transform="translate(416.598226 159.624582) rotate(-280.140793) scale(0.1 -0.1)">
      <use xlink:href="#DejaVuSans-34"/>
     </g>
    </g>
   </g>
   <g id="text_16">
    <g id="patch_18">
     <path d="M 291.679471 63.407219 
L 297.570086 65.811811 
Q 300.347586 66.945607 301.481382 64.168107 
L 305.139055 55.207776 
Q 306.272851 52.430276 303.495351 51.29648 
L 297.604736 48.891888 
Q 294.827236 47.758092 293.69344 50.535592 
L 290.035767 59.495923 
Q 288.901971 62.273423 291.679471 63.407219 
z
" clip-path="url(#p4b67b9cb5a)" style="fill: #ffffff; stroke: #ffffff; stroke-linejoin: miter"/>
    </g>
    <g clip-path="url(#p4b67b9cb5a)">
     <!-- 1 -->
     <g transform="translate(293.599247 58.704275) rotate(-337.794357) scale(0.1 -0.1)">
      <use xlink:href="#DejaVuSans-31"/>
     </g>
    </g>
   </g>
   <g id="text_17">
    <g id="patch_19">
     <path d="M 213.865062 305.225914 
L 222.957439 296.323426 
Q 225.101026 294.224608 223.002207 292.081022 
L 216.231332 285.165723 
Q 214.132513 283.022137 211.988927 285.120956 
L 202.896549 294.023443 
Q 200.752963 296.122262 202.851782 298.265848 
L 209.622657 305.181146 
Q 211.721475 307.324732 213.865062 305.225914 
z
" clip-path="url(#p4b67b9cb5a)" style="fill: #ffffff; stroke: #ffffff; stroke-linejoin: miter"/>
    </g>
    <g clip-path="url(#p4b67b9cb5a)">
     <!-- 15 -->
     <g transform="translate(210.311281 301.596331) rotate(-44.395411) scale(0.1 -0.1)">
      <defs>
       <path id="DejaVuSans-35" d="M 691 4666 
L 3169 4666 
L 3169 4134 
L 1269 4134 
L 1269 2991 
Q 1406 3038 1543 3061 
Q 1681 3084 1819 3084 
Q 2600 3084 3056 2656 
Q 3513 2228 3513 1497 
Q 3513 744 3044 326 
Q 2575 -91 1722 -91 
Q 1428 -91 1123 -41 
Q 819 9 494 109 
L 494 744 
Q 775 591 1075 516 
Q 1375 441 1709 441 
Q 2250 441 2565 725 
Q 2881 1009 2881 1497 
Q 2881 1984 2565 2268 
Q 2250 2553 1709 2553 
Q 1456 2553 1204 2497 
Q 953 2441 691 2322 
L 691 4666 
z
" transform="scale(0.015625)"/>
      </defs>
      <use xlink:href="#DejaVuSans-31"/>
      <use xlink:href="#DejaVuSans-35" x="63.623047"/>
     </g>
    </g>
   </g>
   <g id="text_18">
    <g id="patch_20">
     <path d="M 389.091891 236.926635 
L 391.710975 224.474084 
Q 392.32844 221.538315 389.392672 220.92085 
L 379.921761 218.92888 
Q 376.985992 218.311414 376.368527 221.247183 
L 373.749443 233.699734 
Q 373.131978 236.635502 376.067746 237.252968 
L 385.538657 239.244938 
Q 388.474426 239.862403 389.091891 236.926635 
z
" clip-path="url(#p4b67b9cb5a)" style="fill: #ffffff; stroke: #ffffff; stroke-linejoin: miter"/>
    </g>
    <g clip-path="url(#p4b67b9cb5a)">
     <!-- 18 -->
     <g transform="translate(384.120962 235.881124) rotate(-78.122385) scale(0.1 -0.1)">
      <use xlink:href="#DejaVuSans-31"/>
      <use xlink:href="#DejaVuSans-38" x="63.623047"/>
     </g>
    </g>
   </g>
   <g id="text_19">
    <g id="patch_21">
     <path d="M 301.016312 183.674831 
L 312.999437 187.956227 
Q 315.824535 188.965594 316.833901 186.140495 
L 320.090159 177.026611 
Q 321.099526 174.201513 318.274428 173.192147 
L 306.291303 168.910751 
Q 303.466205 167.901384 302.456839 170.726483 
L 299.20058 179.840367 
Q 298.191214 182.665465 301.016312 183.674831 
z
" clip-path="url(#p4b67b9cb5a)" style="fill: #ffffff; stroke: #ffffff; stroke-linejoin: miter"/>
    </g>
    <g clip-path="url(#p4b67b9cb5a)">
     <!-- 16 -->
     <g transform="translate(302.725401 178.891293) rotate(-340.338932) scale(0.1 -0.1)">
      <defs>
       <path id="DejaVuSans-36" d="M 2113 2584 
Q 1688 2584 1439 2293 
Q 1191 2003 1191 1497 
Q 1191 994 1439 701 
Q 1688 409 2113 409 
Q 2538 409 2786 701 
Q 3034 994 3034 1497 
Q 3034 2003 2786 2293 
Q 2538 2584 2113 2584 
z
M 3366 4563 
L 3366 3988 
Q 3128 4100 2886 4159 
Q 2644 4219 2406 4219 
Q 1781 4219 1451 3797 
Q 1122 3375 1075 2522 
Q 1259 2794 1537 2939 
Q 1816 3084 2150 3084 
Q 2853 3084 3261 2657 
Q 3669 2231 3669 1497 
Q 3669 778 3244 343 
Q 2819 -91 2113 -91 
Q 1303 -91 875 529 
Q 447 1150 447 2328 
Q 447 3434 972 4092 
Q 1497 4750 2381 4750 
Q 2619 4750 2861 4703 
Q 3103 4656 3366 4563 
z
" transform="scale(0.015625)"/>
      </defs>
      <use xlink:href="#DejaVuSans-31"/>
      <use xlink:href="#DejaVuSans-36" x="63.623047"/>
     </g>
    </g>
   </g>
   <g id="text_20">
    <g id="patch_22">
     <path d="M 282.757206 89.756701 
L 293.760866 83.365686 
Q 296.35505 81.858964 294.848327 79.26478 
L 289.987577 70.895837 
Q 288.480855 68.301654 285.886671 69.808376 
L 274.88301 76.199391 
Q 272.288827 77.706114 273.79555 80.300297 
L 278.6563 88.669241 
Q 280.163022 91.263424 282.757206 89.756701 
z
" clip-path="url(#p4b67b9cb5a)" style="fill: #ffffff; stroke: #ffffff; stroke-linejoin: miter"/>
    </g>
    <g clip-path="url(#p4b67b9cb5a)">
     <!-- 18 -->
     <g transform="translate(280.205979 85.364154) rotate(-30.148366) scale(0.1 -0.1)">
      <use xlink:href="#DejaVuSans-31"/>
      <use xlink:href="#DejaVuSans-38" x="63.623047"/>
     </g>
    </g>
   </g>
   <g id="text_21">
    <g id="patch_23">
     <path d="M 168.775144 281.431774 
L 171.170151 268.934191 
Q 171.734789 265.987807 168.788404 265.423168 
L 159.283244 263.601622 
Q 156.336859 263.036984 155.772221 265.983369 
L 153.377214 278.480951 
Q 152.812575 281.427336 155.75896 281.991974 
L 165.264121 283.81352 
Q 168.210505 284.378159 168.775144 281.431774 
z
" clip-path="url(#p4b67b9cb5a)" style="fill: #ffffff; stroke: #ffffff; stroke-linejoin: miter"/>
    </g>
    <g clip-path="url(#p4b67b9cb5a)">
     <!-- 16 -->
     <g transform="translate(163.786239 280.475712) rotate(-79.1515) scale(0.1 -0.1)">
      <use xlink:href="#DejaVuSans-31"/>
      <use xlink:href="#DejaVuSans-36" x="63.623047"/>
     </g>
    </g>
   </g>
   <g id="text_22">
    <g id="patch_24">
     <path d="M 270.523451 299.425319 
L 276.675746 310.56421 
Q 278.126188 313.190275 280.752253 311.739832 
L 289.224047 307.060644 
Q 291.850112 305.610201 290.399669 302.984136 
L 284.247375 291.845245 
Q 282.796932 289.21918 280.170867 290.669623 
L 271.699073 295.348812 
Q 269.073008 296.799254 270.523451 299.425319 
z
" clip-path="url(#p4b67b9cb5a)" style="fill: #ffffff; stroke: #ffffff; stroke-linejoin: miter"/>
    </g>
    <g clip-path="url(#p4b67b9cb5a)">
     <!-- 10 -->
     <g transform="translate(274.96998 296.969387) rotate(-298.912993) scale(0.1 -0.1)">
      <use xlink:href="#DejaVuSans-31"/>
      <use xlink:href="#DejaVuSans-30" x="63.623047"/>
     </g>
    </g>
   </g>
   <g id="text_23">
    <g id="patch_25">
     <path d="M 392.674304 304.206709 
L 404.285985 299.001472 
Q 407.023513 297.774305 405.796345 295.036777 
L 401.837451 286.205397 
Q 400.610283 283.467869 397.872755 284.695037 
L 386.261074 289.900274 
Q 383.523546 291.127441 384.750714 293.864969 
L 388.709608 302.696349 
Q 389.936776 305.433876 392.674304 304.206709 
z
" clip-path="url(#p4b67b9cb5a)" style="fill: #ffffff; stroke: #ffffff; stroke-linejoin: miter"/>
    </g>
    <g clip-path="url(#p4b67b9cb5a)">
     <!-- 14 -->
     <g transform="translate(390.596428 299.571447) rotate(-24.145542) scale(0.1 -0.1)">
      <use xlink:href="#DejaVuSans-31"/>
      <use xlink:href="#DejaVuSans-34" x="63.623047"/>
     </g>
    </g>
   </g>
   <g id="text_24">
    <g id="patch_26">
     <path d="M 283.855502 375.906851 
L 296.043842 372.250349 
Q 298.917321 371.388305 298.055277 368.514826 
L 295.274288 359.244864 
Q 294.412245 356.371385 291.538766 357.233429 
L 279.350426 360.889931 
Q 276.476947 361.751974 277.338991 364.625453 
L 280.11998 373.895416 
Q 280.982023 376.768894 283.855502 375.906851 
z
" clip-path="url(#p4b67b9cb5a)" style="fill: #ffffff; stroke: #ffffff; stroke-linejoin: miter"/>
    </g>
    <g clip-path="url(#p4b67b9cb5a)">
     <!-- 11 -->
     <g transform="translate(282.395865 371.041393) rotate(-16.699244) scale(0.1 -0.1)">
      <use xlink:href="#DejaVuSans-31"/>
      <use xlink:href="#DejaVuSans-31" x="63.623047"/>
     </g>
    </g>
   </g>
   <g id="text_25">
    <g id="patch_27">
     <path d="M 151.909458 406.697613 
L 157.204848 403.17054 
Q 159.701692 401.507479 158.038632 399.010635 
L 152.67353 390.955712 
Q 151.010469 388.458868 148.513625 390.121929 
L 143.218235 393.649002 
Q 140.721391 395.312063 142.384451 397.808907 
L 147.749554 405.86383 
Q 149.412614 408.360674 151.909458 406.697613 
z
" clip-path="url(#p4b67b9cb5a)" style="fill: #ffffff; stroke: #ffffff; stroke-linejoin: miter"/>
    </g>
    <g clip-path="url(#p4b67b9cb5a)">
     <!-- 9 -->
     <g transform="translate(149.093516 402.469884) rotate(-33.666194) scale(0.1 -0.1)">
      <use xlink:href="#DejaVuSans-39"/>
     </g>
    </g>
   </g>
   <g id="text_26">
    <g id="patch_28">
     <path d="M 129.097354 260.653576 
L 135.848185 271.44023 
Q 137.439736 273.983253 139.982759 272.391701 
L 148.186656 267.25729 
Q 150.729678 265.665738 149.138127 263.122715 
L 142.387296 252.336061 
Q 140.795744 249.793039 138.252721 251.38459 
L 130.048825 256.519002 
Q 127.505802 258.110554 129.097354 260.653576 
z
" clip-path="url(#p4b67b9cb5a)" style="fill: #ffffff; stroke: #ffffff; stroke-linejoin: miter"/>
    </g>
    <g clip-path="url(#p4b67b9cb5a)">
     <!-- 14 -->
     <g transform="translate(133.403274 257.958715) rotate(-302.040405) scale(0.1 -0.1)">
      <use xlink:href="#DejaVuSans-31"/>
      <use xlink:href="#DejaVuSans-34" x="63.623047"/>
     </g>
    </g>
   </g>
   <g id="text_27">
    <g id="patch_29">
     <path d="M 150.612556 241.208328 
L 156.849987 242.46366 
Q 159.791015 243.055565 160.382921 240.114537 
L 162.292431 230.626656 
Q 162.884336 227.685628 159.943308 227.093723 
L 153.705877 225.838391 
Q 150.764848 225.246486 150.172943 228.187514 
L 148.263432 237.675394 
Q 147.671527 240.616423 150.612556 241.208328 
z
" clip-path="url(#p4b67b9cb5a)" style="fill: #ffffff; stroke: #ffffff; stroke-linejoin: miter"/>
    </g>
    <g clip-path="url(#p4b67b9cb5a)">
     <!-- 7 -->
     <g transform="translate(151.614787 236.228493) rotate(-348.620786) scale(0.1 -0.1)">
      <use xlink:href="#DejaVuSans-37"/>
     </g>
    </g>
   </g>
   <g id="text_28">
    <g id="patch_30">
     <path d="M 112.504013 347.162384 
L 113.794146 334.502954 
Q 114.098303 331.518412 111.113762 331.214255 
L 101.485506 330.233032 
Q 98.500964 329.928874 98.196807 332.913416 
L 96.906674 345.572847 
Q 96.602517 348.557388 99.587059 348.861545 
L 109.215314 349.842769 
Q 112.199856 350.146926 112.504013 347.162384 
z
" clip-path="url(#p4b67b9cb5a)" style="fill: #ffffff; stroke: #ffffff; stroke-linejoin: miter"/>
    </g>
    <g clip-path="url(#p4b67b9cb5a)">
     <!-- 17 -->
     <g transform="translate(107.4505 346.647377) rotate(-84.181029) scale(0.1 -0.1)">
      <use xlink:href="#DejaVuSans-31"/>
      <use xlink:href="#DejaVuSans-37" x="63.623047"/>
     </g>
    </g>
   </g>
   <g id="text_29">
    <g id="patch_31">
     <path d="M 57.224213 219.452141 
L 69.562464 222.565531 
Q 72.471285 223.299533 73.205287 220.390711 
L 75.573207 211.006733 
Q 76.307208 208.097911 73.398387 207.36391 
L 61.060136 204.250519 
Q 58.151315 203.516518 57.417313 206.425339 
L 55.049394 215.809318 
Q 54.315392 218.718139 57.224213 219.452141 
z
" clip-path="url(#p4b67b9cb5a)" style="fill: #ffffff; stroke: #ffffff; stroke-linejoin: miter"/>
    </g>
    <g clip-path="url(#p4b67b9cb5a)">
     <!-- 17 -->
     <g transform="translate(58.467046 214.52684) rotate(-345.837832) scale(0.1 -0.1)">
      <use xlink:href="#DejaVuSans-31"/>
      <use xlink:href="#DejaVuSans-37" x="63.623047"/>
     </g>
    </g>
   </g>
   <g id="text_30">
    <g id="patch_32">
     <path d="M 162.49465 322.197426 
L 167.578042 326.02372 
Q 169.974927 327.827866 171.779073 325.430981 
L 177.599325 317.698532 
Q 179.403472 315.301648 177.006587 313.497501 
L 171.923194 309.671207 
Q 169.52631 307.867061 167.722163 310.263945 
L 161.901912 317.996395 
Q 160.097765 320.393279 162.49465 322.197426 
z
" clip-path="url(#p4b67b9cb5a)" style="fill: #ffffff; stroke: #ffffff; stroke-linejoin: miter"/>
    </g>
    <g clip-path="url(#p4b67b9cb5a)">
     <!-- 5 -->
     <g transform="translate(165.549483 318.138951) rotate(-323.031048) scale(0.1 -0.1)">
      <use xlink:href="#DejaVuSans-35"/>
     </g>
    </g>
   </g>
   <g id="text_31">
    <g id="patch_33">
     <path d="M 225.572547 166.001877 
L 231.811491 164.754088 
Q 234.753233 164.16574 234.164885 161.223998 
L 232.266848 151.733816 
Q 231.6785 148.792073 228.736758 149.380422 
L 222.497813 150.628211 
Q 219.556071 151.216559 220.14442 154.158301 
L 222.042456 163.648484 
Q 222.630805 166.590226 225.572547 166.001877 
z
" clip-path="url(#p4b67b9cb5a)" style="fill: #ffffff; stroke: #ffffff; stroke-linejoin: miter"/>
    </g>
    <g clip-path="url(#p4b67b9cb5a)">
     <!-- 2 -->
     <g transform="translate(224.576338 161.020834) rotate(-11.309932) scale(0.1 -0.1)">
      <use xlink:href="#DejaVuSans-32"/>
     </g>
    </g>
   </g>
   <g id="text_32">
    <g id="patch_34">
     <path d="M 171.08382 332.547678 
L 173.13162 326.523732 
Q 174.097184 323.683365 171.256817 322.717801 
L 162.093674 319.602851 
Q 159.253307 318.637287 158.287743 321.477655 
L 156.239943 327.5016 
Q 155.274379 330.341967 158.114746 331.307531 
L 167.277889 334.422481 
Q 170.118256 335.388045 171.08382 332.547678 
z
" clip-path="url(#p4b67b9cb5a)" style="fill: #ffffff; stroke: #ffffff; stroke-linejoin: miter"/>
    </g>
    <g clip-path="url(#p4b67b9cb5a)">
     <!-- 5 -->
     <g transform="translate(166.274428 330.912757) rotate(-71.224877) scale(0.1 -0.1)">
      <use xlink:href="#DejaVuSans-35"/>
     </g>
    </g>
   </g>
   <g id="text_33">
    <g id="patch_35">
     <path d="M 381.603716 366.086822 
L 388.684644 355.513929 
Q 390.354019 353.021301 387.861391 351.351927 
L 379.820072 345.966457 
Q 377.327445 344.297083 375.658071 346.78971 
L 368.577143 357.362603 
Q 366.907768 359.85523 369.400396 361.524604 
L 377.441715 366.910075 
Q 379.934342 368.579449 381.603716 366.086822 
z
" clip-path="url(#p4b67b9cb5a)" style="fill: #ffffff; stroke: #ffffff; stroke-linejoin: miter"/>
    </g>
    <g clip-path="url(#p4b67b9cb5a)">
     <!-- 12 -->
     <g transform="translate(377.383127 363.260189) rotate(-56.1888) scale(0.1 -0.1)">
      <use xlink:href="#DejaVuSans-31"/>
      <use xlink:href="#DejaVuSans-32" x="63.623047"/>
     </g>
    </g>
   </g>
   <g id="text_34">
    <g id="patch_36">
     <path d="M 423.02282 243.361552 
L 423.242184 256.084661 
Q 423.2939 259.084215 426.293454 259.032498 
L 435.970141 258.865659 
Q 438.969696 258.813942 438.917979 255.814388 
L 438.698615 243.091279 
Q 438.646899 240.091725 435.647344 240.143441 
L 425.970658 240.310281 
Q 422.971103 240.361997 423.02282 243.361552 
z
" clip-path="url(#p4b67b9cb5a)" style="fill: #ffffff; stroke: #ffffff; stroke-linejoin: miter"/>
    </g>
    <g clip-path="url(#p4b67b9cb5a)">
     <!-- 12 -->
     <g transform="translate(428.101753 243.273984) rotate(-270.98776) scale(0.1 -0.1)">
      <use xlink:href="#DejaVuSans-31"/>
      <use xlink:href="#DejaVuSans-32" x="63.623047"/>
     </g>
    </g>
   </g>
   <g id="text_35">
    <g id="patch_37">
     <path d="M 291.894549 268.747173 
L 304.143924 265.300664 
Q 307.031793 264.488128 306.219256 261.600259 
L 303.59798 252.283875 
Q 302.785443 249.396006 299.897575 250.208543 
L 287.648199 253.655052 
Q 284.760331 254.467588 285.572867 257.355457 
L 288.194144 266.671841 
Q 289.00668 269.559709 291.894549 268.747173 
z
" clip-path="url(#p4b67b9cb5a)" style="fill: #ffffff; stroke: #ffffff; stroke-linejoin: miter"/>
    </g>
    <g clip-path="url(#p4b67b9cb5a)">
     <!-- 20 -->
     <g transform="translate(290.518738 263.85735) rotate(-15.714585) scale(0.1 -0.1)">
      <use xlink:href="#DejaVuSans-32"/>
      <use xlink:href="#DejaVuSans-30" x="63.623047"/>
     </g>
    </g>
   </g>
   <g id="text_36">
    <g id="patch_38">
     <path d="M 259.317209 386.356437 
L 264.272185 390.34763 
Q 266.608519 392.229529 268.490417 389.893195 
L 274.5615 382.356083 
Q 276.443399 380.019749 274.107065 378.13785 
L 269.152089 374.146657 
Q 266.815755 372.264758 264.933856 374.601093 
L 258.862773 382.138204 
Q 256.980875 384.474539 259.317209 386.356437 
z
" clip-path="url(#p4b67b9cb5a)" style="fill: #ffffff; stroke: #ffffff; stroke-linejoin: miter"/>
    </g>
    <g clip-path="url(#p4b67b9cb5a)">
     <!-- 5 -->
     <g transform="translate(262.503694 382.400488) rotate(-321.148834) scale(0.1 -0.1)">
      <use xlink:href="#DejaVuSans-35"/>
     </g>
    </g>
   </g>
   <g id="text_37">
    <g id="patch_39">
     <path d="M 211.643839 369.036042 
L 216.871356 365.409133 
Q 219.336197 363.698999 217.626063 361.234158 
L 212.1091 353.282478 
Q 210.398966 350.817637 207.934125 352.527771 
L 202.706607 356.15468 
Q 200.241766 357.864814 201.9519 360.329655 
L 207.468864 368.281335 
Q 209.178998 370.746176 211.643839 369.036042 
z
" clip-path="url(#p4b67b9cb5a)" style="fill: #ffffff; stroke: #ffffff; stroke-linejoin: miter"/>
    </g>
    <g clip-path="url(#p4b67b9cb5a)">
     <!-- 8 -->
     <g transform="translate(208.74819 364.862501) rotate(-34.753342) scale(0.1 -0.1)">
      <use xlink:href="#DejaVuSans-38"/>
     </g>
    </g>
   </g>
   <g id="text_38">
    <g id="patch_40">
     <path d="M 296.380838 371.822206 
L 298.392837 377.858204 
Q 299.341521 380.704254 302.18757 379.75557 
L 311.369046 376.695079 
Q 314.215096 375.746395 313.266413 372.900345 
L 311.254413 366.864348 
Q 310.30573 364.018298 307.45968 364.966981 
L 298.278205 368.027473 
Q 295.432155 368.976156 296.380838 371.822206 
z
" clip-path="url(#p4b67b9cb5a)" style="fill: #ffffff; stroke: #ffffff; stroke-linejoin: miter"/>
    </g>
    <g clip-path="url(#p4b67b9cb5a)">
     <!-- 4 -->
     <g transform="translate(301.199853 370.215868) rotate(-288.434949) scale(0.1 -0.1)">
      <use xlink:href="#DejaVuSans-34"/>
     </g>
    </g>
   </g>
   <g id="text_39">
    <g id="patch_41">
     <path d="M 118.005929 440.711192 
L 122.530826 436.238305 
Q 124.664373 434.129282 122.55535 431.995735 
L 115.751553 425.112825 
Q 113.64253 422.979278 111.508984 425.088301 
L 106.984087 429.561188 
Q 104.85054 431.670211 106.959563 433.803758 
L 113.76336 440.686668 
Q 115.872383 442.820215 118.005929 440.711192 
z
" clip-path="url(#p4b67b9cb5a)" style="fill: #ffffff; stroke: #ffffff; stroke-linejoin: miter"/>
    </g>
    <g clip-path="url(#p4b67b9cb5a)">
     <!-- 1 -->
     <g transform="translate(114.43487 437.098608) rotate(-44.668814) scale(0.1 -0.1)">
      <use xlink:href="#DejaVuSans-31"/>
     </g>
    </g>
   </g>
   <g id="text_40">
    <g id="patch_42">
     <path d="M 303.461557 244.568175 
L 308.264161 240.394878 
Q 310.528649 238.427115 308.560887 236.162626 
L 302.212802 228.857291 
Q 300.245039 226.592802 297.98055 228.560565 
L 293.177947 232.733862 
Q 290.913458 234.701624 292.881221 236.966113 
L 299.229305 244.271449 
Q 301.197068 246.535938 303.461557 244.568175 
z
" clip-path="url(#p4b67b9cb5a)" style="fill: #ffffff; stroke: #ffffff; stroke-linejoin: miter"/>
    </g>
    <g clip-path="url(#p4b67b9cb5a)">
     <!-- 9 -->
     <g transform="translate(300.129684 240.733876) rotate(-40.989515) scale(0.1 -0.1)">
      <use xlink:href="#DejaVuSans-39"/>
     </g>
    </g>
   </g>
   <g id="text_41">
    <g id="patch_43">
     <path d="M 263.463719 374.528727 
L 274.761596 368.673507 
Q 277.425142 367.293102 276.044737 364.629555 
L 271.591491 356.036843 
Q 270.211086 353.373296 267.547539 354.753701 
L 256.249662 360.608921 
Q 253.586115 361.989327 254.966521 364.652874 
L 259.419766 373.245586 
Q 260.800172 375.909133 263.463719 374.528727 
z
" clip-path="url(#p4b67b9cb5a)" style="fill: #ffffff; stroke: #ffffff; stroke-linejoin: miter"/>
    </g>
    <g clip-path="url(#p4b67b9cb5a)">
     <!-- 14 -->
     <g transform="translate(261.126376 370.018732) rotate(-27.39583) scale(0.1 -0.1)">
      <use xlink:href="#DejaVuSans-31"/>
      <use xlink:href="#DejaVuSans-34" x="63.623047"/>
     </g>
    </g>
   </g>
   <g id="text_42">
    <g id="patch_44">
     <path d="M 296.358359 298.299828 
L 302.034865 295.426034 
Q 304.711409 294.071003 303.356379 291.394459 
L 298.984993 282.759814 
Q 297.629963 280.083269 294.953418 281.4383 
L 289.276912 284.312094 
Q 286.600368 285.667125 287.955398 288.343669 
L 292.326784 296.978314 
Q 293.681815 299.654859 296.358359 298.299828 
z
" clip-path="url(#p4b67b9cb5a)" style="fill: #ffffff; stroke: #ffffff; stroke-linejoin: miter"/>
    </g>
    <g clip-path="url(#p4b67b9cb5a)">
     <!-- 7 -->
     <g transform="translate(294.063982 293.767825) rotate(-26.851323) scale(0.1 -0.1)">
      <use xlink:href="#DejaVuSans-37"/>
     </g>
    </g>
   </g>
   <g id="text_43">
    <g id="patch_45">
     <path d="M 298.265218 118.492186 
L 307.922723 126.778212 
Q 310.199542 128.731695 312.153025 126.454877 
L 318.455044 119.109765 
Q 320.408527 116.832946 318.131709 114.879463 
L 308.474203 106.593438 
Q 306.197385 104.639954 304.243901 106.916773 
L 297.941883 114.261885 
Q 295.988399 116.538703 298.265218 118.492186 
z
" clip-path="url(#p4b67b9cb5a)" style="fill: #ffffff; stroke: #ffffff; stroke-linejoin: miter"/>
    </g>
    <g clip-path="url(#p4b67b9cb5a)">
     <!-- 12 -->
     <g transform="translate(301.572913 114.637011) rotate(-319.370797) scale(0.1 -0.1)">
      <use xlink:href="#DejaVuSans-31"/>
      <use xlink:href="#DejaVuSans-32" x="63.623047"/>
     </g>
    </g>
   </g>
   <g id="matplotlib.axis_1">
    <g id="xtick_1">
     <g id="line2d_1">
      <path d="M 10.8 493.2 
L 10.8 10.8 
" clip-path="url(#p4b67b9cb5a)" style="fill: none; stroke: #b0b0b0; stroke-opacity: 0.3; stroke-width: 0.8; stroke-linecap: square"/>
     </g>
    </g>
    <g id="xtick_2">
     <g id="line2d_2">
      <path d="M 59.04 493.2 
L 59.04 10.8 
" clip-path="url(#p4b67b9cb5a)" style="fill: none; stroke: #b0b0b0; stroke-opacity: 0.3; stroke-width: 0.8; stroke-linecap: square"/>
     </g>
    </g>
    <g id="xtick_3">
     <g id="line2d_3">
      <path d="M 107.28 493.2 
L 107.28 10.8 
" clip-path="url(#p4b67b9cb5a)" style="fill: none; stroke: #b0b0b0; stroke-opacity: 0.3; stroke-width: 0.8; stroke-linecap: square"/>
     </g>
    </g>
    <g id="xtick_4">
     <g id="line2d_4">
      <path d="M 155.52 493.2 
L 155.52 10.8 
" clip-path="url(#p4b67b9cb5a)" style="fill: none; stroke: #b0b0b0; stroke-opacity: 0.3; stroke-width: 0.8; stroke-linecap: square"/>
     </g>
    </g>
    <g id="xtick_5">
     <g id="line2d_5">
      <path d="M 203.76 493.2 
L 203.76 10.8 
" clip-path="url(#p4b67b9cb5a)" style="fill: none; stroke: #b0b0b0; stroke-opacity: 0.3; stroke-width: 0.8; stroke-linecap: square"/>
     </g>
    </g>
    <g id="xtick_6">
     <g id="line2d_6">
      <path d="M 252 493.2 
L 252 10.8 
" clip-path="url(#p4b67b9cb5a)" style="fill: none; stroke: #b0b0b0; stroke-opacity: 0.3; stroke-width: 0.8; stroke-linecap: square"/>
     </g>
    </g>
    <g id="xtick_7">
     <g id="line2d_7">
      <path d="M 300.24 493.2 
L 300.24 10.8 
" clip-path="url(#p4b67b9cb5a)" style="fill: none; stroke: #b0b0b0; stroke-opacity: 0.3; stroke-width: 0.8; stroke-linecap: square"/>
     </g>
    </g>
    <g id="xtick_8">
     <g id="line2d_8">
      <path d="M 348.48 493.2 
L 348.48 10.8 
" clip-path="url(#p4b67b9cb5a)" style="fill: none; stroke: #b0b0b0; stroke-opacity: 0.3; stroke-width: 0.8; stroke-linecap: square"/>
     </g>
    </g>
    <g id="xtick_9">
     <g id="line2d_9">
      <path d="M 396.72 493.2 
L 396.72 10.8 
" clip-path="url(#p4b67b9cb5a)" style="fill: none; stroke: #b0b0b0; stroke-opacity: 0.3; stroke-width: 0.8; stroke-linecap: square"/>
     </g>
    </g>
    <g id="xtick_10">
     <g id="line2d_10">
      <path d="M 444.96 493.2 
L 444.96 10.8 
" clip-path="url(#p4b67b9cb5a)" style="fill: none; stroke: #b0b0b0; stroke-opacity: 0.3; stroke-width: 0.8; stroke-linecap: square"/>
     </g>
    </g>
    <g id="xtick_11">
     <g id="line2d_11">
      <path d="M 493.2 493.2 
L 493.2 10.8 
" clip-path="url(#p4b67b9cb5a)" style="fill: none; stroke: #b0b0b0; stroke-opacity: 0.3; stroke-width: 0.8; stroke-linecap: square"/>
     </g>
    </g>
   </g>
   <g id="matplotlib.axis_2">
    <g id="ytick_1">
     <g id="line2d_12">
      <path d="M 10.8 493.2 
L 493.2 493.2 
" clip-path="url(#p4b67b9cb5a)" style="fill: none; stroke: #b0b0b0; stroke-opacity: 0.3; stroke-width: 0.8; stroke-linecap: square"/>
     </g>
    </g>
    <g id="ytick_2">
     <g id="line2d_13">
      <path d="M 10.8 444.96 
L 493.2 444.96 
" clip-path="url(#p4b67b9cb5a)" style="fill: none; stroke: #b0b0b0; stroke-opacity: 0.3; stroke-width: 0.8; stroke-linecap: square"/>
     </g>
    </g>
    <g id="ytick_3">
     <g id="line2d_14">
      <path d="M 10.8 396.72 
L 493.2 396.72 
" clip-path="url(#p4b67b9cb5a)" style="fill: none; stroke: #b0b0b0; stroke-opacity: 0.3; stroke-width: 0.8; stroke-linecap: square"/>
     </g>
    </g>
    <g id="ytick_4">
     <g id="line2d_15">
      <path d="M 10.8 348.48 
L 493.2 348.48 
" clip-path="url(#p4b67b9cb5a)" style="fill: none; stroke: #b0b0b0; stroke-opacity: 0.3; stroke-width: 0.8; stroke-linecap: square"/>
     </g>
    </g>
    <g id="ytick_5">
     <g id="line2d_16">
      <path d="M 10.8 300.24 
L 493.2 300.24 
" clip-path="url(#p4b67b9cb5a)" style="fill: none; stroke: #b0b0b0; stroke-opacity: 0.3; stroke-width: 0.8; stroke-linecap: square"/>
     </g>
    </g>
    <g id="ytick_6">
     <g id="line2d_17">
      <path d="M 10.8 252 
L 493.2 252 
" clip-path="url(#p4b67b9cb5a)" style="fill: none; stroke: #b0b0b0; stroke-opacity: 0.3; stroke-width: 0.8; stroke-linecap: square"/>
     </g>
    </g>
    <g id="ytick_7">
     <g id="line2d_18">
      <path d="M 10.8 203.76 
L 493.2 203.76 
" clip-path="url(#p4b67b9cb5a)" style="fill: none; stroke: #b0b0b0; stroke-opacity: 0.3; stroke-width: 0.8; stroke-linecap: square"/>
     </g>
    </g>
    <g id="ytick_8">
     <g id="line2d_19">
      <path d="M 10.8 155.52 
L 493.2 155.52 
" clip-path="url(#p4b67b9cb5a)" style="fill: none; stroke: #b0b0b0; stroke-opacity: 0.3; stroke-width: 0.8; stroke-linecap: square"/>
     </g>
    </g>
    <g id="ytick_9">
     <g id="line2d_20">
      <path d="M 10.8 107.28 
L 493.2 107.28 
" clip-path="url(#p4b67b9cb5a)" style="fill: none; stroke: #b0b0b0; stroke-opacity: 0.3; stroke-width: 0.8; stroke-linecap: square"/>
     </g>
    </g>
    <g id="ytick_10">
     <g id="line2d_21">
      <path d="M 10.8 59.04 
L 493.2 59.04 
" clip-path="url(#p4b67b9cb5a)" style="fill: none; stroke: #b0b0b0; stroke-opacity: 0.3; stroke-width: 0.8; stroke-linecap: square"/>
     </g>
    </g>
    <g id="ytick_11">
     <g id="line2d_22">
      <path d="M 10.8 10.8 
L 493.2 10.8 
" clip-path="url(#p4b67b9cb5a)" style="fill: none; stroke: #b0b0b0; stroke-opacity: 0.3; stroke-width: 0.8; stroke-linecap: square"/>
     </g>
    </g>
   </g>
   <g id="PathCollection_1">
    <defs>
     <path id="m347c5ae208" d="M 0 8.660254 
C 2.296726 8.660254 4.499694 7.747755 6.123724 6.123724 
C 7.747755 4.499694 8.660254 2.296726 8.660254 0 
C 8.660254 -2.296726 7.747755 -4.499694 6.123724 -6.123724 
C 4.499694 -7.747755 2.296726 -8.660254 0 -8.660254 
C -2.296726 -8.660254 -4.499694 -7.747755 -6.123724 -6.123724 
C -7.747755 -4.499694 -8.660254 -2.296726 -8.660254 0 
C -8.660254 2.296726 -7.747755 4.499694 -6.123724 6.123724 
C -4.499694 7.747755 -2.296726 8.660254 0 8.660254 
z
" style="stroke: #1f78b4"/>
    </defs>
    <g clip-path="url(#p4b67b9cb5a)">
     <use xlink:href="#m347c5ae208" x="405.4032" y="176.7456" style="fill: #1f78b4; stroke: #1f78b4"/>
     <use xlink:href="#m347c5ae208" x="314.2296" y="177.7104" style="fill: #1f78b4; stroke: #1f78b4"/>
     <use xlink:href="#m347c5ae208" x="204.7248" y="413.604" style="fill: #1f78b4; stroke: #1f78b4"/>
     <use xlink:href="#m347c5ae208" x="408.78" y="264.5424" style="fill: #1f78b4; stroke: #1f78b4"/>
     <use xlink:href="#m347c5ae208" x="481.14" y="200.3832" style="fill: #1f78b4; stroke: #1f78b4"/>
     <use xlink:href="#m347c5ae208" x="409.2624" y="102.9384" style="fill: #1f78b4; stroke: #1f78b4"/>
     <use xlink:href="#m347c5ae208" x="188.8056" y="135.2592" style="fill: #1f78b4; stroke: #1f78b4"/>
     <use xlink:href="#m347c5ae208" x="353.304" y="313.2648" style="fill: #1f78b4; stroke: #1f78b4"/>
     <use xlink:href="#m347c5ae208" x="439.6536" y="320.9832" style="fill: #1f78b4; stroke: #1f78b4"/>
     <use xlink:href="#m347c5ae208" x="16.5888" y="487.4112" style="fill: #1f78b4; stroke: #1f78b4"/>
     <use xlink:href="#m347c5ae208" x="379.836" y="24.3072" style="fill: #1f78b4; stroke: #1f78b4"/>
     <use xlink:href="#m347c5ae208" x="116.928" y="226.4328" style="fill: #1f78b4; stroke: #1f78b4"/>
     <use xlink:href="#m347c5ae208" x="13.6944" y="200.3832" style="fill: #1f78b4; stroke: #1f78b4"/>
     <use xlink:href="#m347c5ae208" x="193.6296" y="241.8696" style="fill: #1f78b4; stroke: #1f78b4"/>
     <use xlink:href="#m347c5ae208" x="431.4528" y="277.5672" style="fill: #1f78b4; stroke: #1f78b4"/>
     <use xlink:href="#m347c5ae208" x="161.3088" y="297.3456" style="fill: #1f78b4; stroke: #1f78b4"/>
     <use xlink:href="#m347c5ae208" x="283.8384" y="309.4056" style="fill: #1f78b4; stroke: #1f78b4"/>
     <use xlink:href="#m347c5ae208" x="135.7416" y="412.1568" style="fill: #1f78b4; stroke: #1f78b4"/>
     <use xlink:href="#m347c5ae208" x="440.6184" y="114.9984" style="fill: #1f78b4; stroke: #1f78b4"/>
     <use xlink:href="#m347c5ae208" x="437.2416" y="275.6376" style="fill: #1f78b4; stroke: #1f78b4"/>
     <use xlink:href="#m347c5ae208" x="372.1176" y="467.1504" style="fill: #1f78b4; stroke: #1f78b4"/>
     <use xlink:href="#m347c5ae208" x="160.8264" y="358.128" style="fill: #1f78b4; stroke: #1f78b4"/>
     <use xlink:href="#m347c5ae208" x="93.7728" y="453.6432" style="fill: #1f78b4; stroke: #1f78b4"/>
     <use xlink:href="#m347c5ae208" x="325.8072" y="435.312" style="fill: #1f78b4; stroke: #1f78b4"/>
     <use xlink:href="#m347c5ae208" x="356.1984" y="355.2336" style="fill: #1f78b4; stroke: #1f78b4"/>
     <use xlink:href="#m347c5ae208" x="430.488" y="221.6088" style="fill: #1f78b4; stroke: #1f78b4"/>
     <use xlink:href="#m347c5ae208" x="185.9112" y="11.7648" style="fill: #1f78b4; stroke: #1f78b4"/>
    </g>
   </g>
   <g id="patch_46">
    <path d="M 10.8 493.2 
L 10.8 10.8 
" style="fill: none; stroke: #000000; stroke-width: 0.8; stroke-linejoin: miter; stroke-linecap: square"/>
   </g>
   <g id="patch_47">
    <path d="M 493.2 493.2 
L 493.2 10.8 
" style="fill: none; stroke: #000000; stroke-width: 0.8; stroke-linejoin: miter; stroke-linecap: square"/>
   </g>
   <g id="patch_48">
    <path d="M 10.8 493.2 
L 493.2 493.2 
" style="fill: none; stroke: #000000; stroke-width: 0.8; stroke-linejoin: miter; stroke-linecap: square"/>
   </g>
   <g id="patch_49">
    <path d="M 10.8 10.8 
L 493.2 10.8 
" style="fill: none; stroke: #000000; stroke-width: 0.8; stroke-linejoin: miter; stroke-linecap: square"/>
   </g>
   <g id="text_44">
    <g clip-path="url(#p4b67b9cb5a)">
     <!-- 0 -->
     <g transform="translate(401.5857 180.05685) scale(0.12 -0.12)">
      <use xlink:href="#DejaVuSans-30"/>
     </g>
    </g>
   </g>
   <g id="text_45">
    <g clip-path="url(#p4b67b9cb5a)">
     <!-- 1 -->
     <g transform="translate(310.4121 181.02165) scale(0.12 -0.12)">
      <use xlink:href="#DejaVuSans-31"/>
     </g>
    </g>
   </g>
   <g id="text_46">
    <g clip-path="url(#p4b67b9cb5a)">
     <!-- 2 -->
     <g transform="translate(200.9073 416.91525) scale(0.12 -0.12)">
      <use xlink:href="#DejaVuSans-32"/>
     </g>
    </g>
   </g>
   <g id="text_47">
    <g clip-path="url(#p4b67b9cb5a)">
     <!-- 3 -->
     <g transform="translate(404.9625 267.85365) scale(0.12 -0.12)">
      <use xlink:href="#DejaVuSans-33"/>
     </g>
    </g>
   </g>
   <g id="text_48">
    <g clip-path="url(#p4b67b9cb5a)">
     <!-- 4 -->
     <g transform="translate(477.3225 203.69445) scale(0.12 -0.12)">
      <use xlink:href="#DejaVuSans-34"/>
     </g>
    </g>
   </g>
   <g id="text_49">
    <g clip-path="url(#p4b67b9cb5a)">
     <!-- 5 -->
     <g transform="translate(405.4449 106.24965) scale(0.12 -0.12)">
      <use xlink:href="#DejaVuSans-35"/>
     </g>
    </g>
   </g>
   <g id="text_50">
    <g clip-path="url(#p4b67b9cb5a)">
     <!-- 6 -->
     <g transform="translate(184.9881 138.57045) scale(0.12 -0.12)">
      <use xlink:href="#DejaVuSans-36"/>
     </g>
    </g>
   </g>
   <g id="text_51">
    <g clip-path="url(#p4b67b9cb5a)">
     <!-- 7 -->
     <g transform="translate(349.4865 316.57605) scale(0.12 -0.12)">
      <use xlink:href="#DejaVuSans-37"/>
     </g>
    </g>
   </g>
   <g id="text_52">
    <g clip-path="url(#p4b67b9cb5a)">
     <!-- 8 -->
     <g transform="translate(435.8361 324.29445) scale(0.12 -0.12)">
      <use xlink:href="#DejaVuSans-38"/>
     </g>
    </g>
   </g>
   <g id="text_53">
    <g clip-path="url(#p4b67b9cb5a)">
     <!-- 9 -->
     <g transform="translate(12.7713 490.72245) scale(0.12 -0.12)">
      <use xlink:href="#DejaVuSans-39"/>
     </g>
    </g>
   </g>
   <g id="text_54">
    <g clip-path="url(#p4b67b9cb5a)">
     <!-- 10 -->
     <g transform="translate(372.201 27.61845) scale(0.12 -0.12)">
      <use xlink:href="#DejaVuSans-31"/>
      <use xlink:href="#DejaVuSans-30" x="63.623047"/>
     </g>
    </g>
   </g>
   <g id="text_55">
    <g clip-path="url(#p4b67b9cb5a)">
     <!-- 11 -->
     <g transform="translate(109.293 229.74405) scale(0.12 -0.12)">
      <use xlink:href="#DejaVuSans-31"/>
      <use xlink:href="#DejaVuSans-31" x="63.623047"/>
     </g>
    </g>
   </g>
   <g id="text_56">
    <g clip-path="url(#p4b67b9cb5a)">
     <!-- 12 -->
     <g transform="translate(6.0594 203.69445) scale(0.12 -0.12)">
      <use xlink:href="#DejaVuSans-31"/>
      <use xlink:href="#DejaVuSans-32" x="63.623047"/>
     </g>
    </g>
   </g>
   <g id="text_57">
    <g clip-path="url(#p4b67b9cb5a)">
     <!-- 13 -->
     <g transform="translate(185.9946 245.18085) scale(0.12 -0.12)">
      <use xlink:href="#DejaVuSans-31"/>
      <use xlink:href="#DejaVuSans-33" x="63.623047"/>
     </g>
    </g>
   </g>
   <g id="text_58">
    <g clip-path="url(#p4b67b9cb5a)">
     <!-- 14 -->
     <g transform="translate(423.8178 280.87845) scale(0.12 -0.12)">
      <use xlink:href="#DejaVuSans-31"/>
      <use xlink:href="#DejaVuSans-34" x="63.623047"/>
     </g>
    </g>
   </g>
   <g id="text_59">
    <g clip-path="url(#p4b67b9cb5a)">
     <!-- 15 -->
     <g transform="translate(153.6738 300.65685) scale(0.12 -0.12)">
      <use xlink:href="#DejaVuSans-31"/>
      <use xlink:href="#DejaVuSans-35" x="63.623047"/>
     </g>
    </g>
   </g>
   <g id="text_60">
    <g clip-path="url(#p4b67b9cb5a)">
     <!-- 16 -->
     <g transform="translate(276.2034 312.71685) scale(0.12 -0.12)">
      <use xlink:href="#DejaVuSans-31"/>
      <use xlink:href="#DejaVuSans-36" x="63.623047"/>
     </g>
    </g>
   </g>
   <g id="text_61">
    <g clip-path="url(#p4b67b9cb5a)">
     <!-- 17 -->
     <g transform="translate(128.1066 415.46805) scale(0.12 -0.12)">
      <use xlink:href="#DejaVuSans-31"/>
      <use xlink:href="#DejaVuSans-37" x="63.623047"/>
     </g>
    </g>
   </g>
   <g id="text_62">
    <g clip-path="url(#p4b67b9cb5a)">
     <!-- 18 -->
     <g transform="translate(432.9834 118.30965) scale(0.12 -0.12)">
      <use xlink:href="#DejaVuSans-31"/>
      <use xlink:href="#DejaVuSans-38" x="63.623047"/>
     </g>
    </g>
   </g>
   <g id="text_63">
    <g clip-path="url(#p4b67b9cb5a)">
     <!-- 19 -->
     <g transform="translate(429.6066 278.94885) scale(0.12 -0.12)">
      <use xlink:href="#DejaVuSans-31"/>
      <use xlink:href="#DejaVuSans-39" x="63.623047"/>
     </g>
    </g>
   </g>
   <g id="text_64">
    <g clip-path="url(#p4b67b9cb5a)">
     <!-- 20 -->
     <g transform="translate(364.4826 470.46165) scale(0.12 -0.12)">
      <use xlink:href="#DejaVuSans-32"/>
      <use xlink:href="#DejaVuSans-30" x="63.623047"/>
     </g>
    </g>
   </g>
   <g id="text_65">
    <g clip-path="url(#p4b67b9cb5a)">
     <!-- 21 -->
     <g transform="translate(153.1914 361.43925) scale(0.12 -0.12)">
      <use xlink:href="#DejaVuSans-32"/>
      <use xlink:href="#DejaVuSans-31" x="63.623047"/>
     </g>
    </g>
   </g>
   <g id="text_66">
    <g clip-path="url(#p4b67b9cb5a)">
     <!-- 22 -->
     <g transform="translate(86.1378 456.95445) scale(0.12 -0.12)">
      <use xlink:href="#DejaVuSans-32"/>
      <use xlink:href="#DejaVuSans-32" x="63.623047"/>
     </g>
    </g>
   </g>
   <g id="text_67">
    <g clip-path="url(#p4b67b9cb5a)">
     <!-- 23 -->
     <g transform="translate(318.1722 438.62325) scale(0.12 -0.12)">
      <use xlink:href="#DejaVuSans-32"/>
      <use xlink:href="#DejaVuSans-33" x="63.623047"/>
     </g>
    </g>
   </g>
   <g id="text_68">
    <g clip-path="url(#p4b67b9cb5a)">
     <!-- 24 -->
     <g transform="translate(348.5634 358.54485) scale(0.12 -0.12)">
      <use xlink:href="#DejaVuSans-32"/>
      <use xlink:href="#DejaVuSans-34" x="63.623047"/>
     </g>
    </g>
   </g>
   <g id="text_69">
    <g clip-path="url(#p4b67b9cb5a)">
     <!-- 25 -->
     <g transform="translate(422.853 224.92005) scale(0.12 -0.12)">
      <use xlink:href="#DejaVuSans-32"/>
      <use xlink:href="#DejaVuSans-35" x="63.623047"/>
     </g>
    </g>
   </g>
   <g id="text_70">
    <g clip-path="url(#p4b67b9cb5a)">
     <!-- 26 -->
     <g transform="translate(178.2762 15.07605) scale(0.12 -0.12)">
      <use xlink:href="#DejaVuSans-32"/>
      <use xlink:href="#DejaVuSans-36" x="63.623047"/>
     </g>
    </g>
   </g>
  </g>
 </g>
 <defs>
  <clipPath id="p4b67b9cb5a">
   <rect x="10.8" y="10.8" width="482.4" height="482.4"/>
  </clipPath>
 </defs>
</svg>
