<?xml version="1.0" encoding="utf-8" standalone="no"?>
<!DOCTYPE svg PUBLIC "-//W3C//DTD SVG 1.1//EN"
  "http://www.w3.org/Graphics/SVG/1.1/DTD/svg11.dtd">
<svg xmlns:xlink="http://www.w3.org/1999/xlink" width="504pt" height="504pt" viewBox="0 0 504 504" xmlns="http://www.w3.org/2000/svg" version="1.1">
 <metadata>
  <rdf:RDF xmlns:dc="http://purl.org/dc/elements/1.1/" xmlns:cc="http://creativecommons.org/ns#" xmlns:rdf="http://www.w3.org/1999/02/22-rdf-syntax-ns#">
   <cc:Work>
    <dc:type rdf:resource="http://purl.org/dc/dcmitype/StillImage"/>
    <dc:date>2024-10-29T14:59:49.027561</dc:date>
    <dc:format>image/svg+xml</dc:format>
    <dc:creator>
     <cc:Agent>
      <dc:title>Matplotlib v3.9.2, https://matplotlib.org/</dc:title>
     </cc:Agent>
    </dc:creator>
   </cc:Work>
  </rdf:RDF>
 </metadata>
 <defs>
  <style type="text/css">*{stroke-linejoin: round; stroke-linecap: butt}</style>
 </defs>
 <g id="figure_1">
  <g id="patch_1">
   <path d="M 0 504 
L 504 504 
L 504 0 
L 0 0 
L 0 504 
z
" style="fill: none; opacity: 0"/>
  </g>
  <g id="axes_1">
   <g id="patch_2">
    <path d="M 10.8 493.2 
L 493.2 493.2 
L 493.2 10.8 
L 10.8 10.8 
L 10.8 493.2 
z
" style="fill: none; opacity: 0"/>
   </g>
   <g id="LineCollection_1">
    <path d="M 408.78 264.5424 
L 93.7728 453.6432 
" clip-path="url(#p358b91d19e)" style="fill: none; stroke: #000000"/>
    <path d="M 408.78 264.5424 
L 325.8072 435.312 
" clip-path="url(#p358b91d19e)" style="fill: none; stroke: #000000"/>
    <path d="M 408.78 264.5424 
L 60.9696 480.6576 
" clip-path="url(#p358b91d19e)" style="fill: none; stroke: #000000"/>
    <path d="M 408.78 264.5424 
L 431.4528 277.5672 
" clip-path="url(#p358b91d19e)" style="fill: none; stroke: #000000"/>
    <path d="M 481.14 200.3832 
L 431.4528 277.5672 
" clip-path="url(#p358b91d19e)" style="fill: none; stroke: #000000"/>
    <path d="M 481.14 200.3832 
L 161.3088 297.3456 
" clip-path="url(#p358b91d19e)" style="fill: none; stroke: #000000"/>
    <path d="M 481.14 200.3832 
L 325.8072 435.312 
" clip-path="url(#p358b91d19e)" style="fill: none; stroke: #000000"/>
    <path d="M 409.2624 102.9384 
L 135.7416 412.1568 
" clip-path="url(#p358b91d19e)" style="fill: none; stroke: #000000"/>
    <path d="M 409.2624 102.9384 
L 13.6944 200.3832 
" clip-path="url(#p358b91d19e)" style="fill: none; stroke: #000000"/>
    <path d="M 409.2624 102.9384 
L 325.8072 435.312 
" clip-path="url(#p358b91d19e)" style="fill: none; stroke: #000000"/>
    <path d="M 188.8056 135.2592 
L 13.6944 200.3832 
" clip-path="url(#p358b91d19e)" style="fill: none; stroke: #000000"/>
    <path d="M 188.8056 135.2592 
L 283.8384 309.4056 
" clip-path="url(#p358b91d19e)" style="fill: none; stroke: #000000"/>
    <path d="M 188.8056 135.2592 
L 16.5888 487.4112 
" clip-path="url(#p358b91d19e)" style="fill: none; stroke: #000000"/>
    <path d="M 353.304 313.2648 
L 185.9112 11.7648 
" clip-path="url(#p358b91d19e)" style="fill: none; stroke: #000000"/>
    <path d="M 353.304 313.2648 
L 60.9696 480.6576 
" clip-path="url(#p358b91d19e)" style="fill: none; stroke: #000000"/>
    <path d="M 439.6536 320.9832 
L 290.1096 302.1696 
" clip-path="url(#p358b91d19e)" style="fill: none; stroke: #000000"/>
    <path d="M 439.6536 320.9832 
L 388.5192 403.4736 
" clip-path="url(#p358b91d19e)" style="fill: none; stroke: #000000"/>
    <path d="M 439.6536 320.9832 
L 372.1176 467.1504 
" clip-path="url(#p358b91d19e)" style="fill: none; stroke: #000000"/>
    <path d="M 439.6536 320.9832 
L 160.8264 358.128 
" clip-path="url(#p358b91d19e)" style="fill: none; stroke: #000000"/>
    <path d="M 16.5888 487.4112 
L 290.1096 302.1696 
" clip-path="url(#p358b91d19e)" style="fill: none; stroke: #000000"/>
    <path d="M 16.5888 487.4112 
L 193.6296 241.8696 
" clip-path="url(#p358b91d19e)" style="fill: none; stroke: #000000"/>
    <path d="M 16.5888 487.4112 
L 372.1176 467.1504 
" clip-path="url(#p358b91d19e)" style="fill: none; stroke: #000000"/>
    <path d="M 16.5888 487.4112 
L 283.8384 309.4056 
" clip-path="url(#p358b91d19e)" style="fill: none; stroke: #000000"/>
    <path d="M 16.5888 487.4112 
L 430.488 221.6088 
" clip-path="url(#p358b91d19e)" style="fill: none; stroke: #000000"/>
    <path d="M 379.836 24.3072 
L 60.9696 480.6576 
" clip-path="url(#p358b91d19e)" style="fill: none; stroke: #000000"/>
    <path d="M 116.928 226.4328 
L 372.1176 467.1504 
" clip-path="url(#p358b91d19e)" style="fill: none; stroke: #000000"/>
    <path d="M 13.6944 200.3832 
L 325.8072 435.312 
" clip-path="url(#p358b91d19e)" style="fill: none; stroke: #000000"/>
    <path d="M 13.6944 200.3832 
L 160.8264 358.128 
" clip-path="url(#p358b91d19e)" style="fill: none; stroke: #000000"/>
    <path d="M 13.6944 200.3832 
L 161.3088 297.3456 
" clip-path="url(#p358b91d19e)" style="fill: none; stroke: #000000"/>
    <path d="M 431.4528 277.5672 
L 440.6184 114.9984 
" clip-path="url(#p358b91d19e)" style="fill: none; stroke: #000000"/>
    <path d="M 431.4528 277.5672 
L 283.8384 309.4056 
" clip-path="url(#p358b91d19e)" style="fill: none; stroke: #000000"/>
    <path d="M 431.4528 277.5672 
L 185.9112 11.7648 
" clip-path="url(#p358b91d19e)" style="fill: none; stroke: #000000"/>
    <path d="M 161.3088 297.3456 
L 185.9112 11.7648 
" clip-path="url(#p358b91d19e)" style="fill: none; stroke: #000000"/>
    <path d="M 161.3088 297.3456 
L 93.7728 453.6432 
" clip-path="url(#p358b91d19e)" style="fill: none; stroke: #000000"/>
    <path d="M 135.7416 412.1568 
L 185.9112 11.7648 
" clip-path="url(#p358b91d19e)" style="fill: none; stroke: #000000"/>
    <path d="M 135.7416 412.1568 
L 290.1096 302.1696 
" clip-path="url(#p358b91d19e)" style="fill: none; stroke: #000000"/>
    <path d="M 440.6184 114.9984 
L 290.1096 302.1696 
" clip-path="url(#p358b91d19e)" style="fill: none; stroke: #000000"/>
    <path d="M 437.2416 275.6376 
L 60.9696 480.6576 
" clip-path="url(#p358b91d19e)" style="fill: none; stroke: #000000"/>
    <path d="M 437.2416 275.6376 
L 356.1984 355.2336 
" clip-path="url(#p358b91d19e)" style="fill: none; stroke: #000000"/>
    <path d="M 437.2416 275.6376 
L 430.488 221.6088 
" clip-path="url(#p358b91d19e)" style="fill: none; stroke: #000000"/>
    <path d="M 372.1176 467.1504 
L 430.488 221.6088 
" clip-path="url(#p358b91d19e)" style="fill: none; stroke: #000000"/>
    <path d="M 372.1176 467.1504 
L 160.8264 358.128 
" clip-path="url(#p358b91d19e)" style="fill: none; stroke: #000000"/>
    <path d="M 160.8264 358.128 
L 356.1984 355.2336 
" clip-path="url(#p358b91d19e)" style="fill: none; stroke: #000000"/>
    <path d="M 93.7728 453.6432 
L 60.9696 480.6576 
" clip-path="url(#p358b91d19e)" style="fill: none; stroke: #000000"/>
    <path d="M 93.7728 453.6432 
L 74.4768 126.0936 
" clip-path="url(#p358b91d19e)" style="fill: none; stroke: #000000"/>
    <path d="M 356.1984 355.2336 
L 290.1096 302.1696 
" clip-path="url(#p358b91d19e)" style="fill: none; stroke: #000000"/>
    <path d="M 290.1096 302.1696 
L 388.5192 403.4736 
" clip-path="url(#p358b91d19e)" style="fill: none; stroke: #000000"/>
   </g>
   <g id="text_1">
    <g id="patch_3">
     <path d="M 249.857711 369.087523 
L 260.767833 362.538108 
Q 263.339965 360.994041 261.795898 358.42191 
L 256.814675 350.124108 
Q 255.270609 347.551977 252.698478 349.096043 
L 241.788355 355.645458 
Q 239.216224 357.189525 240.76029 359.761656 
L 245.741513 368.059458 
Q 247.285579 370.631589 249.857711 369.087523 
z
" clip-path="url(#p358b91d19e)" style="fill: #ffffff; stroke: #ffffff; stroke-linejoin: miter"/>
    </g>
    <g clip-path="url(#p358b91d19e)">
     <!-- 20 -->
     <g transform="translate(247.243252 364.732315) rotate(-30.976658) scale(0.1 -0.1)">
      <defs>
       <path id="DejaVuSans-32" d="M 1228 531 
L 3431 531 
L 3431 0 
L 469 0 
L 469 531 
Q 828 903 1448 1529 
Q 2069 2156 2228 2338 
Q 2531 2678 2651 2914 
Q 2772 3150 2772 3378 
Q 2772 3750 2511 3984 
Q 2250 4219 1831 4219 
Q 1534 4219 1204 4116 
Q 875 4013 500 3803 
L 500 4441 
Q 881 4594 1212 4672 
Q 1544 4750 1819 4750 
Q 2544 4750 2975 4387 
Q 3406 4025 3406 3419 
Q 3406 3131 3298 2873 
Q 3191 2616 2906 2266 
Q 2828 2175 2409 1742 
Q 1991 1309 1228 531 
z
" transform="scale(0.015625)"/>
       <path id="DejaVuSans-30" d="M 2034 4250 
Q 1547 4250 1301 3770 
Q 1056 3291 1056 2328 
Q 1056 1369 1301 889 
Q 1547 409 2034 409 
Q 2525 409 2770 889 
Q 3016 1369 3016 2328 
Q 3016 3291 2770 3770 
Q 2525 4250 2034 4250 
z
M 2034 4750 
Q 2819 4750 3233 4129 
Q 3647 3509 3647 2328 
Q 3647 1150 3233 529 
Q 2819 -91 2034 -91 
Q 1250 -91 836 529 
Q 422 1150 422 2328 
Q 422 3509 836 4129 
Q 1250 4750 2034 4750 
z
" transform="scale(0.015625)"/>
      </defs>
      <use xlink:href="#DejaVuSans-32"/>
      <use xlink:href="#DejaVuSans-30" x="63.623047"/>
     </g>
    </g>
   </g>
   <g id="text_2">
    <g id="patch_4">
     <path d="M 372.954881 356.212973 
L 375.735429 350.490215 
Q 377.046494 347.791862 374.348141 346.480798 
L 365.64314 342.25125 
Q 362.944787 340.940185 361.633723 343.638539 
L 358.853174 349.361296 
Q 357.54211 352.059649 360.240463 353.370714 
L 368.945463 357.600262 
Q 371.643816 358.911326 372.954881 356.212973 
z
" clip-path="url(#p358b91d19e)" style="fill: #ffffff; stroke: #ffffff; stroke-linejoin: miter"/>
    </g>
    <g clip-path="url(#p358b91d19e)">
     <!-- 1 -->
     <g transform="translate(368.38595 353.993041) rotate(-64.086009) scale(0.1 -0.1)">
      <defs>
       <path id="DejaVuSans-31" d="M 794 531 
L 1825 531 
L 1825 4091 
L 703 3866 
L 703 4441 
L 1819 4666 
L 2450 4666 
L 2450 531 
L 3481 531 
L 3481 0 
L 794 0 
L 794 531 
z
" transform="scale(0.015625)"/>
      </defs>
      <use xlink:href="#DejaVuSans-31"/>
     </g>
    </g>
   </g>
   <g id="text_3">
    <g id="patch_5">
     <path d="M 236.307429 380.938924 
L 241.711643 377.580966 
Q 244.259799 375.997646 242.676478 373.44949 
L 237.568622 365.229034 
Q 235.985302 362.680878 233.437146 364.264198 
L 228.032933 367.622156 
Q 225.484777 369.205476 227.068097 371.753632 
L 232.175953 379.974088 
Q 233.759273 382.522244 236.307429 380.938924 
z
" clip-path="url(#p358b91d19e)" style="fill: #ffffff; stroke: #ffffff; stroke-linejoin: miter"/>
    </g>
    <g clip-path="url(#p358b91d19e)">
     <!-- 9 -->
     <g transform="translate(233.626505 376.624312) rotate(-31.855132) scale(0.1 -0.1)">
      <defs>
       <path id="DejaVuSans-39" d="M 703 97 
L 703 672 
Q 941 559 1184 500 
Q 1428 441 1663 441 
Q 2288 441 2617 861 
Q 2947 1281 2994 2138 
Q 2813 1869 2534 1725 
Q 2256 1581 1919 1581 
Q 1219 1581 811 2004 
Q 403 2428 403 3163 
Q 403 3881 828 4315 
Q 1253 4750 1959 4750 
Q 2769 4750 3195 4129 
Q 3622 3509 3622 2328 
Q 3622 1225 3098 567 
Q 2575 -91 1691 -91 
Q 1453 -91 1209 -44 
Q 966 3 703 97 
z
M 1959 2075 
Q 2384 2075 2632 2365 
Q 2881 2656 2881 3163 
Q 2881 3666 2632 3958 
Q 2384 4250 1959 4250 
Q 1534 4250 1286 3958 
Q 1038 3666 1038 3163 
Q 1038 2656 1286 2365 
Q 1534 2075 1959 2075 
z
" transform="scale(0.015625)"/>
      </defs>
      <use xlink:href="#DejaVuSans-39"/>
     </g>
    </g>
   </g>
   <g id="text_4">
    <g id="patch_6">
     <path d="M 410.693111 274.681915 
L 421.727029 281.020549 
Q 424.328346 282.514922 425.822719 279.913606 
L 430.64363 271.52165 
Q 432.138003 268.920333 429.536687 267.42596 
L 418.502769 261.087326 
Q 415.901452 259.592953 414.407079 262.19427 
L 409.586168 270.586225 
Q 408.091795 273.187542 410.693111 274.681915 
z
" clip-path="url(#p358b91d19e)" style="fill: #ffffff; stroke: #ffffff; stroke-linejoin: miter"/>
    </g>
    <g clip-path="url(#p358b91d19e)">
     <!-- 19 -->
     <g transform="translate(413.223428 270.27729) rotate(-330.124007) scale(0.1 -0.1)">
      <use xlink:href="#DejaVuSans-31"/>
      <use xlink:href="#DejaVuSans-39" x="63.623047"/>
     </g>
    </g>
   </g>
   <g id="text_5">
    <g id="patch_7">
     <path d="M 459.443863 248.568159 
L 466.331761 237.86851 
Q 467.955627 235.346 465.433117 233.722134 
L 457.295393 228.483474 
Q 454.772883 226.859608 453.149017 229.382118 
L 446.261118 240.081767 
Q 444.637252 242.604277 447.159762 244.228143 
L 455.297486 249.466803 
Q 457.819997 251.090669 459.443863 248.568159 
z
" clip-path="url(#p358b91d19e)" style="fill: #ffffff; stroke: #ffffff; stroke-linejoin: miter"/>
    </g>
    <g clip-path="url(#p358b91d19e)">
     <!-- 14 -->
     <g transform="translate(455.172674 245.818581) rotate(-57.228591) scale(0.1 -0.1)">
      <defs>
       <path id="DejaVuSans-34" d="M 2419 4116 
L 825 1625 
L 2419 1625 
L 2419 4116 
z
M 2253 4666 
L 3047 4666 
L 3047 1625 
L 3713 1625 
L 3713 1100 
L 3047 1100 
L 3047 0 
L 2419 0 
L 2419 1100 
L 313 1100 
L 313 1709 
L 2253 4666 
z
" transform="scale(0.015625)"/>
      </defs>
      <use xlink:href="#DejaVuSans-31"/>
      <use xlink:href="#DejaVuSans-34" x="63.623047"/>
     </g>
    </g>
   </g>
   <g id="text_6">
    <g id="patch_8">
     <path d="M 317.408249 258.212723 
L 329.585921 254.52085 
Q 332.456885 253.650467 331.586502 250.779503 
L 328.778611 241.517654 
Q 327.908228 238.64669 325.037265 239.517073 
L 312.859593 243.208946 
Q 309.988629 244.079329 310.859011 246.950293 
L 313.666902 256.212142 
Q 314.537285 259.083106 317.408249 258.212723 
z
" clip-path="url(#p358b91d19e)" style="fill: #ffffff; stroke: #ffffff; stroke-linejoin: miter"/>
    </g>
    <g clip-path="url(#p358b91d19e)">
     <!-- 11 -->
     <g transform="translate(315.934492 253.351524) rotate(-16.865594) scale(0.1 -0.1)">
      <use xlink:href="#DejaVuSans-31"/>
      <use xlink:href="#DejaVuSans-31" x="63.623047"/>
     </g>
    </g>
   </g>
   <g id="text_7">
    <g id="patch_9">
     <path d="M 406.50353 327.478264 
L 413.521801 316.863675 
Q 415.176403 314.361218 412.673945 312.706616 
L 404.600914 307.368801 
Q 402.098457 305.714198 400.443855 308.216656 
L 393.425585 318.831245 
Q 391.770982 321.333702 394.27344 322.988304 
L 402.346471 328.326119 
Q 404.848928 329.980721 406.50353 327.478264 
z
" clip-path="url(#p358b91d19e)" style="fill: #ffffff; stroke: #ffffff; stroke-linejoin: miter"/>
    </g>
    <g clip-path="url(#p358b91d19e)">
     <!-- 12 -->
     <g transform="translate(402.266297 324.676644) rotate(-56.527683) scale(0.1 -0.1)">
      <use xlink:href="#DejaVuSans-31"/>
      <use xlink:href="#DejaVuSans-32" x="63.623047"/>
     </g>
    </g>
   </g>
   <g id="text_8">
    <g id="patch_10">
     <path d="M 274.159273 267.505712 
L 282.590205 257.974447 
Q 284.577851 255.72739 282.330794 253.739744 
L 275.081696 247.327515 
Q 272.83464 245.339869 270.846994 247.586926 
L 262.416062 257.118191 
Q 260.428416 259.365247 262.675472 261.352893 
L 269.924571 267.765122 
Q 272.171627 269.752768 274.159273 267.505712 
z
" clip-path="url(#p358b91d19e)" style="fill: #ffffff; stroke: #ffffff; stroke-linejoin: miter"/>
    </g>
    <g clip-path="url(#p358b91d19e)">
     <!-- 19 -->
     <g transform="translate(270.354491 264.140171) rotate(-48.50546) scale(0.1 -0.1)">
      <use xlink:href="#DejaVuSans-31"/>
      <use xlink:href="#DejaVuSans-39" x="63.623047"/>
     </g>
    </g>
   </g>
   <g id="text_9">
    <g id="patch_11">
     <path d="M 207.17481 160.794366 
L 219.530436 157.750663 
Q 222.443354 157.03309 221.725781 154.120172 
L 219.410863 144.722978 
Q 218.69329 141.810061 215.780372 142.527633 
L 203.424746 145.571336 
Q 200.511829 146.288908 201.229401 149.201826 
L 203.544319 158.59902 
Q 204.261892 161.511938 207.17481 160.794366 
z
" clip-path="url(#p358b91d19e)" style="fill: #ffffff; stroke: #ffffff; stroke-linejoin: miter"/>
    </g>
    <g clip-path="url(#p358b91d19e)">
     <!-- 17 -->
     <g transform="translate(205.959795 155.862128) rotate(-13.838786) scale(0.1 -0.1)">
      <defs>
       <path id="DejaVuSans-37" d="M 525 4666 
L 3525 4666 
L 3525 4397 
L 1831 0 
L 1172 0 
L 2766 4134 
L 525 4134 
L 525 4666 
z
" transform="scale(0.015625)"/>
      </defs>
      <use xlink:href="#DejaVuSans-31"/>
      <use xlink:href="#DejaVuSans-37" x="63.623047"/>
     </g>
    </g>
   </g>
   <g id="text_10">
    <g id="patch_12">
     <path d="M 374.363157 274.119605 
L 375.912611 267.948657 
Q 376.643198 265.038976 373.733518 264.308389 
L 364.346766 261.951483 
Q 361.437086 261.220896 360.706498 264.130576 
L 359.157044 270.301524 
Q 358.426456 273.211205 361.336137 273.941793 
L 370.722888 276.298698 
Q 373.632569 277.029286 374.363157 274.119605 
z
" clip-path="url(#p358b91d19e)" style="fill: #ffffff; stroke: #ffffff; stroke-linejoin: miter"/>
    </g>
    <g clip-path="url(#p358b91d19e)">
     <!-- 9 -->
     <g transform="translate(369.4364 272.882553) rotate(-75.905072) scale(0.1 -0.1)">
      <use xlink:href="#DejaVuSans-39"/>
     </g>
    </g>
   </g>
   <g id="text_11">
    <g id="patch_13">
     <path d="M 101.001321 176.277307 
L 106.964769 174.059496 
Q 109.776611 173.013769 108.730885 170.201927 
L 105.357328 161.130807 
Q 104.311601 158.318965 101.499759 159.364691 
L 95.536311 161.582503 
Q 92.724469 162.628229 93.770195 165.440071 
L 97.143752 174.511191 
Q 98.189478 177.323033 101.001321 176.277307 
z
" clip-path="url(#p358b91d19e)" style="fill: #ffffff; stroke: #ffffff; stroke-linejoin: miter"/>
    </g>
    <g clip-path="url(#p358b91d19e)">
     <!-- 3 -->
     <g transform="translate(99.230666 171.516214) rotate(-20.400209) scale(0.1 -0.1)">
      <defs>
       <path id="DejaVuSans-33" d="M 2597 2516 
Q 3050 2419 3304 2112 
Q 3559 1806 3559 1356 
Q 3559 666 3084 287 
Q 2609 -91 1734 -91 
Q 1441 -91 1130 -33 
Q 819 25 488 141 
L 488 750 
Q 750 597 1062 519 
Q 1375 441 1716 441 
Q 2309 441 2620 675 
Q 2931 909 2931 1356 
Q 2931 1769 2642 2001 
Q 2353 2234 1838 2234 
L 1294 2234 
L 1294 2753 
L 1863 2753 
Q 2328 2753 2575 2939 
Q 2822 3125 2822 3475 
Q 2822 3834 2567 4026 
Q 2313 4219 1838 4219 
Q 1578 4219 1281 4162 
Q 984 4106 628 3988 
L 628 4550 
Q 988 4650 1302 4700 
Q 1616 4750 1894 4750 
Q 2613 4750 3031 4423 
Q 3450 4097 3450 3541 
Q 3450 3153 3228 2886 
Q 3006 2619 2597 2516 
z
" transform="scale(0.015625)"/>
      </defs>
      <use xlink:href="#DejaVuSans-33"/>
     </g>
    </g>
   </g>
   <g id="text_12">
    <g id="patch_14">
     <path d="M 227.917376 223.295739 
L 230.965156 228.880759 
Q 232.402224 231.514166 235.035632 230.077099 
L 243.531115 225.441059 
Q 246.164523 224.003992 244.727456 221.370584 
L 241.679675 215.785565 
Q 240.242608 213.152157 237.6092 214.589224 
L 229.113716 219.225264 
Q 226.480308 220.662331 227.917376 223.295739 
z
" clip-path="url(#p358b91d19e)" style="fill: #ffffff; stroke: #ffffff; stroke-linejoin: miter"/>
    </g>
    <g clip-path="url(#p358b91d19e)">
     <!-- 4 -->
     <g transform="translate(232.376339 220.862455) rotate(-298.621579) scale(0.1 -0.1)">
      <use xlink:href="#DejaVuSans-34"/>
     </g>
    </g>
   </g>
   <g id="text_13">
    <g id="patch_15">
     <path d="M 106.944486 320.493882 
L 112.534839 309.062627 
Q 113.8528 306.367636 111.157809 305.049675 
L 102.463655 300.797876 
Q 99.768664 299.479915 98.450703 302.174906 
L 92.860349 313.60616 
Q 91.542388 316.301152 94.237379 317.619113 
L 102.931533 321.870912 
Q 105.626524 323.188873 106.944486 320.493882 
z
" clip-path="url(#p358b91d19e)" style="fill: #ffffff; stroke: #ffffff; stroke-linejoin: miter"/>
    </g>
    <g clip-path="url(#p358b91d19e)">
     <!-- 18 -->
     <g transform="translate(102.381248 318.262271) rotate(-63.939467) scale(0.1 -0.1)">
      <defs>
       <path id="DejaVuSans-38" d="M 2034 2216 
Q 1584 2216 1326 1975 
Q 1069 1734 1069 1313 
Q 1069 891 1326 650 
Q 1584 409 2034 409 
Q 2484 409 2743 651 
Q 3003 894 3003 1313 
Q 3003 1734 2745 1975 
Q 2488 2216 2034 2216 
z
M 1403 2484 
Q 997 2584 770 2862 
Q 544 3141 544 3541 
Q 544 4100 942 4425 
Q 1341 4750 2034 4750 
Q 2731 4750 3128 4425 
Q 3525 4100 3525 3541 
Q 3525 3141 3298 2862 
Q 3072 2584 2669 2484 
Q 3125 2378 3379 2068 
Q 3634 1759 3634 1313 
Q 3634 634 3220 271 
Q 2806 -91 2034 -91 
Q 1263 -91 848 271 
Q 434 634 434 1313 
Q 434 1759 690 2068 
Q 947 2378 1403 2484 
z
M 1172 3481 
Q 1172 3119 1398 2916 
Q 1625 2713 2034 2713 
Q 2441 2713 2670 2916 
Q 2900 3119 2900 3481 
Q 2900 3844 2670 4047 
Q 2441 4250 2034 4250 
Q 1625 4250 1398 4047 
Q 1172 3844 1172 3481 
z
" transform="scale(0.015625)"/>
      </defs>
      <use xlink:href="#DejaVuSans-31"/>
      <use xlink:href="#DejaVuSans-38" x="63.623047"/>
     </g>
    </g>
   </g>
   <g id="text_14">
    <g id="patch_16">
     <path d="M 261.210568 163.539981 
L 264.29896 169.102646 
Q 265.755176 171.725514 268.378044 170.269298 
L 276.839524 165.571484 
Q 279.462392 164.115268 278.006176 161.4924 
L 274.917784 155.929735 
Q 273.461568 153.306867 270.8387 154.763084 
L 262.37722 159.460897 
Q 259.754352 160.917114 261.210568 163.539981 
z
" clip-path="url(#p358b91d19e)" style="fill: #ffffff; stroke: #ffffff; stroke-linejoin: miter"/>
    </g>
    <g clip-path="url(#p358b91d19e)">
     <!-- 8 -->
     <g transform="translate(265.651684 161.074274) rotate(-299.039035) scale(0.1 -0.1)">
      <use xlink:href="#DejaVuSans-38"/>
     </g>
    </g>
   </g>
   <g id="text_15">
    <g id="patch_17">
     <path d="M 205.511933 406.924847 
L 216.554716 400.60167 
Q 219.158123 399.11094 217.667393 396.507534 
L 212.858238 388.108836 
Q 211.367508 385.505429 208.764102 386.996159 
L 197.721319 393.319336 
Q 195.117912 394.810066 196.608642 397.413472 
L 201.417797 405.81217 
Q 202.908527 408.415577 205.511933 406.924847 
z
" clip-path="url(#p358b91d19e)" style="fill: #ffffff; stroke: #ffffff; stroke-linejoin: miter"/>
    </g>
    <g clip-path="url(#p358b91d19e)">
     <!-- 10 -->
     <g transform="translate(202.987787 402.516683) rotate(-29.795766) scale(0.1 -0.1)">
      <use xlink:href="#DejaVuSans-31"/>
      <use xlink:href="#DejaVuSans-30" x="63.623047"/>
     </g>
    </g>
   </g>
   <g id="text_16">
    <g id="patch_18">
     <path d="M 360.745012 318.956845 
L 367.057751 319.751028 
Q 370.034288 320.125496 370.408756 317.148959 
L 371.616804 307.546525 
Q 371.991272 304.569988 369.014734 304.195521 
L 362.701995 303.401337 
Q 359.725458 303.02687 359.35099 306.003407 
L 358.142942 315.60584 
Q 357.768474 318.582377 360.745012 318.956845 
z
" clip-path="url(#p358b91d19e)" style="fill: #ffffff; stroke: #ffffff; stroke-linejoin: miter"/>
    </g>
    <g clip-path="url(#p358b91d19e)">
     <!-- 4 -->
     <g transform="translate(361.379071 313.916885) rotate(-352.829493) scale(0.1 -0.1)">
      <use xlink:href="#DejaVuSans-34"/>
     </g>
    </g>
   </g>
   <g id="text_17">
    <g id="patch_19">
     <path d="M 419.074316 369.060469 
L 422.426512 363.65268 
Q 424.007116 361.102838 421.457274 359.522235 
L 413.231379 354.423142 
Q 410.681537 352.842538 409.100934 355.39238 
L 405.748737 360.800169 
Q 404.168133 363.35001 406.717975 364.930614 
L 414.94387 370.029707 
Q 417.493712 371.610311 419.074316 369.060469 
z
" clip-path="url(#p358b91d19e)" style="fill: #ffffff; stroke: #ffffff; stroke-linejoin: miter"/>
    </g>
    <g clip-path="url(#p358b91d19e)">
     <!-- 1 -->
     <g transform="translate(414.756849 366.384145) rotate(-58.205928) scale(0.1 -0.1)">
      <use xlink:href="#DejaVuSans-31"/>
     </g>
    </g>
   </g>
   <g id="text_18">
    <g id="patch_20">
     <path d="M 410.332859 403.131099 
L 415.670209 391.579548 
Q 416.928523 388.856197 414.205171 387.597882 
L 405.419525 383.538508 
Q 402.696173 382.280193 401.437859 385.003545 
L 396.100509 396.555096 
Q 394.842194 399.278447 397.565546 400.536762 
L 406.351193 404.596136 
Q 409.074544 405.854451 410.332859 403.131099 
z
" clip-path="url(#p358b91d19e)" style="fill: #ffffff; stroke: #ffffff; stroke-linejoin: miter"/>
    </g>
    <g clip-path="url(#p358b91d19e)">
     <!-- 15 -->
     <g transform="translate(405.7216 401.000484) rotate(-65.200881) scale(0.1 -0.1)">
      <defs>
       <path id="DejaVuSans-35" d="M 691 4666 
L 3169 4666 
L 3169 4134 
L 1269 4134 
L 1269 2991 
Q 1406 3038 1543 3061 
Q 1681 3084 1819 3084 
Q 2600 3084 3056 2656 
Q 3513 2228 3513 1497 
Q 3513 744 3044 326 
Q 2575 -91 1722 -91 
Q 1428 -91 1123 -41 
Q 819 9 494 109 
L 494 744 
Q 775 591 1075 516 
Q 1375 441 1709 441 
Q 2250 441 2565 725 
Q 2881 1009 2881 1497 
Q 2881 1984 2565 2268 
Q 2250 2553 1709 2553 
Q 1456 2553 1204 2497 
Q 953 2441 691 2322 
L 691 4666 
z
" transform="scale(0.015625)"/>
      </defs>
      <use xlink:href="#DejaVuSans-31"/>
      <use xlink:href="#DejaVuSans-35" x="63.623047"/>
     </g>
    </g>
   </g>
   <g id="text_19">
    <g id="patch_21">
     <path d="M 294.968277 348.166205 
L 307.581842 346.485851 
Q 310.555571 346.089697 310.159417 343.115968 
L 308.881407 333.522596 
Q 308.485253 330.548867 305.511524 330.945022 
L 292.897958 332.625375 
Q 289.92423 333.02153 290.320384 335.995258 
L 291.598394 345.588631 
Q 291.994548 348.562359 294.968277 348.166205 
z
" clip-path="url(#p358b91d19e)" style="fill: #ffffff; stroke: #ffffff; stroke-linejoin: miter"/>
    </g>
    <g clip-path="url(#p358b91d19e)">
     <!-- 18 -->
     <g transform="translate(294.297497 343.131001) rotate(-7.58815) scale(0.1 -0.1)">
      <use xlink:href="#DejaVuSans-31"/>
      <use xlink:href="#DejaVuSans-38" x="63.623047"/>
     </g>
    </g>
   </g>
   <g id="text_20">
    <g id="patch_22">
     <path d="M 152.47646 404.849108 
L 163.01256 397.713548 
Q 165.496513 396.031295 163.814259 393.547342 
L 158.387238 385.534006 
Q 156.704984 383.050053 154.221031 384.732307 
L 143.684931 391.867867 
Q 141.200978 393.550121 142.883232 396.034074 
L 148.310253 404.047409 
Q 149.992507 406.531362 152.47646 404.849108 
z
" clip-path="url(#p358b91d19e)" style="fill: #ffffff; stroke: #ffffff; stroke-linejoin: miter"/>
    </g>
    <g clip-path="url(#p358b91d19e)">
     <!-- 16 -->
     <g transform="translate(149.628018 400.643207) rotate(-34.107769) scale(0.1 -0.1)">
      <defs>
       <path id="DejaVuSans-36" d="M 2113 2584 
Q 1688 2584 1439 2293 
Q 1191 2003 1191 1497 
Q 1191 994 1439 701 
Q 1688 409 2113 409 
Q 2538 409 2786 701 
Q 3034 994 3034 1497 
Q 3034 2003 2786 2293 
Q 2538 2584 2113 2584 
z
M 3366 4563 
L 3366 3988 
Q 3128 4100 2886 4159 
Q 2644 4219 2406 4219 
Q 1781 4219 1451 3797 
Q 1122 3375 1075 2522 
Q 1259 2794 1537 2939 
Q 1816 3084 2150 3084 
Q 2853 3084 3261 2657 
Q 3669 2231 3669 1497 
Q 3669 778 3244 343 
Q 2819 -91 2113 -91 
Q 1303 -91 875 529 
Q 447 1150 447 2328 
Q 447 3434 972 4092 
Q 1497 4750 2381 4750 
Q 2619 4750 2861 4703 
Q 3103 4656 3366 4563 
z
" transform="scale(0.015625)"/>
      </defs>
      <use xlink:href="#DejaVuSans-31"/>
      <use xlink:href="#DejaVuSans-36" x="63.623047"/>
     </g>
    </g>
   </g>
   <g id="text_21">
    <g id="patch_23">
     <path d="M 107.745658 374.387376 
L 115.187879 364.065604 
Q 116.94243 361.632181 114.509006 359.87763 
L 106.65868 354.217375 
Q 104.225257 352.462824 102.470706 354.896247 
L 95.028485 365.218019 
Q 93.273934 367.651443 95.707358 369.405994 
L 103.557684 375.066249 
Q 105.991107 376.8208 107.745658 374.387376 
z
" clip-path="url(#p358b91d19e)" style="fill: #ffffff; stroke: #ffffff; stroke-linejoin: miter"/>
    </g>
    <g clip-path="url(#p358b91d19e)">
     <!-- 18 -->
     <g transform="translate(103.625315 371.416519) rotate(-54.207582) scale(0.1 -0.1)">
      <use xlink:href="#DejaVuSans-31"/>
      <use xlink:href="#DejaVuSans-38" x="63.623047"/>
     </g>
    </g>
   </g>
   <g id="text_22">
    <g id="patch_24">
     <path d="M 188.44625 485.469205 
L 201.150637 484.74521 
Q 204.145777 484.574524 203.975091 481.579384 
L 203.424449 471.916936 
Q 203.253763 468.921795 200.258623 469.092482 
L 187.554235 469.816477 
Q 184.559095 469.987163 184.729781 472.982304 
L 185.280423 482.644751 
Q 185.451109 485.639892 188.44625 485.469205 
z
" clip-path="url(#p358b91d19e)" style="fill: #ffffff; stroke: #ffffff; stroke-linejoin: miter"/>
    </g>
    <g clip-path="url(#p358b91d19e)">
     <!-- 16 -->
     <g transform="translate(188.157238 480.397746) rotate(-3.261632) scale(0.1 -0.1)">
      <use xlink:href="#DejaVuSans-31"/>
      <use xlink:href="#DejaVuSans-36" x="63.623047"/>
     </g>
    </g>
   </g>
   <g id="text_23">
    <g id="patch_25">
     <path d="M 149.261763 408.46115 
L 159.852543 401.407003 
Q 162.349387 399.743942 160.686327 397.247098 
L 155.321225 389.192175 
Q 153.658164 386.695331 151.16132 388.358392 
L 140.57054 395.412539 
Q 138.073696 397.0756 139.736756 399.572444 
L 145.101859 407.627367 
Q 146.764919 410.124211 149.261763 408.46115 
z
" clip-path="url(#p358b91d19e)" style="fill: #ffffff; stroke: #ffffff; stroke-linejoin: miter"/>
    </g>
    <g clip-path="url(#p358b91d19e)">
     <!-- 10 -->
     <g transform="translate(146.445821 404.233421) rotate(-33.666194) scale(0.1 -0.1)">
      <use xlink:href="#DejaVuSans-31"/>
      <use xlink:href="#DejaVuSans-30" x="63.623047"/>
     </g>
    </g>
   </g>
   <g id="text_24">
    <g id="patch_26">
     <path d="M 222.41967 364.544759 
L 233.126908 357.668666 
Q 235.651208 356.047583 234.030125 353.523283 
L 228.800444 345.379786 
Q 227.179361 342.855486 224.655061 344.476569 
L 213.947822 351.352663 
Q 211.423523 352.973746 213.044606 355.498046 
L 218.274287 363.641543 
Q 219.89537 366.165842 222.41967 364.544759 
z
" clip-path="url(#p358b91d19e)" style="fill: #ffffff; stroke: #ffffff; stroke-linejoin: miter"/>
    </g>
    <g clip-path="url(#p358b91d19e)">
     <!-- 14 -->
     <g transform="translate(219.674805 360.270541) rotate(-32.708217) scale(0.1 -0.1)">
      <use xlink:href="#DejaVuSans-31"/>
      <use xlink:href="#DejaVuSans-34" x="63.623047"/>
     </g>
    </g>
   </g>
   <g id="text_25">
    <g id="patch_27">
     <path d="M 223.18416 262.188182 
L 230.472586 251.757244 
Q 232.190879 249.298083 229.731718 247.57979 
L 221.798364 242.036506 
Q 219.339204 240.318213 217.620911 242.777374 
L 210.332486 253.208312 
Q 208.614193 255.667473 211.073353 257.385766 
L 219.006707 262.92905 
Q 221.465868 264.647343 223.18416 262.188182 
z
" clip-path="url(#p358b91d19e)" style="fill: #ffffff; stroke: #ffffff; stroke-linejoin: miter"/>
    </g>
    <g clip-path="url(#p358b91d19e)">
     <!-- 11 -->
     <g transform="translate(219.020238 259.278719) rotate(-55.056787) scale(0.1 -0.1)">
      <use xlink:href="#DejaVuSans-31"/>
      <use xlink:href="#DejaVuSans-31" x="63.623047"/>
     </g>
    </g>
   </g>
   <g id="text_26">
    <g id="patch_28">
     <path d="M 236.829524 350.310959 
L 241.457813 354.676775 
Q 243.640111 356.735312 245.698649 354.553015 
L 252.339577 347.512832 
Q 254.398115 345.330535 252.215817 343.271997 
L 247.587528 338.906181 
Q 245.405231 336.847644 243.346693 339.029941 
L 236.705764 346.070124 
Q 234.647227 348.252421 236.829524 350.310959 
z
" clip-path="url(#p358b91d19e)" style="fill: #ffffff; stroke: #ffffff; stroke-linejoin: miter"/>
    </g>
    <g clip-path="url(#p358b91d19e)">
     <!-- 9 -->
     <g transform="translate(240.3151 346.615829) rotate(-316.671581) scale(0.1 -0.1)">
      <use xlink:href="#DejaVuSans-39"/>
     </g>
    </g>
   </g>
   <g id="text_27">
    <g id="patch_29">
     <path d="M 159.952953 320.284279 
L 170.119739 327.936866 
Q 172.516623 329.741013 174.32077 327.344128 
L 180.141021 319.611679 
Q 181.945168 317.214795 179.548283 315.410648 
L 169.381498 307.75806 
Q 166.984614 305.953914 165.180467 308.350798 
L 159.360215 316.083248 
Q 157.556069 318.480132 159.952953 320.284279 
z
" clip-path="url(#p358b91d19e)" style="fill: #ffffff; stroke: #ffffff; stroke-linejoin: miter"/>
    </g>
    <g clip-path="url(#p358b91d19e)">
     <!-- 14 -->
     <g transform="translate(163.007787 316.225804) rotate(-323.031048) scale(0.1 -0.1)">
      <use xlink:href="#DejaVuSans-31"/>
      <use xlink:href="#DejaVuSans-34" x="63.623047"/>
     </g>
    </g>
   </g>
   <g id="text_28">
    <g id="patch_30">
     <path d="M 79.358044 282.27613 
L 83.697773 286.928888 
Q 85.74401 289.122723 87.937845 287.076486 
L 95.015248 280.475238 
Q 97.209083 278.429001 95.162846 276.235166 
L 90.823117 271.582407 
Q 88.776879 269.388572 86.583044 271.43481 
L 79.505641 278.036058 
Q 77.311806 280.082295 79.358044 282.27613 
z
" clip-path="url(#p358b91d19e)" style="fill: #ffffff; stroke: #ffffff; stroke-linejoin: miter"/>
    </g>
    <g clip-path="url(#p358b91d19e)">
     <!-- 7 -->
     <g transform="translate(83.072709 278.811381) rotate(-313.006332) scale(0.1 -0.1)">
      <use xlink:href="#DejaVuSans-37"/>
     </g>
    </g>
   </g>
   <g id="text_29">
    <g id="patch_31">
     <path d="M 77.8796 251.923035 
L 88.515319 258.909242 
Q 91.022758 260.556286 92.669801 258.048847 
L 97.983231 249.959745 
Q 99.630274 247.452306 97.122835 245.805263 
L 86.487116 238.819055 
Q 83.979677 237.172012 82.332634 239.679451 
L 77.019204 247.768553 
Q 75.372161 250.275992 77.8796 251.923035 
z
" clip-path="url(#p358b91d19e)" style="fill: #ffffff; stroke: #ffffff; stroke-linejoin: miter"/>
    </g>
    <g clip-path="url(#p358b91d19e)">
     <!-- 17 -->
     <g transform="translate(80.668421 247.677366) rotate(-326.700579) scale(0.1 -0.1)">
      <use xlink:href="#DejaVuSans-31"/>
      <use xlink:href="#DejaVuSans-37" x="63.623047"/>
     </g>
    </g>
   </g>
   <g id="text_30">
    <g id="patch_32">
     <path d="M 443.504075 203.076658 
L 444.220371 190.371834 
Q 444.389242 187.376591 441.393999 187.207719 
L 431.731219 186.662934 
Q 428.735976 186.494062 428.567104 189.489306 
L 427.850809 202.194129 
Q 427.681937 205.189373 430.677181 205.358244 
L 440.33996 205.90303 
Q 443.335204 206.071901 443.504075 203.076658 
z
" clip-path="url(#p358b91d19e)" style="fill: #ffffff; stroke: #ffffff; stroke-linejoin: miter"/>
    </g>
    <g clip-path="url(#p358b91d19e)">
     <!-- 17 -->
     <g transform="translate(438.432442 202.79072) rotate(-86.77309) scale(0.1 -0.1)">
      <use xlink:href="#DejaVuSans-31"/>
      <use xlink:href="#DejaVuSans-37" x="63.623047"/>
     </g>
    </g>
   </g>
   <g id="text_31">
    <g id="patch_33">
     <path d="M 356.187994 301.820114 
L 362.407471 300.478658 
Q 365.340034 299.846145 364.707521 296.913582 
L 362.667005 287.453011 
Q 362.034492 284.520448 359.101929 285.152961 
L 352.882451 286.494417 
Q 349.949888 287.126931 350.582401 290.059494 
L 352.622917 299.520065 
Q 353.25543 302.452628 356.187994 301.820114 
z
" clip-path="url(#p358b91d19e)" style="fill: #ffffff; stroke: #ffffff; stroke-linejoin: miter"/>
    </g>
    <g clip-path="url(#p358b91d19e)">
     <!-- 5 -->
     <g transform="translate(355.117003 296.854613) rotate(-12.171458) scale(0.1 -0.1)">
      <use xlink:href="#DejaVuSans-35"/>
     </g>
    </g>
   </g>
   <g id="text_32">
    <g id="patch_34">
     <path d="M 300.764333 147.647559 
L 305.081652 152.32112 
Q 307.117322 154.524763 309.320966 152.489093 
L 316.430012 145.921934 
Q 318.633655 143.886263 316.597984 141.68262 
L 312.280666 137.009059 
Q 310.244995 134.805416 308.041352 136.841086 
L 300.932306 143.408245 
Q 298.728663 145.443916 300.764333 147.647559 
z
" clip-path="url(#p358b91d19e)" style="fill: #ffffff; stroke: #ffffff; stroke-linejoin: miter"/>
    </g>
    <g clip-path="url(#p358b91d19e)">
     <!-- 2 -->
     <g transform="translate(304.495607 144.200702) rotate(-312.730977) scale(0.1 -0.1)">
      <use xlink:href="#DejaVuSans-32"/>
     </g>
    </g>
   </g>
   <g id="text_33">
    <g id="patch_35">
     <path d="M 181.147403 158.393851 
L 181.693501 152.05483 
Q 181.950994 149.065901 178.962064 148.808408 
L 169.319654 147.977728 
Q 166.330725 147.720236 166.073233 150.709165 
L 165.527135 157.048185 
Q 165.269643 160.037115 168.258572 160.294607 
L 177.900982 161.125288 
Q 180.889911 161.38278 181.147403 158.393851 
z
" clip-path="url(#p358b91d19e)" style="fill: #ffffff; stroke: #ffffff; stroke-linejoin: miter"/>
    </g>
    <g clip-path="url(#p358b91d19e)">
     <!-- 5 -->
     <g transform="translate(176.086461 157.957857) rotate(-85.076203) scale(0.1 -0.1)">
      <use xlink:href="#DejaVuSans-35"/>
     </g>
    </g>
   </g>
   <g id="text_34">
    <g id="patch_36">
     <path d="M 132.214286 384.441637 
L 137.261697 372.760487 
Q 138.451656 370.006581 135.69775 368.816622 
L 126.813535 364.977763 
Q 124.05963 363.787804 122.86967 366.54171 
L 117.82226 378.22286 
Q 116.6323 380.976766 119.386206 382.166725 
L 128.270421 386.005583 
Q 131.024327 387.195543 132.214286 384.441637 
z
" clip-path="url(#p358b91d19e)" style="fill: #ffffff; stroke: #ffffff; stroke-linejoin: miter"/>
    </g>
    <g clip-path="url(#p358b91d19e)">
     <!-- 12 -->
     <g transform="translate(127.551292 382.426763) rotate(-66.630887) scale(0.1 -0.1)">
      <use xlink:href="#DejaVuSans-31"/>
      <use xlink:href="#DejaVuSans-32" x="63.623047"/>
     </g>
    </g>
   </g>
   <g id="text_35">
    <g id="patch_37">
     <path d="M 167.813539 219.249012 
L 169.395626 206.622745 
Q 169.768613 203.646021 166.79189 203.273034 
L 157.188857 202.069763 
Q 154.212134 201.696776 153.839147 204.673499 
L 152.25706 217.299766 
Q 151.884073 220.27649 154.860796 220.649477 
L 164.463829 221.852748 
Q 167.440552 222.225735 167.813539 219.249012 
z
" clip-path="url(#p358b91d19e)" style="fill: #ffffff; stroke: #ffffff; stroke-linejoin: miter"/>
    </g>
    <g clip-path="url(#p358b91d19e)">
     <!-- 12 -->
     <g transform="translate(162.773265 218.61746) rotate(-82.857992) scale(0.1 -0.1)">
      <use xlink:href="#DejaVuSans-31"/>
      <use xlink:href="#DejaVuSans-32" x="63.623047"/>
     </g>
    </g>
   </g>
   <g id="text_36">
    <g id="patch_38">
     <path d="M 212.294261 367.238351 
L 222.657765 359.854355 
Q 225.101028 358.11353 223.360203 355.670268 
L 217.744231 347.788202 
Q 216.003407 345.34494 213.560145 347.085764 
L 203.196641 354.469761 
Q 200.753378 356.210585 202.494203 358.653848 
L 208.110175 366.535913 
Q 209.850999 368.979176 212.294261 367.238351 
z
" clip-path="url(#p358b91d19e)" style="fill: #ffffff; stroke: #ffffff; stroke-linejoin: miter"/>
    </g>
    <g clip-path="url(#p358b91d19e)">
     <!-- 20 -->
     <g transform="translate(209.346647 363.101348) rotate(-35.469872) scale(0.1 -0.1)">
      <use xlink:href="#DejaVuSans-32"/>
      <use xlink:href="#DejaVuSans-30" x="63.623047"/>
     </g>
    </g>
   </g>
   <g id="text_37">
    <g id="patch_39">
     <path d="M 369.479003 215.976048 
L 373.46608 211.01776 
Q 375.346038 208.679863 373.008142 206.799906 
L 365.465991 200.735083 
Q 363.128095 198.855126 361.248137 201.193022 
L 357.26106 206.15131 
Q 355.381102 208.489206 357.718998 210.369164 
L 365.261149 216.433986 
Q 367.599045 218.313944 369.479003 215.976048 
z
" clip-path="url(#p358b91d19e)" style="fill: #ffffff; stroke: #ffffff; stroke-linejoin: miter"/>
    </g>
    <g clip-path="url(#p358b91d19e)">
     <!-- 5 -->
     <g transform="translate(365.520409 212.792848) rotate(-51.196413) scale(0.1 -0.1)">
      <use xlink:href="#DejaVuSans-35"/>
     </g>
    </g>
   </g>
   <g id="text_38">
    <g id="patch_40">
     <path d="M 250.061869 386.553749 
L 255.648847 383.509562 
Q 258.283179 382.074189 256.847806 379.439857 
L 252.217233 370.941393 
Q 250.781859 368.307061 248.147528 369.742434 
L 242.560549 372.786621 
Q 239.926217 374.221994 241.36159 376.856326 
L 245.992164 385.35479 
Q 247.427537 387.989122 250.061869 386.553749 
z
" clip-path="url(#p358b91d19e)" style="fill: #ffffff; stroke: #ffffff; stroke-linejoin: miter"/>
    </g>
    <g clip-path="url(#p358b91d19e)">
     <!-- 8 -->
     <g transform="translate(247.631453 382.093221) rotate(-28.58472) scale(0.1 -0.1)">
      <use xlink:href="#DejaVuSans-38"/>
     </g>
    </g>
   </g>
   <g id="text_39">
    <g id="patch_41">
     <path d="M 399.942875 323.257847 
L 404.482189 318.799593 
Q 406.622534 316.697469 404.52041 314.557124 
L 397.73887 307.652284 
Q 395.636746 305.511939 393.496401 307.614063 
L 388.957087 312.072318 
Q 386.816743 314.174442 388.918867 316.314787 
L 395.700407 323.219627 
Q 397.802531 325.359971 399.942875 323.257847 
z
" clip-path="url(#p358b91d19e)" style="fill: #ffffff; stroke: #ffffff; stroke-linejoin: miter"/>
    </g>
    <g clip-path="url(#p358b91d19e)">
     <!-- 4 -->
     <g transform="translate(396.383497 319.633754) rotate(-44.483836) scale(0.1 -0.1)">
      <use xlink:href="#DejaVuSans-34"/>
     </g>
    </g>
   </g>
   <g id="text_40">
    <g id="patch_42">
     <path d="M 425.691948 246.440925 
L 426.481119 252.754293 
Q 426.853223 255.731127 429.830057 255.359023 
L 439.433446 254.158599 
Q 442.41028 253.786495 442.038175 250.809661 
L 441.249004 244.496293 
Q 440.8769 241.51946 437.900067 241.891564 
L 428.296677 243.091988 
Q 425.319844 243.464092 425.691948 246.440925 
z
" clip-path="url(#p358b91d19e)" style="fill: #ffffff; stroke: #ffffff; stroke-linejoin: miter"/>
    </g>
    <g clip-path="url(#p358b91d19e)">
     <!-- 1 -->
     <g transform="translate(430.732409 245.810868) rotate(-277.125016) scale(0.1 -0.1)">
      <use xlink:href="#DejaVuSans-31"/>
     </g>
    </g>
   </g>
   <g id="text_41">
    <g id="patch_43">
     <path d="M 408.193551 349.287729 
L 409.665044 343.097728 
Q 410.358872 340.179063 407.440208 339.485236 
L 398.024474 337.246918 
Q 395.10581 336.55309 394.411982 339.471754 
L 392.940488 345.661755 
Q 392.24666 348.58042 395.165325 349.274248 
L 404.581058 351.512566 
Q 407.499723 352.206394 408.193551 349.287729 
z
" clip-path="url(#p358b91d19e)" style="fill: #ffffff; stroke: #ffffff; stroke-linejoin: miter"/>
    </g>
    <g clip-path="url(#p358b91d19e)">
     <!-- 9 -->
     <g transform="translate(403.251583 348.112919) rotate(-76.627795) scale(0.1 -0.1)">
      <use xlink:href="#DejaVuSans-39"/>
     </g>
    </g>
   </g>
   <g id="text_42">
    <g id="patch_44">
     <path d="M 257.222938 416.687931 
L 268.531315 422.522847 
Q 271.197337 423.898465 272.572956 421.232443 
L 277.010759 412.631745 
Q 278.386377 409.965723 275.720355 408.590105 
L 264.411979 402.755189 
Q 261.745957 401.37957 260.370338 404.045592 
L 255.932535 412.64629 
Q 254.556916 415.312312 257.222938 416.687931 
z
" clip-path="url(#p358b91d19e)" style="fill: #ffffff; stroke: #ffffff; stroke-linejoin: miter"/>
    </g>
    <g clip-path="url(#p358b91d19e)">
     <!-- 14 -->
     <g transform="translate(259.552176 412.173745) rotate(-332.707092) scale(0.1 -0.1)">
      <use xlink:href="#DejaVuSans-31"/>
      <use xlink:href="#DejaVuSans-34" x="63.623047"/>
     </g>
    </g>
   </g>
   <g id="text_43">
    <g id="patch_45">
     <path d="M 255.448678 364.566111 
L 261.810479 364.471862 
Q 264.81015 364.427423 264.765711 361.427752 
L 264.622347 351.750689 
Q 264.577907 348.751018 261.578236 348.795457 
L 255.216434 348.889706 
Q 252.216764 348.934146 252.261203 351.933817 
L 252.404567 361.61088 
Q 252.449007 364.610551 255.448678 364.566111 
z
" clip-path="url(#p358b91d19e)" style="fill: #ffffff; stroke: #ffffff; stroke-linejoin: miter"/>
    </g>
    <g clip-path="url(#p358b91d19e)">
     <!-- 7 -->
     <g transform="translate(255.373431 359.486981) rotate(-0.848764) scale(0.1 -0.1)">
      <use xlink:href="#DejaVuSans-37"/>
     </g>
    </g>
   </g>
   <g id="text_44">
    <g id="patch_46">
     <path d="M 77.443421 477.246068 
L 87.266233 469.156693 
Q 89.582024 467.249571 87.674902 464.93378 
L 81.522448 457.462943 
Q 79.615326 455.147152 77.299535 457.054274 
L 67.476723 465.143649 
Q 65.160933 467.050771 67.068054 469.366561 
L 73.220509 476.837399 
Q 75.12763 479.153189 77.443421 477.246068 
z
" clip-path="url(#p358b91d19e)" style="fill: #ffffff; stroke: #ffffff; stroke-linejoin: miter"/>
    </g>
    <g clip-path="url(#p358b91d19e)">
     <!-- 12 -->
     <g transform="translate(74.214227 473.324903) rotate(-39.47246) scale(0.1 -0.1)">
      <use xlink:href="#DejaVuSans-31"/>
      <use xlink:href="#DejaVuSans-32" x="63.623047"/>
     </g>
    </g>
   </g>
   <g id="text_45">
    <g id="patch_47">
     <path d="M 75.925226 283.979424 
L 76.673561 296.682401 
Q 76.849985 299.677209 79.844793 299.500784 
L 89.506168 298.931631 
Q 92.500976 298.755207 92.324552 295.760399 
L 91.576217 283.057422 
Q 91.399793 280.062614 88.404985 280.239039 
L 78.74361 280.808192 
Q 75.748802 280.984616 75.925226 283.979424 
z
" clip-path="url(#p358b91d19e)" style="fill: #ffffff; stroke: #ffffff; stroke-linejoin: miter"/>
    </g>
    <g clip-path="url(#p358b91d19e)">
     <!-- 20 -->
     <g transform="translate(80.996122 283.680697) rotate(-273.371407) scale(0.1 -0.1)">
      <use xlink:href="#DejaVuSans-32"/>
      <use xlink:href="#DejaVuSans-30" x="63.623047"/>
     </g>
    </g>
   </g>
   <g id="text_46">
    <g id="patch_48">
     <path d="M 313.284678 330.830539 
L 323.207086 338.797435 
Q 325.546357 340.675682 327.424603 338.336411 
L 333.483906 330.789825 
Q 335.362153 328.450554 333.022882 326.572308 
L 323.100474 318.605411 
Q 320.761203 316.727164 318.882956 319.066435 
L 312.823653 326.613021 
Q 310.945407 328.952292 313.284678 330.830539 
z
" clip-path="url(#p358b91d19e)" style="fill: #ffffff; stroke: #ffffff; stroke-linejoin: miter"/>
    </g>
    <g clip-path="url(#p358b91d19e)">
     <!-- 13 -->
     <g transform="translate(316.46498 326.869617) rotate(-321.238333) scale(0.1 -0.1)">
      <use xlink:href="#DejaVuSans-31"/>
      <use xlink:href="#DejaVuSans-33" x="63.623047"/>
     </g>
    </g>
   </g>
   <g id="text_47">
    <g id="patch_49">
     <path d="M 331.473848 356.000764 
L 335.907147 360.564454 
Q 337.997504 362.716292 340.149342 360.625935 
L 347.091262 353.882356 
Q 349.2431 351.791999 347.152743 349.640161 
L 342.719444 345.076471 
Q 340.629087 342.924633 338.477249 345.01499 
L 331.535329 351.758569 
Q 329.383491 353.848926 331.473848 356.000764 
z
" clip-path="url(#p358b91d19e)" style="fill: #ffffff; stroke: #ffffff; stroke-linejoin: miter"/>
    </g>
    <g clip-path="url(#p358b91d19e)">
     <!-- 6 -->
     <g transform="translate(335.117403 352.461311) rotate(-314.169685) scale(0.1 -0.1)">
      <use xlink:href="#DejaVuSans-36"/>
     </g>
    </g>
   </g>
   <g id="matplotlib.axis_1">
    <g id="xtick_1">
     <g id="line2d_1">
      <path d="M 10.8 493.2 
L 10.8 10.8 
" clip-path="url(#p358b91d19e)" style="fill: none; stroke: #b0b0b0; stroke-opacity: 0.3; stroke-width: 0.8; stroke-linecap: square"/>
     </g>
    </g>
    <g id="xtick_2">
     <g id="line2d_2">
      <path d="M 59.04 493.2 
L 59.04 10.8 
" clip-path="url(#p358b91d19e)" style="fill: none; stroke: #b0b0b0; stroke-opacity: 0.3; stroke-width: 0.8; stroke-linecap: square"/>
     </g>
    </g>
    <g id="xtick_3">
     <g id="line2d_3">
      <path d="M 107.28 493.2 
L 107.28 10.8 
" clip-path="url(#p358b91d19e)" style="fill: none; stroke: #b0b0b0; stroke-opacity: 0.3; stroke-width: 0.8; stroke-linecap: square"/>
     </g>
    </g>
    <g id="xtick_4">
     <g id="line2d_4">
      <path d="M 155.52 493.2 
L 155.52 10.8 
" clip-path="url(#p358b91d19e)" style="fill: none; stroke: #b0b0b0; stroke-opacity: 0.3; stroke-width: 0.8; stroke-linecap: square"/>
     </g>
    </g>
    <g id="xtick_5">
     <g id="line2d_5">
      <path d="M 203.76 493.2 
L 203.76 10.8 
" clip-path="url(#p358b91d19e)" style="fill: none; stroke: #b0b0b0; stroke-opacity: 0.3; stroke-width: 0.8; stroke-linecap: square"/>
     </g>
    </g>
    <g id="xtick_6">
     <g id="line2d_6">
      <path d="M 252 493.2 
L 252 10.8 
" clip-path="url(#p358b91d19e)" style="fill: none; stroke: #b0b0b0; stroke-opacity: 0.3; stroke-width: 0.8; stroke-linecap: square"/>
     </g>
    </g>
    <g id="xtick_7">
     <g id="line2d_7">
      <path d="M 300.24 493.2 
L 300.24 10.8 
" clip-path="url(#p358b91d19e)" style="fill: none; stroke: #b0b0b0; stroke-opacity: 0.3; stroke-width: 0.8; stroke-linecap: square"/>
     </g>
    </g>
    <g id="xtick_8">
     <g id="line2d_8">
      <path d="M 348.48 493.2 
L 348.48 10.8 
" clip-path="url(#p358b91d19e)" style="fill: none; stroke: #b0b0b0; stroke-opacity: 0.3; stroke-width: 0.8; stroke-linecap: square"/>
     </g>
    </g>
    <g id="xtick_9">
     <g id="line2d_9">
      <path d="M 396.72 493.2 
L 396.72 10.8 
" clip-path="url(#p358b91d19e)" style="fill: none; stroke: #b0b0b0; stroke-opacity: 0.3; stroke-width: 0.8; stroke-linecap: square"/>
     </g>
    </g>
    <g id="xtick_10">
     <g id="line2d_10">
      <path d="M 444.96 493.2 
L 444.96 10.8 
" clip-path="url(#p358b91d19e)" style="fill: none; stroke: #b0b0b0; stroke-opacity: 0.3; stroke-width: 0.8; stroke-linecap: square"/>
     </g>
    </g>
    <g id="xtick_11">
     <g id="line2d_11">
      <path d="M 493.2 493.2 
L 493.2 10.8 
" clip-path="url(#p358b91d19e)" style="fill: none; stroke: #b0b0b0; stroke-opacity: 0.3; stroke-width: 0.8; stroke-linecap: square"/>
     </g>
    </g>
   </g>
   <g id="matplotlib.axis_2">
    <g id="ytick_1">
     <g id="line2d_12">
      <path d="M 10.8 493.2 
L 493.2 493.2 
" clip-path="url(#p358b91d19e)" style="fill: none; stroke: #b0b0b0; stroke-opacity: 0.3; stroke-width: 0.8; stroke-linecap: square"/>
     </g>
    </g>
    <g id="ytick_2">
     <g id="line2d_13">
      <path d="M 10.8 444.96 
L 493.2 444.96 
" clip-path="url(#p358b91d19e)" style="fill: none; stroke: #b0b0b0; stroke-opacity: 0.3; stroke-width: 0.8; stroke-linecap: square"/>
     </g>
    </g>
    <g id="ytick_3">
     <g id="line2d_14">
      <path d="M 10.8 396.72 
L 493.2 396.72 
" clip-path="url(#p358b91d19e)" style="fill: none; stroke: #b0b0b0; stroke-opacity: 0.3; stroke-width: 0.8; stroke-linecap: square"/>
     </g>
    </g>
    <g id="ytick_4">
     <g id="line2d_15">
      <path d="M 10.8 348.48 
L 493.2 348.48 
" clip-path="url(#p358b91d19e)" style="fill: none; stroke: #b0b0b0; stroke-opacity: 0.3; stroke-width: 0.8; stroke-linecap: square"/>
     </g>
    </g>
    <g id="ytick_5">
     <g id="line2d_16">
      <path d="M 10.8 300.24 
L 493.2 300.24 
" clip-path="url(#p358b91d19e)" style="fill: none; stroke: #b0b0b0; stroke-opacity: 0.3; stroke-width: 0.8; stroke-linecap: square"/>
     </g>
    </g>
    <g id="ytick_6">
     <g id="line2d_17">
      <path d="M 10.8 252 
L 493.2 252 
" clip-path="url(#p358b91d19e)" style="fill: none; stroke: #b0b0b0; stroke-opacity: 0.3; stroke-width: 0.8; stroke-linecap: square"/>
     </g>
    </g>
    <g id="ytick_7">
     <g id="line2d_18">
      <path d="M 10.8 203.76 
L 493.2 203.76 
" clip-path="url(#p358b91d19e)" style="fill: none; stroke: #b0b0b0; stroke-opacity: 0.3; stroke-width: 0.8; stroke-linecap: square"/>
     </g>
    </g>
    <g id="ytick_8">
     <g id="line2d_19">
      <path d="M 10.8 155.52 
L 493.2 155.52 
" clip-path="url(#p358b91d19e)" style="fill: none; stroke: #b0b0b0; stroke-opacity: 0.3; stroke-width: 0.8; stroke-linecap: square"/>
     </g>
    </g>
    <g id="ytick_9">
     <g id="line2d_20">
      <path d="M 10.8 107.28 
L 493.2 107.28 
" clip-path="url(#p358b91d19e)" style="fill: none; stroke: #b0b0b0; stroke-opacity: 0.3; stroke-width: 0.8; stroke-linecap: square"/>
     </g>
    </g>
    <g id="ytick_10">
     <g id="line2d_21">
      <path d="M 10.8 59.04 
L 493.2 59.04 
" clip-path="url(#p358b91d19e)" style="fill: none; stroke: #b0b0b0; stroke-opacity: 0.3; stroke-width: 0.8; stroke-linecap: square"/>
     </g>
    </g>
    <g id="ytick_11">
     <g id="line2d_22">
      <path d="M 10.8 10.8 
L 493.2 10.8 
" clip-path="url(#p358b91d19e)" style="fill: none; stroke: #b0b0b0; stroke-opacity: 0.3; stroke-width: 0.8; stroke-linecap: square"/>
     </g>
    </g>
   </g>
   <g id="PathCollection_1">
    <defs>
     <path id="m484f13c846" d="M 0 8.660254 
C 2.296726 8.660254 4.499694 7.747755 6.123724 6.123724 
C 7.747755 4.499694 8.660254 2.296726 8.660254 0 
C 8.660254 -2.296726 7.747755 -4.499694 6.123724 -6.123724 
C 4.499694 -7.747755 2.296726 -8.660254 0 -8.660254 
C -2.296726 -8.660254 -4.499694 -7.747755 -6.123724 -6.123724 
C -7.747755 -4.499694 -8.660254 -2.296726 -8.660254 0 
C -8.660254 2.296726 -7.747755 4.499694 -6.123724 6.123724 
C -4.499694 7.747755 -2.296726 8.660254 0 8.660254 
z
" style="stroke: #1f78b4"/>
    </defs>
    <g clip-path="url(#p358b91d19e)">
     <use xlink:href="#m484f13c846" x="408.78" y="264.5424" style="fill: #1f78b4; stroke: #1f78b4"/>
     <use xlink:href="#m484f13c846" x="481.14" y="200.3832" style="fill: #1f78b4; stroke: #1f78b4"/>
     <use xlink:href="#m484f13c846" x="409.2624" y="102.9384" style="fill: #1f78b4; stroke: #1f78b4"/>
     <use xlink:href="#m484f13c846" x="188.8056" y="135.2592" style="fill: #1f78b4; stroke: #1f78b4"/>
     <use xlink:href="#m484f13c846" x="353.304" y="313.2648" style="fill: #1f78b4; stroke: #1f78b4"/>
     <use xlink:href="#m484f13c846" x="439.6536" y="320.9832" style="fill: #1f78b4; stroke: #1f78b4"/>
     <use xlink:href="#m484f13c846" x="16.5888" y="487.4112" style="fill: #1f78b4; stroke: #1f78b4"/>
     <use xlink:href="#m484f13c846" x="379.836" y="24.3072" style="fill: #1f78b4; stroke: #1f78b4"/>
     <use xlink:href="#m484f13c846" x="116.928" y="226.4328" style="fill: #1f78b4; stroke: #1f78b4"/>
     <use xlink:href="#m484f13c846" x="13.6944" y="200.3832" style="fill: #1f78b4; stroke: #1f78b4"/>
     <use xlink:href="#m484f13c846" x="193.6296" y="241.8696" style="fill: #1f78b4; stroke: #1f78b4"/>
     <use xlink:href="#m484f13c846" x="431.4528" y="277.5672" style="fill: #1f78b4; stroke: #1f78b4"/>
     <use xlink:href="#m484f13c846" x="161.3088" y="297.3456" style="fill: #1f78b4; stroke: #1f78b4"/>
     <use xlink:href="#m484f13c846" x="283.8384" y="309.4056" style="fill: #1f78b4; stroke: #1f78b4"/>
     <use xlink:href="#m484f13c846" x="135.7416" y="412.1568" style="fill: #1f78b4; stroke: #1f78b4"/>
     <use xlink:href="#m484f13c846" x="440.6184" y="114.9984" style="fill: #1f78b4; stroke: #1f78b4"/>
     <use xlink:href="#m484f13c846" x="437.2416" y="275.6376" style="fill: #1f78b4; stroke: #1f78b4"/>
     <use xlink:href="#m484f13c846" x="372.1176" y="467.1504" style="fill: #1f78b4; stroke: #1f78b4"/>
     <use xlink:href="#m484f13c846" x="160.8264" y="358.128" style="fill: #1f78b4; stroke: #1f78b4"/>
     <use xlink:href="#m484f13c846" x="93.7728" y="453.6432" style="fill: #1f78b4; stroke: #1f78b4"/>
     <use xlink:href="#m484f13c846" x="325.8072" y="435.312" style="fill: #1f78b4; stroke: #1f78b4"/>
     <use xlink:href="#m484f13c846" x="356.1984" y="355.2336" style="fill: #1f78b4; stroke: #1f78b4"/>
     <use xlink:href="#m484f13c846" x="430.488" y="221.6088" style="fill: #1f78b4; stroke: #1f78b4"/>
     <use xlink:href="#m484f13c846" x="185.9112" y="11.7648" style="fill: #1f78b4; stroke: #1f78b4"/>
     <use xlink:href="#m484f13c846" x="74.4768" y="126.0936" style="fill: #1f78b4; stroke: #1f78b4"/>
     <use xlink:href="#m484f13c846" x="290.1096" y="302.1696" style="fill: #1f78b4; stroke: #1f78b4"/>
     <use xlink:href="#m484f13c846" x="388.5192" y="403.4736" style="fill: #1f78b4; stroke: #1f78b4"/>
     <use xlink:href="#m484f13c846" x="60.9696" y="480.6576" style="fill: #1f78b4; stroke: #1f78b4"/>
    </g>
   </g>
   <g id="patch_50">
    <path d="M 10.8 493.2 
L 10.8 10.8 
" style="fill: none; stroke: #000000; stroke-width: 0.8; stroke-linejoin: miter; stroke-linecap: square"/>
   </g>
   <g id="patch_51">
    <path d="M 493.2 493.2 
L 493.2 10.8 
" style="fill: none; stroke: #000000; stroke-width: 0.8; stroke-linejoin: miter; stroke-linecap: square"/>
   </g>
   <g id="patch_52">
    <path d="M 10.8 493.2 
L 493.2 493.2 
" style="fill: none; stroke: #000000; stroke-width: 0.8; stroke-linejoin: miter; stroke-linecap: square"/>
   </g>
   <g id="patch_53">
    <path d="M 10.8 10.8 
L 493.2 10.8 
" style="fill: none; stroke: #000000; stroke-width: 0.8; stroke-linejoin: miter; stroke-linecap: square"/>
   </g>
   <g id="text_48">
    <g clip-path="url(#p358b91d19e)">
     <!-- 0 -->
     <g transform="translate(404.9625 267.85365) scale(0.12 -0.12)">
      <use xlink:href="#DejaVuSans-30"/>
     </g>
    </g>
   </g>
   <g id="text_49">
    <g clip-path="url(#p358b91d19e)">
     <!-- 1 -->
     <g transform="translate(477.3225 203.69445) scale(0.12 -0.12)">
      <use xlink:href="#DejaVuSans-31"/>
     </g>
    </g>
   </g>
   <g id="text_50">
    <g clip-path="url(#p358b91d19e)">
     <!-- 2 -->
     <g transform="translate(405.4449 106.24965) scale(0.12 -0.12)">
      <use xlink:href="#DejaVuSans-32"/>
     </g>
    </g>
   </g>
   <g id="text_51">
    <g clip-path="url(#p358b91d19e)">
     <!-- 3 -->
     <g transform="translate(184.9881 138.57045) scale(0.12 -0.12)">
      <use xlink:href="#DejaVuSans-33"/>
     </g>
    </g>
   </g>
   <g id="text_52">
    <g clip-path="url(#p358b91d19e)">
     <!-- 4 -->
     <g transform="translate(349.4865 316.57605) scale(0.12 -0.12)">
      <use xlink:href="#DejaVuSans-34"/>
     </g>
    </g>
   </g>
   <g id="text_53">
    <g clip-path="url(#p358b91d19e)">
     <!-- 5 -->
     <g transform="translate(435.8361 324.29445) scale(0.12 -0.12)">
      <use xlink:href="#DejaVuSans-35"/>
     </g>
    </g>
   </g>
   <g id="text_54">
    <g clip-path="url(#p358b91d19e)">
     <!-- 6 -->
     <g transform="translate(12.7713 490.72245) scale(0.12 -0.12)">
      <use xlink:href="#DejaVuSans-36"/>
     </g>
    </g>
   </g>
   <g id="text_55">
    <g clip-path="url(#p358b91d19e)">
     <!-- 7 -->
     <g transform="translate(376.0185 27.61845) scale(0.12 -0.12)">
      <use xlink:href="#DejaVuSans-37"/>
     </g>
    </g>
   </g>
   <g id="text_56">
    <g clip-path="url(#p358b91d19e)">
     <!-- 8 -->
     <g transform="translate(113.1105 229.74405) scale(0.12 -0.12)">
      <use xlink:href="#DejaVuSans-38"/>
     </g>
    </g>
   </g>
   <g id="text_57">
    <g clip-path="url(#p358b91d19e)">
     <!-- 9 -->
     <g transform="translate(9.8769 203.69445) scale(0.12 -0.12)">
      <use xlink:href="#DejaVuSans-39"/>
     </g>
    </g>
   </g>
   <g id="text_58">
    <g clip-path="url(#p358b91d19e)">
     <!-- 10 -->
     <g transform="translate(185.9946 245.18085) scale(0.12 -0.12)">
      <use xlink:href="#DejaVuSans-31"/>
      <use xlink:href="#DejaVuSans-30" x="63.623047"/>
     </g>
    </g>
   </g>
   <g id="text_59">
    <g clip-path="url(#p358b91d19e)">
     <!-- 11 -->
     <g transform="translate(423.8178 280.87845) scale(0.12 -0.12)">
      <use xlink:href="#DejaVuSans-31"/>
      <use xlink:href="#DejaVuSans-31" x="63.623047"/>
     </g>
    </g>
   </g>
   <g id="text_60">
    <g clip-path="url(#p358b91d19e)">
     <!-- 12 -->
     <g transform="translate(153.6738 300.65685) scale(0.12 -0.12)">
      <use xlink:href="#DejaVuSans-31"/>
      <use xlink:href="#DejaVuSans-32" x="63.623047"/>
     </g>
    </g>
   </g>
   <g id="text_61">
    <g clip-path="url(#p358b91d19e)">
     <!-- 13 -->
     <g transform="translate(276.2034 312.71685) scale(0.12 -0.12)">
      <use xlink:href="#DejaVuSans-31"/>
      <use xlink:href="#DejaVuSans-33" x="63.623047"/>
     </g>
    </g>
   </g>
   <g id="text_62">
    <g clip-path="url(#p358b91d19e)">
     <!-- 14 -->
     <g transform="translate(128.1066 415.46805) scale(0.12 -0.12)">
      <use xlink:href="#DejaVuSans-31"/>
      <use xlink:href="#DejaVuSans-34" x="63.623047"/>
     </g>
    </g>
   </g>
   <g id="text_63">
    <g clip-path="url(#p358b91d19e)">
     <!-- 15 -->
     <g transform="translate(432.9834 118.30965) scale(0.12 -0.12)">
      <use xlink:href="#DejaVuSans-31"/>
      <use xlink:href="#DejaVuSans-35" x="63.623047"/>
     </g>
    </g>
   </g>
   <g id="text_64">
    <g clip-path="url(#p358b91d19e)">
     <!-- 16 -->
     <g transform="translate(429.6066 278.94885) scale(0.12 -0.12)">
      <use xlink:href="#DejaVuSans-31"/>
      <use xlink:href="#DejaVuSans-36" x="63.623047"/>
     </g>
    </g>
   </g>
   <g id="text_65">
    <g clip-path="url(#p358b91d19e)">
     <!-- 17 -->
     <g transform="translate(364.4826 470.46165) scale(0.12 -0.12)">
      <use xlink:href="#DejaVuSans-31"/>
      <use xlink:href="#DejaVuSans-37" x="63.623047"/>
     </g>
    </g>
   </g>
   <g id="text_66">
    <g clip-path="url(#p358b91d19e)">
     <!-- 18 -->
     <g transform="translate(153.1914 361.43925) scale(0.12 -0.12)">
      <use xlink:href="#DejaVuSans-31"/>
      <use xlink:href="#DejaVuSans-38" x="63.623047"/>
     </g>
    </g>
   </g>
   <g id="text_67">
    <g clip-path="url(#p358b91d19e)">
     <!-- 19 -->
     <g transform="translate(86.1378 456.95445) scale(0.12 -0.12)">
      <use xlink:href="#DejaVuSans-31"/>
      <use xlink:href="#DejaVuSans-39" x="63.623047"/>
     </g>
    </g>
   </g>
   <g id="text_68">
    <g clip-path="url(#p358b91d19e)">
     <!-- 20 -->
     <g transform="translate(318.1722 438.62325) scale(0.12 -0.12)">
      <use xlink:href="#DejaVuSans-32"/>
      <use xlink:href="#DejaVuSans-30" x="63.623047"/>
     </g>
    </g>
   </g>
   <g id="text_69">
    <g clip-path="url(#p358b91d19e)">
     <!-- 21 -->
     <g transform="translate(348.5634 358.54485) scale(0.12 -0.12)">
      <use xlink:href="#DejaVuSans-32"/>
      <use xlink:href="#DejaVuSans-31" x="63.623047"/>
     </g>
    </g>
   </g>
   <g id="text_70">
    <g clip-path="url(#p358b91d19e)">
     <!-- 22 -->
     <g transform="translate(422.853 224.92005) scale(0.12 -0.12)">
      <use xlink:href="#DejaVuSans-32"/>
      <use xlink:href="#DejaVuSans-32" x="63.623047"/>
     </g>
    </g>
   </g>
   <g id="text_71">
    <g clip-path="url(#p358b91d19e)">
     <!-- 23 -->
     <g transform="translate(178.2762 15.07605) scale(0.12 -0.12)">
      <use xlink:href="#DejaVuSans-32"/>
      <use xlink:href="#DejaVuSans-33" x="63.623047"/>
     </g>
    </g>
   </g>
   <g id="text_72">
    <g clip-path="url(#p358b91d19e)">
     <!-- 24 -->
     <g transform="translate(66.8418 129.40485) scale(0.12 -0.12)">
      <use xlink:href="#DejaVuSans-32"/>
      <use xlink:href="#DejaVuSans-34" x="63.623047"/>
     </g>
    </g>
   </g>
   <g id="text_73">
    <g clip-path="url(#p358b91d19e)">
     <!-- 25 -->
     <g transform="translate(282.4746 305.48085) scale(0.12 -0.12)">
      <use xlink:href="#DejaVuSans-32"/>
      <use xlink:href="#DejaVuSans-35" x="63.623047"/>
     </g>
    </g>
   </g>
   <g id="text_74">
    <g clip-path="url(#p358b91d19e)">
     <!-- 26 -->
     <g transform="translate(380.8842 406.78485) scale(0.12 -0.12)">
      <use xlink:href="#DejaVuSans-32"/>
      <use xlink:href="#DejaVuSans-36" x="63.623047"/>
     </g>
    </g>
   </g>
   <g id="text_75">
    <g clip-path="url(#p358b91d19e)">
     <!-- 27 -->
     <g transform="translate(53.3346 483.96885) scale(0.12 -0.12)">
      <use xlink:href="#DejaVuSans-32"/>
      <use xlink:href="#DejaVuSans-37" x="63.623047"/>
     </g>
    </g>
   </g>
  </g>
 </g>
 <defs>
  <clipPath id="p358b91d19e">
   <rect x="10.8" y="10.8" width="482.4" height="482.4"/>
  </clipPath>
 </defs>
</svg>
