<?xml version="1.0" encoding="utf-8" standalone="no"?>
<!DOCTYPE svg PUBLIC "-//W3C//DTD SVG 1.1//EN"
  "http://www.w3.org/Graphics/SVG/1.1/DTD/svg11.dtd">
<svg xmlns:xlink="http://www.w3.org/1999/xlink" width="504pt" height="504pt" viewBox="0 0 504 504" xmlns="http://www.w3.org/2000/svg" version="1.1">
 <metadata>
  <rdf:RDF xmlns:dc="http://purl.org/dc/elements/1.1/" xmlns:cc="http://creativecommons.org/ns#" xmlns:rdf="http://www.w3.org/1999/02/22-rdf-syntax-ns#">
   <cc:Work>
    <dc:type rdf:resource="http://purl.org/dc/dcmitype/StillImage"/>
    <dc:date>2024-10-29T14:59:50.252682</dc:date>
    <dc:format>image/svg+xml</dc:format>
    <dc:creator>
     <cc:Agent>
      <dc:title>Matplotlib v3.9.2, https://matplotlib.org/</dc:title>
     </cc:Agent>
    </dc:creator>
   </cc:Work>
  </rdf:RDF>
 </metadata>
 <defs>
  <style type="text/css">*{stroke-linejoin: round; stroke-linecap: butt}</style>
 </defs>
 <g id="figure_1">
  <g id="patch_1">
   <path d="M 0 504 
L 504 504 
L 504 0 
L 0 0 
L 0 504 
z
" style="fill: none; opacity: 0"/>
  </g>
  <g id="axes_1">
   <g id="patch_2">
    <path d="M 10.8 493.2 
L 493.2 493.2 
L 493.2 10.8 
L 10.8 10.8 
L 10.8 493.2 
z
" style="fill: none; opacity: 0"/>
   </g>
   <g id="LineCollection_1">
    <path d="M 16.5888 487.4112 
L 290.1096 302.1696 
" clip-path="url(#p82c832a0a9)" style="fill: none; stroke: #000000"/>
    <path d="M 16.5888 487.4112 
L 388.5192 403.4736 
" clip-path="url(#p82c832a0a9)" style="fill: none; stroke: #000000"/>
    <path d="M 16.5888 487.4112 
L 74.4768 126.0936 
" clip-path="url(#p82c832a0a9)" style="fill: none; stroke: #000000"/>
    <path d="M 16.5888 487.4112 
L 372.1176 467.1504 
" clip-path="url(#p82c832a0a9)" style="fill: none; stroke: #000000"/>
    <path d="M 16.5888 487.4112 
L 431.9352 168.0624 
" clip-path="url(#p82c832a0a9)" style="fill: none; stroke: #000000"/>
    <path d="M 379.836 24.3072 
L 372.1176 467.1504 
" clip-path="url(#p82c832a0a9)" style="fill: none; stroke: #000000"/>
    <path d="M 379.836 24.3072 
L 474.8688 412.6392 
" clip-path="url(#p82c832a0a9)" style="fill: none; stroke: #000000"/>
    <path d="M 379.836 24.3072 
L 431.9352 168.0624 
" clip-path="url(#p82c832a0a9)" style="fill: none; stroke: #000000"/>
    <path d="M 116.928 226.4328 
L 388.5192 403.4736 
" clip-path="url(#p82c832a0a9)" style="fill: none; stroke: #000000"/>
    <path d="M 116.928 226.4328 
L 160.8264 358.128 
" clip-path="url(#p82c832a0a9)" style="fill: none; stroke: #000000"/>
    <path d="M 116.928 226.4328 
L 440.6184 114.9984 
" clip-path="url(#p82c832a0a9)" style="fill: none; stroke: #000000"/>
    <path d="M 13.6944 200.3832 
L 440.6184 114.9984 
" clip-path="url(#p82c832a0a9)" style="fill: none; stroke: #000000"/>
    <path d="M 13.6944 200.3832 
L 93.7728 453.6432 
" clip-path="url(#p82c832a0a9)" style="fill: none; stroke: #000000"/>
    <path d="M 13.6944 200.3832 
L 454.608 82.6776 
" clip-path="url(#p82c832a0a9)" style="fill: none; stroke: #000000"/>
    <path d="M 193.6296 241.8696 
L 350.4096 328.2192 
" clip-path="url(#p82c832a0a9)" style="fill: none; stroke: #000000"/>
    <path d="M 193.6296 241.8696 
L 431.9352 168.0624 
" clip-path="url(#p82c832a0a9)" style="fill: none; stroke: #000000"/>
    <path d="M 431.4528 277.5672 
L 454.608 82.6776 
" clip-path="url(#p82c832a0a9)" style="fill: none; stroke: #000000"/>
    <path d="M 431.4528 277.5672 
L 350.4096 328.2192 
" clip-path="url(#p82c832a0a9)" style="fill: none; stroke: #000000"/>
    <path d="M 431.4528 277.5672 
L 185.9112 11.7648 
" clip-path="url(#p82c832a0a9)" style="fill: none; stroke: #000000"/>
    <path d="M 431.4528 277.5672 
L 208.584 325.3248 
" clip-path="url(#p82c832a0a9)" style="fill: none; stroke: #000000"/>
    <path d="M 161.3088 297.3456 
L 454.608 82.6776 
" clip-path="url(#p82c832a0a9)" style="fill: none; stroke: #000000"/>
    <path d="M 161.3088 297.3456 
L 440.6184 114.9984 
" clip-path="url(#p82c832a0a9)" style="fill: none; stroke: #000000"/>
    <path d="M 161.3088 297.3456 
L 437.2416 275.6376 
" clip-path="url(#p82c832a0a9)" style="fill: none; stroke: #000000"/>
    <path d="M 161.3088 297.3456 
L 185.9112 11.7648 
" clip-path="url(#p82c832a0a9)" style="fill: none; stroke: #000000"/>
    <path d="M 161.3088 297.3456 
L 93.7728 453.6432 
" clip-path="url(#p82c832a0a9)" style="fill: none; stroke: #000000"/>
    <path d="M 161.3088 297.3456 
L 388.5192 403.4736 
" clip-path="url(#p82c832a0a9)" style="fill: none; stroke: #000000"/>
    <path d="M 283.8384 309.4056 
L 431.9352 168.0624 
" clip-path="url(#p82c832a0a9)" style="fill: none; stroke: #000000"/>
    <path d="M 135.7416 412.1568 
L 185.9112 11.7648 
" clip-path="url(#p82c832a0a9)" style="fill: none; stroke: #000000"/>
    <path d="M 440.6184 114.9984 
L 388.5192 403.4736 
" clip-path="url(#p82c832a0a9)" style="fill: none; stroke: #000000"/>
    <path d="M 440.6184 114.9984 
L 430.488 221.6088 
" clip-path="url(#p82c832a0a9)" style="fill: none; stroke: #000000"/>
    <path d="M 372.1176 467.1504 
L 474.8688 412.6392 
" clip-path="url(#p82c832a0a9)" style="fill: none; stroke: #000000"/>
    <path d="M 372.1176 467.1504 
L 160.8264 358.128 
" clip-path="url(#p82c832a0a9)" style="fill: none; stroke: #000000"/>
    <path d="M 160.8264 358.128 
L 474.8688 412.6392 
" clip-path="url(#p82c832a0a9)" style="fill: none; stroke: #000000"/>
    <path d="M 160.8264 358.128 
L 454.608 82.6776 
" clip-path="url(#p82c832a0a9)" style="fill: none; stroke: #000000"/>
    <path d="M 160.8264 358.128 
L 74.4768 126.0936 
" clip-path="url(#p82c832a0a9)" style="fill: none; stroke: #000000"/>
    <path d="M 93.7728 453.6432 
L 474.8688 412.6392 
" clip-path="url(#p82c832a0a9)" style="fill: none; stroke: #000000"/>
    <path d="M 325.8072 435.312 
L 223.5384 269.8488 
" clip-path="url(#p82c832a0a9)" style="fill: none; stroke: #000000"/>
    <path d="M 325.8072 435.312 
L 431.9352 168.0624 
" clip-path="url(#p82c832a0a9)" style="fill: none; stroke: #000000"/>
    <path d="M 325.8072 435.312 
L 454.608 82.6776 
" clip-path="url(#p82c832a0a9)" style="fill: none; stroke: #000000"/>
    <path d="M 356.1984 355.2336 
L 474.8688 412.6392 
" clip-path="url(#p82c832a0a9)" style="fill: none; stroke: #000000"/>
    <path d="M 356.1984 355.2336 
L 454.608 82.6776 
" clip-path="url(#p82c832a0a9)" style="fill: none; stroke: #000000"/>
    <path d="M 430.488 221.6088 
L 185.9112 11.7648 
" clip-path="url(#p82c832a0a9)" style="fill: none; stroke: #000000"/>
    <path d="M 430.488 221.6088 
L 223.5384 269.8488 
" clip-path="url(#p82c832a0a9)" style="fill: none; stroke: #000000"/>
    <path d="M 185.9112 11.7648 
L 93.2904 74.4768 
" clip-path="url(#p82c832a0a9)" style="fill: none; stroke: #000000"/>
    <path d="M 74.4768 126.0936 
L 60.9696 480.6576 
" clip-path="url(#p82c832a0a9)" style="fill: none; stroke: #000000"/>
    <path d="M 290.1096 302.1696 
L 431.9352 168.0624 
" clip-path="url(#p82c832a0a9)" style="fill: none; stroke: #000000"/>
    <path d="M 290.1096 302.1696 
L 93.2904 74.4768 
" clip-path="url(#p82c832a0a9)" style="fill: none; stroke: #000000"/>
    <path d="M 60.9696 480.6576 
L 454.608 82.6776 
" clip-path="url(#p82c832a0a9)" style="fill: none; stroke: #000000"/>
    <path d="M 93.2904 74.4768 
L 474.8688 412.6392 
" clip-path="url(#p82c832a0a9)" style="fill: none; stroke: #000000"/>
    <path d="M 223.5384 269.8488 
L 474.8688 412.6392 
" clip-path="url(#p82c832a0a9)" style="fill: none; stroke: #000000"/>
   </g>
   <g id="text_1">
    <g id="patch_3">
     <path d="M 155.110485 403.065218 
L 160.378535 399.497438 
Q 162.862488 397.815185 161.180234 395.331232 
L 155.753213 387.317896 
Q 154.070959 384.833943 151.587006 386.516197 
L 146.318956 390.083977 
Q 143.835003 391.766231 145.517257 394.250184 
L 150.944278 402.263519 
Q 152.626532 404.747472 155.110485 403.065218 
z
" clip-path="url(#p82c832a0a9)" style="fill: #ffffff; stroke: #ffffff; stroke-linejoin: miter"/>
    </g>
    <g clip-path="url(#p82c832a0a9)">
     <!-- 9 -->
     <g transform="translate(152.262044 398.859317) rotate(-34.107769) scale(0.1 -0.1)">
      <defs>
       <path id="DejaVuSans-39" d="M 703 97 
L 703 672 
Q 941 559 1184 500 
Q 1428 441 1663 441 
Q 2288 441 2617 861 
Q 2947 1281 2994 2138 
Q 2813 1869 2534 1725 
Q 2256 1581 1919 1581 
Q 1219 1581 811 2004 
Q 403 2428 403 3163 
Q 403 3881 828 4315 
Q 1253 4750 1959 4750 
Q 2769 4750 3195 4129 
Q 3622 3509 3622 2328 
Q 3622 1225 3098 567 
Q 2575 -91 1691 -91 
Q 1453 -91 1209 -44 
Q 966 3 703 97 
z
M 1959 2075 
Q 2384 2075 2632 2365 
Q 2881 2656 2881 3163 
Q 2881 3666 2632 3958 
Q 2384 4250 1959 4250 
Q 1534 4250 1286 3958 
Q 1038 3666 1038 3163 
Q 1038 2656 1286 2365 
Q 1534 2075 1959 2075 
z
" transform="scale(0.015625)"/>
      </defs>
      <use xlink:href="#DejaVuSans-39"/>
     </g>
    </g>
   </g>
   <g id="text_2">
    <g id="patch_4">
     <path d="M 198.072188 454.490072 
L 210.485009 451.688735 
Q 213.411411 451.028302 212.750978 448.1019 
L 210.620393 438.661205 
Q 209.95996 435.734804 207.033558 436.395237 
L 194.620737 439.196574 
Q 191.694335 439.857007 192.354768 442.783409 
L 194.485353 452.224103 
Q 195.145786 455.150505 198.072188 454.490072 
z
" clip-path="url(#p82c832a0a9)" style="fill: #ffffff; stroke: #ffffff; stroke-linejoin: miter"/>
    </g>
    <g clip-path="url(#p82c832a0a9)">
     <!-- 19 -->
     <g transform="translate(196.953923 449.535003) rotate(-12.717513) scale(0.1 -0.1)">
      <defs>
       <path id="DejaVuSans-31" d="M 794 531 
L 1825 531 
L 1825 4091 
L 703 3866 
L 703 4441 
L 1819 4666 
L 2450 4666 
L 2450 531 
L 3481 531 
L 3481 0 
L 794 0 
L 794 531 
z
" transform="scale(0.015625)"/>
      </defs>
      <use xlink:href="#DejaVuSans-31"/>
      <use xlink:href="#DejaVuSans-39" x="63.623047"/>
     </g>
    </g>
   </g>
   <g id="text_3">
    <g id="patch_5">
     <path d="M 52.266895 314.27322 
L 54.279941 301.708457 
Q 54.75453 298.746234 51.792307 298.271645 
L 42.236052 296.740603 
Q 39.273829 296.266015 38.79924 299.228238 
L 36.786194 311.793001 
Q 36.311605 314.755224 39.273829 315.229813 
L 48.830084 316.760855 
Q 51.792307 317.235443 52.266895 314.27322 
z
" clip-path="url(#p82c832a0a9)" style="fill: #ffffff; stroke: #ffffff; stroke-linejoin: miter"/>
    </g>
    <g clip-path="url(#p82c832a0a9)">
     <!-- 14 -->
     <g transform="translate(47.251173 313.469633) rotate(-80.89779) scale(0.1 -0.1)">
      <defs>
       <path id="DejaVuSans-34" d="M 2419 4116 
L 825 1625 
L 2419 1625 
L 2419 4116 
z
M 2253 4666 
L 3047 4666 
L 3047 1625 
L 3713 1625 
L 3713 1100 
L 3047 1100 
L 3047 0 
L 2419 0 
L 2419 1100 
L 313 1100 
L 313 1709 
L 2253 4666 
z
" transform="scale(0.015625)"/>
      </defs>
      <use xlink:href="#DejaVuSans-31"/>
      <use xlink:href="#DejaVuSans-34" x="63.623047"/>
     </g>
    </g>
   </g>
   <g id="text_4">
    <g id="patch_6">
     <path d="M 188.44625 485.469205 
L 201.150637 484.74521 
Q 204.145777 484.574524 203.975091 481.579384 
L 203.424449 471.916936 
Q 203.253763 468.921795 200.258623 469.092482 
L 187.554235 469.816477 
Q 184.559095 469.987163 184.729781 472.982304 
L 185.280423 482.644751 
Q 185.451109 485.639892 188.44625 485.469205 
z
" clip-path="url(#p82c832a0a9)" style="fill: #ffffff; stroke: #ffffff; stroke-linejoin: miter"/>
    </g>
    <g clip-path="url(#p82c832a0a9)">
     <!-- 11 -->
     <g transform="translate(188.157238 480.397746) rotate(-3.261632) scale(0.1 -0.1)">
      <use xlink:href="#DejaVuSans-31"/>
      <use xlink:href="#DejaVuSans-31" x="63.623047"/>
     </g>
    </g>
   </g>
   <g id="text_5">
    <g id="patch_7">
     <path d="M 223.996893 337.82894 
L 234.084775 330.072636 
Q 236.463058 328.244038 234.634459 325.865755 
L 228.735325 318.193316 
Q 226.906727 315.815033 224.528444 317.643632 
L 214.440562 325.399936 
Q 212.062279 327.228534 213.890878 329.606817 
L 219.790012 337.279256 
Q 221.61861 339.657538 223.996893 337.82894 
z
" clip-path="url(#p82c832a0a9)" style="fill: #ffffff; stroke: #ffffff; stroke-linejoin: miter"/>
    </g>
    <g clip-path="url(#p82c832a0a9)">
     <!-- 12 -->
     <g transform="translate(220.900657 333.801963) rotate(-37.555726) scale(0.1 -0.1)">
      <defs>
       <path id="DejaVuSans-32" d="M 1228 531 
L 3431 531 
L 3431 0 
L 469 0 
L 469 531 
Q 828 903 1448 1529 
Q 2069 2156 2228 2338 
Q 2531 2678 2651 2914 
Q 2772 3150 2772 3378 
Q 2772 3750 2511 3984 
Q 2250 4219 1831 4219 
Q 1534 4219 1204 4116 
Q 875 4013 500 3803 
L 500 4441 
Q 881 4594 1212 4672 
Q 1544 4750 1819 4750 
Q 2544 4750 2975 4387 
Q 3406 4025 3406 3419 
Q 3406 3131 3298 2873 
Q 3191 2616 2906 2266 
Q 2828 2175 2409 1742 
Q 1991 1309 1228 531 
z
" transform="scale(0.015625)"/>
      </defs>
      <use xlink:href="#DejaVuSans-31"/>
      <use xlink:href="#DejaVuSans-32" x="63.623047"/>
     </g>
    </g>
   </g>
   <g id="text_6">
    <g id="patch_8">
     <path d="M 383.703763 252.228791 
L 383.925516 239.505724 
Q 383.977796 236.506179 380.978251 236.4539 
L 371.301596 236.285243 
Q 368.302052 236.232964 368.249772 239.232508 
L 368.028019 251.955576 
Q 367.97574 254.95512 370.975284 255.0074 
L 380.651939 255.176056 
Q 383.651484 255.228336 383.703763 252.228791 
z
" clip-path="url(#p82c832a0a9)" style="fill: #ffffff; stroke: #ffffff; stroke-linejoin: miter"/>
    </g>
    <g clip-path="url(#p82c832a0a9)">
     <!-- 19 -->
     <g transform="translate(378.624847 252.14027) rotate(-89.001482) scale(0.1 -0.1)">
      <use xlink:href="#DejaVuSans-31"/>
      <use xlink:href="#DejaVuSans-39" x="63.623047"/>
     </g>
    </g>
   </g>
   <g id="text_7">
    <g id="patch_9">
     <path d="M 418.225216 214.154799 
L 421.250026 226.515064 
Q 421.963144 229.429076 424.877156 228.715957 
L 434.277878 226.415408 
Q 437.191889 225.70229 436.478771 222.788278 
L 433.453961 210.428013 
Q 432.740842 207.514002 429.826831 208.22712 
L 420.426109 210.52767 
Q 417.512098 211.240788 418.225216 214.154799 
z
" clip-path="url(#p82c832a0a9)" style="fill: #ffffff; stroke: #ffffff; stroke-linejoin: miter"/>
    </g>
    <g clip-path="url(#p82c832a0a9)">
     <!-- 17 -->
     <g transform="translate(423.159305 212.947327) rotate(-283.751192) scale(0.1 -0.1)">
      <defs>
       <path id="DejaVuSans-37" d="M 525 4666 
L 3525 4666 
L 3525 4397 
L 1831 0 
L 1172 0 
L 2766 4134 
L 525 4134 
L 525 4666 
z
" transform="scale(0.015625)"/>
      </defs>
      <use xlink:href="#DejaVuSans-31"/>
      <use xlink:href="#DejaVuSans-37" x="63.623047"/>
     </g>
    </g>
   </g>
   <g id="text_8">
    <g id="patch_10">
     <path d="M 397.431155 95.863491 
L 399.599048 101.845268 
Q 400.621236 104.665752 403.44172 103.643563 
L 412.540719 100.345939 
Q 415.361203 99.32375 414.339014 96.503266 
L 412.171122 90.52149 
Q 411.148933 87.701006 408.328449 88.723195 
L 399.229451 92.020818 
Q 396.408967 93.043007 397.431155 95.863491 
z
" clip-path="url(#p82c832a0a9)" style="fill: #ffffff; stroke: #ffffff; stroke-linejoin: miter"/>
    </g>
    <g clip-path="url(#p82c832a0a9)">
     <!-- 9 -->
     <g transform="translate(402.206881 94.132691) rotate(-289.921332) scale(0.1 -0.1)">
      <use xlink:href="#DejaVuSans-39"/>
     </g>
    </g>
   </g>
   <g id="text_9">
    <g id="patch_11">
     <path d="M 245.777907 319.783062 
L 251.107958 323.257536 
Q 253.621145 324.895794 255.259404 322.382607 
L 260.544494 314.274962 
Q 262.182753 311.761775 259.669566 310.123516 
L 254.339515 306.649042 
Q 251.826328 305.010784 250.18807 307.523971 
L 244.902979 315.631617 
Q 243.26472 318.144804 245.777907 319.783062 
z
" clip-path="url(#p82c832a0a9)" style="fill: #ffffff; stroke: #ffffff; stroke-linejoin: miter"/>
    </g>
    <g clip-path="url(#p82c832a0a9)">
     <!-- 3 -->
     <g transform="translate(248.551855 315.527661) rotate(-326.901077) scale(0.1 -0.1)">
      <defs>
       <path id="DejaVuSans-33" d="M 2597 2516 
Q 3050 2419 3304 2112 
Q 3559 1806 3559 1356 
Q 3559 666 3084 287 
Q 2609 -91 1734 -91 
Q 1441 -91 1130 -33 
Q 819 25 488 141 
L 488 750 
Q 750 597 1062 519 
Q 1375 441 1716 441 
Q 2309 441 2620 675 
Q 2931 909 2931 1356 
Q 2931 1769 2642 2001 
Q 2353 2234 1838 2234 
L 1294 2234 
L 1294 2753 
L 1863 2753 
Q 2328 2753 2575 2939 
Q 2822 3125 2822 3475 
Q 2822 3834 2567 4026 
Q 2313 4219 1838 4219 
Q 1578 4219 1281 4162 
Q 984 4106 628 3988 
L 628 4550 
Q 988 4650 1302 4700 
Q 1616 4750 1894 4750 
Q 2613 4750 3031 4423 
Q 3450 4097 3450 3541 
Q 3450 3153 3228 2886 
Q 3006 2619 2597 2516 
z
" transform="scale(0.015625)"/>
      </defs>
      <use xlink:href="#DejaVuSans-33"/>
     </g>
    </g>
   </g>
   <g id="text_10">
    <g id="patch_12">
     <path d="M 130.434488 291.741557 
L 132.446487 297.777555 
Q 133.395171 300.623605 136.241221 299.674921 
L 145.422696 296.614429 
Q 148.268746 295.665746 147.320063 292.819696 
L 145.308064 286.783699 
Q 144.35938 283.937649 141.51333 284.886332 
L 132.331855 287.946824 
Q 129.485805 288.895507 130.434488 291.741557 
z
" clip-path="url(#p82c832a0a9)" style="fill: #ffffff; stroke: #ffffff; stroke-linejoin: miter"/>
    </g>
    <g clip-path="url(#p82c832a0a9)">
     <!-- 4 -->
     <g transform="translate(135.253503 290.135219) rotate(-288.434949) scale(0.1 -0.1)">
      <use xlink:href="#DejaVuSans-34"/>
     </g>
    </g>
   </g>
   <g id="text_11">
    <g id="patch_13">
     <path d="M 275.308953 180.198797 
L 287.340919 176.056645 
Q 290.177532 175.080106 289.200993 172.243494 
L 286.050638 163.092463 
Q 285.074099 160.25585 282.237487 161.232389 
L 270.205521 165.374541 
Q 267.368908 166.35108 268.345447 169.187693 
L 271.495802 178.338723 
Q 272.472341 181.175336 275.308953 180.198797 
z
" clip-path="url(#p82c832a0a9)" style="fill: #ffffff; stroke: #ffffff; stroke-linejoin: miter"/>
    </g>
    <g clip-path="url(#p82c832a0a9)">
     <!-- 18 -->
     <g transform="translate(273.655449 175.395762) rotate(-18.996654) scale(0.1 -0.1)">
      <defs>
       <path id="DejaVuSans-38" d="M 2034 2216 
Q 1584 2216 1326 1975 
Q 1069 1734 1069 1313 
Q 1069 891 1326 650 
Q 1584 409 2034 409 
Q 2484 409 2743 651 
Q 3003 894 3003 1313 
Q 3003 1734 2745 1975 
Q 2488 2216 2034 2216 
z
M 1403 2484 
Q 997 2584 770 2862 
Q 544 3141 544 3541 
Q 544 4100 942 4425 
Q 1341 4750 2034 4750 
Q 2731 4750 3128 4425 
Q 3525 4100 3525 3541 
Q 3525 3141 3298 2862 
Q 3072 2584 2669 2484 
Q 3125 2378 3379 2068 
Q 3634 1759 3634 1313 
Q 3634 634 3220 271 
Q 2806 -91 2034 -91 
Q 1263 -91 848 271 
Q 434 634 434 1313 
Q 434 1759 690 2068 
Q 947 2378 1403 2484 
z
M 1172 3481 
Q 1172 3119 1398 2916 
Q 1625 2713 2034 2713 
Q 2441 2713 2670 2916 
Q 2900 3119 2900 3481 
Q 2900 3844 2670 4047 
Q 2441 4250 2034 4250 
Q 1625 4250 1398 4047 
Q 1172 3844 1172 3481 
z
" transform="scale(0.015625)"/>
      </defs>
      <use xlink:href="#DejaVuSans-31"/>
      <use xlink:href="#DejaVuSans-38" x="63.623047"/>
     </g>
    </g>
   </g>
   <g id="text_12">
    <g id="patch_14">
     <path d="M 225.572547 166.001877 
L 231.811491 164.754088 
Q 234.753233 164.16574 234.164885 161.223998 
L 232.266848 151.733816 
Q 231.6785 148.792073 228.736758 149.380422 
L 222.497813 150.628211 
Q 219.556071 151.216559 220.14442 154.158301 
L 222.042456 163.648484 
Q 222.630805 166.590226 225.572547 166.001877 
z
" clip-path="url(#p82c832a0a9)" style="fill: #ffffff; stroke: #ffffff; stroke-linejoin: miter"/>
    </g>
    <g clip-path="url(#p82c832a0a9)">
     <!-- 8 -->
     <g transform="translate(224.576338 161.020834) rotate(-11.309932) scale(0.1 -0.1)">
      <use xlink:href="#DejaVuSans-38"/>
     </g>
    </g>
   </g>
   <g id="text_13">
    <g id="patch_15">
     <path d="M 44.341126 323.310102 
L 48.177446 335.443044 
Q 49.081883 338.303462 51.942302 337.399025 
L 61.170131 334.481274 
Q 64.030549 333.576836 63.126112 330.716418 
L 59.289792 318.583477 
Q 58.385355 315.723058 55.524936 316.627495 
L 46.297107 319.545247 
Q 43.436689 320.449684 44.341126 323.310102 
z
" clip-path="url(#p82c832a0a9)" style="fill: #ffffff; stroke: #ffffff; stroke-linejoin: miter"/>
    </g>
    <g clip-path="url(#p82c832a0a9)">
     <!-- 10 -->
     <g transform="translate(49.18447 321.778683) rotate(-287.546458) scale(0.1 -0.1)">
      <defs>
       <path id="DejaVuSans-30" d="M 2034 4250 
Q 1547 4250 1301 3770 
Q 1056 3291 1056 2328 
Q 1056 1369 1301 889 
Q 1547 409 2034 409 
Q 2525 409 2770 889 
Q 3016 1369 3016 2328 
Q 3016 3291 2770 3770 
Q 2525 4250 2034 4250 
z
M 2034 4750 
Q 2819 4750 3233 4129 
Q 3647 3509 3647 2328 
Q 3647 1150 3233 529 
Q 2819 -91 2034 -91 
Q 1250 -91 836 529 
Q 422 1150 422 2328 
Q 422 3509 836 4129 
Q 1250 4750 2034 4750 
z
" transform="scale(0.015625)"/>
      </defs>
      <use xlink:href="#DejaVuSans-31"/>
      <use xlink:href="#DejaVuSans-30" x="63.623047"/>
     </g>
    </g>
   </g>
   <g id="text_14">
    <g id="patch_16">
     <path d="M 233.099653 149.924707 
L 239.246876 148.283654 
Q 242.14537 147.509877 241.371593 144.611383 
L 238.875355 135.26072 
Q 238.101577 132.362226 235.203083 133.136003 
L 229.05586 134.777056 
Q 226.157366 135.550833 226.931143 138.449328 
L 229.427381 147.799991 
Q 230.201159 150.698485 233.099653 149.924707 
z
" clip-path="url(#p82c832a0a9)" style="fill: #ffffff; stroke: #ffffff; stroke-linejoin: miter"/>
    </g>
    <g clip-path="url(#p82c832a0a9)">
     <!-- 4 -->
     <g transform="translate(231.78947 145.016892) rotate(-14.947023) scale(0.1 -0.1)">
      <use xlink:href="#DejaVuSans-34"/>
     </g>
    </g>
   </g>
   <g id="text_15">
    <g id="patch_17">
     <path d="M 265.450324 290.375649 
L 271.023436 293.445148 
Q 273.65123 294.892456 275.098538 292.264662 
L 279.767614 283.78729 
Q 281.214922 281.159496 278.587128 279.712188 
L 273.014015 276.642689 
Q 270.386222 275.195382 268.938914 277.823175 
L 264.269838 286.300547 
Q 262.82253 288.928341 265.450324 290.375649 
z
" clip-path="url(#p82c832a0a9)" style="fill: #ffffff; stroke: #ffffff; stroke-linejoin: miter"/>
    </g>
    <g clip-path="url(#p82c832a0a9)">
     <!-- 1 -->
     <g transform="translate(267.900948 285.926192) rotate(-331.155379) scale(0.1 -0.1)">
      <use xlink:href="#DejaVuSans-31"/>
     </g>
    </g>
   </g>
   <g id="text_16">
    <g id="patch_18">
     <path d="M 309.023598 214.336596 
L 321.178949 210.571882 
Q 324.044651 209.684327 323.157096 206.818625 
L 320.293805 197.573753 
Q 319.40625 194.708051 316.540548 195.595606 
L 304.385197 199.36032 
Q 301.519496 200.247876 302.407051 203.113577 
L 305.270342 212.35845 
Q 306.157897 215.224151 309.023598 214.336596 
z
" clip-path="url(#p82c832a0a9)" style="fill: #ffffff; stroke: #ffffff; stroke-linejoin: miter"/>
    </g>
    <g clip-path="url(#p82c832a0a9)">
     <!-- 15 -->
     <g transform="translate(307.520764 209.484307) rotate(-17.208621) scale(0.1 -0.1)">
      <defs>
       <path id="DejaVuSans-35" d="M 691 4666 
L 3169 4666 
L 3169 4134 
L 1269 4134 
L 1269 2991 
Q 1406 3038 1543 3061 
Q 1681 3084 1819 3084 
Q 2600 3084 3056 2656 
Q 3513 2228 3513 1497 
Q 3513 744 3044 326 
Q 2575 -91 1722 -91 
Q 1428 -91 1123 -41 
Q 819 9 494 109 
L 494 744 
Q 775 591 1075 516 
Q 1375 441 1709 441 
Q 2250 441 2565 725 
Q 2881 1009 2881 1497 
Q 2881 1984 2565 2268 
Q 2250 2553 1709 2553 
Q 1456 2553 1204 2497 
Q 953 2441 691 2322 
L 691 4666 
z
" transform="scale(0.015625)"/>
      </defs>
      <use xlink:href="#DejaVuSans-31"/>
      <use xlink:href="#DejaVuSans-35" x="63.623047"/>
     </g>
    </g>
   </g>
   <g id="text_17">
    <g id="patch_19">
     <path d="M 450.063953 187.366161 
L 451.565275 174.730035 
Q 451.919221 171.750988 448.940174 171.397042 
L 439.329643 170.255197 
Q 436.350596 169.901251 435.99665 172.880298 
L 434.495328 185.516423 
Q 434.141382 188.49547 437.120429 188.849416 
L 446.73096 189.991262 
Q 449.710007 190.345208 450.063953 187.366161 
z
" clip-path="url(#p82c832a0a9)" style="fill: #ffffff; stroke: #ffffff; stroke-linejoin: miter"/>
    </g>
    <g clip-path="url(#p82c832a0a9)">
     <!-- 18 -->
     <g transform="translate(445.019743 186.766849) rotate(-83.224344) scale(0.1 -0.1)">
      <use xlink:href="#DejaVuSans-31"/>
      <use xlink:href="#DejaVuSans-38" x="63.623047"/>
     </g>
    </g>
   </g>
   <g id="text_18">
    <g id="patch_20">
     <path d="M 389.690715 312.912699 
L 400.481493 306.168463 
Q 403.025488 304.578466 401.435491 302.034471 
L 396.306095 293.827437 
Q 394.716098 291.283442 392.172104 292.873439 
L 381.381325 299.617676 
Q 378.83733 301.207673 380.427327 303.751668 
L 385.556723 311.958701 
Q 387.14672 314.502696 389.690715 312.912699 
z
" clip-path="url(#p82c832a0a9)" style="fill: #ffffff; stroke: #ffffff; stroke-linejoin: miter"/>
    </g>
    <g clip-path="url(#p82c832a0a9)">
     <!-- 16 -->
     <g transform="translate(386.998486 308.605133) rotate(-32.005383) scale(0.1 -0.1)">
      <defs>
       <path id="DejaVuSans-36" d="M 2113 2584 
Q 1688 2584 1439 2293 
Q 1191 2003 1191 1497 
Q 1191 994 1439 701 
Q 1688 409 2113 409 
Q 2538 409 2786 701 
Q 3034 994 3034 1497 
Q 3034 2003 2786 2293 
Q 2538 2584 2113 2584 
z
M 3366 4563 
L 3366 3988 
Q 3128 4100 2886 4159 
Q 2644 4219 2406 4219 
Q 1781 4219 1451 3797 
Q 1122 3375 1075 2522 
Q 1259 2794 1537 2939 
Q 1816 3084 2150 3084 
Q 2853 3084 3261 2657 
Q 3669 2231 3669 1497 
Q 3669 778 3244 343 
Q 2819 -91 2113 -91 
Q 1303 -91 875 529 
Q 447 1150 447 2328 
Q 447 3434 972 4092 
Q 1497 4750 2381 4750 
Q 2619 4750 2861 4703 
Q 3103 4656 3366 4563 
z
" transform="scale(0.015625)"/>
      </defs>
      <use xlink:href="#DejaVuSans-31"/>
      <use xlink:href="#DejaVuSans-36" x="63.623047"/>
     </g>
    </g>
   </g>
   <g id="text_19">
    <g id="patch_21">
     <path d="M 298.605674 145.310779 
L 307.240311 154.6579 
Q 309.275981 156.861544 311.479625 154.825873 
L 318.588671 148.258714 
Q 320.792314 146.223044 318.756644 144.0194 
L 310.122007 134.672279 
Q 308.086336 132.468635 305.882693 134.504306 
L 298.773647 141.071464 
Q 296.570003 143.107135 298.605674 145.310779 
z
" clip-path="url(#p82c832a0a9)" style="fill: #ffffff; stroke: #ffffff; stroke-linejoin: miter"/>
    </g>
    <g clip-path="url(#p82c832a0a9)">
     <!-- 18 -->
     <g transform="translate(302.336948 141.863922) rotate(-312.730977) scale(0.1 -0.1)">
      <use xlink:href="#DejaVuSans-31"/>
      <use xlink:href="#DejaVuSans-38" x="63.623047"/>
     </g>
    </g>
   </g>
   <g id="text_20">
    <g id="patch_22">
     <path d="M 315.438952 310.444331 
L 327.881487 307.778074 
Q 330.814895 307.149486 330.186307 304.216079 
L 328.158459 294.752785 
Q 327.529871 291.819378 324.596464 292.447965 
L 312.153929 295.114223 
Q 309.220521 295.74281 309.849109 298.676217 
L 311.876957 308.139511 
Q 312.505545 311.072919 315.438952 310.444331 
z
" clip-path="url(#p82c832a0a9)" style="fill: #ffffff; stroke: #ffffff; stroke-linejoin: miter"/>
    </g>
    <g clip-path="url(#p82c832a0a9)">
     <!-- 16 -->
     <g transform="translate(314.374609 305.477401) rotate(-12.094757) scale(0.1 -0.1)">
      <use xlink:href="#DejaVuSans-31"/>
      <use xlink:href="#DejaVuSans-36" x="63.623047"/>
     </g>
    </g>
   </g>
   <g id="text_21">
    <g id="patch_23">
     <path d="M 307.454279 200.094966 
L 317.722758 192.579385 
Q 320.143618 190.807538 318.371772 188.386679 
L 312.655722 180.576885 
Q 310.883876 178.156026 308.463016 179.927872 
L 298.194537 187.443453 
Q 295.773677 189.215299 297.545524 191.636159 
L 303.261573 199.445952 
Q 305.033419 201.866812 307.454279 200.094966 
z
" clip-path="url(#p82c832a0a9)" style="fill: #ffffff; stroke: #ffffff; stroke-linejoin: miter"/>
    </g>
    <g clip-path="url(#p82c832a0a9)">
     <!-- 10 -->
     <g transform="translate(304.454137 195.995896) rotate(-36.200691) scale(0.1 -0.1)">
      <use xlink:href="#DejaVuSans-31"/>
      <use xlink:href="#DejaVuSans-30" x="63.623047"/>
     </g>
    </g>
   </g>
   <g id="text_22">
    <g id="patch_24">
     <path d="M 299.920985 216.214405 
L 310.576284 209.258096 
Q 313.088339 207.618101 311.448344 205.106047 
L 306.157655 197.002054 
Q 304.51766 194.489999 302.005606 196.129993 
L 291.350307 203.086302 
Q 288.838252 204.726296 290.478246 207.238351 
L 295.768936 215.342344 
Q 297.408931 217.854399 299.920985 216.214405 
z
" clip-path="url(#p82c832a0a9)" style="fill: #ffffff; stroke: #ffffff; stroke-linejoin: miter"/>
    </g>
    <g clip-path="url(#p82c832a0a9)">
     <!-- 14 -->
     <g transform="translate(297.144099 211.96092) rotate(-33.138501) scale(0.1 -0.1)">
      <use xlink:href="#DejaVuSans-31"/>
      <use xlink:href="#DejaVuSans-34" x="63.623047"/>
     </g>
    </g>
   </g>
   <g id="text_23">
    <g id="patch_25">
     <path d="M 293.547641 294.805478 
L 306.233444 293.807469 
Q 309.224203 293.572182 308.988916 290.581423 
L 308.229871 280.93311 
Q 307.994584 277.942351 305.003825 278.177638 
L 292.318022 279.175647 
Q 289.327262 279.410934 289.562549 282.401693 
L 290.321595 292.050006 
Q 290.556882 295.040765 293.547641 294.805478 
z
" clip-path="url(#p82c832a0a9)" style="fill: #ffffff; stroke: #ffffff; stroke-linejoin: miter"/>
    </g>
    <g clip-path="url(#p82c832a0a9)">
     <!-- 11 -->
     <g transform="translate(293.149246 289.741438) rotate(-4.49827) scale(0.1 -0.1)">
      <use xlink:href="#DejaVuSans-31"/>
      <use xlink:href="#DejaVuSans-31" x="63.623047"/>
     </g>
    </g>
   </g>
   <g id="text_24">
    <g id="patch_26">
     <path d="M 181.147403 158.393851 
L 181.693501 152.05483 
Q 181.950994 149.065901 178.962064 148.808408 
L 169.319654 147.977728 
Q 166.330725 147.720236 166.073233 150.709165 
L 165.527135 157.048185 
Q 165.269643 160.037115 168.258572 160.294607 
L 177.900982 161.125288 
Q 180.889911 161.38278 181.147403 158.393851 
z
" clip-path="url(#p82c832a0a9)" style="fill: #ffffff; stroke: #ffffff; stroke-linejoin: miter"/>
    </g>
    <g clip-path="url(#p82c832a0a9)">
     <!-- 9 -->
     <g transform="translate(176.086461 157.957857) rotate(-85.076203) scale(0.1 -0.1)">
      <use xlink:href="#DejaVuSans-39"/>
     </g>
    </g>
   </g>
   <g id="text_25">
    <g id="patch_27">
     <path d="M 132.214286 384.441637 
L 137.261697 372.760487 
Q 138.451656 370.006581 135.69775 368.816622 
L 126.813535 364.977763 
Q 124.05963 363.787804 122.86967 366.54171 
L 117.82226 378.22286 
Q 116.6323 380.976766 119.386206 382.166725 
L 128.270421 386.005583 
Q 131.024327 387.195543 132.214286 384.441637 
z
" clip-path="url(#p82c832a0a9)" style="fill: #ffffff; stroke: #ffffff; stroke-linejoin: miter"/>
    </g>
    <g clip-path="url(#p82c832a0a9)">
     <!-- 14 -->
     <g transform="translate(127.551292 382.426763) rotate(-66.630887) scale(0.1 -0.1)">
      <use xlink:href="#DejaVuSans-31"/>
      <use xlink:href="#DejaVuSans-34" x="63.623047"/>
     </g>
    </g>
   </g>
   <g id="text_26">
    <g id="patch_28">
     <path d="M 268.712394 356.16493 
L 274.477046 358.857549 
Q 277.195153 360.127153 278.464757 357.409046 
L 282.560553 348.64032 
Q 283.830157 345.922213 281.11205 344.652609 
L 275.347398 341.95999 
Q 272.629291 340.690386 271.359687 343.408493 
L 267.263891 352.177219 
Q 265.994287 354.895326 268.712394 356.16493 
z
" clip-path="url(#p82c832a0a9)" style="fill: #ffffff; stroke: #ffffff; stroke-linejoin: miter"/>
    </g>
    <g clip-path="url(#p82c832a0a9)">
     <!-- 7 -->
     <g transform="translate(270.862125 351.562552) rotate(-334.963131) scale(0.1 -0.1)">
      <use xlink:href="#DejaVuSans-37"/>
     </g>
    </g>
   </g>
   <g id="text_27">
    <g id="patch_29">
     <path d="M 358.696913 248.79711 
L 367.902293 240.011519 
Q 370.07252 237.94026 368.001261 235.770033 
L 361.319292 228.76879 
Q 359.248033 226.598563 357.077806 228.669822 
L 347.872426 237.455413 
Q 345.702199 239.526672 347.773458 241.696899 
L 354.455426 248.698142 
Q 356.526685 250.868369 358.696913 248.79711 
z
" clip-path="url(#p82c832a0a9)" style="fill: #ffffff; stroke: #ffffff; stroke-linejoin: miter"/>
    </g>
    <g clip-path="url(#p82c832a0a9)">
     <!-- 17 -->
     <g transform="translate(355.189796 245.122418) rotate(-43.663341) scale(0.1 -0.1)">
      <use xlink:href="#DejaVuSans-31"/>
      <use xlink:href="#DejaVuSans-37" x="63.623047"/>
     </g>
    </g>
   </g>
   <g id="text_28">
    <g id="patch_30">
     <path d="M 167.813539 219.249012 
L 169.395626 206.622745 
Q 169.768613 203.646021 166.79189 203.273034 
L 157.188857 202.069763 
Q 154.212134 201.696776 153.839147 204.673499 
L 152.25706 217.299766 
Q 151.884073 220.27649 154.860796 220.649477 
L 164.463829 221.852748 
Q 167.440552 222.225735 167.813539 219.249012 
z
" clip-path="url(#p82c832a0a9)" style="fill: #ffffff; stroke: #ffffff; stroke-linejoin: miter"/>
    </g>
    <g clip-path="url(#p82c832a0a9)">
     <!-- 17 -->
     <g transform="translate(162.773265 218.61746) rotate(-82.857992) scale(0.1 -0.1)">
      <use xlink:href="#DejaVuSans-31"/>
      <use xlink:href="#DejaVuSans-37" x="63.623047"/>
     </g>
    </g>
   </g>
   <g id="text_29">
    <g id="patch_31">
     <path d="M 421.717287 263.761939 
L 422.848073 257.500731 
Q 423.381254 254.548491 420.429014 254.015311 
L 410.904966 252.295249 
Q 407.952727 251.762068 407.419546 254.714308 
L 406.28876 260.975516 
Q 405.755579 263.927756 408.707819 264.460936 
L 418.231867 266.180998 
Q 421.184106 266.714179 421.717287 263.761939 
z
" clip-path="url(#p82c832a0a9)" style="fill: #ffffff; stroke: #ffffff; stroke-linejoin: miter"/>
    </g>
    <g clip-path="url(#p82c832a0a9)">
     <!-- 5 -->
     <g transform="translate(416.718469 262.859142) rotate(-79.76262) scale(0.1 -0.1)">
      <use xlink:href="#DejaVuSans-35"/>
     </g>
    </g>
   </g>
   <g id="text_30">
    <g id="patch_32">
     <path d="M 443.056319 172.210611 
L 443.658189 165.876642 
Q 443.941979 162.890095 440.955432 162.606306 
L 431.320707 161.690789 
Q 428.33416 161.406999 428.05037 164.393546 
L 427.4485 170.727515 
Q 427.16471 173.714062 430.151257 173.997852 
L 439.785983 174.913368 
Q 442.77253 175.197158 443.056319 172.210611 
z
" clip-path="url(#p82c832a0a9)" style="fill: #ffffff; stroke: #ffffff; stroke-linejoin: miter"/>
    </g>
    <g clip-path="url(#p82c832a0a9)">
     <!-- 2 -->
     <g transform="translate(437.999411 171.73009) rotate(-84.571903) scale(0.1 -0.1)">
      <use xlink:href="#DejaVuSans-32"/>
     </g>
    </g>
   </g>
   <g id="text_31">
    <g id="patch_33">
     <path d="M 424.356912 448.310487 
L 429.977443 445.328703 
Q 432.627595 443.922754 431.221646 441.272602 
L 426.685995 432.7231 
Q 425.280046 430.072948 422.629894 431.478898 
L 417.009362 434.460682 
Q 414.35921 435.866631 415.76516 438.516783 
L 420.30081 447.066284 
Q 421.70676 449.716437 424.356912 448.310487 
z
" clip-path="url(#p82c832a0a9)" style="fill: #ffffff; stroke: #ffffff; stroke-linejoin: miter"/>
    </g>
    <g clip-path="url(#p82c832a0a9)">
     <!-- 5 -->
     <g transform="translate(421.976318 443.823172) rotate(-27.946685) scale(0.1 -0.1)">
      <use xlink:href="#DejaVuSans-35"/>
     </g>
    </g>
   </g>
   <g id="text_32">
    <g id="patch_34">
     <path d="M 257.222938 416.687931 
L 268.531315 422.522847 
Q 271.197337 423.898465 272.572956 421.232443 
L 277.010759 412.631745 
Q 278.386377 409.965723 275.720355 408.590105 
L 264.411979 402.755189 
Q 261.745957 401.37957 260.370338 404.045592 
L 255.932535 412.64629 
Q 254.556916 415.312312 257.222938 416.687931 
z
" clip-path="url(#p82c832a0a9)" style="fill: #ffffff; stroke: #ffffff; stroke-linejoin: miter"/>
    </g>
    <g clip-path="url(#p82c832a0a9)">
     <!-- 12 -->
     <g transform="translate(259.552176 412.173745) rotate(-332.707092) scale(0.1 -0.1)">
      <use xlink:href="#DejaVuSans-31"/>
      <use xlink:href="#DejaVuSans-32" x="63.623047"/>
     </g>
    </g>
   </g>
   <g id="text_33">
    <g id="patch_35">
     <path d="M 310.237609 392.018945 
L 322.775135 394.195198 
Q 325.730937 394.708263 326.244002 391.752461 
L 327.899173 382.216922 
Q 328.412238 379.26112 325.456436 378.748055 
L 312.918911 376.571802 
Q 309.963109 376.058737 309.450043 379.014538 
L 307.794873 388.550078 
Q 307.281808 391.50588 310.237609 392.018945 
z
" clip-path="url(#p82c832a0a9)" style="fill: #ffffff; stroke: #ffffff; stroke-linejoin: miter"/>
    </g>
    <g clip-path="url(#p82c832a0a9)">
     <!-- 12 -->
     <g transform="translate(311.106347 387.014095) rotate(-350.152765) scale(0.1 -0.1)">
      <use xlink:href="#DejaVuSans-31"/>
      <use xlink:href="#DejaVuSans-32" x="63.623047"/>
     </g>
    </g>
   </g>
   <g id="text_34">
    <g id="patch_36">
     <path d="M 308.437485 230.473263 
L 317.72037 221.769605 
Q 319.90887 219.717663 317.856927 217.529163 
L 311.237274 210.468972 
Q 309.185331 208.280473 306.996831 210.332416 
L 297.713946 219.036074 
Q 295.525446 221.088016 297.577389 223.276516 
L 304.197042 230.336707 
Q 306.248985 232.525206 308.437485 230.473263 
z
" clip-path="url(#p82c832a0a9)" style="fill: #ffffff; stroke: #ffffff; stroke-linejoin: miter"/>
    </g>
    <g clip-path="url(#p82c832a0a9)">
     <!-- 20 -->
     <g transform="translate(304.963075 226.767632) rotate(-43.155519) scale(0.1 -0.1)">
      <use xlink:href="#DejaVuSans-32"/>
      <use xlink:href="#DejaVuSans-30" x="63.623047"/>
     </g>
    </g>
   </g>
   <g id="text_35">
    <g id="patch_37">
     <path d="M 109.194517 241.861425 
L 111.413588 247.824404 
Q 112.459909 250.636026 115.27153 249.589705 
L 124.341937 246.214231 
Q 127.153558 245.167911 126.107237 242.35629 
L 123.888166 236.39331 
Q 122.841845 233.581689 120.030224 234.628009 
L 110.959817 238.003483 
Q 108.148196 239.049804 109.194517 241.861425 
z
" clip-path="url(#p82c832a0a9)" style="fill: #ffffff; stroke: #ffffff; stroke-linejoin: miter"/>
    </g>
    <g clip-path="url(#p82c832a0a9)">
     <!-- 5 -->
     <g transform="translate(113.955236 240.089764) rotate(-290.412316) scale(0.1 -0.1)">
      <use xlink:href="#DejaVuSans-35"/>
     </g>
    </g>
   </g>
   <g id="text_36">
    <g id="patch_38">
     <path d="M 281.99703 441.275533 
L 288.323018 440.594889 
Q 291.305803 440.273956 290.98487 437.291172 
L 289.949529 427.668585 
Q 289.628596 424.685801 286.645812 425.006733 
L 280.319823 425.687378 
Q 277.337039 426.00831 277.657971 428.991095 
L 278.693313 438.613681 
Q 279.014246 441.596465 281.99703 441.275533 
z
" clip-path="url(#p82c832a0a9)" style="fill: #ffffff; stroke: #ffffff; stroke-linejoin: miter"/>
    </g>
    <g clip-path="url(#p82c832a0a9)">
     <!-- 8 -->
     <g transform="translate(281.453618 436.224996) rotate(-6.141111) scale(0.1 -0.1)">
      <use xlink:href="#DejaVuSans-38"/>
     </g>
    </g>
   </g>
   <g id="text_37">
    <g id="patch_39">
     <path d="M 266.332143 353.995899 
L 269.677271 359.408064 
Q 271.254541 361.959968 273.806446 360.382698 
L 282.038997 355.294357 
Q 284.590902 353.717087 283.013631 351.165182 
L 279.668503 345.753017 
Q 278.091232 343.201113 275.539328 344.778383 
L 267.306777 349.866724 
Q 264.754872 351.443994 266.332143 353.995899 
z
" clip-path="url(#p82c832a0a9)" style="fill: #ffffff; stroke: #ffffff; stroke-linejoin: miter"/>
    </g>
    <g clip-path="url(#p82c832a0a9)">
     <!-- 4 -->
     <g transform="translate(270.653102 351.325219) rotate(-301.719208) scale(0.1 -0.1)">
      <use xlink:href="#DejaVuSans-34"/>
     </g>
    </g>
   </g>
   <g id="text_38">
    <g id="patch_40">
     <path d="M 384.982103 307.538557 
L 387.330346 301.625254 
Q 388.437573 298.837055 385.649375 297.729829 
L 376.654531 294.157869 
Q 373.866333 293.050642 372.759107 295.838841 
L 370.410863 301.752144 
Q 369.303637 304.540342 372.091835 305.647569 
L 381.086678 309.219529 
Q 383.874876 310.326755 384.982103 307.538557 
z
" clip-path="url(#p82c832a0a9)" style="fill: #ffffff; stroke: #ffffff; stroke-linejoin: miter"/>
    </g>
    <g clip-path="url(#p82c832a0a9)">
     <!-- 1 -->
     <g transform="translate(380.261045 305.663769) rotate(-68.341383) scale(0.1 -0.1)">
      <use xlink:href="#DejaVuSans-31"/>
     </g>
    </g>
   </g>
   <g id="text_39">
    <g id="patch_41">
     <path d="M 396.479129 264.673251 
L 398.662001 258.696925 
Q 399.691253 255.87901 396.873338 254.849759 
L 387.78263 251.529349 
Q 384.964715 250.500097 383.935464 253.318012 
L 381.752592 259.294338 
Q 380.72334 262.112252 383.541254 263.141504 
L 392.631963 266.461913 
Q 395.449877 267.491165 396.479129 264.673251 
z
" clip-path="url(#p82c832a0a9)" style="fill: #ffffff; stroke: #ffffff; stroke-linejoin: miter"/>
    </g>
    <g clip-path="url(#p82c832a0a9)">
     <!-- 9 -->
     <g transform="translate(391.707755 262.930492) rotate(-69.935123) scale(0.1 -0.1)">
      <use xlink:href="#DejaVuSans-39"/>
     </g>
    </g>
   </g>
   <g id="text_40">
    <g id="patch_42">
     <path d="M 406.391404 388.222037 
L 417.84652 393.763332 
Q 420.547136 395.069728 421.853532 392.369111 
L 426.068019 383.65681 
Q 427.374415 380.956193 424.673799 379.649797 
L 413.218683 374.108502 
Q 410.518067 372.802106 409.211671 375.502722 
L 404.997183 384.215024 
Q 403.690788 386.915641 406.391404 388.222037 
z
" clip-path="url(#p82c832a0a9)" style="fill: #ffffff; stroke: #ffffff; stroke-linejoin: miter"/>
    </g>
    <g clip-path="url(#p82c832a0a9)">
     <!-- 14 -->
     <g transform="translate(408.603432 383.649274) rotate(-334.185096) scale(0.1 -0.1)">
      <use xlink:href="#DejaVuSans-31"/>
      <use xlink:href="#DejaVuSans-34" x="63.623047"/>
     </g>
    </g>
   </g>
   <g id="text_41">
    <g id="patch_43">
     <path d="M 411.696277 224.609226 
L 413.857005 218.624858 
Q 414.875815 215.803152 412.054109 214.784341 
L 402.951168 211.497615 
Q 400.129462 210.478805 399.110651 213.300511 
L 396.949924 219.284879 
Q 395.931113 222.106585 398.752819 223.125396 
L 407.85576 226.412121 
Q 410.677466 227.430932 411.696277 224.609226 
z
" clip-path="url(#p82c832a0a9)" style="fill: #ffffff; stroke: #ffffff; stroke-linejoin: miter"/>
    </g>
    <g clip-path="url(#p82c832a0a9)">
     <!-- 7 -->
     <g transform="translate(406.918482 222.884146) rotate(-70.147278) scale(0.1 -0.1)">
      <use xlink:href="#DejaVuSans-37"/>
     </g>
    </g>
   </g>
   <g id="text_42">
    <g id="patch_44">
     <path d="M 298.265218 118.492186 
L 307.922723 126.778212 
Q 310.199542 128.731695 312.153025 126.454877 
L 318.455044 119.109765 
Q 320.408527 116.832946 318.131709 114.879463 
L 308.474203 106.593438 
Q 306.197385 104.639954 304.243901 106.916773 
L 297.941883 114.261885 
Q 295.988399 116.538703 298.265218 118.492186 
z
" clip-path="url(#p82c832a0a9)" style="fill: #ffffff; stroke: #ffffff; stroke-linejoin: miter"/>
    </g>
    <g clip-path="url(#p82c832a0a9)">
     <!-- 12 -->
     <g transform="translate(301.572913 114.637011) rotate(-319.370797) scale(0.1 -0.1)">
      <use xlink:href="#DejaVuSans-31"/>
      <use xlink:href="#DejaVuSans-32" x="63.623047"/>
     </g>
    </g>
   </g>
   <g id="text_43">
    <g id="patch_45">
     <path d="M 322.597175 254.807393 
L 334.989943 251.918635 
Q 337.911618 251.237592 337.230575 248.315918 
L 335.033502 238.890475 
Q 334.352459 235.968801 331.430785 236.649844 
L 319.038016 239.538601 
Q 316.116342 240.219644 316.797385 243.141318 
L 318.994458 252.566761 
Q 319.675501 255.488435 322.597175 254.807393 
z
" clip-path="url(#p82c832a0a9)" style="fill: #ffffff; stroke: #ffffff; stroke-linejoin: miter"/>
    </g>
    <g clip-path="url(#p82c832a0a9)">
     <!-- 20 -->
     <g transform="translate(321.444013 249.860328) rotate(-13.121356) scale(0.1 -0.1)">
      <use xlink:href="#DejaVuSans-32"/>
      <use xlink:href="#DejaVuSans-30" x="63.623047"/>
     </g>
    </g>
   </g>
   <g id="text_44">
    <g id="patch_46">
     <path d="M 138.726192 53.179902 
L 149.263101 46.045536 
Q 151.747245 44.363564 150.065273 41.87942 
L 144.63916 33.86547 
Q 142.957188 31.381326 140.473044 33.063298 
L 129.936135 40.197664 
Q 127.451992 41.879636 129.133964 44.36378 
L 134.560076 52.37773 
Q 136.242049 54.861874 138.726192 53.179902 
z
" clip-path="url(#p82c832a0a9)" style="fill: #ffffff; stroke: #ffffff; stroke-linejoin: miter"/>
    </g>
    <g clip-path="url(#p82c832a0a9)">
     <!-- 13 -->
     <g transform="translate(135.878228 48.973677) rotate(-34.101274) scale(0.1 -0.1)">
      <use xlink:href="#DejaVuSans-31"/>
      <use xlink:href="#DejaVuSans-33" x="63.623047"/>
     </g>
    </g>
   </g>
   <g id="text_45">
    <g id="patch_47">
     <path d="M 75.435476 306.852997 
L 75.677682 300.495109 
Q 75.791885 297.497284 72.794059 297.383081 
L 63.122949 297.014658 
Q 60.125124 296.900455 60.010921 299.89828 
L 59.768715 306.256168 
Q 59.654513 309.253994 62.652338 309.368197 
L 72.323448 309.73662 
Q 75.321273 309.850823 75.435476 306.852997 
z
" clip-path="url(#p82c832a0a9)" style="fill: #ffffff; stroke: #ffffff; stroke-linejoin: miter"/>
    </g>
    <g clip-path="url(#p82c832a0a9)">
     <!-- 6 -->
     <g transform="translate(70.359471 306.659626) rotate(-87.818359) scale(0.1 -0.1)">
      <use xlink:href="#DejaVuSans-36"/>
     </g>
    </g>
   </g>
   <g id="text_46">
    <g id="patch_48">
     <path d="M 361.784189 245.184333 
L 371.030197 236.441509 
Q 373.210002 234.380333 371.148825 232.200528 
L 364.499384 225.168385 
Q 362.438208 222.988579 360.258402 225.049756 
L 351.012395 233.792579 
Q 348.832589 235.853756 350.893766 238.033561 
L 357.543207 245.065704 
Q 359.604383 247.24551 361.784189 245.184333 
z
" clip-path="url(#p82c832a0a9)" style="fill: #ffffff; stroke: #ffffff; stroke-linejoin: miter"/>
    </g>
    <g clip-path="url(#p82c832a0a9)">
     <!-- 15 -->
     <g transform="translate(358.294145 241.493423) rotate(-43.397739) scale(0.1 -0.1)">
      <use xlink:href="#DejaVuSans-31"/>
      <use xlink:href="#DejaVuSans-35" x="63.623047"/>
     </g>
    </g>
   </g>
   <g id="text_47">
    <g id="patch_49">
     <path d="M 181.608955 188.63643 
L 189.930515 198.263333 
Q 191.892376 200.532937 194.16198 198.571076 
L 201.483817 192.24203 
Q 203.753421 190.280169 201.79156 188.010566 
L 193.469999 178.383663 
Q 191.508138 176.114059 189.238535 178.07592 
L 181.916698 184.404965 
Q 179.647094 186.366826 181.608955 188.63643 
z
" clip-path="url(#p82c832a0a9)" style="fill: #ffffff; stroke: #ffffff; stroke-linejoin: miter"/>
    </g>
    <g clip-path="url(#p82c832a0a9)">
     <!-- 19 -->
     <g transform="translate(185.451915 185.31455) rotate(-310.840358) scale(0.1 -0.1)">
      <use xlink:href="#DejaVuSans-31"/>
      <use xlink:href="#DejaVuSans-39" x="63.623047"/>
     </g>
    </g>
   </g>
   <g id="text_48">
    <g id="patch_50">
     <path d="M 258.887709 291.703984 
L 267.836159 282.656837 
Q 269.945813 280.523915 267.812891 278.41426 
L 260.931994 271.608428 
Q 258.799071 269.498773 256.689417 271.631696 
L 247.740966 280.678842 
Q 245.631312 282.811765 247.764235 284.921419 
L 254.645132 291.727252 
Q 256.778054 293.836906 258.887709 291.703984 
z
" clip-path="url(#p82c832a0a9)" style="fill: #ffffff; stroke: #ffffff; stroke-linejoin: miter"/>
    </g>
    <g clip-path="url(#p82c832a0a9)">
     <!-- 12 -->
     <g transform="translate(255.276182 288.131856) rotate(-45.314233) scale(0.1 -0.1)">
      <use xlink:href="#DejaVuSans-31"/>
      <use xlink:href="#DejaVuSans-32" x="63.623047"/>
     </g>
    </g>
   </g>
   <g id="text_49">
    <g id="patch_51">
     <path d="M 274.11937 245.20547 
L 283.642764 253.645292 
Q 285.887965 255.635034 287.877707 253.389833 
L 294.296697 246.146721 
Q 296.286439 243.90152 294.041238 241.911778 
L 284.517844 233.471956 
Q 282.272643 231.482215 280.282902 233.727415 
L 273.863911 240.970527 
Q 271.874169 243.215728 274.11937 245.20547 
z
" clip-path="url(#p82c832a0a9)" style="fill: #ffffff; stroke: #ffffff; stroke-linejoin: miter"/>
    </g>
    <g clip-path="url(#p82c832a0a9)">
     <!-- 12 -->
     <g transform="translate(277.488459 241.40383) rotate(-318.451997) scale(0.1 -0.1)">
      <use xlink:href="#DejaVuSans-31"/>
      <use xlink:href="#DejaVuSans-32" x="63.623047"/>
     </g>
    </g>
   </g>
   <g id="text_50">
    <g id="patch_52">
     <path d="M 339.796654 344.915434 
L 350.860696 351.201339 
Q 353.469114 352.683281 354.951057 350.074863 
L 359.731864 341.659996 
Q 361.213806 339.051577 358.605387 337.569635 
L 347.541346 331.28373 
Q 344.932927 329.801788 343.450985 332.410206 
L 338.670177 340.825073 
Q 337.188235 343.433492 339.796654 344.915434 
z
" clip-path="url(#p82c832a0a9)" style="fill: #ffffff; stroke: #ffffff; stroke-linejoin: miter"/>
    </g>
    <g clip-path="url(#p82c832a0a9)">
     <!-- 12 -->
     <g transform="translate(342.305922 340.498784) rotate(-330.397439) scale(0.1 -0.1)">
      <use xlink:href="#DejaVuSans-31"/>
      <use xlink:href="#DejaVuSans-32" x="63.623047"/>
     </g>
    </g>
   </g>
   <g id="matplotlib.axis_1">
    <g id="xtick_1">
     <g id="line2d_1">
      <path d="M 10.8 493.2 
L 10.8 10.8 
" clip-path="url(#p82c832a0a9)" style="fill: none; stroke: #b0b0b0; stroke-opacity: 0.3; stroke-width: 0.8; stroke-linecap: square"/>
     </g>
    </g>
    <g id="xtick_2">
     <g id="line2d_2">
      <path d="M 59.04 493.2 
L 59.04 10.8 
" clip-path="url(#p82c832a0a9)" style="fill: none; stroke: #b0b0b0; stroke-opacity: 0.3; stroke-width: 0.8; stroke-linecap: square"/>
     </g>
    </g>
    <g id="xtick_3">
     <g id="line2d_3">
      <path d="M 107.28 493.2 
L 107.28 10.8 
" clip-path="url(#p82c832a0a9)" style="fill: none; stroke: #b0b0b0; stroke-opacity: 0.3; stroke-width: 0.8; stroke-linecap: square"/>
     </g>
    </g>
    <g id="xtick_4">
     <g id="line2d_4">
      <path d="M 155.52 493.2 
L 155.52 10.8 
" clip-path="url(#p82c832a0a9)" style="fill: none; stroke: #b0b0b0; stroke-opacity: 0.3; stroke-width: 0.8; stroke-linecap: square"/>
     </g>
    </g>
    <g id="xtick_5">
     <g id="line2d_5">
      <path d="M 203.76 493.2 
L 203.76 10.8 
" clip-path="url(#p82c832a0a9)" style="fill: none; stroke: #b0b0b0; stroke-opacity: 0.3; stroke-width: 0.8; stroke-linecap: square"/>
     </g>
    </g>
    <g id="xtick_6">
     <g id="line2d_6">
      <path d="M 252 493.2 
L 252 10.8 
" clip-path="url(#p82c832a0a9)" style="fill: none; stroke: #b0b0b0; stroke-opacity: 0.3; stroke-width: 0.8; stroke-linecap: square"/>
     </g>
    </g>
    <g id="xtick_7">
     <g id="line2d_7">
      <path d="M 300.24 493.2 
L 300.24 10.8 
" clip-path="url(#p82c832a0a9)" style="fill: none; stroke: #b0b0b0; stroke-opacity: 0.3; stroke-width: 0.8; stroke-linecap: square"/>
     </g>
    </g>
    <g id="xtick_8">
     <g id="line2d_8">
      <path d="M 348.48 493.2 
L 348.48 10.8 
" clip-path="url(#p82c832a0a9)" style="fill: none; stroke: #b0b0b0; stroke-opacity: 0.3; stroke-width: 0.8; stroke-linecap: square"/>
     </g>
    </g>
    <g id="xtick_9">
     <g id="line2d_9">
      <path d="M 396.72 493.2 
L 396.72 10.8 
" clip-path="url(#p82c832a0a9)" style="fill: none; stroke: #b0b0b0; stroke-opacity: 0.3; stroke-width: 0.8; stroke-linecap: square"/>
     </g>
    </g>
    <g id="xtick_10">
     <g id="line2d_10">
      <path d="M 444.96 493.2 
L 444.96 10.8 
" clip-path="url(#p82c832a0a9)" style="fill: none; stroke: #b0b0b0; stroke-opacity: 0.3; stroke-width: 0.8; stroke-linecap: square"/>
     </g>
    </g>
    <g id="xtick_11">
     <g id="line2d_11">
      <path d="M 493.2 493.2 
L 493.2 10.8 
" clip-path="url(#p82c832a0a9)" style="fill: none; stroke: #b0b0b0; stroke-opacity: 0.3; stroke-width: 0.8; stroke-linecap: square"/>
     </g>
    </g>
   </g>
   <g id="matplotlib.axis_2">
    <g id="ytick_1">
     <g id="line2d_12">
      <path d="M 10.8 493.2 
L 493.2 493.2 
" clip-path="url(#p82c832a0a9)" style="fill: none; stroke: #b0b0b0; stroke-opacity: 0.3; stroke-width: 0.8; stroke-linecap: square"/>
     </g>
    </g>
    <g id="ytick_2">
     <g id="line2d_13">
      <path d="M 10.8 444.96 
L 493.2 444.96 
" clip-path="url(#p82c832a0a9)" style="fill: none; stroke: #b0b0b0; stroke-opacity: 0.3; stroke-width: 0.8; stroke-linecap: square"/>
     </g>
    </g>
    <g id="ytick_3">
     <g id="line2d_14">
      <path d="M 10.8 396.72 
L 493.2 396.72 
" clip-path="url(#p82c832a0a9)" style="fill: none; stroke: #b0b0b0; stroke-opacity: 0.3; stroke-width: 0.8; stroke-linecap: square"/>
     </g>
    </g>
    <g id="ytick_4">
     <g id="line2d_15">
      <path d="M 10.8 348.48 
L 493.2 348.48 
" clip-path="url(#p82c832a0a9)" style="fill: none; stroke: #b0b0b0; stroke-opacity: 0.3; stroke-width: 0.8; stroke-linecap: square"/>
     </g>
    </g>
    <g id="ytick_5">
     <g id="line2d_16">
      <path d="M 10.8 300.24 
L 493.2 300.24 
" clip-path="url(#p82c832a0a9)" style="fill: none; stroke: #b0b0b0; stroke-opacity: 0.3; stroke-width: 0.8; stroke-linecap: square"/>
     </g>
    </g>
    <g id="ytick_6">
     <g id="line2d_17">
      <path d="M 10.8 252 
L 493.2 252 
" clip-path="url(#p82c832a0a9)" style="fill: none; stroke: #b0b0b0; stroke-opacity: 0.3; stroke-width: 0.8; stroke-linecap: square"/>
     </g>
    </g>
    <g id="ytick_7">
     <g id="line2d_18">
      <path d="M 10.8 203.76 
L 493.2 203.76 
" clip-path="url(#p82c832a0a9)" style="fill: none; stroke: #b0b0b0; stroke-opacity: 0.3; stroke-width: 0.8; stroke-linecap: square"/>
     </g>
    </g>
    <g id="ytick_8">
     <g id="line2d_19">
      <path d="M 10.8 155.52 
L 493.2 155.52 
" clip-path="url(#p82c832a0a9)" style="fill: none; stroke: #b0b0b0; stroke-opacity: 0.3; stroke-width: 0.8; stroke-linecap: square"/>
     </g>
    </g>
    <g id="ytick_9">
     <g id="line2d_20">
      <path d="M 10.8 107.28 
L 493.2 107.28 
" clip-path="url(#p82c832a0a9)" style="fill: none; stroke: #b0b0b0; stroke-opacity: 0.3; stroke-width: 0.8; stroke-linecap: square"/>
     </g>
    </g>
    <g id="ytick_10">
     <g id="line2d_21">
      <path d="M 10.8 59.04 
L 493.2 59.04 
" clip-path="url(#p82c832a0a9)" style="fill: none; stroke: #b0b0b0; stroke-opacity: 0.3; stroke-width: 0.8; stroke-linecap: square"/>
     </g>
    </g>
    <g id="ytick_11">
     <g id="line2d_22">
      <path d="M 10.8 10.8 
L 493.2 10.8 
" clip-path="url(#p82c832a0a9)" style="fill: none; stroke: #b0b0b0; stroke-opacity: 0.3; stroke-width: 0.8; stroke-linecap: square"/>
     </g>
    </g>
   </g>
   <g id="PathCollection_1">
    <defs>
     <path id="mc2b692eba8" d="M 0 8.660254 
C 2.296726 8.660254 4.499694 7.747755 6.123724 6.123724 
C 7.747755 4.499694 8.660254 2.296726 8.660254 0 
C 8.660254 -2.296726 7.747755 -4.499694 6.123724 -6.123724 
C 4.499694 -7.747755 2.296726 -8.660254 0 -8.660254 
C -2.296726 -8.660254 -4.499694 -7.747755 -6.123724 -6.123724 
C -7.747755 -4.499694 -8.660254 -2.296726 -8.660254 0 
C -8.660254 2.296726 -7.747755 4.499694 -6.123724 6.123724 
C -4.499694 7.747755 -2.296726 8.660254 0 8.660254 
z
" style="stroke: #1f78b4"/>
    </defs>
    <g clip-path="url(#p82c832a0a9)">
     <use xlink:href="#mc2b692eba8" x="16.5888" y="487.4112" style="fill: #1f78b4; stroke: #1f78b4"/>
     <use xlink:href="#mc2b692eba8" x="379.836" y="24.3072" style="fill: #1f78b4; stroke: #1f78b4"/>
     <use xlink:href="#mc2b692eba8" x="116.928" y="226.4328" style="fill: #1f78b4; stroke: #1f78b4"/>
     <use xlink:href="#mc2b692eba8" x="13.6944" y="200.3832" style="fill: #1f78b4; stroke: #1f78b4"/>
     <use xlink:href="#mc2b692eba8" x="193.6296" y="241.8696" style="fill: #1f78b4; stroke: #1f78b4"/>
     <use xlink:href="#mc2b692eba8" x="431.4528" y="277.5672" style="fill: #1f78b4; stroke: #1f78b4"/>
     <use xlink:href="#mc2b692eba8" x="161.3088" y="297.3456" style="fill: #1f78b4; stroke: #1f78b4"/>
     <use xlink:href="#mc2b692eba8" x="283.8384" y="309.4056" style="fill: #1f78b4; stroke: #1f78b4"/>
     <use xlink:href="#mc2b692eba8" x="135.7416" y="412.1568" style="fill: #1f78b4; stroke: #1f78b4"/>
     <use xlink:href="#mc2b692eba8" x="440.6184" y="114.9984" style="fill: #1f78b4; stroke: #1f78b4"/>
     <use xlink:href="#mc2b692eba8" x="437.2416" y="275.6376" style="fill: #1f78b4; stroke: #1f78b4"/>
     <use xlink:href="#mc2b692eba8" x="372.1176" y="467.1504" style="fill: #1f78b4; stroke: #1f78b4"/>
     <use xlink:href="#mc2b692eba8" x="160.8264" y="358.128" style="fill: #1f78b4; stroke: #1f78b4"/>
     <use xlink:href="#mc2b692eba8" x="93.7728" y="453.6432" style="fill: #1f78b4; stroke: #1f78b4"/>
     <use xlink:href="#mc2b692eba8" x="325.8072" y="435.312" style="fill: #1f78b4; stroke: #1f78b4"/>
     <use xlink:href="#mc2b692eba8" x="356.1984" y="355.2336" style="fill: #1f78b4; stroke: #1f78b4"/>
     <use xlink:href="#mc2b692eba8" x="430.488" y="221.6088" style="fill: #1f78b4; stroke: #1f78b4"/>
     <use xlink:href="#mc2b692eba8" x="185.9112" y="11.7648" style="fill: #1f78b4; stroke: #1f78b4"/>
     <use xlink:href="#mc2b692eba8" x="74.4768" y="126.0936" style="fill: #1f78b4; stroke: #1f78b4"/>
     <use xlink:href="#mc2b692eba8" x="290.1096" y="302.1696" style="fill: #1f78b4; stroke: #1f78b4"/>
     <use xlink:href="#mc2b692eba8" x="388.5192" y="403.4736" style="fill: #1f78b4; stroke: #1f78b4"/>
     <use xlink:href="#mc2b692eba8" x="60.9696" y="480.6576" style="fill: #1f78b4; stroke: #1f78b4"/>
     <use xlink:href="#mc2b692eba8" x="93.2904" y="74.4768" style="fill: #1f78b4; stroke: #1f78b4"/>
     <use xlink:href="#mc2b692eba8" x="223.5384" y="269.8488" style="fill: #1f78b4; stroke: #1f78b4"/>
     <use xlink:href="#mc2b692eba8" x="208.584" y="325.3248" style="fill: #1f78b4; stroke: #1f78b4"/>
     <use xlink:href="#mc2b692eba8" x="454.608" y="82.6776" style="fill: #1f78b4; stroke: #1f78b4"/>
     <use xlink:href="#mc2b692eba8" x="350.4096" y="328.2192" style="fill: #1f78b4; stroke: #1f78b4"/>
     <use xlink:href="#mc2b692eba8" x="431.9352" y="168.0624" style="fill: #1f78b4; stroke: #1f78b4"/>
     <use xlink:href="#mc2b692eba8" x="474.8688" y="412.6392" style="fill: #1f78b4; stroke: #1f78b4"/>
    </g>
   </g>
   <g id="patch_53">
    <path d="M 10.8 493.2 
L 10.8 10.8 
" style="fill: none; stroke: #000000; stroke-width: 0.8; stroke-linejoin: miter; stroke-linecap: square"/>
   </g>
   <g id="patch_54">
    <path d="M 493.2 493.2 
L 493.2 10.8 
" style="fill: none; stroke: #000000; stroke-width: 0.8; stroke-linejoin: miter; stroke-linecap: square"/>
   </g>
   <g id="patch_55">
    <path d="M 10.8 493.2 
L 493.2 493.2 
" style="fill: none; stroke: #000000; stroke-width: 0.8; stroke-linejoin: miter; stroke-linecap: square"/>
   </g>
   <g id="patch_56">
    <path d="M 10.8 10.8 
L 493.2 10.8 
" style="fill: none; stroke: #000000; stroke-width: 0.8; stroke-linejoin: miter; stroke-linecap: square"/>
   </g>
   <g id="text_51">
    <g clip-path="url(#p82c832a0a9)">
     <!-- 0 -->
     <g transform="translate(12.7713 490.72245) scale(0.12 -0.12)">
      <use xlink:href="#DejaVuSans-30"/>
     </g>
    </g>
   </g>
   <g id="text_52">
    <g clip-path="url(#p82c832a0a9)">
     <!-- 1 -->
     <g transform="translate(376.0185 27.61845) scale(0.12 -0.12)">
      <use xlink:href="#DejaVuSans-31"/>
     </g>
    </g>
   </g>
   <g id="text_53">
    <g clip-path="url(#p82c832a0a9)">
     <!-- 2 -->
     <g transform="translate(113.1105 229.74405) scale(0.12 -0.12)">
      <use xlink:href="#DejaVuSans-32"/>
     </g>
    </g>
   </g>
   <g id="text_54">
    <g clip-path="url(#p82c832a0a9)">
     <!-- 3 -->
     <g transform="translate(9.8769 203.69445) scale(0.12 -0.12)">
      <use xlink:href="#DejaVuSans-33"/>
     </g>
    </g>
   </g>
   <g id="text_55">
    <g clip-path="url(#p82c832a0a9)">
     <!-- 4 -->
     <g transform="translate(189.8121 245.18085) scale(0.12 -0.12)">
      <use xlink:href="#DejaVuSans-34"/>
     </g>
    </g>
   </g>
   <g id="text_56">
    <g clip-path="url(#p82c832a0a9)">
     <!-- 5 -->
     <g transform="translate(427.6353 280.87845) scale(0.12 -0.12)">
      <use xlink:href="#DejaVuSans-35"/>
     </g>
    </g>
   </g>
   <g id="text_57">
    <g clip-path="url(#p82c832a0a9)">
     <!-- 6 -->
     <g transform="translate(157.4913 300.65685) scale(0.12 -0.12)">
      <use xlink:href="#DejaVuSans-36"/>
     </g>
    </g>
   </g>
   <g id="text_58">
    <g clip-path="url(#p82c832a0a9)">
     <!-- 7 -->
     <g transform="translate(280.0209 312.71685) scale(0.12 -0.12)">
      <use xlink:href="#DejaVuSans-37"/>
     </g>
    </g>
   </g>
   <g id="text_59">
    <g clip-path="url(#p82c832a0a9)">
     <!-- 8 -->
     <g transform="translate(131.9241 415.46805) scale(0.12 -0.12)">
      <use xlink:href="#DejaVuSans-38"/>
     </g>
    </g>
   </g>
   <g id="text_60">
    <g clip-path="url(#p82c832a0a9)">
     <!-- 9 -->
     <g transform="translate(436.8009 118.30965) scale(0.12 -0.12)">
      <use xlink:href="#DejaVuSans-39"/>
     </g>
    </g>
   </g>
   <g id="text_61">
    <g clip-path="url(#p82c832a0a9)">
     <!-- 10 -->
     <g transform="translate(429.6066 278.94885) scale(0.12 -0.12)">
      <use xlink:href="#DejaVuSans-31"/>
      <use xlink:href="#DejaVuSans-30" x="63.623047"/>
     </g>
    </g>
   </g>
   <g id="text_62">
    <g clip-path="url(#p82c832a0a9)">
     <!-- 11 -->
     <g transform="translate(364.4826 470.46165) scale(0.12 -0.12)">
      <use xlink:href="#DejaVuSans-31"/>
      <use xlink:href="#DejaVuSans-31" x="63.623047"/>
     </g>
    </g>
   </g>
   <g id="text_63">
    <g clip-path="url(#p82c832a0a9)">
     <!-- 12 -->
     <g transform="translate(153.1914 361.43925) scale(0.12 -0.12)">
      <use xlink:href="#DejaVuSans-31"/>
      <use xlink:href="#DejaVuSans-32" x="63.623047"/>
     </g>
    </g>
   </g>
   <g id="text_64">
    <g clip-path="url(#p82c832a0a9)">
     <!-- 13 -->
     <g transform="translate(86.1378 456.95445) scale(0.12 -0.12)">
      <use xlink:href="#DejaVuSans-31"/>
      <use xlink:href="#DejaVuSans-33" x="63.623047"/>
     </g>
    </g>
   </g>
   <g id="text_65">
    <g clip-path="url(#p82c832a0a9)">
     <!-- 14 -->
     <g transform="translate(318.1722 438.62325) scale(0.12 -0.12)">
      <use xlink:href="#DejaVuSans-31"/>
      <use xlink:href="#DejaVuSans-34" x="63.623047"/>
     </g>
    </g>
   </g>
   <g id="text_66">
    <g clip-path="url(#p82c832a0a9)">
     <!-- 15 -->
     <g transform="translate(348.5634 358.54485) scale(0.12 -0.12)">
      <use xlink:href="#DejaVuSans-31"/>
      <use xlink:href="#DejaVuSans-35" x="63.623047"/>
     </g>
    </g>
   </g>
   <g id="text_67">
    <g clip-path="url(#p82c832a0a9)">
     <!-- 16 -->
     <g transform="translate(422.853 224.92005) scale(0.12 -0.12)">
      <use xlink:href="#DejaVuSans-31"/>
      <use xlink:href="#DejaVuSans-36" x="63.623047"/>
     </g>
    </g>
   </g>
   <g id="text_68">
    <g clip-path="url(#p82c832a0a9)">
     <!-- 17 -->
     <g transform="translate(178.2762 15.07605) scale(0.12 -0.12)">
      <use xlink:href="#DejaVuSans-31"/>
      <use xlink:href="#DejaVuSans-37" x="63.623047"/>
     </g>
    </g>
   </g>
   <g id="text_69">
    <g clip-path="url(#p82c832a0a9)">
     <!-- 18 -->
     <g transform="translate(66.8418 129.40485) scale(0.12 -0.12)">
      <use xlink:href="#DejaVuSans-31"/>
      <use xlink:href="#DejaVuSans-38" x="63.623047"/>
     </g>
    </g>
   </g>
   <g id="text_70">
    <g clip-path="url(#p82c832a0a9)">
     <!-- 19 -->
     <g transform="translate(282.4746 305.48085) scale(0.12 -0.12)">
      <use xlink:href="#DejaVuSans-31"/>
      <use xlink:href="#DejaVuSans-39" x="63.623047"/>
     </g>
    </g>
   </g>
   <g id="text_71">
    <g clip-path="url(#p82c832a0a9)">
     <!-- 20 -->
     <g transform="translate(380.8842 406.78485) scale(0.12 -0.12)">
      <use xlink:href="#DejaVuSans-32"/>
      <use xlink:href="#DejaVuSans-30" x="63.623047"/>
     </g>
    </g>
   </g>
   <g id="text_72">
    <g clip-path="url(#p82c832a0a9)">
     <!-- 21 -->
     <g transform="translate(53.3346 483.96885) scale(0.12 -0.12)">
      <use xlink:href="#DejaVuSans-32"/>
      <use xlink:href="#DejaVuSans-31" x="63.623047"/>
     </g>
    </g>
   </g>
   <g id="text_73">
    <g clip-path="url(#p82c832a0a9)">
     <!-- 22 -->
     <g transform="translate(85.6554 77.78805) scale(0.12 -0.12)">
      <use xlink:href="#DejaVuSans-32"/>
      <use xlink:href="#DejaVuSans-32" x="63.623047"/>
     </g>
    </g>
   </g>
   <g id="text_74">
    <g clip-path="url(#p82c832a0a9)">
     <!-- 23 -->
     <g transform="translate(215.9034 273.16005) scale(0.12 -0.12)">
      <use xlink:href="#DejaVuSans-32"/>
      <use xlink:href="#DejaVuSans-33" x="63.623047"/>
     </g>
    </g>
   </g>
   <g id="text_75">
    <g clip-path="url(#p82c832a0a9)">
     <!-- 24 -->
     <g transform="translate(200.949 328.63605) scale(0.12 -0.12)">
      <use xlink:href="#DejaVuSans-32"/>
      <use xlink:href="#DejaVuSans-34" x="63.623047"/>
     </g>
    </g>
   </g>
   <g id="text_76">
    <g clip-path="url(#p82c832a0a9)">
     <!-- 25 -->
     <g transform="translate(446.973 85.98885) scale(0.12 -0.12)">
      <use xlink:href="#DejaVuSans-32"/>
      <use xlink:href="#DejaVuSans-35" x="63.623047"/>
     </g>
    </g>
   </g>
   <g id="text_77">
    <g clip-path="url(#p82c832a0a9)">
     <!-- 26 -->
     <g transform="translate(342.7746 331.53045) scale(0.12 -0.12)">
      <use xlink:href="#DejaVuSans-32"/>
      <use xlink:href="#DejaVuSans-36" x="63.623047"/>
     </g>
    </g>
   </g>
   <g id="text_78">
    <g clip-path="url(#p82c832a0a9)">
     <!-- 27 -->
     <g transform="translate(424.3002 171.37365) scale(0.12 -0.12)">
      <use xlink:href="#DejaVuSans-32"/>
      <use xlink:href="#DejaVuSans-37" x="63.623047"/>
     </g>
    </g>
   </g>
   <g id="text_79">
    <g clip-path="url(#p82c832a0a9)">
     <!-- 28 -->
     <g transform="translate(467.2338 415.95045) scale(0.12 -0.12)">
      <use xlink:href="#DejaVuSans-32"/>
      <use xlink:href="#DejaVuSans-38" x="63.623047"/>
     </g>
    </g>
   </g>
  </g>
 </g>
 <defs>
  <clipPath id="p82c832a0a9">
   <rect x="10.8" y="10.8" width="482.4" height="482.4"/>
  </clipPath>
 </defs>
</svg>
