<?xml version="1.0" encoding="utf-8" standalone="no"?>
<!DOCTYPE svg PUBLIC "-//W3C//DTD SVG 1.1//EN"
  "http://www.w3.org/Graphics/SVG/1.1/DTD/svg11.dtd">
<svg xmlns:xlink="http://www.w3.org/1999/xlink" width="504pt" height="504pt" viewBox="0 0 504 504" xmlns="http://www.w3.org/2000/svg" version="1.1">
 <metadata>
  <rdf:RDF xmlns:dc="http://purl.org/dc/elements/1.1/" xmlns:cc="http://creativecommons.org/ns#" xmlns:rdf="http://www.w3.org/1999/02/22-rdf-syntax-ns#">
   <cc:Work>
    <dc:type rdf:resource="http://purl.org/dc/dcmitype/StillImage"/>
    <dc:date>2024-10-29T14:59:57.526470</dc:date>
    <dc:format>image/svg+xml</dc:format>
    <dc:creator>
     <cc:Agent>
      <dc:title>Matplotlib v3.9.2, https://matplotlib.org/</dc:title>
     </cc:Agent>
    </dc:creator>
   </cc:Work>
  </rdf:RDF>
 </metadata>
 <defs>
  <style type="text/css">*{stroke-linejoin: round; stroke-linecap: butt}</style>
 </defs>
 <g id="figure_1">
  <g id="patch_1">
   <path d="M 0 504 
L 504 504 
L 504 0 
L 0 0 
L 0 504 
z
" style="fill: none; opacity: 0"/>
  </g>
  <g id="axes_1">
   <g id="patch_2">
    <path d="M 10.8 493.2 
L 493.2 493.2 
L 493.2 10.8 
L 10.8 10.8 
L 10.8 493.2 
z
" style="fill: none; opacity: 0"/>
   </g>
   <g id="LineCollection_1">
    <path d="M 409.7448 292.5216 
L 75.4416 147.8016 
" clip-path="url(#pc2a4ab7e8a)" style="fill: none; stroke: #000000"/>
    <path d="M 409.7448 292.5216 
L 308.4408 315.6768 
" clip-path="url(#pc2a4ab7e8a)" style="fill: none; stroke: #000000"/>
    <path d="M 409.7448 292.5216 
L 220.644 183.4992 
" clip-path="url(#pc2a4ab7e8a)" style="fill: none; stroke: #000000"/>
    <path d="M 409.7448 292.5216 
L 261.648 106.7976 
" clip-path="url(#pc2a4ab7e8a)" style="fill: none; stroke: #000000"/>
    <path d="M 164.2032 208.584 
L 304.0992 333.0432 
" clip-path="url(#pc2a4ab7e8a)" style="fill: none; stroke: #000000"/>
    <path d="M 164.2032 208.584 
L 490.788 450.2664 
" clip-path="url(#pc2a4ab7e8a)" style="fill: none; stroke: #000000"/>
    <path d="M 164.2032 208.584 
L 200.3832 283.8384 
" clip-path="url(#pc2a4ab7e8a)" style="fill: none; stroke: #000000"/>
    <path d="M 164.2032 208.584 
L 143.46 404.4384 
" clip-path="url(#pc2a4ab7e8a)" style="fill: none; stroke: #000000"/>
    <path d="M 433.3824 478.728 
L 373.0824 240.9048 
" clip-path="url(#pc2a4ab7e8a)" style="fill: none; stroke: #000000"/>
    <path d="M 433.3824 478.728 
L 308.4408 315.6768 
" clip-path="url(#pc2a4ab7e8a)" style="fill: none; stroke: #000000"/>
    <path d="M 121.752 336.42 
L 466.668 337.8672 
" clip-path="url(#pc2a4ab7e8a)" style="fill: none; stroke: #000000"/>
    <path d="M 121.752 336.42 
L 373.0824 240.9048 
" clip-path="url(#pc2a4ab7e8a)" style="fill: none; stroke: #000000"/>
    <path d="M 121.752 336.42 
L 115.4808 101.4912 
" clip-path="url(#pc2a4ab7e8a)" style="fill: none; stroke: #000000"/>
    <path d="M 121.752 336.42 
L 289.6272 338.3496 
" clip-path="url(#pc2a4ab7e8a)" style="fill: none; stroke: #000000"/>
    <path d="M 121.752 336.42 
L 475.3512 377.9064 
" clip-path="url(#pc2a4ab7e8a)" style="fill: none; stroke: #000000"/>
    <path d="M 475.3512 377.9064 
L 155.52 57.1104 
" clip-path="url(#pc2a4ab7e8a)" style="fill: none; stroke: #000000"/>
    <path d="M 475.3512 377.9064 
L 220.644 183.4992 
" clip-path="url(#pc2a4ab7e8a)" style="fill: none; stroke: #000000"/>
    <path d="M 416.9808 340.2792 
L 75.4416 147.8016 
" clip-path="url(#pc2a4ab7e8a)" style="fill: none; stroke: #000000"/>
    <path d="M 416.9808 340.2792 
L 16.5888 341.244 
" clip-path="url(#pc2a4ab7e8a)" style="fill: none; stroke: #000000"/>
    <path d="M 416.9808 340.2792 
L 395.7552 442.548 
" clip-path="url(#pc2a4ab7e8a)" style="fill: none; stroke: #000000"/>
    <path d="M 143.46 404.4384 
L 15.1416 77.3712 
" clip-path="url(#pc2a4ab7e8a)" style="fill: none; stroke: #000000"/>
    <path d="M 143.46 404.4384 
L 115.4808 101.4912 
" clip-path="url(#pc2a4ab7e8a)" style="fill: none; stroke: #000000"/>
    <path d="M 143.46 404.4384 
L 74.4768 324.36 
" clip-path="url(#pc2a4ab7e8a)" style="fill: none; stroke: #000000"/>
    <path d="M 220.644 183.4992 
L 304.0992 186.3936 
" clip-path="url(#pc2a4ab7e8a)" style="fill: none; stroke: #000000"/>
    <path d="M 220.644 183.4992 
L 491.7528 207.1368 
" clip-path="url(#pc2a4ab7e8a)" style="fill: none; stroke: #000000"/>
    <path d="M 220.644 183.4992 
L 120.3048 290.592 
" clip-path="url(#pc2a4ab7e8a)" style="fill: none; stroke: #000000"/>
    <path d="M 220.644 183.4992 
L 75.4416 147.8016 
" clip-path="url(#pc2a4ab7e8a)" style="fill: none; stroke: #000000"/>
    <path d="M 220.644 183.4992 
L 99.0792 488.8584 
" clip-path="url(#pc2a4ab7e8a)" style="fill: none; stroke: #000000"/>
    <path d="M 74.4768 324.36 
L 200.3832 283.8384 
" clip-path="url(#pc2a4ab7e8a)" style="fill: none; stroke: #000000"/>
    <path d="M 74.4768 324.36 
L 289.6272 338.3496 
" clip-path="url(#pc2a4ab7e8a)" style="fill: none; stroke: #000000"/>
    <path d="M 115.4808 101.4912 
L 15.1416 77.3712 
" clip-path="url(#pc2a4ab7e8a)" style="fill: none; stroke: #000000"/>
    <path d="M 115.4808 101.4912 
L 261.648 106.7976 
" clip-path="url(#pc2a4ab7e8a)" style="fill: none; stroke: #000000"/>
    <path d="M 115.4808 101.4912 
L 129.9528 232.2216 
" clip-path="url(#pc2a4ab7e8a)" style="fill: none; stroke: #000000"/>
    <path d="M 115.4808 101.4912 
L 420.84 106.7976 
" clip-path="url(#pc2a4ab7e8a)" style="fill: none; stroke: #000000"/>
    <path d="M 395.7552 442.548 
L 373.0824 240.9048 
" clip-path="url(#pc2a4ab7e8a)" style="fill: none; stroke: #000000"/>
    <path d="M 395.7552 442.548 
L 304.0992 333.0432 
" clip-path="url(#pc2a4ab7e8a)" style="fill: none; stroke: #000000"/>
    <path d="M 395.7552 442.548 
L 490.788 450.2664 
" clip-path="url(#pc2a4ab7e8a)" style="fill: none; stroke: #000000"/>
    <path d="M 395.7552 442.548 
L 308.4408 315.6768 
" clip-path="url(#pc2a4ab7e8a)" style="fill: none; stroke: #000000"/>
    <path d="M 15.1416 77.3712 
L 101.4912 67.2408 
" clip-path="url(#pc2a4ab7e8a)" style="fill: none; stroke: #000000"/>
    <path d="M 15.1416 77.3712 
L 223.5384 335.4552 
" clip-path="url(#pc2a4ab7e8a)" style="fill: none; stroke: #000000"/>
    <path d="M 491.7528 207.1368 
L 223.5384 335.4552 
" clip-path="url(#pc2a4ab7e8a)" style="fill: none; stroke: #000000"/>
    <path d="M 491.7528 207.1368 
L 289.6272 338.3496 
" clip-path="url(#pc2a4ab7e8a)" style="fill: none; stroke: #000000"/>
    <path d="M 491.7528 207.1368 
L 490.788 450.2664 
" clip-path="url(#pc2a4ab7e8a)" style="fill: none; stroke: #000000"/>
    <path d="M 491.7528 207.1368 
L 475.8336 87.984 
" clip-path="url(#pc2a4ab7e8a)" style="fill: none; stroke: #000000"/>
    <path d="M 261.648 106.7976 
L 260.6832 484.5168 
" clip-path="url(#pc2a4ab7e8a)" style="fill: none; stroke: #000000"/>
    <path d="M 261.648 106.7976 
L 129.9528 232.2216 
" clip-path="url(#pc2a4ab7e8a)" style="fill: none; stroke: #000000"/>
    <path d="M 261.648 106.7976 
L 200.3832 283.8384 
" clip-path="url(#pc2a4ab7e8a)" style="fill: none; stroke: #000000"/>
    <path d="M 420.84 106.7976 
L 304.0992 186.3936 
" clip-path="url(#pc2a4ab7e8a)" style="fill: none; stroke: #000000"/>
    <path d="M 420.84 106.7976 
L 304.0992 333.0432 
" clip-path="url(#pc2a4ab7e8a)" style="fill: none; stroke: #000000"/>
    <path d="M 191.2176 296.3808 
L 16.5888 341.244 
" clip-path="url(#pc2a4ab7e8a)" style="fill: none; stroke: #000000"/>
    <path d="M 304.0992 333.0432 
L 101.4912 67.2408 
" clip-path="url(#pc2a4ab7e8a)" style="fill: none; stroke: #000000"/>
    <path d="M 304.0992 333.0432 
L 490.788 450.2664 
" clip-path="url(#pc2a4ab7e8a)" style="fill: none; stroke: #000000"/>
    <path d="M 304.0992 333.0432 
L 304.0992 186.3936 
" clip-path="url(#pc2a4ab7e8a)" style="fill: none; stroke: #000000"/>
    <path d="M 120.3048 290.592 
L 129.9528 232.2216 
" clip-path="url(#pc2a4ab7e8a)" style="fill: none; stroke: #000000"/>
    <path d="M 120.3048 290.592 
L 101.4912 67.2408 
" clip-path="url(#pc2a4ab7e8a)" style="fill: none; stroke: #000000"/>
    <path d="M 120.3048 290.592 
L 155.52 57.1104 
" clip-path="url(#pc2a4ab7e8a)" style="fill: none; stroke: #000000"/>
    <path d="M 16.5888 341.244 
L 200.3832 283.8384 
" clip-path="url(#pc2a4ab7e8a)" style="fill: none; stroke: #000000"/>
    <path d="M 16.5888 341.244 
L 223.5384 335.4552 
" clip-path="url(#pc2a4ab7e8a)" style="fill: none; stroke: #000000"/>
    <path d="M 155.52 57.1104 
L 304.0992 186.3936 
" clip-path="url(#pc2a4ab7e8a)" style="fill: none; stroke: #000000"/>
    <path d="M 155.52 57.1104 
L 490.788 450.2664 
" clip-path="url(#pc2a4ab7e8a)" style="fill: none; stroke: #000000"/>
    <path d="M 260.6832 484.5168 
L 466.668 337.8672 
" clip-path="url(#pc2a4ab7e8a)" style="fill: none; stroke: #000000"/>
    <path d="M 260.6832 484.5168 
L 490.788 450.2664 
" clip-path="url(#pc2a4ab7e8a)" style="fill: none; stroke: #000000"/>
    <path d="M 200.3832 283.8384 
L 129.9528 232.2216 
" clip-path="url(#pc2a4ab7e8a)" style="fill: none; stroke: #000000"/>
    <path d="M 200.3832 283.8384 
L 466.668 337.8672 
" clip-path="url(#pc2a4ab7e8a)" style="fill: none; stroke: #000000"/>
    <path d="M 466.668 337.8672 
L 101.4912 67.2408 
" clip-path="url(#pc2a4ab7e8a)" style="fill: none; stroke: #000000"/>
    <path d="M 466.668 337.8672 
L 75.4416 147.8016 
" clip-path="url(#pc2a4ab7e8a)" style="fill: none; stroke: #000000"/>
    <path d="M 466.668 337.8672 
L 129.9528 232.2216 
" clip-path="url(#pc2a4ab7e8a)" style="fill: none; stroke: #000000"/>
    <path d="M 466.668 337.8672 
L 373.0824 240.9048 
" clip-path="url(#pc2a4ab7e8a)" style="fill: none; stroke: #000000"/>
    <path d="M 373.0824 240.9048 
L 289.6272 338.3496 
" clip-path="url(#pc2a4ab7e8a)" style="fill: none; stroke: #000000"/>
    <path d="M 289.6272 338.3496 
L 99.0792 488.8584 
" clip-path="url(#pc2a4ab7e8a)" style="fill: none; stroke: #000000"/>
   </g>
   <g id="text_1">
    <g id="patch_3">
     <path d="M 233.63768 224.826822 
L 245.315419 229.88212 
Q 248.06852 231.073939 249.260339 228.320838 
L 253.105196 219.439217 
Q 254.297015 216.686116 251.543913 215.494297 
L 239.866175 210.438999 
Q 237.113073 209.24718 235.921254 212.000282 
L 232.076397 220.881902 
Q 230.884578 223.635003 233.63768 224.826822 
z
" clip-path="url(#pc2a4ab7e8a)" style="fill: #ffffff; stroke: #ffffff; stroke-linejoin: miter"/>
    </g>
    <g clip-path="url(#pc2a4ab7e8a)">
     <!-- 10 -->
     <g transform="translate(235.655702 220.16519) rotate(-336.592193) scale(0.1 -0.1)">
      <defs>
       <path id="DejaVuSans-31" d="M 794 531 
L 1825 531 
L 1825 4091 
L 703 3866 
L 703 4441 
L 1819 4666 
L 2450 4666 
L 2450 531 
L 3481 531 
L 3481 0 
L 794 0 
L 794 531 
z
" transform="scale(0.015625)"/>
       <path id="DejaVuSans-30" d="M 2034 4250 
Q 1547 4250 1301 3770 
Q 1056 3291 1056 2328 
Q 1056 1369 1301 889 
Q 1547 409 2034 409 
Q 2525 409 2770 889 
Q 3016 1369 3016 2328 
Q 3016 3291 2770 3770 
Q 2525 4250 2034 4250 
z
M 2034 4750 
Q 2819 4750 3233 4129 
Q 3647 3509 3647 2328 
Q 3647 1150 3233 529 
Q 2819 -91 2034 -91 
Q 1250 -91 836 529 
Q 422 1150 422 2328 
Q 422 3509 836 4129 
Q 1250 4750 2034 4750 
z
" transform="scale(0.015625)"/>
      </defs>
      <use xlink:href="#DejaVuSans-31"/>
      <use xlink:href="#DejaVuSans-30" x="63.623047"/>
     </g>
    </g>
   </g>
   <g id="text_2">
    <g id="patch_4">
     <path d="M 354.636567 313.158999 
L 367.041642 310.323553 
Q 369.966217 309.655079 369.297743 306.730503 
L 367.141216 297.295701 
Q 366.472742 294.371125 363.548166 295.039599 
L 351.143092 297.875045 
Q 348.218516 298.543519 348.886991 301.468095 
L 351.043517 310.902897 
Q 351.711991 313.827473 354.636567 313.158999 
z
" clip-path="url(#pc2a4ab7e8a)" style="fill: #ffffff; stroke: #ffffff; stroke-linejoin: miter"/>
    </g>
    <g clip-path="url(#pc2a4ab7e8a)">
     <!-- 11 -->
     <g transform="translate(353.504687 308.207022) rotate(-12.875002) scale(0.1 -0.1)">
      <use xlink:href="#DejaVuSans-31"/>
      <use xlink:href="#DejaVuSans-31" x="63.623047"/>
     </g>
    </g>
   </g>
   <g id="text_3">
    <g id="patch_5">
     <path d="M 308.520952 243.211512 
L 314.032994 246.389373 
Q 316.631992 247.887775 318.130394 245.288776 
L 322.964301 236.9043 
Q 324.462703 234.305302 321.863705 232.8069 
L 316.351663 229.629039 
Q 313.752665 228.130637 312.254263 230.729635 
L 307.420356 239.114112 
Q 305.921954 241.71311 308.520952 243.211512 
z
" clip-path="url(#pc2a4ab7e8a)" style="fill: #ffffff; stroke: #ffffff; stroke-linejoin: miter"/>
    </g>
    <g clip-path="url(#pc2a4ab7e8a)">
     <!-- 4 -->
     <g transform="translate(311.05809 238.810812) rotate(-330.035235) scale(0.1 -0.1)">
      <defs>
       <path id="DejaVuSans-34" d="M 2419 4116 
L 825 1625 
L 2419 1625 
L 2419 4116 
z
M 2253 4666 
L 3047 4666 
L 3047 1625 
L 3713 1625 
L 3713 1100 
L 3047 1100 
L 3047 0 
L 2419 0 
L 2419 1100 
L 313 1100 
L 313 1709 
L 2253 4666 
z
" transform="scale(0.015625)"/>
      </defs>
      <use xlink:href="#DejaVuSans-34"/>
     </g>
    </g>
   </g>
   <g id="text_4">
    <g id="patch_6">
     <path d="M 327.583578 202.059102 
L 331.550317 207.033677 
Q 333.420685 209.379252 335.76626 207.508884 
L 343.333184 201.474999 
Q 345.678759 199.604631 343.808391 197.259056 
L 339.841653 192.284482 
Q 337.971285 189.938906 335.625709 191.809274 
L 328.058785 197.843159 
Q 325.71321 199.713527 327.583578 202.059102 
z
" clip-path="url(#pc2a4ab7e8a)" style="fill: #ffffff; stroke: #ffffff; stroke-linejoin: miter"/>
    </g>
    <g clip-path="url(#pc2a4ab7e8a)">
     <!-- 4 -->
     <g transform="translate(331.555175 198.892141) rotate(-308.568949) scale(0.1 -0.1)">
      <use xlink:href="#DejaVuSans-34"/>
     </g>
    </g>
   </g>
   <g id="text_5">
    <g id="patch_7">
     <path d="M 226.562874 274.554911 
L 231.316456 278.78396 
Q 233.557831 280.778011 235.551882 278.536636 
L 241.984773 271.305867 
Q 243.978824 269.064492 241.737449 267.070441 
L 236.983866 262.841392 
Q 234.742491 260.847341 232.748441 263.088716 
L 226.31555 270.319485 
Q 224.321499 272.56086 226.562874 274.554911 
z
" clip-path="url(#pc2a4ab7e8a)" style="fill: #ffffff; stroke: #ffffff; stroke-linejoin: miter"/>
    </g>
    <g clip-path="url(#pc2a4ab7e8a)">
     <!-- 5 -->
     <g transform="translate(229.939259 270.759749) rotate(-318.341944) scale(0.1 -0.1)">
      <defs>
       <path id="DejaVuSans-35" d="M 691 4666 
L 3169 4666 
L 3169 4134 
L 1269 4134 
L 1269 2991 
Q 1406 3038 1543 3061 
Q 1681 3084 1819 3084 
Q 2600 3084 3056 2656 
Q 3513 2228 3513 1497 
Q 3513 744 3044 326 
Q 2575 -91 1722 -91 
Q 1428 -91 1123 -41 
Q 819 9 494 109 
L 494 744 
Q 775 591 1075 516 
Q 1375 441 1709 441 
Q 2250 441 2565 725 
Q 2881 1009 2881 1497 
Q 2881 1984 2565 2268 
Q 2250 2553 1709 2553 
Q 1456 2553 1204 2497 
Q 953 2441 691 2322 
L 691 4666 
z
" transform="scale(0.015625)"/>
      </defs>
      <use xlink:href="#DejaVuSans-35"/>
     </g>
    </g>
   </g>
   <g id="text_6">
    <g id="patch_8">
     <path d="M 320.273833 333.833012 
L 325.388205 337.617799 
Q 327.799697 339.402374 329.584272 336.990882 
L 335.341385 329.21131 
Q 337.12596 326.799818 334.714469 325.015243 
L 329.600097 321.230457 
Q 327.188605 319.445882 325.40403 321.857373 
L 319.646917 329.636946 
Q 317.862342 332.048437 320.273833 333.833012 
z
" clip-path="url(#pc2a4ab7e8a)" style="fill: #ffffff; stroke: #ffffff; stroke-linejoin: miter"/>
    </g>
    <g clip-path="url(#pc2a4ab7e8a)">
     <!-- 3 -->
     <g transform="translate(323.295528 329.749804) rotate(-323.497465) scale(0.1 -0.1)">
      <defs>
       <path id="DejaVuSans-33" d="M 2597 2516 
Q 3050 2419 3304 2112 
Q 3559 1806 3559 1356 
Q 3559 666 3084 287 
Q 2609 -91 1734 -91 
Q 1441 -91 1130 -33 
Q 819 25 488 141 
L 488 750 
Q 750 597 1062 519 
Q 1375 441 1716 441 
Q 2309 441 2620 675 
Q 2931 909 2931 1356 
Q 2931 1769 2642 2001 
Q 2353 2234 1838 2234 
L 1294 2234 
L 1294 2753 
L 1863 2753 
Q 2328 2753 2575 2939 
Q 2822 3125 2822 3475 
Q 2822 3834 2567 4026 
Q 2313 4219 1838 4219 
Q 1578 4219 1281 4162 
Q 984 4106 628 3988 
L 628 4550 
Q 988 4650 1302 4700 
Q 1616 4750 1894 4750 
Q 2613 4750 3031 4423 
Q 3450 4097 3450 3541 
Q 3450 3153 3228 2886 
Q 3006 2619 2597 2516 
z
" transform="scale(0.015625)"/>
      </defs>
      <use xlink:href="#DejaVuSans-33"/>
     </g>
    </g>
   </g>
   <g id="text_7">
    <g id="patch_9">
     <path d="M 172.472568 243.876054 
L 177.98624 255.344491 
Q 179.286123 258.048248 181.98988 256.748365 
L 190.712314 252.554887 
Q 193.416071 251.255004 192.116188 248.551247 
L 186.602516 237.08281 
Q 185.302633 234.379052 182.598876 235.678936 
L 173.876442 239.872413 
Q 171.172685 241.172297 172.472568 243.876054 
z
" clip-path="url(#pc2a4ab7e8a)" style="fill: #ffffff; stroke: #ffffff; stroke-linejoin: miter"/>
    </g>
    <g clip-path="url(#pc2a4ab7e8a)">
     <!-- 11 -->
     <g transform="translate(177.050649 241.675054) rotate(-295.676816) scale(0.1 -0.1)">
      <use xlink:href="#DejaVuSans-31"/>
      <use xlink:href="#DejaVuSans-31" x="63.623047"/>
     </g>
    </g>
   </g>
   <g id="text_8">
    <g id="patch_10">
     <path d="M 161.292237 310.498204 
L 161.96235 304.171092 
Q 162.278317 301.187777 159.295002 300.87181 
L 149.670706 299.852488 
Q 146.687391 299.536521 146.371425 302.519836 
L 145.701312 308.846949 
Q 145.385345 311.830263 148.368659 312.14623 
L 157.992956 313.165552 
Q 160.97627 313.481519 161.292237 310.498204 
z
" clip-path="url(#pc2a4ab7e8a)" style="fill: #ffffff; stroke: #ffffff; stroke-linejoin: miter"/>
    </g>
    <g clip-path="url(#pc2a4ab7e8a)">
     <!-- 3 -->
     <g transform="translate(156.240802 309.9632) rotate(-83.954266) scale(0.1 -0.1)">
      <use xlink:href="#DejaVuSans-33"/>
     </g>
    </g>
   </g>
   <g id="text_9">
    <g id="patch_11">
     <path d="M 394.851641 358.658268 
L 396.41537 364.825614 
Q 397.152688 367.733597 400.060671 366.996279 
L 409.441943 364.61766 
Q 412.349926 363.880342 411.612608 360.972359 
L 410.048879 354.805013 
Q 409.311561 351.897031 406.403578 352.634349 
L 397.022306 355.012968 
Q 394.114323 355.750286 394.851641 358.658268 
z
" clip-path="url(#pc2a4ab7e8a)" style="fill: #ffffff; stroke: #ffffff; stroke-linejoin: miter"/>
    </g>
    <g clip-path="url(#pc2a4ab7e8a)">
     <!-- 2 -->
     <g transform="translate(399.775522 357.40982) rotate(-284.227502) scale(0.1 -0.1)">
      <defs>
       <path id="DejaVuSans-32" d="M 1228 531 
L 3431 531 
L 3431 0 
L 469 0 
L 469 531 
Q 828 903 1448 1529 
Q 2069 2156 2228 2338 
Q 2531 2678 2651 2914 
Q 2772 3150 2772 3378 
Q 2772 3750 2511 3984 
Q 2250 4219 1831 4219 
Q 1534 4219 1204 4116 
Q 875 4013 500 3803 
L 500 4441 
Q 881 4594 1212 4672 
Q 1544 4750 1819 4750 
Q 2544 4750 2975 4387 
Q 3406 4025 3406 3419 
Q 3406 3131 3298 2873 
Q 3191 2616 2906 2266 
Q 2828 2175 2409 1742 
Q 1991 1309 1228 531 
z
" transform="scale(0.015625)"/>
      </defs>
      <use xlink:href="#DejaVuSans-32"/>
     </g>
    </g>
   </g>
   <g id="text_10">
    <g id="patch_12">
     <path d="M 362.754691 399.445704 
L 366.624582 404.495986 
Q 368.449285 406.877259 370.830557 405.052556 
L 378.512642 399.165988 
Q 380.893914 397.341285 379.069211 394.960012 
L 375.199321 389.90973 
Q 373.374618 387.528458 370.993345 389.353161 
L 363.31126 395.239728 
Q 360.929988 397.064431 362.754691 399.445704 
z
" clip-path="url(#pc2a4ab7e8a)" style="fill: #ffffff; stroke: #ffffff; stroke-linejoin: miter"/>
    </g>
    <g clip-path="url(#pc2a4ab7e8a)">
     <!-- 4 -->
     <g transform="translate(366.786731 396.356064) rotate(-307.461942) scale(0.1 -0.1)">
      <use xlink:href="#DejaVuSans-34"/>
     </g>
    </g>
   </g>
   <g id="text_11">
    <g id="patch_13">
     <path d="M 290.996862 344.96925 
L 297.359306 344.995945 
Q 300.359279 345.008533 300.371867 342.008559 
L 300.412474 332.330519 
Q 300.425061 329.330546 297.425087 329.317958 
L 291.062643 329.291263 
Q 288.06267 329.278676 288.050082 332.278649 
L 288.009475 341.956689 
Q 287.996888 344.956663 290.996862 344.96925 
z
" clip-path="url(#pc2a4ab7e8a)" style="fill: #ffffff; stroke: #ffffff; stroke-linejoin: miter"/>
    </g>
    <g clip-path="url(#pc2a4ab7e8a)">
     <!-- 7 -->
     <g transform="translate(291.018175 339.889607) rotate(-359.7596) scale(0.1 -0.1)">
      <defs>
       <path id="DejaVuSans-37" d="M 525 4666 
L 3525 4666 
L 3525 4397 
L 1831 0 
L 1172 0 
L 2766 4134 
L 525 4134 
L 525 4666 
z
" transform="scale(0.015625)"/>
      </defs>
      <use xlink:href="#DejaVuSans-37"/>
     </g>
    </g>
   </g>
   <g id="text_12">
    <g id="patch_14">
     <path d="M 244.25502 298.250222 
L 256.14999 293.729677 
Q 258.954305 292.663929 257.888557 289.859614 
L 254.450412 280.812777 
Q 253.384665 278.008462 250.58035 279.07421 
L 238.68538 283.594755 
Q 235.881065 284.660502 236.946812 287.464817 
L 240.384958 296.511654 
Q 241.450705 299.315969 244.25502 298.250222 
z
" clip-path="url(#pc2a4ab7e8a)" style="fill: #ffffff; stroke: #ffffff; stroke-linejoin: miter"/>
    </g>
    <g clip-path="url(#pc2a4ab7e8a)">
     <!-- 20 -->
     <g transform="translate(242.450466 293.501874) rotate(-20.808713) scale(0.1 -0.1)">
      <use xlink:href="#DejaVuSans-32"/>
      <use xlink:href="#DejaVuSans-30" x="63.623047"/>
     </g>
    </g>
   </g>
   <g id="text_13">
    <g id="patch_15">
     <path d="M 110.61033 212.803861 
L 110.949891 225.52433 
Q 111.029945 228.523262 114.028876 228.443208 
L 123.703555 228.184952 
Q 126.702487 228.104898 126.622433 225.105966 
L 126.282872 212.385498 
Q 126.202819 209.386566 123.203887 209.46662 
L 113.529208 209.724876 
Q 110.530277 209.804929 110.61033 212.803861 
z
" clip-path="url(#pc2a4ab7e8a)" style="fill: #ffffff; stroke: #ffffff; stroke-linejoin: miter"/>
    </g>
    <g clip-path="url(#pc2a4ab7e8a)">
     <!-- 12 -->
     <g transform="translate(115.688209 212.668312) rotate(-271.529093) scale(0.1 -0.1)">
      <use xlink:href="#DejaVuSans-31"/>
      <use xlink:href="#DejaVuSans-32" x="63.623047"/>
     </g>
    </g>
   </g>
   <g id="text_14">
    <g id="patch_16">
     <path d="M 202.417142 345.186766 
L 208.779222 345.259893 
Q 211.779024 345.294374 211.813505 342.294572 
L 211.92474 332.617086 
Q 211.95922 329.617284 208.959419 329.582804 
L 202.597339 329.509676 
Q 199.597537 329.475196 199.563057 332.474998 
L 199.451821 342.152484 
Q 199.417341 345.152285 202.417142 345.186766 
z
" clip-path="url(#pc2a4ab7e8a)" style="fill: #ffffff; stroke: #ffffff; stroke-linejoin: miter"/>
    </g>
    <g clip-path="url(#pc2a4ab7e8a)">
     <!-- 5 -->
     <g transform="translate(202.475526 340.107414) rotate(-359.341457) scale(0.1 -0.1)">
      <use xlink:href="#DejaVuSans-35"/>
     </g>
    </g>
   </g>
   <g id="text_15">
    <g id="patch_17">
     <path d="M 291.320989 364.207693 
L 303.9593 365.690496 
Q 306.938863 366.040077 307.288443 363.060514 
L 308.416204 353.448321 
Q 308.765784 350.468758 305.786222 350.119178 
L 293.14791 348.636374 
Q 290.168347 348.286794 289.818767 351.266357 
L 288.691006 360.87855 
Q 288.341426 363.858113 291.320989 364.207693 
z
" clip-path="url(#pc2a4ab7e8a)" style="fill: #ffffff; stroke: #ffffff; stroke-linejoin: miter"/>
    </g>
    <g clip-path="url(#pc2a4ab7e8a)">
     <!-- 13 -->
     <g transform="translate(291.912908 359.162611) rotate(-353.308305) scale(0.1 -0.1)">
      <use xlink:href="#DejaVuSans-31"/>
      <use xlink:href="#DejaVuSans-33" x="63.623047"/>
     </g>
    </g>
   </g>
   <g id="text_16">
    <g id="patch_18">
     <path d="M 305.393445 218.538794 
L 314.377818 227.550269 
Q 316.495941 229.674782 318.620453 227.556658 
L 325.47422 220.723505 
Q 327.598733 218.605382 325.480609 216.480869 
L 316.496237 207.469394 
Q 314.378114 205.344881 312.253601 207.463005 
L 305.399835 214.296158 
Q 303.275322 216.414281 305.393445 218.538794 
z
" clip-path="url(#pc2a4ab7e8a)" style="fill: #ffffff; stroke: #ffffff; stroke-linejoin: miter"/>
    </g>
    <g clip-path="url(#pc2a4ab7e8a)">
     <!-- 10 -->
     <g transform="translate(308.990732 214.952326) rotate(-314.913711) scale(0.1 -0.1)">
      <use xlink:href="#DejaVuSans-31"/>
      <use xlink:href="#DejaVuSans-30" x="63.623047"/>
     </g>
    </g>
   </g>
   <g id="text_17">
    <g id="patch_19">
     <path d="M 340.714177 285.005207 
L 345.771811 288.865484 
Q 348.15655 290.685654 349.97672 288.300915 
L 355.848665 280.607648 
Q 357.668835 278.222909 355.284096 276.402738 
L 350.226462 272.542461 
Q 347.841723 270.722291 346.021552 273.10703 
L 340.149608 280.800297 
Q 338.329437 283.185036 340.714177 285.005207 
z
" clip-path="url(#pc2a4ab7e8a)" style="fill: #ffffff; stroke: #ffffff; stroke-linejoin: miter"/>
    </g>
    <g clip-path="url(#pc2a4ab7e8a)">
     <!-- 7 -->
     <g transform="translate(343.796142 280.967297) rotate(-322.647042) scale(0.1 -0.1)">
      <use xlink:href="#DejaVuSans-37"/>
     </g>
    </g>
   </g>
   <g id="text_18">
    <g id="patch_20">
     <path d="M 239.591855 249.308209 
L 245.134743 252.431956 
Q 247.748286 253.904842 249.221172 251.291299 
L 253.972765 242.859901 
Q 255.445652 240.246359 252.832109 238.773472 
L 247.28922 235.649726 
Q 244.675678 234.176839 243.202791 236.790382 
L 238.451198 245.22178 
Q 236.978312 247.835323 239.591855 249.308209 
z
" clip-path="url(#pc2a4ab7e8a)" style="fill: #ffffff; stroke: #ffffff; stroke-linejoin: miter"/>
    </g>
    <g clip-path="url(#pc2a4ab7e8a)">
     <!-- 2 -->
     <g transform="translate(242.085789 244.882882) rotate(-330.596161) scale(0.1 -0.1)">
      <use xlink:href="#DejaVuSans-32"/>
     </g>
    </g>
   </g>
   <g id="text_19">
    <g id="patch_21">
     <path d="M 210.440199 348.615973 
L 223.165162 348.585311 
Q 226.165154 348.578082 226.157925 345.578091 
L 226.134604 335.899994 
Q 226.127375 332.900003 223.127384 332.907231 
L 210.402421 332.937894 
Q 207.40243 332.945123 207.409658 335.945114 
L 207.432979 345.623211 
Q 207.440208 348.623202 210.440199 348.615973 
z
" clip-path="url(#pc2a4ab7e8a)" style="fill: #ffffff; stroke: #ffffff; stroke-linejoin: miter"/>
    </g>
    <g clip-path="url(#pc2a4ab7e8a)">
     <!-- 16 -->
     <g transform="translate(210.427959 343.536301) rotate(-0.138062) scale(0.1 -0.1)">
      <defs>
       <path id="DejaVuSans-36" d="M 2113 2584 
Q 1688 2584 1439 2293 
Q 1191 2003 1191 1497 
Q 1191 994 1439 701 
Q 1688 409 2113 409 
Q 2538 409 2786 701 
Q 3034 994 3034 1497 
Q 3034 2003 2786 2293 
Q 2538 2584 2113 2584 
z
M 3366 4563 
L 3366 3988 
Q 3128 4100 2886 4159 
Q 2644 4219 2406 4219 
Q 1781 4219 1451 3797 
Q 1122 3375 1075 2522 
Q 1259 2794 1537 2939 
Q 1816 3084 2150 3084 
Q 2853 3084 3261 2657 
Q 3669 2231 3669 1497 
Q 3669 778 3244 343 
Q 2819 -91 2113 -91 
Q 1303 -91 875 529 
Q 447 1150 447 2328 
Q 447 3434 972 4092 
Q 1497 4750 2381 4750 
Q 2619 4750 2861 4703 
Q 3103 4656 3366 4563 
z
" transform="scale(0.015625)"/>
      </defs>
      <use xlink:href="#DejaVuSans-31"/>
      <use xlink:href="#DejaVuSans-36" x="63.623047"/>
     </g>
    </g>
   </g>
   <g id="text_20">
    <g id="patch_22">
     <path d="M 412.75063 399.235868 
L 415.336559 386.776389 
Q 415.946209 383.838988 413.008807 383.229339 
L 403.532628 381.262584 
Q 400.595226 380.652935 399.985577 383.590336 
L 397.399647 396.049815 
Q 396.789998 398.987216 399.727399 399.596865 
L 409.203579 401.56362 
Q 412.140981 402.173269 412.75063 399.235868 
z
" clip-path="url(#pc2a4ab7e8a)" style="fill: #ffffff; stroke: #ffffff; stroke-linejoin: miter"/>
    </g>
    <g clip-path="url(#pc2a4ab7e8a)">
     <!-- 13 -->
     <g transform="translate(407.776936 398.203591) rotate(-78.274888) scale(0.1 -0.1)">
      <use xlink:href="#DejaVuSans-31"/>
      <use xlink:href="#DejaVuSans-33" x="63.623047"/>
     </g>
    </g>
   </g>
   <g id="text_21">
    <g id="patch_23">
     <path d="M 70.841556 240.806773 
L 73.165316 246.72974 
Q 74.260999 249.522495 77.053754 248.426813 
L 86.063297 244.892095 
Q 88.856052 243.796412 87.76037 241.003657 
L 85.436609 235.08069 
Q 84.340927 232.287935 81.548172 233.383618 
L 72.538628 236.918335 
Q 69.745874 238.014018 70.841556 240.806773 
z
" clip-path="url(#pc2a4ab7e8a)" style="fill: #ffffff; stroke: #ffffff; stroke-linejoin: miter"/>
    </g>
    <g clip-path="url(#pc2a4ab7e8a)">
     <!-- 6 -->
     <g transform="translate(75.57033 238.951531) rotate(-291.421586) scale(0.1 -0.1)">
      <use xlink:href="#DejaVuSans-36"/>
     </g>
    </g>
   </g>
   <g id="text_22">
    <g id="patch_24">
     <path d="M 121.079713 247.353265 
L 122.249972 260.024339 
Q 122.525867 263.011626 125.513154 262.73573 
L 135.150265 261.845679 
Q 138.137552 261.569783 137.861656 258.582496 
L 136.691398 245.911422 
Q 136.415502 242.924135 133.428215 243.200031 
L 123.791104 244.090083 
Q 120.803817 244.365979 121.079713 247.353265 
z
" clip-path="url(#pc2a4ab7e8a)" style="fill: #ffffff; stroke: #ffffff; stroke-linejoin: miter"/>
    </g>
    <g clip-path="url(#pc2a4ab7e8a)">
     <!-- 13 -->
     <g transform="translate(126.137874 246.88611) rotate(-275.276679) scale(0.1 -0.1)">
      <use xlink:href="#DejaVuSans-31"/>
      <use xlink:href="#DejaVuSans-33" x="63.623047"/>
     </g>
    </g>
   </g>
   <g id="text_23">
    <g id="patch_25">
     <path d="M 100.953227 367.105657 
L 105.105832 371.926163 
Q 107.063838 374.199093 109.336768 372.241087 
L 116.669336 365.924477 
Q 118.942266 363.966471 116.98426 361.693541 
L 112.831655 356.873035 
Q 110.873649 354.600105 108.600719 356.558111 
L 101.268151 362.87472 
Q 98.995221 364.832726 100.953227 367.105657 
z
" clip-path="url(#pc2a4ab7e8a)" style="fill: #ffffff; stroke: #ffffff; stroke-linejoin: miter"/>
    </g>
    <g clip-path="url(#pc2a4ab7e8a)">
     <!-- 6 -->
     <g transform="translate(104.801819 363.790303) rotate(-310.743116) scale(0.1 -0.1)">
      <use xlink:href="#DejaVuSans-36"/>
     </g>
    </g>
   </g>
   <g id="text_24">
    <g id="patch_26">
     <path d="M 258.923267 192.67058 
L 265.281944 192.891112 
Q 268.280141 192.995096 268.384125 189.996899 
L 268.719581 180.324589 
Q 268.823565 177.326392 265.825367 177.222408 
L 259.46669 177.001876 
Q 256.468493 176.897892 256.364509 179.89609 
L 256.029054 189.568399 
Q 255.92507 192.566597 258.923267 192.67058 
z
" clip-path="url(#pc2a4ab7e8a)" style="fill: #ffffff; stroke: #ffffff; stroke-linejoin: miter"/>
    </g>
    <g clip-path="url(#pc2a4ab7e8a)">
     <!-- 7 -->
     <g transform="translate(259.099335 187.593945) rotate(-358.013659) scale(0.1 -0.1)">
      <use xlink:href="#DejaVuSans-37"/>
     </g>
    </g>
   </g>
   <g id="text_25">
    <g id="patch_27">
     <path d="M 352.345302 202.850856 
L 358.683755 203.403496 
Q 361.672417 203.664074 361.932994 200.675412 
L 362.773628 191.033864 
Q 363.034205 188.045203 360.045543 187.784625 
L 353.707089 187.231984 
Q 350.718428 186.971407 350.45785 189.960069 
L 349.617217 199.601616 
Q 349.35664 202.590278 352.345302 202.850856 
z
" clip-path="url(#pc2a4ab7e8a)" style="fill: #ffffff; stroke: #ffffff; stroke-linejoin: miter"/>
    </g>
    <g clip-path="url(#pc2a4ab7e8a)">
     <!-- 6 -->
     <g transform="translate(352.786519 197.790366) rotate(-355.017062) scale(0.1 -0.1)">
      <use xlink:href="#DejaVuSans-36"/>
     </g>
    </g>
   </g>
   <g id="text_26">
    <g id="patch_28">
     <path d="M 174.020989 244.725569 
L 178.371172 240.082585 
Q 180.42234 237.893358 178.233113 235.842191 
L 171.170577 229.22504 
Q 168.98135 227.173873 166.930183 229.363099 
L 162.579999 234.006084 
Q 160.528832 236.19531 162.718059 238.246478 
L 169.780595 244.863629 
Q 171.969821 246.914796 174.020989 244.725569 
z
" clip-path="url(#pc2a4ab7e8a)" style="fill: #ffffff; stroke: #ffffff; stroke-linejoin: miter"/>
    </g>
    <g clip-path="url(#pc2a4ab7e8a)">
     <!-- 5 -->
     <g transform="translate(170.314126 241.252473) rotate(-46.864785) scale(0.1 -0.1)">
      <use xlink:href="#DejaVuSans-35"/>
     </g>
    </g>
   </g>
   <g id="text_27">
    <g id="patch_29">
     <path d="M 139.995781 171.74455 
L 152.352824 174.782494 
Q 155.266076 175.498709 155.982291 172.585457 
L 158.292829 163.187185 
Q 159.009044 160.273933 156.095792 159.557719 
L 143.738749 156.519774 
Q 140.825497 155.80356 140.109282 158.716811 
L 137.798744 168.115083 
Q 137.082529 171.028335 139.995781 171.74455 
z
" clip-path="url(#pc2a4ab7e8a)" style="fill: #ffffff; stroke: #ffffff; stroke-linejoin: miter"/>
    </g>
    <g clip-path="url(#pc2a4ab7e8a)">
     <!-- 10 -->
     <g transform="translate(141.208496 166.811747) rotate(-346.187917) scale(0.1 -0.1)">
      <use xlink:href="#DejaVuSans-31"/>
      <use xlink:href="#DejaVuSans-30" x="63.623047"/>
     </g>
    </g>
   </g>
   <g id="text_28">
    <g id="patch_30">
     <path d="M 165.96789 342.034379 
L 168.321199 336.123089 
Q 169.430815 333.335841 166.643567 332.226225 
L 157.651787 328.64656 
Q 154.864539 327.536944 153.754923 330.324193 
L 151.401614 336.235482 
Q 150.291998 339.02273 153.079247 340.132346 
L 162.071026 343.712011 
Q 164.858275 344.821627 165.96789 342.034379 
z
" clip-path="url(#pc2a4ab7e8a)" style="fill: #ffffff; stroke: #ffffff; stroke-linejoin: miter"/>
    </g>
    <g clip-path="url(#pc2a4ab7e8a)">
     <!-- 1 -->
     <g transform="translate(161.24844 340.155545) rotate(-68.292288) scale(0.1 -0.1)">
      <use xlink:href="#DejaVuSans-31"/>
     </g>
    </g>
   </g>
   <g id="text_29">
    <g id="patch_31">
     <path d="M 133.775488 313.510412 
L 145.888602 309.611939 
Q 148.744346 308.692849 147.825256 305.837105 
L 144.860234 296.624356 
Q 143.941144 293.768612 141.0854 294.687702 
L 128.972286 298.586175 
Q 126.116542 299.505265 127.035632 302.361009 
L 130.000655 311.573758 
Q 130.919745 314.429502 133.775488 313.510412 
z
" clip-path="url(#pc2a4ab7e8a)" style="fill: #ffffff; stroke: #ffffff; stroke-linejoin: miter"/>
    </g>
    <g clip-path="url(#pc2a4ab7e8a)">
     <!-- 15 -->
     <g transform="translate(132.219258 308.674983) rotate(-17.840204) scale(0.1 -0.1)">
      <use xlink:href="#DejaVuSans-31"/>
      <use xlink:href="#DejaVuSans-35" x="63.623047"/>
     </g>
    </g>
   </g>
   <g id="text_30">
    <g id="patch_32">
     <path d="M 178.369148 338.970948 
L 184.71824 339.383782 
Q 187.711918 339.578438 187.906574 336.58476 
L 188.534544 326.927029 
Q 188.7292 323.933351 185.735522 323.738695 
L 179.386429 323.325862 
Q 176.392751 323.131205 176.198095 326.124884 
L 175.570126 335.782614 
Q 175.375469 338.776292 178.369148 338.970948 
z
" clip-path="url(#pc2a4ab7e8a)" style="fill: #ffffff; stroke: #ffffff; stroke-linejoin: miter"/>
    </g>
    <g clip-path="url(#pc2a4ab7e8a)">
     <!-- 9 -->
     <g transform="translate(178.698745 333.901965) rotate(-356.279727) scale(0.1 -0.1)">
      <defs>
       <path id="DejaVuSans-39" d="M 703 97 
L 703 672 
Q 941 559 1184 500 
Q 1428 441 1663 441 
Q 2288 441 2617 861 
Q 2947 1281 2994 2138 
Q 2813 1869 2534 1725 
Q 2256 1581 1919 1581 
Q 1219 1581 811 2004 
Q 403 2428 403 3163 
Q 403 3881 828 4315 
Q 1253 4750 1959 4750 
Q 2769 4750 3195 4129 
Q 3622 3509 3622 2328 
Q 3622 1225 3098 567 
Q 2575 -91 1691 -91 
Q 1453 -91 1209 -44 
Q 966 3 703 97 
z
M 1959 2075 
Q 2384 2075 2632 2365 
Q 2881 2656 2881 3163 
Q 2881 3666 2632 3958 
Q 2384 4250 1959 4250 
Q 1534 4250 1286 3958 
Q 1038 3666 1038 3163 
Q 1038 2656 1286 2365 
Q 1534 2075 1959 2075 
z
" transform="scale(0.015625)"/>
      </defs>
      <use xlink:href="#DejaVuSans-39"/>
     </g>
    </g>
   </g>
   <g id="text_31">
    <g id="patch_33">
     <path d="M 60.38623 96.309684 
L 66.572504 97.796769 
Q 69.489411 98.497949 70.190591 95.581042 
L 72.452625 86.170978 
Q 73.153805 83.254071 70.236898 82.552891 
L 64.050624 81.065806 
Q 61.133717 80.364626 60.432537 83.281533 
L 58.170502 92.691597 
Q 57.469323 95.608504 60.38623 96.309684 
z
" clip-path="url(#pc2a4ab7e8a)" style="fill: #ffffff; stroke: #ffffff; stroke-linejoin: miter"/>
    </g>
    <g clip-path="url(#pc2a4ab7e8a)">
     <!-- 9 -->
     <g transform="translate(61.573488 91.370692) rotate(-346.483432) scale(0.1 -0.1)">
      <use xlink:href="#DejaVuSans-39"/>
     </g>
    </g>
   </g>
   <g id="text_32">
    <g id="patch_34">
     <path d="M 181.922138 111.747488 
L 194.638761 112.209148 
Q 197.636786 112.317987 197.745625 109.319962 
L 198.096745 99.648208 
Q 198.205584 96.650183 195.207559 96.541344 
L 182.490936 96.079685 
Q 179.492911 95.970845 179.384072 98.96887 
L 179.032952 108.640624 
Q 178.924113 111.638649 181.922138 111.747488 
z
" clip-path="url(#pc2a4ab7e8a)" style="fill: #ffffff; stroke: #ffffff; stroke-linejoin: miter"/>
    </g>
    <g clip-path="url(#pc2a4ab7e8a)">
     <!-- 10 -->
     <g transform="translate(182.106428 106.671145) rotate(-357.920868) scale(0.1 -0.1)">
      <use xlink:href="#DejaVuSans-31"/>
      <use xlink:href="#DejaVuSans-30" x="63.623047"/>
     </g>
    </g>
   </g>
   <g id="text_33">
    <g id="patch_35">
     <path d="M 114.225272 161.395041 
L 115.625391 174.04278 
Q 115.955478 177.024565 118.937263 176.694478 
L 128.556626 175.629604 
Q 131.538411 175.299517 131.208325 172.317732 
L 129.808206 159.669993 
Q 129.478119 156.688208 126.496334 157.018295 
L 116.876971 158.083169 
Q 113.895186 158.413256 114.225272 161.395041 
z
" clip-path="url(#pc2a4ab7e8a)" style="fill: #ffffff; stroke: #ffffff; stroke-linejoin: miter"/>
    </g>
    <g clip-path="url(#pc2a4ab7e8a)">
     <!-- 17 -->
     <g transform="translate(119.274118 160.836128) rotate(-276.316986) scale(0.1 -0.1)">
      <use xlink:href="#DejaVuSans-31"/>
      <use xlink:href="#DejaVuSans-37" x="63.623047"/>
     </g>
    </g>
   </g>
   <g id="text_34">
    <g id="patch_36">
     <path d="M 261.663273 111.871742 
L 274.386352 112.092838 
Q 277.385899 112.144963 277.438024 109.145416 
L 277.606181 99.468752 
Q 277.658306 96.469204 274.658759 96.41708 
L 261.93568 96.195983 
Q 258.936132 96.143859 258.884008 99.143406 
L 258.715851 108.82007 
Q 258.663726 111.819617 261.663273 111.871742 
z
" clip-path="url(#pc2a4ab7e8a)" style="fill: #ffffff; stroke: #ffffff; stroke-linejoin: miter"/>
    </g>
    <g clip-path="url(#pc2a4ab7e8a)">
     <!-- 11 -->
     <g transform="translate(261.751532 106.792821) rotate(-359.004439) scale(0.1 -0.1)">
      <use xlink:href="#DejaVuSans-31"/>
      <use xlink:href="#DejaVuSans-31" x="63.623047"/>
     </g>
    </g>
   </g>
   <g id="text_35">
    <g id="patch_37">
     <path d="M 376.273251 339.439955 
L 376.984172 345.762612 
Q 377.31938 348.743826 380.300594 348.408618 
L 389.918114 347.327222 
Q 392.899327 346.992014 392.564119 344.0108 
L 391.853198 337.688142 
Q 391.51799 334.706929 388.536776 335.042137 
L 378.919256 336.123533 
Q 375.938043 336.458741 376.273251 339.439955 
z
" clip-path="url(#pc2a4ab7e8a)" style="fill: #ffffff; stroke: #ffffff; stroke-linejoin: miter"/>
    </g>
    <g clip-path="url(#pc2a4ab7e8a)">
     <!-- 7 -->
     <g transform="translate(381.321129 338.87237) rotate(-276.415403) scale(0.1 -0.1)">
      <use xlink:href="#DejaVuSans-37"/>
     </g>
    </g>
   </g>
   <g id="text_36">
    <g id="patch_38">
     <path d="M 339.831848 387.947651 
L 347.999317 397.705627 
Q 349.924849 400.006132 352.225355 398.080599 
L 359.64688 391.86875 
Q 361.947385 389.943217 360.021852 387.642712 
L 351.854383 377.884737 
Q 349.92885 375.584232 347.628345 377.509765 
L 340.20682 383.721614 
Q 337.906315 385.647146 339.831848 387.947651 
z
" clip-path="url(#pc2a4ab7e8a)" style="fill: #ffffff; stroke: #ffffff; stroke-linejoin: miter"/>
    </g>
    <g clip-path="url(#pc2a4ab7e8a)">
     <!-- 11 -->
     <g transform="translate(343.72713 384.687283) rotate(-309.92948) scale(0.1 -0.1)">
      <use xlink:href="#DejaVuSans-31"/>
      <use xlink:href="#DejaVuSans-31" x="63.623047"/>
     </g>
    </g>
   </g>
   <g id="text_37">
    <g id="patch_39">
     <path d="M 439.46817 453.963167 
L 445.809788 454.478222 
Q 448.799942 454.721077 449.042797 451.730923 
L 449.826258 442.084562 
Q 450.069113 439.094407 447.078959 438.851552 
L 440.737341 438.336497 
Q 437.747187 438.093642 437.504332 441.083796 
L 436.720871 450.730158 
Q 436.478016 453.720312 439.46817 453.963167 
z
" clip-path="url(#pc2a4ab7e8a)" style="fill: #ffffff; stroke: #ffffff; stroke-linejoin: miter"/>
    </g>
    <g clip-path="url(#pc2a4ab7e8a)">
     <!-- 8 -->
     <g transform="translate(439.879379 448.900151) rotate(-355.356727) scale(0.1 -0.1)">
      <defs>
       <path id="DejaVuSans-38" d="M 2034 2216 
Q 1584 2216 1326 1975 
Q 1069 1734 1069 1313 
Q 1069 891 1326 650 
Q 1584 409 2034 409 
Q 2484 409 2743 651 
Q 3003 894 3003 1313 
Q 3003 1734 2745 1975 
Q 2488 2216 2034 2216 
z
M 1403 2484 
Q 997 2584 770 2862 
Q 544 3141 544 3541 
Q 544 4100 942 4425 
Q 1341 4750 2034 4750 
Q 2731 4750 3128 4425 
Q 3525 4100 3525 3541 
Q 3525 3141 3298 2862 
Q 3072 2584 2669 2484 
Q 3125 2378 3379 2068 
Q 3634 1759 3634 1313 
Q 3634 634 3220 271 
Q 2806 -91 2034 -91 
Q 1263 -91 848 271 
Q 434 634 434 1313 
Q 434 1759 690 2068 
Q 947 2378 1403 2484 
z
M 1172 3481 
Q 1172 3119 1398 2916 
Q 1625 2713 2034 2713 
Q 2441 2713 2670 2916 
Q 2900 3119 2900 3481 
Q 2900 3844 2670 4047 
Q 2441 4250 2034 4250 
Q 1625 4250 1398 4047 
Q 1172 3844 1172 3481 
z
" transform="scale(0.015625)"/>
      </defs>
      <use xlink:href="#DejaVuSans-38"/>
     </g>
    </g>
   </g>
   <g id="text_38">
    <g id="patch_40">
     <path d="M 342.033565 378.31566 
L 349.247718 388.798104 
Q 350.9485 391.269407 353.419803 389.568624 
L 361.39233 384.081828 
Q 363.863633 382.381046 362.16285 379.909743 
L 354.948697 369.427299 
Q 353.247914 366.955996 350.776611 368.656779 
L 342.804085 374.143575 
Q 340.332782 375.844357 342.033565 378.31566 
z
" clip-path="url(#pc2a4ab7e8a)" style="fill: #ffffff; stroke: #ffffff; stroke-linejoin: miter"/>
    </g>
    <g clip-path="url(#pc2a4ab7e8a)">
     <!-- 17 -->
     <g transform="translate(346.218047 375.435845) rotate(-304.536251) scale(0.1 -0.1)">
      <use xlink:href="#DejaVuSans-31"/>
      <use xlink:href="#DejaVuSans-37" x="63.623047"/>
     </g>
    </g>
   </g>
   <g id="text_39">
    <g id="patch_41">
     <path d="M 56.070609 80.462298 
L 62.389771 79.720944 
Q 65.369336 79.371386 65.019778 76.39182 
L 63.892089 66.779619 
Q 63.542531 63.800053 60.562966 64.149611 
L 54.243805 64.890965 
Q 51.26424 65.240523 51.613798 68.220089 
L 52.741486 77.83229 
Q 53.091044 80.811856 56.070609 80.462298 
z
" clip-path="url(#pc2a4ab7e8a)" style="fill: #ffffff; stroke: #ffffff; stroke-linejoin: miter"/>
    </g>
    <g clip-path="url(#pc2a4ab7e8a)">
     <!-- 6 -->
     <g transform="translate(55.478727 75.417211) rotate(-6.691264) scale(0.1 -0.1)">
      <use xlink:href="#DejaVuSans-36"/>
     </g>
    </g>
   </g>
   <g id="text_40">
    <g id="patch_42">
     <path d="M 111.241432 208.861627 
L 115.238581 213.8118 
Q 117.123288 216.145869 119.457357 214.261163 
L 126.987163 208.181021 
Q 129.321233 206.296314 127.436526 203.962244 
L 123.439377 199.012072 
Q 121.554671 196.678002 119.220601 198.562709 
L 111.690795 204.642851 
Q 109.356726 206.527558 111.241432 208.861627 
z
" clip-path="url(#pc2a4ab7e8a)" style="fill: #ffffff; stroke: #ffffff; stroke-linejoin: miter"/>
    </g>
    <g clip-path="url(#pc2a4ab7e8a)">
     <!-- 3 -->
     <g transform="translate(115.193547 205.670387) rotate(-308.920064) scale(0.1 -0.1)">
      <use xlink:href="#DejaVuSans-33"/>
     </g>
    </g>
   </g>
   <g id="text_41">
    <g id="patch_43">
     <path d="M 358.160406 279.739701 
L 363.899885 276.993835 
Q 366.606123 275.699124 365.311412 272.992886 
L 361.134621 264.262449 
Q 359.83991 261.556212 357.133672 262.850922 
L 351.394193 265.596789 
Q 348.687955 266.8915 349.982666 269.597737 
L 354.159457 278.328174 
Q 355.454168 281.034412 358.160406 279.739701 
z
" clip-path="url(#pc2a4ab7e8a)" style="fill: #ffffff; stroke: #ffffff; stroke-linejoin: miter"/>
    </g>
    <g clip-path="url(#pc2a4ab7e8a)">
     <!-- 4 -->
     <g transform="translate(355.968164 275.15742) rotate(-25.567257) scale(0.1 -0.1)">
      <use xlink:href="#DejaVuSans-34"/>
     </g>
    </g>
   </g>
   <g id="text_42">
    <g id="patch_44">
     <path d="M 389.62203 282.782462 
L 400.295297 275.853754 
Q 402.811588 274.220267 401.1781 271.703976 
L 395.908403 263.586317 
Q 394.274916 261.070026 391.758625 262.703513 
L 381.085358 269.632221 
Q 378.569067 271.265708 380.202554 273.781999 
L 385.472252 281.899658 
Q 387.105739 284.415949 389.62203 282.782462 
z
" clip-path="url(#pc2a4ab7e8a)" style="fill: #ffffff; stroke: #ffffff; stroke-linejoin: miter"/>
    </g>
    <g clip-path="url(#pc2a4ab7e8a)">
     <!-- 16 -->
     <g transform="translate(386.856161 278.521805) rotate(-32.990209) scale(0.1 -0.1)">
      <use xlink:href="#DejaVuSans-31"/>
      <use xlink:href="#DejaVuSans-36" x="63.623047"/>
     </g>
    </g>
   </g>
   <g id="text_43">
    <g id="patch_45">
     <path d="M 499.084151 335.095636 
L 499.134647 322.370737 
Q 499.146551 319.37076 496.146575 319.358856 
L 486.468526 319.320451 
Q 483.46855 319.308546 483.456645 322.308522 
L 483.40615 335.033422 
Q 483.394245 338.033399 486.394221 338.045303 
L 496.07227 338.083708 
Q 499.072246 338.095613 499.084151 335.095636 
z
" clip-path="url(#pc2a4ab7e8a)" style="fill: #ffffff; stroke: #ffffff; stroke-linejoin: miter"/>
    </g>
    <g clip-path="url(#pc2a4ab7e8a)">
     <!-- 18 -->
     <g transform="translate(494.004504 335.075479) rotate(-89.772637) scale(0.1 -0.1)">
      <use xlink:href="#DejaVuSans-31"/>
      <use xlink:href="#DejaVuSans-38" x="63.623047"/>
     </g>
    </g>
   </g>
   <g id="text_44">
    <g id="patch_46">
     <path d="M 475.180315 142.289803 
L 476.865443 154.902731 
Q 477.262723 157.87631 480.236301 157.47903 
L 489.829189 156.197389 
Q 492.802768 155.800109 492.405488 152.826531 
L 490.72036 140.213602 
Q 490.32308 137.240024 487.349502 137.637304 
L 477.756614 138.918945 
Q 474.783035 139.316224 475.180315 142.289803 
z
" clip-path="url(#pc2a4ab7e8a)" style="fill: #ffffff; stroke: #ffffff; stroke-linejoin: miter"/>
    </g>
    <g clip-path="url(#pc2a4ab7e8a)">
     <!-- 16 -->
     <g transform="translate(480.215265 141.617117) rotate(-277.609837) scale(0.1 -0.1)">
      <use xlink:href="#DejaVuSans-31"/>
      <use xlink:href="#DejaVuSans-36" x="63.623047"/>
     </g>
    </g>
   </g>
   <g id="text_45">
    <g id="patch_47">
     <path d="M 268.988384 302.040421 
L 269.020887 289.315462 
Q 269.028549 286.315472 266.028559 286.307809 
L 256.350466 286.283089 
Q 253.350476 286.275426 253.342813 289.275416 
L 253.31031 302.000374 
Q 253.302647 305.000365 256.302637 305.008027 
L 265.980731 305.032748 
Q 268.980721 305.040411 268.988384 302.040421 
z
" clip-path="url(#pc2a4ab7e8a)" style="fill: #ffffff; stroke: #ffffff; stroke-linejoin: miter"/>
    </g>
    <g clip-path="url(#pc2a4ab7e8a)">
     <!-- 15 -->
     <g transform="translate(263.908713 302.027446) rotate(-89.853651) scale(0.1 -0.1)">
      <use xlink:href="#DejaVuSans-31"/>
      <use xlink:href="#DejaVuSans-35" x="63.623047"/>
     </g>
    </g>
   </g>
   <g id="text_46">
    <g id="patch_48">
     <path d="M 196.599263 179.57415 
L 205.813918 170.798288 
Q 207.986332 168.729323 205.917366 166.556909 
L 199.242797 159.548612 
Q 197.173832 157.376198 195.001418 159.445163 
L 185.786763 168.221025 
Q 183.614349 170.289991 185.683314 172.462405 
L 192.357883 179.470702 
Q 194.426849 181.643116 196.599263 179.57415 
z
" clip-path="url(#pc2a4ab7e8a)" style="fill: #ffffff; stroke: #ffffff; stroke-linejoin: miter"/>
    </g>
    <g clip-path="url(#pc2a4ab7e8a)">
     <!-- 11 -->
     <g transform="translate(193.09603 175.895756) rotate(-43.602819) scale(0.1 -0.1)">
      <use xlink:href="#DejaVuSans-31"/>
      <use xlink:href="#DejaVuSans-31" x="63.623047"/>
     </g>
    </g>
   </g>
   <g id="text_47">
    <g id="patch_49">
     <path d="M 236.34351 203.892645 
L 240.504867 191.867308 
Q 241.485933 189.032258 238.650883 188.051191 
L 229.504893 184.88623 
Q 226.669843 183.905164 225.688777 186.740214 
L 221.52742 198.765551 
Q 220.546354 201.600601 223.381404 202.581668 
L 232.527394 205.746629 
Q 235.362444 206.727695 236.34351 203.892645 
z
" clip-path="url(#pc2a4ab7e8a)" style="fill: #ffffff; stroke: #ffffff; stroke-linejoin: miter"/>
    </g>
    <g clip-path="url(#pc2a4ab7e8a)">
     <!-- 18 -->
     <g transform="translate(231.543121 202.231475) rotate(-70.91187) scale(0.1 -0.1)">
      <use xlink:href="#DejaVuSans-31"/>
      <use xlink:href="#DejaVuSans-38" x="63.623047"/>
     </g>
    </g>
   </g>
   <g id="text_48">
    <g id="patch_50">
     <path d="M 361.626727 156.658065 
L 372.14047 149.489604 
Q 374.619152 147.799593 372.929142 145.320911 
L 367.477098 137.32458 
Q 365.787087 134.845898 363.308405 136.535908 
L 352.794662 143.704369 
Q 350.31598 145.39438 352.005991 147.873062 
L 357.458035 155.869393 
Q 359.148045 158.348075 361.626727 156.658065 
z
" clip-path="url(#pc2a4ab7e8a)" style="fill: #ffffff; stroke: #ffffff; stroke-linejoin: miter"/>
    </g>
    <g clip-path="url(#pc2a4ab7e8a)">
     <!-- 11 -->
     <g transform="translate(358.765152 152.461088) rotate(-34.286877) scale(0.1 -0.1)">
      <use xlink:href="#DejaVuSans-31"/>
      <use xlink:href="#DejaVuSans-31" x="63.623047"/>
     </g>
    </g>
   </g>
   <g id="text_49">
    <g id="patch_51">
     <path d="M 366.518028 229.169943 
L 372.35303 217.861611 
Q 373.728669 215.1956 371.062658 213.81996 
L 362.461994 209.382091 
Q 359.795983 208.006452 358.420344 210.672464 
L 352.585341 221.980795 
Q 351.209702 224.646807 353.875713 226.022446 
L 362.476377 230.460315 
Q 365.142388 231.835954 366.518028 229.169943 
z
" clip-path="url(#pc2a4ab7e8a)" style="fill: #ffffff; stroke: #ffffff; stroke-linejoin: miter"/>
    </g>
    <g clip-path="url(#pc2a4ab7e8a)">
     <!-- 15 -->
     <g transform="translate(362.003859 226.840671) rotate(-62.706652) scale(0.1 -0.1)">
      <use xlink:href="#DejaVuSans-31"/>
      <use xlink:href="#DejaVuSans-35" x="63.623047"/>
     </g>
    </g>
   </g>
   <g id="text_50">
    <g id="patch_52">
     <path d="M 99.692972 327.987654 
L 112.017749 324.821344 
Q 114.923393 324.074867 114.176915 321.169222 
L 111.768747 311.795491 
Q 111.022269 308.889847 108.116625 309.636324 
L 95.791848 312.802634 
Q 92.886204 313.549112 93.632682 316.454757 
L 96.04085 325.828487 
Q 96.787328 328.734132 99.692972 327.987654 
z
" clip-path="url(#pc2a4ab7e8a)" style="fill: #ffffff; stroke: #ffffff; stroke-linejoin: miter"/>
    </g>
    <g clip-path="url(#pc2a4ab7e8a)">
     <!-- 13 -->
     <g transform="translate(98.429014 323.067732) rotate(-14.408047) scale(0.1 -0.1)">
      <use xlink:href="#DejaVuSans-31"/>
      <use xlink:href="#DejaVuSans-33" x="63.623047"/>
     </g>
    </g>
   </g>
   <g id="text_51">
    <g id="patch_53">
     <path d="M 194.631231 202.362763 
L 198.488287 207.422854 
Q 200.306939 209.808751 202.692836 207.9901 
L 210.389841 202.123055 
Q 212.775739 200.304403 210.957087 197.918506 
L 207.100031 192.858415 
Q 205.281379 190.472517 202.895482 192.291169 
L 195.198477 198.158214 
Q 192.812579 199.976866 194.631231 202.362763 
z
" clip-path="url(#pc2a4ab7e8a)" style="fill: #ffffff; stroke: #ffffff; stroke-linejoin: miter"/>
    </g>
    <g clip-path="url(#pc2a4ab7e8a)">
     <!-- 7 -->
     <g transform="translate(198.671102 199.283369) rotate(-307.316478) scale(0.1 -0.1)">
      <use xlink:href="#DejaVuSans-37"/>
     </g>
    </g>
   </g>
   <g id="text_52">
    <g id="patch_54">
     <path d="M 390.582665 396.603064 
L 395.971002 399.986439 
Q 398.511672 401.581744 400.106976 399.041074 
L 405.253495 390.844766 
Q 406.848799 388.304097 404.308129 386.708792 
L 398.919792 383.325417 
Q 396.379122 381.730113 394.783817 384.270783 
L 389.637299 392.46709 
Q 388.041995 395.00776 390.582665 396.603064 
z
" clip-path="url(#pc2a4ab7e8a)" style="fill: #ffffff; stroke: #ffffff; stroke-linejoin: miter"/>
    </g>
    <g clip-path="url(#pc2a4ab7e8a)">
     <!-- 5 -->
     <g transform="translate(393.28388 392.301128) rotate(-327.875002) scale(0.1 -0.1)">
      <use xlink:href="#DejaVuSans-35"/>
     </g>
    </g>
   </g>
   <g id="text_53">
    <g id="patch_55">
     <path d="M 311.938263 262.900838 
L 311.938263 256.538338 
Q 311.938263 253.538338 308.938263 253.538338 
L 299.260137 253.538338 
Q 296.260137 253.538338 296.260137 256.538338 
L 296.260137 262.900838 
Q 296.260137 265.900838 299.260137 265.900838 
L 308.938263 265.900838 
Q 311.938263 265.900838 311.938263 262.900838 
z
" clip-path="url(#pc2a4ab7e8a)" style="fill: #ffffff; stroke: #ffffff; stroke-linejoin: miter"/>
    </g>
    <g clip-path="url(#pc2a4ab7e8a)">
     <!-- 8 -->
     <g transform="translate(306.858575 262.900838) rotate(-90) scale(0.1 -0.1)">
      <use xlink:href="#DejaVuSans-38"/>
     </g>
    </g>
   </g>
   <g id="text_54">
    <g id="patch_56">
     <path d="M 131.825733 268.960174 
L 133.900883 256.405518 
Q 134.390113 253.445678 131.430272 252.956448 
L 121.881704 251.378173 
Q 118.921864 250.888943 118.432634 253.848783 
L 116.357485 266.403439 
Q 115.868255 269.363279 118.828095 269.852509 
L 128.376663 271.430785 
Q 131.336503 271.920014 131.825733 268.960174 
z
" clip-path="url(#pc2a4ab7e8a)" style="fill: #ffffff; stroke: #ffffff; stroke-linejoin: miter"/>
    </g>
    <g clip-path="url(#pc2a4ab7e8a)">
     <!-- 15 -->
     <g transform="translate(126.814045 268.131796) rotate(-80.614482) scale(0.1 -0.1)">
      <use xlink:href="#DejaVuSans-31"/>
      <use xlink:href="#DejaVuSans-35" x="63.623047"/>
     </g>
    </g>
   </g>
   <g id="text_55">
    <g id="patch_57">
     <path d="M 102.819325 176.401345 
L 103.353368 182.741393 
Q 103.605176 185.730806 106.59459 185.478998 
L 116.238562 184.666655 
Q 119.227975 184.414847 118.976167 181.425433 
L 118.442125 175.085386 
Q 118.190317 172.095972 115.200903 172.34778 
L 105.556931 173.160124 
Q 102.567517 173.411932 102.819325 176.401345 
z
" clip-path="url(#pc2a4ab7e8a)" style="fill: #ffffff; stroke: #ffffff; stroke-linejoin: miter"/>
    </g>
    <g clip-path="url(#pc2a4ab7e8a)">
     <!-- 8 -->
     <g transform="translate(107.881087 175.974976) rotate(-274.814844) scale(0.1 -0.1)">
      <use xlink:href="#DejaVuSans-38"/>
     </g>
    </g>
   </g>
   <g id="text_56">
    <g id="patch_58">
     <path d="M 145.189202 178.166906 
L 146.138103 171.875563 
Q 146.585522 168.909114 143.619074 168.461696 
L 134.049187 167.018304 
Q 131.082739 166.570885 130.63532 169.537333 
L 129.686419 175.828676 
Q 129.239 178.795124 132.205449 179.242543 
L 141.775335 180.685935 
Q 144.741784 181.133354 145.189202 178.166906 
z
" clip-path="url(#pc2a4ab7e8a)" style="fill: #ffffff; stroke: #ffffff; stroke-linejoin: miter"/>
    </g>
    <g clip-path="url(#pc2a4ab7e8a)">
     <!-- 3 -->
     <g transform="translate(140.166325 177.409323) rotate(-81.42293) scale(0.1 -0.1)">
      <use xlink:href="#DejaVuSans-33"/>
     </g>
    </g>
   </g>
   <g id="text_57">
    <g id="patch_59">
     <path d="M 107.784835 320.97273 
L 113.857998 319.075863 
Q 116.721571 318.181466 115.827174 315.317892 
L 112.941812 306.079884 
Q 112.047415 303.216311 109.183842 304.110708 
L 103.110679 306.007575 
Q 100.247106 306.901972 101.141503 309.765546 
L 104.026865 319.003553 
Q 104.921262 321.867127 107.784835 320.97273 
z
" clip-path="url(#pc2a4ab7e8a)" style="fill: #ffffff; stroke: #ffffff; stroke-linejoin: miter"/>
    </g>
    <g clip-path="url(#pc2a4ab7e8a)">
     <!-- 8 -->
     <g transform="translate(106.270416 316.124044) rotate(-17.345462) scale(0.1 -0.1)">
      <use xlink:href="#DejaVuSans-38"/>
     </g>
    </g>
   </g>
   <g id="text_58">
    <g id="patch_60">
     <path d="M 117.102245 346.274564 
L 123.462257 346.096661 
Q 126.461084 346.012778 126.377201 343.013951 
L 126.10659 333.33961 
Q 126.022707 330.340783 123.02388 330.424666 
L 116.663867 330.602569 
Q 113.66504 330.686452 113.748924 333.685279 
L 114.019535 343.35962 
Q 114.103418 346.358447 117.102245 346.274564 
z
" clip-path="url(#pc2a4ab7e8a)" style="fill: #ffffff; stroke: #ffffff; stroke-linejoin: miter"/>
    </g>
    <g clip-path="url(#pc2a4ab7e8a)">
     <!-- 4 -->
     <g transform="translate(116.960211 341.196862) rotate(-1.602261) scale(0.1 -0.1)">
      <use xlink:href="#DejaVuSans-34"/>
     </g>
    </g>
   </g>
   <g id="text_59">
    <g id="patch_61">
     <path d="M 219.862384 123.487827 
L 229.462055 131.840787 
Q 231.725238 133.810051 233.694502 131.546867 
L 240.047429 124.245742 
Q 242.016692 121.982559 239.753509 120.013295 
L 230.153838 111.660335 
Q 227.890654 109.691071 225.921391 111.954255 
L 219.568464 119.25538 
Q 217.5992 121.518563 219.862384 123.487827 
z
" clip-path="url(#pc2a4ab7e8a)" style="fill: #ffffff; stroke: #ffffff; stroke-linejoin: miter"/>
    </g>
    <g clip-path="url(#pc2a4ab7e8a)">
     <!-- 18 -->
     <g transform="translate(223.196799 119.655738) rotate(-318.972496) scale(0.1 -0.1)">
      <use xlink:href="#DejaVuSans-31"/>
      <use xlink:href="#DejaVuSans-38" x="63.623047"/>
     </g>
    </g>
   </g>
   <g id="text_60">
    <g id="patch_62">
     <path d="M 315.124348 256.353485 
L 319.252765 261.194723 
Q 321.199366 263.477428 323.482072 261.530826 
L 330.846174 255.251009 
Q 333.128879 253.304408 331.182277 251.021703 
L 327.05386 246.180465 
Q 325.107259 243.89776 322.824554 245.844362 
L 315.460452 252.124179 
Q 313.177746 254.07078 315.124348 256.353485 
z
" clip-path="url(#pc2a4ab7e8a)" style="fill: #ffffff; stroke: #ffffff; stroke-linejoin: miter"/>
    </g>
    <g clip-path="url(#pc2a4ab7e8a)">
     <!-- 7 -->
     <g transform="translate(318.989491 253.057443) rotate(-310.456242) scale(0.1 -0.1)">
      <use xlink:href="#DejaVuSans-37"/>
     </g>
    </g>
   </g>
   <g id="text_61">
    <g id="patch_63">
     <path d="M 365.629939 419.423413 
L 370.813054 415.733327 
Q 373.256958 413.993405 371.517035 411.5495 
L 365.903972 403.665363 
Q 364.16405 401.221458 361.720145 402.961381 
L 356.537031 406.651467 
Q 354.093127 408.391389 355.833049 410.835294 
L 361.446112 418.719431 
Q 363.186035 421.163336 365.629939 419.423413 
z
" clip-path="url(#pc2a4ab7e8a)" style="fill: #ffffff; stroke: #ffffff; stroke-linejoin: miter"/>
    </g>
    <g clip-path="url(#pc2a4ab7e8a)">
     <!-- 8 -->
     <g transform="translate(362.683852 415.285323) rotate(-35.448729) scale(0.1 -0.1)">
      <use xlink:href="#DejaVuSans-38"/>
     </g>
    </g>
   </g>
   <g id="text_62">
    <g id="patch_64">
     <path d="M 370.597009 476.081889 
L 383.183345 474.208451 
Q 386.150654 473.766776 385.70898 470.799467 
L 384.284118 461.226805 
Q 383.842443 458.259495 380.875134 458.70117 
L 368.288798 460.574608 
Q 365.321489 461.016283 365.763164 463.983592 
L 367.188025 473.556255 
Q 367.6297 476.523564 370.597009 476.081889 
z
" clip-path="url(#pc2a4ab7e8a)" style="fill: #ffffff; stroke: #ffffff; stroke-linejoin: miter"/>
    </g>
    <g clip-path="url(#pc2a4ab7e8a)">
     <!-- 15 -->
     <g transform="translate(369.849152 471.057555) rotate(-8.466144) scale(0.1 -0.1)">
      <use xlink:href="#DejaVuSans-31"/>
      <use xlink:href="#DejaVuSans-35" x="63.623047"/>
     </g>
    </g>
   </g>
   <g id="text_63">
    <g id="patch_65">
     <path d="M 155.401691 260.591383 
L 165.665429 268.113437 
Q 168.085171 269.88681 169.858543 267.467068 
L 175.579516 259.66088 
Q 177.352889 257.241138 174.933147 255.467766 
L 164.669409 247.945711 
Q 162.249667 246.172339 160.476295 248.592081 
L 154.755321 256.398268 
Q 152.981949 258.81801 155.401691 260.591383 
z
" clip-path="url(#pc2a4ab7e8a)" style="fill: #ffffff; stroke: #ffffff; stroke-linejoin: miter"/>
    </g>
    <g clip-path="url(#pc2a4ab7e8a)">
     <!-- 16 -->
     <g transform="translate(158.404417 256.494205) rotate(-323.763179) scale(0.1 -0.1)">
      <use xlink:href="#DejaVuSans-31"/>
      <use xlink:href="#DejaVuSans-36" x="63.623047"/>
     </g>
    </g>
   </g>
   <g id="text_64">
    <g id="patch_66">
     <path d="M 325.732918 317.27047 
L 338.203807 319.800795 
Q 341.143899 320.397336 341.74044 317.457244 
L 343.664904 307.972385 
Q 344.261444 305.032293 341.321352 304.435753 
L 328.850463 301.905428 
Q 325.910371 301.308887 325.313831 304.248979 
L 323.389367 313.733838 
Q 322.792826 316.67393 325.732918 317.27047 
z
" clip-path="url(#pc2a4ab7e8a)" style="fill: #ffffff; stroke: #ffffff; stroke-linejoin: miter"/>
    </g>
    <g clip-path="url(#pc2a4ab7e8a)">
     <!-- 12 -->
     <g transform="translate(326.742998 312.292221) rotate(-348.53047) scale(0.1 -0.1)">
      <use xlink:href="#DejaVuSans-31"/>
      <use xlink:href="#DejaVuSans-32" x="63.623047"/>
     </g>
    </g>
   </g>
   <g id="text_65">
    <g id="patch_67">
     <path d="M 274.299712 205.063338 
L 284.523303 212.639869 
Q 286.933579 214.426085 288.719795 212.015808 
L 294.482201 204.240155 
Q 296.268417 201.829879 293.85814 200.043663 
L 283.63455 192.467132 
Q 281.224273 190.680916 279.438057 193.091193 
L 273.675651 200.866846 
Q 271.889436 203.277123 274.299712 205.063338 
z
" clip-path="url(#pc2a4ab7e8a)" style="fill: #ffffff; stroke: #ffffff; stroke-linejoin: miter"/>
    </g>
    <g clip-path="url(#pc2a4ab7e8a)">
     <!-- 14 -->
     <g transform="translate(277.324185 200.982187) rotate(-323.458476) scale(0.1 -0.1)">
      <use xlink:href="#DejaVuSans-31"/>
      <use xlink:href="#DejaVuSans-34" x="63.623047"/>
     </g>
    </g>
   </g>
   <g id="text_66">
    <g id="patch_68">
     <path d="M 264.76932 248.495982 
L 270.492203 251.276273 
Q 273.190615 252.587216 274.501558 249.888803 
L 278.730713 241.183612 
Q 280.041656 238.4852 277.343243 237.174257 
L 271.620361 234.393967 
Q 268.921948 233.083024 267.611006 235.781436 
L 263.38185 244.486627 
Q 262.070907 247.185039 264.76932 248.495982 
z
" clip-path="url(#pc2a4ab7e8a)" style="fill: #ffffff; stroke: #ffffff; stroke-linejoin: miter"/>
    </g>
    <g clip-path="url(#pc2a4ab7e8a)">
     <!-- 7 -->
     <g transform="translate(266.989046 243.926952) rotate(-334.088593) scale(0.1 -0.1)">
      <use xlink:href="#DejaVuSans-37"/>
     </g>
    </g>
   </g>
   <g id="text_67">
    <g id="patch_69">
     <path d="M 289.891772 290.618876 
L 302.033189 294.428289 
Q 304.895605 295.326383 305.793699 292.463966 
L 308.690986 283.229691 
Q 309.589079 280.367275 306.726662 279.469181 
L 294.585246 275.659769 
Q 291.722829 274.761675 290.824736 277.624092 
L 287.927449 286.858366 
Q 287.029356 289.720783 289.891772 290.618876 
z
" clip-path="url(#pc2a4ab7e8a)" style="fill: #ffffff; stroke: #ffffff; stroke-linejoin: miter"/>
    </g>
    <g clip-path="url(#pc2a4ab7e8a)">
     <!-- 18 -->
     <g transform="translate(291.41245 285.772149) rotate(-342.580564) scale(0.1 -0.1)">
      <use xlink:href="#DejaVuSans-31"/>
      <use xlink:href="#DejaVuSans-38" x="63.623047"/>
     </g>
    </g>
   </g>
   <g id="text_68">
    <g id="patch_70">
     <path d="M 409.81825 290.254058 
L 418.655339 299.410011 
Q 420.73874 301.568586 422.897314 299.485186 
L 429.860965 292.76405 
Q 432.01954 290.68065 429.936139 288.522075 
L 421.09905 279.366122 
Q 419.01565 277.207548 416.857075 279.290948 
L 409.893424 286.012084 
Q 407.73485 288.095484 409.81825 290.254058 
z
" clip-path="url(#pc2a4ab7e8a)" style="fill: #ffffff; stroke: #ffffff; stroke-linejoin: miter"/>
    </g>
    <g clip-path="url(#pc2a4ab7e8a)">
     <!-- 16 -->
     <g transform="translate(413.473211 286.726384) rotate(-313.984738) scale(0.1 -0.1)">
      <use xlink:href="#DejaVuSans-31"/>
      <use xlink:href="#DejaVuSans-36" x="63.623047"/>
     </g>
    </g>
   </g>
   <g id="text_69">
    <g id="patch_71">
     <path d="M 335.239419 297.142569 
L 339.378108 292.31011 
Q 341.329553 290.031544 339.050987 288.080099 
L 331.700239 281.784656 
Q 329.421673 279.833211 327.470228 282.111777 
L 323.331538 286.944236 
Q 321.380093 289.222801 323.658659 291.174246 
L 331.009408 297.469689 
Q 333.287973 299.421134 335.239419 297.142569 
z
" clip-path="url(#pc2a4ab7e8a)" style="fill: #ffffff; stroke: #ffffff; stroke-linejoin: miter"/>
    </g>
    <g clip-path="url(#pc2a4ab7e8a)">
     <!-- 9 -->
     <g transform="translate(331.381284 293.838325) rotate(-49.422072) scale(0.1 -0.1)">
      <use xlink:href="#DejaVuSans-39"/>
     </g>
    </g>
   </g>
   <g id="text_70">
    <g id="patch_72">
     <path d="M 194.218712 423.699729 
L 204.204404 415.812296 
Q 206.558594 413.952784 204.699082 411.598593 
L 198.700217 404.003876 
Q 196.840705 401.649686 194.486514 403.509198 
L 184.500822 411.396631 
Q 182.146632 413.256143 184.006144 415.610334 
L 190.005009 423.205051 
Q 191.864522 425.559241 194.218712 423.699729 
z
" clip-path="url(#pc2a4ab7e8a)" style="fill: #ffffff; stroke: #ffffff; stroke-linejoin: miter"/>
    </g>
    <g clip-path="url(#pc2a4ab7e8a)">
     <!-- 14 -->
     <g transform="translate(191.070132 419.713545) rotate(-38.30427) scale(0.1 -0.1)">
      <use xlink:href="#DejaVuSans-31"/>
      <use xlink:href="#DejaVuSans-34" x="63.623047"/>
     </g>
    </g>
   </g>
   <g id="matplotlib.axis_1">
    <g id="xtick_1">
     <g id="line2d_1">
      <path d="M 10.8 493.2 
L 10.8 10.8 
" clip-path="url(#pc2a4ab7e8a)" style="fill: none; stroke: #b0b0b0; stroke-opacity: 0.3; stroke-width: 0.8; stroke-linecap: square"/>
     </g>
    </g>
    <g id="xtick_2">
     <g id="line2d_2">
      <path d="M 59.04 493.2 
L 59.04 10.8 
" clip-path="url(#pc2a4ab7e8a)" style="fill: none; stroke: #b0b0b0; stroke-opacity: 0.3; stroke-width: 0.8; stroke-linecap: square"/>
     </g>
    </g>
    <g id="xtick_3">
     <g id="line2d_3">
      <path d="M 107.28 493.2 
L 107.28 10.8 
" clip-path="url(#pc2a4ab7e8a)" style="fill: none; stroke: #b0b0b0; stroke-opacity: 0.3; stroke-width: 0.8; stroke-linecap: square"/>
     </g>
    </g>
    <g id="xtick_4">
     <g id="line2d_4">
      <path d="M 155.52 493.2 
L 155.52 10.8 
" clip-path="url(#pc2a4ab7e8a)" style="fill: none; stroke: #b0b0b0; stroke-opacity: 0.3; stroke-width: 0.8; stroke-linecap: square"/>
     </g>
    </g>
    <g id="xtick_5">
     <g id="line2d_5">
      <path d="M 203.76 493.2 
L 203.76 10.8 
" clip-path="url(#pc2a4ab7e8a)" style="fill: none; stroke: #b0b0b0; stroke-opacity: 0.3; stroke-width: 0.8; stroke-linecap: square"/>
     </g>
    </g>
    <g id="xtick_6">
     <g id="line2d_6">
      <path d="M 252 493.2 
L 252 10.8 
" clip-path="url(#pc2a4ab7e8a)" style="fill: none; stroke: #b0b0b0; stroke-opacity: 0.3; stroke-width: 0.8; stroke-linecap: square"/>
     </g>
    </g>
    <g id="xtick_7">
     <g id="line2d_7">
      <path d="M 300.24 493.2 
L 300.24 10.8 
" clip-path="url(#pc2a4ab7e8a)" style="fill: none; stroke: #b0b0b0; stroke-opacity: 0.3; stroke-width: 0.8; stroke-linecap: square"/>
     </g>
    </g>
    <g id="xtick_8">
     <g id="line2d_8">
      <path d="M 348.48 493.2 
L 348.48 10.8 
" clip-path="url(#pc2a4ab7e8a)" style="fill: none; stroke: #b0b0b0; stroke-opacity: 0.3; stroke-width: 0.8; stroke-linecap: square"/>
     </g>
    </g>
    <g id="xtick_9">
     <g id="line2d_9">
      <path d="M 396.72 493.2 
L 396.72 10.8 
" clip-path="url(#pc2a4ab7e8a)" style="fill: none; stroke: #b0b0b0; stroke-opacity: 0.3; stroke-width: 0.8; stroke-linecap: square"/>
     </g>
    </g>
    <g id="xtick_10">
     <g id="line2d_10">
      <path d="M 444.96 493.2 
L 444.96 10.8 
" clip-path="url(#pc2a4ab7e8a)" style="fill: none; stroke: #b0b0b0; stroke-opacity: 0.3; stroke-width: 0.8; stroke-linecap: square"/>
     </g>
    </g>
    <g id="xtick_11">
     <g id="line2d_11">
      <path d="M 493.2 493.2 
L 493.2 10.8 
" clip-path="url(#pc2a4ab7e8a)" style="fill: none; stroke: #b0b0b0; stroke-opacity: 0.3; stroke-width: 0.8; stroke-linecap: square"/>
     </g>
    </g>
   </g>
   <g id="matplotlib.axis_2">
    <g id="ytick_1">
     <g id="line2d_12">
      <path d="M 10.8 493.2 
L 493.2 493.2 
" clip-path="url(#pc2a4ab7e8a)" style="fill: none; stroke: #b0b0b0; stroke-opacity: 0.3; stroke-width: 0.8; stroke-linecap: square"/>
     </g>
    </g>
    <g id="ytick_2">
     <g id="line2d_13">
      <path d="M 10.8 444.96 
L 493.2 444.96 
" clip-path="url(#pc2a4ab7e8a)" style="fill: none; stroke: #b0b0b0; stroke-opacity: 0.3; stroke-width: 0.8; stroke-linecap: square"/>
     </g>
    </g>
    <g id="ytick_3">
     <g id="line2d_14">
      <path d="M 10.8 396.72 
L 493.2 396.72 
" clip-path="url(#pc2a4ab7e8a)" style="fill: none; stroke: #b0b0b0; stroke-opacity: 0.3; stroke-width: 0.8; stroke-linecap: square"/>
     </g>
    </g>
    <g id="ytick_4">
     <g id="line2d_15">
      <path d="M 10.8 348.48 
L 493.2 348.48 
" clip-path="url(#pc2a4ab7e8a)" style="fill: none; stroke: #b0b0b0; stroke-opacity: 0.3; stroke-width: 0.8; stroke-linecap: square"/>
     </g>
    </g>
    <g id="ytick_5">
     <g id="line2d_16">
      <path d="M 10.8 300.24 
L 493.2 300.24 
" clip-path="url(#pc2a4ab7e8a)" style="fill: none; stroke: #b0b0b0; stroke-opacity: 0.3; stroke-width: 0.8; stroke-linecap: square"/>
     </g>
    </g>
    <g id="ytick_6">
     <g id="line2d_17">
      <path d="M 10.8 252 
L 493.2 252 
" clip-path="url(#pc2a4ab7e8a)" style="fill: none; stroke: #b0b0b0; stroke-opacity: 0.3; stroke-width: 0.8; stroke-linecap: square"/>
     </g>
    </g>
    <g id="ytick_7">
     <g id="line2d_18">
      <path d="M 10.8 203.76 
L 493.2 203.76 
" clip-path="url(#pc2a4ab7e8a)" style="fill: none; stroke: #b0b0b0; stroke-opacity: 0.3; stroke-width: 0.8; stroke-linecap: square"/>
     </g>
    </g>
    <g id="ytick_8">
     <g id="line2d_19">
      <path d="M 10.8 155.52 
L 493.2 155.52 
" clip-path="url(#pc2a4ab7e8a)" style="fill: none; stroke: #b0b0b0; stroke-opacity: 0.3; stroke-width: 0.8; stroke-linecap: square"/>
     </g>
    </g>
    <g id="ytick_9">
     <g id="line2d_20">
      <path d="M 10.8 107.28 
L 493.2 107.28 
" clip-path="url(#pc2a4ab7e8a)" style="fill: none; stroke: #b0b0b0; stroke-opacity: 0.3; stroke-width: 0.8; stroke-linecap: square"/>
     </g>
    </g>
    <g id="ytick_10">
     <g id="line2d_21">
      <path d="M 10.8 59.04 
L 493.2 59.04 
" clip-path="url(#pc2a4ab7e8a)" style="fill: none; stroke: #b0b0b0; stroke-opacity: 0.3; stroke-width: 0.8; stroke-linecap: square"/>
     </g>
    </g>
    <g id="ytick_11">
     <g id="line2d_22">
      <path d="M 10.8 10.8 
L 493.2 10.8 
" clip-path="url(#pc2a4ab7e8a)" style="fill: none; stroke: #b0b0b0; stroke-opacity: 0.3; stroke-width: 0.8; stroke-linecap: square"/>
     </g>
    </g>
   </g>
   <g id="PathCollection_1">
    <defs>
     <path id="m91487b296d" d="M 0 8.660254 
C 2.296726 8.660254 4.499694 7.747755 6.123724 6.123724 
C 7.747755 4.499694 8.660254 2.296726 8.660254 0 
C 8.660254 -2.296726 7.747755 -4.499694 6.123724 -6.123724 
C 4.499694 -7.747755 2.296726 -8.660254 0 -8.660254 
C -2.296726 -8.660254 -4.499694 -7.747755 -6.123724 -6.123724 
C -7.747755 -4.499694 -8.660254 -2.296726 -8.660254 0 
C -8.660254 2.296726 -7.747755 4.499694 -6.123724 6.123724 
C -4.499694 7.747755 -2.296726 8.660254 0 8.660254 
z
" style="stroke: #1f78b4"/>
    </defs>
    <g clip-path="url(#pc2a4ab7e8a)">
     <use xlink:href="#m91487b296d" x="409.7448" y="292.5216" style="fill: #1f78b4; stroke: #1f78b4"/>
     <use xlink:href="#m91487b296d" x="164.2032" y="208.584" style="fill: #1f78b4; stroke: #1f78b4"/>
     <use xlink:href="#m91487b296d" x="433.3824" y="478.728" style="fill: #1f78b4; stroke: #1f78b4"/>
     <use xlink:href="#m91487b296d" x="121.752" y="336.42" style="fill: #1f78b4; stroke: #1f78b4"/>
     <use xlink:href="#m91487b296d" x="475.3512" y="377.9064" style="fill: #1f78b4; stroke: #1f78b4"/>
     <use xlink:href="#m91487b296d" x="416.9808" y="340.2792" style="fill: #1f78b4; stroke: #1f78b4"/>
     <use xlink:href="#m91487b296d" x="143.46" y="404.4384" style="fill: #1f78b4; stroke: #1f78b4"/>
     <use xlink:href="#m91487b296d" x="220.644" y="183.4992" style="fill: #1f78b4; stroke: #1f78b4"/>
     <use xlink:href="#m91487b296d" x="74.4768" y="324.36" style="fill: #1f78b4; stroke: #1f78b4"/>
     <use xlink:href="#m91487b296d" x="115.4808" y="101.4912" style="fill: #1f78b4; stroke: #1f78b4"/>
     <use xlink:href="#m91487b296d" x="395.7552" y="442.548" style="fill: #1f78b4; stroke: #1f78b4"/>
     <use xlink:href="#m91487b296d" x="15.1416" y="77.3712" style="fill: #1f78b4; stroke: #1f78b4"/>
     <use xlink:href="#m91487b296d" x="491.7528" y="207.1368" style="fill: #1f78b4; stroke: #1f78b4"/>
     <use xlink:href="#m91487b296d" x="261.648" y="106.7976" style="fill: #1f78b4; stroke: #1f78b4"/>
     <use xlink:href="#m91487b296d" x="420.84" y="106.7976" style="fill: #1f78b4; stroke: #1f78b4"/>
     <use xlink:href="#m91487b296d" x="191.2176" y="296.3808" style="fill: #1f78b4; stroke: #1f78b4"/>
     <use xlink:href="#m91487b296d" x="304.0992" y="333.0432" style="fill: #1f78b4; stroke: #1f78b4"/>
     <use xlink:href="#m91487b296d" x="120.3048" y="290.592" style="fill: #1f78b4; stroke: #1f78b4"/>
     <use xlink:href="#m91487b296d" x="16.5888" y="341.244" style="fill: #1f78b4; stroke: #1f78b4"/>
     <use xlink:href="#m91487b296d" x="155.52" y="57.1104" style="fill: #1f78b4; stroke: #1f78b4"/>
     <use xlink:href="#m91487b296d" x="260.6832" y="484.5168" style="fill: #1f78b4; stroke: #1f78b4"/>
     <use xlink:href="#m91487b296d" x="475.8336" y="87.984" style="fill: #1f78b4; stroke: #1f78b4"/>
     <use xlink:href="#m91487b296d" x="200.3832" y="283.8384" style="fill: #1f78b4; stroke: #1f78b4"/>
     <use xlink:href="#m91487b296d" x="466.668" y="337.8672" style="fill: #1f78b4; stroke: #1f78b4"/>
     <use xlink:href="#m91487b296d" x="223.5384" y="335.4552" style="fill: #1f78b4; stroke: #1f78b4"/>
     <use xlink:href="#m91487b296d" x="373.0824" y="240.9048" style="fill: #1f78b4; stroke: #1f78b4"/>
     <use xlink:href="#m91487b296d" x="101.4912" y="67.2408" style="fill: #1f78b4; stroke: #1f78b4"/>
     <use xlink:href="#m91487b296d" x="490.788" y="450.2664" style="fill: #1f78b4; stroke: #1f78b4"/>
     <use xlink:href="#m91487b296d" x="289.6272" y="338.3496" style="fill: #1f78b4; stroke: #1f78b4"/>
     <use xlink:href="#m91487b296d" x="75.4416" y="147.8016" style="fill: #1f78b4; stroke: #1f78b4"/>
     <use xlink:href="#m91487b296d" x="304.0992" y="186.3936" style="fill: #1f78b4; stroke: #1f78b4"/>
     <use xlink:href="#m91487b296d" x="99.0792" y="488.8584" style="fill: #1f78b4; stroke: #1f78b4"/>
     <use xlink:href="#m91487b296d" x="129.9528" y="232.2216" style="fill: #1f78b4; stroke: #1f78b4"/>
     <use xlink:href="#m91487b296d" x="308.4408" y="315.6768" style="fill: #1f78b4; stroke: #1f78b4"/>
    </g>
   </g>
   <g id="patch_73">
    <path d="M 10.8 493.2 
L 10.8 10.8 
" style="fill: none; stroke: #000000; stroke-width: 0.8; stroke-linejoin: miter; stroke-linecap: square"/>
   </g>
   <g id="patch_74">
    <path d="M 493.2 493.2 
L 493.2 10.8 
" style="fill: none; stroke: #000000; stroke-width: 0.8; stroke-linejoin: miter; stroke-linecap: square"/>
   </g>
   <g id="patch_75">
    <path d="M 10.8 493.2 
L 493.2 493.2 
" style="fill: none; stroke: #000000; stroke-width: 0.8; stroke-linejoin: miter; stroke-linecap: square"/>
   </g>
   <g id="patch_76">
    <path d="M 10.8 10.8 
L 493.2 10.8 
" style="fill: none; stroke: #000000; stroke-width: 0.8; stroke-linejoin: miter; stroke-linecap: square"/>
   </g>
   <g id="text_71">
    <g clip-path="url(#pc2a4ab7e8a)">
     <!-- 0 -->
     <g transform="translate(405.9273 295.83285) scale(0.12 -0.12)">
      <use xlink:href="#DejaVuSans-30"/>
     </g>
    </g>
   </g>
   <g id="text_72">
    <g clip-path="url(#pc2a4ab7e8a)">
     <!-- 1 -->
     <g transform="translate(160.3857 211.89525) scale(0.12 -0.12)">
      <use xlink:href="#DejaVuSans-31"/>
     </g>
    </g>
   </g>
   <g id="text_73">
    <g clip-path="url(#pc2a4ab7e8a)">
     <!-- 2 -->
     <g transform="translate(429.5649 482.03925) scale(0.12 -0.12)">
      <use xlink:href="#DejaVuSans-32"/>
     </g>
    </g>
   </g>
   <g id="text_74">
    <g clip-path="url(#pc2a4ab7e8a)">
     <!-- 3 -->
     <g transform="translate(117.9345 339.73125) scale(0.12 -0.12)">
      <use xlink:href="#DejaVuSans-33"/>
     </g>
    </g>
   </g>
   <g id="text_75">
    <g clip-path="url(#pc2a4ab7e8a)">
     <!-- 4 -->
     <g transform="translate(471.5337 381.21765) scale(0.12 -0.12)">
      <use xlink:href="#DejaVuSans-34"/>
     </g>
    </g>
   </g>
   <g id="text_76">
    <g clip-path="url(#pc2a4ab7e8a)">
     <!-- 5 -->
     <g transform="translate(413.1633 343.59045) scale(0.12 -0.12)">
      <use xlink:href="#DejaVuSans-35"/>
     </g>
    </g>
   </g>
   <g id="text_77">
    <g clip-path="url(#pc2a4ab7e8a)">
     <!-- 6 -->
     <g transform="translate(139.6425 407.74965) scale(0.12 -0.12)">
      <use xlink:href="#DejaVuSans-36"/>
     </g>
    </g>
   </g>
   <g id="text_78">
    <g clip-path="url(#pc2a4ab7e8a)">
     <!-- 7 -->
     <g transform="translate(216.8265 186.81045) scale(0.12 -0.12)">
      <use xlink:href="#DejaVuSans-37"/>
     </g>
    </g>
   </g>
   <g id="text_79">
    <g clip-path="url(#pc2a4ab7e8a)">
     <!-- 8 -->
     <g transform="translate(70.6593 327.67125) scale(0.12 -0.12)">
      <use xlink:href="#DejaVuSans-38"/>
     </g>
    </g>
   </g>
   <g id="text_80">
    <g clip-path="url(#pc2a4ab7e8a)">
     <!-- 9 -->
     <g transform="translate(111.6633 104.80245) scale(0.12 -0.12)">
      <use xlink:href="#DejaVuSans-39"/>
     </g>
    </g>
   </g>
   <g id="text_81">
    <g clip-path="url(#pc2a4ab7e8a)">
     <!-- 10 -->
     <g transform="translate(388.1202 445.85925) scale(0.12 -0.12)">
      <use xlink:href="#DejaVuSans-31"/>
      <use xlink:href="#DejaVuSans-30" x="63.623047"/>
     </g>
    </g>
   </g>
   <g id="text_82">
    <g clip-path="url(#pc2a4ab7e8a)">
     <!-- 11 -->
     <g transform="translate(7.5066 80.68245) scale(0.12 -0.12)">
      <use xlink:href="#DejaVuSans-31"/>
      <use xlink:href="#DejaVuSans-31" x="63.623047"/>
     </g>
    </g>
   </g>
   <g id="text_83">
    <g clip-path="url(#pc2a4ab7e8a)">
     <!-- 12 -->
     <g transform="translate(484.1178 210.44805) scale(0.12 -0.12)">
      <use xlink:href="#DejaVuSans-31"/>
      <use xlink:href="#DejaVuSans-32" x="63.623047"/>
     </g>
    </g>
   </g>
   <g id="text_84">
    <g clip-path="url(#pc2a4ab7e8a)">
     <!-- 13 -->
     <g transform="translate(254.013 110.10885) scale(0.12 -0.12)">
      <use xlink:href="#DejaVuSans-31"/>
      <use xlink:href="#DejaVuSans-33" x="63.623047"/>
     </g>
    </g>
   </g>
   <g id="text_85">
    <g clip-path="url(#pc2a4ab7e8a)">
     <!-- 14 -->
     <g transform="translate(413.205 110.10885) scale(0.12 -0.12)">
      <use xlink:href="#DejaVuSans-31"/>
      <use xlink:href="#DejaVuSans-34" x="63.623047"/>
     </g>
    </g>
   </g>
   <g id="text_86">
    <g clip-path="url(#pc2a4ab7e8a)">
     <!-- 15 -->
     <g transform="translate(183.5826 299.69205) scale(0.12 -0.12)">
      <use xlink:href="#DejaVuSans-31"/>
      <use xlink:href="#DejaVuSans-35" x="63.623047"/>
     </g>
    </g>
   </g>
   <g id="text_87">
    <g clip-path="url(#pc2a4ab7e8a)">
     <!-- 16 -->
     <g transform="translate(296.4642 336.35445) scale(0.12 -0.12)">
      <use xlink:href="#DejaVuSans-31"/>
      <use xlink:href="#DejaVuSans-36" x="63.623047"/>
     </g>
    </g>
   </g>
   <g id="text_88">
    <g clip-path="url(#pc2a4ab7e8a)">
     <!-- 17 -->
     <g transform="translate(112.6698 293.90325) scale(0.12 -0.12)">
      <use xlink:href="#DejaVuSans-31"/>
      <use xlink:href="#DejaVuSans-37" x="63.623047"/>
     </g>
    </g>
   </g>
   <g id="text_89">
    <g clip-path="url(#pc2a4ab7e8a)">
     <!-- 18 -->
     <g transform="translate(8.9538 344.55525) scale(0.12 -0.12)">
      <use xlink:href="#DejaVuSans-31"/>
      <use xlink:href="#DejaVuSans-38" x="63.623047"/>
     </g>
    </g>
   </g>
   <g id="text_90">
    <g clip-path="url(#pc2a4ab7e8a)">
     <!-- 19 -->
     <g transform="translate(147.885 60.42165) scale(0.12 -0.12)">
      <use xlink:href="#DejaVuSans-31"/>
      <use xlink:href="#DejaVuSans-39" x="63.623047"/>
     </g>
    </g>
   </g>
   <g id="text_91">
    <g clip-path="url(#pc2a4ab7e8a)">
     <!-- 20 -->
     <g transform="translate(253.0482 487.82805) scale(0.12 -0.12)">
      <use xlink:href="#DejaVuSans-32"/>
      <use xlink:href="#DejaVuSans-30" x="63.623047"/>
     </g>
    </g>
   </g>
   <g id="text_92">
    <g clip-path="url(#pc2a4ab7e8a)">
     <!-- 21 -->
     <g transform="translate(468.1986 91.29525) scale(0.12 -0.12)">
      <use xlink:href="#DejaVuSans-32"/>
      <use xlink:href="#DejaVuSans-31" x="63.623047"/>
     </g>
    </g>
   </g>
   <g id="text_93">
    <g clip-path="url(#pc2a4ab7e8a)">
     <!-- 22 -->
     <g transform="translate(192.7482 287.14965) scale(0.12 -0.12)">
      <use xlink:href="#DejaVuSans-32"/>
      <use xlink:href="#DejaVuSans-32" x="63.623047"/>
     </g>
    </g>
   </g>
   <g id="text_94">
    <g clip-path="url(#pc2a4ab7e8a)">
     <!-- 23 -->
     <g transform="translate(459.033 341.17845) scale(0.12 -0.12)">
      <use xlink:href="#DejaVuSans-32"/>
      <use xlink:href="#DejaVuSans-33" x="63.623047"/>
     </g>
    </g>
   </g>
   <g id="text_95">
    <g clip-path="url(#pc2a4ab7e8a)">
     <!-- 24 -->
     <g transform="translate(215.9034 338.76645) scale(0.12 -0.12)">
      <use xlink:href="#DejaVuSans-32"/>
      <use xlink:href="#DejaVuSans-34" x="63.623047"/>
     </g>
    </g>
   </g>
   <g id="text_96">
    <g clip-path="url(#pc2a4ab7e8a)">
     <!-- 25 -->
     <g transform="translate(365.4474 244.21605) scale(0.12 -0.12)">
      <use xlink:href="#DejaVuSans-32"/>
      <use xlink:href="#DejaVuSans-35" x="63.623047"/>
     </g>
    </g>
   </g>
   <g id="text_97">
    <g clip-path="url(#pc2a4ab7e8a)">
     <!-- 26 -->
     <g transform="translate(93.8562 70.55205) scale(0.12 -0.12)">
      <use xlink:href="#DejaVuSans-32"/>
      <use xlink:href="#DejaVuSans-36" x="63.623047"/>
     </g>
    </g>
   </g>
   <g id="text_98">
    <g clip-path="url(#pc2a4ab7e8a)">
     <!-- 27 -->
     <g transform="translate(483.153 453.57765) scale(0.12 -0.12)">
      <use xlink:href="#DejaVuSans-32"/>
      <use xlink:href="#DejaVuSans-37" x="63.623047"/>
     </g>
    </g>
   </g>
   <g id="text_99">
    <g clip-path="url(#pc2a4ab7e8a)">
     <!-- 28 -->
     <g transform="translate(281.9922 341.66085) scale(0.12 -0.12)">
      <use xlink:href="#DejaVuSans-32"/>
      <use xlink:href="#DejaVuSans-38" x="63.623047"/>
     </g>
    </g>
   </g>
   <g id="text_100">
    <g clip-path="url(#pc2a4ab7e8a)">
     <!-- 29 -->
     <g transform="translate(67.8066 151.11285) scale(0.12 -0.12)">
      <use xlink:href="#DejaVuSans-32"/>
      <use xlink:href="#DejaVuSans-39" x="63.623047"/>
     </g>
    </g>
   </g>
   <g id="text_101">
    <g clip-path="url(#pc2a4ab7e8a)">
     <!-- 30 -->
     <g transform="translate(296.4642 189.70485) scale(0.12 -0.12)">
      <use xlink:href="#DejaVuSans-33"/>
      <use xlink:href="#DejaVuSans-30" x="63.623047"/>
     </g>
    </g>
   </g>
   <g id="text_102">
    <g clip-path="url(#pc2a4ab7e8a)">
     <!-- 31 -->
     <g transform="translate(91.4442 492.16965) scale(0.12 -0.12)">
      <use xlink:href="#DejaVuSans-33"/>
      <use xlink:href="#DejaVuSans-31" x="63.623047"/>
     </g>
    </g>
   </g>
   <g id="text_103">
    <g clip-path="url(#pc2a4ab7e8a)">
     <!-- 32 -->
     <g transform="translate(122.3178 235.53285) scale(0.12 -0.12)">
      <use xlink:href="#DejaVuSans-33"/>
      <use xlink:href="#DejaVuSans-32" x="63.623047"/>
     </g>
    </g>
   </g>
   <g id="text_104">
    <g clip-path="url(#pc2a4ab7e8a)">
     <!-- 33 -->
     <g transform="translate(300.8058 318.98805) scale(0.12 -0.12)">
      <use xlink:href="#DejaVuSans-33"/>
      <use xlink:href="#DejaVuSans-33" x="63.623047"/>
     </g>
    </g>
   </g>
  </g>
 </g>
 <defs>
  <clipPath id="pc2a4ab7e8a">
   <rect x="10.8" y="10.8" width="482.4" height="482.4"/>
  </clipPath>
 </defs>
</svg>
