<?xml version="1.0" encoding="utf-8" standalone="no"?>
<!DOCTYPE svg PUBLIC "-//W3C//DTD SVG 1.1//EN"
  "http://www.w3.org/Graphics/SVG/1.1/DTD/svg11.dtd">
<svg xmlns:xlink="http://www.w3.org/1999/xlink" width="504pt" height="504pt" viewBox="0 0 504 504" xmlns="http://www.w3.org/2000/svg" version="1.1">
 <metadata>
  <rdf:RDF xmlns:dc="http://purl.org/dc/elements/1.1/" xmlns:cc="http://creativecommons.org/ns#" xmlns:rdf="http://www.w3.org/1999/02/22-rdf-syntax-ns#">
   <cc:Work>
    <dc:type rdf:resource="http://purl.org/dc/dcmitype/StillImage"/>
    <dc:date>2024-10-29T14:59:59.302189</dc:date>
    <dc:format>image/svg+xml</dc:format>
    <dc:creator>
     <cc:Agent>
      <dc:title>Matplotlib v3.9.2, https://matplotlib.org/</dc:title>
     </cc:Agent>
    </dc:creator>
   </cc:Work>
  </rdf:RDF>
 </metadata>
 <defs>
  <style type="text/css">*{stroke-linejoin: round; stroke-linecap: butt}</style>
 </defs>
 <g id="figure_1">
  <g id="patch_1">
   <path d="M 0 504 
L 504 504 
L 504 0 
L 0 0 
L 0 504 
z
" style="fill: none; opacity: 0"/>
  </g>
  <g id="axes_1">
   <g id="patch_2">
    <path d="M 10.8 493.2 
L 493.2 493.2 
L 493.2 10.8 
L 10.8 10.8 
L 10.8 493.2 
z
" style="fill: none; opacity: 0"/>
   </g>
   <g id="LineCollection_1">
    <path d="M 409.7448 292.5216 
L 75.4416 147.8016 
" clip-path="url(#p9cd1994ef0)" style="fill: none; stroke: #000000"/>
    <path d="M 409.7448 292.5216 
L 483.0696 158.8968 
" clip-path="url(#p9cd1994ef0)" style="fill: none; stroke: #000000"/>
    <path d="M 409.7448 292.5216 
L 308.4408 315.6768 
" clip-path="url(#p9cd1994ef0)" style="fill: none; stroke: #000000"/>
    <path d="M 409.7448 292.5216 
L 220.644 183.4992 
" clip-path="url(#p9cd1994ef0)" style="fill: none; stroke: #000000"/>
    <path d="M 409.7448 292.5216 
L 466.668 337.8672 
" clip-path="url(#p9cd1994ef0)" style="fill: none; stroke: #000000"/>
    <path d="M 164.2032 208.584 
L 483.0696 158.8968 
" clip-path="url(#p9cd1994ef0)" style="fill: none; stroke: #000000"/>
    <path d="M 164.2032 208.584 
L 490.788 450.2664 
" clip-path="url(#p9cd1994ef0)" style="fill: none; stroke: #000000"/>
    <path d="M 164.2032 208.584 
L 200.3832 283.8384 
" clip-path="url(#p9cd1994ef0)" style="fill: none; stroke: #000000"/>
    <path d="M 164.2032 208.584 
L 143.46 404.4384 
" clip-path="url(#p9cd1994ef0)" style="fill: none; stroke: #000000"/>
    <path d="M 164.2032 208.584 
L 395.7552 442.548 
" clip-path="url(#p9cd1994ef0)" style="fill: none; stroke: #000000"/>
    <path d="M 433.3824 478.728 
L 373.0824 240.9048 
" clip-path="url(#p9cd1994ef0)" style="fill: none; stroke: #000000"/>
    <path d="M 433.3824 478.728 
L 308.4408 315.6768 
" clip-path="url(#p9cd1994ef0)" style="fill: none; stroke: #000000"/>
    <path d="M 121.752 336.42 
L 466.668 337.8672 
" clip-path="url(#p9cd1994ef0)" style="fill: none; stroke: #000000"/>
    <path d="M 121.752 336.42 
L 115.4808 101.4912 
" clip-path="url(#p9cd1994ef0)" style="fill: none; stroke: #000000"/>
    <path d="M 121.752 336.42 
L 155.52 57.1104 
" clip-path="url(#p9cd1994ef0)" style="fill: none; stroke: #000000"/>
    <path d="M 475.3512 377.9064 
L 155.52 57.1104 
" clip-path="url(#p9cd1994ef0)" style="fill: none; stroke: #000000"/>
    <path d="M 475.3512 377.9064 
L 220.644 183.4992 
" clip-path="url(#p9cd1994ef0)" style="fill: none; stroke: #000000"/>
    <path d="M 475.3512 377.9064 
L 491.7528 207.1368 
" clip-path="url(#p9cd1994ef0)" style="fill: none; stroke: #000000"/>
    <path d="M 416.9808 340.2792 
L 75.4416 147.8016 
" clip-path="url(#p9cd1994ef0)" style="fill: none; stroke: #000000"/>
    <path d="M 416.9808 340.2792 
L 373.0824 240.9048 
" clip-path="url(#p9cd1994ef0)" style="fill: none; stroke: #000000"/>
    <path d="M 416.9808 340.2792 
L 220.644 183.4992 
" clip-path="url(#p9cd1994ef0)" style="fill: none; stroke: #000000"/>
    <path d="M 143.46 404.4384 
L 16.5888 341.244 
" clip-path="url(#p9cd1994ef0)" style="fill: none; stroke: #000000"/>
    <path d="M 143.46 404.4384 
L 15.1416 77.3712 
" clip-path="url(#p9cd1994ef0)" style="fill: none; stroke: #000000"/>
    <path d="M 143.46 404.4384 
L 308.4408 315.6768 
" clip-path="url(#p9cd1994ef0)" style="fill: none; stroke: #000000"/>
    <path d="M 143.46 404.4384 
L 490.788 450.2664 
" clip-path="url(#p9cd1994ef0)" style="fill: none; stroke: #000000"/>
    <path d="M 220.644 183.4992 
L 304.0992 186.3936 
" clip-path="url(#p9cd1994ef0)" style="fill: none; stroke: #000000"/>
    <path d="M 220.644 183.4992 
L 75.4416 147.8016 
" clip-path="url(#p9cd1994ef0)" style="fill: none; stroke: #000000"/>
    <path d="M 220.644 183.4992 
L 475.8336 87.984 
" clip-path="url(#p9cd1994ef0)" style="fill: none; stroke: #000000"/>
    <path d="M 220.644 183.4992 
L 115.4808 101.4912 
" clip-path="url(#p9cd1994ef0)" style="fill: none; stroke: #000000"/>
    <path d="M 74.4768 324.36 
L 223.5384 335.4552 
" clip-path="url(#p9cd1994ef0)" style="fill: none; stroke: #000000"/>
    <path d="M 74.4768 324.36 
L 75.4416 147.8016 
" clip-path="url(#p9cd1994ef0)" style="fill: none; stroke: #000000"/>
    <path d="M 115.4808 101.4912 
L 15.1416 77.3712 
" clip-path="url(#p9cd1994ef0)" style="fill: none; stroke: #000000"/>
    <path d="M 115.4808 101.4912 
L 261.648 106.7976 
" clip-path="url(#p9cd1994ef0)" style="fill: none; stroke: #000000"/>
    <path d="M 115.4808 101.4912 
L 129.9528 232.2216 
" clip-path="url(#p9cd1994ef0)" style="fill: none; stroke: #000000"/>
    <path d="M 115.4808 101.4912 
L 420.84 106.7976 
" clip-path="url(#p9cd1994ef0)" style="fill: none; stroke: #000000"/>
    <path d="M 395.7552 442.548 
L 373.0824 240.9048 
" clip-path="url(#p9cd1994ef0)" style="fill: none; stroke: #000000"/>
    <path d="M 395.7552 442.548 
L 289.6272 338.3496 
" clip-path="url(#p9cd1994ef0)" style="fill: none; stroke: #000000"/>
    <path d="M 395.7552 442.548 
L 120.3048 290.592 
" clip-path="url(#p9cd1994ef0)" style="fill: none; stroke: #000000"/>
    <path d="M 395.7552 442.548 
L 475.8336 87.984 
" clip-path="url(#p9cd1994ef0)" style="fill: none; stroke: #000000"/>
    <path d="M 15.1416 77.3712 
L 491.7528 207.1368 
" clip-path="url(#p9cd1994ef0)" style="fill: none; stroke: #000000"/>
    <path d="M 15.1416 77.3712 
L 101.4912 67.2408 
" clip-path="url(#p9cd1994ef0)" style="fill: none; stroke: #000000"/>
    <path d="M 15.1416 77.3712 
L 223.5384 335.4552 
" clip-path="url(#p9cd1994ef0)" style="fill: none; stroke: #000000"/>
    <path d="M 491.7528 207.1368 
L 16.5888 341.244 
" clip-path="url(#p9cd1994ef0)" style="fill: none; stroke: #000000"/>
    <path d="M 491.7528 207.1368 
L 483.0696 158.8968 
" clip-path="url(#p9cd1994ef0)" style="fill: none; stroke: #000000"/>
    <path d="M 491.7528 207.1368 
L 304.0992 186.3936 
" clip-path="url(#p9cd1994ef0)" style="fill: none; stroke: #000000"/>
    <path d="M 261.648 106.7976 
L 289.6272 338.3496 
" clip-path="url(#p9cd1994ef0)" style="fill: none; stroke: #000000"/>
    <path d="M 261.648 106.7976 
L 129.9528 232.2216 
" clip-path="url(#p9cd1994ef0)" style="fill: none; stroke: #000000"/>
    <path d="M 261.648 106.7976 
L 200.3832 283.8384 
" clip-path="url(#p9cd1994ef0)" style="fill: none; stroke: #000000"/>
    <path d="M 261.648 106.7976 
L 483.0696 158.8968 
" clip-path="url(#p9cd1994ef0)" style="fill: none; stroke: #000000"/>
    <path d="M 420.84 106.7976 
L 483.0696 158.8968 
" clip-path="url(#p9cd1994ef0)" style="fill: none; stroke: #000000"/>
    <path d="M 420.84 106.7976 
L 99.0792 488.8584 
" clip-path="url(#p9cd1994ef0)" style="fill: none; stroke: #000000"/>
    <path d="M 191.2176 296.3808 
L 16.5888 341.244 
" clip-path="url(#p9cd1994ef0)" style="fill: none; stroke: #000000"/>
    <path d="M 304.0992 333.0432 
L 223.5384 335.4552 
" clip-path="url(#p9cd1994ef0)" style="fill: none; stroke: #000000"/>
    <path d="M 304.0992 333.0432 
L 101.4912 67.2408 
" clip-path="url(#p9cd1994ef0)" style="fill: none; stroke: #000000"/>
    <path d="M 304.0992 333.0432 
L 490.788 450.2664 
" clip-path="url(#p9cd1994ef0)" style="fill: none; stroke: #000000"/>
    <path d="M 304.0992 333.0432 
L 466.668 337.8672 
" clip-path="url(#p9cd1994ef0)" style="fill: none; stroke: #000000"/>
    <path d="M 120.3048 290.592 
L 129.9528 232.2216 
" clip-path="url(#p9cd1994ef0)" style="fill: none; stroke: #000000"/>
    <path d="M 120.3048 290.592 
L 101.4912 67.2408 
" clip-path="url(#p9cd1994ef0)" style="fill: none; stroke: #000000"/>
    <path d="M 120.3048 290.592 
L 200.3832 283.8384 
" clip-path="url(#p9cd1994ef0)" style="fill: none; stroke: #000000"/>
    <path d="M 16.5888 341.244 
L 223.5384 335.4552 
" clip-path="url(#p9cd1994ef0)" style="fill: none; stroke: #000000"/>
    <path d="M 155.52 57.1104 
L 304.0992 186.3936 
" clip-path="url(#p9cd1994ef0)" style="fill: none; stroke: #000000"/>
    <path d="M 155.52 57.1104 
L 373.0824 240.9048 
" clip-path="url(#p9cd1994ef0)" style="fill: none; stroke: #000000"/>
    <path d="M 260.6832 484.5168 
L 101.4912 67.2408 
" clip-path="url(#p9cd1994ef0)" style="fill: none; stroke: #000000"/>
    <path d="M 260.6832 484.5168 
L 466.668 337.8672 
" clip-path="url(#p9cd1994ef0)" style="fill: none; stroke: #000000"/>
    <path d="M 260.6832 484.5168 
L 490.788 450.2664 
" clip-path="url(#p9cd1994ef0)" style="fill: none; stroke: #000000"/>
    <path d="M 475.8336 87.984 
L 373.0824 240.9048 
" clip-path="url(#p9cd1994ef0)" style="fill: none; stroke: #000000"/>
    <path d="M 200.3832 283.8384 
L 304.0992 186.3936 
" clip-path="url(#p9cd1994ef0)" style="fill: none; stroke: #000000"/>
    <path d="M 200.3832 283.8384 
L 129.9528 232.2216 
" clip-path="url(#p9cd1994ef0)" style="fill: none; stroke: #000000"/>
    <path d="M 200.3832 283.8384 
L 466.668 337.8672 
" clip-path="url(#p9cd1994ef0)" style="fill: none; stroke: #000000"/>
    <path d="M 466.668 337.8672 
L 75.4416 147.8016 
" clip-path="url(#p9cd1994ef0)" style="fill: none; stroke: #000000"/>
    <path d="M 490.788 450.2664 
L 129.9528 232.2216 
" clip-path="url(#p9cd1994ef0)" style="fill: none; stroke: #000000"/>
    <path d="M 490.788 450.2664 
L 289.6272 338.3496 
" clip-path="url(#p9cd1994ef0)" style="fill: none; stroke: #000000"/>
    <path d="M 289.6272 338.3496 
L 483.0696 158.8968 
" clip-path="url(#p9cd1994ef0)" style="fill: none; stroke: #000000"/>
    <path d="M 99.0792 488.8584 
L 483.0696 158.8968 
" clip-path="url(#p9cd1994ef0)" style="fill: none; stroke: #000000"/>
   </g>
   <g id="text_1">
    <g id="patch_3">
     <path d="M 236.557114 226.090647 
L 242.395984 228.618296 
Q 245.149085 229.810115 246.340904 227.057013 
L 250.185761 218.175393 
Q 251.37758 215.422291 248.624479 214.230473 
L 242.785609 211.702823 
Q 240.032508 210.511005 238.840689 213.264106 
L 234.995832 222.145726 
Q 233.804013 224.898828 236.557114 226.090647 
z
" clip-path="url(#p9cd1994ef0)" style="fill: #ffffff; stroke: #ffffff; stroke-linejoin: miter"/>
    </g>
    <g clip-path="url(#p9cd1994ef0)">
     <!-- 5 -->
     <g transform="translate(238.575137 221.429015) rotate(-336.592193) scale(0.1 -0.1)">
      <defs>
       <path id="DejaVuSans-35" d="M 691 4666 
L 3169 4666 
L 3169 4134 
L 1269 4134 
L 1269 2991 
Q 1406 3038 1543 3061 
Q 1681 3084 1819 3084 
Q 2600 3084 3056 2656 
Q 3513 2228 3513 1497 
Q 3513 744 3044 326 
Q 2575 -91 1722 -91 
Q 1428 -91 1123 -41 
Q 819 9 494 109 
L 494 744 
Q 775 591 1075 516 
Q 1375 441 1709 441 
Q 2250 441 2565 725 
Q 2881 1009 2881 1497 
Q 2881 1984 2565 2268 
Q 2250 2553 1709 2553 
Q 1456 2553 1204 2497 
Q 953 2441 691 2322 
L 691 4666 
z
" transform="scale(0.015625)"/>
      </defs>
      <use xlink:href="#DejaVuSans-35"/>
     </g>
    </g>
   </g>
   <g id="text_2">
    <g id="patch_4">
     <path d="M 451.749236 232.269163 
L 454.810032 226.691266 
Q 456.253236 224.061216 453.623186 222.618012 
L 445.138536 217.962175 
Q 442.508487 216.518971 441.065282 219.149021 
L 438.004487 224.726918 
Q 436.561283 227.356968 439.191332 228.800172 
L 447.675982 233.456009 
Q 450.306032 234.899213 451.749236 232.269163 
z
" clip-path="url(#p9cd1994ef0)" style="fill: #ffffff; stroke: #ffffff; stroke-linejoin: miter"/>
    </g>
    <g clip-path="url(#p9cd1994ef0)">
     <!-- 5 -->
     <g transform="translate(447.295959 229.825488) rotate(-61.244818) scale(0.1 -0.1)">
      <use xlink:href="#DejaVuSans-35"/>
     </g>
    </g>
   </g>
   <g id="text_3">
    <g id="patch_5">
     <path d="M 354.636567 313.158999 
L 367.041642 310.323553 
Q 369.966217 309.655079 369.297743 306.730503 
L 367.141216 297.295701 
Q 366.472742 294.371125 363.548166 295.039599 
L 351.143092 297.875045 
Q 348.218516 298.543519 348.886991 301.468095 
L 351.043517 310.902897 
Q 351.711991 313.827473 354.636567 313.158999 
z
" clip-path="url(#p9cd1994ef0)" style="fill: #ffffff; stroke: #ffffff; stroke-linejoin: miter"/>
    </g>
    <g clip-path="url(#p9cd1994ef0)">
     <!-- 20 -->
     <g transform="translate(353.504687 308.207022) rotate(-12.875002) scale(0.1 -0.1)">
      <defs>
       <path id="DejaVuSans-32" d="M 1228 531 
L 3431 531 
L 3431 0 
L 469 0 
L 469 531 
Q 828 903 1448 1529 
Q 2069 2156 2228 2338 
Q 2531 2678 2651 2914 
Q 2772 3150 2772 3378 
Q 2772 3750 2511 3984 
Q 2250 4219 1831 4219 
Q 1534 4219 1204 4116 
Q 875 4013 500 3803 
L 500 4441 
Q 881 4594 1212 4672 
Q 1544 4750 1819 4750 
Q 2544 4750 2975 4387 
Q 3406 4025 3406 3419 
Q 3406 3131 3298 2873 
Q 3191 2616 2906 2266 
Q 2828 2175 2409 1742 
Q 1991 1309 1228 531 
z
" transform="scale(0.015625)"/>
       <path id="DejaVuSans-30" d="M 2034 4250 
Q 1547 4250 1301 3770 
Q 1056 3291 1056 2328 
Q 1056 1369 1301 889 
Q 1547 409 2034 409 
Q 2525 409 2770 889 
Q 3016 1369 3016 2328 
Q 3016 3291 2770 3770 
Q 2525 4250 2034 4250 
z
M 2034 4750 
Q 2819 4750 3233 4129 
Q 3647 3509 3647 2328 
Q 3647 1150 3233 529 
Q 2819 -91 2034 -91 
Q 1250 -91 836 529 
Q 422 1150 422 2328 
Q 422 3509 836 4129 
Q 1250 4750 2034 4750 
z
" transform="scale(0.015625)"/>
      </defs>
      <use xlink:href="#DejaVuSans-32"/>
      <use xlink:href="#DejaVuSans-30" x="63.623047"/>
     </g>
    </g>
   </g>
   <g id="text_4">
    <g id="patch_6">
     <path d="M 305.764931 241.622581 
L 316.789015 247.978303 
Q 319.388013 249.476705 320.886415 246.877707 
L 325.720322 238.493231 
Q 327.218724 235.894232 324.619726 234.39583 
L 313.595642 228.040109 
Q 310.996644 226.541707 309.498242 229.140705 
L 304.664335 237.525181 
Q 303.165933 240.124179 305.764931 241.622581 
z
" clip-path="url(#p9cd1994ef0)" style="fill: #ffffff; stroke: #ffffff; stroke-linejoin: miter"/>
    </g>
    <g clip-path="url(#p9cd1994ef0)">
     <!-- 15 -->
     <g transform="translate(308.302069 237.221882) rotate(-330.035235) scale(0.1 -0.1)">
      <defs>
       <path id="DejaVuSans-31" d="M 794 531 
L 1825 531 
L 1825 4091 
L 703 3866 
L 703 4441 
L 1819 4666 
L 2450 4666 
L 2450 531 
L 3481 531 
L 3481 0 
L 794 0 
L 794 531 
z
" transform="scale(0.015625)"/>
      </defs>
      <use xlink:href="#DejaVuSans-31"/>
      <use xlink:href="#DejaVuSans-35" x="63.623047"/>
     </g>
    </g>
   </g>
   <g id="text_5">
    <g id="patch_7">
     <path d="M 428.344267 317.360444 
L 438.297259 325.289099 
Q 440.64374 327.15833 442.512971 324.811848 
L 448.543189 317.242001 
Q 450.41242 314.89552 448.065938 313.026289 
L 438.112946 305.097634 
Q 435.766464 303.228403 433.897233 305.574884 
L 427.867016 313.144731 
Q 425.997785 315.491213 428.344267 317.360444 
z
" clip-path="url(#p9cd1994ef0)" style="fill: #ffffff; stroke: #ffffff; stroke-linejoin: miter"/>
    </g>
    <g clip-path="url(#p9cd1994ef0)">
     <!-- 10 -->
     <g transform="translate(431.509303 313.387313) rotate(-321.458816) scale(0.1 -0.1)">
      <use xlink:href="#DejaVuSans-31"/>
      <use xlink:href="#DejaVuSans-30" x="63.623047"/>
     </g>
    </g>
   </g>
   <g id="text_6">
    <g id="patch_8">
     <path d="M 318.557936 192.465412 
L 331.131204 190.506189 
Q 334.095432 190.044289 333.633533 187.080061 
L 332.143426 177.517337 
Q 331.681526 174.553109 328.717298 175.015009 
L 316.14403 176.974232 
Q 313.179802 177.436131 313.641701 180.40036 
L 315.131808 189.963083 
Q 315.593708 192.927312 318.557936 192.465412 
z
" clip-path="url(#p9cd1994ef0)" style="fill: #ffffff; stroke: #ffffff; stroke-linejoin: miter"/>
    </g>
    <g clip-path="url(#p9cd1994ef0)">
     <!-- 11 -->
     <g transform="translate(317.775834 187.446294) rotate(-8.85686) scale(0.1 -0.1)">
      <use xlink:href="#DejaVuSans-31"/>
      <use xlink:href="#DejaVuSans-31" x="63.623047"/>
     </g>
    </g>
   </g>
   <g id="text_7">
    <g id="patch_9">
     <path d="M 320.273833 333.833012 
L 325.388205 337.617799 
Q 327.799697 339.402374 329.584272 336.990882 
L 335.341385 329.21131 
Q 337.12596 326.799818 334.714469 325.015243 
L 329.600097 321.230457 
Q 327.188605 319.445882 325.40403 321.857373 
L 319.646917 329.636946 
Q 317.862342 332.048437 320.273833 333.833012 
z
" clip-path="url(#p9cd1994ef0)" style="fill: #ffffff; stroke: #ffffff; stroke-linejoin: miter"/>
    </g>
    <g clip-path="url(#p9cd1994ef0)">
     <!-- 4 -->
     <g transform="translate(323.295528 329.749804) rotate(-323.497465) scale(0.1 -0.1)">
      <defs>
       <path id="DejaVuSans-34" d="M 2419 4116 
L 825 1625 
L 2419 1625 
L 2419 4116 
z
M 2253 4666 
L 3047 4666 
L 3047 1625 
L 3713 1625 
L 3713 1100 
L 3047 1100 
L 3047 0 
L 2419 0 
L 2419 1100 
L 313 1100 
L 313 1709 
L 2253 4666 
z
" transform="scale(0.015625)"/>
      </defs>
      <use xlink:href="#DejaVuSans-34"/>
     </g>
    </g>
   </g>
   <g id="text_8">
    <g id="patch_10">
     <path d="M 173.850986 246.743163 
L 176.607822 252.477382 
Q 177.907705 255.181139 180.611462 253.881256 
L 189.333896 249.687778 
Q 192.037653 248.387895 190.73777 245.684137 
L 187.980934 239.949919 
Q 186.681051 237.246162 183.977294 238.546045 
L 175.25486 242.739523 
Q 172.551103 244.039406 173.850986 246.743163 
z
" clip-path="url(#p9cd1994ef0)" style="fill: #ffffff; stroke: #ffffff; stroke-linejoin: miter"/>
    </g>
    <g clip-path="url(#p9cd1994ef0)">
     <!-- 4 -->
     <g transform="translate(178.429067 244.542163) rotate(-295.676816) scale(0.1 -0.1)">
      <use xlink:href="#DejaVuSans-34"/>
     </g>
    </g>
   </g>
   <g id="text_9">
    <g id="patch_11">
     <path d="M 161.292237 310.498204 
L 161.96235 304.171092 
Q 162.278317 301.187777 159.295002 300.87181 
L 149.670706 299.852488 
Q 146.687391 299.536521 146.371425 302.519836 
L 145.701312 308.846949 
Q 145.385345 311.830263 148.368659 312.14623 
L 157.992956 313.165552 
Q 160.97627 313.481519 161.292237 310.498204 
z
" clip-path="url(#p9cd1994ef0)" style="fill: #ffffff; stroke: #ffffff; stroke-linejoin: miter"/>
    </g>
    <g clip-path="url(#p9cd1994ef0)">
     <!-- 5 -->
     <g transform="translate(156.240802 309.9632) rotate(-83.954266) scale(0.1 -0.1)">
      <use xlink:href="#DejaVuSans-35"/>
     </g>
    </g>
   </g>
   <g id="text_10">
    <g id="patch_12">
     <path d="M 272.169882 328.819333 
L 276.645478 333.34155 
Q 278.755779 335.473833 280.888062 333.363532 
L 287.766895 326.555614 
Q 289.899178 324.445313 287.788878 322.31303 
L 283.313282 317.790813 
Q 281.202981 315.65853 279.070698 317.768831 
L 272.191864 324.576749 
Q 270.059581 326.68705 272.169882 328.819333 
z
" clip-path="url(#p9cd1994ef0)" style="fill: #ffffff; stroke: #ffffff; stroke-linejoin: miter"/>
    </g>
    <g clip-path="url(#p9cd1994ef0)">
     <!-- 3 -->
     <g transform="translate(275.780325 325.24611) rotate(-314.703133) scale(0.1 -0.1)">
      <defs>
       <path id="DejaVuSans-33" d="M 2597 2516 
Q 3050 2419 3304 2112 
Q 3559 1806 3559 1356 
Q 3559 666 3084 287 
Q 2609 -91 1734 -91 
Q 1441 -91 1130 -33 
Q 819 25 488 141 
L 488 750 
Q 750 597 1062 519 
Q 1375 441 1716 441 
Q 2309 441 2620 675 
Q 2931 909 2931 1356 
Q 2931 1769 2642 2001 
Q 2353 2234 1838 2234 
L 1294 2234 
L 1294 2753 
L 1863 2753 
Q 2328 2753 2575 2939 
Q 2822 3125 2822 3475 
Q 2822 3834 2567 4026 
Q 2313 4219 1838 4219 
Q 1578 4219 1281 4162 
Q 984 4106 628 3988 
L 628 4550 
Q 988 4650 1302 4700 
Q 1616 4750 1894 4750 
Q 2613 4750 3031 4423 
Q 3450 4097 3450 3541 
Q 3450 3153 3228 2886 
Q 3006 2619 2597 2516 
z
" transform="scale(0.015625)"/>
      </defs>
      <use xlink:href="#DejaVuSans-33"/>
     </g>
    </g>
   </g>
   <g id="text_11">
    <g id="patch_13">
     <path d="M 394.069777 355.574595 
L 397.197235 367.909287 
Q 397.934553 370.81727 400.842535 370.079952 
L 410.223808 367.701333 
Q 413.13179 366.964015 412.394472 364.056032 
L 409.267015 351.72134 
Q 408.529697 348.813358 405.621714 349.550676 
L 396.240441 351.929294 
Q 393.332459 352.666613 394.069777 355.574595 
z
" clip-path="url(#p9cd1994ef0)" style="fill: #ffffff; stroke: #ffffff; stroke-linejoin: miter"/>
    </g>
    <g clip-path="url(#p9cd1994ef0)">
     <!-- 11 -->
     <g transform="translate(398.993658 354.326147) rotate(-284.227502) scale(0.1 -0.1)">
      <use xlink:href="#DejaVuSans-31"/>
      <use xlink:href="#DejaVuSans-31" x="63.623047"/>
     </g>
    </g>
   </g>
   <g id="text_12">
    <g id="patch_14">
     <path d="M 362.754691 399.445704 
L 366.624582 404.495986 
Q 368.449285 406.877259 370.830557 405.052556 
L 378.512642 399.165988 
Q 380.893914 397.341285 379.069211 394.960012 
L 375.199321 389.90973 
Q 373.374618 387.528458 370.993345 389.353161 
L 363.31126 395.239728 
Q 360.929988 397.064431 362.754691 399.445704 
z
" clip-path="url(#p9cd1994ef0)" style="fill: #ffffff; stroke: #ffffff; stroke-linejoin: miter"/>
    </g>
    <g clip-path="url(#p9cd1994ef0)">
     <!-- 3 -->
     <g transform="translate(366.786731 396.356064) rotate(-307.461942) scale(0.1 -0.1)">
      <use xlink:href="#DejaVuSans-33"/>
     </g>
    </g>
   </g>
   <g id="text_13">
    <g id="patch_15">
     <path d="M 290.996862 344.96925 
L 297.359306 344.995945 
Q 300.359279 345.008533 300.371867 342.008559 
L 300.412474 332.330519 
Q 300.425061 329.330546 297.425087 329.317958 
L 291.062643 329.291263 
Q 288.06267 329.278676 288.050082 332.278649 
L 288.009475 341.956689 
Q 287.996888 344.956663 290.996862 344.96925 
z
" clip-path="url(#p9cd1994ef0)" style="fill: #ffffff; stroke: #ffffff; stroke-linejoin: miter"/>
    </g>
    <g clip-path="url(#p9cd1994ef0)">
     <!-- 2 -->
     <g transform="translate(291.018175 339.889607) rotate(-359.7596) scale(0.1 -0.1)">
      <use xlink:href="#DejaVuSans-32"/>
     </g>
    </g>
   </g>
   <g id="text_14">
    <g id="patch_16">
     <path d="M 110.69522 215.983978 
L 110.865001 222.344213 
Q 110.945054 225.343144 113.943986 225.263091 
L 123.618665 225.004834 
Q 126.617597 224.924781 126.537543 221.925849 
L 126.367763 215.565615 
Q 126.287709 212.566683 123.288777 212.646737 
L 113.614099 212.904993 
Q 110.615167 212.985047 110.69522 215.983978 
z
" clip-path="url(#p9cd1994ef0)" style="fill: #ffffff; stroke: #ffffff; stroke-linejoin: miter"/>
    </g>
    <g clip-path="url(#p9cd1994ef0)">
     <!-- 4 -->
     <g transform="translate(115.773099 215.848429) rotate(-271.529093) scale(0.1 -0.1)">
      <use xlink:href="#DejaVuSans-34"/>
     </g>
    </g>
   </g>
   <g id="text_15">
    <g id="patch_17">
     <path d="M 146.036579 200.864229 
L 146.800233 194.547724 
Q 147.160305 191.569411 144.181992 191.209339 
L 134.57383 190.04773 
Q 131.595517 189.687658 131.235445 192.665971 
L 130.471792 198.982476 
Q 130.111719 201.960789 133.090032 202.320861 
L 142.698194 203.48247 
Q 145.676507 203.842542 146.036579 200.864229 
z
" clip-path="url(#p9cd1994ef0)" style="fill: #ffffff; stroke: #ffffff; stroke-linejoin: miter"/>
    </g>
    <g clip-path="url(#p9cd1994ef0)">
     <!-- 7 -->
     <g transform="translate(140.993613 200.254544) rotate(-83.106505) scale(0.1 -0.1)">
      <defs>
       <path id="DejaVuSans-37" d="M 525 4666 
L 3525 4666 
L 3525 4397 
L 1831 0 
L 1172 0 
L 2766 4134 
L 525 4134 
L 525 4666 
z
" transform="scale(0.015625)"/>
      </defs>
      <use xlink:href="#DejaVuSans-37"/>
     </g>
    </g>
   </g>
   <g id="text_16">
    <g id="patch_18">
     <path d="M 305.393445 218.538794 
L 314.377818 227.550269 
Q 316.495941 229.674782 318.620453 227.556658 
L 325.47422 220.723505 
Q 327.598733 218.605382 325.480609 216.480869 
L 316.496237 207.469394 
Q 314.378114 205.344881 312.253601 207.463005 
L 305.399835 214.296158 
Q 303.275322 216.414281 305.393445 218.538794 
z
" clip-path="url(#p9cd1994ef0)" style="fill: #ffffff; stroke: #ffffff; stroke-linejoin: miter"/>
    </g>
    <g clip-path="url(#p9cd1994ef0)">
     <!-- 20 -->
     <g transform="translate(308.990732 214.952326) rotate(-314.913711) scale(0.1 -0.1)">
      <use xlink:href="#DejaVuSans-32"/>
      <use xlink:href="#DejaVuSans-30" x="63.623047"/>
     </g>
    </g>
   </g>
   <g id="text_17">
    <g id="patch_19">
     <path d="M 338.185359 283.075068 
L 348.300628 290.795623 
Q 350.685367 292.615793 352.505537 290.231054 
L 358.377482 282.537786 
Q 360.197652 280.153047 357.812913 278.332877 
L 347.697645 270.612322 
Q 345.312906 268.792152 343.492735 271.176891 
L 337.620791 278.870159 
Q 335.80062 281.254898 338.185359 283.075068 
z
" clip-path="url(#p9cd1994ef0)" style="fill: #ffffff; stroke: #ffffff; stroke-linejoin: miter"/>
    </g>
    <g clip-path="url(#p9cd1994ef0)">
     <!-- 12 -->
     <g transform="translate(341.267325 279.037158) rotate(-322.647042) scale(0.1 -0.1)">
      <use xlink:href="#DejaVuSans-31"/>
      <use xlink:href="#DejaVuSans-32" x="63.623047"/>
     </g>
    </g>
   </g>
   <g id="text_18">
    <g id="patch_20">
     <path d="M 491.050887 296.439019 
L 491.659175 290.105664 
Q 491.945991 287.119406 488.959733 286.83259 
L 479.32594 285.907311 
Q 476.339682 285.620495 476.052866 288.606753 
L 475.444578 294.940108 
Q 475.157762 297.926366 478.14402 298.213182 
L 487.777813 299.138462 
Q 490.764071 299.425277 491.050887 296.439019 
z
" clip-path="url(#p9cd1994ef0)" style="fill: #ffffff; stroke: #ffffff; stroke-linejoin: miter"/>
    </g>
    <g clip-path="url(#p9cd1994ef0)">
     <!-- 5 -->
     <g transform="translate(485.994467 295.953375) rotate(-84.513844) scale(0.1 -0.1)">
      <use xlink:href="#DejaVuSans-35"/>
     </g>
    </g>
   </g>
   <g id="text_19">
    <g id="patch_21">
     <path d="M 236.82041 247.746336 
L 247.906188 253.993829 
Q 250.51973 255.466715 251.992617 252.853172 
L 256.74421 244.421775 
Q 258.217096 241.808232 255.603553 240.335345 
L 244.517776 234.087852 
Q 241.904233 232.614966 240.431347 235.228509 
L 235.679754 243.659907 
Q 234.206868 246.273449 236.82041 247.746336 
z
" clip-path="url(#p9cd1994ef0)" style="fill: #ffffff; stroke: #ffffff; stroke-linejoin: miter"/>
    </g>
    <g clip-path="url(#p9cd1994ef0)">
     <!-- 13 -->
     <g transform="translate(239.314345 243.321009) rotate(-330.596161) scale(0.1 -0.1)">
      <use xlink:href="#DejaVuSans-31"/>
      <use xlink:href="#DejaVuSans-33" x="63.623047"/>
     </g>
    </g>
   </g>
   <g id="text_20">
    <g id="patch_22">
     <path d="M 385.289812 287.939063 
L 390.431698 299.578935 
Q 391.64393 302.32311 394.388104 301.110877 
L 403.240925 297.200165 
Q 405.985099 295.987933 404.772867 293.243759 
L 399.630982 281.603886 
Q 398.418749 278.859711 395.674575 280.071944 
L 386.821754 283.982656 
Q 384.07758 285.194888 385.289812 287.939063 
z
" clip-path="url(#p9cd1994ef0)" style="fill: #ffffff; stroke: #ffffff; stroke-linejoin: miter"/>
    </g>
    <g clip-path="url(#p9cd1994ef0)">
     <!-- 10 -->
     <g transform="translate(389.936328 285.886475) rotate(-293.833328) scale(0.1 -0.1)">
      <use xlink:href="#DejaVuSans-31"/>
      <use xlink:href="#DejaVuSans-30" x="63.623047"/>
     </g>
    </g>
   </g>
   <g id="text_21">
    <g id="patch_23">
     <path d="M 311.434024 266.029059 
L 316.405875 269.999211 
Q 318.750166 271.871188 320.622144 269.526897 
L 326.66122 261.964115 
Q 328.533197 259.619824 326.188905 257.747847 
L 321.217054 253.777695 
Q 318.872763 251.905718 317.000786 254.25001 
L 310.96171 261.812791 
Q 309.089733 264.157082 311.434024 266.029059 
z
" clip-path="url(#p9cd1994ef0)" style="fill: #ffffff; stroke: #ffffff; stroke-linejoin: miter"/>
    </g>
    <g clip-path="url(#p9cd1994ef0)">
     <!-- 7 -->
     <g transform="translate(314.60371 262.059637) rotate(-321.391732) scale(0.1 -0.1)">
      <use xlink:href="#DejaVuSans-37"/>
     </g>
    </g>
   </g>
   <g id="text_22">
    <g id="patch_24">
     <path d="M 73.68104 378.439263 
L 79.376157 381.275995 
Q 82.061478 382.61355 83.399033 379.928229 
L 87.714041 371.265273 
Q 89.051597 368.579953 86.366276 367.242398 
L 80.671159 364.405666 
Q 77.985838 363.068111 76.648283 365.753432 
L 72.333275 374.416388 
Q 70.99572 377.101708 73.68104 378.439263 
z
" clip-path="url(#p9cd1994ef0)" style="fill: #ffffff; stroke: #ffffff; stroke-linejoin: miter"/>
    </g>
    <g clip-path="url(#p9cd1994ef0)">
     <!-- 2 -->
     <g transform="translate(75.945827 373.8924) rotate(-333.522157) scale(0.1 -0.1)">
      <use xlink:href="#DejaVuSans-32"/>
     </g>
    </g>
   </g>
   <g id="text_23">
    <g id="patch_25">
     <path d="M 69.679676 237.845289 
L 74.327196 249.691224 
Q 75.422879 252.483979 78.215634 251.388296 
L 87.225177 247.853579 
Q 90.017932 246.757896 88.92225 243.965141 
L 84.274729 232.119206 
Q 83.179047 229.326451 80.386292 230.422134 
L 71.376748 233.956851 
Q 68.583993 235.052534 69.679676 237.845289 
z
" clip-path="url(#p9cd1994ef0)" style="fill: #ffffff; stroke: #ffffff; stroke-linejoin: miter"/>
    </g>
    <g clip-path="url(#p9cd1994ef0)">
     <!-- 16 -->
     <g transform="translate(74.40845 235.990047) rotate(-291.421586) scale(0.1 -0.1)">
      <defs>
       <path id="DejaVuSans-36" d="M 2113 2584 
Q 1688 2584 1439 2293 
Q 1191 2003 1191 1497 
Q 1191 994 1439 701 
Q 1688 409 2113 409 
Q 2538 409 2786 701 
Q 3034 994 3034 1497 
Q 3034 2003 2786 2293 
Q 2538 2584 2113 2584 
z
M 3366 4563 
L 3366 3988 
Q 3128 4100 2886 4159 
Q 2644 4219 2406 4219 
Q 1781 4219 1451 3797 
Q 1122 3375 1075 2522 
Q 1259 2794 1537 2939 
Q 1816 3084 2150 3084 
Q 2853 3084 3261 2657 
Q 3669 2231 3669 1497 
Q 3669 778 3244 343 
Q 2819 -91 2113 -91 
Q 1303 -91 875 529 
Q 447 1150 447 2328 
Q 447 3434 972 4092 
Q 1497 4750 2381 4750 
Q 2619 4750 2861 4703 
Q 3103 4656 3366 4563 
z
" transform="scale(0.015625)"/>
      </defs>
      <use xlink:href="#DejaVuSans-31"/>
      <use xlink:href="#DejaVuSans-36" x="63.623047"/>
     </g>
    </g>
   </g>
   <g id="text_24">
    <g id="patch_26">
     <path d="M 224.059978 369.976257 
L 235.266076 363.947245 
Q 237.907985 362.525867 236.486607 359.883958 
L 231.901183 351.361049 
Q 230.479804 348.719139 227.837895 350.140517 
L 216.631797 356.169529 
Q 213.989888 357.590908 215.411266 360.232817 
L 219.996691 368.755726 
Q 221.418069 371.397635 224.059978 369.976257 
z
" clip-path="url(#p9cd1994ef0)" style="fill: #ffffff; stroke: #ffffff; stroke-linejoin: miter"/>
    </g>
    <g clip-path="url(#p9cd1994ef0)">
     <!-- 13 -->
     <g transform="translate(221.653259 365.502899) rotate(-28.280771) scale(0.1 -0.1)">
      <use xlink:href="#DejaVuSans-31"/>
      <use xlink:href="#DejaVuSans-33" x="63.623047"/>
     </g>
    </g>
   </g>
   <g id="text_25">
    <g id="patch_27">
     <path d="M 312.944874 434.707992 
L 319.252703 435.540275 
Q 322.226925 435.932707 322.619357 432.958485 
L 323.88536 423.363521 
Q 324.277792 420.389299 321.30357 419.996866 
L 314.99574 419.164583 
Q 312.021518 418.772151 311.629086 421.746373 
L 310.363084 431.341338 
Q 309.970652 434.31556 312.944874 434.707992 
z
" clip-path="url(#p9cd1994ef0)" style="fill: #ffffff; stroke: #ffffff; stroke-linejoin: miter"/>
    </g>
    <g clip-path="url(#p9cd1994ef0)">
     <!-- 6 -->
     <g transform="translate(313.609351 429.671952) rotate(-352.483558) scale(0.1 -0.1)">
      <use xlink:href="#DejaVuSans-36"/>
     </g>
    </g>
   </g>
   <g id="text_26">
    <g id="patch_28">
     <path d="M 255.743929 192.560314 
L 268.461283 193.001379 
Q 271.45948 193.105362 271.563464 190.107165 
L 271.898919 180.434855 
Q 272.002903 177.436658 269.004706 177.332674 
L 256.287352 176.89161 
Q 253.289155 176.787626 253.185171 179.785824 
L 252.849715 189.458133 
Q 252.745731 192.456331 255.743929 192.560314 
z
" clip-path="url(#p9cd1994ef0)" style="fill: #ffffff; stroke: #ffffff; stroke-linejoin: miter"/>
    </g>
    <g clip-path="url(#p9cd1994ef0)">
     <!-- 13 -->
     <g transform="translate(255.919997 187.483679) rotate(-358.013659) scale(0.1 -0.1)">
      <use xlink:href="#DejaVuSans-31"/>
      <use xlink:href="#DejaVuSans-33" x="63.623047"/>
     </g>
    </g>
   </g>
   <g id="text_27">
    <g id="patch_29">
     <path d="M 143.085042 172.504036 
L 149.263563 174.023008 
Q 152.176815 174.739223 152.89303 171.825971 
L 155.203568 162.427699 
Q 155.919783 159.514447 153.006531 158.798232 
L 146.82801 157.27926 
Q 143.914758 156.563046 143.198543 159.476297 
L 140.888004 168.874569 
Q 140.17179 171.787821 143.085042 172.504036 
z
" clip-path="url(#p9cd1994ef0)" style="fill: #ffffff; stroke: #ffffff; stroke-linejoin: miter"/>
    </g>
    <g clip-path="url(#p9cd1994ef0)">
     <!-- 6 -->
     <g transform="translate(144.297757 167.571233) rotate(-346.187917) scale(0.1 -0.1)">
      <use xlink:href="#DejaVuSans-36"/>
     </g>
    </g>
   </g>
   <g id="text_28">
    <g id="patch_30">
     <path d="M 348.00804 144.198144 
L 353.966822 141.967825 
Q 356.776464 140.916201 355.72484 138.106559 
L 352.332257 129.042538 
Q 351.280633 126.232896 348.470991 127.28452 
L 342.512209 129.514839 
Q 339.702567 130.566463 340.754191 133.376105 
L 344.146774 142.440126 
Q 345.198398 145.249768 348.00804 144.198144 
z
" clip-path="url(#p9cd1994ef0)" style="fill: #ffffff; stroke: #ffffff; stroke-linejoin: miter"/>
    </g>
    <g clip-path="url(#p9cd1994ef0)">
     <!-- 7 -->
     <g transform="translate(346.227399 139.440777) rotate(-20.520428) scale(0.1 -0.1)">
      <use xlink:href="#DejaVuSans-37"/>
     </g>
    </g>
   </g>
   <g id="text_29">
    <g id="patch_31">
     <path d="M 160.733712 146.720995 
L 165.751005 150.633563 
Q 168.116722 152.478388 169.961548 150.112671 
L 175.913031 142.480768 
Q 177.757857 140.11505 175.39214 138.270225 
L 170.374847 134.357658 
Q 168.00913 132.512832 166.164304 134.878549 
L 160.21282 142.510452 
Q 158.367995 144.87617 160.733712 146.720995 
z
" clip-path="url(#p9cd1994ef0)" style="fill: #ffffff; stroke: #ffffff; stroke-linejoin: miter"/>
    </g>
    <g clip-path="url(#p9cd1994ef0)">
     <!-- 6 -->
     <g transform="translate(163.857425 142.715294) rotate(-322.052306) scale(0.1 -0.1)">
      <use xlink:href="#DejaVuSans-36"/>
     </g>
    </g>
   </g>
   <g id="text_30">
    <g id="patch_32">
     <path d="M 145.255009 337.489029 
L 151.599956 337.961307 
Q 154.59168 338.183992 154.814365 335.192268 
L 155.532756 325.540842 
Q 155.755441 322.549118 152.763717 322.326433 
L 146.418769 321.854156 
Q 143.427046 321.631471 143.204361 324.623195 
L 142.48597 334.27462 
Q 142.263285 337.266344 145.255009 337.489029 
z
" clip-path="url(#p9cd1994ef0)" style="fill: #ffffff; stroke: #ffffff; stroke-linejoin: miter"/>
    </g>
    <g clip-path="url(#p9cd1994ef0)">
     <!-- 5 -->
     <g transform="translate(145.632065 332.423355) rotate(-355.743116) scale(0.1 -0.1)">
      <use xlink:href="#DejaVuSans-35"/>
     </g>
    </g>
   </g>
   <g id="text_31">
    <g id="patch_33">
     <path d="M 82.763377 242.486227 
L 82.832912 229.761417 
Q 82.849305 226.761462 79.84935 226.745069 
L 70.171369 226.692183 
Q 67.171414 226.67579 67.155021 229.675745 
L 67.085486 242.400555 
Q 67.069093 245.400511 70.069048 245.416904 
L 79.747029 245.469789 
Q 82.746984 245.486182 82.763377 242.486227 
z
" clip-path="url(#p9cd1994ef0)" style="fill: #ffffff; stroke: #ffffff; stroke-linejoin: miter"/>
    </g>
    <g clip-path="url(#p9cd1994ef0)">
     <!-- 10 -->
     <g transform="translate(77.683766 242.45847) rotate(-89.686911) scale(0.1 -0.1)">
      <use xlink:href="#DejaVuSans-31"/>
      <use xlink:href="#DejaVuSans-30" x="63.623047"/>
     </g>
    </g>
   </g>
   <g id="text_32">
    <g id="patch_34">
     <path d="M 60.38623 96.309684 
L 66.572504 97.796769 
Q 69.489411 98.497949 70.190591 95.581042 
L 72.452625 86.170978 
Q 73.153805 83.254071 70.236898 82.552891 
L 64.050624 81.065806 
Q 61.133717 80.364626 60.432537 83.281533 
L 58.170502 92.691597 
Q 57.469323 95.608504 60.38623 96.309684 
z
" clip-path="url(#p9cd1994ef0)" style="fill: #ffffff; stroke: #ffffff; stroke-linejoin: miter"/>
    </g>
    <g clip-path="url(#p9cd1994ef0)">
     <!-- 1 -->
     <g transform="translate(61.573488 91.370692) rotate(-346.483432) scale(0.1 -0.1)">
      <use xlink:href="#DejaVuSans-31"/>
     </g>
    </g>
   </g>
   <g id="text_33">
    <g id="patch_35">
     <path d="M 181.922138 111.747488 
L 194.638761 112.209148 
Q 197.636786 112.317987 197.745625 109.319962 
L 198.096745 99.648208 
Q 198.205584 96.650183 195.207559 96.541344 
L 182.490936 96.079685 
Q 179.492911 95.970845 179.384072 98.96887 
L 179.032952 108.640624 
Q 178.924113 111.638649 181.922138 111.747488 
z
" clip-path="url(#p9cd1994ef0)" style="fill: #ffffff; stroke: #ffffff; stroke-linejoin: miter"/>
    </g>
    <g clip-path="url(#p9cd1994ef0)">
     <!-- 15 -->
     <g transform="translate(182.106428 106.671145) rotate(-357.920868) scale(0.1 -0.1)">
      <use xlink:href="#DejaVuSans-31"/>
      <use xlink:href="#DejaVuSans-35" x="63.623047"/>
     </g>
    </g>
   </g>
   <g id="text_34">
    <g id="patch_36">
     <path d="M 114.575302 164.556976 
L 115.275361 170.880845 
Q 115.605448 173.86263 118.587234 173.532543 
L 128.206597 172.467669 
Q 131.188382 172.137582 130.858295 169.155797 
L 130.158236 162.831928 
Q 129.828149 159.850143 126.846363 160.18023 
L 117.227 161.245104 
Q 114.245215 161.575191 114.575302 164.556976 
z
" clip-path="url(#p9cd1994ef0)" style="fill: #ffffff; stroke: #ffffff; stroke-linejoin: miter"/>
    </g>
    <g clip-path="url(#p9cd1994ef0)">
     <!-- 9 -->
     <g transform="translate(119.624148 163.998063) rotate(-276.316986) scale(0.1 -0.1)">
      <defs>
       <path id="DejaVuSans-39" d="M 703 97 
L 703 672 
Q 941 559 1184 500 
Q 1428 441 1663 441 
Q 2288 441 2617 861 
Q 2947 1281 2994 2138 
Q 2813 1869 2534 1725 
Q 2256 1581 1919 1581 
Q 1219 1581 811 2004 
Q 403 2428 403 3163 
Q 403 3881 828 4315 
Q 1253 4750 1959 4750 
Q 2769 4750 3195 4129 
Q 3622 3509 3622 2328 
Q 3622 1225 3098 567 
Q 2575 -91 1691 -91 
Q 1453 -91 1209 -44 
Q 966 3 703 97 
z
M 1959 2075 
Q 2384 2075 2632 2365 
Q 2881 2656 2881 3163 
Q 2881 3666 2632 3958 
Q 2384 4250 1959 4250 
Q 1534 4250 1286 3958 
Q 1038 3666 1038 3163 
Q 1038 2656 1286 2365 
Q 1534 2075 1959 2075 
z
" transform="scale(0.015625)"/>
      </defs>
      <use xlink:href="#DejaVuSans-39"/>
     </g>
    </g>
   </g>
   <g id="text_35">
    <g id="patch_37">
     <path d="M 264.844043 111.927016 
L 271.205582 112.037564 
Q 274.205129 112.089689 274.257254 109.090142 
L 274.425411 99.413478 
Q 274.477536 96.41393 271.477989 96.361806 
L 265.116449 96.251258 
Q 262.116902 96.199133 262.064777 99.19868 
L 261.89662 108.875344 
Q 261.844496 111.874891 264.844043 111.927016 
z
" clip-path="url(#p9cd1994ef0)" style="fill: #ffffff; stroke: #ffffff; stroke-linejoin: miter"/>
    </g>
    <g clip-path="url(#p9cd1994ef0)">
     <!-- 9 -->
     <g transform="translate(264.932302 106.848095) rotate(-359.004439) scale(0.1 -0.1)">
      <use xlink:href="#DejaVuSans-39"/>
     </g>
    </g>
   </g>
   <g id="text_36">
    <g id="patch_38">
     <path d="M 375.917791 336.278626 
L 377.339632 348.923941 
Q 377.67484 351.905155 380.656054 351.569946 
L 390.273574 350.488551 
Q 393.254788 350.153342 392.919579 347.172129 
L 391.497738 334.526814 
Q 391.16253 331.5456 388.181316 331.880808 
L 378.563796 332.962204 
Q 375.582582 333.297412 375.917791 336.278626 
z
" clip-path="url(#p9cd1994ef0)" style="fill: #ffffff; stroke: #ffffff; stroke-linejoin: miter"/>
    </g>
    <g clip-path="url(#p9cd1994ef0)">
     <!-- 10 -->
     <g transform="translate(380.965669 335.711041) rotate(-276.415403) scale(0.1 -0.1)">
      <use xlink:href="#DejaVuSans-31"/>
      <use xlink:href="#DejaVuSans-30" x="63.623047"/>
     </g>
    </g>
   </g>
   <g id="text_37">
    <g id="patch_39">
     <path d="M 332.659036 391.584827 
L 341.739137 400.499835 
Q 343.879829 402.601606 345.981599 400.460914 
L 352.761998 393.554952 
Q 354.863768 391.41426 352.723076 389.31249 
L 343.642974 380.397481 
Q 341.502282 378.295711 339.400512 380.436403 
L 332.620114 387.342364 
Q 330.518344 389.483056 332.659036 391.584827 
z
" clip-path="url(#p9cd1994ef0)" style="fill: #ffffff; stroke: #ffffff; stroke-linejoin: miter"/>
    </g>
    <g clip-path="url(#p9cd1994ef0)">
     <!-- 17 -->
     <g transform="translate(336.217814 387.960145) rotate(-315.525635) scale(0.1 -0.1)">
      <use xlink:href="#DejaVuSans-31"/>
      <use xlink:href="#DejaVuSans-37" x="63.623047"/>
     </g>
    </g>
   </g>
   <g id="text_38">
    <g id="patch_40">
     <path d="M 248.670147 370.359297 
L 259.812158 376.505941 
Q 262.438958 377.955051 263.888068 375.328251 
L 268.562959 366.854084 
Q 270.012069 364.227284 267.385269 362.778174 
L 256.243258 356.63153 
Q 253.616458 355.18242 252.167348 357.80922 
L 247.492457 366.283387 
Q 246.043347 368.910187 248.670147 370.359297 
z
" clip-path="url(#p9cd1994ef0)" style="fill: #ffffff; stroke: #ffffff; stroke-linejoin: miter"/>
    </g>
    <g clip-path="url(#p9cd1994ef0)">
     <!-- 11 -->
     <g transform="translate(251.123823 365.911523) rotate(-331.116071) scale(0.1 -0.1)">
      <use xlink:href="#DejaVuSans-31"/>
      <use xlink:href="#DejaVuSans-31" x="63.623047"/>
     </g>
    </g>
   </g>
   <g id="text_39">
    <g id="patch_41">
     <path d="M 442.740104 270.095751 
L 444.141773 263.889566 
Q 444.802678 260.963271 441.876382 260.302366 
L 432.436031 258.17026 
Q 429.509736 257.509355 428.848831 260.43565 
L 427.447162 266.641835 
Q 426.786257 269.56813 429.712553 270.229035 
L 439.152904 272.361142 
Q 442.079199 273.022047 442.740104 270.095751 
z
" clip-path="url(#p9cd1994ef0)" style="fill: #ffffff; stroke: #ffffff; stroke-linejoin: miter"/>
    </g>
    <g clip-path="url(#p9cd1994ef0)">
     <!-- 7 -->
     <g transform="translate(437.785215 268.976688) rotate(-77.273252) scale(0.1 -0.1)">
      <use xlink:href="#DejaVuSans-37"/>
     </g>
    </g>
   </g>
   <g id="text_40">
    <g id="patch_42">
     <path d="M 245.246983 148.145771 
L 257.525036 151.488682 
Q 260.419665 152.276795 261.207778 149.382166 
L 263.750262 140.043971 
Q 264.538374 137.149342 261.643745 136.361229 
L 249.365693 133.018318 
Q 246.471064 132.230206 245.682951 135.124835 
L 243.140467 144.463029 
Q 242.352354 147.357659 245.246983 148.145771 
z
" clip-path="url(#p9cd1994ef0)" style="fill: #ffffff; stroke: #ffffff; stroke-linejoin: miter"/>
    </g>
    <g clip-path="url(#p9cd1994ef0)">
     <!-- 11 -->
     <g transform="translate(246.581439 143.244501) rotate(-344.769419) scale(0.1 -0.1)">
      <use xlink:href="#DejaVuSans-31"/>
      <use xlink:href="#DejaVuSans-31" x="63.623047"/>
     </g>
    </g>
   </g>
   <g id="text_41">
    <g id="patch_43">
     <path d="M 56.070609 80.462298 
L 62.389771 79.720944 
Q 65.369336 79.371386 65.019778 76.39182 
L 63.892089 66.779619 
Q 63.542531 63.800053 60.562966 64.149611 
L 54.243805 64.890965 
Q 51.26424 65.240523 51.613798 68.220089 
L 52.741486 77.83229 
Q 53.091044 80.811856 56.070609 80.462298 
z
" clip-path="url(#p9cd1994ef0)" style="fill: #ffffff; stroke: #ffffff; stroke-linejoin: miter"/>
    </g>
    <g clip-path="url(#p9cd1994ef0)">
     <!-- 8 -->
     <g transform="translate(55.478727 75.417211) rotate(-6.691264) scale(0.1 -0.1)">
      <defs>
       <path id="DejaVuSans-38" d="M 2034 2216 
Q 1584 2216 1326 1975 
Q 1069 1734 1069 1313 
Q 1069 891 1326 650 
Q 1584 409 2034 409 
Q 2484 409 2743 651 
Q 3003 894 3003 1313 
Q 3003 1734 2745 1975 
Q 2488 2216 2034 2216 
z
M 1403 2484 
Q 997 2584 770 2862 
Q 544 3141 544 3541 
Q 544 4100 942 4425 
Q 1341 4750 2034 4750 
Q 2731 4750 3128 4425 
Q 3525 4100 3525 3541 
Q 3525 3141 3298 2862 
Q 3072 2584 2669 2484 
Q 3125 2378 3379 2068 
Q 3634 1759 3634 1313 
Q 3634 634 3220 271 
Q 2806 -91 2034 -91 
Q 1263 -91 848 271 
Q 434 634 434 1313 
Q 434 1759 690 2068 
Q 947 2378 1403 2484 
z
M 1172 3481 
Q 1172 3119 1398 2916 
Q 1625 2713 2034 2713 
Q 2441 2713 2670 2916 
Q 2900 3119 2900 3481 
Q 2900 3844 2670 4047 
Q 2441 4250 2034 4250 
Q 1625 4250 1398 4047 
Q 1172 3844 1172 3481 
z
" transform="scale(0.015625)"/>
      </defs>
      <use xlink:href="#DejaVuSans-38"/>
     </g>
    </g>
   </g>
   <g id="text_42">
    <g id="patch_44">
     <path d="M 109.242858 206.386541 
L 117.237155 216.286886 
Q 119.121862 218.620956 121.455932 216.736249 
L 128.985737 210.656107 
Q 131.319807 208.7714 129.4351 206.437331 
L 121.440803 196.536986 
Q 119.556096 194.202916 117.222027 196.087623 
L 109.692221 202.167765 
Q 107.358151 204.052471 109.242858 206.386541 
z
" clip-path="url(#p9cd1994ef0)" style="fill: #ffffff; stroke: #ffffff; stroke-linejoin: miter"/>
    </g>
    <g clip-path="url(#p9cd1994ef0)">
     <!-- 17 -->
     <g transform="translate(113.194973 203.195301) rotate(-308.920064) scale(0.1 -0.1)">
      <use xlink:href="#DejaVuSans-31"/>
      <use xlink:href="#DejaVuSans-37" x="63.623047"/>
     </g>
    </g>
   </g>
   <g id="text_43">
    <g id="patch_45">
     <path d="M 253.240121 282.598363 
L 259.363416 280.870164 
Q 262.250627 280.055296 261.435759 277.168085 
L 258.806962 267.85382 
Q 257.992094 264.966609 255.104883 265.781476 
L 248.981588 267.509675 
Q 246.094377 268.324543 246.909244 271.211755 
L 249.538042 280.526019 
Q 250.35291 283.413231 253.240121 282.598363 
z
" clip-path="url(#p9cd1994ef0)" style="fill: #ffffff; stroke: #ffffff; stroke-linejoin: miter"/>
    </g>
    <g clip-path="url(#p9cd1994ef0)">
     <!-- 6 -->
     <g transform="translate(251.860363 277.709652) rotate(-15.760844) scale(0.1 -0.1)">
      <use xlink:href="#DejaVuSans-36"/>
     </g>
    </g>
   </g>
   <g id="text_44">
    <g id="patch_46">
     <path d="M 479.132923 181.276613 
L 480.260059 187.538479 
Q 480.791518 190.491029 483.744068 189.95957 
L 493.269117 188.245061 
Q 496.221667 187.713602 495.690208 184.761052 
L 494.563072 178.499186 
Q 494.031613 175.546636 491.079064 176.078095 
L 481.554014 177.792604 
Q 478.601464 178.324063 479.132923 181.276613 
z
" clip-path="url(#p9cd1994ef0)" style="fill: #ffffff; stroke: #ffffff; stroke-linejoin: miter"/>
    </g>
    <g clip-path="url(#p9cd1994ef0)">
     <!-- 3 -->
     <g transform="translate(484.132267 180.376731) rotate(-280.203974) scale(0.1 -0.1)">
      <use xlink:href="#DejaVuSans-33"/>
     </g>
    </g>
   </g>
   <g id="text_45">
    <g id="patch_47">
     <path d="M 393.9019 204.207187 
L 400.22588 204.906238 
Q 403.207718 205.23585 403.53733 202.254013 
L 404.600672 192.63448 
Q 404.930283 189.652642 401.948446 189.32303 
L 395.624465 188.623979 
Q 392.642627 188.294367 392.313015 191.276204 
L 391.249674 200.895737 
Q 390.920062 203.877575 393.9019 204.207187 
z
" clip-path="url(#p9cd1994ef0)" style="fill: #ffffff; stroke: #ffffff; stroke-linejoin: miter"/>
    </g>
    <g clip-path="url(#p9cd1994ef0)">
     <!-- 4 -->
     <g transform="translate(394.460008 199.158252) rotate(-353.692142) scale(0.1 -0.1)">
      <use xlink:href="#DejaVuSans-34"/>
     </g>
    </g>
   </g>
   <g id="text_46">
    <g id="patch_48">
     <path d="M 267.091856 217.197097 
L 268.618357 229.830205 
Q 268.978239 232.808541 271.956575 232.448659 
L 281.564811 231.287664 
Q 284.543147 230.927781 284.183264 227.949446 
L 282.656764 215.316337 
Q 282.296882 212.338002 279.318546 212.697884 
L 269.71031 213.858879 
Q 266.731974 214.218761 267.091856 217.197097 
z
" clip-path="url(#p9cd1994ef0)" style="fill: #ffffff; stroke: #ffffff; stroke-linejoin: miter"/>
    </g>
    <g clip-path="url(#p9cd1994ef0)">
     <!-- 16 -->
     <g transform="translate(272.134861 216.587734) rotate(-276.889837) scale(0.1 -0.1)">
      <use xlink:href="#DejaVuSans-31"/>
      <use xlink:href="#DejaVuSans-36" x="63.623047"/>
     </g>
    </g>
   </g>
   <g id="text_47">
    <g id="patch_49">
     <path d="M 196.599263 179.57415 
L 205.813918 170.798288 
Q 207.986332 168.729323 205.917366 166.556909 
L 199.242797 159.548612 
Q 197.173832 157.376198 195.001418 159.445163 
L 185.786763 168.221025 
Q 183.614349 170.289991 185.683314 172.462405 
L 192.357883 179.470702 
Q 194.426849 181.643116 196.599263 179.57415 
z
" clip-path="url(#p9cd1994ef0)" style="fill: #ffffff; stroke: #ffffff; stroke-linejoin: miter"/>
    </g>
    <g clip-path="url(#p9cd1994ef0)">
     <!-- 18 -->
     <g transform="translate(193.09603 175.895756) rotate(-43.602819) scale(0.1 -0.1)">
      <use xlink:href="#DejaVuSans-31"/>
      <use xlink:href="#DejaVuSans-38" x="63.623047"/>
     </g>
    </g>
   </g>
   <g id="text_48">
    <g id="patch_50">
     <path d="M 236.34351 203.892645 
L 240.504867 191.867308 
Q 241.485933 189.032258 238.650883 188.051191 
L 229.504893 184.88623 
Q 226.669843 183.905164 225.688777 186.740214 
L 221.52742 198.765551 
Q 220.546354 201.600601 223.381404 202.581668 
L 232.527394 205.746629 
Q 235.362444 206.727695 236.34351 203.892645 
z
" clip-path="url(#p9cd1994ef0)" style="fill: #ffffff; stroke: #ffffff; stroke-linejoin: miter"/>
    </g>
    <g clip-path="url(#p9cd1994ef0)">
     <!-- 16 -->
     <g transform="translate(231.543121 202.231475) rotate(-70.91187) scale(0.1 -0.1)">
      <use xlink:href="#DejaVuSans-31"/>
      <use xlink:href="#DejaVuSans-36" x="63.623047"/>
     </g>
    </g>
   </g>
   <g id="text_49">
    <g id="patch_51">
     <path d="M 364.371191 139.0209 
L 376.757925 141.935426 
Q 379.678176 142.622544 380.365294 139.702292 
L 382.581966 130.281439 
Q 383.269084 127.361188 380.348832 126.67407 
L 367.962099 123.759544 
Q 365.041847 123.072426 364.354729 125.992678 
L 362.138058 135.413531 
Q 361.45094 138.333782 364.371191 139.0209 
z
" clip-path="url(#p9cd1994ef0)" style="fill: #ffffff; stroke: #ffffff; stroke-linejoin: miter"/>
    </g>
    <g clip-path="url(#p9cd1994ef0)">
     <!-- 15 -->
     <g transform="translate(365.53464 134.076245) rotate(-346.75948) scale(0.1 -0.1)">
      <use xlink:href="#DejaVuSans-31"/>
      <use xlink:href="#DejaVuSans-35" x="63.623047"/>
     </g>
    </g>
   </g>
   <g id="text_50">
    <g id="patch_52">
     <path d="M 442.045852 134.774987 
L 451.802844 142.943631 
Q 454.103117 144.869441 456.028927 142.569168 
L 462.24167 135.148392 
Q 464.16748 132.848119 461.867207 130.922309 
L 452.110215 122.753665 
Q 449.809942 120.827855 447.884132 123.128128 
L 441.671389 130.548904 
Q 439.745579 132.849177 442.045852 134.774987 
z
" clip-path="url(#p9cd1994ef0)" style="fill: #ffffff; stroke: #ffffff; stroke-linejoin: miter"/>
    </g>
    <g clip-path="url(#p9cd1994ef0)">
     <!-- 11 -->
     <g transform="translate(445.30669 130.880098) rotate(-320.063617) scale(0.1 -0.1)">
      <use xlink:href="#DejaVuSans-31"/>
      <use xlink:href="#DejaVuSans-31" x="63.623047"/>
     </g>
    </g>
   </g>
   <g id="text_51">
    <g id="patch_53">
     <path d="M 261.856951 307.744404 
L 270.053957 298.011227 
Q 271.986453 295.716569 269.691795 293.784072 
L 262.289131 287.549758 
Q 259.994473 285.617262 258.061976 287.91192 
L 249.86497 297.645097 
Q 247.932474 299.939755 250.227132 301.872252 
L 257.629796 308.106566 
Q 259.924455 310.039062 261.856951 307.744404 
z
" clip-path="url(#p9cd1994ef0)" style="fill: #ffffff; stroke: #ffffff; stroke-linejoin: miter"/>
    </g>
    <g clip-path="url(#p9cd1994ef0)">
     <!-- 18 -->
     <g transform="translate(257.971568 304.472244) rotate(-49.896865) scale(0.1 -0.1)">
      <use xlink:href="#DejaVuSans-31"/>
      <use xlink:href="#DejaVuSans-38" x="63.623047"/>
     </g>
    </g>
   </g>
   <g id="text_52">
    <g id="patch_54">
     <path d="M 99.692972 327.987654 
L 112.017749 324.821344 
Q 114.923393 324.074867 114.176915 321.169222 
L 111.768747 311.795491 
Q 111.022269 308.889847 108.116625 309.636324 
L 95.791848 312.802634 
Q 92.886204 313.549112 93.632682 316.454757 
L 96.04085 325.828487 
Q 96.787328 328.734132 99.692972 327.987654 
z
" clip-path="url(#p9cd1994ef0)" style="fill: #ffffff; stroke: #ffffff; stroke-linejoin: miter"/>
    </g>
    <g clip-path="url(#p9cd1994ef0)">
     <!-- 11 -->
     <g transform="translate(98.429014 323.067732) rotate(-14.408047) scale(0.1 -0.1)">
      <use xlink:href="#DejaVuSans-31"/>
      <use xlink:href="#DejaVuSans-31" x="63.623047"/>
     </g>
    </g>
   </g>
   <g id="text_53">
    <g id="patch_55">
     <path d="M 257.69359 342.275165 
L 270.412891 341.894347 
Q 273.411547 341.804567 273.321767 338.805911 
L 273.032132 329.132121 
Q 272.942352 326.133465 269.943696 326.223245 
L 257.224396 326.604062 
Q 254.225739 326.693842 254.315519 329.692498 
L 254.605154 339.366289 
Q 254.694934 342.364945 257.69359 342.275165 
z
" clip-path="url(#p9cd1994ef0)" style="fill: #ffffff; stroke: #ffffff; stroke-linejoin: miter"/>
    </g>
    <g clip-path="url(#p9cd1994ef0)">
     <!-- 15 -->
     <g transform="translate(257.541572 337.197752) rotate(-1.71493) scale(0.1 -0.1)">
      <use xlink:href="#DejaVuSans-31"/>
      <use xlink:href="#DejaVuSans-35" x="63.623047"/>
     </g>
    </g>
   </g>
   <g id="text_54">
    <g id="patch_56">
     <path d="M 192.702703 199.832718 
L 200.416816 209.952899 
Q 202.235467 212.338797 204.621365 210.520145 
L 212.318369 204.6531 
Q 214.704267 202.834449 212.885616 200.448551 
L 205.171502 190.328369 
Q 203.352851 187.942472 200.966953 189.761123 
L 193.269949 195.628169 
Q 190.884051 197.44682 192.702703 199.832718 
z
" clip-path="url(#p9cd1994ef0)" style="fill: #ffffff; stroke: #ffffff; stroke-linejoin: miter"/>
    </g>
    <g clip-path="url(#p9cd1994ef0)">
     <!-- 13 -->
     <g transform="translate(196.742574 196.753324) rotate(-307.316478) scale(0.1 -0.1)">
      <use xlink:href="#DejaVuSans-31"/>
      <use xlink:href="#DejaVuSans-33" x="63.623047"/>
     </g>
    </g>
   </g>
   <g id="text_55">
    <g id="patch_57">
     <path d="M 390.582665 396.603064 
L 395.971002 399.986439 
Q 398.511672 401.581744 400.106976 399.041074 
L 405.253495 390.844766 
Q 406.848799 388.304097 404.308129 386.708792 
L 398.919792 383.325417 
Q 396.379122 381.730113 394.783817 384.270783 
L 389.637299 392.46709 
Q 388.041995 395.00776 390.582665 396.603064 
z
" clip-path="url(#p9cd1994ef0)" style="fill: #ffffff; stroke: #ffffff; stroke-linejoin: miter"/>
    </g>
    <g clip-path="url(#p9cd1994ef0)">
     <!-- 7 -->
     <g transform="translate(393.28388 392.301128) rotate(-327.875002) scale(0.1 -0.1)">
      <use xlink:href="#DejaVuSans-37"/>
     </g>
    </g>
   </g>
   <g id="text_56">
    <g id="patch_58">
     <path d="M 381.9716 343.196467 
L 388.331301 343.385182 
Q 391.329981 343.474163 391.418962 340.475483 
L 391.706021 330.801616 
Q 391.795002 327.802936 388.796322 327.713955 
L 382.436622 327.52524 
Q 379.437942 327.436258 379.34896 330.434938 
L 379.061902 340.108805 
Q 378.97292 343.107485 381.9716 343.196467 
z
" clip-path="url(#p9cd1994ef0)" style="fill: #ffffff; stroke: #ffffff; stroke-linejoin: miter"/>
    </g>
    <g clip-path="url(#p9cd1994ef0)">
     <!-- 5 -->
     <g transform="translate(382.122266 338.119014) rotate(-358.300327) scale(0.1 -0.1)">
      <use xlink:href="#DejaVuSans-35"/>
     </g>
    </g>
   </g>
   <g id="text_57">
    <g id="patch_59">
     <path d="M 132.34452 265.82151 
L 133.382095 259.544182 
Q 133.871325 256.584342 130.911485 256.095112 
L 121.362917 254.516837 
Q 118.403077 254.027607 117.913847 256.987447 
L 116.876272 263.264775 
Q 116.387042 266.224615 119.346883 266.713845 
L 128.89545 268.292121 
Q 131.855291 268.78135 132.34452 265.82151 
z
" clip-path="url(#p9cd1994ef0)" style="fill: #ffffff; stroke: #ffffff; stroke-linejoin: miter"/>
    </g>
    <g clip-path="url(#p9cd1994ef0)">
     <!-- 8 -->
     <g transform="translate(127.332833 264.993132) rotate(-80.614482) scale(0.1 -0.1)">
      <use xlink:href="#DejaVuSans-38"/>
     </g>
    </g>
   </g>
   <g id="text_58">
    <g id="patch_60">
     <path d="M 102.552304 173.231321 
L 103.62039 185.911417 
Q 103.872198 188.90083 106.861611 188.649022 
L 116.505583 187.836679 
Q 119.494997 187.584871 119.243189 184.595457 
L 118.175103 171.915362 
Q 117.923295 168.925949 114.933882 169.177757 
L 105.289909 169.9901 
Q 102.300496 170.241908 102.552304 173.231321 
z
" clip-path="url(#p9cd1994ef0)" style="fill: #ffffff; stroke: #ffffff; stroke-linejoin: miter"/>
    </g>
    <g clip-path="url(#p9cd1994ef0)">
     <!-- 15 -->
     <g transform="translate(107.614066 172.804953) rotate(-274.814844) scale(0.1 -0.1)">
      <use xlink:href="#DejaVuSans-31"/>
      <use xlink:href="#DejaVuSans-35" x="63.623047"/>
     </g>
    </g>
   </g>
   <g id="text_59">
    <g id="patch_61">
     <path d="M 157.830816 295.294047 
L 164.170808 294.759349 
Q 167.160196 294.507232 166.908079 291.517845 
L 166.094739 281.873956 
Q 165.842622 278.884569 162.853234 279.136686 
L 156.513242 279.671384 
Q 153.523854 279.923501 153.775971 282.912889 
L 154.589311 292.556777 
Q 154.841428 295.546164 157.830816 295.294047 
z
" clip-path="url(#p9cd1994ef0)" style="fill: #ffffff; stroke: #ffffff; stroke-linejoin: miter"/>
    </g>
    <g clip-path="url(#p9cd1994ef0)">
     <!-- 8 -->
     <g transform="translate(157.403924 290.232329) rotate(-4.820766) scale(0.1 -0.1)">
      <use xlink:href="#DejaVuSans-38"/>
     </g>
    </g>
   </g>
   <g id="text_60">
    <g id="patch_62">
     <path d="M 117.102245 346.274564 
L 123.462257 346.096661 
Q 126.461084 346.012778 126.377201 343.013951 
L 126.10659 333.33961 
Q 126.022707 330.340783 123.02388 330.424666 
L 116.663867 330.602569 
Q 113.66504 330.686452 113.748924 333.685279 
L 114.019535 343.35962 
Q 114.103418 346.358447 117.102245 346.274564 
z
" clip-path="url(#p9cd1994ef0)" style="fill: #ffffff; stroke: #ffffff; stroke-linejoin: miter"/>
    </g>
    <g clip-path="url(#p9cd1994ef0)">
     <!-- 3 -->
     <g transform="translate(116.960211 341.196862) rotate(-1.602261) scale(0.1 -0.1)">
      <use xlink:href="#DejaVuSans-33"/>
     </g>
    </g>
   </g>
   <g id="text_61">
    <g id="patch_63">
     <path d="M 222.262301 125.576067 
L 227.062137 129.752547 
Q 229.325321 131.721811 231.294584 129.458627 
L 237.647511 122.157502 
Q 239.616775 119.894319 237.353591 117.925055 
L 232.553756 113.748575 
Q 230.290572 111.779311 228.321308 114.042495 
L 221.968381 121.34362 
Q 219.999118 123.606803 222.262301 125.576067 
z
" clip-path="url(#p9cd1994ef0)" style="fill: #ffffff; stroke: #ffffff; stroke-linejoin: miter"/>
    </g>
    <g clip-path="url(#p9cd1994ef0)">
     <!-- 8 -->
     <g transform="translate(225.596716 121.743978) rotate(-318.972496) scale(0.1 -0.1)">
      <use xlink:href="#DejaVuSans-38"/>
     </g>
    </g>
   </g>
   <g id="text_62">
    <g id="patch_64">
     <path d="M 256.813045 152.943582 
L 261.673359 157.049524 
Q 263.965059 158.985527 265.901063 156.693827 
L 272.146692 149.300707 
Q 274.082696 147.009007 271.790995 145.073004 
L 266.930682 140.967062 
Q 264.638982 139.031058 262.702978 141.322758 
L 256.457349 148.715878 
Q 254.521345 151.007578 256.813045 152.943582 
z
" clip-path="url(#p9cd1994ef0)" style="fill: #ffffff; stroke: #ffffff; stroke-linejoin: miter"/>
    </g>
    <g clip-path="url(#p9cd1994ef0)">
     <!-- 4 -->
     <g transform="translate(260.091143 149.063209) rotate(-319.809232) scale(0.1 -0.1)">
      <use xlink:href="#DejaVuSans-34"/>
     </g>
    </g>
   </g>
   <g id="text_63">
    <g id="patch_65">
     <path d="M 171.495017 272.728036 
L 176.030773 284.617213 
Q 177.100106 287.420163 179.903056 286.350829 
L 188.945488 282.901115 
Q 191.748437 281.831782 190.679104 279.028833 
L 186.143348 267.139655 
Q 185.074015 264.336705 182.271065 265.406039 
L 173.228633 268.855753 
Q 170.425684 269.925086 171.495017 272.728036 
z
" clip-path="url(#p9cd1994ef0)" style="fill: #ffffff; stroke: #ffffff; stroke-linejoin: miter"/>
    </g>
    <g clip-path="url(#p9cd1994ef0)">
     <!-- 18 -->
     <g transform="translate(176.241053 270.917409) rotate(-290.881997) scale(0.1 -0.1)">
      <use xlink:href="#DejaVuSans-31"/>
      <use xlink:href="#DejaVuSans-38" x="63.623047"/>
     </g>
    </g>
   </g>
   <g id="text_64">
    <g id="patch_66">
     <path d="M 365.629939 419.423413 
L 370.813054 415.733327 
Q 373.256958 413.993405 371.517035 411.5495 
L 365.903972 403.665363 
Q 364.16405 401.221458 361.720145 402.961381 
L 356.537031 406.651467 
Q 354.093127 408.391389 355.833049 410.835294 
L 361.446112 418.719431 
Q 363.186035 421.163336 365.629939 419.423413 
z
" clip-path="url(#p9cd1994ef0)" style="fill: #ffffff; stroke: #ffffff; stroke-linejoin: miter"/>
    </g>
    <g clip-path="url(#p9cd1994ef0)">
     <!-- 7 -->
     <g transform="translate(362.683852 415.285323) rotate(-35.448729) scale(0.1 -0.1)">
      <use xlink:href="#DejaVuSans-37"/>
     </g>
    </g>
   </g>
   <g id="text_65">
    <g id="patch_67">
     <path d="M 373.743593 475.61353 
L 380.036761 474.676811 
Q 383.00407 474.235136 382.562396 471.267827 
L 381.137534 461.695164 
Q 380.695859 458.727855 377.72855 459.16953 
L 371.435382 460.106249 
Q 368.468073 460.547924 368.909748 463.515233 
L 370.334609 473.087896 
Q 370.776284 476.055205 373.743593 475.61353 
z
" clip-path="url(#p9cd1994ef0)" style="fill: #ffffff; stroke: #ffffff; stroke-linejoin: miter"/>
    </g>
    <g clip-path="url(#p9cd1994ef0)">
     <!-- 8 -->
     <g transform="translate(372.995736 470.589195) rotate(-8.466144) scale(0.1 -0.1)">
      <use xlink:href="#DejaVuSans-38"/>
     </g>
    </g>
   </g>
   <g id="text_66">
    <g id="patch_68">
     <path d="M 427.41619 174.097444 
L 434.513149 163.535304 
Q 436.186302 161.045212 433.69621 159.372058 
L 425.663069 153.974396 
Q 423.172977 152.301243 421.499824 154.791335 
L 414.402866 165.353475 
Q 412.729712 167.843567 415.219804 169.51672 
L 423.252945 174.914383 
Q 425.743037 176.587536 427.41619 174.097444 
z
" clip-path="url(#p9cd1994ef0)" style="fill: #ffffff; stroke: #ffffff; stroke-linejoin: miter"/>
    </g>
    <g clip-path="url(#p9cd1994ef0)">
     <!-- 15 -->
     <g transform="translate(423.199894 171.264412) rotate(-56.101888) scale(0.1 -0.1)">
      <use xlink:href="#DejaVuSans-31"/>
      <use xlink:href="#DejaVuSans-35" x="63.623047"/>
     </g>
    </g>
   </g>
   <g id="text_67">
    <g id="patch_69">
     <path d="M 252.973856 245.183814 
L 262.247795 236.470625 
Q 264.434186 234.416435 262.379996 232.230044 
L 255.753093 225.176658 
Q 253.698903 222.990267 251.512512 225.044457 
L 242.238573 233.757647 
Q 240.052182 235.811837 242.106373 237.998227 
L 248.733275 245.051614 
Q 250.787465 247.238005 252.973856 245.183814 
z
" clip-path="url(#p9cd1994ef0)" style="fill: #ffffff; stroke: #ffffff; stroke-linejoin: miter"/>
    </g>
    <g clip-path="url(#p9cd1994ef0)">
     <!-- 16 -->
     <g transform="translate(249.495641 241.481754) rotate(-43.214379) scale(0.1 -0.1)">
      <use xlink:href="#DejaVuSans-31"/>
      <use xlink:href="#DejaVuSans-36" x="63.623047"/>
     </g>
    </g>
   </g>
   <g id="text_68">
    <g id="patch_70">
     <path d="M 155.401691 260.591383 
L 165.665429 268.113437 
Q 168.085171 269.88681 169.858543 267.467068 
L 175.579516 259.66088 
Q 177.352889 257.241138 174.933147 255.467766 
L 164.669409 247.945711 
Q 162.249667 246.172339 160.476295 248.592081 
L 154.755321 256.398268 
Q 152.981949 258.81801 155.401691 260.591383 
z
" clip-path="url(#p9cd1994ef0)" style="fill: #ffffff; stroke: #ffffff; stroke-linejoin: miter"/>
    </g>
    <g clip-path="url(#p9cd1994ef0)">
     <!-- 12 -->
     <g transform="translate(158.404417 256.494205) rotate(-323.763179) scale(0.1 -0.1)">
      <use xlink:href="#DejaVuSans-31"/>
      <use xlink:href="#DejaVuSans-32" x="63.623047"/>
     </g>
    </g>
   </g>
   <g id="text_69">
    <g id="patch_71">
     <path d="M 325.732918 317.27047 
L 338.203807 319.800795 
Q 341.143899 320.397336 341.74044 317.457244 
L 343.664904 307.972385 
Q 344.261444 305.032293 341.321352 304.435753 
L 328.850463 301.905428 
Q 325.910371 301.308887 325.313831 304.248979 
L 323.389367 313.733838 
Q 322.792826 316.67393 325.732918 317.27047 
z
" clip-path="url(#p9cd1994ef0)" style="fill: #ffffff; stroke: #ffffff; stroke-linejoin: miter"/>
    </g>
    <g clip-path="url(#p9cd1994ef0)">
     <!-- 14 -->
     <g transform="translate(326.742998 312.292221) rotate(-348.53047) scale(0.1 -0.1)">
      <use xlink:href="#DejaVuSans-31"/>
      <use xlink:href="#DejaVuSans-34" x="63.623047"/>
     </g>
    </g>
   </g>
   <g id="text_70">
    <g id="patch_72">
     <path d="M 264.76932 248.495982 
L 270.492203 251.276273 
Q 273.190615 252.587216 274.501558 249.888803 
L 278.730713 241.183612 
Q 280.041656 238.4852 277.343243 237.174257 
L 271.620361 234.393967 
Q 268.921948 233.083024 267.611006 235.781436 
L 263.38185 244.486627 
Q 262.070907 247.185039 264.76932 248.495982 
z
" clip-path="url(#p9cd1994ef0)" style="fill: #ffffff; stroke: #ffffff; stroke-linejoin: miter"/>
    </g>
    <g clip-path="url(#p9cd1994ef0)">
     <!-- 7 -->
     <g transform="translate(266.989046 243.926952) rotate(-334.088593) scale(0.1 -0.1)">
      <use xlink:href="#DejaVuSans-37"/>
     </g>
    </g>
   </g>
   <g id="text_71">
    <g id="patch_73">
     <path d="M 300.869995 344.662252 
L 311.760983 351.243437 
Q 314.328603 352.794994 315.880159 350.227374 
L 320.885545 341.944125 
Q 322.437102 339.376505 319.869482 337.824948 
L 308.978493 331.243763 
Q 306.410873 329.692206 304.859317 332.259826 
L 299.853931 340.543075 
Q 298.302375 343.110695 300.869995 344.662252 
z
" clip-path="url(#p9cd1994ef0)" style="fill: #ffffff; stroke: #ffffff; stroke-linejoin: miter"/>
    </g>
    <g clip-path="url(#p9cd1994ef0)">
     <!-- 18 -->
     <g transform="translate(303.497135 340.314683) rotate(-328.856352) scale(0.1 -0.1)">
      <use xlink:href="#DejaVuSans-31"/>
      <use xlink:href="#DejaVuSans-38" x="63.623047"/>
     </g>
    </g>
   </g>
   <g id="text_72">
    <g id="patch_74">
     <path d="M 380.835992 398.06467 
L 391.955868 404.251267 
Q 394.577449 405.709797 396.035979 403.088216 
L 400.741257 394.630884 
Q 402.199787 392.009302 399.578205 390.550772 
L 388.45833 384.364175 
Q 385.836748 382.905645 384.378218 385.527227 
L 379.67294 393.984558 
Q 378.21441 396.60614 380.835992 398.06467 
z
" clip-path="url(#p9cd1994ef0)" style="fill: #ffffff; stroke: #ffffff; stroke-linejoin: miter"/>
    </g>
    <g clip-path="url(#p9cd1994ef0)">
     <!-- 16 -->
     <g transform="translate(383.305617 393.625731) rotate(-330.91041) scale(0.1 -0.1)">
      <use xlink:href="#DejaVuSans-31"/>
      <use xlink:href="#DejaVuSans-36" x="63.623047"/>
     </g>
    </g>
   </g>
   <g id="text_73">
    <g id="patch_75">
     <path d="M 389.348935 256.532417 
L 394.013405 252.205278 
Q 396.212762 250.164977 394.172461 247.96562 
L 387.590364 240.870403 
Q 385.550063 238.671046 383.350706 240.711347 
L 378.686236 245.038486 
Q 376.486879 247.078787 378.52718 249.278144 
L 385.109277 256.373361 
Q 387.149578 258.572718 389.348935 256.532417 
z
" clip-path="url(#p9cd1994ef0)" style="fill: #ffffff; stroke: #ffffff; stroke-linejoin: miter"/>
    </g>
    <g clip-path="url(#p9cd1994ef0)">
     <!-- 9 -->
     <g transform="translate(385.894238 252.808402) rotate(-42.851489) scale(0.1 -0.1)">
      <use xlink:href="#DejaVuSans-39"/>
     </g>
    </g>
   </g>
   <g id="text_74">
    <g id="patch_76">
     <path d="M 291.359255 333.968475 
L 301.010518 325.675179 
Q 303.285865 323.719981 301.330667 321.444635 
L 295.023119 314.104271 
Q 293.067921 311.828924 290.792574 313.784122 
L 281.141312 322.077418 
Q 278.865965 324.032615 280.821163 326.307962 
L 287.128711 333.648325 
Q 289.083909 335.923672 291.359255 333.968475 
z
" clip-path="url(#p9cd1994ef0)" style="fill: #ffffff; stroke: #ffffff; stroke-linejoin: miter"/>
    </g>
    <g clip-path="url(#p9cd1994ef0)">
     <!-- 14 -->
     <g transform="translate(288.048658 330.115791) rotate(-40.672352) scale(0.1 -0.1)">
      <use xlink:href="#DejaVuSans-31"/>
      <use xlink:href="#DejaVuSans-34" x="63.623047"/>
     </g>
    </g>
   </g>
   <g id="matplotlib.axis_1">
    <g id="xtick_1">
     <g id="line2d_1">
      <path d="M 10.8 493.2 
L 10.8 10.8 
" clip-path="url(#p9cd1994ef0)" style="fill: none; stroke: #b0b0b0; stroke-opacity: 0.3; stroke-width: 0.8; stroke-linecap: square"/>
     </g>
    </g>
    <g id="xtick_2">
     <g id="line2d_2">
      <path d="M 59.04 493.2 
L 59.04 10.8 
" clip-path="url(#p9cd1994ef0)" style="fill: none; stroke: #b0b0b0; stroke-opacity: 0.3; stroke-width: 0.8; stroke-linecap: square"/>
     </g>
    </g>
    <g id="xtick_3">
     <g id="line2d_3">
      <path d="M 107.28 493.2 
L 107.28 10.8 
" clip-path="url(#p9cd1994ef0)" style="fill: none; stroke: #b0b0b0; stroke-opacity: 0.3; stroke-width: 0.8; stroke-linecap: square"/>
     </g>
    </g>
    <g id="xtick_4">
     <g id="line2d_4">
      <path d="M 155.52 493.2 
L 155.52 10.8 
" clip-path="url(#p9cd1994ef0)" style="fill: none; stroke: #b0b0b0; stroke-opacity: 0.3; stroke-width: 0.8; stroke-linecap: square"/>
     </g>
    </g>
    <g id="xtick_5">
     <g id="line2d_5">
      <path d="M 203.76 493.2 
L 203.76 10.8 
" clip-path="url(#p9cd1994ef0)" style="fill: none; stroke: #b0b0b0; stroke-opacity: 0.3; stroke-width: 0.8; stroke-linecap: square"/>
     </g>
    </g>
    <g id="xtick_6">
     <g id="line2d_6">
      <path d="M 252 493.2 
L 252 10.8 
" clip-path="url(#p9cd1994ef0)" style="fill: none; stroke: #b0b0b0; stroke-opacity: 0.3; stroke-width: 0.8; stroke-linecap: square"/>
     </g>
    </g>
    <g id="xtick_7">
     <g id="line2d_7">
      <path d="M 300.24 493.2 
L 300.24 10.8 
" clip-path="url(#p9cd1994ef0)" style="fill: none; stroke: #b0b0b0; stroke-opacity: 0.3; stroke-width: 0.8; stroke-linecap: square"/>
     </g>
    </g>
    <g id="xtick_8">
     <g id="line2d_8">
      <path d="M 348.48 493.2 
L 348.48 10.8 
" clip-path="url(#p9cd1994ef0)" style="fill: none; stroke: #b0b0b0; stroke-opacity: 0.3; stroke-width: 0.8; stroke-linecap: square"/>
     </g>
    </g>
    <g id="xtick_9">
     <g id="line2d_9">
      <path d="M 396.72 493.2 
L 396.72 10.8 
" clip-path="url(#p9cd1994ef0)" style="fill: none; stroke: #b0b0b0; stroke-opacity: 0.3; stroke-width: 0.8; stroke-linecap: square"/>
     </g>
    </g>
    <g id="xtick_10">
     <g id="line2d_10">
      <path d="M 444.96 493.2 
L 444.96 10.8 
" clip-path="url(#p9cd1994ef0)" style="fill: none; stroke: #b0b0b0; stroke-opacity: 0.3; stroke-width: 0.8; stroke-linecap: square"/>
     </g>
    </g>
    <g id="xtick_11">
     <g id="line2d_11">
      <path d="M 493.2 493.2 
L 493.2 10.8 
" clip-path="url(#p9cd1994ef0)" style="fill: none; stroke: #b0b0b0; stroke-opacity: 0.3; stroke-width: 0.8; stroke-linecap: square"/>
     </g>
    </g>
   </g>
   <g id="matplotlib.axis_2">
    <g id="ytick_1">
     <g id="line2d_12">
      <path d="M 10.8 493.2 
L 493.2 493.2 
" clip-path="url(#p9cd1994ef0)" style="fill: none; stroke: #b0b0b0; stroke-opacity: 0.3; stroke-width: 0.8; stroke-linecap: square"/>
     </g>
    </g>
    <g id="ytick_2">
     <g id="line2d_13">
      <path d="M 10.8 444.96 
L 493.2 444.96 
" clip-path="url(#p9cd1994ef0)" style="fill: none; stroke: #b0b0b0; stroke-opacity: 0.3; stroke-width: 0.8; stroke-linecap: square"/>
     </g>
    </g>
    <g id="ytick_3">
     <g id="line2d_14">
      <path d="M 10.8 396.72 
L 493.2 396.72 
" clip-path="url(#p9cd1994ef0)" style="fill: none; stroke: #b0b0b0; stroke-opacity: 0.3; stroke-width: 0.8; stroke-linecap: square"/>
     </g>
    </g>
    <g id="ytick_4">
     <g id="line2d_15">
      <path d="M 10.8 348.48 
L 493.2 348.48 
" clip-path="url(#p9cd1994ef0)" style="fill: none; stroke: #b0b0b0; stroke-opacity: 0.3; stroke-width: 0.8; stroke-linecap: square"/>
     </g>
    </g>
    <g id="ytick_5">
     <g id="line2d_16">
      <path d="M 10.8 300.24 
L 493.2 300.24 
" clip-path="url(#p9cd1994ef0)" style="fill: none; stroke: #b0b0b0; stroke-opacity: 0.3; stroke-width: 0.8; stroke-linecap: square"/>
     </g>
    </g>
    <g id="ytick_6">
     <g id="line2d_17">
      <path d="M 10.8 252 
L 493.2 252 
" clip-path="url(#p9cd1994ef0)" style="fill: none; stroke: #b0b0b0; stroke-opacity: 0.3; stroke-width: 0.8; stroke-linecap: square"/>
     </g>
    </g>
    <g id="ytick_7">
     <g id="line2d_18">
      <path d="M 10.8 203.76 
L 493.2 203.76 
" clip-path="url(#p9cd1994ef0)" style="fill: none; stroke: #b0b0b0; stroke-opacity: 0.3; stroke-width: 0.8; stroke-linecap: square"/>
     </g>
    </g>
    <g id="ytick_8">
     <g id="line2d_19">
      <path d="M 10.8 155.52 
L 493.2 155.52 
" clip-path="url(#p9cd1994ef0)" style="fill: none; stroke: #b0b0b0; stroke-opacity: 0.3; stroke-width: 0.8; stroke-linecap: square"/>
     </g>
    </g>
    <g id="ytick_9">
     <g id="line2d_20">
      <path d="M 10.8 107.28 
L 493.2 107.28 
" clip-path="url(#p9cd1994ef0)" style="fill: none; stroke: #b0b0b0; stroke-opacity: 0.3; stroke-width: 0.8; stroke-linecap: square"/>
     </g>
    </g>
    <g id="ytick_10">
     <g id="line2d_21">
      <path d="M 10.8 59.04 
L 493.2 59.04 
" clip-path="url(#p9cd1994ef0)" style="fill: none; stroke: #b0b0b0; stroke-opacity: 0.3; stroke-width: 0.8; stroke-linecap: square"/>
     </g>
    </g>
    <g id="ytick_11">
     <g id="line2d_22">
      <path d="M 10.8 10.8 
L 493.2 10.8 
" clip-path="url(#p9cd1994ef0)" style="fill: none; stroke: #b0b0b0; stroke-opacity: 0.3; stroke-width: 0.8; stroke-linecap: square"/>
     </g>
    </g>
   </g>
   <g id="PathCollection_1">
    <defs>
     <path id="m9411ec7566" d="M 0 8.660254 
C 2.296726 8.660254 4.499694 7.747755 6.123724 6.123724 
C 7.747755 4.499694 8.660254 2.296726 8.660254 0 
C 8.660254 -2.296726 7.747755 -4.499694 6.123724 -6.123724 
C 4.499694 -7.747755 2.296726 -8.660254 0 -8.660254 
C -2.296726 -8.660254 -4.499694 -7.747755 -6.123724 -6.123724 
C -7.747755 -4.499694 -8.660254 -2.296726 -8.660254 0 
C -8.660254 2.296726 -7.747755 4.499694 -6.123724 6.123724 
C -4.499694 7.747755 -2.296726 8.660254 0 8.660254 
z
" style="stroke: #1f78b4"/>
    </defs>
    <g clip-path="url(#p9cd1994ef0)">
     <use xlink:href="#m9411ec7566" x="409.7448" y="292.5216" style="fill: #1f78b4; stroke: #1f78b4"/>
     <use xlink:href="#m9411ec7566" x="164.2032" y="208.584" style="fill: #1f78b4; stroke: #1f78b4"/>
     <use xlink:href="#m9411ec7566" x="433.3824" y="478.728" style="fill: #1f78b4; stroke: #1f78b4"/>
     <use xlink:href="#m9411ec7566" x="121.752" y="336.42" style="fill: #1f78b4; stroke: #1f78b4"/>
     <use xlink:href="#m9411ec7566" x="475.3512" y="377.9064" style="fill: #1f78b4; stroke: #1f78b4"/>
     <use xlink:href="#m9411ec7566" x="416.9808" y="340.2792" style="fill: #1f78b4; stroke: #1f78b4"/>
     <use xlink:href="#m9411ec7566" x="143.46" y="404.4384" style="fill: #1f78b4; stroke: #1f78b4"/>
     <use xlink:href="#m9411ec7566" x="220.644" y="183.4992" style="fill: #1f78b4; stroke: #1f78b4"/>
     <use xlink:href="#m9411ec7566" x="74.4768" y="324.36" style="fill: #1f78b4; stroke: #1f78b4"/>
     <use xlink:href="#m9411ec7566" x="115.4808" y="101.4912" style="fill: #1f78b4; stroke: #1f78b4"/>
     <use xlink:href="#m9411ec7566" x="395.7552" y="442.548" style="fill: #1f78b4; stroke: #1f78b4"/>
     <use xlink:href="#m9411ec7566" x="15.1416" y="77.3712" style="fill: #1f78b4; stroke: #1f78b4"/>
     <use xlink:href="#m9411ec7566" x="491.7528" y="207.1368" style="fill: #1f78b4; stroke: #1f78b4"/>
     <use xlink:href="#m9411ec7566" x="261.648" y="106.7976" style="fill: #1f78b4; stroke: #1f78b4"/>
     <use xlink:href="#m9411ec7566" x="420.84" y="106.7976" style="fill: #1f78b4; stroke: #1f78b4"/>
     <use xlink:href="#m9411ec7566" x="191.2176" y="296.3808" style="fill: #1f78b4; stroke: #1f78b4"/>
     <use xlink:href="#m9411ec7566" x="304.0992" y="333.0432" style="fill: #1f78b4; stroke: #1f78b4"/>
     <use xlink:href="#m9411ec7566" x="120.3048" y="290.592" style="fill: #1f78b4; stroke: #1f78b4"/>
     <use xlink:href="#m9411ec7566" x="16.5888" y="341.244" style="fill: #1f78b4; stroke: #1f78b4"/>
     <use xlink:href="#m9411ec7566" x="155.52" y="57.1104" style="fill: #1f78b4; stroke: #1f78b4"/>
     <use xlink:href="#m9411ec7566" x="260.6832" y="484.5168" style="fill: #1f78b4; stroke: #1f78b4"/>
     <use xlink:href="#m9411ec7566" x="475.8336" y="87.984" style="fill: #1f78b4; stroke: #1f78b4"/>
     <use xlink:href="#m9411ec7566" x="200.3832" y="283.8384" style="fill: #1f78b4; stroke: #1f78b4"/>
     <use xlink:href="#m9411ec7566" x="466.668" y="337.8672" style="fill: #1f78b4; stroke: #1f78b4"/>
     <use xlink:href="#m9411ec7566" x="223.5384" y="335.4552" style="fill: #1f78b4; stroke: #1f78b4"/>
     <use xlink:href="#m9411ec7566" x="373.0824" y="240.9048" style="fill: #1f78b4; stroke: #1f78b4"/>
     <use xlink:href="#m9411ec7566" x="101.4912" y="67.2408" style="fill: #1f78b4; stroke: #1f78b4"/>
     <use xlink:href="#m9411ec7566" x="490.788" y="450.2664" style="fill: #1f78b4; stroke: #1f78b4"/>
     <use xlink:href="#m9411ec7566" x="289.6272" y="338.3496" style="fill: #1f78b4; stroke: #1f78b4"/>
     <use xlink:href="#m9411ec7566" x="75.4416" y="147.8016" style="fill: #1f78b4; stroke: #1f78b4"/>
     <use xlink:href="#m9411ec7566" x="304.0992" y="186.3936" style="fill: #1f78b4; stroke: #1f78b4"/>
     <use xlink:href="#m9411ec7566" x="99.0792" y="488.8584" style="fill: #1f78b4; stroke: #1f78b4"/>
     <use xlink:href="#m9411ec7566" x="129.9528" y="232.2216" style="fill: #1f78b4; stroke: #1f78b4"/>
     <use xlink:href="#m9411ec7566" x="308.4408" y="315.6768" style="fill: #1f78b4; stroke: #1f78b4"/>
     <use xlink:href="#m9411ec7566" x="483.0696" y="158.8968" style="fill: #1f78b4; stroke: #1f78b4"/>
    </g>
   </g>
   <g id="patch_77">
    <path d="M 10.8 493.2 
L 10.8 10.8 
" style="fill: none; stroke: #000000; stroke-width: 0.8; stroke-linejoin: miter; stroke-linecap: square"/>
   </g>
   <g id="patch_78">
    <path d="M 493.2 493.2 
L 493.2 10.8 
" style="fill: none; stroke: #000000; stroke-width: 0.8; stroke-linejoin: miter; stroke-linecap: square"/>
   </g>
   <g id="patch_79">
    <path d="M 10.8 493.2 
L 493.2 493.2 
" style="fill: none; stroke: #000000; stroke-width: 0.8; stroke-linejoin: miter; stroke-linecap: square"/>
   </g>
   <g id="patch_80">
    <path d="M 10.8 10.8 
L 493.2 10.8 
" style="fill: none; stroke: #000000; stroke-width: 0.8; stroke-linejoin: miter; stroke-linecap: square"/>
   </g>
   <g id="text_75">
    <g clip-path="url(#p9cd1994ef0)">
     <!-- 0 -->
     <g transform="translate(405.9273 295.83285) scale(0.12 -0.12)">
      <use xlink:href="#DejaVuSans-30"/>
     </g>
    </g>
   </g>
   <g id="text_76">
    <g clip-path="url(#p9cd1994ef0)">
     <!-- 1 -->
     <g transform="translate(160.3857 211.89525) scale(0.12 -0.12)">
      <use xlink:href="#DejaVuSans-31"/>
     </g>
    </g>
   </g>
   <g id="text_77">
    <g clip-path="url(#p9cd1994ef0)">
     <!-- 2 -->
     <g transform="translate(429.5649 482.03925) scale(0.12 -0.12)">
      <use xlink:href="#DejaVuSans-32"/>
     </g>
    </g>
   </g>
   <g id="text_78">
    <g clip-path="url(#p9cd1994ef0)">
     <!-- 3 -->
     <g transform="translate(117.9345 339.73125) scale(0.12 -0.12)">
      <use xlink:href="#DejaVuSans-33"/>
     </g>
    </g>
   </g>
   <g id="text_79">
    <g clip-path="url(#p9cd1994ef0)">
     <!-- 4 -->
     <g transform="translate(471.5337 381.21765) scale(0.12 -0.12)">
      <use xlink:href="#DejaVuSans-34"/>
     </g>
    </g>
   </g>
   <g id="text_80">
    <g clip-path="url(#p9cd1994ef0)">
     <!-- 5 -->
     <g transform="translate(413.1633 343.59045) scale(0.12 -0.12)">
      <use xlink:href="#DejaVuSans-35"/>
     </g>
    </g>
   </g>
   <g id="text_81">
    <g clip-path="url(#p9cd1994ef0)">
     <!-- 6 -->
     <g transform="translate(139.6425 407.74965) scale(0.12 -0.12)">
      <use xlink:href="#DejaVuSans-36"/>
     </g>
    </g>
   </g>
   <g id="text_82">
    <g clip-path="url(#p9cd1994ef0)">
     <!-- 7 -->
     <g transform="translate(216.8265 186.81045) scale(0.12 -0.12)">
      <use xlink:href="#DejaVuSans-37"/>
     </g>
    </g>
   </g>
   <g id="text_83">
    <g clip-path="url(#p9cd1994ef0)">
     <!-- 8 -->
     <g transform="translate(70.6593 327.67125) scale(0.12 -0.12)">
      <use xlink:href="#DejaVuSans-38"/>
     </g>
    </g>
   </g>
   <g id="text_84">
    <g clip-path="url(#p9cd1994ef0)">
     <!-- 9 -->
     <g transform="translate(111.6633 104.80245) scale(0.12 -0.12)">
      <use xlink:href="#DejaVuSans-39"/>
     </g>
    </g>
   </g>
   <g id="text_85">
    <g clip-path="url(#p9cd1994ef0)">
     <!-- 10 -->
     <g transform="translate(388.1202 445.85925) scale(0.12 -0.12)">
      <use xlink:href="#DejaVuSans-31"/>
      <use xlink:href="#DejaVuSans-30" x="63.623047"/>
     </g>
    </g>
   </g>
   <g id="text_86">
    <g clip-path="url(#p9cd1994ef0)">
     <!-- 11 -->
     <g transform="translate(7.5066 80.68245) scale(0.12 -0.12)">
      <use xlink:href="#DejaVuSans-31"/>
      <use xlink:href="#DejaVuSans-31" x="63.623047"/>
     </g>
    </g>
   </g>
   <g id="text_87">
    <g clip-path="url(#p9cd1994ef0)">
     <!-- 12 -->
     <g transform="translate(484.1178 210.44805) scale(0.12 -0.12)">
      <use xlink:href="#DejaVuSans-31"/>
      <use xlink:href="#DejaVuSans-32" x="63.623047"/>
     </g>
    </g>
   </g>
   <g id="text_88">
    <g clip-path="url(#p9cd1994ef0)">
     <!-- 13 -->
     <g transform="translate(254.013 110.10885) scale(0.12 -0.12)">
      <use xlink:href="#DejaVuSans-31"/>
      <use xlink:href="#DejaVuSans-33" x="63.623047"/>
     </g>
    </g>
   </g>
   <g id="text_89">
    <g clip-path="url(#p9cd1994ef0)">
     <!-- 14 -->
     <g transform="translate(413.205 110.10885) scale(0.12 -0.12)">
      <use xlink:href="#DejaVuSans-31"/>
      <use xlink:href="#DejaVuSans-34" x="63.623047"/>
     </g>
    </g>
   </g>
   <g id="text_90">
    <g clip-path="url(#p9cd1994ef0)">
     <!-- 15 -->
     <g transform="translate(183.5826 299.69205) scale(0.12 -0.12)">
      <use xlink:href="#DejaVuSans-31"/>
      <use xlink:href="#DejaVuSans-35" x="63.623047"/>
     </g>
    </g>
   </g>
   <g id="text_91">
    <g clip-path="url(#p9cd1994ef0)">
     <!-- 16 -->
     <g transform="translate(296.4642 336.35445) scale(0.12 -0.12)">
      <use xlink:href="#DejaVuSans-31"/>
      <use xlink:href="#DejaVuSans-36" x="63.623047"/>
     </g>
    </g>
   </g>
   <g id="text_92">
    <g clip-path="url(#p9cd1994ef0)">
     <!-- 17 -->
     <g transform="translate(112.6698 293.90325) scale(0.12 -0.12)">
      <use xlink:href="#DejaVuSans-31"/>
      <use xlink:href="#DejaVuSans-37" x="63.623047"/>
     </g>
    </g>
   </g>
   <g id="text_93">
    <g clip-path="url(#p9cd1994ef0)">
     <!-- 18 -->
     <g transform="translate(8.9538 344.55525) scale(0.12 -0.12)">
      <use xlink:href="#DejaVuSans-31"/>
      <use xlink:href="#DejaVuSans-38" x="63.623047"/>
     </g>
    </g>
   </g>
   <g id="text_94">
    <g clip-path="url(#p9cd1994ef0)">
     <!-- 19 -->
     <g transform="translate(147.885 60.42165) scale(0.12 -0.12)">
      <use xlink:href="#DejaVuSans-31"/>
      <use xlink:href="#DejaVuSans-39" x="63.623047"/>
     </g>
    </g>
   </g>
   <g id="text_95">
    <g clip-path="url(#p9cd1994ef0)">
     <!-- 20 -->
     <g transform="translate(253.0482 487.82805) scale(0.12 -0.12)">
      <use xlink:href="#DejaVuSans-32"/>
      <use xlink:href="#DejaVuSans-30" x="63.623047"/>
     </g>
    </g>
   </g>
   <g id="text_96">
    <g clip-path="url(#p9cd1994ef0)">
     <!-- 21 -->
     <g transform="translate(468.1986 91.29525) scale(0.12 -0.12)">
      <use xlink:href="#DejaVuSans-32"/>
      <use xlink:href="#DejaVuSans-31" x="63.623047"/>
     </g>
    </g>
   </g>
   <g id="text_97">
    <g clip-path="url(#p9cd1994ef0)">
     <!-- 22 -->
     <g transform="translate(192.7482 287.14965) scale(0.12 -0.12)">
      <use xlink:href="#DejaVuSans-32"/>
      <use xlink:href="#DejaVuSans-32" x="63.623047"/>
     </g>
    </g>
   </g>
   <g id="text_98">
    <g clip-path="url(#p9cd1994ef0)">
     <!-- 23 -->
     <g transform="translate(459.033 341.17845) scale(0.12 -0.12)">
      <use xlink:href="#DejaVuSans-32"/>
      <use xlink:href="#DejaVuSans-33" x="63.623047"/>
     </g>
    </g>
   </g>
   <g id="text_99">
    <g clip-path="url(#p9cd1994ef0)">
     <!-- 24 -->
     <g transform="translate(215.9034 338.76645) scale(0.12 -0.12)">
      <use xlink:href="#DejaVuSans-32"/>
      <use xlink:href="#DejaVuSans-34" x="63.623047"/>
     </g>
    </g>
   </g>
   <g id="text_100">
    <g clip-path="url(#p9cd1994ef0)">
     <!-- 25 -->
     <g transform="translate(365.4474 244.21605) scale(0.12 -0.12)">
      <use xlink:href="#DejaVuSans-32"/>
      <use xlink:href="#DejaVuSans-35" x="63.623047"/>
     </g>
    </g>
   </g>
   <g id="text_101">
    <g clip-path="url(#p9cd1994ef0)">
     <!-- 26 -->
     <g transform="translate(93.8562 70.55205) scale(0.12 -0.12)">
      <use xlink:href="#DejaVuSans-32"/>
      <use xlink:href="#DejaVuSans-36" x="63.623047"/>
     </g>
    </g>
   </g>
   <g id="text_102">
    <g clip-path="url(#p9cd1994ef0)">
     <!-- 27 -->
     <g transform="translate(483.153 453.57765) scale(0.12 -0.12)">
      <use xlink:href="#DejaVuSans-32"/>
      <use xlink:href="#DejaVuSans-37" x="63.623047"/>
     </g>
    </g>
   </g>
   <g id="text_103">
    <g clip-path="url(#p9cd1994ef0)">
     <!-- 28 -->
     <g transform="translate(281.9922 341.66085) scale(0.12 -0.12)">
      <use xlink:href="#DejaVuSans-32"/>
      <use xlink:href="#DejaVuSans-38" x="63.623047"/>
     </g>
    </g>
   </g>
   <g id="text_104">
    <g clip-path="url(#p9cd1994ef0)">
     <!-- 29 -->
     <g transform="translate(67.8066 151.11285) scale(0.12 -0.12)">
      <use xlink:href="#DejaVuSans-32"/>
      <use xlink:href="#DejaVuSans-39" x="63.623047"/>
     </g>
    </g>
   </g>
   <g id="text_105">
    <g clip-path="url(#p9cd1994ef0)">
     <!-- 30 -->
     <g transform="translate(296.4642 189.70485) scale(0.12 -0.12)">
      <use xlink:href="#DejaVuSans-33"/>
      <use xlink:href="#DejaVuSans-30" x="63.623047"/>
     </g>
    </g>
   </g>
   <g id="text_106">
    <g clip-path="url(#p9cd1994ef0)">
     <!-- 31 -->
     <g transform="translate(91.4442 492.16965) scale(0.12 -0.12)">
      <use xlink:href="#DejaVuSans-33"/>
      <use xlink:href="#DejaVuSans-31" x="63.623047"/>
     </g>
    </g>
   </g>
   <g id="text_107">
    <g clip-path="url(#p9cd1994ef0)">
     <!-- 32 -->
     <g transform="translate(122.3178 235.53285) scale(0.12 -0.12)">
      <use xlink:href="#DejaVuSans-33"/>
      <use xlink:href="#DejaVuSans-32" x="63.623047"/>
     </g>
    </g>
   </g>
   <g id="text_108">
    <g clip-path="url(#p9cd1994ef0)">
     <!-- 33 -->
     <g transform="translate(300.8058 318.98805) scale(0.12 -0.12)">
      <use xlink:href="#DejaVuSans-33"/>
      <use xlink:href="#DejaVuSans-33" x="63.623047"/>
     </g>
    </g>
   </g>
   <g id="text_109">
    <g clip-path="url(#p9cd1994ef0)">
     <!-- 34 -->
     <g transform="translate(475.4346 162.20805) scale(0.12 -0.12)">
      <use xlink:href="#DejaVuSans-33"/>
      <use xlink:href="#DejaVuSans-34" x="63.623047"/>
     </g>
    </g>
   </g>
  </g>
 </g>
 <defs>
  <clipPath id="p9cd1994ef0">
   <rect x="10.8" y="10.8" width="482.4" height="482.4"/>
  </clipPath>
 </defs>
</svg>
