<?xml version="1.0" encoding="utf-8" standalone="no"?>
<!DOCTYPE svg PUBLIC "-//W3C//DTD SVG 1.1//EN"
  "http://www.w3.org/Graphics/SVG/1.1/DTD/svg11.dtd">
<svg xmlns:xlink="http://www.w3.org/1999/xlink" width="504pt" height="504pt" viewBox="0 0 504 504" xmlns="http://www.w3.org/2000/svg" version="1.1">
 <metadata>
  <rdf:RDF xmlns:dc="http://purl.org/dc/elements/1.1/" xmlns:cc="http://creativecommons.org/ns#" xmlns:rdf="http://www.w3.org/1999/02/22-rdf-syntax-ns#">
   <cc:Work>
    <dc:type rdf:resource="http://purl.org/dc/dcmitype/StillImage"/>
    <dc:date>2024-10-29T15:00:01.106613</dc:date>
    <dc:format>image/svg+xml</dc:format>
    <dc:creator>
     <cc:Agent>
      <dc:title>Matplotlib v3.9.2, https://matplotlib.org/</dc:title>
     </cc:Agent>
    </dc:creator>
   </cc:Work>
  </rdf:RDF>
 </metadata>
 <defs>
  <style type="text/css">*{stroke-linejoin: round; stroke-linecap: butt}</style>
 </defs>
 <g id="figure_1">
  <g id="patch_1">
   <path d="M 0 504 
L 504 504 
L 504 0 
L 0 0 
L 0 504 
z
" style="fill: none; opacity: 0"/>
  </g>
  <g id="axes_1">
   <g id="patch_2">
    <path d="M 10.8 493.2 
L 493.2 493.2 
L 493.2 10.8 
L 10.8 10.8 
L 10.8 493.2 
z
" style="fill: none; opacity: 0"/>
   </g>
   <g id="LineCollection_1">
    <path d="M 179.64 388.5192 
L 279.4968 380.8008 
" clip-path="url(#p776da78d29)" style="fill: none; stroke: #000000"/>
    <path d="M 179.64 388.5192 
L 354.2688 225.468 
" clip-path="url(#p776da78d29)" style="fill: none; stroke: #000000"/>
    <path d="M 179.64 388.5192 
L 168.5448 130.9176 
" clip-path="url(#p776da78d29)" style="fill: none; stroke: #000000"/>
    <path d="M 179.64 388.5192 
L 207.6192 199.9008 
" clip-path="url(#p776da78d29)" style="fill: none; stroke: #000000"/>
    <path d="M 179.64 388.5192 
L 15.1416 374.0472 
" clip-path="url(#p776da78d29)" style="fill: none; stroke: #000000"/>
    <path d="M 402.5088 108.2448 
L 354.2688 225.468 
" clip-path="url(#p776da78d29)" style="fill: none; stroke: #000000"/>
    <path d="M 402.5088 108.2448 
L 438.6888 100.044 
" clip-path="url(#p776da78d29)" style="fill: none; stroke: #000000"/>
    <path d="M 402.5088 108.2448 
L 323.8776 34.4376 
" clip-path="url(#p776da78d29)" style="fill: none; stroke: #000000"/>
    <path d="M 402.5088 108.2448 
L 397.2024 312.7824 
" clip-path="url(#p776da78d29)" style="fill: none; stroke: #000000"/>
    <path d="M 402.5088 108.2448 
L 162.756 348.48 
" clip-path="url(#p776da78d29)" style="fill: none; stroke: #000000"/>
    <path d="M 61.452 488.8584 
L 188.3232 20.9304 
" clip-path="url(#p776da78d29)" style="fill: none; stroke: #000000"/>
    <path d="M 61.452 488.8584 
L 280.944 122.7168 
" clip-path="url(#p776da78d29)" style="fill: none; stroke: #000000"/>
    <path d="M 426.6288 12.2472 
L 15.1416 374.0472 
" clip-path="url(#p776da78d29)" style="fill: none; stroke: #000000"/>
    <path d="M 426.6288 12.2472 
L 213.408 487.4112 
" clip-path="url(#p776da78d29)" style="fill: none; stroke: #000000"/>
    <path d="M 426.6288 12.2472 
L 491.2704 359.0928 
" clip-path="url(#p776da78d29)" style="fill: none; stroke: #000000"/>
    <path d="M 296.8632 242.352 
L 416.016 303.6168 
" clip-path="url(#p776da78d29)" style="fill: none; stroke: #000000"/>
    <path d="M 296.8632 242.352 
L 263.0952 402.5088 
" clip-path="url(#p776da78d29)" style="fill: none; stroke: #000000"/>
    <path d="M 296.8632 242.352 
L 19.4832 28.1664 
" clip-path="url(#p776da78d29)" style="fill: none; stroke: #000000"/>
    <path d="M 397.2024 83.16 
L 279.4968 380.8008 
" clip-path="url(#p776da78d29)" style="fill: none; stroke: #000000"/>
    <path d="M 397.2024 83.16 
L 188.3232 20.9304 
" clip-path="url(#p776da78d29)" style="fill: none; stroke: #000000"/>
    <path d="M 397.2024 83.16 
L 162.756 348.48 
" clip-path="url(#p776da78d29)" style="fill: none; stroke: #000000"/>
    <path d="M 397.2024 312.7824 
L 436.7592 13.212 
" clip-path="url(#p776da78d29)" style="fill: none; stroke: #000000"/>
    <path d="M 397.2024 312.7824 
L 446.8896 243.3168 
" clip-path="url(#p776da78d29)" style="fill: none; stroke: #000000"/>
    <path d="M 397.2024 312.7824 
L 280.944 122.7168 
" clip-path="url(#p776da78d29)" style="fill: none; stroke: #000000"/>
    <path d="M 397.2024 312.7824 
L 438.6888 100.044 
" clip-path="url(#p776da78d29)" style="fill: none; stroke: #000000"/>
    <path d="M 397.2024 312.7824 
L 207.6192 199.9008 
" clip-path="url(#p776da78d29)" style="fill: none; stroke: #000000"/>
    <path d="M 207.6192 199.9008 
L 323.8776 34.4376 
" clip-path="url(#p776da78d29)" style="fill: none; stroke: #000000"/>
    <path d="M 207.6192 199.9008 
L 279.4968 380.8008 
" clip-path="url(#p776da78d29)" style="fill: none; stroke: #000000"/>
    <path d="M 207.6192 199.9008 
L 303.1344 361.0224 
" clip-path="url(#p776da78d29)" style="fill: none; stroke: #000000"/>
    <path d="M 207.6192 199.9008 
L 263.0952 402.5088 
" clip-path="url(#p776da78d29)" style="fill: none; stroke: #000000"/>
    <path d="M 207.6192 199.9008 
L 356.1984 199.9008 
" clip-path="url(#p776da78d29)" style="fill: none; stroke: #000000"/>
    <path d="M 170.9568 383.6952 
L 271.7784 195.5592 
" clip-path="url(#p776da78d29)" style="fill: none; stroke: #000000"/>
    <path d="M 170.9568 383.6952 
L 279.4968 380.8008 
" clip-path="url(#p776da78d29)" style="fill: none; stroke: #000000"/>
    <path d="M 170.9568 383.6952 
L 491.2704 359.0928 
" clip-path="url(#p776da78d29)" style="fill: none; stroke: #000000"/>
    <path d="M 213.408 487.4112 
L 446.8896 243.3168 
" clip-path="url(#p776da78d29)" style="fill: none; stroke: #000000"/>
    <path d="M 213.408 487.4112 
L 416.016 303.6168 
" clip-path="url(#p776da78d29)" style="fill: none; stroke: #000000"/>
    <path d="M 213.408 487.4112 
L 289.1448 270.8136 
" clip-path="url(#p776da78d29)" style="fill: none; stroke: #000000"/>
    <path d="M 213.408 487.4112 
L 220.1616 37.332 
" clip-path="url(#p776da78d29)" style="fill: none; stroke: #000000"/>
    <path d="M 162.756 348.48 
L 188.3232 20.9304 
" clip-path="url(#p776da78d29)" style="fill: none; stroke: #000000"/>
    <path d="M 162.756 348.48 
L 168.5448 130.9176 
" clip-path="url(#p776da78d29)" style="fill: none; stroke: #000000"/>
    <path d="M 162.756 348.48 
L 356.1984 199.9008 
" clip-path="url(#p776da78d29)" style="fill: none; stroke: #000000"/>
    <path d="M 446.8896 243.3168 
L 19.4832 28.1664 
" clip-path="url(#p776da78d29)" style="fill: none; stroke: #000000"/>
    <path d="M 446.8896 243.3168 
L 53.7336 214.3728 
" clip-path="url(#p776da78d29)" style="fill: none; stroke: #000000"/>
    <path d="M 446.8896 243.3168 
L 289.1448 270.8136 
" clip-path="url(#p776da78d29)" style="fill: none; stroke: #000000"/>
    <path d="M 19.4832 28.1664 
L 436.7592 13.212 
" clip-path="url(#p776da78d29)" style="fill: none; stroke: #000000"/>
    <path d="M 19.4832 28.1664 
L 354.2688 225.468 
" clip-path="url(#p776da78d29)" style="fill: none; stroke: #000000"/>
    <path d="M 19.4832 28.1664 
L 323.8776 34.4376 
" clip-path="url(#p776da78d29)" style="fill: none; stroke: #000000"/>
    <path d="M 416.016 303.6168 
L 491.2704 359.0928 
" clip-path="url(#p776da78d29)" style="fill: none; stroke: #000000"/>
    <path d="M 416.016 303.6168 
L 317.6064 404.9208 
" clip-path="url(#p776da78d29)" style="fill: none; stroke: #000000"/>
    <path d="M 416.016 303.6168 
L 289.1448 270.8136 
" clip-path="url(#p776da78d29)" style="fill: none; stroke: #000000"/>
    <path d="M 416.016 303.6168 
L 354.2688 225.468 
" clip-path="url(#p776da78d29)" style="fill: none; stroke: #000000"/>
    <path d="M 220.1616 37.332 
L 354.2688 225.468 
" clip-path="url(#p776da78d29)" style="fill: none; stroke: #000000"/>
    <path d="M 220.1616 37.332 
L 216.7848 318.0888 
" clip-path="url(#p776da78d29)" style="fill: none; stroke: #000000"/>
    <path d="M 166.1328 280.4616 
L 436.7592 13.212 
" clip-path="url(#p776da78d29)" style="fill: none; stroke: #000000"/>
    <path d="M 168.5448 130.9176 
L 271.7784 195.5592 
" clip-path="url(#p776da78d29)" style="fill: none; stroke: #000000"/>
    <path d="M 168.5448 130.9176 
L 438.6888 100.044 
" clip-path="url(#p776da78d29)" style="fill: none; stroke: #000000"/>
    <path d="M 263.0952 402.5088 
L 345.1032 483.0696 
" clip-path="url(#p776da78d29)" style="fill: none; stroke: #000000"/>
    <path d="M 263.0952 402.5088 
L 53.7336 214.3728 
" clip-path="url(#p776da78d29)" style="fill: none; stroke: #000000"/>
    <path d="M 436.7592 13.212 
L 280.944 122.7168 
" clip-path="url(#p776da78d29)" style="fill: none; stroke: #000000"/>
    <path d="M 436.7592 13.212 
L 356.1984 199.9008 
" clip-path="url(#p776da78d29)" style="fill: none; stroke: #000000"/>
    <path d="M 53.7336 214.3728 
L 271.7784 195.5592 
" clip-path="url(#p776da78d29)" style="fill: none; stroke: #000000"/>
    <path d="M 53.7336 214.3728 
L 323.8776 34.4376 
" clip-path="url(#p776da78d29)" style="fill: none; stroke: #000000"/>
    <path d="M 53.7336 214.3728 
L 188.3232 20.9304 
" clip-path="url(#p776da78d29)" style="fill: none; stroke: #000000"/>
    <path d="M 165.6504 428.5584 
L 345.1032 483.0696 
" clip-path="url(#p776da78d29)" style="fill: none; stroke: #000000"/>
    <path d="M 165.6504 428.5584 
L 438.6888 100.044 
" clip-path="url(#p776da78d29)" style="fill: none; stroke: #000000"/>
    <path d="M 356.1984 199.9008 
L 188.3232 20.9304 
" clip-path="url(#p776da78d29)" style="fill: none; stroke: #000000"/>
    <path d="M 317.6064 404.9208 
L 323.8776 34.4376 
" clip-path="url(#p776da78d29)" style="fill: none; stroke: #000000"/>
    <path d="M 317.6064 404.9208 
L 271.7784 195.5592 
" clip-path="url(#p776da78d29)" style="fill: none; stroke: #000000"/>
    <path d="M 317.6064 404.9208 
L 15.1416 374.0472 
" clip-path="url(#p776da78d29)" style="fill: none; stroke: #000000"/>
    <path d="M 317.6064 404.9208 
L 303.1344 361.0224 
" clip-path="url(#p776da78d29)" style="fill: none; stroke: #000000"/>
    <path d="M 15.1416 374.0472 
L 289.1448 270.8136 
" clip-path="url(#p776da78d29)" style="fill: none; stroke: #000000"/>
    <path d="M 15.1416 374.0472 
L 279.4968 380.8008 
" clip-path="url(#p776da78d29)" style="fill: none; stroke: #000000"/>
    <path d="M 15.1416 374.0472 
L 303.1344 361.0224 
" clip-path="url(#p776da78d29)" style="fill: none; stroke: #000000"/>
    <path d="M 345.1032 483.0696 
L 303.1344 361.0224 
" clip-path="url(#p776da78d29)" style="fill: none; stroke: #000000"/>
    <path d="M 438.6888 100.044 
L 289.1448 270.8136 
" clip-path="url(#p776da78d29)" style="fill: none; stroke: #000000"/>
    <path d="M 438.6888 100.044 
L 491.2704 359.0928 
" clip-path="url(#p776da78d29)" style="fill: none; stroke: #000000"/>
    <path d="M 491.2704 359.0928 
L 354.2688 225.468 
" clip-path="url(#p776da78d29)" style="fill: none; stroke: #000000"/>
    <path d="M 216.7848 318.0888 
L 354.2688 225.468 
" clip-path="url(#p776da78d29)" style="fill: none; stroke: #000000"/>
   </g>
   <g id="text_1">
    <g id="patch_3">
     <path d="M 227.000881 392.7209 
L 233.344459 392.230575 
Q 236.335537 391.999381 236.104343 389.008303 
L 235.3585 379.35896 
Q 235.127305 376.367881 232.136227 376.599076 
L 225.792649 377.089401 
Q 222.80157 377.320595 223.032765 380.311673 
L 223.778608 389.961017 
Q 224.009802 392.952095 227.000881 392.7209 
z
" clip-path="url(#p776da78d29)" style="fill: #ffffff; stroke: #ffffff; stroke-linejoin: miter"/>
    </g>
    <g clip-path="url(#p776da78d29)">
     <!-- 5 -->
     <g transform="translate(226.609415 387.656319) rotate(-4.419871) scale(0.1 -0.1)">
      <defs>
       <path id="DejaVuSans-35" d="M 691 4666 
L 3169 4666 
L 3169 4134 
L 1269 4134 
L 1269 2991 
Q 1406 3038 1543 3061 
Q 1681 3084 1819 3084 
Q 2600 3084 3056 2656 
Q 3513 2228 3513 1497 
Q 3513 744 3044 326 
Q 2575 -91 1722 -91 
Q 1428 -91 1123 -41 
Q 819 9 494 109 
L 494 744 
Q 775 591 1075 516 
Q 1375 441 1709 441 
Q 2250 441 2565 725 
Q 2881 1009 2881 1497 
Q 2881 1984 2565 2268 
Q 2250 2553 1709 2553 
Q 1456 2553 1204 2497 
Q 953 2441 691 2322 
L 691 4666 
z
" transform="scale(0.015625)"/>
      </defs>
      <use xlink:href="#DejaVuSans-35"/>
     </g>
    </g>
   </g>
   <g id="text_2">
    <g id="patch_4">
     <path d="M 269.978129 314.89525 
L 274.628614 310.553085 
Q 276.821377 308.505699 274.77399 306.312936 
L 268.169037 299.238991 
Q 266.12165 297.046229 263.928887 299.093615 
L 259.278403 303.43578 
Q 257.08564 305.483166 259.133026 307.675929 
L 265.73798 314.749874 
Q 267.785366 316.942637 269.978129 314.89525 
z
" clip-path="url(#p776da78d29)" style="fill: #ffffff; stroke: #ffffff; stroke-linejoin: miter"/>
    </g>
    <g clip-path="url(#p776da78d29)">
     <!-- 3 -->
     <g transform="translate(266.511435 311.1824) rotate(-43.036342) scale(0.1 -0.1)">
      <defs>
       <path id="DejaVuSans-33" d="M 2597 2516 
Q 3050 2419 3304 2112 
Q 3559 1806 3559 1356 
Q 3559 666 3084 287 
Q 2609 -91 1734 -91 
Q 1441 -91 1130 -33 
Q 819 25 488 141 
L 488 750 
Q 750 597 1062 519 
Q 1375 441 1716 441 
Q 2309 441 2620 675 
Q 2931 909 2931 1356 
Q 2931 1769 2642 2001 
Q 2353 2234 1838 2234 
L 1294 2234 
L 1294 2753 
L 1863 2753 
Q 2328 2753 2575 2939 
Q 2822 3125 2822 3475 
Q 2822 3834 2567 4026 
Q 2313 4219 1838 4219 
Q 1578 4219 1281 4162 
Q 984 4106 628 3988 
L 628 4550 
Q 988 4650 1302 4700 
Q 1616 4750 1894 4750 
Q 2613 4750 3031 4423 
Q 3450 4097 3450 3541 
Q 3450 3153 3228 2886 
Q 3006 2619 2597 2516 
z
" transform="scale(0.015625)"/>
      </defs>
      <use xlink:href="#DejaVuSans-33"/>
     </g>
    </g>
   </g>
   <g id="text_3">
    <g id="patch_5">
     <path d="M 165.986772 253.69819 
L 166.534345 266.411403 
Q 166.663439 269.408625 169.66066 269.279531 
L 179.32982 268.863069 
Q 182.327042 268.733975 182.197948 265.736754 
L 181.650375 253.023541 
Q 181.521281 250.02632 178.52406 250.155413 
L 168.8549 250.571875 
Q 165.857678 250.700969 165.986772 253.69819 
z
" clip-path="url(#p776da78d29)" style="fill: #ffffff; stroke: #ffffff; stroke-linejoin: miter"/>
    </g>
    <g clip-path="url(#p776da78d29)">
     <!-- 11 -->
     <g transform="translate(171.061755 253.479605) rotate(-272.466271) scale(0.1 -0.1)">
      <defs>
       <path id="DejaVuSans-31" d="M 794 531 
L 1825 531 
L 1825 4091 
L 703 3866 
L 703 4441 
L 1819 4666 
L 2450 4666 
L 2450 531 
L 3481 531 
L 3481 0 
L 794 0 
L 794 531 
z
" transform="scale(0.015625)"/>
      </defs>
      <use xlink:href="#DejaVuSans-31"/>
      <use xlink:href="#DejaVuSans-31" x="63.623047"/>
     </g>
    </g>
   </g>
   <g id="text_4">
    <g id="patch_6">
     <path d="M 200.916955 298.507516 
L 201.850538 292.213882 
Q 202.290734 289.246353 199.323205 288.806157 
L 189.749834 287.386066 
Q 186.782305 286.94587 186.342109 289.913399 
L 185.408526 296.207033 
Q 184.96833 299.174562 187.935859 299.614758 
L 197.509231 301.034849 
Q 200.476759 301.475045 200.916955 298.507516 
z
" clip-path="url(#p776da78d29)" style="fill: #ffffff; stroke: #ffffff; stroke-linejoin: miter"/>
    </g>
    <g clip-path="url(#p776da78d29)">
     <!-- 3 -->
     <g transform="translate(195.892249 297.762164) rotate(-81.56241) scale(0.1 -0.1)">
      <use xlink:href="#DejaVuSans-33"/>
     </g>
    </g>
   </g>
   <g id="text_5">
    <g id="patch_7">
     <path d="M 93.53333 388.813174 
L 99.871349 389.370771 
Q 102.859807 389.633685 103.122721 386.645228 
L 103.970893 377.004341 
Q 104.233807 374.015883 101.245349 373.752969 
L 94.90733 373.195372 
Q 91.918873 372.932458 91.655959 375.920915 
L 90.807787 385.561803 
Q 90.544873 388.55026 93.53333 388.813174 
z
" clip-path="url(#p776da78d29)" style="fill: #ffffff; stroke: #ffffff; stroke-linejoin: miter"/>
    </g>
    <g clip-path="url(#p776da78d29)">
     <!-- 2 -->
     <g transform="translate(93.978504 383.753031) rotate(-354.97226) scale(0.1 -0.1)">
      <defs>
       <path id="DejaVuSans-32" d="M 1228 531 
L 3431 531 
L 3431 0 
L 469 0 
L 469 531 
Q 828 903 1448 1529 
Q 2069 2156 2228 2338 
Q 2531 2678 2651 2914 
Q 2772 3150 2772 3378 
Q 2772 3750 2511 3984 
Q 2250 4219 1831 4219 
Q 1534 4219 1204 4116 
Q 875 4013 500 3803 
L 500 4441 
Q 881 4594 1212 4672 
Q 1544 4750 1819 4750 
Q 2544 4750 2975 4387 
Q 3406 4025 3406 3419 
Q 3406 3131 3298 2873 
Q 3191 2616 2906 2266 
Q 2828 2175 2409 1742 
Q 1991 1309 1228 531 
z
" transform="scale(0.015625)"/>
      </defs>
      <use xlink:href="#DejaVuSans-32"/>
     </g>
    </g>
   </g>
   <g id="text_6">
    <g id="patch_8">
     <path d="M 384.427233 172.781851 
L 386.848535 166.898086 
Q 387.990211 164.123815 385.21594 162.98214 
L 376.266027 159.299048 
Q 373.491757 158.157373 372.350081 160.931644 
L 369.928779 166.815409 
Q 368.787103 169.58968 371.561374 170.731355 
L 380.511287 174.414447 
Q 383.285558 175.556122 384.427233 172.781851 
z
" clip-path="url(#p776da78d29)" style="fill: #ffffff; stroke: #ffffff; stroke-linejoin: miter"/>
    </g>
    <g clip-path="url(#p776da78d29)">
     <!-- 4 -->
     <g transform="translate(379.729757 170.848734) rotate(-67.631725) scale(0.1 -0.1)">
      <defs>
       <path id="DejaVuSans-34" d="M 2419 4116 
L 825 1625 
L 2419 1625 
L 2419 4116 
z
M 2253 4666 
L 3047 4666 
L 3047 1625 
L 3713 1625 
L 3713 1100 
L 3047 1100 
L 3047 0 
L 2419 0 
L 2419 1100 
L 313 1100 
L 313 1709 
L 2253 4666 
z
" transform="scale(0.015625)"/>
      </defs>
      <use xlink:href="#DejaVuSans-34"/>
     </g>
    </g>
   </g>
   <g id="text_7">
    <g id="patch_9">
     <path d="M 419.230548 112.492454 
L 425.435642 111.085966 
Q 428.361423 110.422789 427.698246 107.497008 
L 425.558809 98.058316 
Q 424.895632 95.132534 421.969851 95.795711 
L 415.764756 97.202199 
Q 412.838975 97.865377 413.502152 100.791158 
L 415.641589 110.22985 
Q 416.304766 113.155631 419.230548 112.492454 
z
" clip-path="url(#p776da78d29)" style="fill: #ffffff; stroke: #ffffff; stroke-linejoin: miter"/>
    </g>
    <g clip-path="url(#p776da78d29)">
     <!-- 7 -->
     <g transform="translate(418.107637 107.538436) rotate(-12.771243) scale(0.1 -0.1)">
      <defs>
       <path id="DejaVuSans-37" d="M 525 4666 
L 3525 4666 
L 3525 4397 
L 1831 0 
L 1172 0 
L 2766 4134 
L 525 4134 
L 525 4666 
z
" transform="scale(0.015625)"/>
      </defs>
      <use xlink:href="#DejaVuSans-37"/>
     </g>
    </g>
   </g>
   <g id="text_8">
    <g id="patch_10">
     <path d="M 353.18957 72.702713 
L 362.467604 81.411542 
Q 364.65496 83.464704 366.708122 81.277349 
L 373.331708 74.220848 
Q 375.384871 72.033492 373.197515 69.98033 
L 363.919481 61.2715 
Q 361.732125 59.218338 359.678963 61.405694 
L 353.055376 68.462195 
Q 351.002214 70.649551 353.18957 72.702713 
z
" clip-path="url(#p776da78d29)" style="fill: #ffffff; stroke: #ffffff; stroke-linejoin: miter"/>
    </g>
    <g clip-path="url(#p776da78d29)">
     <!-- 20 -->
     <g transform="translate(356.666044 68.999018) rotate(-316.812553) scale(0.1 -0.1)">
      <defs>
       <path id="DejaVuSans-30" d="M 2034 4250 
Q 1547 4250 1301 3770 
Q 1056 3291 1056 2328 
Q 1056 1369 1301 889 
Q 1547 409 2034 409 
Q 2525 409 2770 889 
Q 3016 1369 3016 2328 
Q 3016 3291 2770 3770 
Q 2525 4250 2034 4250 
z
M 2034 4750 
Q 2819 4750 3233 4129 
Q 3647 3509 3647 2328 
Q 3647 1150 3233 529 
Q 2819 -91 2034 -91 
Q 1250 -91 836 529 
Q 422 1150 422 2328 
Q 422 3509 836 4129 
Q 1250 4750 2034 4750 
z
" transform="scale(0.015625)"/>
      </defs>
      <use xlink:href="#DejaVuSans-32"/>
      <use xlink:href="#DejaVuSans-30" x="63.623047"/>
     </g>
    </g>
   </g>
   <g id="text_9">
    <g id="patch_11">
     <path d="M 407.527074 217.075047 
L 407.857093 204.354327 
Q 407.934897 201.355336 404.935906 201.277532 
L 395.261036 201.026533 
Q 392.262045 200.948729 392.184241 203.94772 
L 391.854222 216.66844 
Q 391.776418 219.667431 394.775409 219.745235 
L 404.450279 219.996234 
Q 407.44927 220.074038 407.527074 217.075047 
z
" clip-path="url(#p776da78d29)" style="fill: #ffffff; stroke: #ffffff; stroke-linejoin: miter"/>
    </g>
    <g clip-path="url(#p776da78d29)">
     <!-- 12 -->
     <g transform="translate(402.449095 216.943307) rotate(-88.513886) scale(0.1 -0.1)">
      <use xlink:href="#DejaVuSans-31"/>
      <use xlink:href="#DejaVuSans-32" x="63.623047"/>
     </g>
    </g>
   </g>
   <g id="text_10">
    <g id="patch_12">
     <path d="M 285.934156 236.151267 
L 290.428599 231.647781 
Q 292.547787 229.52433 290.424335 227.405143 
L 283.573993 220.568556 
Q 281.450542 218.449369 279.331355 220.57282 
L 274.836912 225.076306 
Q 272.717724 227.199758 274.841176 229.318945 
L 281.691518 236.155531 
Q 283.814969 238.274719 285.934156 236.151267 
z
" clip-path="url(#p776da78d29)" style="fill: #ffffff; stroke: #ffffff; stroke-linejoin: miter"/>
    </g>
    <g clip-path="url(#p776da78d29)">
     <!-- 5 -->
     <g transform="translate(282.338667 232.562998) rotate(-45.057584) scale(0.1 -0.1)">
      <use xlink:href="#DejaVuSans-35"/>
     </g>
    </g>
   </g>
   <g id="text_11">
    <g id="patch_13">
     <path d="M 130.788791 263.085556 
L 134.118743 250.803983 
Q 134.903801 247.908524 132.008342 247.123466 
L 122.667469 244.590838 
Q 119.77201 243.80578 118.986952 246.70124 
L 115.657 258.982813 
Q 114.871942 261.878272 117.767402 262.66333 
L 127.108274 265.195958 
Q 130.003734 265.981016 130.788791 263.085556 
z
" clip-path="url(#p776da78d29)" style="fill: #ffffff; stroke: #ffffff; stroke-linejoin: miter"/>
    </g>
    <g clip-path="url(#p776da78d29)">
     <!-- 13 -->
     <g transform="translate(125.886115 261.756274) rotate(-74.829882) scale(0.1 -0.1)">
      <use xlink:href="#DejaVuSans-31"/>
      <use xlink:href="#DejaVuSans-33" x="63.623047"/>
     </g>
    </g>
   </g>
   <g id="text_12">
    <g id="patch_14">
     <path d="M 174.649367 315.276514 
L 181.192096 304.362379 
Q 182.734586 301.789302 180.161509 300.246812 
L 171.860656 295.270675 
Q 169.287579 293.728185 167.745089 296.301262 
L 161.20236 307.215396 
Q 159.65987 309.788473 162.232947 311.330963 
L 170.5338 316.3071 
Q 173.106877 317.84959 174.649367 315.276514 
z
" clip-path="url(#p776da78d29)" style="fill: #ffffff; stroke: #ffffff; stroke-linejoin: miter"/>
    </g>
    <g clip-path="url(#p776da78d29)">
     <!-- 10 -->
     <g transform="translate(170.292558 312.664724) rotate(-59.058451) scale(0.1 -0.1)">
      <use xlink:href="#DejaVuSans-31"/>
      <use xlink:href="#DejaVuSans-30" x="63.623047"/>
     </g>
    </g>
   </g>
   <g id="text_13">
    <g id="patch_15">
     <path d="M 223.673479 201.133871 
L 228.451671 196.932647 
Q 230.70465 194.951716 228.723719 192.698737 
L 222.333154 185.430534 
Q 220.352223 183.177555 218.099244 185.158486 
L 213.321052 189.359711 
Q 211.068073 191.340641 213.049004 193.59362 
L 219.439569 200.861823 
Q 221.4205 203.114802 223.673479 201.133871 
z
" clip-path="url(#p776da78d29)" style="fill: #ffffff; stroke: #ffffff; stroke-linejoin: miter"/>
    </g>
    <g clip-path="url(#p776da78d29)">
     <!-- 7 -->
     <g transform="translate(220.319309 197.319062) rotate(-41.323541) scale(0.1 -0.1)">
      <use xlink:href="#DejaVuSans-37"/>
     </g>
    </g>
   </g>
   <g id="text_14">
    <g id="patch_16">
     <path d="M 325.868923 255.938879 
L 328.473741 250.134025 
Q 329.701946 247.396962 326.964883 246.168757 
L 318.135005 242.206517 
Q 315.397942 240.978312 314.169737 243.715375 
L 311.564919 249.520229 
Q 310.336714 252.257292 313.073777 253.485497 
L 321.903656 257.447737 
Q 324.640719 258.675942 325.868923 255.938879 
z
" clip-path="url(#p776da78d29)" style="fill: #ffffff; stroke: #ffffff; stroke-linejoin: miter"/>
    </g>
    <g clip-path="url(#p776da78d29)">
     <!-- 2 -->
     <g transform="translate(321.234449 253.859247) rotate(-65.832749) scale(0.1 -0.1)">
      <use xlink:href="#DejaVuSans-32"/>
     </g>
    </g>
   </g>
   <g id="text_15">
    <g id="patch_17">
     <path d="M 450.07727 180.850072 
L 452.408684 193.359674 
Q 452.958329 196.308892 455.907548 195.759246 
L 465.42185 193.986066 
Q 468.371068 193.436421 467.821422 190.487202 
L 465.490008 177.9776 
Q 464.940363 175.028382 461.991144 175.578028 
L 452.476842 177.351208 
Q 449.527624 177.900853 450.07727 180.850072 
z
" clip-path="url(#p776da78d29)" style="fill: #ffffff; stroke: #ffffff; stroke-linejoin: miter"/>
    </g>
    <g clip-path="url(#p776da78d29)">
     <!-- 16 -->
     <g transform="translate(455.070972 179.919396) rotate(-280.557095) scale(0.1 -0.1)">
      <defs>
       <path id="DejaVuSans-36" d="M 2113 2584 
Q 1688 2584 1439 2293 
Q 1191 2003 1191 1497 
Q 1191 994 1439 701 
Q 1688 409 2113 409 
Q 2538 409 2786 701 
Q 3034 994 3034 1497 
Q 3034 2003 2786 2293 
Q 2538 2584 2113 2584 
z
M 3366 4563 
L 3366 3988 
Q 3128 4100 2886 4159 
Q 2644 4219 2406 4219 
Q 1781 4219 1451 3797 
Q 1122 3375 1075 2522 
Q 1259 2794 1537 2939 
Q 1816 3084 2150 3084 
Q 2853 3084 3261 2657 
Q 3669 2231 3669 1497 
Q 3669 778 3244 343 
Q 2819 -91 2113 -91 
Q 1303 -91 875 529 
Q 447 1150 447 2328 
Q 447 3434 972 4092 
Q 1497 4750 2381 4750 
Q 2619 4750 2861 4703 
Q 3103 4656 3366 4563 
z
" transform="scale(0.015625)"/>
      </defs>
      <use xlink:href="#DejaVuSans-31"/>
      <use xlink:href="#DejaVuSans-36" x="63.623047"/>
     </g>
    </g>
   </g>
   <g id="text_16">
    <g id="patch_18">
     <path d="M 347.197553 277.046991 
L 358.514273 282.865709 
Q 361.182262 284.237509 362.554062 281.56952 
L 366.979546 272.962477 
Q 368.351345 270.294488 365.683357 268.922688 
L 354.366637 263.10397 
Q 351.698648 261.73217 350.326848 264.400159 
L 345.901364 273.007202 
Q 344.529564 275.675191 347.197553 277.046991 
z
" clip-path="url(#p776da78d29)" style="fill: #ffffff; stroke: #ffffff; stroke-linejoin: miter"/>
    </g>
    <g clip-path="url(#p776da78d29)">
     <!-- 13 -->
     <g transform="translate(349.520325 272.529474) rotate(-332.78913) scale(0.1 -0.1)">
      <use xlink:href="#DejaVuSans-31"/>
      <use xlink:href="#DejaVuSans-33" x="63.623047"/>
     </g>
    </g>
   </g>
   <g id="text_17">
    <g id="patch_19">
     <path d="M 286.993906 327.157626 
L 288.306538 320.932001 
Q 288.925461 317.996539 285.989999 317.377617 
L 276.520078 315.380946 
Q 273.584616 314.762024 272.965693 317.697485 
L 271.653062 323.92311 
Q 271.034139 326.858572 273.969601 327.477494 
L 283.439522 329.474165 
Q 286.374984 330.093087 286.993906 327.157626 
z
" clip-path="url(#p776da78d29)" style="fill: #ffffff; stroke: #ffffff; stroke-linejoin: miter"/>
    </g>
    <g clip-path="url(#p776da78d29)">
     <!-- 6 -->
     <g transform="translate(282.023497 326.109648) rotate(-78.093948) scale(0.1 -0.1)">
      <use xlink:href="#DejaVuSans-36"/>
     </g>
    </g>
   </g>
   <g id="text_18">
    <g id="patch_20">
     <path d="M 148.346205 137.575149 
L 158.418002 145.352328 
Q 160.792493 147.185848 162.626013 144.811357 
L 168.541024 137.151152 
Q 170.374543 134.776661 168.000053 132.943141 
L 157.928255 125.165962 
Q 155.553765 123.332442 153.720245 125.706933 
L 147.805234 133.367138 
Q 145.971714 135.741629 148.346205 137.575149 
z
" clip-path="url(#p776da78d29)" style="fill: #ffffff; stroke: #ffffff; stroke-linejoin: miter"/>
    </g>
    <g clip-path="url(#p776da78d29)">
     <!-- 13 -->
     <g transform="translate(151.450774 133.554592) rotate(-322.325616) scale(0.1 -0.1)">
      <use xlink:href="#DejaVuSans-31"/>
      <use xlink:href="#DejaVuSans-33" x="63.623047"/>
     </g>
    </g>
   </g>
   <g id="text_19">
    <g id="patch_21">
     <path d="M 344.470046 237.819991 
L 346.809854 231.903345 
Q 347.913103 229.11357 345.123329 228.010321 
L 336.123401 224.451192 
Q 333.333627 223.347943 332.230377 226.137717 
L 329.890569 232.054363 
Q 328.787319 234.844137 331.577094 235.947387 
L 340.577022 239.506516 
Q 343.366796 240.609765 344.470046 237.819991 
z
" clip-path="url(#p776da78d29)" style="fill: #ffffff; stroke: #ffffff; stroke-linejoin: miter"/>
    </g>
    <g clip-path="url(#p776da78d29)">
     <!-- 6 -->
     <g transform="translate(339.746318 235.951937) rotate(-68.42309) scale(0.1 -0.1)">
      <use xlink:href="#DejaVuSans-36"/>
     </g>
    </g>
   </g>
   <g id="text_20">
    <g id="patch_22">
     <path d="M 287.472964 58.648799 
L 293.570611 60.465419 
Q 296.445729 61.321978 297.302289 58.44686 
L 300.065586 49.171608 
Q 300.922145 46.29649 298.047027 45.43993 
L 291.94938 43.62331 
Q 289.074261 42.766751 288.217702 45.641869 
L 285.454405 54.917121 
Q 284.597846 57.792239 287.472964 58.648799 
z
" clip-path="url(#p776da78d29)" style="fill: #ffffff; stroke: #ffffff; stroke-linejoin: miter"/>
    </g>
    <g clip-path="url(#p776da78d29)">
     <!-- 7 -->
     <g transform="translate(288.923316 53.780564) rotate(-343.410076) scale(0.1 -0.1)">
      <use xlink:href="#DejaVuSans-37"/>
     </g>
    </g>
   </g>
   <g id="text_21">
    <g id="patch_23">
     <path d="M 283.748434 223.392989 
L 287.961441 218.625183 
Q 289.947928 216.377101 287.699846 214.390614 
L 280.447442 207.982126 
Q 278.19936 205.995639 276.212873 208.243721 
L 271.999866 213.011527 
Q 270.01338 215.259609 272.261461 217.246095 
L 279.513866 223.654584 
Q 281.761948 225.64107 283.748434 223.392989 
z
" clip-path="url(#p776da78d29)" style="fill: #ffffff; stroke: #ffffff; stroke-linejoin: miter"/>
    </g>
    <g clip-path="url(#p776da78d29)">
     <!-- 6 -->
     <g transform="translate(279.941917 220.029412) rotate(-48.535015) scale(0.1 -0.1)">
      <use xlink:href="#DejaVuSans-36"/>
     </g>
    </g>
   </g>
   <g id="text_22">
    <g id="patch_24">
     <path d="M 424.336378 167.174026 
L 425.169285 160.866279 
Q 425.562012 157.892096 422.587828 157.49937 
L 412.992989 156.232419 
Q 410.018806 155.839692 409.62608 158.813875 
L 408.793173 165.121622 
Q 408.400446 168.095806 411.37463 168.488532 
L 420.969469 169.755483 
Q 423.943652 170.14821 424.336378 167.174026 
z
" clip-path="url(#p776da78d29)" style="fill: #ffffff; stroke: #ffffff; stroke-linejoin: miter"/>
    </g>
    <g clip-path="url(#p776da78d29)">
     <!-- 5 -->
     <g transform="translate(419.300404 166.509051) rotate(-82.477891) scale(0.1 -0.1)">
      <use xlink:href="#DejaVuSans-35"/>
     </g>
    </g>
   </g>
   <g id="text_23">
    <g id="patch_25">
     <path d="M 424.720398 287.785085 
L 432.123452 277.435185 
Q 433.868769 274.99513 431.428714 273.249813 
L 423.556995 267.619348 
Q 421.11694 265.874031 419.371623 268.314085 
L 411.968569 278.663985 
Q 410.223252 281.10404 412.663307 282.849357 
L 420.535026 288.479823 
Q 422.975081 290.22514 424.720398 287.785085 
z
" clip-path="url(#p776da78d29)" style="fill: #ffffff; stroke: #ffffff; stroke-linejoin: miter"/>
    </g>
    <g clip-path="url(#p776da78d29)">
     <!-- 10 -->
     <g transform="translate(420.588826 284.829863) rotate(-54.424702) scale(0.1 -0.1)">
      <use xlink:href="#DejaVuSans-31"/>
      <use xlink:href="#DejaVuSans-30" x="63.623047"/>
     </g>
    </g>
   </g>
   <g id="text_24">
    <g id="patch_26">
     <path d="M 330.726833 219.127612 
L 334.046788 224.555255 
Q 335.612189 227.114458 338.171392 225.549057 
L 346.427487 220.499009 
Q 348.98669 218.933608 347.421289 216.374405 
L 344.101335 210.946762 
Q 342.535934 208.387559 339.976731 209.95296 
L 331.720636 215.003008 
Q 329.161433 216.568409 330.726833 219.127612 
z
" clip-path="url(#p776da78d29)" style="fill: #ffffff; stroke: #ffffff; stroke-linejoin: miter"/>
    </g>
    <g clip-path="url(#p776da78d29)">
     <!-- 1 -->
     <g transform="translate(335.060151 216.477029) rotate(-301.453088) scale(0.1 -0.1)">
      <use xlink:href="#DejaVuSans-31"/>
     </g>
    </g>
   </g>
   <g id="text_25">
    <g id="patch_27">
     <path d="M 424.422217 214.156917 
L 426.857855 201.66719 
Q 427.432072 198.722657 424.487539 198.14844 
L 414.988353 196.295991 
Q 412.04382 195.721773 411.469603 198.666306 
L 409.033964 211.156034 
Q 408.459747 214.100567 411.40428 214.674784 
L 420.903466 216.527233 
Q 423.847999 217.10145 424.422217 214.156917 
z
" clip-path="url(#p776da78d29)" style="fill: #ffffff; stroke: #ffffff; stroke-linejoin: miter"/>
    </g>
    <g clip-path="url(#p776da78d29)">
     <!-- 15 -->
     <g transform="translate(419.436447 213.184636) rotate(-78.965165) scale(0.1 -0.1)">
      <use xlink:href="#DejaVuSans-31"/>
      <use xlink:href="#DejaVuSans-35" x="63.623047"/>
     </g>
    </g>
   </g>
   <g id="text_26">
    <g id="patch_28">
     <path d="M 295.665342 261.448639 
L 301.132156 264.703689 
Q 303.709829 266.238486 305.244627 263.660814 
L 310.195947 255.345134 
Q 311.730745 252.767461 309.153072 251.232664 
L 303.686258 247.977614 
Q 301.108585 246.442817 299.573788 249.020489 
L 294.622467 257.336169 
Q 293.087669 259.913842 295.665342 261.448639 
z
" clip-path="url(#p776da78d29)" style="fill: #ffffff; stroke: #ffffff; stroke-linejoin: miter"/>
    </g>
    <g clip-path="url(#p776da78d29)">
     <!-- 9 -->
     <g transform="translate(298.264106 257.084049) rotate(-329.229592) scale(0.1 -0.1)">
      <defs>
       <path id="DejaVuSans-39" d="M 703 97 
L 703 672 
Q 941 559 1184 500 
Q 1428 441 1663 441 
Q 2288 441 2617 861 
Q 2947 1281 2994 2138 
Q 2813 1869 2534 1725 
Q 2256 1581 1919 1581 
Q 1219 1581 811 2004 
Q 403 2428 403 3163 
Q 403 3881 828 4315 
Q 1253 4750 1959 4750 
Q 2769 4750 3195 4129 
Q 3622 3509 3622 2328 
Q 3622 1225 3098 567 
Q 2575 -91 1691 -91 
Q 1453 -91 1209 -44 
Q 966 3 703 97 
z
M 1959 2075 
Q 2384 2075 2632 2365 
Q 2881 2656 2881 3163 
Q 2881 3666 2632 3958 
Q 2384 4250 1959 4250 
Q 1534 4250 1286 3958 
Q 1038 3666 1038 3163 
Q 1038 2656 1286 2365 
Q 1534 2075 1959 2075 
z
" transform="scale(0.015625)"/>
      </defs>
      <use xlink:href="#DejaVuSans-39"/>
     </g>
    </g>
   </g>
   <g id="text_27">
    <g id="patch_29">
     <path d="M 270.333252 124.279338 
L 273.991069 119.073401 
Q 275.715776 116.618735 273.26111 114.894027 
L 265.342255 109.330051 
Q 262.887589 107.605344 261.162882 110.06001 
L 257.505065 115.265947 
Q 255.780358 117.720613 258.235024 119.44532 
L 266.153879 125.009297 
Q 268.608545 126.734004 270.333252 124.279338 
z
" clip-path="url(#p776da78d29)" style="fill: #ffffff; stroke: #ffffff; stroke-linejoin: miter"/>
    </g>
    <g clip-path="url(#p776da78d29)">
     <!-- 9 -->
     <g transform="translate(266.17694 121.359014) rotate(-54.907206) scale(0.1 -0.1)">
      <use xlink:href="#DejaVuSans-39"/>
     </g>
    </g>
   </g>
   <g id="text_28">
    <g id="patch_30">
     <path d="M 233.923398 287.33214 
L 238.622147 299.157849 
Q 239.729907 301.945836 242.517893 300.838076 
L 251.512053 297.264396 
Q 254.30004 296.156636 253.19228 293.36865 
L 248.493531 281.542941 
Q 247.385771 278.754954 244.597785 279.862714 
L 235.603625 283.436394 
Q 232.815639 284.544154 233.923398 287.33214 
z
" clip-path="url(#p776da78d29)" style="fill: #ffffff; stroke: #ffffff; stroke-linejoin: miter"/>
    </g>
    <g clip-path="url(#p776da78d29)">
     <!-- 10 -->
     <g transform="translate(238.644098 285.456449) rotate(-291.669574) scale(0.1 -0.1)">
      <use xlink:href="#DejaVuSans-31"/>
      <use xlink:href="#DejaVuSans-30" x="63.623047"/>
     </g>
    </g>
   </g>
   <g id="text_29">
    <g id="patch_31">
     <path d="M 245.389742 278.987156 
L 251.878774 289.933301 
Q 253.408604 292.513924 255.989228 290.984093 
L 264.314427 286.048796 
Q 266.895051 284.518965 265.36522 281.938341 
L 258.876188 270.992196 
Q 257.346357 268.411573 254.765734 269.941404 
L 246.440535 274.876701 
Q 243.859911 276.406532 245.389742 278.987156 
z
" clip-path="url(#p776da78d29)" style="fill: #ffffff; stroke: #ffffff; stroke-linejoin: miter"/>
    </g>
    <g clip-path="url(#p776da78d29)">
     <!-- 17 -->
     <g transform="translate(249.759329 276.396802) rotate(-300.660071) scale(0.1 -0.1)">
      <use xlink:href="#DejaVuSans-31"/>
      <use xlink:href="#DejaVuSans-37" x="63.623047"/>
     </g>
    </g>
   </g>
   <g id="text_30">
    <g id="patch_32">
     <path d="M 226.116214 297.138542 
L 229.476745 309.411784 
Q 230.269011 312.305279 233.162506 311.513013 
L 242.497042 308.957128 
Q 245.390537 308.164861 244.59827 305.271366 
L 241.23774 292.998125 
Q 240.445473 290.104629 237.551978 290.896896 
L 228.217443 293.452781 
Q 225.323948 294.245047 226.116214 297.138542 
z
" clip-path="url(#p776da78d29)" style="fill: #ffffff; stroke: #ffffff; stroke-linejoin: miter"/>
    </g>
    <g clip-path="url(#p776da78d29)">
     <!-- 11 -->
     <g transform="translate(231.015564 295.797054) rotate(-285.312818) scale(0.1 -0.1)">
      <use xlink:href="#DejaVuSans-31"/>
      <use xlink:href="#DejaVuSans-31" x="63.623047"/>
     </g>
    </g>
   </g>
   <g id="text_31">
    <g id="patch_33">
     <path d="M 278.723482 207.739863 
L 285.085982 207.739863 
Q 288.085982 207.739863 288.085982 204.739863 
L 288.085982 195.061738 
Q 288.085982 192.061738 285.085982 192.061738 
L 278.723482 192.061738 
Q 275.723482 192.061738 275.723482 195.061738 
L 275.723482 204.739863 
Q 275.723482 207.739863 278.723482 207.739863 
z
" clip-path="url(#p776da78d29)" style="fill: #ffffff; stroke: #ffffff; stroke-linejoin: miter"/>
    </g>
    <g clip-path="url(#p776da78d29)">
     <!-- 7 -->
     <g transform="translate(278.723482 202.660175) scale(0.1 -0.1)">
      <use xlink:href="#DejaVuSans-37"/>
     </g>
    </g>
   </g>
   <g id="text_32">
    <g id="patch_34">
     <path d="M 225.272072 298.937331 
L 231.282686 287.721353 
Q 232.699726 285.077115 230.055488 283.660074 
L 221.525065 279.088643 
Q 218.880827 277.671602 217.463786 280.31584 
L 211.453173 291.531818 
Q 210.036132 294.176056 212.680371 295.593097 
L 221.210793 300.164528 
Q 223.855032 301.581569 225.272072 298.937331 
z
" clip-path="url(#p776da78d29)" style="fill: #ffffff; stroke: #ffffff; stroke-linejoin: miter"/>
    </g>
    <g clip-path="url(#p776da78d29)">
     <!-- 11 -->
     <g transform="translate(220.794771 296.537956) rotate(-61.813257) scale(0.1 -0.1)">
      <use xlink:href="#DejaVuSans-31"/>
      <use xlink:href="#DejaVuSans-31" x="63.623047"/>
     </g>
    </g>
   </g>
   <g id="text_33">
    <g id="patch_35">
     <path d="M 222.253244 390.169144 
L 228.613482 389.999538 
Q 231.612416 389.919566 231.532445 386.920632 
L 231.274453 377.245946 
Q 231.194482 374.247013 228.195548 374.326984 
L 221.835309 374.496591 
Q 218.836375 374.576562 218.916346 377.575496 
L 219.174338 387.250182 
Q 219.25431 390.249116 222.253244 390.169144 
z
" clip-path="url(#p776da78d29)" style="fill: #ffffff; stroke: #ffffff; stroke-linejoin: miter"/>
    </g>
    <g clip-path="url(#p776da78d29)">
     <!-- 8 -->
     <g transform="translate(222.117833 385.091262) rotate(-1.527525) scale(0.1 -0.1)">
      <defs>
       <path id="DejaVuSans-38" d="M 2034 2216 
Q 1584 2216 1326 1975 
Q 1069 1734 1069 1313 
Q 1069 891 1326 650 
Q 1584 409 2034 409 
Q 2484 409 2743 651 
Q 3003 894 3003 1313 
Q 3003 1734 2745 1975 
Q 2488 2216 2034 2216 
z
M 1403 2484 
Q 997 2584 770 2862 
Q 544 3141 544 3541 
Q 544 4100 942 4425 
Q 1341 4750 2034 4750 
Q 2731 4750 3128 4425 
Q 3525 4100 3525 3541 
Q 3525 3141 3298 2862 
Q 3072 2584 2669 2484 
Q 3125 2378 3379 2068 
Q 3634 1759 3634 1313 
Q 3634 634 3220 271 
Q 2806 -91 2034 -91 
Q 1263 -91 848 271 
Q 434 634 434 1313 
Q 434 1759 690 2068 
Q 947 2378 1403 2484 
z
M 1172 3481 
Q 1172 3119 1398 2916 
Q 1625 2713 2034 2713 
Q 2441 2713 2670 2916 
Q 2900 3119 2900 3481 
Q 2900 3844 2670 4047 
Q 2441 4250 2034 4250 
Q 1625 4250 1398 4047 
Q 1172 3844 1172 3481 
z
" transform="scale(0.015625)"/>
      </defs>
      <use xlink:href="#DejaVuSans-38"/>
     </g>
    </g>
   </g>
   <g id="text_34">
    <g id="patch_36">
     <path d="M 325.372402 379.697117 
L 338.060033 378.722615 
Q 341.051222 378.49287 340.821477 375.50168 
L 340.08031 365.851977 
Q 339.850565 362.860787 336.859376 363.090532 
L 324.171745 364.065033 
Q 321.180555 364.294778 321.4103 367.285968 
L 322.151467 376.935672 
Q 322.381212 379.926862 325.372402 379.697117 
z
" clip-path="url(#p776da78d29)" style="fill: #ffffff; stroke: #ffffff; stroke-linejoin: miter"/>
    </g>
    <g clip-path="url(#p776da78d29)">
     <!-- 17 -->
     <g transform="translate(324.983391 374.632347) rotate(-4.392107) scale(0.1 -0.1)">
      <use xlink:href="#DejaVuSans-31"/>
      <use xlink:href="#DejaVuSans-37" x="63.623047"/>
     </g>
    </g>
   </g>
   <g id="text_35">
    <g id="patch_37">
     <path d="M 333.615075 373.081032 
L 338.012979 368.483223 
Q 340.086647 366.315297 337.918722 364.241629 
L 330.924903 357.55189 
Q 328.756978 355.478222 326.68331 357.646148 
L 322.285406 362.243957 
Q 320.211738 364.411882 322.379663 366.48555 
L 329.373482 373.175289 
Q 331.541407 375.248957 333.615075 373.081032 
z
" clip-path="url(#p776da78d29)" style="fill: #ffffff; stroke: #ffffff; stroke-linejoin: miter"/>
    </g>
    <g clip-path="url(#p776da78d29)">
     <!-- 6 -->
     <g transform="translate(329.94428 369.569837) rotate(-46.27303) scale(0.1 -0.1)">
      <use xlink:href="#DejaVuSans-36"/>
     </g>
    </g>
   </g>
   <g id="text_36">
    <g id="patch_38">
     <path d="M 317.622481 403.457697 
L 322.334917 399.182845 
Q 324.55689 397.167198 322.541243 394.945224 
L 316.038681 387.777045 
Q 314.023033 385.555072 311.80106 387.570719 
L 307.088625 391.845571 
Q 304.866651 393.861219 306.882298 396.083192 
L 313.384861 403.251371 
Q 315.400508 405.473344 317.622481 403.457697 
z
" clip-path="url(#p776da78d29)" style="fill: #ffffff; stroke: #ffffff; stroke-linejoin: miter"/>
    </g>
    <g clip-path="url(#p776da78d29)">
     <!-- 3 -->
     <g transform="translate(314.209529 399.695387) rotate(-42.212519) scale(0.1 -0.1)">
      <use xlink:href="#DejaVuSans-33"/>
     </g>
    </g>
   </g>
   <g id="text_37">
    <g id="patch_39">
     <path d="M 257.625533 384.704422 
L 259.7256 378.698498 
Q 260.715809 375.866628 257.883939 374.87642 
L 248.748209 371.681966 
Q 245.916339 370.691758 244.92613 373.523628 
L 242.826063 379.529552 
Q 241.835855 382.361422 244.667725 383.35163 
L 253.803455 386.546084 
Q 256.635325 387.536292 257.625533 384.704422 
z
" clip-path="url(#p776da78d29)" style="fill: #ffffff; stroke: #ffffff; stroke-linejoin: miter"/>
    </g>
    <g clip-path="url(#p776da78d29)">
     <!-- 4 -->
     <g transform="translate(252.830529 383.027773) rotate(-70.727008) scale(0.1 -0.1)">
      <use xlink:href="#DejaVuSans-34"/>
     </g>
    </g>
   </g>
   <g id="text_38">
    <g id="patch_40">
     <path d="M 224.527505 268.851943 
L 224.718427 256.128375 
Q 224.763438 253.128713 221.763775 253.083702 
L 212.08674 252.938495 
Q 209.087078 252.893484 209.042067 255.893146 
L 208.851145 268.616714 
Q 208.806134 271.616376 211.805796 271.661387 
L 221.482832 271.806594 
Q 224.482494 271.851605 224.527505 268.851943 
z
" clip-path="url(#p776da78d29)" style="fill: #ffffff; stroke: #ffffff; stroke-linejoin: miter"/>
    </g>
    <g clip-path="url(#p776da78d29)">
     <!-- 16 -->
     <g transform="translate(219.448389 268.775729) rotate(-89.140321) scale(0.1 -0.1)">
      <use xlink:href="#DejaVuSans-31"/>
      <use xlink:href="#DejaVuSans-36" x="63.623047"/>
     </g>
    </g>
   </g>
   <g id="text_39">
    <g id="patch_41">
     <path d="M 182.859627 191.660214 
L 183.849877 178.973803 
Q 184.083334 175.982901 181.092432 175.749443 
L 171.443656 174.996298 
Q 168.452754 174.762841 168.219296 177.753743 
L 167.229046 190.440154 
Q 166.995588 193.431057 169.98649 193.664515 
L 179.635266 194.417659 
Q 182.626169 194.651117 182.859627 191.660214 
z
" clip-path="url(#p776da78d29)" style="fill: #ffffff; stroke: #ffffff; stroke-linejoin: miter"/>
    </g>
    <g clip-path="url(#p776da78d29)">
     <!-- 18 -->
     <g transform="translate(177.795343 191.264917) rotate(-85.536772) scale(0.1 -0.1)">
      <use xlink:href="#DejaVuSans-31"/>
      <use xlink:href="#DejaVuSans-38" x="63.623047"/>
     </g>
    </g>
   </g>
   <g id="text_40">
    <g id="patch_42">
     <path d="M 173.317459 246.26755 
L 173.65592 233.547052 
Q 173.735714 230.548114 170.736776 230.468319 
L 161.062075 230.210899 
Q 158.063136 230.131105 157.983342 233.130044 
L 157.64488 245.850542 
Q 157.565086 248.84948 160.564025 248.929275 
L 170.238726 249.186695 
Q 173.237664 249.266489 173.317459 246.26755 
z
" clip-path="url(#p776da78d29)" style="fill: #ffffff; stroke: #ffffff; stroke-linejoin: miter"/>
    </g>
    <g clip-path="url(#p776da78d29)">
     <!-- 16 -->
     <g transform="translate(168.239568 246.13244) rotate(-88.47586) scale(0.1 -0.1)">
      <use xlink:href="#DejaVuSans-31"/>
      <use xlink:href="#DejaVuSans-36" x="63.623047"/>
     </g>
    </g>
   </g>
   <g id="text_41">
    <g id="patch_43">
     <path d="M 259.205915 284.283284 
L 269.297666 276.532014 
Q 271.67686 274.704603 269.849449 272.325408 
L 263.954144 264.650027 
Q 262.126732 262.270832 259.747537 264.098244 
L 249.655787 271.849514 
Q 247.276592 273.676925 249.104003 276.05612 
L 254.999309 283.731501 
Q 256.82672 286.110696 259.205915 284.283284 
z
" clip-path="url(#p776da78d29)" style="fill: #ffffff; stroke: #ffffff; stroke-linejoin: miter"/>
    </g>
    <g clip-path="url(#p776da78d29)">
     <!-- 15 -->
     <g transform="translate(256.111688 280.254763) rotate(-37.527138) scale(0.1 -0.1)">
      <use xlink:href="#DejaVuSans-31"/>
      <use xlink:href="#DejaVuSans-35" x="63.623047"/>
     </g>
    </g>
   </g>
   <g id="text_42">
    <g id="patch_44">
     <path d="M 223.975827 139.881367 
L 235.341977 145.602928 
Q 238.02162 146.951823 239.370514 144.27218 
L 243.722104 135.627542 
Q 245.070998 132.9479 242.391356 131.599005 
L 231.025206 125.877444 
Q 228.345564 124.52855 226.996669 127.208192 
L 222.645079 135.85283 
Q 221.296185 138.532473 223.975827 139.881367 
z
" clip-path="url(#p776da78d29)" style="fill: #ffffff; stroke: #ffffff; stroke-linejoin: miter"/>
    </g>
    <g clip-path="url(#p776da78d29)">
     <!-- 11 -->
     <g transform="translate(226.259815 135.344119) rotate(-333.279956) scale(0.1 -0.1)">
      <use xlink:href="#DejaVuSans-31"/>
      <use xlink:href="#DejaVuSans-31" x="63.623047"/>
     </g>
    </g>
   </g>
   <g id="text_43">
    <g id="patch_45">
     <path d="M 243.39269 236.195709 
L 256.083346 237.129991 
Q 259.075249 237.350254 259.295512 234.358351 
L 260.006089 224.706346 
Q 260.226351 221.714443 257.234448 221.49418 
L 244.543793 220.559899 
Q 241.55189 220.339636 241.331627 223.331539 
L 240.62105 232.983544 
Q 240.400787 235.975447 243.39269 236.195709 
z
" clip-path="url(#p776da78d29)" style="fill: #ffffff; stroke: #ffffff; stroke-linejoin: miter"/>
    </g>
    <g clip-path="url(#p776da78d29)">
     <!-- 18 -->
     <g transform="translate(243.765645 231.129732) rotate(-355.789502) scale(0.1 -0.1)">
      <use xlink:href="#DejaVuSans-31"/>
      <use xlink:href="#DejaVuSans-38" x="63.623047"/>
     </g>
    </g>
   </g>
   <g id="text_44">
    <g id="patch_46">
     <path d="M 363.092123 265.880965 
L 375.628097 263.695795 
Q 378.583533 263.180627 378.068365 260.225191 
L 376.406413 250.690831 
Q 375.891245 247.735395 372.935809 248.250563 
L 360.399834 250.435733 
Q 357.444398 250.9509 357.959566 253.906337 
L 359.621519 263.440696 
Q 360.136687 266.396132 363.092123 265.880965 
z
" clip-path="url(#p776da78d29)" style="fill: #ffffff; stroke: #ffffff; stroke-linejoin: miter"/>
    </g>
    <g clip-path="url(#p776da78d29)">
     <!-- 11 -->
     <g transform="translate(362.219826 260.876734) rotate(-9.887989) scale(0.1 -0.1)">
      <use xlink:href="#DejaVuSans-31"/>
      <use xlink:href="#DejaVuSans-31" x="63.623047"/>
     </g>
    </g>
   </g>
   <g id="text_45">
    <g id="patch_47">
     <path d="M 222.042914 28.75113 
L 234.75975 28.295382 
Q 237.757825 28.187936 237.65038 25.189861 
L 237.303756 15.517945 
Q 237.19631 12.51987 234.198235 12.627315 
L 221.481399 13.083063 
Q 218.483324 13.190509 218.590769 16.188584 
L 218.937393 25.8605 
Q 219.044838 28.858575 222.042914 28.75113 
z
" clip-path="url(#p776da78d29)" style="fill: #ffffff; stroke: #ffffff; stroke-linejoin: miter"/>
    </g>
    <g clip-path="url(#p776da78d29)">
     <!-- 15 -->
     <g transform="translate(221.860984 23.674701) rotate(-2.052496) scale(0.1 -0.1)">
      <use xlink:href="#DejaVuSans-31"/>
      <use xlink:href="#DejaVuSans-35" x="63.623047"/>
     </g>
    </g>
   </g>
   <g id="text_46">
    <g id="patch_48">
     <path d="M 177.415219 130.340727 
L 188.378049 136.80153 
Q 190.962606 138.324706 192.485782 135.740148 
L 197.39961 127.402259 
Q 198.922786 124.817702 196.338228 123.294526 
L 185.375398 116.833723 
Q 182.790841 115.310547 181.267665 117.895105 
L 176.353837 126.232994 
Q 174.830662 128.817551 177.415219 130.340727 
z
" clip-path="url(#p776da78d29)" style="fill: #ffffff; stroke: #ffffff; stroke-linejoin: miter"/>
    </g>
    <g clip-path="url(#p776da78d29)">
     <!-- 13 -->
     <g transform="translate(179.994304 125.964479) rotate(-329.487574) scale(0.1 -0.1)">
      <use xlink:href="#DejaVuSans-31"/>
      <use xlink:href="#DejaVuSans-33" x="63.623047"/>
     </g>
    </g>
   </g>
   <g id="text_47">
    <g id="patch_49">
     <path d="M 168.339774 39.073902 
L 174.700924 39.204955 
Q 177.700288 39.266749 177.762081 36.267385 
L 177.96143 26.591314 
Q 178.023224 23.59195 175.02386 23.530157 
L 168.66271 23.399103 
Q 165.663346 23.337309 165.601553 26.336673 
L 165.402204 36.012745 
Q 165.340411 39.012108 168.339774 39.073902 
z
" clip-path="url(#p776da78d29)" style="fill: #ffffff; stroke: #ffffff; stroke-linejoin: miter"/>
    </g>
    <g clip-path="url(#p776da78d29)">
     <!-- 7 -->
     <g transform="translate(168.444405 33.995292) rotate(-358.819747) scale(0.1 -0.1)">
      <use xlink:href="#DejaVuSans-37"/>
     </g>
    </g>
   </g>
   <g id="text_48">
    <g id="patch_50">
     <path d="M 446.430814 335.776837 
L 451.552157 339.552185 
Q 453.966935 341.332311 455.74706 338.917532 
L 461.489818 331.127356 
Q 463.269943 328.712578 460.855165 326.932453 
L 455.733822 323.157104 
Q 453.319044 321.376979 451.538919 323.791758 
L 445.796161 331.581933 
Q 444.016036 333.996712 446.430814 335.776837 
z
" clip-path="url(#p776da78d29)" style="fill: #ffffff; stroke: #ffffff; stroke-linejoin: miter"/>
    </g>
    <g clip-path="url(#p776da78d29)">
     <!-- 5 -->
     <g transform="translate(449.444974 331.688064) rotate(-323.603122) scale(0.1 -0.1)">
      <use xlink:href="#DejaVuSans-35"/>
     </g>
    </g>
   </g>
   <g id="text_49">
    <g id="patch_51">
     <path d="M 370.218453 362.011654 
L 374.651752 357.447964 
Q 376.742109 355.296126 374.590271 353.205769 
L 367.648351 346.46219 
Q 365.496513 344.371833 363.406156 346.523671 
L 358.972857 351.087361 
Q 356.8825 353.239199 359.034338 355.329556 
L 365.976258 362.073135 
Q 368.128096 364.163492 370.218453 362.011654 
z
" clip-path="url(#p776da78d29)" style="fill: #ffffff; stroke: #ffffff; stroke-linejoin: miter"/>
    </g>
    <g clip-path="url(#p776da78d29)">
     <!-- 8 -->
     <g transform="translate(366.574898 358.472201) rotate(-45.830315) scale(0.1 -0.1)">
      <use xlink:href="#DejaVuSans-38"/>
     </g>
    </g>
   </g>
   <g id="text_50">
    <g id="patch_52">
     <path d="M 344.459682 293.212394 
L 356.779547 296.397759 
Q 359.684034 297.148729 360.435004 294.244242 
L 362.857664 284.874246 
Q 363.608634 281.969759 360.704147 281.218789 
L 348.384282 278.033425 
Q 345.479795 277.282455 344.728825 280.186942 
L 342.306165 289.556937 
Q 341.555195 292.461424 344.459682 293.212394 
z
" clip-path="url(#p776da78d29)" style="fill: #ffffff; stroke: #ffffff; stroke-linejoin: miter"/>
    </g>
    <g clip-path="url(#p776da78d29)">
     <!-- 15 -->
     <g transform="translate(345.731246 288.294432) rotate(-345.503354) scale(0.1 -0.1)">
      <use xlink:href="#DejaVuSans-31"/>
      <use xlink:href="#DejaVuSans-35" x="63.623047"/>
     </g>
    </g>
   </g>
   <g id="text_51">
    <g id="patch_53">
     <path d="M 377.019965 266.906943 
L 380.96445 271.899182 
Q 382.824325 274.253086 385.178229 272.393211 
L 392.772023 266.393177 
Q 395.125927 264.533302 393.266052 262.179398 
L 389.321567 257.187159 
Q 387.461692 254.833255 385.107788 256.69313 
L 377.513995 262.693164 
Q 375.16009 264.553039 377.019965 266.906943 
z
" clip-path="url(#p776da78d29)" style="fill: #ffffff; stroke: #ffffff; stroke-linejoin: miter"/>
    </g>
    <g clip-path="url(#p776da78d29)">
     <!-- 8 -->
     <g transform="translate(381.005665 263.757748) rotate(-308.313091) scale(0.1 -0.1)">
      <use xlink:href="#DejaVuSans-38"/>
     </g>
    </g>
   </g>
   <g id="text_52">
    <g id="patch_54">
     <path d="M 278.985029 133.359273 
L 282.678129 138.540241 
Q 284.419473 140.983133 286.862365 139.241789 
L 294.743237 133.624142 
Q 297.186129 131.882798 295.444786 129.439906 
L 291.751686 124.258939 
Q 290.010342 121.816047 287.56745 123.55739 
L 279.686578 129.175037 
Q 277.243686 130.916381 278.985029 133.359273 
z
" clip-path="url(#p776da78d29)" style="fill: #ffffff; stroke: #ffffff; stroke-linejoin: miter"/>
    </g>
    <g clip-path="url(#p776da78d29)">
     <!-- 3 -->
     <g transform="translate(283.121406 130.410779) rotate(-305.482051) scale(0.1 -0.1)">
      <use xlink:href="#DejaVuSans-33"/>
     </g>
    </g>
   </g>
   <g id="text_53">
    <g id="patch_55">
     <path d="M 226.273428 180.986334 
L 226.349948 174.624294 
Q 226.386027 171.624511 223.386244 171.588431 
L 213.708819 171.472036 
Q 210.709036 171.435956 210.672956 174.435739 
L 210.596437 180.797779 
Q 210.560357 183.797562 213.56014 183.833642 
L 223.237565 183.950037 
Q 226.237348 183.986117 226.273428 180.986334 
z
" clip-path="url(#p776da78d29)" style="fill: #ffffff; stroke: #ffffff; stroke-linejoin: miter"/>
    </g>
    <g clip-path="url(#p776da78d29)">
     <!-- 8 -->
     <g transform="translate(221.194108 180.925243) rotate(-89.310909) scale(0.1 -0.1)">
      <use xlink:href="#DejaVuSans-38"/>
     </g>
    </g>
   </g>
   <g id="text_54">
    <g id="patch_56">
     <path d="M 304.690145 154.650295 
L 309.217267 150.179661 
Q 311.351863 148.0717 309.243902 145.937104 
L 302.443532 139.050809 
Q 300.335571 136.916213 298.200975 139.024174 
L 293.673853 143.494808 
Q 291.539257 145.602769 293.647218 147.737365 
L 300.447588 154.62366 
Q 302.555549 156.758256 304.690145 154.650295 
z
" clip-path="url(#p776da78d29)" style="fill: #ffffff; stroke: #ffffff; stroke-linejoin: miter"/>
    </g>
    <g clip-path="url(#p776da78d29)">
     <!-- 4 -->
     <g transform="translate(301.120884 151.035935) rotate(-44.6403) scale(0.1 -0.1)">
      <use xlink:href="#DejaVuSans-34"/>
     </g>
    </g>
   </g>
   <g id="text_55">
    <g id="patch_57">
     <path d="M 210.606136 166.504125 
L 221.391248 173.257419 
Q 223.933907 174.849552 225.526039 172.306893 
L 230.662324 164.104169 
Q 232.254456 161.56151 229.711797 159.969377 
L 218.926685 153.216083 
Q 216.384026 151.623951 214.791894 154.16661 
L 209.655609 162.369334 
Q 208.063477 164.911993 210.606136 166.504125 
z
" clip-path="url(#p776da78d29)" style="fill: #ffffff; stroke: #ffffff; stroke-linejoin: miter"/>
    </g>
    <g clip-path="url(#p776da78d29)">
     <!-- 18 -->
     <g transform="translate(213.301981 162.19882) rotate(-327.94651) scale(0.1 -0.1)">
      <use xlink:href="#DejaVuSans-31"/>
      <use xlink:href="#DejaVuSans-38" x="63.623047"/>
     </g>
    </g>
   </g>
   <g id="text_56">
    <g id="patch_58">
     <path d="M 301.343523 123.630693 
L 307.664874 122.908253 
Q 310.645472 122.567613 310.304833 119.587015 
L 309.205915 109.971482 
Q 308.865275 106.990884 305.884677 107.331524 
L 299.563325 108.053964 
Q 296.582727 108.394604 296.923367 111.375202 
L 298.022285 120.990735 
Q 298.362925 123.971333 301.343523 123.630693 
z
" clip-path="url(#p776da78d29)" style="fill: #ffffff; stroke: #ffffff; stroke-linejoin: miter"/>
    </g>
    <g clip-path="url(#p776da78d29)">
     <!-- 7 -->
     <g transform="translate(300.766742 118.583858) rotate(-6.519802) scale(0.1 -0.1)">
      <use xlink:href="#DejaVuSans-37"/>
     </g>
    </g>
   </g>
   <g id="text_57">
    <g id="patch_59">
     <path d="M 296.33767 446.153364 
L 300.876508 450.612104 
Q 303.016627 452.714457 305.11898 450.574337 
L 311.901258 443.670222 
Q 314.003611 441.530102 311.863491 439.427749 
L 307.324654 434.969009 
Q 305.184534 432.866656 303.082182 435.006776 
L 296.299904 441.910891 
Q 294.197551 444.051011 296.33767 446.153364 
z
" clip-path="url(#p776da78d29)" style="fill: #ffffff; stroke: #ffffff; stroke-linejoin: miter"/>
    </g>
    <g clip-path="url(#p776da78d29)">
     <!-- 8 -->
     <g transform="translate(299.897436 442.529651) rotate(-315.510038) scale(0.1 -0.1)">
      <use xlink:href="#DejaVuSans-38"/>
     </g>
    </g>
   </g>
   <g id="text_58">
    <g id="patch_60">
     <path d="M 148.442263 310.018796 
L 157.907185 318.524141 
Q 160.1386 320.52933 162.14379 318.297914 
L 168.612614 311.099274 
Q 170.617803 308.867858 168.386387 306.862669 
L 158.921466 298.357325 
Q 156.69005 296.352136 154.684861 298.583551 
L 148.216037 305.782191 
Q 146.210847 308.013607 148.442263 310.018796 
z
" clip-path="url(#p776da78d29)" style="fill: #ffffff; stroke: #ffffff; stroke-linejoin: miter"/>
    </g>
    <g clip-path="url(#p776da78d29)">
     <!-- 15 -->
     <g transform="translate(151.837508 306.240498) rotate(-318.05658) scale(0.1 -0.1)">
      <use xlink:href="#DejaVuSans-31"/>
      <use xlink:href="#DejaVuSans-35" x="63.623047"/>
     </g>
    </g>
   </g>
   <g id="text_59">
    <g id="patch_61">
     <path d="M 358.153389 78.036431 
L 368.564468 70.719666 
Q 371.018947 68.994692 369.293973 66.540214 
L 363.729135 58.621964 
Q 362.004161 56.167485 359.549682 57.892459 
L 349.138603 65.209224 
Q 346.684124 66.934198 348.409098 69.388677 
L 353.973936 77.306927 
Q 355.69891 79.761405 358.153389 78.036431 
z
" clip-path="url(#p776da78d29)" style="fill: #ffffff; stroke: #ffffff; stroke-linejoin: miter"/>
    </g>
    <g clip-path="url(#p776da78d29)">
     <!-- 16 -->
     <g transform="translate(355.232613 73.880437) rotate(-35.099026) scale(0.1 -0.1)">
      <use xlink:href="#DejaVuSans-31"/>
      <use xlink:href="#DejaVuSans-36" x="63.623047"/>
     </g>
    </g>
   </g>
   <g id="text_60">
    <g id="patch_62">
     <path d="M 401.155352 115.504303 
L 406.197108 103.820712 
Q 407.385735 101.06623 404.631253 99.877604 
L 395.745182 96.043046 
Q 392.9907 94.85442 391.802074 97.608901 
L 386.760317 109.292493 
Q 385.571691 112.046974 388.326172 113.2356 
L 397.212244 117.070158 
Q 399.966725 118.258785 401.155352 115.504303 
z
" clip-path="url(#p776da78d29)" style="fill: #ffffff; stroke: #ffffff; stroke-linejoin: miter"/>
    </g>
    <g clip-path="url(#p776da78d29)">
     <!-- 12 -->
     <g transform="translate(396.491383 113.491687) rotate(-66.658617) scale(0.1 -0.1)">
      <use xlink:href="#DejaVuSans-31"/>
      <use xlink:href="#DejaVuSans-32" x="63.623047"/>
     </g>
    </g>
   </g>
   <g id="text_61">
    <g id="patch_63">
     <path d="M 157.089044 213.323151 
L 169.76694 212.229262 
Q 172.755835 211.971371 172.497943 208.982476 
L 171.665975 199.340177 
Q 171.408084 196.351282 168.419189 196.609174 
L 155.741293 197.703063 
Q 152.752399 197.960954 153.01029 200.949849 
L 153.842258 210.592148 
Q 154.10015 213.581043 157.089044 213.323151 
z
" clip-path="url(#p776da78d29)" style="fill: #ffffff; stroke: #ffffff; stroke-linejoin: miter"/>
    </g>
    <g clip-path="url(#p776da78d29)">
     <!-- 14 -->
     <g transform="translate(156.652375 208.262268) rotate(-4.931449) scale(0.1 -0.1)">
      <use xlink:href="#DejaVuSans-31"/>
      <use xlink:href="#DejaVuSans-34" x="63.623047"/>
     </g>
    </g>
   </g>
   <g id="text_62">
    <g id="patch_64">
     <path d="M 190.503466 132.693093 
L 195.79884 129.165995 
Q 198.295677 127.502924 196.632606 125.006087 
L 191.267467 116.951188 
Q 189.604396 114.454352 187.107559 116.117423 
L 181.812185 119.644521 
Q 179.315348 121.307592 180.97842 123.804429 
L 186.343558 131.859328 
Q 188.00663 134.356165 190.503466 132.693093 
z
" clip-path="url(#p776da78d29)" style="fill: #ffffff; stroke: #ffffff; stroke-linejoin: miter"/>
    </g>
    <g clip-path="url(#p776da78d29)">
     <!-- 7 -->
     <g transform="translate(187.687505 128.465376) rotate(-33.66645) scale(0.1 -0.1)">
      <use xlink:href="#DejaVuSans-37"/>
     </g>
    </g>
   </g>
   <g id="text_63">
    <g id="patch_65">
     <path d="M 123.829352 127.351523 
L 131.096911 116.906036 
Q 132.810284 114.443445 130.347693 112.730072 
L 122.403274 107.202658 
Q 119.940684 105.489284 118.22731 107.951875 
L 110.959752 118.397363 
Q 109.246378 120.859953 111.708969 122.573326 
L 119.653388 128.10074 
Q 122.115978 129.814114 123.829352 127.351523 
z
" clip-path="url(#p776da78d29)" style="fill: #ffffff; stroke: #ffffff; stroke-linejoin: miter"/>
    </g>
    <g clip-path="url(#p776da78d29)">
     <!-- 18 -->
     <g transform="translate(119.659622 124.45039) rotate(-55.171325) scale(0.1 -0.1)">
      <use xlink:href="#DejaVuSans-31"/>
      <use xlink:href="#DejaVuSans-38" x="63.623047"/>
     </g>
    </g>
   </g>
   <g id="text_64">
    <g id="patch_66">
     <path d="M 247.011311 461.465618 
L 259.186966 465.164137 
Q 262.057455 466.036086 262.929404 463.165598 
L 265.74235 453.905282 
Q 266.614299 451.034794 263.743811 450.162844 
L 251.568155 446.464325 
Q 248.697667 445.592376 247.825717 448.462864 
L 245.012772 457.72318 
Q 244.140822 460.593668 247.011311 461.465618 
z
" clip-path="url(#p776da78d29)" style="fill: #ffffff; stroke: #ffffff; stroke-linejoin: miter"/>
    </g>
    <g clip-path="url(#p776da78d29)">
     <!-- 16 -->
     <g transform="translate(248.487721 456.605223) rotate(-343.103136) scale(0.1 -0.1)">
      <use xlink:href="#DejaVuSans-31"/>
      <use xlink:href="#DejaVuSans-36" x="63.623047"/>
     </g>
    </g>
   </g>
   <g id="text_65">
    <g id="patch_67">
     <path d="M 306.16381 271.759615 
L 310.230619 266.86651 
Q 312.148172 264.559349 309.84101 262.641797 
L 302.398012 256.455693 
Q 300.090851 254.53814 298.173299 256.845302 
L 294.10649 261.738406 
Q 292.188937 264.045567 294.496098 265.963119 
L 301.939096 272.149223 
Q 304.246257 274.066776 306.16381 271.759615 
z
" clip-path="url(#p776da78d29)" style="fill: #ffffff; stroke: #ffffff; stroke-linejoin: miter"/>
    </g>
    <g clip-path="url(#p776da78d29)">
     <!-- 9 -->
     <g transform="translate(302.257257 268.512759) rotate(-50.26899) scale(0.1 -0.1)">
      <use xlink:href="#DejaVuSans-39"/>
     </g>
    </g>
   </g>
   <g id="text_66">
    <g id="patch_68">
     <path d="M 262.189764 111.137267 
L 270.895411 120.418288 
Q 272.947823 122.606347 275.135883 120.553935 
L 282.194655 113.932769 
Q 284.382714 111.880357 282.330302 109.692298 
L 273.624655 100.411277 
Q 271.572244 98.223218 269.384184 100.27563 
L 262.325412 106.896796 
Q 260.137352 108.949208 262.189764 111.137267 
z
" clip-path="url(#p776da78d29)" style="fill: #ffffff; stroke: #ffffff; stroke-linejoin: miter"/>
    </g>
    <g clip-path="url(#p776da78d29)">
     <!-- 14 -->
     <g transform="translate(265.894651 107.662064) rotate(-313.167797) scale(0.1 -0.1)">
      <use xlink:href="#DejaVuSans-31"/>
      <use xlink:href="#DejaVuSans-34" x="63.623047"/>
     </g>
    </g>
   </g>
   <g id="text_67">
    <g id="patch_69">
     <path d="M 328.47224 226.17444 
L 328.687606 213.451263 
Q 328.73838 210.451692 325.73881 210.400918 
L 316.062071 210.237119 
Q 313.062501 210.186345 313.011727 213.185916 
L 312.796361 225.909093 
Q 312.745587 228.908663 315.745157 228.959437 
L 325.421896 229.123236 
Q 328.421466 229.17401 328.47224 226.17444 
z
" clip-path="url(#p776da78d29)" style="fill: #ffffff; stroke: #ffffff; stroke-linejoin: miter"/>
    </g>
    <g clip-path="url(#p776da78d29)">
     <!-- 14 -->
     <g transform="translate(323.39328 226.088468) rotate(-89.030242) scale(0.1 -0.1)">
      <use xlink:href="#DejaVuSans-31"/>
      <use xlink:href="#DejaVuSans-34" x="63.623047"/>
     </g>
    </g>
   </g>
   <g id="text_68">
    <g id="patch_70">
     <path d="M 285.673618 295.698468 
L 288.394619 308.129147 
Q 289.036112 311.059759 291.966724 310.418265 
L 301.421001 308.348781 
Q 304.351612 307.707287 303.710119 304.776676 
L 300.989118 292.345997 
Q 300.347624 289.415385 297.417013 290.056878 
L 287.962736 292.126363 
Q 285.032124 292.767856 285.673618 295.698468 
z
" clip-path="url(#p776da78d29)" style="fill: #ffffff; stroke: #ffffff; stroke-linejoin: miter"/>
    </g>
    <g clip-path="url(#p776da78d29)">
     <!-- 10 -->
     <g transform="translate(290.635815 294.612273) rotate(-282.346961) scale(0.1 -0.1)">
      <use xlink:href="#DejaVuSans-31"/>
      <use xlink:href="#DejaVuSans-30" x="63.623047"/>
     </g>
    </g>
   </g>
   <g id="text_69">
    <g id="patch_71">
     <path d="M 159.24669 396.636286 
L 171.905913 397.928455 
Q 174.890406 398.233092 175.195043 395.2486 
L 176.177815 385.620502 
Q 176.482453 382.63601 173.49796 382.331372 
L 160.838737 381.039203 
Q 157.854245 380.734566 157.549607 383.719058 
L 156.566835 393.347156 
Q 156.262198 396.331648 159.24669 396.636286 
z
" clip-path="url(#p776da78d29)" style="fill: #ffffff; stroke: #ffffff; stroke-linejoin: miter"/>
    </g>
    <g clip-path="url(#p776da78d29)">
     <!-- 19 -->
     <g transform="translate(159.762511 391.582856) rotate(-354.171812) scale(0.1 -0.1)">
      <use xlink:href="#DejaVuSans-31"/>
      <use xlink:href="#DejaVuSans-39" x="63.623047"/>
     </g>
    </g>
   </g>
   <g id="text_70">
    <g id="patch_72">
     <path d="M 301.930019 382.406434 
L 303.922087 388.449038 
Q 304.861372 391.298204 307.710538 390.358919 
L 316.902064 387.328745 
Q 319.751229 386.38946 318.811944 383.540294 
L 316.819876 377.49769 
Q 315.880591 374.648524 313.031426 375.58781 
L 303.839899 378.617983 
Q 300.990734 379.557268 301.930019 382.406434 
z
" clip-path="url(#p776da78d29)" style="fill: #ffffff; stroke: #ffffff; stroke-linejoin: miter"/>
    </g>
    <g clip-path="url(#p776da78d29)">
     <!-- 1 -->
     <g transform="translate(306.754309 380.816008) rotate(-288.245855) scale(0.1 -0.1)">
      <use xlink:href="#DejaVuSans-31"/>
     </g>
    </g>
   </g>
   <g id="text_71">
    <g id="patch_73">
     <path d="M 151.932295 330.886839 
L 157.886236 328.643629 
Q 160.693596 327.585926 159.635893 324.778567 
L 156.223702 315.721909 
Q 155.166 312.91455 152.35864 313.972252 
L 146.404699 316.215462 
Q 143.59734 317.273165 144.655042 320.080524 
L 148.067234 329.137182 
Q 149.124936 331.944541 151.932295 330.886839 
z
" clip-path="url(#p776da78d29)" style="fill: #ffffff; stroke: #ffffff; stroke-linejoin: miter"/>
    </g>
    <g clip-path="url(#p776da78d29)">
     <!-- 8 -->
     <g transform="translate(150.141363 326.133336) rotate(-20.64443) scale(0.1 -0.1)">
      <use xlink:href="#DejaVuSans-38"/>
     </g>
    </g>
   </g>
   <g id="text_72">
    <g id="patch_74">
     <path d="M 140.759976 385.098049 
L 153.480825 385.423034 
Q 156.479847 385.499651 156.556464 382.50063 
L 156.803635 372.825662 
Q 156.880252 369.82664 153.881231 369.750023 
L 141.160381 369.425038 
Q 138.16136 369.34842 138.084743 372.347442 
L 137.837572 382.02241 
Q 137.760954 385.021431 140.759976 385.098049 
z
" clip-path="url(#p776da78d29)" style="fill: #ffffff; stroke: #ffffff; stroke-linejoin: miter"/>
    </g>
    <g clip-path="url(#p776da78d29)">
     <!-- 11 -->
     <g transform="translate(140.889707 380.020018) rotate(-358.536558) scale(0.1 -0.1)">
      <use xlink:href="#DejaVuSans-31"/>
      <use xlink:href="#DejaVuSans-31" x="63.623047"/>
     </g>
    </g>
   </g>
   <g id="text_73">
    <g id="patch_75">
     <path d="M 156.316277 375.509491 
L 162.67228 375.222034 
Q 165.669217 375.086494 165.533677 372.089557 
L 165.09642 362.421315 
Q 164.96088 359.424378 161.963943 359.559918 
L 155.60794 359.847376 
Q 152.611004 359.982915 152.746544 362.979852 
L 153.183801 372.648094 
Q 153.319341 375.645031 156.316277 375.509491 
z
" clip-path="url(#p776da78d29)" style="fill: #ffffff; stroke: #ffffff; stroke-linejoin: miter"/>
    </g>
    <g clip-path="url(#p776da78d29)">
     <!-- 8 -->
     <g transform="translate(156.086777 370.434991) rotate(-2.589502) scale(0.1 -0.1)">
      <use xlink:href="#DejaVuSans-38"/>
     </g>
    </g>
   </g>
   <g id="text_74">
    <g id="patch_76">
     <path d="M 314.636689 418.578113 
L 318.774658 430.611518 
Q 319.750211 433.44847 322.587163 432.472917 
L 331.739289 429.325744 
Q 334.576241 428.350191 333.600688 425.513239 
L 329.462719 413.479834 
Q 328.487166 410.642882 325.650214 411.618435 
L 316.498089 414.765608 
Q 313.661136 415.741161 314.636689 418.578113 
z
" clip-path="url(#p776da78d29)" style="fill: #ffffff; stroke: #ffffff; stroke-linejoin: miter"/>
    </g>
    <g clip-path="url(#p776da78d29)">
     <!-- 10 -->
     <g transform="translate(319.440299 416.926279) rotate(-288.976737) scale(0.1 -0.1)">
      <use xlink:href="#DejaVuSans-31"/>
      <use xlink:href="#DejaVuSans-30" x="63.623047"/>
     </g>
    </g>
   </g>
   <g id="text_75">
    <g id="patch_77">
     <path d="M 367.717056 192.988056 
L 371.908706 188.201463 
Q 373.885122 185.944523 371.628182 183.968106 
L 364.3472 177.592104 
Q 362.09026 175.615688 360.113843 177.872628 
L 355.922193 182.659222 
Q 353.945777 184.916162 356.202717 186.892578 
L 363.4837 193.26858 
Q 365.74064 195.244996 367.717056 192.988056 
z
" clip-path="url(#p776da78d29)" style="fill: #ffffff; stroke: #ffffff; stroke-linejoin: miter"/>
    </g>
    <g clip-path="url(#p776da78d29)">
     <!-- 9 -->
     <g transform="translate(363.895539 189.64153) rotate(-48.791166) scale(0.1 -0.1)">
      <use xlink:href="#DejaVuSans-39"/>
     </g>
    </g>
   </g>
   <g id="text_76">
    <g id="patch_78">
     <path d="M 456.664656 228.011472 
L 457.930303 234.246818 
Q 458.527072 237.186863 461.467117 236.590094 
L 470.951826 234.664893 
Q 473.891872 234.068124 473.295103 231.128079 
L 472.029455 224.892732 
Q 471.432686 221.952687 468.492641 222.549456 
L 459.007932 224.474658 
Q 456.067887 225.071427 456.664656 228.011472 
z
" clip-path="url(#p776da78d29)" style="fill: #ffffff; stroke: #ffffff; stroke-linejoin: miter"/>
    </g>
    <g clip-path="url(#p776da78d29)">
     <!-- 6 -->
     <g transform="translate(461.642826 227.001005) rotate(-281.473986) scale(0.1 -0.1)">
      <use xlink:href="#DejaVuSans-36"/>
     </g>
    </g>
   </g>
   <g id="text_77">
    <g id="patch_79">
     <path d="M 412.742884 293.451158 
L 421.852383 302.336126 
Q 424.000005 304.430814 426.094693 302.283192 
L 432.852244 295.354873 
Q 434.946932 293.20725 432.79931 291.112562 
L 423.689811 282.227594 
Q 421.542189 280.132906 419.447501 282.280528 
L 412.68995 289.208847 
Q 410.595262 291.35647 412.742884 293.451158 
z
" clip-path="url(#p776da78d29)" style="fill: #ffffff; stroke: #ffffff; stroke-linejoin: miter"/>
    </g>
    <g clip-path="url(#p776da78d29)">
     <!-- 14 -->
     <g transform="translate(416.289671 289.814741) rotate(-315.714884) scale(0.1 -0.1)">
      <use xlink:href="#DejaVuSans-31"/>
      <use xlink:href="#DejaVuSans-34" x="63.623047"/>
     </g>
    </g>
   </g>
   <g id="text_78">
    <g id="patch_80">
     <path d="M 287.265933 280.058779 
L 292.5427 276.503905 
Q 295.030764 274.827736 293.354595 272.339673 
L 287.947204 264.313077 
Q 286.271035 261.825014 283.782972 263.501183 
L 278.506205 267.056058 
Q 276.018142 268.732227 277.694311 271.22029 
L 283.101701 279.246885 
Q 284.77787 281.734948 287.265933 280.058779 
z
" clip-path="url(#p776da78d29)" style="fill: #ffffff; stroke: #ffffff; stroke-linejoin: miter"/>
    </g>
    <g clip-path="url(#p776da78d29)">
     <!-- 5 -->
     <g transform="translate(284.427795 275.845918) rotate(-33.967527) scale(0.1 -0.1)">
      <use xlink:href="#DejaVuSans-35"/>
     </g>
    </g>
   </g>
   <g id="matplotlib.axis_1">
    <g id="xtick_1">
     <g id="line2d_1">
      <path d="M 10.8 493.2 
L 10.8 10.8 
" clip-path="url(#p776da78d29)" style="fill: none; stroke: #b0b0b0; stroke-opacity: 0.3; stroke-width: 0.8; stroke-linecap: square"/>
     </g>
    </g>
    <g id="xtick_2">
     <g id="line2d_2">
      <path d="M 59.04 493.2 
L 59.04 10.8 
" clip-path="url(#p776da78d29)" style="fill: none; stroke: #b0b0b0; stroke-opacity: 0.3; stroke-width: 0.8; stroke-linecap: square"/>
     </g>
    </g>
    <g id="xtick_3">
     <g id="line2d_3">
      <path d="M 107.28 493.2 
L 107.28 10.8 
" clip-path="url(#p776da78d29)" style="fill: none; stroke: #b0b0b0; stroke-opacity: 0.3; stroke-width: 0.8; stroke-linecap: square"/>
     </g>
    </g>
    <g id="xtick_4">
     <g id="line2d_4">
      <path d="M 155.52 493.2 
L 155.52 10.8 
" clip-path="url(#p776da78d29)" style="fill: none; stroke: #b0b0b0; stroke-opacity: 0.3; stroke-width: 0.8; stroke-linecap: square"/>
     </g>
    </g>
    <g id="xtick_5">
     <g id="line2d_5">
      <path d="M 203.76 493.2 
L 203.76 10.8 
" clip-path="url(#p776da78d29)" style="fill: none; stroke: #b0b0b0; stroke-opacity: 0.3; stroke-width: 0.8; stroke-linecap: square"/>
     </g>
    </g>
    <g id="xtick_6">
     <g id="line2d_6">
      <path d="M 252 493.2 
L 252 10.8 
" clip-path="url(#p776da78d29)" style="fill: none; stroke: #b0b0b0; stroke-opacity: 0.3; stroke-width: 0.8; stroke-linecap: square"/>
     </g>
    </g>
    <g id="xtick_7">
     <g id="line2d_7">
      <path d="M 300.24 493.2 
L 300.24 10.8 
" clip-path="url(#p776da78d29)" style="fill: none; stroke: #b0b0b0; stroke-opacity: 0.3; stroke-width: 0.8; stroke-linecap: square"/>
     </g>
    </g>
    <g id="xtick_8">
     <g id="line2d_8">
      <path d="M 348.48 493.2 
L 348.48 10.8 
" clip-path="url(#p776da78d29)" style="fill: none; stroke: #b0b0b0; stroke-opacity: 0.3; stroke-width: 0.8; stroke-linecap: square"/>
     </g>
    </g>
    <g id="xtick_9">
     <g id="line2d_9">
      <path d="M 396.72 493.2 
L 396.72 10.8 
" clip-path="url(#p776da78d29)" style="fill: none; stroke: #b0b0b0; stroke-opacity: 0.3; stroke-width: 0.8; stroke-linecap: square"/>
     </g>
    </g>
    <g id="xtick_10">
     <g id="line2d_10">
      <path d="M 444.96 493.2 
L 444.96 10.8 
" clip-path="url(#p776da78d29)" style="fill: none; stroke: #b0b0b0; stroke-opacity: 0.3; stroke-width: 0.8; stroke-linecap: square"/>
     </g>
    </g>
    <g id="xtick_11">
     <g id="line2d_11">
      <path d="M 493.2 493.2 
L 493.2 10.8 
" clip-path="url(#p776da78d29)" style="fill: none; stroke: #b0b0b0; stroke-opacity: 0.3; stroke-width: 0.8; stroke-linecap: square"/>
     </g>
    </g>
   </g>
   <g id="matplotlib.axis_2">
    <g id="ytick_1">
     <g id="line2d_12">
      <path d="M 10.8 493.2 
L 493.2 493.2 
" clip-path="url(#p776da78d29)" style="fill: none; stroke: #b0b0b0; stroke-opacity: 0.3; stroke-width: 0.8; stroke-linecap: square"/>
     </g>
    </g>
    <g id="ytick_2">
     <g id="line2d_13">
      <path d="M 10.8 444.96 
L 493.2 444.96 
" clip-path="url(#p776da78d29)" style="fill: none; stroke: #b0b0b0; stroke-opacity: 0.3; stroke-width: 0.8; stroke-linecap: square"/>
     </g>
    </g>
    <g id="ytick_3">
     <g id="line2d_14">
      <path d="M 10.8 396.72 
L 493.2 396.72 
" clip-path="url(#p776da78d29)" style="fill: none; stroke: #b0b0b0; stroke-opacity: 0.3; stroke-width: 0.8; stroke-linecap: square"/>
     </g>
    </g>
    <g id="ytick_4">
     <g id="line2d_15">
      <path d="M 10.8 348.48 
L 493.2 348.48 
" clip-path="url(#p776da78d29)" style="fill: none; stroke: #b0b0b0; stroke-opacity: 0.3; stroke-width: 0.8; stroke-linecap: square"/>
     </g>
    </g>
    <g id="ytick_5">
     <g id="line2d_16">
      <path d="M 10.8 300.24 
L 493.2 300.24 
" clip-path="url(#p776da78d29)" style="fill: none; stroke: #b0b0b0; stroke-opacity: 0.3; stroke-width: 0.8; stroke-linecap: square"/>
     </g>
    </g>
    <g id="ytick_6">
     <g id="line2d_17">
      <path d="M 10.8 252 
L 493.2 252 
" clip-path="url(#p776da78d29)" style="fill: none; stroke: #b0b0b0; stroke-opacity: 0.3; stroke-width: 0.8; stroke-linecap: square"/>
     </g>
    </g>
    <g id="ytick_7">
     <g id="line2d_18">
      <path d="M 10.8 203.76 
L 493.2 203.76 
" clip-path="url(#p776da78d29)" style="fill: none; stroke: #b0b0b0; stroke-opacity: 0.3; stroke-width: 0.8; stroke-linecap: square"/>
     </g>
    </g>
    <g id="ytick_8">
     <g id="line2d_19">
      <path d="M 10.8 155.52 
L 493.2 155.52 
" clip-path="url(#p776da78d29)" style="fill: none; stroke: #b0b0b0; stroke-opacity: 0.3; stroke-width: 0.8; stroke-linecap: square"/>
     </g>
    </g>
    <g id="ytick_9">
     <g id="line2d_20">
      <path d="M 10.8 107.28 
L 493.2 107.28 
" clip-path="url(#p776da78d29)" style="fill: none; stroke: #b0b0b0; stroke-opacity: 0.3; stroke-width: 0.8; stroke-linecap: square"/>
     </g>
    </g>
    <g id="ytick_10">
     <g id="line2d_21">
      <path d="M 10.8 59.04 
L 493.2 59.04 
" clip-path="url(#p776da78d29)" style="fill: none; stroke: #b0b0b0; stroke-opacity: 0.3; stroke-width: 0.8; stroke-linecap: square"/>
     </g>
    </g>
    <g id="ytick_11">
     <g id="line2d_22">
      <path d="M 10.8 10.8 
L 493.2 10.8 
" clip-path="url(#p776da78d29)" style="fill: none; stroke: #b0b0b0; stroke-opacity: 0.3; stroke-width: 0.8; stroke-linecap: square"/>
     </g>
    </g>
   </g>
   <g id="PathCollection_1">
    <defs>
     <path id="ma13f357d6f" d="M 0 8.660254 
C 2.296726 8.660254 4.499694 7.747755 6.123724 6.123724 
C 7.747755 4.499694 8.660254 2.296726 8.660254 0 
C 8.660254 -2.296726 7.747755 -4.499694 6.123724 -6.123724 
C 4.499694 -7.747755 2.296726 -8.660254 0 -8.660254 
C -2.296726 -8.660254 -4.499694 -7.747755 -6.123724 -6.123724 
C -7.747755 -4.499694 -8.660254 -2.296726 -8.660254 0 
C -8.660254 2.296726 -7.747755 4.499694 -6.123724 6.123724 
C -4.499694 7.747755 -2.296726 8.660254 0 8.660254 
z
" style="stroke: #1f78b4"/>
    </defs>
    <g clip-path="url(#p776da78d29)">
     <use xlink:href="#ma13f357d6f" x="179.64" y="388.5192" style="fill: #1f78b4; stroke: #1f78b4"/>
     <use xlink:href="#ma13f357d6f" x="402.5088" y="108.2448" style="fill: #1f78b4; stroke: #1f78b4"/>
     <use xlink:href="#ma13f357d6f" x="61.452" y="488.8584" style="fill: #1f78b4; stroke: #1f78b4"/>
     <use xlink:href="#ma13f357d6f" x="426.6288" y="12.2472" style="fill: #1f78b4; stroke: #1f78b4"/>
     <use xlink:href="#ma13f357d6f" x="296.8632" y="242.352" style="fill: #1f78b4; stroke: #1f78b4"/>
     <use xlink:href="#ma13f357d6f" x="397.2024" y="83.16" style="fill: #1f78b4; stroke: #1f78b4"/>
     <use xlink:href="#ma13f357d6f" x="397.2024" y="312.7824" style="fill: #1f78b4; stroke: #1f78b4"/>
     <use xlink:href="#ma13f357d6f" x="207.6192" y="199.9008" style="fill: #1f78b4; stroke: #1f78b4"/>
     <use xlink:href="#ma13f357d6f" x="170.9568" y="383.6952" style="fill: #1f78b4; stroke: #1f78b4"/>
     <use xlink:href="#ma13f357d6f" x="213.408" y="487.4112" style="fill: #1f78b4; stroke: #1f78b4"/>
     <use xlink:href="#ma13f357d6f" x="162.756" y="348.48" style="fill: #1f78b4; stroke: #1f78b4"/>
     <use xlink:href="#ma13f357d6f" x="446.8896" y="243.3168" style="fill: #1f78b4; stroke: #1f78b4"/>
     <use xlink:href="#ma13f357d6f" x="19.4832" y="28.1664" style="fill: #1f78b4; stroke: #1f78b4"/>
     <use xlink:href="#ma13f357d6f" x="416.016" y="303.6168" style="fill: #1f78b4; stroke: #1f78b4"/>
     <use xlink:href="#ma13f357d6f" x="220.1616" y="37.332" style="fill: #1f78b4; stroke: #1f78b4"/>
     <use xlink:href="#ma13f357d6f" x="166.1328" y="280.4616" style="fill: #1f78b4; stroke: #1f78b4"/>
     <use xlink:href="#ma13f357d6f" x="168.5448" y="130.9176" style="fill: #1f78b4; stroke: #1f78b4"/>
     <use xlink:href="#ma13f357d6f" x="263.0952" y="402.5088" style="fill: #1f78b4; stroke: #1f78b4"/>
     <use xlink:href="#ma13f357d6f" x="436.7592" y="13.212" style="fill: #1f78b4; stroke: #1f78b4"/>
     <use xlink:href="#ma13f357d6f" x="53.7336" y="214.3728" style="fill: #1f78b4; stroke: #1f78b4"/>
     <use xlink:href="#ma13f357d6f" x="165.6504" y="428.5584" style="fill: #1f78b4; stroke: #1f78b4"/>
     <use xlink:href="#ma13f357d6f" x="356.1984" y="199.9008" style="fill: #1f78b4; stroke: #1f78b4"/>
     <use xlink:href="#ma13f357d6f" x="317.6064" y="404.9208" style="fill: #1f78b4; stroke: #1f78b4"/>
     <use xlink:href="#ma13f357d6f" x="15.1416" y="374.0472" style="fill: #1f78b4; stroke: #1f78b4"/>
     <use xlink:href="#ma13f357d6f" x="271.7784" y="195.5592" style="fill: #1f78b4; stroke: #1f78b4"/>
     <use xlink:href="#ma13f357d6f" x="188.3232" y="20.9304" style="fill: #1f78b4; stroke: #1f78b4"/>
     <use xlink:href="#ma13f357d6f" x="345.1032" y="483.0696" style="fill: #1f78b4; stroke: #1f78b4"/>
     <use xlink:href="#ma13f357d6f" x="438.6888" y="100.044" style="fill: #1f78b4; stroke: #1f78b4"/>
     <use xlink:href="#ma13f357d6f" x="491.2704" y="359.0928" style="fill: #1f78b4; stroke: #1f78b4"/>
     <use xlink:href="#ma13f357d6f" x="279.4968" y="380.8008" style="fill: #1f78b4; stroke: #1f78b4"/>
     <use xlink:href="#ma13f357d6f" x="323.8776" y="34.4376" style="fill: #1f78b4; stroke: #1f78b4"/>
     <use xlink:href="#ma13f357d6f" x="216.7848" y="318.0888" style="fill: #1f78b4; stroke: #1f78b4"/>
     <use xlink:href="#ma13f357d6f" x="289.1448" y="270.8136" style="fill: #1f78b4; stroke: #1f78b4"/>
     <use xlink:href="#ma13f357d6f" x="280.944" y="122.7168" style="fill: #1f78b4; stroke: #1f78b4"/>
     <use xlink:href="#ma13f357d6f" x="354.2688" y="225.468" style="fill: #1f78b4; stroke: #1f78b4"/>
     <use xlink:href="#ma13f357d6f" x="303.1344" y="361.0224" style="fill: #1f78b4; stroke: #1f78b4"/>
    </g>
   </g>
   <g id="patch_81">
    <path d="M 10.8 493.2 
L 10.8 10.8 
" style="fill: none; stroke: #000000; stroke-width: 0.8; stroke-linejoin: miter; stroke-linecap: square"/>
   </g>
   <g id="patch_82">
    <path d="M 493.2 493.2 
L 493.2 10.8 
" style="fill: none; stroke: #000000; stroke-width: 0.8; stroke-linejoin: miter; stroke-linecap: square"/>
   </g>
   <g id="patch_83">
    <path d="M 10.8 493.2 
L 493.2 493.2 
" style="fill: none; stroke: #000000; stroke-width: 0.8; stroke-linejoin: miter; stroke-linecap: square"/>
   </g>
   <g id="patch_84">
    <path d="M 10.8 10.8 
L 493.2 10.8 
" style="fill: none; stroke: #000000; stroke-width: 0.8; stroke-linejoin: miter; stroke-linecap: square"/>
   </g>
   <g id="text_79">
    <g clip-path="url(#p776da78d29)">
     <!-- 0 -->
     <g transform="translate(175.8225 391.83045) scale(0.12 -0.12)">
      <use xlink:href="#DejaVuSans-30"/>
     </g>
    </g>
   </g>
   <g id="text_80">
    <g clip-path="url(#p776da78d29)">
     <!-- 1 -->
     <g transform="translate(398.6913 111.55605) scale(0.12 -0.12)">
      <use xlink:href="#DejaVuSans-31"/>
     </g>
    </g>
   </g>
   <g id="text_81">
    <g clip-path="url(#p776da78d29)">
     <!-- 2 -->
     <g transform="translate(57.6345 492.16965) scale(0.12 -0.12)">
      <use xlink:href="#DejaVuSans-32"/>
     </g>
    </g>
   </g>
   <g id="text_82">
    <g clip-path="url(#p776da78d29)">
     <!-- 3 -->
     <g transform="translate(422.8113 15.55845) scale(0.12 -0.12)">
      <use xlink:href="#DejaVuSans-33"/>
     </g>
    </g>
   </g>
   <g id="text_83">
    <g clip-path="url(#p776da78d29)">
     <!-- 4 -->
     <g transform="translate(293.0457 245.66325) scale(0.12 -0.12)">
      <use xlink:href="#DejaVuSans-34"/>
     </g>
    </g>
   </g>
   <g id="text_84">
    <g clip-path="url(#p776da78d29)">
     <!-- 5 -->
     <g transform="translate(393.3849 86.47125) scale(0.12 -0.12)">
      <use xlink:href="#DejaVuSans-35"/>
     </g>
    </g>
   </g>
   <g id="text_85">
    <g clip-path="url(#p776da78d29)">
     <!-- 6 -->
     <g transform="translate(393.3849 316.09365) scale(0.12 -0.12)">
      <use xlink:href="#DejaVuSans-36"/>
     </g>
    </g>
   </g>
   <g id="text_86">
    <g clip-path="url(#p776da78d29)">
     <!-- 7 -->
     <g transform="translate(203.8017 203.21205) scale(0.12 -0.12)">
      <use xlink:href="#DejaVuSans-37"/>
     </g>
    </g>
   </g>
   <g id="text_87">
    <g clip-path="url(#p776da78d29)">
     <!-- 8 -->
     <g transform="translate(167.1393 387.00645) scale(0.12 -0.12)">
      <use xlink:href="#DejaVuSans-38"/>
     </g>
    </g>
   </g>
   <g id="text_88">
    <g clip-path="url(#p776da78d29)">
     <!-- 9 -->
     <g transform="translate(209.5905 490.72245) scale(0.12 -0.12)">
      <use xlink:href="#DejaVuSans-39"/>
     </g>
    </g>
   </g>
   <g id="text_89">
    <g clip-path="url(#p776da78d29)">
     <!-- 10 -->
     <g transform="translate(155.121 351.79125) scale(0.12 -0.12)">
      <use xlink:href="#DejaVuSans-31"/>
      <use xlink:href="#DejaVuSans-30" x="63.623047"/>
     </g>
    </g>
   </g>
   <g id="text_90">
    <g clip-path="url(#p776da78d29)">
     <!-- 11 -->
     <g transform="translate(439.2546 246.62805) scale(0.12 -0.12)">
      <use xlink:href="#DejaVuSans-31"/>
      <use xlink:href="#DejaVuSans-31" x="63.623047"/>
     </g>
    </g>
   </g>
   <g id="text_91">
    <g clip-path="url(#p776da78d29)">
     <!-- 12 -->
     <g transform="translate(11.8482 31.47765) scale(0.12 -0.12)">
      <use xlink:href="#DejaVuSans-31"/>
      <use xlink:href="#DejaVuSans-32" x="63.623047"/>
     </g>
    </g>
   </g>
   <g id="text_92">
    <g clip-path="url(#p776da78d29)">
     <!-- 13 -->
     <g transform="translate(408.381 306.92805) scale(0.12 -0.12)">
      <use xlink:href="#DejaVuSans-31"/>
      <use xlink:href="#DejaVuSans-33" x="63.623047"/>
     </g>
    </g>
   </g>
   <g id="text_93">
    <g clip-path="url(#p776da78d29)">
     <!-- 14 -->
     <g transform="translate(212.5266 40.64325) scale(0.12 -0.12)">
      <use xlink:href="#DejaVuSans-31"/>
      <use xlink:href="#DejaVuSans-34" x="63.623047"/>
     </g>
    </g>
   </g>
   <g id="text_94">
    <g clip-path="url(#p776da78d29)">
     <!-- 15 -->
     <g transform="translate(158.4978 283.77285) scale(0.12 -0.12)">
      <use xlink:href="#DejaVuSans-31"/>
      <use xlink:href="#DejaVuSans-35" x="63.623047"/>
     </g>
    </g>
   </g>
   <g id="text_95">
    <g clip-path="url(#p776da78d29)">
     <!-- 16 -->
     <g transform="translate(160.9098 134.22885) scale(0.12 -0.12)">
      <use xlink:href="#DejaVuSans-31"/>
      <use xlink:href="#DejaVuSans-36" x="63.623047"/>
     </g>
    </g>
   </g>
   <g id="text_96">
    <g clip-path="url(#p776da78d29)">
     <!-- 17 -->
     <g transform="translate(255.4602 405.82005) scale(0.12 -0.12)">
      <use xlink:href="#DejaVuSans-31"/>
      <use xlink:href="#DejaVuSans-37" x="63.623047"/>
     </g>
    </g>
   </g>
   <g id="text_97">
    <g clip-path="url(#p776da78d29)">
     <!-- 18 -->
     <g transform="translate(429.1242 16.52325) scale(0.12 -0.12)">
      <use xlink:href="#DejaVuSans-31"/>
      <use xlink:href="#DejaVuSans-38" x="63.623047"/>
     </g>
    </g>
   </g>
   <g id="text_98">
    <g clip-path="url(#p776da78d29)">
     <!-- 19 -->
     <g transform="translate(46.0986 217.68405) scale(0.12 -0.12)">
      <use xlink:href="#DejaVuSans-31"/>
      <use xlink:href="#DejaVuSans-39" x="63.623047"/>
     </g>
    </g>
   </g>
   <g id="text_99">
    <g clip-path="url(#p776da78d29)">
     <!-- 20 -->
     <g transform="translate(158.0154 431.86965) scale(0.12 -0.12)">
      <use xlink:href="#DejaVuSans-32"/>
      <use xlink:href="#DejaVuSans-30" x="63.623047"/>
     </g>
    </g>
   </g>
   <g id="text_100">
    <g clip-path="url(#p776da78d29)">
     <!-- 21 -->
     <g transform="translate(348.5634 203.21205) scale(0.12 -0.12)">
      <use xlink:href="#DejaVuSans-32"/>
      <use xlink:href="#DejaVuSans-31" x="63.623047"/>
     </g>
    </g>
   </g>
   <g id="text_101">
    <g clip-path="url(#p776da78d29)">
     <!-- 22 -->
     <g transform="translate(309.9714 408.23205) scale(0.12 -0.12)">
      <use xlink:href="#DejaVuSans-32"/>
      <use xlink:href="#DejaVuSans-32" x="63.623047"/>
     </g>
    </g>
   </g>
   <g id="text_102">
    <g clip-path="url(#p776da78d29)">
     <!-- 23 -->
     <g transform="translate(7.5066 377.35845) scale(0.12 -0.12)">
      <use xlink:href="#DejaVuSans-32"/>
      <use xlink:href="#DejaVuSans-33" x="63.623047"/>
     </g>
    </g>
   </g>
   <g id="text_103">
    <g clip-path="url(#p776da78d29)">
     <!-- 24 -->
     <g transform="translate(264.1434 198.87045) scale(0.12 -0.12)">
      <use xlink:href="#DejaVuSans-32"/>
      <use xlink:href="#DejaVuSans-34" x="63.623047"/>
     </g>
    </g>
   </g>
   <g id="text_104">
    <g clip-path="url(#p776da78d29)">
     <!-- 25 -->
     <g transform="translate(180.6882 24.24165) scale(0.12 -0.12)">
      <use xlink:href="#DejaVuSans-32"/>
      <use xlink:href="#DejaVuSans-35" x="63.623047"/>
     </g>
    </g>
   </g>
   <g id="text_105">
    <g clip-path="url(#p776da78d29)">
     <!-- 26 -->
     <g transform="translate(337.4682 486.38085) scale(0.12 -0.12)">
      <use xlink:href="#DejaVuSans-32"/>
      <use xlink:href="#DejaVuSans-36" x="63.623047"/>
     </g>
    </g>
   </g>
   <g id="text_106">
    <g clip-path="url(#p776da78d29)">
     <!-- 27 -->
     <g transform="translate(431.0538 103.35525) scale(0.12 -0.12)">
      <use xlink:href="#DejaVuSans-32"/>
      <use xlink:href="#DejaVuSans-37" x="63.623047"/>
     </g>
    </g>
   </g>
   <g id="text_107">
    <g clip-path="url(#p776da78d29)">
     <!-- 28 -->
     <g transform="translate(483.6354 362.40405) scale(0.12 -0.12)">
      <use xlink:href="#DejaVuSans-32"/>
      <use xlink:href="#DejaVuSans-38" x="63.623047"/>
     </g>
    </g>
   </g>
   <g id="text_108">
    <g clip-path="url(#p776da78d29)">
     <!-- 29 -->
     <g transform="translate(271.8618 384.11205) scale(0.12 -0.12)">
      <use xlink:href="#DejaVuSans-32"/>
      <use xlink:href="#DejaVuSans-39" x="63.623047"/>
     </g>
    </g>
   </g>
   <g id="text_109">
    <g clip-path="url(#p776da78d29)">
     <!-- 30 -->
     <g transform="translate(316.2426 37.74885) scale(0.12 -0.12)">
      <use xlink:href="#DejaVuSans-33"/>
      <use xlink:href="#DejaVuSans-30" x="63.623047"/>
     </g>
    </g>
   </g>
   <g id="text_110">
    <g clip-path="url(#p776da78d29)">
     <!-- 31 -->
     <g transform="translate(209.1498 321.40005) scale(0.12 -0.12)">
      <use xlink:href="#DejaVuSans-33"/>
      <use xlink:href="#DejaVuSans-31" x="63.623047"/>
     </g>
    </g>
   </g>
   <g id="text_111">
    <g clip-path="url(#p776da78d29)">
     <!-- 32 -->
     <g transform="translate(281.5098 274.12485) scale(0.12 -0.12)">
      <use xlink:href="#DejaVuSans-33"/>
      <use xlink:href="#DejaVuSans-32" x="63.623047"/>
     </g>
    </g>
   </g>
   <g id="text_112">
    <g clip-path="url(#p776da78d29)">
     <!-- 33 -->
     <g transform="translate(273.309 126.02805) scale(0.12 -0.12)">
      <use xlink:href="#DejaVuSans-33"/>
      <use xlink:href="#DejaVuSans-33" x="63.623047"/>
     </g>
    </g>
   </g>
   <g id="text_113">
    <g clip-path="url(#p776da78d29)">
     <!-- 34 -->
     <g transform="translate(346.6338 228.77925) scale(0.12 -0.12)">
      <use xlink:href="#DejaVuSans-33"/>
      <use xlink:href="#DejaVuSans-34" x="63.623047"/>
     </g>
    </g>
   </g>
   <g id="text_114">
    <g clip-path="url(#p776da78d29)">
     <!-- 35 -->
     <g transform="translate(295.4994 364.33365) scale(0.12 -0.12)">
      <use xlink:href="#DejaVuSans-33"/>
      <use xlink:href="#DejaVuSans-35" x="63.623047"/>
     </g>
    </g>
   </g>
  </g>
 </g>
 <defs>
  <clipPath id="p776da78d29">
   <rect x="10.8" y="10.8" width="482.4" height="482.4"/>
  </clipPath>
 </defs>
</svg>
